%TF.GenerationSoftware,KiCad,Pcbnew,8.0.7*%
%TF.CreationDate,2025-01-18T12:10:44-08:00*%
%TF.ProjectId,plex-loader,706c6578-2d6c-46f6-9164-65722e6b6963,rev?*%
%TF.SameCoordinates,Original*%
%TF.FileFunction,Copper,L1,Top*%
%TF.FilePolarity,Positive*%
%FSLAX46Y46*%
G04 Gerber Fmt 4.6, Leading zero omitted, Abs format (unit mm)*
G04 Created by KiCad (PCBNEW 8.0.7) date 2025-01-18 12:10:44*
%MOMM*%
%LPD*%
G01*
G04 APERTURE LIST*
G04 Aperture macros list*
%AMRoundRect*
0 Rectangle with rounded corners*
0 $1 Rounding radius*
0 $2 $3 $4 $5 $6 $7 $8 $9 X,Y pos of 4 corners*
0 Add a 4 corners polygon primitive as box body*
4,1,4,$2,$3,$4,$5,$6,$7,$8,$9,$2,$3,0*
0 Add four circle primitives for the rounded corners*
1,1,$1+$1,$2,$3*
1,1,$1+$1,$4,$5*
1,1,$1+$1,$6,$7*
1,1,$1+$1,$8,$9*
0 Add four rect primitives between the rounded corners*
20,1,$1+$1,$2,$3,$4,$5,0*
20,1,$1+$1,$4,$5,$6,$7,0*
20,1,$1+$1,$6,$7,$8,$9,0*
20,1,$1+$1,$8,$9,$2,$3,0*%
G04 Aperture macros list end*
%TA.AperFunction,SMDPad,CuDef*%
%ADD10R,1.405599X0.350800*%
%TD*%
%TA.AperFunction,SMDPad,CuDef*%
%ADD11RoundRect,0.243750X-0.456250X0.243750X-0.456250X-0.243750X0.456250X-0.243750X0.456250X0.243750X0*%
%TD*%
%TA.AperFunction,SMDPad,CuDef*%
%ADD12RoundRect,0.243750X0.456250X-0.243750X0.456250X0.243750X-0.456250X0.243750X-0.456250X-0.243750X0*%
%TD*%
%TA.AperFunction,SMDPad,CuDef*%
%ADD13RoundRect,0.140000X-0.170000X0.140000X-0.170000X-0.140000X0.170000X-0.140000X0.170000X0.140000X0*%
%TD*%
%TA.AperFunction,ComponentPad*%
%ADD14RoundRect,0.225000X0.475000X-0.225000X0.475000X0.225000X-0.475000X0.225000X-0.475000X-0.225000X0*%
%TD*%
%TA.AperFunction,ComponentPad*%
%ADD15O,1.400000X0.900000*%
%TD*%
%TA.AperFunction,SMDPad,CuDef*%
%ADD16RoundRect,0.200000X0.275000X-0.200000X0.275000X0.200000X-0.275000X0.200000X-0.275000X-0.200000X0*%
%TD*%
%TA.AperFunction,SMDPad,CuDef*%
%ADD17R,0.508000X0.990600*%
%TD*%
%TA.AperFunction,SMDPad,CuDef*%
%ADD18RoundRect,0.200000X-0.275000X0.200000X-0.275000X-0.200000X0.275000X-0.200000X0.275000X0.200000X0*%
%TD*%
%TA.AperFunction,ComponentPad*%
%ADD19R,1.700000X1.700000*%
%TD*%
%TA.AperFunction,ComponentPad*%
%ADD20O,1.700000X1.700000*%
%TD*%
%TA.AperFunction,SMDPad,CuDef*%
%ADD21RoundRect,0.200000X-0.200000X-0.275000X0.200000X-0.275000X0.200000X0.275000X-0.200000X0.275000X0*%
%TD*%
%TA.AperFunction,ViaPad*%
%ADD22C,0.600000*%
%TD*%
%TA.AperFunction,Conductor*%
%ADD23C,0.200000*%
%TD*%
G04 APERTURE END LIST*
D10*
%TO.P,U3,1,A0*%
%TO.N,/GPIO17*%
X63547199Y-95225001D03*
%TO.P,U3,2,EN*%
%TO.N,/GPIO10*%
X63547199Y-95874999D03*
%TO.P,U3,3,N.C.*%
%TO.N,unconnected-(U3-N.C.-Pad3)*%
X63547199Y-96525001D03*
%TO.P,U3,4,S1*%
%TO.N,/PGC1*%
X63547199Y-97174999D03*
%TO.P,U3,5,S2*%
%TO.N,/PGC2*%
X63547199Y-97824998D03*
%TO.P,U3,6,S3*%
%TO.N,/PGC3*%
X63547199Y-98474999D03*
%TO.P,U3,7,S4*%
%TO.N,/PGC4*%
X63547199Y-99124998D03*
%TO.P,U3,8,D*%
%TO.N,/PGC*%
X63547199Y-99774999D03*
%TO.P,U3,9,S8*%
%TO.N,/PGC8*%
X69452801Y-99774999D03*
%TO.P,U3,10,S7*%
%TO.N,/PGC7*%
X69452801Y-99125001D03*
%TO.P,U3,11,S6*%
%TO.N,/PGC6*%
X69452801Y-98474999D03*
%TO.P,U3,12,S5*%
%TO.N,/PGC5*%
X69452801Y-97825001D03*
%TO.P,U3,13,VDD*%
%TO.N,VDD*%
X69452801Y-97175002D03*
%TO.P,U3,14,GND*%
%TO.N,GND*%
X69452801Y-96525001D03*
%TO.P,U3,15,A2*%
%TO.N,/GPIO22*%
X69452801Y-95875002D03*
%TO.P,U3,16,A1*%
%TO.N,/GPIO27*%
X69452801Y-95225001D03*
%TD*%
%TO.P,U2,1,A0*%
%TO.N,/GPIO17*%
X63547199Y-83225001D03*
%TO.P,U2,2,EN*%
%TO.N,/GPIO10*%
X63547199Y-83874999D03*
%TO.P,U2,3,N.C.*%
%TO.N,unconnected-(U2-N.C.-Pad3)*%
X63547199Y-84525001D03*
%TO.P,U2,4,S1*%
%TO.N,/PGD1*%
X63547199Y-85174999D03*
%TO.P,U2,5,S2*%
%TO.N,/PGD2*%
X63547199Y-85824998D03*
%TO.P,U2,6,S3*%
%TO.N,/PGD3*%
X63547199Y-86474999D03*
%TO.P,U2,7,S4*%
%TO.N,/PGD4*%
X63547199Y-87124998D03*
%TO.P,U2,8,D*%
%TO.N,/PGD*%
X63547199Y-87774999D03*
%TO.P,U2,9,S8*%
%TO.N,/PGD8*%
X69452801Y-87774999D03*
%TO.P,U2,10,S7*%
%TO.N,/PGD7*%
X69452801Y-87125001D03*
%TO.P,U2,11,S6*%
%TO.N,/PGD6*%
X69452801Y-86474999D03*
%TO.P,U2,12,S5*%
%TO.N,/PGD5*%
X69452801Y-85825001D03*
%TO.P,U2,13,VDD*%
%TO.N,VDD*%
X69452801Y-85175002D03*
%TO.P,U2,14,GND*%
%TO.N,GND*%
X69452801Y-84525001D03*
%TO.P,U2,15,A2*%
%TO.N,/GPIO22*%
X69452801Y-83875002D03*
%TO.P,U2,16,A1*%
%TO.N,/GPIO27*%
X69452801Y-83225001D03*
%TD*%
%TO.P,U1,1,A0*%
%TO.N,/GPIO17*%
X63547199Y-71225001D03*
%TO.P,U1,2,EN*%
%TO.N,/GPIO10*%
X63547199Y-71874999D03*
%TO.P,U1,3,N.C.*%
%TO.N,unconnected-(U1-N.C.-Pad3)*%
X63547199Y-72525001D03*
%TO.P,U1,4,S1*%
%TO.N,/MCLR1*%
X63547199Y-73174999D03*
%TO.P,U1,5,S2*%
%TO.N,/MCLR2*%
X63547199Y-73824998D03*
%TO.P,U1,6,S3*%
%TO.N,/MCLR3*%
X63547199Y-74474999D03*
%TO.P,U1,7,S4*%
%TO.N,/MCLR4*%
X63547199Y-75124998D03*
%TO.P,U1,8,D*%
%TO.N,/MCLR*%
X63547199Y-75774999D03*
%TO.P,U1,9,S8*%
%TO.N,/MCLR8*%
X69452801Y-75774999D03*
%TO.P,U1,10,S7*%
%TO.N,/MCLR7*%
X69452801Y-75125001D03*
%TO.P,U1,11,S6*%
%TO.N,/MCLR6*%
X69452801Y-74474999D03*
%TO.P,U1,12,S5*%
%TO.N,/MCLR5*%
X69452801Y-73825001D03*
%TO.P,U1,13,VDD*%
%TO.N,VDD*%
X69452801Y-73175002D03*
%TO.P,U1,14,GND*%
%TO.N,GND*%
X69452801Y-72525001D03*
%TO.P,U1,15,A2*%
%TO.N,/GPIO22*%
X69452801Y-71875002D03*
%TO.P,U1,16,A1*%
%TO.N,/GPIO27*%
X69452801Y-71225001D03*
%TD*%
D11*
%TO.P,D9,1,K*%
%TO.N,GND*%
X76331500Y-105850000D03*
%TO.P,D9,2,A*%
%TO.N,Net-(D9-A)*%
X76331500Y-107725000D03*
%TD*%
%TO.P,D8,1,K*%
%TO.N,GND*%
X78831500Y-105850000D03*
%TO.P,D8,2,A*%
%TO.N,Net-(D8-A)*%
X78831500Y-107725000D03*
%TD*%
D12*
%TO.P,D7,2,A*%
%TO.N,Net-(D7-A)*%
X58500000Y-103348750D03*
%TO.P,D7,1,K*%
%TO.N,GND*%
X58500000Y-105223750D03*
%TD*%
%TO.P,D6,1,K*%
%TO.N,GND*%
X58500000Y-95823750D03*
%TO.P,D6,2,A*%
%TO.N,Net-(D6-A)*%
X58500000Y-93948750D03*
%TD*%
%TO.P,D4,1,K*%
%TO.N,GND*%
X58500000Y-77023750D03*
%TO.P,D4,2,A*%
%TO.N,Net-(D4-A)*%
X58500000Y-75148750D03*
%TD*%
%TO.P,D3,1,K*%
%TO.N,GND*%
X58500000Y-67623750D03*
%TO.P,D3,2,A*%
%TO.N,Net-(D3-A)*%
X58500000Y-65748750D03*
%TD*%
%TO.P,D2,1,K*%
%TO.N,GND*%
X58500000Y-114623750D03*
%TO.P,D2,2,A*%
%TO.N,Net-(D2-A)*%
X58500000Y-112748750D03*
%TD*%
D13*
%TO.P,C3,1*%
%TO.N,GND*%
X71547199Y-96245001D03*
%TO.P,C3,2*%
%TO.N,VDD*%
X71547199Y-97205001D03*
%TD*%
D14*
%TO.P,J6,1,Pin_1*%
%TO.N,/MCLR6*%
X55432500Y-114500000D03*
D15*
%TO.P,J6,2,Pin_2*%
%TO.N,unconnected-(J6-Pin_2-Pad2)*%
X55432500Y-113250000D03*
%TO.P,J6,3,Pin_3*%
%TO.N,unconnected-(J6-Pin_3-Pad3)*%
X55432500Y-112000000D03*
%TO.P,J6,4,Pin_4*%
%TO.N,/PGD6*%
X55432500Y-110750000D03*
%TO.P,J6,5,Pin_5*%
%TO.N,/PGC6*%
X55432500Y-109500000D03*
%TD*%
D16*
%TO.P,R13,1*%
%TO.N,Net-(D4-A)*%
X58500000Y-73298750D03*
%TO.P,R13,2*%
%TO.N,/dspic/B4*%
X58500000Y-71648750D03*
%TD*%
%TO.P,R11,1*%
%TO.N,Net-(D2-A)*%
X58500000Y-110898750D03*
%TO.P,R11,2*%
%TO.N,/dspic/B2*%
X58500000Y-109248750D03*
%TD*%
D17*
%TO.P,U5,6,D*%
%TO.N,VDD*%
X71500000Y-54000000D03*
%TO.P,U5,5,D*%
X72449960Y-54000000D03*
%TO.P,U5,4,S*%
%TO.N,+3.3V*%
X73399920Y-54000000D03*
%TO.P,U5,3,G*%
%TO.N,Net-(U5-G)*%
X73399920Y-56692400D03*
%TO.P,U5,2,D*%
%TO.N,VDD*%
X72449960Y-56692400D03*
%TO.P,U5,1,D*%
X71500000Y-56692400D03*
%TD*%
D18*
%TO.P,R18,2*%
%TO.N,/dspic/B11*%
X76331500Y-111150000D03*
%TO.P,R18,1*%
%TO.N,Net-(D9-A)*%
X76331500Y-109500000D03*
%TD*%
D19*
%TO.P,J10,1,Pin_1*%
%TO.N,unconnected-(J10-Pin_1-Pad1)*%
X64859000Y-53683000D03*
D20*
%TO.P,J10,2,Pin_2*%
%TO.N,unconnected-(J10-Pin_2-Pad2)*%
X67399000Y-53683000D03*
%TO.P,J10,3,Pin_3*%
%TO.N,unconnected-(J10-Pin_3-Pad3)*%
X64859000Y-56223000D03*
%TO.P,J10,4,Pin_4*%
%TO.N,unconnected-(J10-Pin_4-Pad4)*%
X67399000Y-56223000D03*
%TO.P,J10,5,Pin_5*%
%TO.N,unconnected-(J10-Pin_5-Pad5)*%
X64859000Y-58763000D03*
%TO.P,J10,6,Pin_6*%
%TO.N,unconnected-(J10-Pin_6-Pad6)*%
X67399000Y-58763000D03*
%TO.P,J10,7,Pin_7*%
%TO.N,unconnected-(J10-Pin_7-Pad7)*%
X64859000Y-61303000D03*
%TO.P,J10,8,Pin_8*%
%TO.N,unconnected-(J10-Pin_8-Pad8)*%
X67399000Y-61303000D03*
%TO.P,J10,9,Pin_9*%
%TO.N,unconnected-(J10-Pin_9-Pad9)*%
X64859000Y-63843000D03*
%TO.P,J10,10,Pin_10*%
%TO.N,unconnected-(J10-Pin_10-Pad10)*%
X67399000Y-63843000D03*
%TD*%
D21*
%TO.P,R7,2*%
%TO.N,/GPIO23*%
X70500000Y-101725001D03*
%TO.P,R7,1*%
%TO.N,/PGC*%
X68850000Y-101725001D03*
%TD*%
D16*
%TO.P,R16,2*%
%TO.N,/dspic/B7*%
X58500000Y-99848750D03*
%TO.P,R16,1*%
%TO.N,Net-(D7-A)*%
X58500000Y-101498750D03*
%TD*%
D21*
%TO.P,R3,1*%
%TO.N,/GPIO25*%
X71600000Y-58900000D03*
%TO.P,R3,2*%
%TO.N,Net-(U5-G)*%
X73250000Y-58900000D03*
%TD*%
D18*
%TO.P,R10,1*%
%TO.N,/GPIO10*%
X74000000Y-76500000D03*
%TO.P,R10,2*%
%TO.N,GND*%
X74000000Y-78150000D03*
%TD*%
%TO.P,R4,2*%
%TO.N,VDD*%
X81331500Y-111132500D03*
%TO.P,R4,1*%
%TO.N,Net-(D1-A)*%
X81331500Y-109482500D03*
%TD*%
D14*
%TO.P,J3,1,Pin_1*%
%TO.N,/MCLR3*%
X55432500Y-86300000D03*
D15*
%TO.P,J3,2,Pin_2*%
%TO.N,unconnected-(J3-Pin_2-Pad2)*%
X55432500Y-85050000D03*
%TO.P,J3,3,Pin_3*%
%TO.N,unconnected-(J3-Pin_3-Pad3)*%
X55432500Y-83800000D03*
%TO.P,J3,4,Pin_4*%
%TO.N,/PGD3*%
X55432500Y-82550000D03*
%TO.P,J3,5,Pin_5*%
%TO.N,/PGC3*%
X55432500Y-81300000D03*
%TD*%
D14*
%TO.P,J4,1,Pin_1*%
%TO.N,/MCLR4*%
X55432500Y-95700000D03*
D15*
%TO.P,J4,2,Pin_2*%
%TO.N,unconnected-(J4-Pin_2-Pad2)*%
X55432500Y-94450000D03*
%TO.P,J4,3,Pin_3*%
%TO.N,unconnected-(J4-Pin_3-Pad3)*%
X55432500Y-93200000D03*
%TO.P,J4,4,Pin_4*%
%TO.N,/PGD4*%
X55432500Y-91950000D03*
%TO.P,J4,5,Pin_5*%
%TO.N,/PGC4*%
X55432500Y-90700000D03*
%TD*%
D19*
%TO.P,J9,1,Pin_1*%
%TO.N,+3.3V*%
X77559000Y-53683000D03*
D20*
%TO.P,J9,2,Pin_2*%
%TO.N,+5V*%
X80099000Y-53683000D03*
%TO.P,J9,3,Pin_3*%
%TO.N,/GPIO2*%
X77559000Y-56223000D03*
%TO.P,J9,4,Pin_4*%
%TO.N,+5V*%
X80099000Y-56223000D03*
%TO.P,J9,5,Pin_5*%
%TO.N,/GPIO3*%
X77559000Y-58763000D03*
%TO.P,J9,6,Pin_6*%
%TO.N,GND*%
X80099000Y-58763000D03*
%TO.P,J9,7,Pin_7*%
%TO.N,unconnected-(J9-Pin_7-Pad7)*%
X77559000Y-61303000D03*
%TO.P,J9,8,Pin_8*%
%TO.N,unconnected-(J9-Pin_8-Pad8)*%
X80099000Y-61303000D03*
%TO.P,J9,9,Pin_9*%
%TO.N,unconnected-(J9-Pin_9-Pad9)*%
X77559000Y-63843000D03*
%TO.P,J9,10,Pin_10*%
%TO.N,unconnected-(J9-Pin_10-Pad10)*%
X80099000Y-63843000D03*
%TO.P,J9,11,Pin_11*%
%TO.N,/GPIO17*%
X77559000Y-66383000D03*
%TO.P,J9,12,Pin_12*%
%TO.N,/GPIO18*%
X80099000Y-66383000D03*
%TO.P,J9,13,Pin_13*%
%TO.N,/GPIO27*%
X77559000Y-68923000D03*
%TO.P,J9,14,Pin_14*%
%TO.N,unconnected-(J9-Pin_14-Pad14)*%
X80099000Y-68923000D03*
%TO.P,J9,15,Pin_15*%
%TO.N,/GPIO22*%
X77559000Y-71463000D03*
%TO.P,J9,16,Pin_16*%
%TO.N,/GPIO23*%
X80099000Y-71463000D03*
%TO.P,J9,17,Pin_17*%
%TO.N,unconnected-(J9-Pin_17-Pad17)*%
X77559000Y-74003000D03*
%TO.P,J9,18,Pin_18*%
%TO.N,/GPIO24*%
X80099000Y-74003000D03*
%TO.P,J9,19,Pin_19*%
%TO.N,/GPIO10*%
X77559000Y-76543000D03*
%TO.P,J9,20,Pin_20*%
%TO.N,unconnected-(J9-Pin_20-Pad20)*%
X80099000Y-76543000D03*
%TO.P,J9,21,Pin_21*%
%TO.N,unconnected-(J9-Pin_21-Pad21)*%
X77559000Y-79083000D03*
%TO.P,J9,22,Pin_22*%
%TO.N,/GPIO25*%
X80099000Y-79083000D03*
%TO.P,J9,23,Pin_23*%
%TO.N,unconnected-(J9-Pin_23-Pad23)*%
X77559000Y-81623000D03*
%TO.P,J9,24,Pin_24*%
%TO.N,unconnected-(J9-Pin_24-Pad24)*%
X80099000Y-81623000D03*
%TO.P,J9,25,Pin_25*%
%TO.N,unconnected-(J9-Pin_25-Pad25)*%
X77559000Y-84163000D03*
%TO.P,J9,26,Pin_26*%
%TO.N,unconnected-(J9-Pin_26-Pad26)*%
X80099000Y-84163000D03*
%TO.P,J9,27,Pin_27*%
%TO.N,unconnected-(J9-Pin_27-Pad27)*%
X77559000Y-86703000D03*
%TO.P,J9,28,Pin_28*%
%TO.N,unconnected-(J9-Pin_28-Pad28)*%
X80099000Y-86703000D03*
%TO.P,J9,29,Pin_29*%
%TO.N,unconnected-(J9-Pin_29-Pad29)*%
X77559000Y-89243000D03*
%TO.P,J9,30,Pin_30*%
%TO.N,unconnected-(J9-Pin_30-Pad30)*%
X80099000Y-89243000D03*
%TO.P,J9,31,Pin_31*%
%TO.N,unconnected-(J9-Pin_31-Pad31)*%
X77559000Y-91783000D03*
%TO.P,J9,32,Pin_32*%
%TO.N,unconnected-(J9-Pin_32-Pad32)*%
X80099000Y-91783000D03*
%TO.P,J9,33,Pin_33*%
%TO.N,unconnected-(J9-Pin_33-Pad33)*%
X77559000Y-94323000D03*
%TO.P,J9,34,Pin_34*%
%TO.N,unconnected-(J9-Pin_34-Pad34)*%
X80099000Y-94323000D03*
%TO.P,J9,35,Pin_35*%
%TO.N,unconnected-(J9-Pin_35-Pad35)*%
X77559000Y-96863000D03*
%TO.P,J9,36,Pin_36*%
%TO.N,unconnected-(J9-Pin_36-Pad36)*%
X80099000Y-96863000D03*
%TO.P,J9,37,Pin_37*%
%TO.N,unconnected-(J9-Pin_37-Pad37)*%
X77559000Y-99403000D03*
%TO.P,J9,38,Pin_38*%
%TO.N,unconnected-(J9-Pin_38-Pad38)*%
X80099000Y-99403000D03*
%TO.P,J9,39,Pin_39*%
%TO.N,unconnected-(J9-Pin_39-Pad39)*%
X77559000Y-101943000D03*
%TO.P,J9,40,Pin_40*%
%TO.N,unconnected-(J9-Pin_40-Pad40)*%
X80099000Y-101943000D03*
%TD*%
D16*
%TO.P,R12,1*%
%TO.N,Net-(D3-A)*%
X58500000Y-63898750D03*
%TO.P,R12,2*%
%TO.N,/dspic/B3*%
X58500000Y-62248750D03*
%TD*%
D13*
%TO.P,C1,1*%
%TO.N,GND*%
X71547199Y-72245001D03*
%TO.P,C1,2*%
%TO.N,VDD*%
X71547199Y-73205001D03*
%TD*%
D16*
%TO.P,R15,1*%
%TO.N,Net-(D6-A)*%
X58500000Y-92098750D03*
%TO.P,R15,2*%
%TO.N,/dspic/B6*%
X58500000Y-90448750D03*
%TD*%
D14*
%TO.P,J2,1,Pin_1*%
%TO.N,/MCLR2*%
X55432500Y-76900000D03*
D15*
%TO.P,J2,2,Pin_2*%
%TO.N,unconnected-(J2-Pin_2-Pad2)*%
X55432500Y-75650000D03*
%TO.P,J2,3,Pin_3*%
%TO.N,unconnected-(J2-Pin_3-Pad3)*%
X55432500Y-74400000D03*
%TO.P,J2,4,Pin_4*%
%TO.N,/PGD2*%
X55432500Y-73150000D03*
%TO.P,J2,5,Pin_5*%
%TO.N,/PGC2*%
X55432500Y-71900000D03*
%TD*%
D14*
%TO.P,J5,1,Pin_1*%
%TO.N,/MCLR5*%
X55432500Y-105100000D03*
D15*
%TO.P,J5,2,Pin_2*%
%TO.N,unconnected-(J5-Pin_2-Pad2)*%
X55432500Y-103850000D03*
%TO.P,J5,3,Pin_3*%
%TO.N,unconnected-(J5-Pin_3-Pad3)*%
X55432500Y-102600000D03*
%TO.P,J5,4,Pin_4*%
%TO.N,/PGD5*%
X55432500Y-101350000D03*
%TO.P,J5,5,Pin_5*%
%TO.N,/PGC5*%
X55432500Y-100100000D03*
%TD*%
D14*
%TO.P,J1,1,Pin_1*%
%TO.N,/MCLR1*%
X55432500Y-67500000D03*
D15*
%TO.P,J1,2,Pin_2*%
%TO.N,unconnected-(J1-Pin_2-Pad2)*%
X55432500Y-66250000D03*
%TO.P,J1,3,Pin_3*%
%TO.N,unconnected-(J1-Pin_3-Pad3)*%
X55432500Y-65000000D03*
%TO.P,J1,4,Pin_4*%
%TO.N,/PGD1*%
X55432500Y-63750000D03*
%TO.P,J1,5,Pin_5*%
%TO.N,/PGC1*%
X55432500Y-62500000D03*
%TD*%
D18*
%TO.P,R17,2*%
%TO.N,/dspic/B10*%
X78831500Y-111150000D03*
%TO.P,R17,1*%
%TO.N,Net-(D8-A)*%
X78831500Y-109500000D03*
%TD*%
D11*
%TO.P,D1,1,K*%
%TO.N,GND*%
X81331500Y-105850000D03*
%TO.P,D1,2,A*%
%TO.N,Net-(D1-A)*%
X81331500Y-107725000D03*
%TD*%
D13*
%TO.P,C2,1*%
%TO.N,GND*%
X71547199Y-84266301D03*
%TO.P,C2,2*%
%TO.N,VDD*%
X71547199Y-85226301D03*
%TD*%
D21*
%TO.P,R8,1*%
%TO.N,/PGD*%
X68722199Y-89725001D03*
%TO.P,R8,2*%
%TO.N,/GPIO24*%
X70372199Y-89725001D03*
%TD*%
D12*
%TO.P,D5,1,K*%
%TO.N,GND*%
X58500000Y-86423750D03*
%TO.P,D5,2,A*%
%TO.N,Net-(D5-A)*%
X58500000Y-84548750D03*
%TD*%
D16*
%TO.P,R14,1*%
%TO.N,Net-(D5-A)*%
X58500000Y-82698750D03*
%TO.P,R14,2*%
%TO.N,/dspic/B5*%
X58500000Y-81048750D03*
%TD*%
D21*
%TO.P,R9,2*%
%TO.N,/GPIO18*%
X70325000Y-77725001D03*
%TO.P,R9,1*%
%TO.N,/MCLR*%
X68675000Y-77725001D03*
%TD*%
D22*
%TO.N,/dspic/B11*%
X74200000Y-111400000D03*
%TO.N,/dspic/B6*%
X60943094Y-94343094D03*
X60400000Y-99800000D03*
X66000000Y-101600000D03*
%TO.N,/dspic/B3*%
X61400000Y-107200000D03*
%TO.N,/dspic/B4*%
X61600000Y-103400000D03*
X57200000Y-100400000D03*
X54600000Y-70600000D03*
%TO.N,/dspic/B5*%
X68000000Y-96340877D03*
X61800000Y-87800000D03*
X60800000Y-84200000D03*
%TO.N,GND*%
X58500000Y-95823750D03*
%TO.N,/GPIO17*%
X60600000Y-90600000D03*
X62052983Y-71241051D03*
X62999997Y-80000000D03*
%TO.N,/GPIO3*%
X63800000Y-77000000D03*
X68400000Y-82324265D03*
%TO.N,/GPIO18*%
X64600000Y-77800000D03*
%TO.N,/GPIO23*%
X73800000Y-95400000D03*
X71800000Y-99400000D03*
%TO.N,VDD*%
X58400000Y-106600000D03*
%TO.N,/dspic/B2*%
X58500000Y-109248750D03*
%TO.N,/dspic/B7*%
X66000000Y-102800000D03*
%TO.N,/GPIO2*%
X73200000Y-102951473D03*
%TO.N,/GPIO10*%
X65200000Y-84600000D03*
X61600000Y-90600000D03*
X73000000Y-70200000D03*
%TO.N,/PGD1*%
X61800000Y-84200000D03*
X61800000Y-72000000D03*
%TO.N,/PGD6*%
X71220728Y-92600000D03*
X71600000Y-101000000D03*
%TO.N,/PGC2*%
X65000000Y-96400000D03*
X61600000Y-95948930D03*
%TO.N,/PGC3*%
X62000000Y-98600000D03*
X64747481Y-98524998D03*
X59005855Y-98984280D03*
%TO.N,/MCLR3*%
X66397936Y-74524998D03*
%TO.N,/MCLR4*%
X67000000Y-75124998D03*
%TO.N,/MCLR5*%
X67800000Y-75000000D03*
%TO.N,/PGC4*%
X66000000Y-96400000D03*
X65600000Y-94000000D03*
%TO.N,/PGC5*%
X62000000Y-97800000D03*
%TO.N,/PGD5*%
X66123526Y-89125001D03*
X60800000Y-98384280D03*
%TO.N,/MCLR6*%
X72651471Y-104500000D03*
X70100000Y-81729275D03*
%TO.N,/dspic/B10*%
X78000000Y-113000000D03*
%TO.N,/PGD8*%
X67048528Y-89048528D03*
%TO.N,/PGC8*%
X65500000Y-104500000D03*
%TO.N,/MCLR8*%
X69500000Y-79500000D03*
%TO.N,VDD*%
X66035000Y-114000000D03*
%TO.N,GND*%
X63035000Y-113775000D03*
X73500000Y-108375000D03*
%TO.N,VDD*%
X73500000Y-100275000D03*
%TO.N,GND*%
X65420000Y-98000000D03*
%TO.N,VDD*%
X67975000Y-98000000D03*
X66380000Y-98000000D03*
%TO.N,/GPIO22*%
X71500000Y-82500000D03*
%TO.N,/GPIO27*%
X72400000Y-72500000D03*
%TO.N,VDD*%
X81331500Y-111132500D03*
%TO.N,GND*%
X81331500Y-105850000D03*
X78831500Y-105850000D03*
X76331500Y-105850000D03*
X58500000Y-114623750D03*
X58500000Y-105223750D03*
X71547199Y-96245001D03*
%TO.N,VDD*%
X71547199Y-97205001D03*
%TO.N,GND*%
X71547199Y-84266301D03*
%TO.N,VDD*%
X71547199Y-85226301D03*
%TO.N,GND*%
X58500000Y-67623750D03*
X58500000Y-77023750D03*
X58500000Y-86423750D03*
X74000000Y-78150000D03*
%TO.N,VDD*%
X71547199Y-73205001D03*
%TO.N,GND*%
X71547199Y-72245001D03*
%TO.N,VDD*%
X71500000Y-57800000D03*
X72449960Y-57800000D03*
X71500000Y-53000000D03*
X72449960Y-53000000D03*
%TO.N,/GPIO24*%
X70372199Y-89725001D03*
%TO.N,/PGC5*%
X66880996Y-96832467D03*
%TD*%
D23*
%TO.N,/dspic/B11*%
X75050000Y-111150000D02*
X76331500Y-111150000D01*
X74800000Y-111400000D02*
X75050000Y-111150000D01*
X74200000Y-111400000D02*
X74800000Y-111400000D01*
%TO.N,/dspic/B6*%
X60943094Y-92891844D02*
X60943094Y-94343094D01*
X58500000Y-90448750D02*
X60943094Y-92891844D01*
%TO.N,/PGC4*%
X60648529Y-88800000D02*
X62200000Y-90351471D01*
X59600000Y-88800000D02*
X60648529Y-88800000D01*
X59000000Y-89400000D02*
X59600000Y-88800000D01*
X56732500Y-89400000D02*
X59000000Y-89400000D01*
X55432500Y-90700000D02*
X56732500Y-89400000D01*
X62200000Y-90351471D02*
X62200000Y-90400000D01*
%TO.N,/PGD4*%
X58600000Y-89000000D02*
X60475002Y-87124998D01*
X55821840Y-89000000D02*
X58600000Y-89000000D01*
X54432500Y-90389340D02*
X55821840Y-89000000D01*
X55182500Y-91950000D02*
X54432500Y-91200000D01*
X54432500Y-91200000D02*
X54432500Y-90389340D01*
X60475002Y-87124998D02*
X63547199Y-87124998D01*
X55432500Y-91950000D02*
X55182500Y-91950000D01*
%TO.N,/PGD5*%
X55493160Y-101350000D02*
X55432500Y-101350000D01*
X56432500Y-100410660D02*
X55493160Y-101350000D01*
X56432500Y-99767500D02*
X56432500Y-100410660D01*
X57815720Y-98384280D02*
X56432500Y-99767500D01*
X60800000Y-98384280D02*
X57815720Y-98384280D01*
%TO.N,/PGC3*%
X62000000Y-98600000D02*
X61615720Y-98984280D01*
X61615720Y-98984280D02*
X59005855Y-98984280D01*
%TO.N,/PGC5*%
X57548220Y-97984280D02*
X55432500Y-100100000D01*
X59951471Y-97984280D02*
X57548220Y-97984280D01*
X60151471Y-97784280D02*
X59951471Y-97984280D01*
X62000000Y-97800000D02*
X61984280Y-97784280D01*
X61984280Y-97784280D02*
X60151471Y-97784280D01*
%TO.N,/dspic/B6*%
X62200000Y-101600000D02*
X60400000Y-99800000D01*
X66000000Y-101600000D02*
X62200000Y-101600000D01*
%TO.N,/dspic/B3*%
X58001250Y-61750000D02*
X58500000Y-62248750D01*
X54871840Y-61750000D02*
X58001250Y-61750000D01*
X53200000Y-105200000D02*
X53200000Y-63421840D01*
X61400000Y-107200000D02*
X55200000Y-107200000D01*
X55200000Y-107200000D02*
X53200000Y-105200000D01*
X53200000Y-63421840D02*
X54871840Y-61750000D01*
%TO.N,/dspic/B4*%
X60863750Y-104136250D02*
X61600000Y-103400000D01*
X57811768Y-104136250D02*
X60863750Y-104136250D01*
X57200000Y-103524482D02*
X57811768Y-104136250D01*
X57200000Y-100400000D02*
X57200000Y-103524482D01*
X57451250Y-70600000D02*
X54600000Y-70600000D01*
X58500000Y-71648750D02*
X57451250Y-70600000D01*
%TO.N,/PGC4*%
X55881250Y-91148750D02*
X55432500Y-90700000D01*
X65600000Y-93800000D02*
X62200000Y-90400000D01*
X65600000Y-94000000D02*
X65600000Y-93800000D01*
%TO.N,/dspic/B5*%
X63400000Y-89400000D02*
X61800000Y-87800000D01*
X68400000Y-93200000D02*
X64600000Y-89400000D01*
X68400000Y-95940877D02*
X68400000Y-93200000D01*
X64600000Y-89400000D02*
X63400000Y-89400000D01*
X68000000Y-96340877D02*
X68400000Y-95940877D01*
%TO.N,/PGC5*%
X67655996Y-96832467D02*
X68648530Y-97825001D01*
X66880996Y-96832467D02*
X67655996Y-96832467D01*
X68648530Y-97825001D02*
X69452801Y-97825001D01*
%TO.N,/PGC4*%
X66600000Y-97400000D02*
X66000000Y-96800000D01*
X66628529Y-97400000D02*
X66600000Y-97400000D01*
X66475002Y-99124998D02*
X67000000Y-98600000D01*
X67000000Y-98600000D02*
X67000000Y-97771471D01*
X67000000Y-97771471D02*
X66628529Y-97400000D01*
X63547199Y-99124998D02*
X66475002Y-99124998D01*
X66000000Y-96800000D02*
X66000000Y-96400000D01*
%TO.N,/PGD*%
X64027800Y-88227800D02*
X64000000Y-88227800D01*
X64000000Y-88227800D02*
X63547199Y-87774999D01*
X65525001Y-89725001D02*
X64027800Y-88227800D01*
X68722199Y-89725001D02*
X65525001Y-89725001D01*
%TO.N,/dspic/B5*%
X60800000Y-83245417D02*
X60800000Y-84200000D01*
X58603333Y-81048750D02*
X60800000Y-83245417D01*
X58500000Y-81048750D02*
X58603333Y-81048750D01*
%TO.N,/dspic/B7*%
X66000000Y-102800000D02*
X65200000Y-102000000D01*
X60651250Y-102000000D02*
X58500000Y-99848750D01*
X65200000Y-102000000D02*
X60651250Y-102000000D01*
%TO.N,/GPIO17*%
X62999997Y-82677799D02*
X63547199Y-83225001D01*
X62999997Y-80000000D02*
X62999997Y-82677799D01*
X63547199Y-93547199D02*
X60600000Y-90600000D01*
X63547199Y-95225001D02*
X63547199Y-93547199D01*
X63531149Y-71241051D02*
X63547199Y-71225001D01*
X62052983Y-71241051D02*
X63531149Y-71241051D01*
X72217000Y-66383000D02*
X77559000Y-66383000D01*
X67374999Y-71225001D02*
X72217000Y-66383000D01*
X63547199Y-71225001D02*
X67374999Y-71225001D01*
%TO.N,/GPIO3*%
X63800000Y-77848529D02*
X63800000Y-77000000D01*
X68400000Y-82324265D02*
X68275736Y-82324265D01*
X68275736Y-82324265D02*
X63800000Y-77848529D01*
%TO.N,/GPIO18*%
X70325000Y-79523529D02*
X70325000Y-77725001D01*
X69748529Y-80100000D02*
X70325000Y-79523529D01*
X64600000Y-77800000D02*
X66900000Y-80100000D01*
X66900000Y-80100000D02*
X69748529Y-80100000D01*
%TO.N,/PGD8*%
X68322057Y-87774999D02*
X67048528Y-89048528D01*
X69452801Y-87774999D02*
X68322057Y-87774999D01*
%TO.N,/PGD5*%
X68624600Y-85825001D02*
X69452801Y-85825001D01*
X68450002Y-86798525D02*
X68450002Y-85999599D01*
X66123526Y-89125001D02*
X68450002Y-86798525D01*
X68450002Y-85999599D02*
X68624600Y-85825001D01*
%TO.N,/GPIO23*%
X78800000Y-72762000D02*
X80099000Y-71463000D01*
X77000000Y-77800000D02*
X77928346Y-77800000D01*
X73800000Y-81000000D02*
X77000000Y-77800000D01*
X73800000Y-95400000D02*
X73800000Y-81000000D01*
X77928346Y-77800000D02*
X78800000Y-76928346D01*
X78800000Y-76928346D02*
X78800000Y-72762000D01*
X70500000Y-100700000D02*
X71800000Y-99400000D01*
X70500000Y-101725001D02*
X70500000Y-100700000D01*
%TO.N,/PGC6*%
X72074999Y-98474999D02*
X69452801Y-98474999D01*
X72600000Y-99000000D02*
X72074999Y-98474999D01*
X67251250Y-108548750D02*
X72600000Y-103200000D01*
X72600000Y-103200000D02*
X72600000Y-99000000D01*
X55432500Y-109500000D02*
X56383750Y-108548750D01*
X56383750Y-108548750D02*
X67251250Y-108548750D01*
%TO.N,/GPIO2*%
X74048527Y-103800000D02*
X73200000Y-102951473D01*
X82400000Y-102400000D02*
X81000000Y-103800000D01*
X81000000Y-103800000D02*
X74048527Y-103800000D01*
X80575346Y-57613000D02*
X82400000Y-59437654D01*
X82400000Y-59437654D02*
X82400000Y-102400000D01*
X77559000Y-56223000D02*
X78949000Y-57613000D01*
X78949000Y-57613000D02*
X80575346Y-57613000D01*
%TO.N,VDD*%
X72449960Y-54000000D02*
X72449960Y-53000000D01*
X71500000Y-54000000D02*
X71500000Y-53000000D01*
X71500000Y-56692400D02*
X71500000Y-57800000D01*
X72449960Y-56692400D02*
X72449960Y-57800000D01*
%TO.N,/GPIO10*%
X64474999Y-83874999D02*
X63547199Y-83874999D01*
X65200000Y-84600000D02*
X64474999Y-83874999D01*
X64549998Y-93549998D02*
X61600000Y-90600000D01*
X64549998Y-95700401D02*
X64549998Y-93549998D01*
X63547199Y-95874999D02*
X64375400Y-95874999D01*
X64375400Y-95874999D02*
X64549998Y-95700401D01*
X68999603Y-70200000D02*
X73000000Y-70200000D01*
X67324604Y-71874999D02*
X68999603Y-70200000D01*
X63547199Y-71874999D02*
X67324604Y-71874999D01*
%TO.N,/PGD1*%
X62774999Y-85174999D02*
X63547199Y-85174999D01*
X61800000Y-84200000D02*
X62774999Y-85174999D01*
X61400518Y-72000000D02*
X61800000Y-72000000D01*
X57500000Y-68099482D02*
X61400518Y-72000000D01*
X57500000Y-65567500D02*
X57500000Y-68099482D01*
X55682500Y-63750000D02*
X57500000Y-65567500D01*
X55432500Y-63750000D02*
X55682500Y-63750000D01*
%TO.N,/PGD6*%
X71474999Y-86474999D02*
X69452801Y-86474999D01*
X71600000Y-86600000D02*
X71474999Y-86474999D01*
X71600000Y-92220728D02*
X71600000Y-86600000D01*
X71220728Y-92600000D02*
X71600000Y-92220728D01*
X71600000Y-101812649D02*
X71600000Y-101000000D01*
X65263899Y-108148750D02*
X71600000Y-101812649D01*
X55473090Y-108148750D02*
X65263899Y-108148750D01*
X54432500Y-109810660D02*
X54432500Y-109189340D01*
X54432500Y-109189340D02*
X55473090Y-108148750D01*
X55371840Y-110750000D02*
X54432500Y-109810660D01*
X55432500Y-110750000D02*
X55371840Y-110750000D01*
%TO.N,/PGC1*%
X55182500Y-62500000D02*
X55432500Y-62500000D01*
X53600000Y-95965686D02*
X53600000Y-64082500D01*
X53600000Y-64082500D02*
X55182500Y-62500000D01*
X54645564Y-97011250D02*
X53600000Y-95965686D01*
X63383450Y-97011250D02*
X54645564Y-97011250D01*
X63547199Y-97174999D02*
X63383450Y-97011250D01*
%TO.N,/PGD6*%
X55432500Y-110750000D02*
X55182500Y-110750000D01*
%TO.N,/PGC2*%
X55182500Y-71900000D02*
X55432500Y-71900000D01*
X54032500Y-95832500D02*
X54032500Y-73050000D01*
X61600000Y-95948930D02*
X60937680Y-96611250D01*
X60937680Y-96611250D02*
X54811250Y-96611250D01*
X54032500Y-73050000D02*
X55182500Y-71900000D01*
X54811250Y-96611250D02*
X54032500Y-95832500D01*
%TO.N,/MCLR1*%
X61807499Y-73174999D02*
X63547199Y-73174999D01*
X56132500Y-67500000D02*
X61807499Y-73174999D01*
X55432500Y-67500000D02*
X56132500Y-67500000D01*
%TO.N,/MCLR2*%
X62644400Y-73824998D02*
X63547199Y-73824998D01*
X56300000Y-76900000D02*
X59000000Y-79600000D01*
X60000000Y-79600000D02*
X62200000Y-77400000D01*
X62200000Y-77400000D02*
X62200000Y-74269398D01*
X55432500Y-76900000D02*
X56300000Y-76900000D01*
X59000000Y-79600000D02*
X60000000Y-79600000D01*
X62200000Y-74269398D02*
X62644400Y-73824998D01*
%TO.N,/PGC2*%
X65000000Y-97274996D02*
X64449998Y-97824998D01*
X64449998Y-97824998D02*
X63547199Y-97824998D01*
X65000000Y-96400000D02*
X65000000Y-97274996D01*
%TO.N,/PGC3*%
X64697482Y-98474999D02*
X64747481Y-98524998D01*
X63547199Y-98474999D02*
X64697482Y-98474999D01*
%TO.N,/PGD3*%
X57500000Y-85024482D02*
X58111768Y-85636250D01*
X61805651Y-85636250D02*
X62644400Y-86474999D01*
X57500000Y-84367500D02*
X57500000Y-85024482D01*
X55682500Y-82550000D02*
X57500000Y-84367500D01*
X62644400Y-86474999D02*
X63547199Y-86474999D01*
X55432500Y-82550000D02*
X55682500Y-82550000D01*
X58111768Y-85636250D02*
X61805651Y-85636250D01*
%TO.N,/MCLR3*%
X66397936Y-74524998D02*
X66347937Y-74474999D01*
X66347937Y-74474999D02*
X63547199Y-74474999D01*
%TO.N,/MCLR5*%
X68624600Y-73825001D02*
X69452801Y-73825001D01*
X67800000Y-75000000D02*
X67800000Y-74649601D01*
X67800000Y-74649601D02*
X68624600Y-73825001D01*
%TO.N,/MCLR4*%
X67000000Y-75124998D02*
X63547199Y-75124998D01*
%TO.N,/MCLR6*%
X55493160Y-114500000D02*
X55432500Y-114500000D01*
X59825000Y-113175000D02*
X59253420Y-113746580D01*
X59253420Y-113746580D02*
X56246580Y-113746580D01*
X72500000Y-104500000D02*
X63825000Y-113175000D01*
X72651471Y-104500000D02*
X72500000Y-104500000D01*
X63825000Y-113175000D02*
X59825000Y-113175000D01*
X56246580Y-113746580D02*
X55493160Y-114500000D01*
X71306058Y-80523217D02*
X70100000Y-81729275D01*
X71306058Y-75306058D02*
X71306058Y-80523217D01*
X70474999Y-74474999D02*
X71306058Y-75306058D01*
X69452801Y-74474999D02*
X70474999Y-74474999D01*
%TO.N,/dspic/B10*%
X78000000Y-113000000D02*
X78831500Y-112168500D01*
X78831500Y-112168500D02*
X78831500Y-111150000D01*
%TO.N,/PGC8*%
X69550000Y-99872198D02*
X69452801Y-99774999D01*
X65500000Y-104500000D02*
X67262649Y-104500000D01*
%TO.N,/MCLR8*%
X69500000Y-78500000D02*
X69452801Y-78452801D01*
X69500000Y-79500000D02*
X69500000Y-78500000D01*
X69452801Y-78452801D02*
X69452801Y-75774999D01*
%TO.N,/GPIO22*%
X70124998Y-83875002D02*
X71500000Y-82500000D01*
X69452801Y-83875002D02*
X70124998Y-83875002D01*
%TO.N,/GPIO27*%
X72400000Y-92277802D02*
X72400000Y-80277802D01*
X69452801Y-95225001D02*
X72400000Y-92277802D01*
X72400000Y-80277802D02*
X72400000Y-72500000D01*
X69452801Y-83225001D02*
X72400000Y-80277802D01*
%TO.N,/GPIO22*%
X70981064Y-95875002D02*
X73000000Y-93856066D01*
X73000000Y-93856066D02*
X73000000Y-81000000D01*
X69452801Y-95875002D02*
X70981064Y-95875002D01*
X73000000Y-81000000D02*
X73000000Y-72500000D01*
X73000000Y-72500000D02*
X73874999Y-71625001D01*
X74500000Y-71625001D02*
X70605601Y-71625001D01*
X77396999Y-71625001D02*
X74500000Y-71625001D01*
X73874999Y-71625001D02*
X74500000Y-71625001D01*
X70605601Y-71625001D02*
X70355600Y-71875002D01*
X70355600Y-71875002D02*
X69452801Y-71875002D01*
X77559000Y-71463000D02*
X77396999Y-71625001D01*
%TO.N,Net-(D2-A)*%
X58500000Y-112748750D02*
X58500000Y-110898750D01*
%TO.N,Net-(D7-A)*%
X58500000Y-103348750D02*
X58500000Y-101498750D01*
%TO.N,Net-(D6-A)*%
X58500000Y-93948750D02*
X58500000Y-92098750D01*
%TO.N,Net-(D5-A)*%
X58500000Y-82698750D02*
X58500000Y-84548750D01*
%TO.N,Net-(D4-A)*%
X58500000Y-75148750D02*
X58500000Y-73298750D01*
%TO.N,Net-(D3-A)*%
X58500000Y-63898750D02*
X58500000Y-65748750D01*
%TO.N,/PGC*%
X67774999Y-99774999D02*
X63547199Y-99774999D01*
X68850000Y-100850000D02*
X67774999Y-99774999D01*
X68850000Y-101725001D02*
X68850000Y-100850000D01*
%TO.N,/MCLR*%
X67774999Y-75774999D02*
X63547199Y-75774999D01*
X68675000Y-77725001D02*
X68675000Y-76675000D01*
X68675000Y-76675000D02*
X67774999Y-75774999D01*
%TO.N,/GPIO27*%
X75256999Y-71225001D02*
X77559000Y-68923000D01*
X69452801Y-71225001D02*
X75256999Y-71225001D01*
%TO.N,/GPIO10*%
X74543000Y-76543000D02*
X77559000Y-76543000D01*
X74500000Y-76500000D02*
X74543000Y-76543000D01*
X74000000Y-76500000D02*
X74500000Y-76500000D01*
%TO.N,/GPIO25*%
X82000000Y-77182000D02*
X80099000Y-79083000D01*
X82000000Y-61000000D02*
X82000000Y-77182000D01*
X81000000Y-60000000D02*
X82000000Y-61000000D01*
X72700000Y-60000000D02*
X81000000Y-60000000D01*
X71600000Y-58900000D02*
X72700000Y-60000000D01*
%TO.N,Net-(D1-A)*%
X81331500Y-107725000D02*
X81331500Y-109482500D01*
%TO.N,Net-(D8-A)*%
X78831500Y-107725000D02*
X78831500Y-109500000D01*
%TO.N,Net-(D9-A)*%
X76331500Y-107725000D02*
X76331500Y-109500000D01*
%TO.N,GND*%
X69452801Y-96525001D02*
X71267199Y-96525001D01*
X71267199Y-96525001D02*
X71547199Y-96245001D01*
%TO.N,VDD*%
X70354997Y-97205001D02*
X71547199Y-97205001D01*
X70324998Y-97175002D02*
X70354997Y-97205001D01*
X69452801Y-97175002D02*
X70324998Y-97175002D01*
%TO.N,GND*%
X71288499Y-84525001D02*
X71547199Y-84266301D01*
X69452801Y-84525001D02*
X71288499Y-84525001D01*
%TO.N,VDD*%
X71495900Y-85175002D02*
X71547199Y-85226301D01*
X69452801Y-85175002D02*
X71495900Y-85175002D01*
X69482800Y-73205001D02*
X69452801Y-73175002D01*
X71547199Y-73205001D02*
X69482800Y-73205001D01*
%TO.N,GND*%
X71267199Y-72525001D02*
X69452801Y-72525001D01*
X71547199Y-72245001D02*
X71267199Y-72525001D01*
%TO.N,Net-(U5-G)*%
X73399920Y-58750080D02*
X73250000Y-58900000D01*
X73399920Y-56692400D02*
X73399920Y-58750080D01*
%TO.N,+3.3V*%
X77242000Y-54000000D02*
X77559000Y-53683000D01*
X73399920Y-54000000D02*
X77242000Y-54000000D01*
%TO.N,/PGC8*%
X67262649Y-104500000D02*
X69550000Y-102212649D01*
X69550000Y-102212649D02*
X69550000Y-99872198D01*
%TO.N,/PGD2*%
X55432500Y-73150000D02*
X55182500Y-73150000D01*
X55182500Y-73150000D02*
X54432500Y-73900000D01*
X54432500Y-73900000D02*
X54432500Y-78231250D01*
X58200000Y-81998750D02*
X58987648Y-81998750D01*
X54432500Y-78231250D02*
X58200000Y-81998750D01*
X58987648Y-81998750D02*
X59600000Y-82611102D01*
X59600000Y-82611102D02*
X59600000Y-85000000D01*
X59600000Y-85000000D02*
X61819402Y-85000000D01*
X61819402Y-85000000D02*
X62644400Y-85824998D01*
X62644400Y-85824998D02*
X63547199Y-85824998D01*
%TD*%
%TA.AperFunction,Conductor*%
%TO.N,GND*%
G36*
X64966942Y-102620185D02*
G01*
X64987584Y-102636819D01*
X65169298Y-102818533D01*
X65202783Y-102879856D01*
X65204837Y-102892330D01*
X65214630Y-102979249D01*
X65214631Y-102979254D01*
X65214632Y-102979255D01*
X65217546Y-102987583D01*
X65274210Y-103149521D01*
X65370184Y-103302262D01*
X65497740Y-103429818D01*
X65543355Y-103458479D01*
X65550965Y-103463261D01*
X65555129Y-103465877D01*
X65601421Y-103518211D01*
X65612070Y-103587265D01*
X65583695Y-103651113D01*
X65525305Y-103689485D01*
X65503042Y-103694091D01*
X65320749Y-103714630D01*
X65320745Y-103714631D01*
X65150476Y-103774211D01*
X64997737Y-103870184D01*
X64870184Y-103997737D01*
X64774211Y-104150476D01*
X64714631Y-104320745D01*
X64714630Y-104320750D01*
X64694435Y-104499996D01*
X64694435Y-104500003D01*
X64714630Y-104679249D01*
X64714631Y-104679254D01*
X64774211Y-104849523D01*
X64838140Y-104951265D01*
X64870184Y-105002262D01*
X64997738Y-105129816D01*
X65150478Y-105225789D01*
X65302701Y-105279054D01*
X65320745Y-105285368D01*
X65320750Y-105285369D01*
X65499996Y-105305565D01*
X65500000Y-105305565D01*
X65500004Y-105305565D01*
X65679249Y-105285369D01*
X65679252Y-105285368D01*
X65679255Y-105285368D01*
X65849522Y-105225789D01*
X66002262Y-105129816D01*
X66002267Y-105129810D01*
X66005097Y-105127555D01*
X66007275Y-105126665D01*
X66008158Y-105126111D01*
X66008255Y-105126265D01*
X66069783Y-105101145D01*
X66082412Y-105100500D01*
X67163551Y-105100500D01*
X67230590Y-105120185D01*
X67276345Y-105172989D01*
X67286289Y-105242147D01*
X67257264Y-105305703D01*
X67251232Y-105312181D01*
X65051483Y-107511931D01*
X64990160Y-107545416D01*
X64963802Y-107548250D01*
X62300995Y-107548250D01*
X62233956Y-107528565D01*
X62188201Y-107475761D01*
X62178257Y-107406603D01*
X62183955Y-107383292D01*
X62185368Y-107379255D01*
X62205565Y-107200000D01*
X62201573Y-107164571D01*
X62185369Y-107020750D01*
X62185368Y-107020745D01*
X62140832Y-106893468D01*
X62125789Y-106850478D01*
X62029816Y-106697738D01*
X61902262Y-106570184D01*
X61833553Y-106527011D01*
X61749523Y-106474211D01*
X61579254Y-106414631D01*
X61579249Y-106414630D01*
X61400004Y-106394435D01*
X61399996Y-106394435D01*
X61220750Y-106414630D01*
X61220745Y-106414631D01*
X61050476Y-106474211D01*
X60897736Y-106570185D01*
X60894903Y-106572445D01*
X60892724Y-106573334D01*
X60891842Y-106573889D01*
X60891744Y-106573734D01*
X60830217Y-106598855D01*
X60817588Y-106599500D01*
X59316322Y-106599500D01*
X59249283Y-106579815D01*
X59203528Y-106527011D01*
X59193102Y-106489383D01*
X59185369Y-106420748D01*
X59176162Y-106394435D01*
X59149983Y-106319623D01*
X59146422Y-106249845D01*
X59181150Y-106189218D01*
X59228022Y-106160963D01*
X59272707Y-106146156D01*
X59272714Y-106146153D01*
X59420691Y-106054879D01*
X59543629Y-105931941D01*
X59634903Y-105783964D01*
X59634905Y-105783959D01*
X59689592Y-105618923D01*
X59699999Y-105517065D01*
X59700000Y-105517052D01*
X59700000Y-105473750D01*
X57300000Y-105473750D01*
X57300000Y-105517065D01*
X57310407Y-105618923D01*
X57365094Y-105783959D01*
X57365096Y-105783964D01*
X57456370Y-105931941D01*
X57579308Y-106054879D01*
X57629993Y-106086142D01*
X57676717Y-106138090D01*
X57687940Y-106207053D01*
X57676617Y-106245480D01*
X57674213Y-106250472D01*
X57614630Y-106420750D01*
X57606898Y-106489383D01*
X57579832Y-106553797D01*
X57522237Y-106593352D01*
X57483678Y-106599500D01*
X55500097Y-106599500D01*
X55433058Y-106579815D01*
X55412416Y-106563181D01*
X55111415Y-106262180D01*
X55077930Y-106200857D01*
X55082914Y-106131165D01*
X55124786Y-106075232D01*
X55190250Y-106050815D01*
X55199075Y-106050499D01*
X55955844Y-106050499D01*
X55955852Y-106050498D01*
X55955855Y-106050498D01*
X56010260Y-106044940D01*
X56055208Y-106040349D01*
X56216197Y-105987003D01*
X56360544Y-105897968D01*
X56480468Y-105778044D01*
X56569503Y-105633697D01*
X56622849Y-105472708D01*
X56633000Y-105373345D01*
X56632999Y-104826656D01*
X56622849Y-104727292D01*
X56569503Y-104566303D01*
X56504521Y-104460952D01*
X56486081Y-104393561D01*
X56506959Y-104326964D01*
X56524822Y-104300231D01*
X56596473Y-104127251D01*
X56610455Y-104056958D01*
X56642837Y-103995050D01*
X56703553Y-103960475D01*
X56773322Y-103964214D01*
X56819752Y-103993470D01*
X56838349Y-104012067D01*
X56838355Y-104012072D01*
X57343364Y-104517082D01*
X57376849Y-104578405D01*
X57371865Y-104648097D01*
X57368068Y-104657162D01*
X57365096Y-104663536D01*
X57310407Y-104828576D01*
X57300000Y-104930434D01*
X57300000Y-104973750D01*
X59700000Y-104973750D01*
X59700000Y-104930447D01*
X59699999Y-104930432D01*
X59694168Y-104873352D01*
X59706937Y-104804659D01*
X59754818Y-104753775D01*
X59817526Y-104736750D01*
X60777081Y-104736750D01*
X60777097Y-104736751D01*
X60784693Y-104736751D01*
X60942804Y-104736751D01*
X60942807Y-104736751D01*
X61095535Y-104695827D01*
X61191497Y-104640423D01*
X61232466Y-104616770D01*
X61344270Y-104504966D01*
X61344270Y-104504964D01*
X61354474Y-104494761D01*
X61354478Y-104494756D01*
X61618535Y-104230698D01*
X61679856Y-104197215D01*
X61692311Y-104195163D01*
X61779255Y-104185368D01*
X61949522Y-104125789D01*
X62102262Y-104029816D01*
X62229816Y-103902262D01*
X62325789Y-103749522D01*
X62385368Y-103579255D01*
X62385369Y-103579249D01*
X62405565Y-103400003D01*
X62405565Y-103399996D01*
X62385369Y-103220750D01*
X62385368Y-103220745D01*
X62346111Y-103108555D01*
X62325789Y-103050478D01*
X62325636Y-103050235D01*
X62264837Y-102953473D01*
X62229816Y-102897738D01*
X62144259Y-102812181D01*
X62110774Y-102750858D01*
X62115758Y-102681166D01*
X62157630Y-102625233D01*
X62223094Y-102600816D01*
X62231940Y-102600500D01*
X64899903Y-102600500D01*
X64966942Y-102620185D01*
G37*
%TD.AperFunction*%
%TA.AperFunction,Conductor*%
G36*
X76232844Y-79518903D02*
G01*
X76288777Y-79560775D01*
X76301892Y-79582680D01*
X76384965Y-79760830D01*
X76384967Y-79760834D01*
X76426921Y-79820750D01*
X76520501Y-79954396D01*
X76520506Y-79954402D01*
X76687597Y-80121493D01*
X76687603Y-80121498D01*
X76873158Y-80251425D01*
X76916783Y-80306002D01*
X76923977Y-80375500D01*
X76892454Y-80437855D01*
X76873158Y-80454575D01*
X76687597Y-80584505D01*
X76520505Y-80751597D01*
X76384965Y-80945169D01*
X76384964Y-80945171D01*
X76285098Y-81159335D01*
X76285094Y-81159344D01*
X76223938Y-81387586D01*
X76223936Y-81387596D01*
X76203341Y-81622999D01*
X76203341Y-81623000D01*
X76223936Y-81858403D01*
X76223938Y-81858413D01*
X76285094Y-82086655D01*
X76285096Y-82086659D01*
X76285097Y-82086663D01*
X76352653Y-82231537D01*
X76384965Y-82300830D01*
X76384967Y-82300834D01*
X76434487Y-82371555D01*
X76520501Y-82494396D01*
X76520506Y-82494402D01*
X76687597Y-82661493D01*
X76687603Y-82661498D01*
X76873158Y-82791425D01*
X76916783Y-82846002D01*
X76923977Y-82915500D01*
X76892454Y-82977855D01*
X76873158Y-82994575D01*
X76687597Y-83124505D01*
X76520505Y-83291597D01*
X76384965Y-83485169D01*
X76384964Y-83485171D01*
X76285098Y-83699335D01*
X76285094Y-83699344D01*
X76223938Y-83927586D01*
X76223936Y-83927596D01*
X76203341Y-84162999D01*
X76203341Y-84163000D01*
X76223936Y-84398403D01*
X76223938Y-84398413D01*
X76285094Y-84626655D01*
X76285096Y-84626659D01*
X76285097Y-84626663D01*
X76356249Y-84779249D01*
X76384965Y-84840830D01*
X76384967Y-84840834D01*
X76462617Y-84951729D01*
X76520501Y-85034396D01*
X76520506Y-85034402D01*
X76687597Y-85201493D01*
X76687603Y-85201498D01*
X76873158Y-85331425D01*
X76916783Y-85386002D01*
X76923977Y-85455500D01*
X76892454Y-85517855D01*
X76873158Y-85534575D01*
X76687597Y-85664505D01*
X76520505Y-85831597D01*
X76384965Y-86025169D01*
X76384964Y-86025171D01*
X76285098Y-86239335D01*
X76285094Y-86239344D01*
X76223938Y-86467586D01*
X76223936Y-86467596D01*
X76203341Y-86702999D01*
X76203341Y-86703000D01*
X76223936Y-86938403D01*
X76223938Y-86938413D01*
X76285094Y-87166655D01*
X76285096Y-87166659D01*
X76285097Y-87166663D01*
X76369784Y-87348274D01*
X76384965Y-87380830D01*
X76384967Y-87380834D01*
X76457341Y-87484194D01*
X76520501Y-87574396D01*
X76520506Y-87574402D01*
X76687597Y-87741493D01*
X76687603Y-87741498D01*
X76873158Y-87871425D01*
X76916783Y-87926002D01*
X76923977Y-87995500D01*
X76892454Y-88057855D01*
X76873158Y-88074575D01*
X76687597Y-88204505D01*
X76520505Y-88371597D01*
X76384965Y-88565169D01*
X76384964Y-88565171D01*
X76285098Y-88779335D01*
X76285094Y-88779344D01*
X76223938Y-89007586D01*
X76223936Y-89007596D01*
X76203341Y-89242999D01*
X76203341Y-89243000D01*
X76223936Y-89478403D01*
X76223938Y-89478413D01*
X76285094Y-89706655D01*
X76285096Y-89706659D01*
X76285097Y-89706663D01*
X76361705Y-89870949D01*
X76384965Y-89920830D01*
X76384967Y-89920834D01*
X76440751Y-90000501D01*
X76520501Y-90114396D01*
X76520506Y-90114402D01*
X76687597Y-90281493D01*
X76687603Y-90281498D01*
X76873158Y-90411425D01*
X76916783Y-90466002D01*
X76923977Y-90535500D01*
X76892454Y-90597855D01*
X76873158Y-90614575D01*
X76687597Y-90744505D01*
X76520505Y-90911597D01*
X76384965Y-91105169D01*
X76384964Y-91105171D01*
X76285098Y-91319335D01*
X76285094Y-91319344D01*
X76223938Y-91547586D01*
X76223936Y-91547596D01*
X76203341Y-91782999D01*
X76203341Y-91783000D01*
X76223936Y-92018403D01*
X76223938Y-92018413D01*
X76285094Y-92246655D01*
X76285096Y-92246659D01*
X76285097Y-92246663D01*
X76379703Y-92449546D01*
X76384965Y-92460830D01*
X76384967Y-92460834D01*
X76451539Y-92555908D01*
X76520501Y-92654396D01*
X76520506Y-92654402D01*
X76687597Y-92821493D01*
X76687603Y-92821498D01*
X76873158Y-92951425D01*
X76916783Y-93006002D01*
X76923977Y-93075500D01*
X76892454Y-93137855D01*
X76873158Y-93154575D01*
X76687597Y-93284505D01*
X76520505Y-93451597D01*
X76384968Y-93645166D01*
X76384964Y-93645171D01*
X76285098Y-93859335D01*
X76285094Y-93859344D01*
X76223938Y-94087586D01*
X76223936Y-94087596D01*
X76203341Y-94322999D01*
X76203341Y-94323000D01*
X76223936Y-94558403D01*
X76223938Y-94558413D01*
X76285094Y-94786655D01*
X76285096Y-94786659D01*
X76285097Y-94786663D01*
X76365004Y-94958023D01*
X76384965Y-95000830D01*
X76384967Y-95000834D01*
X76474334Y-95128462D01*
X76520501Y-95194396D01*
X76520506Y-95194402D01*
X76687597Y-95361493D01*
X76687603Y-95361498D01*
X76873158Y-95491425D01*
X76916783Y-95546002D01*
X76923977Y-95615500D01*
X76892454Y-95677855D01*
X76873158Y-95694575D01*
X76687597Y-95824505D01*
X76520505Y-95991597D01*
X76384965Y-96185169D01*
X76384964Y-96185171D01*
X76285098Y-96399335D01*
X76285094Y-96399344D01*
X76223938Y-96627586D01*
X76223936Y-96627596D01*
X76203341Y-96862999D01*
X76203341Y-96863000D01*
X76223936Y-97098403D01*
X76223938Y-97098413D01*
X76285094Y-97326655D01*
X76285096Y-97326659D01*
X76285097Y-97326663D01*
X76362088Y-97491770D01*
X76384965Y-97540830D01*
X76384967Y-97540834D01*
X76448407Y-97631435D01*
X76520501Y-97734396D01*
X76520506Y-97734402D01*
X76687597Y-97901493D01*
X76687603Y-97901498D01*
X76873158Y-98031425D01*
X76916783Y-98086002D01*
X76923977Y-98155500D01*
X76892454Y-98217855D01*
X76873158Y-98234575D01*
X76687597Y-98364505D01*
X76520505Y-98531597D01*
X76384965Y-98725169D01*
X76384964Y-98725171D01*
X76285098Y-98939335D01*
X76285094Y-98939344D01*
X76223938Y-99167586D01*
X76223936Y-99167596D01*
X76203341Y-99402999D01*
X76203341Y-99403000D01*
X76223936Y-99638403D01*
X76223938Y-99638413D01*
X76285094Y-99866655D01*
X76285096Y-99866659D01*
X76285097Y-99866663D01*
X76289000Y-99875032D01*
X76384965Y-100080830D01*
X76384967Y-100080834D01*
X76463941Y-100193620D01*
X76520501Y-100274396D01*
X76520506Y-100274402D01*
X76687597Y-100441493D01*
X76687603Y-100441498D01*
X76873158Y-100571425D01*
X76916783Y-100626002D01*
X76923977Y-100695500D01*
X76892454Y-100757855D01*
X76873158Y-100774575D01*
X76687597Y-100904505D01*
X76520505Y-101071597D01*
X76384965Y-101265169D01*
X76384964Y-101265171D01*
X76285098Y-101479335D01*
X76285094Y-101479344D01*
X76223938Y-101707586D01*
X76223936Y-101707596D01*
X76203341Y-101942999D01*
X76203341Y-101943000D01*
X76223936Y-102178403D01*
X76223938Y-102178413D01*
X76285094Y-102406655D01*
X76285096Y-102406659D01*
X76285097Y-102406663D01*
X76356401Y-102559575D01*
X76384965Y-102620830D01*
X76384967Y-102620834D01*
X76435930Y-102693616D01*
X76520501Y-102814396D01*
X76520506Y-102814402D01*
X76691427Y-102985323D01*
X76690348Y-102986401D01*
X76725132Y-103038694D01*
X76726233Y-103108555D01*
X76689390Y-103167921D01*
X76626300Y-103197944D01*
X76606720Y-103199500D01*
X74348624Y-103199500D01*
X74281585Y-103179815D01*
X74260943Y-103163181D01*
X74030700Y-102932938D01*
X73997215Y-102871615D01*
X73995163Y-102859159D01*
X73985368Y-102772218D01*
X73925789Y-102601951D01*
X73829816Y-102449211D01*
X73702262Y-102321657D01*
X73648190Y-102287681D01*
X73549521Y-102225683D01*
X73379249Y-102166103D01*
X73310616Y-102158370D01*
X73246202Y-102131303D01*
X73206647Y-102073708D01*
X73200500Y-102035150D01*
X73200500Y-101185576D01*
X73220185Y-101118537D01*
X73272989Y-101072782D01*
X73338383Y-101062356D01*
X73499996Y-101080565D01*
X73500000Y-101080565D01*
X73500004Y-101080565D01*
X73679249Y-101060369D01*
X73679252Y-101060368D01*
X73679255Y-101060368D01*
X73849522Y-101000789D01*
X74002262Y-100904816D01*
X74129816Y-100777262D01*
X74225789Y-100624522D01*
X74285368Y-100454255D01*
X74285746Y-100450899D01*
X74305565Y-100275003D01*
X74305565Y-100274996D01*
X74285369Y-100095750D01*
X74285368Y-100095745D01*
X74225788Y-99925476D01*
X74129815Y-99772737D01*
X74002262Y-99645184D01*
X73849523Y-99549211D01*
X73679254Y-99489631D01*
X73679249Y-99489630D01*
X73500004Y-99469435D01*
X73499996Y-99469435D01*
X73338383Y-99487644D01*
X73269561Y-99475589D01*
X73218182Y-99428240D01*
X73200500Y-99364424D01*
X73200500Y-99089060D01*
X73200501Y-99089047D01*
X73200501Y-98920944D01*
X73200501Y-98920943D01*
X73159577Y-98768216D01*
X73149112Y-98750090D01*
X73080524Y-98631290D01*
X73080518Y-98631282D01*
X72443716Y-97994480D01*
X72443715Y-97994479D01*
X72345015Y-97937495D01*
X72306784Y-97915422D01*
X72306783Y-97915421D01*
X72306782Y-97915421D01*
X72306774Y-97915419D01*
X72306767Y-97915415D01*
X72299278Y-97912313D01*
X72299762Y-97911144D01*
X72247116Y-97879050D01*
X72216591Y-97816201D01*
X72224890Y-97746826D01*
X72232139Y-97732531D01*
X72309693Y-97601396D01*
X72354842Y-97445994D01*
X72357699Y-97409691D01*
X72357699Y-97000311D01*
X72354842Y-96964008D01*
X72309693Y-96808606D01*
X72297288Y-96787631D01*
X72280105Y-96719910D01*
X72297290Y-96661385D01*
X72309231Y-96641195D01*
X72351703Y-96495001D01*
X72045551Y-96495001D01*
X71982432Y-96477733D01*
X71973594Y-96472507D01*
X71973592Y-96472506D01*
X71973588Y-96472504D01*
X71818196Y-96427358D01*
X71818190Y-96427357D01*
X71781896Y-96424501D01*
X71781889Y-96424501D01*
X71761436Y-96424501D01*
X71733569Y-96419764D01*
X71733246Y-96421183D01*
X71726449Y-96419631D01*
X71657315Y-96411842D01*
X71592901Y-96384775D01*
X71553346Y-96327180D01*
X71547199Y-96288622D01*
X71547199Y-96209463D01*
X71566884Y-96142424D01*
X71583518Y-96121782D01*
X71673980Y-96031320D01*
X71735303Y-95997835D01*
X71761661Y-95995001D01*
X72351703Y-95995001D01*
X72309230Y-95848805D01*
X72226920Y-95709626D01*
X72226917Y-95709622D01*
X72198979Y-95681685D01*
X72165493Y-95620362D01*
X72170477Y-95550670D01*
X72198975Y-95506324D01*
X72987820Y-94717479D01*
X73049142Y-94683996D01*
X73118834Y-94688980D01*
X73174767Y-94730852D01*
X73199184Y-94796316D01*
X73199500Y-94805162D01*
X73199500Y-94817587D01*
X73179815Y-94884626D01*
X73172450Y-94894896D01*
X73170186Y-94897734D01*
X73074211Y-95050476D01*
X73014631Y-95220745D01*
X73014630Y-95220750D01*
X72994435Y-95399996D01*
X72994435Y-95400003D01*
X73014630Y-95579249D01*
X73014631Y-95579254D01*
X73074211Y-95749523D01*
X73141491Y-95856597D01*
X73170184Y-95902262D01*
X73297738Y-96029816D01*
X73450478Y-96125789D01*
X73597282Y-96177158D01*
X73620745Y-96185368D01*
X73620750Y-96185369D01*
X73799996Y-96205565D01*
X73800000Y-96205565D01*
X73800004Y-96205565D01*
X73979249Y-96185369D01*
X73979252Y-96185368D01*
X73979255Y-96185368D01*
X74149522Y-96125789D01*
X74302262Y-96029816D01*
X74429816Y-95902262D01*
X74525789Y-95749522D01*
X74585368Y-95579255D01*
X74585369Y-95579249D01*
X74605565Y-95400003D01*
X74605565Y-95399996D01*
X74585369Y-95220750D01*
X74585368Y-95220745D01*
X74558853Y-95144969D01*
X74525789Y-95050478D01*
X74507867Y-95021956D01*
X74472216Y-94965217D01*
X74429816Y-94897738D01*
X74429814Y-94897736D01*
X74429813Y-94897734D01*
X74427550Y-94894896D01*
X74426659Y-94892715D01*
X74426111Y-94891842D01*
X74426264Y-94891745D01*
X74401144Y-94830209D01*
X74400500Y-94817587D01*
X74400500Y-81300096D01*
X74420185Y-81233057D01*
X74436814Y-81212420D01*
X76101831Y-79547402D01*
X76163152Y-79513919D01*
X76232844Y-79518903D01*
G37*
%TD.AperFunction*%
%TA.AperFunction,Conductor*%
G36*
X57473175Y-90020185D02*
G01*
X57518930Y-90072989D01*
X57529626Y-90135720D01*
X57524500Y-90192134D01*
X57524500Y-90192138D01*
X57524500Y-90705363D01*
X57530913Y-90775942D01*
X57530913Y-90775944D01*
X57530914Y-90775946D01*
X57573184Y-90911597D01*
X57581522Y-90938356D01*
X57669530Y-91083938D01*
X57771661Y-91186069D01*
X57805146Y-91247392D01*
X57800162Y-91317084D01*
X57771661Y-91361431D01*
X57669531Y-91463560D01*
X57669530Y-91463561D01*
X57581522Y-91609143D01*
X57530913Y-91771557D01*
X57524500Y-91842136D01*
X57524500Y-92355363D01*
X57530913Y-92425942D01*
X57530913Y-92425944D01*
X57530914Y-92425946D01*
X57544281Y-92468842D01*
X57581522Y-92588356D01*
X57669530Y-92733938D01*
X57761714Y-92826122D01*
X57795199Y-92887445D01*
X57790215Y-92957137D01*
X57748343Y-93013070D01*
X57731689Y-93023041D01*
X57579000Y-93117221D01*
X57578996Y-93117224D01*
X57455974Y-93240246D01*
X57455971Y-93240250D01*
X57364642Y-93388316D01*
X57364637Y-93388327D01*
X57309913Y-93553473D01*
X57299500Y-93655394D01*
X57299500Y-94242105D01*
X57309913Y-94344026D01*
X57364637Y-94509172D01*
X57364642Y-94509183D01*
X57455971Y-94657249D01*
X57455974Y-94657253D01*
X57578999Y-94780278D01*
X57580183Y-94781008D01*
X57580823Y-94781720D01*
X57584664Y-94784757D01*
X57584145Y-94785413D01*
X57626906Y-94832958D01*
X57638125Y-94901921D01*
X57610279Y-94966002D01*
X57584877Y-94988012D01*
X57584977Y-94988138D01*
X57582177Y-94990351D01*
X57580184Y-94992079D01*
X57579315Y-94992614D01*
X57579309Y-94992619D01*
X57456370Y-95115558D01*
X57365096Y-95263535D01*
X57365094Y-95263540D01*
X57310407Y-95428576D01*
X57300000Y-95530434D01*
X57300000Y-95573750D01*
X59700000Y-95573750D01*
X59700000Y-95530447D01*
X59699999Y-95530434D01*
X59689592Y-95428576D01*
X59634905Y-95263540D01*
X59634903Y-95263535D01*
X59543629Y-95115558D01*
X59420690Y-94992619D01*
X59420685Y-94992615D01*
X59419822Y-94992083D01*
X59419353Y-94991562D01*
X59415023Y-94988138D01*
X59415608Y-94987398D01*
X59373096Y-94940136D01*
X59361873Y-94871174D01*
X59389716Y-94807091D01*
X59415398Y-94784836D01*
X59415336Y-94784757D01*
X59417106Y-94783357D01*
X59419820Y-94781005D01*
X59421003Y-94780276D01*
X59544026Y-94657253D01*
X59635362Y-94509175D01*
X59690087Y-94344025D01*
X59700500Y-94242098D01*
X59700500Y-93655402D01*
X59690087Y-93553475D01*
X59635362Y-93388325D01*
X59635358Y-93388319D01*
X59635357Y-93388316D01*
X59544028Y-93240250D01*
X59544025Y-93240246D01*
X59421003Y-93117224D01*
X59420999Y-93117221D01*
X59266778Y-93022096D01*
X59267531Y-93020873D01*
X59221126Y-92980019D01*
X59201970Y-92912826D01*
X59222182Y-92845944D01*
X59238280Y-92826126D01*
X59330472Y-92733935D01*
X59418478Y-92588356D01*
X59445808Y-92500646D01*
X59484542Y-92442502D01*
X59548567Y-92414527D01*
X59617553Y-92425608D01*
X59651873Y-92449858D01*
X60306275Y-93104260D01*
X60339760Y-93165583D01*
X60342594Y-93191941D01*
X60342594Y-93760681D01*
X60322909Y-93827720D01*
X60315544Y-93837990D01*
X60313280Y-93840828D01*
X60217305Y-93993570D01*
X60157725Y-94163839D01*
X60157724Y-94163844D01*
X60137529Y-94343090D01*
X60137529Y-94343097D01*
X60157724Y-94522343D01*
X60157725Y-94522348D01*
X60217305Y-94692617D01*
X60303760Y-94830209D01*
X60313278Y-94845356D01*
X60440832Y-94972910D01*
X60512511Y-95017949D01*
X60564280Y-95050478D01*
X60593572Y-95068883D01*
X60755883Y-95125678D01*
X60763839Y-95128462D01*
X60763844Y-95128463D01*
X60943090Y-95148659D01*
X60943094Y-95148659D01*
X60943095Y-95148659D01*
X60950120Y-95147867D01*
X60957329Y-95147055D01*
X61026151Y-95159109D01*
X61077531Y-95206457D01*
X61095156Y-95274067D01*
X61073430Y-95340473D01*
X61058896Y-95357956D01*
X60970183Y-95446669D01*
X60874210Y-95599408D01*
X60814630Y-95769680D01*
X60804837Y-95856597D01*
X60777770Y-95921011D01*
X60769300Y-95930392D01*
X60725265Y-95974429D01*
X60663943Y-96007916D01*
X60637582Y-96010750D01*
X56757000Y-96010750D01*
X56689961Y-95991065D01*
X56644206Y-95938261D01*
X56633000Y-95886750D01*
X56632999Y-95426662D01*
X56632998Y-95426644D01*
X56622849Y-95327292D01*
X56622848Y-95327289D01*
X56588337Y-95223141D01*
X56569503Y-95166303D01*
X56504521Y-95060952D01*
X56486081Y-94993561D01*
X56506959Y-94926964D01*
X56524822Y-94900231D01*
X56596473Y-94727251D01*
X56633000Y-94543616D01*
X56633000Y-94356384D01*
X56596473Y-94172749D01*
X56524822Y-93999769D01*
X56524821Y-93999768D01*
X56524818Y-93999762D01*
X56454077Y-93893891D01*
X56433199Y-93827213D01*
X56451683Y-93759833D01*
X56454077Y-93756109D01*
X56524818Y-93650237D01*
X56524818Y-93650236D01*
X56524822Y-93650231D01*
X56596473Y-93477251D01*
X56633000Y-93293616D01*
X56633000Y-93106384D01*
X56596473Y-92922749D01*
X56524822Y-92749769D01*
X56524821Y-92749768D01*
X56524818Y-92749762D01*
X56454077Y-92643891D01*
X56433199Y-92577213D01*
X56451683Y-92509833D01*
X56454077Y-92506109D01*
X56524818Y-92400237D01*
X56524818Y-92400236D01*
X56524822Y-92400231D01*
X56596473Y-92227251D01*
X56633000Y-92043616D01*
X56633000Y-91856384D01*
X56596473Y-91672749D01*
X56524822Y-91499769D01*
X56473278Y-91422628D01*
X56452400Y-91355951D01*
X56456604Y-91321649D01*
X56481750Y-91227807D01*
X56481750Y-91227802D01*
X56482317Y-91225686D01*
X56498987Y-91188894D01*
X56524822Y-91150231D01*
X56596473Y-90977251D01*
X56633000Y-90793616D01*
X56633000Y-90606384D01*
X56631730Y-90600000D01*
X56603184Y-90456486D01*
X56609411Y-90386895D01*
X56637115Y-90344619D01*
X56944919Y-90036816D01*
X57006240Y-90003334D01*
X57032598Y-90000500D01*
X57406136Y-90000500D01*
X57473175Y-90020185D01*
G37*
%TD.AperFunction*%
%TA.AperFunction,Conductor*%
G36*
X56685580Y-84403012D02*
G01*
X56693744Y-84410479D01*
X56863181Y-84579916D01*
X56896666Y-84641239D01*
X56899500Y-84667597D01*
X56899500Y-84937812D01*
X56899499Y-84937830D01*
X56899499Y-85103536D01*
X56899498Y-85103536D01*
X56940423Y-85256267D01*
X56968765Y-85305355D01*
X56968766Y-85305359D01*
X56968767Y-85305359D01*
X57015325Y-85386002D01*
X57019479Y-85393196D01*
X57019481Y-85393199D01*
X57138349Y-85512067D01*
X57138355Y-85512072D01*
X57343364Y-85717081D01*
X57376849Y-85778404D01*
X57371865Y-85848096D01*
X57368069Y-85857157D01*
X57365098Y-85863528D01*
X57310407Y-86028576D01*
X57300000Y-86130434D01*
X57300000Y-86173750D01*
X57808520Y-86173750D01*
X57870519Y-86190362D01*
X57879984Y-86195827D01*
X58032711Y-86236751D01*
X58032713Y-86236751D01*
X58198422Y-86236751D01*
X58198438Y-86236750D01*
X61505554Y-86236750D01*
X61572593Y-86256435D01*
X61593235Y-86273069D01*
X61632983Y-86312817D01*
X61666468Y-86374140D01*
X61661484Y-86443832D01*
X61619612Y-86499765D01*
X61554148Y-86524182D01*
X61545302Y-86524498D01*
X60554059Y-86524498D01*
X60395944Y-86524498D01*
X60243217Y-86565421D01*
X60243216Y-86565421D01*
X60243214Y-86565422D01*
X60243211Y-86565423D01*
X60197092Y-86592051D01*
X60197090Y-86592052D01*
X60106292Y-86644473D01*
X60106284Y-86644479D01*
X60047765Y-86702999D01*
X59994482Y-86756282D01*
X59994480Y-86756284D01*
X59950766Y-86799998D01*
X59908492Y-86842272D01*
X59847168Y-86875756D01*
X59777477Y-86870772D01*
X59721543Y-86828900D01*
X59697127Y-86763435D01*
X59697453Y-86741986D01*
X59699999Y-86717062D01*
X59700000Y-86717052D01*
X59700000Y-86673750D01*
X58750000Y-86673750D01*
X58750000Y-87411250D01*
X59005803Y-87411250D01*
X59005814Y-87411249D01*
X59030738Y-87408703D01*
X59099431Y-87421472D01*
X59150316Y-87469352D01*
X59167237Y-87537142D01*
X59144822Y-87603318D01*
X59131022Y-87619742D01*
X58387584Y-88363181D01*
X58326261Y-88396666D01*
X58299903Y-88399500D01*
X55742780Y-88399500D01*
X55701859Y-88410464D01*
X55701859Y-88410465D01*
X55664591Y-88420451D01*
X55590054Y-88440423D01*
X55590049Y-88440426D01*
X55453130Y-88519475D01*
X55453122Y-88519481D01*
X54844681Y-89127923D01*
X54783358Y-89161408D01*
X54713666Y-89156424D01*
X54657733Y-89114552D01*
X54633316Y-89049088D01*
X54633000Y-89040242D01*
X54633000Y-87353486D01*
X54652685Y-87286447D01*
X54705489Y-87240692D01*
X54774647Y-87230748D01*
X54796006Y-87235781D01*
X54809368Y-87240208D01*
X54809792Y-87240349D01*
X54909155Y-87250500D01*
X55955844Y-87250499D01*
X55955852Y-87250498D01*
X55955855Y-87250498D01*
X56010260Y-87244940D01*
X56055208Y-87240349D01*
X56216197Y-87187003D01*
X56360544Y-87097968D01*
X56480468Y-86978044D01*
X56569503Y-86833697D01*
X56608151Y-86717065D01*
X57300000Y-86717065D01*
X57310407Y-86818923D01*
X57365094Y-86983959D01*
X57365096Y-86983964D01*
X57456370Y-87131941D01*
X57579308Y-87254879D01*
X57727285Y-87346153D01*
X57727290Y-87346155D01*
X57892326Y-87400842D01*
X57994184Y-87411249D01*
X57994197Y-87411250D01*
X58250000Y-87411250D01*
X58250000Y-86673750D01*
X57300000Y-86673750D01*
X57300000Y-86717065D01*
X56608151Y-86717065D01*
X56622849Y-86672708D01*
X56633000Y-86573345D01*
X56632999Y-86026656D01*
X56632847Y-86025171D01*
X56622849Y-85927292D01*
X56622848Y-85927289D01*
X56601720Y-85863528D01*
X56569503Y-85766303D01*
X56504521Y-85660952D01*
X56486081Y-85593561D01*
X56506959Y-85526964D01*
X56524822Y-85500231D01*
X56596473Y-85327251D01*
X56633000Y-85143616D01*
X56633000Y-84956384D01*
X56596473Y-84772749D01*
X56534970Y-84624268D01*
X56524823Y-84599771D01*
X56524818Y-84599762D01*
X56502961Y-84567051D01*
X56482083Y-84500374D01*
X56500567Y-84432994D01*
X56552546Y-84386303D01*
X56621516Y-84375127D01*
X56685580Y-84403012D01*
G37*
%TD.AperFunction*%
%TA.AperFunction,Conductor*%
G36*
X76336948Y-77163185D02*
G01*
X76382292Y-77215097D01*
X76384965Y-77220830D01*
X76396757Y-77237671D01*
X76467356Y-77338497D01*
X76489683Y-77404703D01*
X76472673Y-77472470D01*
X76453462Y-77497301D01*
X75038872Y-78911892D01*
X74977549Y-78945377D01*
X74907857Y-78940393D01*
X74851924Y-78898521D01*
X74827507Y-78833057D01*
X74842359Y-78764784D01*
X74845074Y-78760061D01*
X74918019Y-78639395D01*
X74968590Y-78477106D01*
X74975000Y-78406572D01*
X74975000Y-78400000D01*
X74250000Y-78400000D01*
X74250000Y-79049999D01*
X74331581Y-79049999D01*
X74402102Y-79043591D01*
X74402107Y-79043590D01*
X74564396Y-78993018D01*
X74685061Y-78920074D01*
X74752615Y-78902238D01*
X74819089Y-78923755D01*
X74863377Y-78977796D01*
X74871418Y-79047201D01*
X74840659Y-79109936D01*
X74836892Y-79113872D01*
X73812181Y-80138583D01*
X73750858Y-80172068D01*
X73681166Y-80167084D01*
X73625233Y-80125212D01*
X73600816Y-80059748D01*
X73600500Y-80050902D01*
X73600500Y-79173999D01*
X73620185Y-79106960D01*
X73672989Y-79061205D01*
X73724498Y-79049999D01*
X73749999Y-79049998D01*
X73750000Y-79049998D01*
X73750000Y-78274000D01*
X73769685Y-78206961D01*
X73822489Y-78161206D01*
X73874000Y-78150000D01*
X74000000Y-78150000D01*
X74000000Y-78024000D01*
X74019685Y-77956961D01*
X74072489Y-77911206D01*
X74124000Y-77900000D01*
X74974999Y-77900000D01*
X74974999Y-77893417D01*
X74968591Y-77822897D01*
X74968590Y-77822892D01*
X74918018Y-77660603D01*
X74830072Y-77515122D01*
X74727984Y-77413034D01*
X74694499Y-77351711D01*
X74699483Y-77282019D01*
X74727983Y-77237673D01*
X74785839Y-77179818D01*
X74847162Y-77146334D01*
X74873519Y-77143500D01*
X76269909Y-77143500D01*
X76336948Y-77163185D01*
G37*
%TD.AperFunction*%
%TA.AperFunction,Conductor*%
G36*
X59680464Y-71897199D02*
G01*
X61438783Y-73655519D01*
X61438785Y-73655520D01*
X61438789Y-73655523D01*
X61526408Y-73706109D01*
X61575715Y-73734576D01*
X61627180Y-73748366D01*
X61686839Y-73784730D01*
X61717368Y-73847577D01*
X61709073Y-73916952D01*
X61702476Y-73930133D01*
X61695599Y-73942046D01*
X61695595Y-73942053D01*
X61640423Y-74037613D01*
X61599499Y-74190341D01*
X61599499Y-74190343D01*
X61599499Y-74358444D01*
X61599500Y-74358457D01*
X61599500Y-77099903D01*
X61579815Y-77166942D01*
X61563181Y-77187584D01*
X59787584Y-78963181D01*
X59726261Y-78996666D01*
X59699903Y-78999500D01*
X59300098Y-78999500D01*
X59233059Y-78979815D01*
X59212417Y-78963181D01*
X58286319Y-78037083D01*
X58272213Y-78011250D01*
X58750000Y-78011250D01*
X59005803Y-78011250D01*
X59005815Y-78011249D01*
X59107673Y-78000842D01*
X59272709Y-77946155D01*
X59272714Y-77946153D01*
X59420691Y-77854879D01*
X59543629Y-77731941D01*
X59634903Y-77583964D01*
X59634905Y-77583959D01*
X59689592Y-77418923D01*
X59699999Y-77317065D01*
X59700000Y-77317052D01*
X59700000Y-77273750D01*
X58750000Y-77273750D01*
X58750000Y-78011250D01*
X58272213Y-78011250D01*
X58252834Y-77975760D01*
X58250000Y-77949402D01*
X58250000Y-77147750D01*
X58269685Y-77080711D01*
X58322489Y-77034956D01*
X58374000Y-77023750D01*
X58500000Y-77023750D01*
X58500000Y-76897750D01*
X58519685Y-76830711D01*
X58572489Y-76784956D01*
X58624000Y-76773750D01*
X59700000Y-76773750D01*
X59700000Y-76730447D01*
X59699999Y-76730434D01*
X59689592Y-76628576D01*
X59634905Y-76463540D01*
X59634903Y-76463535D01*
X59543629Y-76315558D01*
X59420690Y-76192619D01*
X59420685Y-76192615D01*
X59419822Y-76192083D01*
X59419353Y-76191562D01*
X59415023Y-76188138D01*
X59415608Y-76187398D01*
X59373096Y-76140136D01*
X59361873Y-76071174D01*
X59389716Y-76007091D01*
X59415398Y-75984836D01*
X59415336Y-75984757D01*
X59417106Y-75983357D01*
X59419820Y-75981005D01*
X59421003Y-75980276D01*
X59544026Y-75857253D01*
X59635362Y-75709175D01*
X59690087Y-75544025D01*
X59700500Y-75442098D01*
X59700500Y-74855402D01*
X59690087Y-74753475D01*
X59635362Y-74588325D01*
X59635358Y-74588319D01*
X59635357Y-74588316D01*
X59544028Y-74440250D01*
X59544025Y-74440246D01*
X59421003Y-74317224D01*
X59420999Y-74317221D01*
X59266778Y-74222096D01*
X59267531Y-74220873D01*
X59221126Y-74180019D01*
X59201970Y-74112826D01*
X59222182Y-74045944D01*
X59238280Y-74026126D01*
X59330472Y-73933935D01*
X59418478Y-73788356D01*
X59469086Y-73625946D01*
X59475500Y-73555366D01*
X59475500Y-73042134D01*
X59469086Y-72971554D01*
X59418478Y-72809144D01*
X59330472Y-72663565D01*
X59330470Y-72663563D01*
X59330469Y-72663561D01*
X59228339Y-72561431D01*
X59194854Y-72500108D01*
X59199838Y-72430416D01*
X59228339Y-72386069D01*
X59330468Y-72283939D01*
X59330469Y-72283938D01*
X59330472Y-72283935D01*
X59418478Y-72138356D01*
X59469086Y-71975946D01*
X59469293Y-71973663D01*
X59469790Y-71972405D01*
X59470366Y-71969511D01*
X59470892Y-71969615D01*
X59494959Y-71908683D01*
X59551684Y-71867890D01*
X59621458Y-71864242D01*
X59680464Y-71897199D01*
G37*
%TD.AperFunction*%
%TA.AperFunction,Conductor*%
G36*
X87492939Y-50520185D02*
G01*
X87538694Y-50572989D01*
X87549900Y-50624500D01*
X87549900Y-117350900D01*
X87530215Y-117417939D01*
X87477411Y-117463694D01*
X87425900Y-117474900D01*
X50624500Y-117474900D01*
X50557461Y-117455215D01*
X50511706Y-117402411D01*
X50500500Y-117350900D01*
X50500500Y-105279054D01*
X52599498Y-105279054D01*
X52640424Y-105431789D01*
X52640425Y-105431790D01*
X52664049Y-105472707D01*
X52664050Y-105472708D01*
X52719477Y-105568712D01*
X52719481Y-105568717D01*
X52838349Y-105687585D01*
X52838355Y-105687590D01*
X54715139Y-107564374D01*
X54715149Y-107564385D01*
X54719479Y-107568715D01*
X54719480Y-107568716D01*
X54831284Y-107680520D01*
X54831286Y-107680521D01*
X54831287Y-107680522D01*
X54856673Y-107695178D01*
X54904889Y-107745744D01*
X54918114Y-107814350D01*
X54892147Y-107879216D01*
X54882356Y-107890247D01*
X54063786Y-108708818D01*
X53951981Y-108820622D01*
X53951975Y-108820630D01*
X53909564Y-108894090D01*
X53909564Y-108894091D01*
X53872923Y-108957554D01*
X53872923Y-108957555D01*
X53831999Y-109110283D01*
X53831999Y-109110285D01*
X53831999Y-109278386D01*
X53832000Y-109278399D01*
X53832000Y-109723990D01*
X53831999Y-109724008D01*
X53831999Y-109889714D01*
X53831998Y-109889714D01*
X53869699Y-110030416D01*
X53872923Y-110042445D01*
X53896338Y-110083000D01*
X53926469Y-110135189D01*
X53951979Y-110179374D01*
X53951981Y-110179377D01*
X54070849Y-110298245D01*
X54070855Y-110298250D01*
X54217815Y-110445210D01*
X54251300Y-110506533D01*
X54251752Y-110557081D01*
X54234684Y-110642893D01*
X54232000Y-110656385D01*
X54232000Y-110843620D01*
X54268525Y-111027243D01*
X54268527Y-111027251D01*
X54340176Y-111200228D01*
X54340180Y-111200235D01*
X54410923Y-111306110D01*
X54431800Y-111372787D01*
X54413315Y-111440167D01*
X54410923Y-111443890D01*
X54340180Y-111549764D01*
X54340176Y-111549771D01*
X54268527Y-111722748D01*
X54268525Y-111722756D01*
X54232000Y-111906379D01*
X54232000Y-112093620D01*
X54268525Y-112277243D01*
X54268527Y-112277251D01*
X54340176Y-112450228D01*
X54340180Y-112450235D01*
X54410923Y-112556110D01*
X54431800Y-112622787D01*
X54413315Y-112690167D01*
X54410923Y-112693890D01*
X54340180Y-112799764D01*
X54340176Y-112799771D01*
X54268527Y-112972748D01*
X54268525Y-112972756D01*
X54232000Y-113156379D01*
X54232000Y-113343620D01*
X54268525Y-113527243D01*
X54268527Y-113527251D01*
X54340177Y-113700230D01*
X54341381Y-113702032D01*
X54357254Y-113725788D01*
X54358041Y-113726965D01*
X54378919Y-113793643D01*
X54360478Y-113860953D01*
X54295498Y-113966300D01*
X54295496Y-113966305D01*
X54242151Y-114127290D01*
X54232000Y-114226647D01*
X54232000Y-114773337D01*
X54232001Y-114773355D01*
X54242150Y-114872707D01*
X54242151Y-114872710D01*
X54295496Y-115033694D01*
X54295501Y-115033705D01*
X54384529Y-115178040D01*
X54384532Y-115178044D01*
X54504455Y-115297967D01*
X54504459Y-115297970D01*
X54648794Y-115386998D01*
X54648797Y-115386999D01*
X54648803Y-115387003D01*
X54809792Y-115440349D01*
X54909155Y-115450500D01*
X55955844Y-115450499D01*
X55955852Y-115450498D01*
X55955855Y-115450498D01*
X56010260Y-115444940D01*
X56055208Y-115440349D01*
X56216197Y-115387003D01*
X56360544Y-115297968D01*
X56480468Y-115178044D01*
X56569503Y-115033697D01*
X56608151Y-114917065D01*
X57300000Y-114917065D01*
X57310407Y-115018923D01*
X57365094Y-115183959D01*
X57365096Y-115183964D01*
X57456370Y-115331941D01*
X57579308Y-115454879D01*
X57727285Y-115546153D01*
X57727290Y-115546155D01*
X57892326Y-115600842D01*
X57994184Y-115611249D01*
X57994197Y-115611250D01*
X58250000Y-115611250D01*
X58750000Y-115611250D01*
X59005803Y-115611250D01*
X59005815Y-115611249D01*
X59107673Y-115600842D01*
X59272709Y-115546155D01*
X59272714Y-115546153D01*
X59420691Y-115454879D01*
X59543629Y-115331941D01*
X59634903Y-115183964D01*
X59634905Y-115183959D01*
X59689592Y-115018923D01*
X59699999Y-114917065D01*
X59700000Y-114917052D01*
X59700000Y-114873750D01*
X58750000Y-114873750D01*
X58750000Y-115611250D01*
X58250000Y-115611250D01*
X58250000Y-114873750D01*
X57300000Y-114873750D01*
X57300000Y-114917065D01*
X56608151Y-114917065D01*
X56622849Y-114872708D01*
X56633000Y-114773345D01*
X56632999Y-114471079D01*
X56652683Y-114404041D01*
X56705487Y-114358286D01*
X56756999Y-114347080D01*
X57221968Y-114347080D01*
X57289007Y-114366765D01*
X57297675Y-114373750D01*
X59700000Y-114373750D01*
X59700000Y-114330447D01*
X59699999Y-114330434D01*
X59689192Y-114224651D01*
X59701961Y-114155958D01*
X59724868Y-114124367D01*
X59733940Y-114115296D01*
X59733940Y-114115294D01*
X59744142Y-114105093D01*
X59744145Y-114105088D01*
X59849237Y-113999996D01*
X65229435Y-113999996D01*
X65229435Y-114000003D01*
X65249630Y-114179249D01*
X65249631Y-114179254D01*
X65309211Y-114349523D01*
X65385591Y-114471080D01*
X65405184Y-114502262D01*
X65532738Y-114629816D01*
X65685478Y-114725789D01*
X65821414Y-114773355D01*
X65855745Y-114785368D01*
X65855750Y-114785369D01*
X66034996Y-114805565D01*
X66035000Y-114805565D01*
X66035004Y-114805565D01*
X66214249Y-114785369D01*
X66214252Y-114785368D01*
X66214255Y-114785368D01*
X66384522Y-114725789D01*
X66537262Y-114629816D01*
X66664816Y-114502262D01*
X66760789Y-114349522D01*
X66820368Y-114179255D01*
X66826553Y-114124364D01*
X66840565Y-114000003D01*
X66840565Y-113999996D01*
X66820369Y-113820750D01*
X66820368Y-113820745D01*
X66804536Y-113775500D01*
X66760789Y-113650478D01*
X66664816Y-113497738D01*
X66537262Y-113370184D01*
X66494986Y-113343620D01*
X66384523Y-113274211D01*
X66214254Y-113214631D01*
X66214249Y-113214630D01*
X66035004Y-113194435D01*
X66034996Y-113194435D01*
X65855750Y-113214630D01*
X65855745Y-113214631D01*
X65685476Y-113274211D01*
X65532737Y-113370184D01*
X65405184Y-113497737D01*
X65309211Y-113650476D01*
X65249631Y-113820745D01*
X65249630Y-113820750D01*
X65229435Y-113999996D01*
X59849237Y-113999996D01*
X60037417Y-113811816D01*
X60098739Y-113778334D01*
X60125097Y-113775500D01*
X63738331Y-113775500D01*
X63738347Y-113775501D01*
X63745943Y-113775501D01*
X63904054Y-113775501D01*
X63904057Y-113775501D01*
X64056785Y-113734577D01*
X64072008Y-113725788D01*
X64113153Y-113702033D01*
X64113154Y-113702032D01*
X64193716Y-113655520D01*
X64305520Y-113543716D01*
X64305520Y-113543714D01*
X64315724Y-113533511D01*
X64315727Y-113533506D01*
X66449237Y-111399996D01*
X73394435Y-111399996D01*
X73394435Y-111400003D01*
X73414630Y-111579249D01*
X73414631Y-111579254D01*
X73474211Y-111749523D01*
X73556525Y-111880524D01*
X73570184Y-111902262D01*
X73697738Y-112029816D01*
X73850478Y-112125789D01*
X73974820Y-112169298D01*
X74020745Y-112185368D01*
X74020750Y-112185369D01*
X74199996Y-112205565D01*
X74200000Y-112205565D01*
X74200004Y-112205565D01*
X74379249Y-112185369D01*
X74379252Y-112185368D01*
X74379255Y-112185368D01*
X74549522Y-112125789D01*
X74702262Y-112029816D01*
X74702266Y-112029811D01*
X74705097Y-112027555D01*
X74707275Y-112026665D01*
X74708158Y-112026111D01*
X74708255Y-112026265D01*
X74769784Y-112001146D01*
X74782411Y-112000501D01*
X74879054Y-112000501D01*
X74879057Y-112000501D01*
X75031785Y-111959577D01*
X75098328Y-111921158D01*
X75123920Y-111906383D01*
X75168709Y-111880524D01*
X75168708Y-111880524D01*
X75168716Y-111880520D01*
X75262417Y-111786819D01*
X75323740Y-111753334D01*
X75350098Y-111750500D01*
X75414980Y-111750500D01*
X75482019Y-111770185D01*
X75502661Y-111786819D01*
X75621311Y-111905469D01*
X75621313Y-111905470D01*
X75621315Y-111905472D01*
X75766894Y-111993478D01*
X75929304Y-112044086D01*
X75999884Y-112050500D01*
X75999887Y-112050500D01*
X76663113Y-112050500D01*
X76663116Y-112050500D01*
X76733696Y-112044086D01*
X76896106Y-111993478D01*
X77041685Y-111905472D01*
X77161972Y-111785185D01*
X77249978Y-111639606D01*
X77300586Y-111477196D01*
X77307000Y-111406616D01*
X77307000Y-110893384D01*
X77300586Y-110822804D01*
X77249978Y-110660394D01*
X77161972Y-110514815D01*
X77161970Y-110514813D01*
X77161969Y-110514811D01*
X77059839Y-110412681D01*
X77026354Y-110351358D01*
X77031338Y-110281666D01*
X77059839Y-110237319D01*
X77161968Y-110135189D01*
X77161969Y-110135188D01*
X77161972Y-110135185D01*
X77249978Y-109989606D01*
X77300586Y-109827196D01*
X77307000Y-109756616D01*
X77307000Y-109243384D01*
X77300586Y-109172804D01*
X77249978Y-109010394D01*
X77161972Y-108864815D01*
X77161970Y-108864813D01*
X77161969Y-108864811D01*
X77116723Y-108819565D01*
X77083238Y-108758242D01*
X77088222Y-108688550D01*
X77130094Y-108632617D01*
X77139284Y-108626360D01*
X77252503Y-108556526D01*
X77375526Y-108433503D01*
X77466862Y-108285425D01*
X77466866Y-108285412D01*
X77469116Y-108280590D01*
X77515287Y-108228149D01*
X77582480Y-108208995D01*
X77649362Y-108229208D01*
X77693884Y-108280590D01*
X77696136Y-108285420D01*
X77696138Y-108285425D01*
X77696140Y-108285429D01*
X77696141Y-108285430D01*
X77787471Y-108433499D01*
X77787474Y-108433503D01*
X77910497Y-108556526D01*
X78023693Y-108626346D01*
X78070416Y-108678293D01*
X78081639Y-108747256D01*
X78053795Y-108811338D01*
X78046277Y-108819564D01*
X78001030Y-108864811D01*
X77913022Y-109010393D01*
X77862413Y-109172807D01*
X77856000Y-109243386D01*
X77856000Y-109756613D01*
X77862413Y-109827192D01*
X77862413Y-109827194D01*
X77862414Y-109827196D01*
X77913022Y-109989606D01*
X77944964Y-110042445D01*
X78001030Y-110135188D01*
X78103161Y-110237319D01*
X78136646Y-110298642D01*
X78131662Y-110368334D01*
X78103161Y-110412681D01*
X78001031Y-110514810D01*
X78001030Y-110514811D01*
X77913022Y-110660393D01*
X77862413Y-110822807D01*
X77856000Y-110893386D01*
X77856000Y-111406613D01*
X77862413Y-111477192D01*
X77862413Y-111477194D01*
X77862414Y-111477196D01*
X77913022Y-111639606D01*
X78001028Y-111785185D01*
X78095623Y-111879780D01*
X78129107Y-111941101D01*
X78124123Y-112010793D01*
X78095622Y-112055141D01*
X77981465Y-112169298D01*
X77920142Y-112202783D01*
X77907668Y-112204837D01*
X77820750Y-112214630D01*
X77650478Y-112274210D01*
X77497737Y-112370184D01*
X77370184Y-112497737D01*
X77274211Y-112650476D01*
X77214631Y-112820745D01*
X77214630Y-112820750D01*
X77194435Y-112999996D01*
X77194435Y-113000003D01*
X77214630Y-113179249D01*
X77214631Y-113179254D01*
X77274211Y-113349523D01*
X77367341Y-113497737D01*
X77370184Y-113502262D01*
X77497738Y-113629816D01*
X77538646Y-113655520D01*
X77612670Y-113702033D01*
X77650478Y-113725789D01*
X77675593Y-113734577D01*
X77820745Y-113785368D01*
X77820750Y-113785369D01*
X77999996Y-113805565D01*
X78000000Y-113805565D01*
X78000004Y-113805565D01*
X78179249Y-113785369D01*
X78179252Y-113785368D01*
X78179255Y-113785368D01*
X78349522Y-113725789D01*
X78502262Y-113629816D01*
X78629816Y-113502262D01*
X78725789Y-113349522D01*
X78785368Y-113179255D01*
X78795161Y-113092329D01*
X78822226Y-113027918D01*
X78830680Y-113018553D01*
X79312020Y-112537216D01*
X79391077Y-112400284D01*
X79432001Y-112247557D01*
X79432001Y-112089442D01*
X79432001Y-112081847D01*
X79432000Y-112081829D01*
X79432000Y-112041715D01*
X79451685Y-111974676D01*
X79491849Y-111935598D01*
X79541685Y-111905472D01*
X79661972Y-111785185D01*
X79749978Y-111639606D01*
X79800586Y-111477196D01*
X79807000Y-111406616D01*
X79807000Y-110893384D01*
X79800586Y-110822804D01*
X79749978Y-110660394D01*
X79661972Y-110514815D01*
X79661970Y-110514813D01*
X79661969Y-110514811D01*
X79559839Y-110412681D01*
X79526354Y-110351358D01*
X79531338Y-110281666D01*
X79559839Y-110237319D01*
X79661968Y-110135189D01*
X79661969Y-110135188D01*
X79661972Y-110135185D01*
X79749978Y-109989606D01*
X79800586Y-109827196D01*
X79807000Y-109756616D01*
X79807000Y-109243384D01*
X79800586Y-109172804D01*
X79749978Y-109010394D01*
X79661972Y-108864815D01*
X79661970Y-108864813D01*
X79661969Y-108864811D01*
X79616723Y-108819565D01*
X79583238Y-108758242D01*
X79588222Y-108688550D01*
X79630094Y-108632617D01*
X79639284Y-108626360D01*
X79752503Y-108556526D01*
X79875526Y-108433503D01*
X79966862Y-108285425D01*
X79966866Y-108285412D01*
X79969116Y-108280590D01*
X80015287Y-108228149D01*
X80082480Y-108208995D01*
X80149362Y-108229208D01*
X80193884Y-108280590D01*
X80196136Y-108285420D01*
X80196138Y-108285425D01*
X80196140Y-108285429D01*
X80196141Y-108285430D01*
X80287471Y-108433499D01*
X80287474Y-108433503D01*
X80410496Y-108556525D01*
X80410500Y-108556528D01*
X80512868Y-108619670D01*
X80559593Y-108671618D01*
X80570814Y-108740580D01*
X80542971Y-108804662D01*
X80535453Y-108812888D01*
X80501031Y-108847309D01*
X80501030Y-108847311D01*
X80413022Y-108992893D01*
X80362413Y-109155307D01*
X80356000Y-109225886D01*
X80356000Y-109739113D01*
X80362413Y-109809692D01*
X80362413Y-109809694D01*
X80362414Y-109809696D01*
X80413022Y-109972106D01*
X80501030Y-110117688D01*
X80603161Y-110219819D01*
X80636646Y-110281142D01*
X80631662Y-110350834D01*
X80603161Y-110395181D01*
X80501031Y-110497310D01*
X80501030Y-110497311D01*
X80413022Y-110642893D01*
X80362413Y-110805307D01*
X80356000Y-110875886D01*
X80356000Y-111389113D01*
X80362413Y-111459692D01*
X80362413Y-111459694D01*
X80362414Y-111459696D01*
X80413022Y-111622106D01*
X80494651Y-111757137D01*
X80501030Y-111767688D01*
X80621311Y-111887969D01*
X80621313Y-111887970D01*
X80621315Y-111887972D01*
X80766894Y-111975978D01*
X80929304Y-112026586D01*
X80999884Y-112033000D01*
X80999887Y-112033000D01*
X81663113Y-112033000D01*
X81663116Y-112033000D01*
X81733696Y-112026586D01*
X81896106Y-111975978D01*
X82041685Y-111887972D01*
X82161972Y-111767685D01*
X82249978Y-111622106D01*
X82300586Y-111459696D01*
X82307000Y-111389116D01*
X82307000Y-110875884D01*
X82300586Y-110805304D01*
X82249978Y-110642894D01*
X82161972Y-110497315D01*
X82161970Y-110497313D01*
X82161969Y-110497311D01*
X82059839Y-110395181D01*
X82026354Y-110333858D01*
X82031338Y-110264166D01*
X82059839Y-110219819D01*
X82161968Y-110117689D01*
X82161969Y-110117688D01*
X82161972Y-110117685D01*
X82249978Y-109972106D01*
X82300586Y-109809696D01*
X82307000Y-109739116D01*
X82307000Y-109225884D01*
X82300586Y-109155304D01*
X82249978Y-108992894D01*
X82161972Y-108847315D01*
X82161970Y-108847313D01*
X82161969Y-108847311D01*
X82127547Y-108812889D01*
X82094062Y-108751566D01*
X82099046Y-108681874D01*
X82140918Y-108625941D01*
X82150114Y-108619680D01*
X82252503Y-108556526D01*
X82375526Y-108433503D01*
X82466862Y-108285425D01*
X82521587Y-108120275D01*
X82532000Y-108018348D01*
X82532000Y-107431652D01*
X82521587Y-107329725D01*
X82466862Y-107164575D01*
X82466858Y-107164569D01*
X82466857Y-107164566D01*
X82375528Y-107016500D01*
X82375525Y-107016496D01*
X82252503Y-106893474D01*
X82252495Y-106893468D01*
X82251312Y-106892738D01*
X82250671Y-106892025D01*
X82246836Y-106888993D01*
X82247354Y-106888337D01*
X82204591Y-106840787D01*
X82193375Y-106771823D01*
X82221223Y-106707743D01*
X82246623Y-106685738D01*
X82246523Y-106685612D01*
X82249342Y-106683382D01*
X82251332Y-106681659D01*
X82252192Y-106681128D01*
X82375129Y-106558191D01*
X82466403Y-106410214D01*
X82466405Y-106410209D01*
X82521092Y-106245173D01*
X82531499Y-106143315D01*
X82531500Y-106143302D01*
X82531500Y-106100000D01*
X75131500Y-106100000D01*
X75131500Y-106143315D01*
X75141907Y-106245173D01*
X75196594Y-106410209D01*
X75196596Y-106410214D01*
X75287870Y-106558191D01*
X75410809Y-106681130D01*
X75411673Y-106681663D01*
X75412141Y-106682183D01*
X75416477Y-106685612D01*
X75415891Y-106686352D01*
X75458401Y-106733608D01*
X75469626Y-106802570D01*
X75441786Y-106866654D01*
X75416101Y-106888914D01*
X75416164Y-106888993D01*
X75414412Y-106890378D01*
X75411694Y-106892734D01*
X75410505Y-106893467D01*
X75410496Y-106893474D01*
X75287474Y-107016496D01*
X75287471Y-107016500D01*
X75196142Y-107164566D01*
X75196137Y-107164577D01*
X75141413Y-107329723D01*
X75131000Y-107431644D01*
X75131000Y-108018355D01*
X75141413Y-108120276D01*
X75196137Y-108285422D01*
X75196142Y-108285433D01*
X75287471Y-108433499D01*
X75287474Y-108433503D01*
X75410497Y-108556526D01*
X75523693Y-108626346D01*
X75570416Y-108678293D01*
X75581639Y-108747256D01*
X75553795Y-108811338D01*
X75546277Y-108819564D01*
X75501030Y-108864811D01*
X75413022Y-109010393D01*
X75362413Y-109172807D01*
X75356000Y-109243386D01*
X75356000Y-109756613D01*
X75362413Y-109827192D01*
X75362413Y-109827194D01*
X75362414Y-109827196D01*
X75413022Y-109989606D01*
X75444964Y-110042445D01*
X75501030Y-110135188D01*
X75603161Y-110237319D01*
X75636646Y-110298642D01*
X75631662Y-110368334D01*
X75603161Y-110412681D01*
X75502661Y-110513181D01*
X75441338Y-110546666D01*
X75414980Y-110549500D01*
X74970940Y-110549500D01*
X74930019Y-110560464D01*
X74930019Y-110560465D01*
X74892751Y-110570451D01*
X74818214Y-110590423D01*
X74818209Y-110590426D01*
X74674245Y-110673543D01*
X74672591Y-110670678D01*
X74621735Y-110690294D01*
X74556024Y-110676762D01*
X74555798Y-110677233D01*
X74553922Y-110676330D01*
X74553301Y-110676202D01*
X74551540Y-110675182D01*
X74549518Y-110674209D01*
X74379262Y-110614633D01*
X74379249Y-110614630D01*
X74200004Y-110594435D01*
X74199996Y-110594435D01*
X74020750Y-110614630D01*
X74020745Y-110614631D01*
X73850476Y-110674211D01*
X73697737Y-110770184D01*
X73570184Y-110897737D01*
X73474211Y-111050476D01*
X73414631Y-111220745D01*
X73414630Y-111220750D01*
X73394435Y-111399996D01*
X66449237Y-111399996D01*
X72292550Y-105556684D01*
X75131500Y-105556684D01*
X75131500Y-105600000D01*
X76081500Y-105600000D01*
X76581500Y-105600000D01*
X78581500Y-105600000D01*
X79081500Y-105600000D01*
X81081500Y-105600000D01*
X81581500Y-105600000D01*
X82531500Y-105600000D01*
X82531500Y-105556697D01*
X82531499Y-105556684D01*
X82521092Y-105454826D01*
X82466405Y-105289790D01*
X82466403Y-105289785D01*
X82375129Y-105141808D01*
X82252191Y-105018870D01*
X82104214Y-104927596D01*
X82104209Y-104927594D01*
X81939173Y-104872907D01*
X81837315Y-104862500D01*
X81581500Y-104862500D01*
X81581500Y-105600000D01*
X81081500Y-105600000D01*
X81081500Y-104862500D01*
X80825684Y-104862500D01*
X80723826Y-104872907D01*
X80558790Y-104927594D01*
X80558785Y-104927596D01*
X80410808Y-105018870D01*
X80287870Y-105141808D01*
X80196593Y-105289791D01*
X80193882Y-105295606D01*
X80147710Y-105348045D01*
X80080516Y-105367197D01*
X80013635Y-105346981D01*
X79969118Y-105295606D01*
X79966406Y-105289791D01*
X79875129Y-105141808D01*
X79752191Y-105018870D01*
X79604214Y-104927596D01*
X79604209Y-104927594D01*
X79439173Y-104872907D01*
X79337315Y-104862500D01*
X79081500Y-104862500D01*
X79081500Y-105600000D01*
X78581500Y-105600000D01*
X78581500Y-104862500D01*
X78325684Y-104862500D01*
X78223826Y-104872907D01*
X78058790Y-104927594D01*
X78058785Y-104927596D01*
X77910808Y-105018870D01*
X77787870Y-105141808D01*
X77696593Y-105289791D01*
X77693882Y-105295606D01*
X77647710Y-105348045D01*
X77580516Y-105367197D01*
X77513635Y-105346981D01*
X77469118Y-105295606D01*
X77466406Y-105289791D01*
X77375129Y-105141808D01*
X77252191Y-105018870D01*
X77104214Y-104927596D01*
X77104209Y-104927594D01*
X76939173Y-104872907D01*
X76837315Y-104862500D01*
X76581500Y-104862500D01*
X76581500Y-105600000D01*
X76081500Y-105600000D01*
X76081500Y-104862500D01*
X75825684Y-104862500D01*
X75723826Y-104872907D01*
X75558790Y-104927594D01*
X75558785Y-104927596D01*
X75410808Y-105018870D01*
X75287870Y-105141808D01*
X75196596Y-105289785D01*
X75196594Y-105289790D01*
X75141907Y-105454826D01*
X75131500Y-105556684D01*
X72292550Y-105556684D01*
X72512363Y-105336871D01*
X72573684Y-105303388D01*
X72613924Y-105301334D01*
X72651471Y-105305565D01*
X72651471Y-105305564D01*
X72651472Y-105305565D01*
X72651474Y-105305565D01*
X72830720Y-105285369D01*
X72830723Y-105285368D01*
X72830726Y-105285368D01*
X73000993Y-105225789D01*
X73153733Y-105129816D01*
X73281287Y-105002262D01*
X73377260Y-104849522D01*
X73436839Y-104679255D01*
X73438610Y-104663536D01*
X73457036Y-104500003D01*
X73457036Y-104499996D01*
X73440556Y-104353730D01*
X73452611Y-104284909D01*
X73499960Y-104233529D01*
X73567570Y-104215905D01*
X73633976Y-104237632D01*
X73651457Y-104252166D01*
X73679811Y-104280520D01*
X73679813Y-104280521D01*
X73679817Y-104280524D01*
X73816736Y-104359573D01*
X73816743Y-104359577D01*
X73928546Y-104389534D01*
X73969469Y-104400500D01*
X73969470Y-104400500D01*
X80913331Y-104400500D01*
X80913347Y-104400501D01*
X80920943Y-104400501D01*
X81079054Y-104400501D01*
X81079057Y-104400501D01*
X81231785Y-104359577D01*
X81289358Y-104326337D01*
X81368716Y-104280520D01*
X81480520Y-104168716D01*
X81480520Y-104168714D01*
X81490724Y-104158511D01*
X81490728Y-104158506D01*
X82758506Y-102890728D01*
X82758511Y-102890724D01*
X82768714Y-102880520D01*
X82768716Y-102880520D01*
X82880520Y-102768716D01*
X82952825Y-102643479D01*
X82959577Y-102631785D01*
X83000501Y-102479057D01*
X83000501Y-102320943D01*
X83000501Y-102313348D01*
X83000500Y-102313330D01*
X83000500Y-59358599D01*
X83000500Y-59358597D01*
X82959577Y-59205870D01*
X82959573Y-59205863D01*
X82880524Y-59068944D01*
X82880521Y-59068940D01*
X82880520Y-59068938D01*
X82768716Y-58957134D01*
X82768715Y-58957133D01*
X82764385Y-58952803D01*
X82764374Y-58952793D01*
X81109419Y-57297838D01*
X81075934Y-57236515D01*
X81080918Y-57166823D01*
X81109416Y-57122479D01*
X81137495Y-57094401D01*
X81273035Y-56900830D01*
X81372903Y-56686663D01*
X81434063Y-56458408D01*
X81454659Y-56223000D01*
X81434063Y-55987592D01*
X81372903Y-55759337D01*
X81273035Y-55545171D01*
X81267425Y-55537158D01*
X81137494Y-55351597D01*
X80970402Y-55184506D01*
X80970396Y-55184501D01*
X80784842Y-55054575D01*
X80741217Y-54999998D01*
X80734023Y-54930500D01*
X80765546Y-54868145D01*
X80784842Y-54851425D01*
X80807026Y-54835891D01*
X80970401Y-54721495D01*
X81137495Y-54554401D01*
X81273035Y-54360830D01*
X81372903Y-54146663D01*
X81434063Y-53918408D01*
X81454659Y-53683000D01*
X81434063Y-53447592D01*
X81372903Y-53219337D01*
X81273035Y-53005171D01*
X81272356Y-53004200D01*
X81137494Y-52811597D01*
X80970402Y-52644506D01*
X80970395Y-52644501D01*
X80776834Y-52508967D01*
X80776830Y-52508965D01*
X80752754Y-52497738D01*
X80562663Y-52409097D01*
X80562659Y-52409096D01*
X80562655Y-52409094D01*
X80334413Y-52347938D01*
X80334403Y-52347936D01*
X80099001Y-52327341D01*
X80098999Y-52327341D01*
X79863596Y-52347936D01*
X79863586Y-52347938D01*
X79635344Y-52409094D01*
X79635335Y-52409098D01*
X79421171Y-52508964D01*
X79421169Y-52508965D01*
X79227600Y-52644503D01*
X79105673Y-52766430D01*
X79044350Y-52799914D01*
X78974658Y-52794930D01*
X78918725Y-52753058D01*
X78901810Y-52722081D01*
X78852797Y-52590671D01*
X78852793Y-52590664D01*
X78766547Y-52475455D01*
X78766544Y-52475452D01*
X78651335Y-52389206D01*
X78651328Y-52389202D01*
X78516482Y-52338908D01*
X78516483Y-52338908D01*
X78456883Y-52332501D01*
X78456881Y-52332500D01*
X78456873Y-52332500D01*
X78456864Y-52332500D01*
X76661129Y-52332500D01*
X76661123Y-52332501D01*
X76601516Y-52338908D01*
X76466671Y-52389202D01*
X76466664Y-52389206D01*
X76351455Y-52475452D01*
X76351452Y-52475455D01*
X76265206Y-52590664D01*
X76265202Y-52590671D01*
X76214908Y-52725517D01*
X76208501Y-52785116D01*
X76208500Y-52785135D01*
X76208500Y-53275500D01*
X76188815Y-53342539D01*
X76136011Y-53388294D01*
X76084500Y-53399500D01*
X74234958Y-53399500D01*
X74167919Y-53379815D01*
X74122164Y-53327011D01*
X74118776Y-53318833D01*
X74097717Y-53262371D01*
X74097713Y-53262364D01*
X74011467Y-53147155D01*
X74011464Y-53147152D01*
X73896255Y-53060906D01*
X73896248Y-53060902D01*
X73761402Y-53010608D01*
X73761403Y-53010608D01*
X73701803Y-53004201D01*
X73701801Y-53004200D01*
X73701793Y-53004200D01*
X73701785Y-53004200D01*
X73366812Y-53004200D01*
X73299773Y-52984515D01*
X73254018Y-52931711D01*
X73243592Y-52894084D01*
X73235329Y-52820749D01*
X73235328Y-52820745D01*
X73226295Y-52794930D01*
X73175749Y-52650478D01*
X73171993Y-52644501D01*
X73136542Y-52588080D01*
X73079776Y-52497738D01*
X72952222Y-52370184D01*
X72892250Y-52332501D01*
X72799483Y-52274211D01*
X72629214Y-52214631D01*
X72629209Y-52214630D01*
X72449964Y-52194435D01*
X72449956Y-52194435D01*
X72270710Y-52214630D01*
X72270697Y-52214633D01*
X72100439Y-52274209D01*
X72040951Y-52311588D01*
X71973714Y-52330588D01*
X71909009Y-52311588D01*
X71849520Y-52274209D01*
X71679262Y-52214633D01*
X71679249Y-52214630D01*
X71500004Y-52194435D01*
X71499996Y-52194435D01*
X71320750Y-52214630D01*
X71320745Y-52214631D01*
X71150476Y-52274211D01*
X70997737Y-52370184D01*
X70870184Y-52497737D01*
X70774211Y-52650476D01*
X70714631Y-52820745D01*
X70714630Y-52820750D01*
X70694435Y-52999996D01*
X70694435Y-53000003D01*
X70714631Y-53179252D01*
X70757225Y-53300981D01*
X70760786Y-53370760D01*
X70756366Y-53385266D01*
X70751908Y-53397217D01*
X70745501Y-53456816D01*
X70745500Y-53456835D01*
X70745500Y-54543170D01*
X70745501Y-54543176D01*
X70751908Y-54602783D01*
X70802202Y-54737628D01*
X70802206Y-54737635D01*
X70888452Y-54852844D01*
X70888455Y-54852847D01*
X71003664Y-54939093D01*
X71003671Y-54939097D01*
X71048618Y-54955861D01*
X71138517Y-54989391D01*
X71198127Y-54995800D01*
X71801872Y-54995799D01*
X71861483Y-54989391D01*
X71931645Y-54963221D01*
X72001336Y-54958237D01*
X72018309Y-54963219D01*
X72088477Y-54989391D01*
X72148087Y-54995800D01*
X72751832Y-54995799D01*
X72811443Y-54989391D01*
X72881605Y-54963221D01*
X72951296Y-54958237D01*
X72968269Y-54963219D01*
X73038437Y-54989391D01*
X73098047Y-54995800D01*
X73701792Y-54995799D01*
X73761403Y-54989391D01*
X73896251Y-54939096D01*
X74011466Y-54852846D01*
X74097716Y-54737631D01*
X74118776Y-54681167D01*
X74160647Y-54625233D01*
X74226111Y-54600816D01*
X74234958Y-54600500D01*
X76113901Y-54600500D01*
X76180940Y-54620185D01*
X76226695Y-54672989D01*
X76230083Y-54681167D01*
X76265202Y-54775328D01*
X76265206Y-54775335D01*
X76351452Y-54890544D01*
X76351455Y-54890547D01*
X76466664Y-54976793D01*
X76466671Y-54976797D01*
X76598081Y-55025810D01*
X76654015Y-55067681D01*
X76678432Y-55133145D01*
X76663580Y-55201418D01*
X76642430Y-55229673D01*
X76520503Y-55351600D01*
X76384965Y-55545169D01*
X76384964Y-55545171D01*
X76285098Y-55759335D01*
X76285094Y-55759344D01*
X76223938Y-55987586D01*
X76223936Y-55987596D01*
X76203341Y-56222999D01*
X76203341Y-56223000D01*
X76223936Y-56458403D01*
X76223938Y-56458413D01*
X76285094Y-56686655D01*
X76285096Y-56686659D01*
X76285097Y-56686663D01*
X76289000Y-56695032D01*
X76384965Y-56900830D01*
X76384967Y-56900834D01*
X76483000Y-57040838D01*
X76520501Y-57094396D01*
X76520506Y-57094402D01*
X76687597Y-57261493D01*
X76687603Y-57261498D01*
X76873158Y-57391425D01*
X76916783Y-57446002D01*
X76923977Y-57515500D01*
X76892454Y-57577855D01*
X76873158Y-57594575D01*
X76687597Y-57724505D01*
X76520505Y-57891597D01*
X76384965Y-58085169D01*
X76384964Y-58085171D01*
X76285098Y-58299335D01*
X76285094Y-58299344D01*
X76223938Y-58527586D01*
X76223936Y-58527596D01*
X76203341Y-58762999D01*
X76203341Y-58763000D01*
X76223936Y-58998403D01*
X76223938Y-58998413D01*
X76285094Y-59226655D01*
X76286947Y-59231744D01*
X76284868Y-59232500D01*
X76293921Y-59292202D01*
X76265386Y-59355979D01*
X76206901Y-59394205D01*
X76171051Y-59399500D01*
X74271023Y-59399500D01*
X74203984Y-59379815D01*
X74158229Y-59327011D01*
X74147532Y-59264279D01*
X74149305Y-59244761D01*
X74150500Y-59231616D01*
X74150500Y-58568384D01*
X74144086Y-58497804D01*
X74093478Y-58335394D01*
X74018302Y-58211039D01*
X74000420Y-58146890D01*
X74000420Y-57601272D01*
X74020105Y-57534233D01*
X74025142Y-57526976D01*
X74097716Y-57430031D01*
X74148011Y-57295183D01*
X74154420Y-57235573D01*
X74154419Y-56149228D01*
X74148011Y-56089617D01*
X74097716Y-55954769D01*
X74097715Y-55954768D01*
X74097713Y-55954764D01*
X74011467Y-55839555D01*
X74011464Y-55839552D01*
X73896255Y-55753306D01*
X73896248Y-55753302D01*
X73761406Y-55703010D01*
X73761405Y-55703009D01*
X73761403Y-55703009D01*
X73701793Y-55696600D01*
X73701783Y-55696600D01*
X73098049Y-55696600D01*
X73098043Y-55696601D01*
X73038436Y-55703008D01*
X72968272Y-55729178D01*
X72898581Y-55734162D01*
X72881607Y-55729178D01*
X72811446Y-55703010D01*
X72811445Y-55703009D01*
X72811443Y-55703009D01*
X72751833Y-55696600D01*
X72751823Y-55696600D01*
X72148089Y-55696600D01*
X72148083Y-55696601D01*
X72088476Y-55703008D01*
X72018312Y-55729178D01*
X71948621Y-55734162D01*
X71931647Y-55729178D01*
X71861486Y-55703010D01*
X71861485Y-55703009D01*
X71861483Y-55703009D01*
X71801873Y-55696600D01*
X71801863Y-55696600D01*
X71198129Y-55696600D01*
X71198123Y-55696601D01*
X71138516Y-55703008D01*
X71003671Y-55753302D01*
X71003664Y-55753306D01*
X70888455Y-55839552D01*
X70888452Y-55839555D01*
X70802206Y-55954764D01*
X70802202Y-55954771D01*
X70751908Y-56089617D01*
X70745501Y-56149216D01*
X70745501Y-56149223D01*
X70745500Y-56149235D01*
X70745500Y-57235570D01*
X70745501Y-57235576D01*
X70751909Y-57295184D01*
X70775814Y-57359279D01*
X70780798Y-57428971D01*
X70775761Y-57443644D01*
X70776510Y-57443906D01*
X70714633Y-57620737D01*
X70714630Y-57620750D01*
X70694435Y-57799996D01*
X70694435Y-57800003D01*
X70714630Y-57979249D01*
X70714631Y-57979254D01*
X70774212Y-58149525D01*
X70781799Y-58161600D01*
X70800799Y-58228837D01*
X70782923Y-58291718D01*
X70756523Y-58335389D01*
X70705913Y-58497807D01*
X70700782Y-58554275D01*
X70699500Y-58568384D01*
X70699500Y-59231616D01*
X70701423Y-59252778D01*
X70705913Y-59302192D01*
X70705913Y-59302194D01*
X70705914Y-59302196D01*
X70751610Y-59448842D01*
X70756522Y-59464606D01*
X70844530Y-59610188D01*
X70964811Y-59730469D01*
X70964813Y-59730470D01*
X70964815Y-59730472D01*
X71110394Y-59818478D01*
X71272804Y-59869086D01*
X71343384Y-59875500D01*
X71674903Y-59875500D01*
X71741942Y-59895185D01*
X71762584Y-59911819D01*
X72215139Y-60364374D01*
X72215149Y-60364385D01*
X72219479Y-60368715D01*
X72219480Y-60368716D01*
X72331284Y-60480520D01*
X72409818Y-60525861D01*
X72468215Y-60559577D01*
X72620943Y-60600501D01*
X72620946Y-60600501D01*
X72786653Y-60600501D01*
X72786669Y-60600500D01*
X76201828Y-60600500D01*
X76268867Y-60620185D01*
X76314622Y-60672989D01*
X76324566Y-60742147D01*
X76314210Y-60776905D01*
X76285097Y-60839335D01*
X76285094Y-60839344D01*
X76223938Y-61067586D01*
X76223936Y-61067596D01*
X76203341Y-61302999D01*
X76203341Y-61303000D01*
X76223936Y-61538403D01*
X76223938Y-61538413D01*
X76285094Y-61766655D01*
X76285096Y-61766659D01*
X76285097Y-61766663D01*
X76365004Y-61938023D01*
X76384965Y-61980830D01*
X76384967Y-61980834D01*
X76470564Y-62103078D01*
X76520501Y-62174396D01*
X76520506Y-62174402D01*
X76687597Y-62341493D01*
X76687603Y-62341498D01*
X76873158Y-62471425D01*
X76916783Y-62526002D01*
X76923977Y-62595500D01*
X76892454Y-62657855D01*
X76873158Y-62674575D01*
X76687597Y-62804505D01*
X76520505Y-62971597D01*
X76384965Y-63165169D01*
X76384964Y-63165171D01*
X76285098Y-63379335D01*
X76285094Y-63379344D01*
X76223938Y-63607586D01*
X76223936Y-63607596D01*
X76203341Y-63842999D01*
X76203341Y-63843000D01*
X76223936Y-64078403D01*
X76223938Y-64078413D01*
X76285094Y-64306655D01*
X76285096Y-64306659D01*
X76285097Y-64306663D01*
X76325866Y-64394092D01*
X76384965Y-64520830D01*
X76384967Y-64520834D01*
X76458691Y-64626122D01*
X76520501Y-64714396D01*
X76520506Y-64714402D01*
X76687597Y-64881493D01*
X76687603Y-64881498D01*
X76873158Y-65011425D01*
X76916783Y-65066002D01*
X76923977Y-65135500D01*
X76892454Y-65197855D01*
X76873158Y-65214575D01*
X76687597Y-65344505D01*
X76520506Y-65511596D01*
X76384965Y-65705170D01*
X76384962Y-65705175D01*
X76382289Y-65710909D01*
X76336115Y-65763346D01*
X76269909Y-65782500D01*
X72137940Y-65782500D01*
X72097019Y-65793464D01*
X72097019Y-65793465D01*
X72073519Y-65799762D01*
X71985214Y-65823423D01*
X71985209Y-65823426D01*
X71848290Y-65902475D01*
X71848282Y-65902481D01*
X71736478Y-66014286D01*
X67162583Y-70588182D01*
X67101260Y-70621667D01*
X67074902Y-70624501D01*
X64558218Y-70624501D01*
X64498787Y-70609331D01*
X64492328Y-70605803D01*
X64357481Y-70555509D01*
X64357482Y-70555509D01*
X64297882Y-70549102D01*
X64297880Y-70549101D01*
X64297872Y-70549101D01*
X64297863Y-70549101D01*
X62796528Y-70549101D01*
X62796522Y-70549102D01*
X62736913Y-70555510D01*
X62624678Y-70597370D01*
X62554986Y-70602354D01*
X62515374Y-70586182D01*
X62402506Y-70515262D01*
X62232237Y-70455682D01*
X62232232Y-70455681D01*
X62052987Y-70435486D01*
X62052979Y-70435486D01*
X61873733Y-70455681D01*
X61873728Y-70455682D01*
X61703459Y-70515262D01*
X61550720Y-70611235D01*
X61423165Y-70738790D01*
X61338179Y-70874044D01*
X61285844Y-70920335D01*
X61216791Y-70930982D01*
X61152943Y-70902607D01*
X61145505Y-70895752D01*
X59056733Y-68806980D01*
X59023248Y-68745657D01*
X59028232Y-68675965D01*
X59070104Y-68620032D01*
X59105410Y-68601593D01*
X59272709Y-68546155D01*
X59272714Y-68546153D01*
X59420691Y-68454879D01*
X59543629Y-68331941D01*
X59634903Y-68183964D01*
X59634905Y-68183959D01*
X59689592Y-68018923D01*
X59699999Y-67917065D01*
X59700000Y-67917052D01*
X59700000Y-67873750D01*
X58624000Y-67873750D01*
X58556961Y-67854065D01*
X58511206Y-67801261D01*
X58500000Y-67749750D01*
X58500000Y-67497750D01*
X58519685Y-67430711D01*
X58572489Y-67384956D01*
X58624000Y-67373750D01*
X59700000Y-67373750D01*
X59700000Y-67330447D01*
X59699999Y-67330434D01*
X59689592Y-67228576D01*
X59634905Y-67063540D01*
X59634903Y-67063535D01*
X59543629Y-66915558D01*
X59420690Y-66792619D01*
X59420685Y-66792615D01*
X59419822Y-66792083D01*
X59419353Y-66791562D01*
X59415023Y-66788138D01*
X59415608Y-66787398D01*
X59373096Y-66740136D01*
X59361873Y-66671174D01*
X59389716Y-66607091D01*
X59415398Y-66584836D01*
X59415336Y-66584757D01*
X59417106Y-66583357D01*
X59419820Y-66581005D01*
X59421003Y-66580276D01*
X59544026Y-66457253D01*
X59635362Y-66309175D01*
X59690087Y-66144025D01*
X59700500Y-66042098D01*
X59700500Y-65455402D01*
X59690087Y-65353475D01*
X59635362Y-65188325D01*
X59635358Y-65188319D01*
X59635357Y-65188316D01*
X59544028Y-65040250D01*
X59544025Y-65040246D01*
X59421003Y-64917224D01*
X59420999Y-64917221D01*
X59266778Y-64822096D01*
X59267531Y-64820873D01*
X59221126Y-64780019D01*
X59201970Y-64712826D01*
X59222182Y-64645944D01*
X59238280Y-64626126D01*
X59330472Y-64533935D01*
X59418478Y-64388356D01*
X59469086Y-64225946D01*
X59475500Y-64155366D01*
X59475500Y-63642134D01*
X59469086Y-63571554D01*
X59418478Y-63409144D01*
X59330472Y-63263565D01*
X59330470Y-63263563D01*
X59330469Y-63263561D01*
X59228339Y-63161431D01*
X59194854Y-63100108D01*
X59199838Y-63030416D01*
X59228339Y-62986069D01*
X59330468Y-62883939D01*
X59330469Y-62883938D01*
X59330472Y-62883935D01*
X59418478Y-62738356D01*
X59469086Y-62575946D01*
X59475500Y-62505366D01*
X59475500Y-61992134D01*
X59469086Y-61921554D01*
X59418478Y-61759144D01*
X59330472Y-61613565D01*
X59330470Y-61613563D01*
X59330469Y-61613561D01*
X59210188Y-61493280D01*
X59064606Y-61405272D01*
X58902196Y-61354664D01*
X58902194Y-61354663D01*
X58902192Y-61354663D01*
X58852778Y-61350173D01*
X58831616Y-61348250D01*
X58831613Y-61348250D01*
X58500098Y-61348250D01*
X58433059Y-61328565D01*
X58412417Y-61311931D01*
X58369967Y-61269481D01*
X58369966Y-61269480D01*
X58283154Y-61219360D01*
X58283154Y-61219359D01*
X58283150Y-61219358D01*
X58233035Y-61190423D01*
X58080307Y-61149499D01*
X57922193Y-61149499D01*
X57914597Y-61149499D01*
X57914581Y-61149500D01*
X54958510Y-61149500D01*
X54958494Y-61149499D01*
X54950898Y-61149499D01*
X54792783Y-61149499D01*
X54640055Y-61190423D01*
X54640053Y-61190423D01*
X54640053Y-61190424D01*
X54503121Y-61269482D01*
X52719481Y-63053122D01*
X52719479Y-63053125D01*
X52679838Y-63121787D01*
X52679837Y-63121789D01*
X52640423Y-63190054D01*
X52640423Y-63190055D01*
X52599499Y-63342783D01*
X52599499Y-63342785D01*
X52599499Y-63510886D01*
X52599500Y-63510899D01*
X52599500Y-105113330D01*
X52599499Y-105113348D01*
X52599499Y-105279054D01*
X52599498Y-105279054D01*
X50500500Y-105279054D01*
X50500500Y-54945186D01*
X52679500Y-54945186D01*
X52679500Y-55214813D01*
X52709686Y-55482719D01*
X52709688Y-55482731D01*
X52769684Y-55745594D01*
X52769687Y-55745602D01*
X52858734Y-56000082D01*
X52975714Y-56242994D01*
X52975716Y-56242997D01*
X53119162Y-56471289D01*
X53287266Y-56682085D01*
X53477915Y-56872734D01*
X53688711Y-57040838D01*
X53917003Y-57184284D01*
X54159921Y-57301267D01*
X54325710Y-57359279D01*
X54414397Y-57390312D01*
X54414405Y-57390315D01*
X54414408Y-57390315D01*
X54414409Y-57390316D01*
X54677268Y-57450312D01*
X54945187Y-57480499D01*
X54945188Y-57480500D01*
X54945191Y-57480500D01*
X55214812Y-57480500D01*
X55214812Y-57480499D01*
X55482732Y-57450312D01*
X55745591Y-57390316D01*
X56000079Y-57301267D01*
X56242997Y-57184284D01*
X56471289Y-57040838D01*
X56682085Y-56872734D01*
X56872734Y-56682085D01*
X57040838Y-56471289D01*
X57184284Y-56242997D01*
X57193915Y-56222999D01*
X63503341Y-56222999D01*
X63503341Y-56223000D01*
X63523936Y-56458403D01*
X63523938Y-56458413D01*
X63585094Y-56686655D01*
X63585096Y-56686659D01*
X63585097Y-56686663D01*
X63589000Y-56695032D01*
X63684965Y-56900830D01*
X63684967Y-56900834D01*
X63783000Y-57040838D01*
X63820501Y-57094396D01*
X63820506Y-57094402D01*
X63987597Y-57261493D01*
X63987603Y-57261498D01*
X64173158Y-57391425D01*
X64216783Y-57446002D01*
X64223977Y-57515500D01*
X64192454Y-57577855D01*
X64173158Y-57594575D01*
X63987597Y-57724505D01*
X63820505Y-57891597D01*
X63684965Y-58085169D01*
X63684964Y-58085171D01*
X63585098Y-58299335D01*
X63585094Y-58299344D01*
X63523938Y-58527586D01*
X63523936Y-58527596D01*
X63503341Y-58762999D01*
X63503341Y-58763000D01*
X63523936Y-58998403D01*
X63523938Y-58998413D01*
X63585094Y-59226655D01*
X63585096Y-59226659D01*
X63585097Y-59226663D01*
X63668358Y-59405217D01*
X63684965Y-59440830D01*
X63684967Y-59440834D01*
X63740036Y-59519480D01*
X63820501Y-59634396D01*
X63820506Y-59634402D01*
X63987597Y-59801493D01*
X63987603Y-59801498D01*
X64173158Y-59931425D01*
X64216783Y-59986002D01*
X64223977Y-60055500D01*
X64192454Y-60117855D01*
X64173158Y-60134575D01*
X63987597Y-60264505D01*
X63820505Y-60431597D01*
X63684965Y-60625169D01*
X63684964Y-60625171D01*
X63585098Y-60839335D01*
X63585094Y-60839344D01*
X63523938Y-61067586D01*
X63523936Y-61067596D01*
X63503341Y-61302999D01*
X63503341Y-61303000D01*
X63523936Y-61538403D01*
X63523938Y-61538413D01*
X63585094Y-61766655D01*
X63585096Y-61766659D01*
X63585097Y-61766663D01*
X63665004Y-61938023D01*
X63684965Y-61980830D01*
X63684967Y-61980834D01*
X63770564Y-62103078D01*
X63820501Y-62174396D01*
X63820506Y-62174402D01*
X63987597Y-62341493D01*
X63987603Y-62341498D01*
X64173158Y-62471425D01*
X64216783Y-62526002D01*
X64223977Y-62595500D01*
X64192454Y-62657855D01*
X64173158Y-62674575D01*
X63987597Y-62804505D01*
X63820505Y-62971597D01*
X63684965Y-63165169D01*
X63684964Y-63165171D01*
X63585098Y-63379335D01*
X63585094Y-63379344D01*
X63523938Y-63607586D01*
X63523936Y-63607596D01*
X63503341Y-63842999D01*
X63503341Y-63843000D01*
X63523936Y-64078403D01*
X63523938Y-64078413D01*
X63585094Y-64306655D01*
X63585096Y-64306659D01*
X63585097Y-64306663D01*
X63625866Y-64394092D01*
X63684965Y-64520830D01*
X63684967Y-64520834D01*
X63758691Y-64626122D01*
X63820505Y-64714401D01*
X63987599Y-64881495D01*
X64084384Y-64949265D01*
X64181165Y-65017032D01*
X64181167Y-65017033D01*
X64181170Y-65017035D01*
X64395337Y-65116903D01*
X64623592Y-65178063D01*
X64811918Y-65194539D01*
X64858999Y-65198659D01*
X64859000Y-65198659D01*
X64859001Y-65198659D01*
X64898234Y-65195226D01*
X65094408Y-65178063D01*
X65322663Y-65116903D01*
X65536830Y-65017035D01*
X65730401Y-64881495D01*
X65897495Y-64714401D01*
X66027425Y-64528842D01*
X66082002Y-64485217D01*
X66151500Y-64478023D01*
X66213855Y-64509546D01*
X66230575Y-64528842D01*
X66360500Y-64714395D01*
X66360505Y-64714401D01*
X66527599Y-64881495D01*
X66624384Y-64949265D01*
X66721165Y-65017032D01*
X66721167Y-65017033D01*
X66721170Y-65017035D01*
X66935337Y-65116903D01*
X67163592Y-65178063D01*
X67351918Y-65194539D01*
X67398999Y-65198659D01*
X67399000Y-65198659D01*
X67399001Y-65198659D01*
X67438234Y-65195226D01*
X67634408Y-65178063D01*
X67862663Y-65116903D01*
X68076830Y-65017035D01*
X68270401Y-64881495D01*
X68437495Y-64714401D01*
X68573035Y-64520830D01*
X68672903Y-64306663D01*
X68734063Y-64078408D01*
X68754659Y-63843000D01*
X68753194Y-63826261D01*
X68738332Y-63656384D01*
X68734063Y-63607592D01*
X68672903Y-63379337D01*
X68573035Y-63165171D01*
X68570417Y-63161431D01*
X68437494Y-62971597D01*
X68270402Y-62804506D01*
X68270396Y-62804501D01*
X68084842Y-62674575D01*
X68041217Y-62619998D01*
X68034023Y-62550500D01*
X68065546Y-62488145D01*
X68084842Y-62471425D01*
X68107026Y-62455891D01*
X68270401Y-62341495D01*
X68437495Y-62174401D01*
X68573035Y-61980830D01*
X68672903Y-61766663D01*
X68734063Y-61538408D01*
X68754659Y-61303000D01*
X68751726Y-61269482D01*
X68744810Y-61190424D01*
X68734063Y-61067592D01*
X68672903Y-60839337D01*
X68573035Y-60625171D01*
X68567425Y-60617158D01*
X68437494Y-60431597D01*
X68270402Y-60264506D01*
X68270396Y-60264501D01*
X68084842Y-60134575D01*
X68041217Y-60079998D01*
X68034023Y-60010500D01*
X68065546Y-59948145D01*
X68084842Y-59931425D01*
X68173871Y-59869086D01*
X68270401Y-59801495D01*
X68437495Y-59634401D01*
X68573035Y-59440830D01*
X68672903Y-59226663D01*
X68734063Y-58998408D01*
X68754659Y-58763000D01*
X68734063Y-58527592D01*
X68672903Y-58299337D01*
X68573035Y-58085171D01*
X68567425Y-58077158D01*
X68437494Y-57891597D01*
X68270402Y-57724506D01*
X68270396Y-57724501D01*
X68084842Y-57594575D01*
X68041217Y-57539998D01*
X68034023Y-57470500D01*
X68065546Y-57408145D01*
X68084842Y-57391425D01*
X68130751Y-57359279D01*
X68270401Y-57261495D01*
X68437495Y-57094401D01*
X68573035Y-56900830D01*
X68672903Y-56686663D01*
X68734063Y-56458408D01*
X68754659Y-56223000D01*
X68734063Y-55987592D01*
X68672903Y-55759337D01*
X68573035Y-55545171D01*
X68567425Y-55537158D01*
X68437494Y-55351597D01*
X68270402Y-55184506D01*
X68270396Y-55184501D01*
X68084842Y-55054575D01*
X68041217Y-54999998D01*
X68034023Y-54930500D01*
X68065546Y-54868145D01*
X68084842Y-54851425D01*
X68107026Y-54835891D01*
X68270401Y-54721495D01*
X68437495Y-54554401D01*
X68573035Y-54360830D01*
X68672903Y-54146663D01*
X68734063Y-53918408D01*
X68754659Y-53683000D01*
X68734063Y-53447592D01*
X68672903Y-53219337D01*
X68573035Y-53005171D01*
X68572356Y-53004200D01*
X68437494Y-52811597D01*
X68270402Y-52644506D01*
X68270395Y-52644501D01*
X68076834Y-52508967D01*
X68076830Y-52508965D01*
X68052754Y-52497738D01*
X67862663Y-52409097D01*
X67862659Y-52409096D01*
X67862655Y-52409094D01*
X67634413Y-52347938D01*
X67634403Y-52347936D01*
X67399001Y-52327341D01*
X67398999Y-52327341D01*
X67163596Y-52347936D01*
X67163586Y-52347938D01*
X66935344Y-52409094D01*
X66935335Y-52409098D01*
X66721171Y-52508964D01*
X66721169Y-52508965D01*
X66527600Y-52644503D01*
X66405673Y-52766430D01*
X66344350Y-52799914D01*
X66274658Y-52794930D01*
X66218725Y-52753058D01*
X66201810Y-52722081D01*
X66152797Y-52590671D01*
X66152793Y-52590664D01*
X66066547Y-52475455D01*
X66066544Y-52475452D01*
X65951335Y-52389206D01*
X65951328Y-52389202D01*
X65816482Y-52338908D01*
X65816483Y-52338908D01*
X65756883Y-52332501D01*
X65756881Y-52332500D01*
X65756873Y-52332500D01*
X65756864Y-52332500D01*
X63961129Y-52332500D01*
X63961123Y-52332501D01*
X63901516Y-52338908D01*
X63766671Y-52389202D01*
X63766664Y-52389206D01*
X63651455Y-52475452D01*
X63651452Y-52475455D01*
X63565206Y-52590664D01*
X63565202Y-52590671D01*
X63514908Y-52725517D01*
X63508501Y-52785116D01*
X63508500Y-52785135D01*
X63508500Y-54580870D01*
X63508501Y-54580876D01*
X63514908Y-54640483D01*
X63565202Y-54775328D01*
X63565206Y-54775335D01*
X63651452Y-54890544D01*
X63651455Y-54890547D01*
X63766664Y-54976793D01*
X63766671Y-54976797D01*
X63898081Y-55025810D01*
X63954015Y-55067681D01*
X63978432Y-55133145D01*
X63963580Y-55201418D01*
X63942430Y-55229673D01*
X63820503Y-55351600D01*
X63684965Y-55545169D01*
X63684964Y-55545171D01*
X63585098Y-55759335D01*
X63585094Y-55759344D01*
X63523938Y-55987586D01*
X63523936Y-55987596D01*
X63503341Y-56222999D01*
X57193915Y-56222999D01*
X57301267Y-56000079D01*
X57390316Y-55745591D01*
X57450312Y-55482732D01*
X57480500Y-55214809D01*
X57480500Y-54945191D01*
X57450312Y-54677268D01*
X57390316Y-54414409D01*
X57301267Y-54159921D01*
X57184284Y-53917003D01*
X57040838Y-53688711D01*
X56872734Y-53477915D01*
X56682085Y-53287266D01*
X56471289Y-53119162D01*
X56281638Y-52999996D01*
X56242994Y-52975714D01*
X56000082Y-52858734D01*
X55745602Y-52769687D01*
X55745594Y-52769684D01*
X55537029Y-52722081D01*
X55482732Y-52709688D01*
X55482728Y-52709687D01*
X55482719Y-52709686D01*
X55214813Y-52679500D01*
X55214809Y-52679500D01*
X54945191Y-52679500D01*
X54945186Y-52679500D01*
X54677280Y-52709686D01*
X54677268Y-52709688D01*
X54414405Y-52769684D01*
X54414397Y-52769687D01*
X54159917Y-52858734D01*
X53917005Y-52975714D01*
X53688712Y-53119161D01*
X53477915Y-53287265D01*
X53287265Y-53477915D01*
X53119161Y-53688712D01*
X52975714Y-53917005D01*
X52858734Y-54159917D01*
X52769687Y-54414397D01*
X52769684Y-54414405D01*
X52709688Y-54677268D01*
X52709686Y-54677280D01*
X52679500Y-54945186D01*
X50500500Y-54945186D01*
X50500500Y-50624500D01*
X50520185Y-50557461D01*
X50572989Y-50511706D01*
X50624500Y-50500500D01*
X87425900Y-50500500D01*
X87492939Y-50520185D01*
G37*
%TD.AperFunction*%
%TD*%
M02*
