%TF.GenerationSoftware,KiCad,Pcbnew,8.0.7*%
%TF.CreationDate,2025-01-18T12:10:45-08:00*%
%TF.ProjectId,plex-loader,706c6578-2d6c-46f6-9164-65722e6b6963,rev?*%
%TF.SameCoordinates,Original*%
%TF.FileFunction,Legend,Top*%
%TF.FilePolarity,Positive*%
%FSLAX46Y46*%
G04 Gerber Fmt 4.6, Leading zero omitted, Abs format (unit mm)*
G04 Created by KiCad (PCBNEW 8.0.7) date 2025-01-18 12:10:45*
%MOMM*%
%LPD*%
G01*
G04 APERTURE LIST*
%ADD10C,0.100000*%
%ADD11C,0.187500*%
%ADD12C,0.150000*%
%ADD13C,0.000000*%
%ADD14C,0.152400*%
%ADD15C,0.120000*%
G04 APERTURE END LIST*
D10*
X78506700Y-112256265D02*
X78459080Y-112399122D01*
X78459080Y-112399122D02*
X78459080Y-112637217D01*
X78459080Y-112637217D02*
X78506700Y-112732455D01*
X78506700Y-112732455D02*
X78554319Y-112780074D01*
X78554319Y-112780074D02*
X78649557Y-112827693D01*
X78649557Y-112827693D02*
X78744795Y-112827693D01*
X78744795Y-112827693D02*
X78840033Y-112780074D01*
X78840033Y-112780074D02*
X78887652Y-112732455D01*
X78887652Y-112732455D02*
X78935271Y-112637217D01*
X78935271Y-112637217D02*
X78982890Y-112446741D01*
X78982890Y-112446741D02*
X79030509Y-112351503D01*
X79030509Y-112351503D02*
X79078128Y-112303884D01*
X79078128Y-112303884D02*
X79173366Y-112256265D01*
X79173366Y-112256265D02*
X79268604Y-112256265D01*
X79268604Y-112256265D02*
X79363842Y-112303884D01*
X79363842Y-112303884D02*
X79411461Y-112351503D01*
X79411461Y-112351503D02*
X79459080Y-112446741D01*
X79459080Y-112446741D02*
X79459080Y-112684836D01*
X79459080Y-112684836D02*
X79411461Y-112827693D01*
X79125747Y-113113408D02*
X79125747Y-113494360D01*
X79459080Y-113256265D02*
X78601938Y-113256265D01*
X78601938Y-113256265D02*
X78506700Y-113303884D01*
X78506700Y-113303884D02*
X78459080Y-113399122D01*
X78459080Y-113399122D02*
X78459080Y-113494360D01*
X78459080Y-114256265D02*
X78982890Y-114256265D01*
X78982890Y-114256265D02*
X79078128Y-114208646D01*
X79078128Y-114208646D02*
X79125747Y-114113408D01*
X79125747Y-114113408D02*
X79125747Y-113922932D01*
X79125747Y-113922932D02*
X79078128Y-113827694D01*
X78506700Y-114256265D02*
X78459080Y-114161027D01*
X78459080Y-114161027D02*
X78459080Y-113922932D01*
X78459080Y-113922932D02*
X78506700Y-113827694D01*
X78506700Y-113827694D02*
X78601938Y-113780075D01*
X78601938Y-113780075D02*
X78697176Y-113780075D01*
X78697176Y-113780075D02*
X78792414Y-113827694D01*
X78792414Y-113827694D02*
X78840033Y-113922932D01*
X78840033Y-113922932D02*
X78840033Y-114161027D01*
X78840033Y-114161027D02*
X78887652Y-114256265D01*
X79125747Y-114589599D02*
X79125747Y-114970551D01*
X79459080Y-114732456D02*
X78601938Y-114732456D01*
X78601938Y-114732456D02*
X78506700Y-114780075D01*
X78506700Y-114780075D02*
X78459080Y-114875313D01*
X78459080Y-114875313D02*
X78459080Y-114970551D01*
X78459080Y-116589599D02*
X78459080Y-116018171D01*
X78459080Y-116303885D02*
X79459080Y-116303885D01*
X79459080Y-116303885D02*
X79316223Y-116208647D01*
X79316223Y-116208647D02*
X79220985Y-116113409D01*
X79220985Y-116113409D02*
X79173366Y-116018171D01*
X61127580Y-91382456D02*
X61127580Y-91953884D01*
X60127580Y-91668170D02*
X61127580Y-91668170D01*
X60175200Y-92668170D02*
X60127580Y-92572932D01*
X60127580Y-92572932D02*
X60127580Y-92382456D01*
X60127580Y-92382456D02*
X60175200Y-92287218D01*
X60175200Y-92287218D02*
X60270438Y-92239599D01*
X60270438Y-92239599D02*
X60651390Y-92239599D01*
X60651390Y-92239599D02*
X60746628Y-92287218D01*
X60746628Y-92287218D02*
X60794247Y-92382456D01*
X60794247Y-92382456D02*
X60794247Y-92572932D01*
X60794247Y-92572932D02*
X60746628Y-92668170D01*
X60746628Y-92668170D02*
X60651390Y-92715789D01*
X60651390Y-92715789D02*
X60556152Y-92715789D01*
X60556152Y-92715789D02*
X60460914Y-92239599D01*
X60127580Y-93144361D02*
X60794247Y-93144361D01*
X60699009Y-93144361D02*
X60746628Y-93191980D01*
X60746628Y-93191980D02*
X60794247Y-93287218D01*
X60794247Y-93287218D02*
X60794247Y-93430075D01*
X60794247Y-93430075D02*
X60746628Y-93525313D01*
X60746628Y-93525313D02*
X60651390Y-93572932D01*
X60651390Y-93572932D02*
X60127580Y-93572932D01*
X60651390Y-93572932D02*
X60746628Y-93620551D01*
X60746628Y-93620551D02*
X60794247Y-93715789D01*
X60794247Y-93715789D02*
X60794247Y-93858646D01*
X60794247Y-93858646D02*
X60746628Y-93953885D01*
X60746628Y-93953885D02*
X60651390Y-94001504D01*
X60651390Y-94001504D02*
X60127580Y-94001504D01*
X60794247Y-94477694D02*
X59794247Y-94477694D01*
X60746628Y-94477694D02*
X60794247Y-94572932D01*
X60794247Y-94572932D02*
X60794247Y-94763408D01*
X60794247Y-94763408D02*
X60746628Y-94858646D01*
X60746628Y-94858646D02*
X60699009Y-94906265D01*
X60699009Y-94906265D02*
X60603771Y-94953884D01*
X60603771Y-94953884D02*
X60318057Y-94953884D01*
X60318057Y-94953884D02*
X60222819Y-94906265D01*
X60222819Y-94906265D02*
X60175200Y-94858646D01*
X60175200Y-94858646D02*
X60127580Y-94763408D01*
X60127580Y-94763408D02*
X60127580Y-94572932D01*
X60127580Y-94572932D02*
X60175200Y-94477694D01*
X80959080Y-112803884D02*
X81959080Y-112803884D01*
X81959080Y-112803884D02*
X81959080Y-113184836D01*
X81959080Y-113184836D02*
X81911461Y-113280074D01*
X81911461Y-113280074D02*
X81863842Y-113327693D01*
X81863842Y-113327693D02*
X81768604Y-113375312D01*
X81768604Y-113375312D02*
X81625747Y-113375312D01*
X81625747Y-113375312D02*
X81530509Y-113327693D01*
X81530509Y-113327693D02*
X81482890Y-113280074D01*
X81482890Y-113280074D02*
X81435271Y-113184836D01*
X81435271Y-113184836D02*
X81435271Y-112803884D01*
X81959080Y-113708646D02*
X80959080Y-113946741D01*
X80959080Y-113946741D02*
X81673366Y-114137217D01*
X81673366Y-114137217D02*
X80959080Y-114327693D01*
X80959080Y-114327693D02*
X81959080Y-114565789D01*
X80959080Y-115518169D02*
X81435271Y-115184836D01*
X80959080Y-114946741D02*
X81959080Y-114946741D01*
X81959080Y-114946741D02*
X81959080Y-115327693D01*
X81959080Y-115327693D02*
X81911461Y-115422931D01*
X81911461Y-115422931D02*
X81863842Y-115470550D01*
X81863842Y-115470550D02*
X81768604Y-115518169D01*
X81768604Y-115518169D02*
X81625747Y-115518169D01*
X81625747Y-115518169D02*
X81530509Y-115470550D01*
X81530509Y-115470550D02*
X81482890Y-115422931D01*
X81482890Y-115422931D02*
X81435271Y-115327693D01*
X81435271Y-115327693D02*
X81435271Y-114946741D01*
X60127580Y-72225312D02*
X61127580Y-72225312D01*
X60651390Y-72225312D02*
X60651390Y-72796740D01*
X60127580Y-72796740D02*
X61127580Y-72796740D01*
X60175200Y-73653883D02*
X60127580Y-73558645D01*
X60127580Y-73558645D02*
X60127580Y-73368169D01*
X60127580Y-73368169D02*
X60175200Y-73272931D01*
X60175200Y-73272931D02*
X60270438Y-73225312D01*
X60270438Y-73225312D02*
X60651390Y-73225312D01*
X60651390Y-73225312D02*
X60746628Y-73272931D01*
X60746628Y-73272931D02*
X60794247Y-73368169D01*
X60794247Y-73368169D02*
X60794247Y-73558645D01*
X60794247Y-73558645D02*
X60746628Y-73653883D01*
X60746628Y-73653883D02*
X60651390Y-73701502D01*
X60651390Y-73701502D02*
X60556152Y-73701502D01*
X60556152Y-73701502D02*
X60460914Y-73225312D01*
X60127580Y-74558645D02*
X60651390Y-74558645D01*
X60651390Y-74558645D02*
X60746628Y-74511026D01*
X60746628Y-74511026D02*
X60794247Y-74415788D01*
X60794247Y-74415788D02*
X60794247Y-74225312D01*
X60794247Y-74225312D02*
X60746628Y-74130074D01*
X60175200Y-74558645D02*
X60127580Y-74463407D01*
X60127580Y-74463407D02*
X60127580Y-74225312D01*
X60127580Y-74225312D02*
X60175200Y-74130074D01*
X60175200Y-74130074D02*
X60270438Y-74082455D01*
X60270438Y-74082455D02*
X60365676Y-74082455D01*
X60365676Y-74082455D02*
X60460914Y-74130074D01*
X60460914Y-74130074D02*
X60508533Y-74225312D01*
X60508533Y-74225312D02*
X60508533Y-74463407D01*
X60508533Y-74463407D02*
X60556152Y-74558645D01*
X60794247Y-74891979D02*
X60794247Y-75272931D01*
X61127580Y-75034836D02*
X60270438Y-75034836D01*
X60270438Y-75034836D02*
X60175200Y-75082455D01*
X60175200Y-75082455D02*
X60127580Y-75177693D01*
X60127580Y-75177693D02*
X60127580Y-75272931D01*
X60175200Y-75987217D02*
X60127580Y-75891979D01*
X60127580Y-75891979D02*
X60127580Y-75701503D01*
X60127580Y-75701503D02*
X60175200Y-75606265D01*
X60175200Y-75606265D02*
X60270438Y-75558646D01*
X60270438Y-75558646D02*
X60651390Y-75558646D01*
X60651390Y-75558646D02*
X60746628Y-75606265D01*
X60746628Y-75606265D02*
X60794247Y-75701503D01*
X60794247Y-75701503D02*
X60794247Y-75891979D01*
X60794247Y-75891979D02*
X60746628Y-75987217D01*
X60746628Y-75987217D02*
X60651390Y-76034836D01*
X60651390Y-76034836D02*
X60556152Y-76034836D01*
X60556152Y-76034836D02*
X60460914Y-75558646D01*
X60127580Y-76463408D02*
X60794247Y-76463408D01*
X60603771Y-76463408D02*
X60699009Y-76511027D01*
X60699009Y-76511027D02*
X60746628Y-76558646D01*
X60746628Y-76558646D02*
X60794247Y-76653884D01*
X60794247Y-76653884D02*
X60794247Y-76749122D01*
D11*
X84979035Y-52480497D02*
X84979035Y-52980497D01*
X84193321Y-53194783D02*
X84193321Y-52480497D01*
X84193321Y-52480497D02*
X85693321Y-52480497D01*
X85693321Y-52480497D02*
X85693321Y-53194783D01*
X85193321Y-53623355D02*
X85193321Y-54194783D01*
X85693321Y-53837640D02*
X84407607Y-53837640D01*
X84407607Y-53837640D02*
X84264750Y-53909069D01*
X84264750Y-53909069D02*
X84193321Y-54051926D01*
X84193321Y-54051926D02*
X84193321Y-54194783D01*
X84193321Y-55337641D02*
X84979035Y-55337641D01*
X84979035Y-55337641D02*
X85121892Y-55266212D01*
X85121892Y-55266212D02*
X85193321Y-55123355D01*
X85193321Y-55123355D02*
X85193321Y-54837641D01*
X85193321Y-54837641D02*
X85121892Y-54694783D01*
X84264750Y-55337641D02*
X84193321Y-55194783D01*
X84193321Y-55194783D02*
X84193321Y-54837641D01*
X84193321Y-54837641D02*
X84264750Y-54694783D01*
X84264750Y-54694783D02*
X84407607Y-54623355D01*
X84407607Y-54623355D02*
X84550464Y-54623355D01*
X84550464Y-54623355D02*
X84693321Y-54694783D01*
X84693321Y-54694783D02*
X84764750Y-54837641D01*
X84764750Y-54837641D02*
X84764750Y-55194783D01*
X84764750Y-55194783D02*
X84836178Y-55337641D01*
X84264750Y-57123355D02*
X84193321Y-57337641D01*
X84193321Y-57337641D02*
X84193321Y-57694783D01*
X84193321Y-57694783D02*
X84264750Y-57837641D01*
X84264750Y-57837641D02*
X84336178Y-57909069D01*
X84336178Y-57909069D02*
X84479035Y-57980498D01*
X84479035Y-57980498D02*
X84621892Y-57980498D01*
X84621892Y-57980498D02*
X84764750Y-57909069D01*
X84764750Y-57909069D02*
X84836178Y-57837641D01*
X84836178Y-57837641D02*
X84907607Y-57694783D01*
X84907607Y-57694783D02*
X84979035Y-57409069D01*
X84979035Y-57409069D02*
X85050464Y-57266212D01*
X85050464Y-57266212D02*
X85121892Y-57194783D01*
X85121892Y-57194783D02*
X85264750Y-57123355D01*
X85264750Y-57123355D02*
X85407607Y-57123355D01*
X85407607Y-57123355D02*
X85550464Y-57194783D01*
X85550464Y-57194783D02*
X85621892Y-57266212D01*
X85621892Y-57266212D02*
X85693321Y-57409069D01*
X85693321Y-57409069D02*
X85693321Y-57766212D01*
X85693321Y-57766212D02*
X85621892Y-57980498D01*
X85193321Y-58623354D02*
X83693321Y-58623354D01*
X85121892Y-58623354D02*
X85193321Y-58766212D01*
X85193321Y-58766212D02*
X85193321Y-59051926D01*
X85193321Y-59051926D02*
X85121892Y-59194783D01*
X85121892Y-59194783D02*
X85050464Y-59266212D01*
X85050464Y-59266212D02*
X84907607Y-59337640D01*
X84907607Y-59337640D02*
X84479035Y-59337640D01*
X84479035Y-59337640D02*
X84336178Y-59266212D01*
X84336178Y-59266212D02*
X84264750Y-59194783D01*
X84264750Y-59194783D02*
X84193321Y-59051926D01*
X84193321Y-59051926D02*
X84193321Y-58766212D01*
X84193321Y-58766212D02*
X84264750Y-58623354D01*
X84193321Y-60623355D02*
X84979035Y-60623355D01*
X84979035Y-60623355D02*
X85121892Y-60551926D01*
X85121892Y-60551926D02*
X85193321Y-60409069D01*
X85193321Y-60409069D02*
X85193321Y-60123355D01*
X85193321Y-60123355D02*
X85121892Y-59980497D01*
X84264750Y-60623355D02*
X84193321Y-60480497D01*
X84193321Y-60480497D02*
X84193321Y-60123355D01*
X84193321Y-60123355D02*
X84264750Y-59980497D01*
X84264750Y-59980497D02*
X84407607Y-59909069D01*
X84407607Y-59909069D02*
X84550464Y-59909069D01*
X84550464Y-59909069D02*
X84693321Y-59980497D01*
X84693321Y-59980497D02*
X84764750Y-60123355D01*
X84764750Y-60123355D02*
X84764750Y-60480497D01*
X84764750Y-60480497D02*
X84836178Y-60623355D01*
X84264750Y-61980498D02*
X84193321Y-61837640D01*
X84193321Y-61837640D02*
X84193321Y-61551926D01*
X84193321Y-61551926D02*
X84264750Y-61409069D01*
X84264750Y-61409069D02*
X84336178Y-61337640D01*
X84336178Y-61337640D02*
X84479035Y-61266212D01*
X84479035Y-61266212D02*
X84907607Y-61266212D01*
X84907607Y-61266212D02*
X85050464Y-61337640D01*
X85050464Y-61337640D02*
X85121892Y-61409069D01*
X85121892Y-61409069D02*
X85193321Y-61551926D01*
X85193321Y-61551926D02*
X85193321Y-61837640D01*
X85193321Y-61837640D02*
X85121892Y-61980498D01*
X84264750Y-63194783D02*
X84193321Y-63051926D01*
X84193321Y-63051926D02*
X84193321Y-62766212D01*
X84193321Y-62766212D02*
X84264750Y-62623354D01*
X84264750Y-62623354D02*
X84407607Y-62551926D01*
X84407607Y-62551926D02*
X84979035Y-62551926D01*
X84979035Y-62551926D02*
X85121892Y-62623354D01*
X85121892Y-62623354D02*
X85193321Y-62766212D01*
X85193321Y-62766212D02*
X85193321Y-63051926D01*
X85193321Y-63051926D02*
X85121892Y-63194783D01*
X85121892Y-63194783D02*
X84979035Y-63266212D01*
X84979035Y-63266212D02*
X84836178Y-63266212D01*
X84836178Y-63266212D02*
X84693321Y-62551926D01*
X85550464Y-64980497D02*
X85621892Y-65051925D01*
X85621892Y-65051925D02*
X85693321Y-65194783D01*
X85693321Y-65194783D02*
X85693321Y-65551925D01*
X85693321Y-65551925D02*
X85621892Y-65694783D01*
X85621892Y-65694783D02*
X85550464Y-65766211D01*
X85550464Y-65766211D02*
X85407607Y-65837640D01*
X85407607Y-65837640D02*
X85264750Y-65837640D01*
X85264750Y-65837640D02*
X85050464Y-65766211D01*
X85050464Y-65766211D02*
X84193321Y-64909068D01*
X84193321Y-64909068D02*
X84193321Y-65837640D01*
X85693321Y-66766211D02*
X85693321Y-66909068D01*
X85693321Y-66909068D02*
X85621892Y-67051925D01*
X85621892Y-67051925D02*
X85550464Y-67123354D01*
X85550464Y-67123354D02*
X85407607Y-67194782D01*
X85407607Y-67194782D02*
X85121892Y-67266211D01*
X85121892Y-67266211D02*
X84764750Y-67266211D01*
X84764750Y-67266211D02*
X84479035Y-67194782D01*
X84479035Y-67194782D02*
X84336178Y-67123354D01*
X84336178Y-67123354D02*
X84264750Y-67051925D01*
X84264750Y-67051925D02*
X84193321Y-66909068D01*
X84193321Y-66909068D02*
X84193321Y-66766211D01*
X84193321Y-66766211D02*
X84264750Y-66623354D01*
X84264750Y-66623354D02*
X84336178Y-66551925D01*
X84336178Y-66551925D02*
X84479035Y-66480496D01*
X84479035Y-66480496D02*
X84764750Y-66409068D01*
X84764750Y-66409068D02*
X85121892Y-66409068D01*
X85121892Y-66409068D02*
X85407607Y-66480496D01*
X85407607Y-66480496D02*
X85550464Y-66551925D01*
X85550464Y-66551925D02*
X85621892Y-66623354D01*
X85621892Y-66623354D02*
X85693321Y-66766211D01*
X85550464Y-67837639D02*
X85621892Y-67909067D01*
X85621892Y-67909067D02*
X85693321Y-68051925D01*
X85693321Y-68051925D02*
X85693321Y-68409067D01*
X85693321Y-68409067D02*
X85621892Y-68551925D01*
X85621892Y-68551925D02*
X85550464Y-68623353D01*
X85550464Y-68623353D02*
X85407607Y-68694782D01*
X85407607Y-68694782D02*
X85264750Y-68694782D01*
X85264750Y-68694782D02*
X85050464Y-68623353D01*
X85050464Y-68623353D02*
X84193321Y-67766210D01*
X84193321Y-67766210D02*
X84193321Y-68694782D01*
X85693321Y-70051924D02*
X85693321Y-69337638D01*
X85693321Y-69337638D02*
X84979035Y-69266210D01*
X84979035Y-69266210D02*
X85050464Y-69337638D01*
X85050464Y-69337638D02*
X85121892Y-69480496D01*
X85121892Y-69480496D02*
X85121892Y-69837638D01*
X85121892Y-69837638D02*
X85050464Y-69980496D01*
X85050464Y-69980496D02*
X84979035Y-70051924D01*
X84979035Y-70051924D02*
X84836178Y-70123353D01*
X84836178Y-70123353D02*
X84479035Y-70123353D01*
X84479035Y-70123353D02*
X84336178Y-70051924D01*
X84336178Y-70051924D02*
X84264750Y-69980496D01*
X84264750Y-69980496D02*
X84193321Y-69837638D01*
X84193321Y-69837638D02*
X84193321Y-69480496D01*
X84193321Y-69480496D02*
X84264750Y-69337638D01*
X84264750Y-69337638D02*
X84336178Y-69266210D01*
X83693321Y-72266209D02*
X85836178Y-72266209D01*
X84979035Y-74980494D02*
X84979035Y-74480494D01*
X84193321Y-74480494D02*
X85693321Y-74480494D01*
X85693321Y-74480494D02*
X85693321Y-75194780D01*
X84193321Y-75980494D02*
X84264750Y-75837637D01*
X84264750Y-75837637D02*
X84407607Y-75766208D01*
X84407607Y-75766208D02*
X85693321Y-75766208D01*
X84193321Y-77194780D02*
X84979035Y-77194780D01*
X84979035Y-77194780D02*
X85121892Y-77123351D01*
X85121892Y-77123351D02*
X85193321Y-76980494D01*
X85193321Y-76980494D02*
X85193321Y-76694780D01*
X85193321Y-76694780D02*
X85121892Y-76551922D01*
X84264750Y-77194780D02*
X84193321Y-77051922D01*
X84193321Y-77051922D02*
X84193321Y-76694780D01*
X84193321Y-76694780D02*
X84264750Y-76551922D01*
X84264750Y-76551922D02*
X84407607Y-76480494D01*
X84407607Y-76480494D02*
X84550464Y-76480494D01*
X84550464Y-76480494D02*
X84693321Y-76551922D01*
X84693321Y-76551922D02*
X84764750Y-76694780D01*
X84764750Y-76694780D02*
X84764750Y-77051922D01*
X84764750Y-77051922D02*
X84836178Y-77194780D01*
X84264750Y-77837637D02*
X84193321Y-77980494D01*
X84193321Y-77980494D02*
X84193321Y-78266208D01*
X84193321Y-78266208D02*
X84264750Y-78409065D01*
X84264750Y-78409065D02*
X84407607Y-78480494D01*
X84407607Y-78480494D02*
X84479035Y-78480494D01*
X84479035Y-78480494D02*
X84621892Y-78409065D01*
X84621892Y-78409065D02*
X84693321Y-78266208D01*
X84693321Y-78266208D02*
X84693321Y-78051923D01*
X84693321Y-78051923D02*
X84764750Y-77909065D01*
X84764750Y-77909065D02*
X84907607Y-77837637D01*
X84907607Y-77837637D02*
X84979035Y-77837637D01*
X84979035Y-77837637D02*
X85121892Y-77909065D01*
X85121892Y-77909065D02*
X85193321Y-78051923D01*
X85193321Y-78051923D02*
X85193321Y-78266208D01*
X85193321Y-78266208D02*
X85121892Y-78409065D01*
X84193321Y-79123351D02*
X85693321Y-79123351D01*
X84193321Y-79766209D02*
X84979035Y-79766209D01*
X84979035Y-79766209D02*
X85121892Y-79694780D01*
X85121892Y-79694780D02*
X85193321Y-79551923D01*
X85193321Y-79551923D02*
X85193321Y-79337637D01*
X85193321Y-79337637D02*
X85121892Y-79194780D01*
X85121892Y-79194780D02*
X85050464Y-79123351D01*
X85693321Y-81623351D02*
X84479035Y-81623351D01*
X84479035Y-81623351D02*
X84336178Y-81694780D01*
X84336178Y-81694780D02*
X84264750Y-81766209D01*
X84264750Y-81766209D02*
X84193321Y-81909066D01*
X84193321Y-81909066D02*
X84193321Y-82194780D01*
X84193321Y-82194780D02*
X84264750Y-82337637D01*
X84264750Y-82337637D02*
X84336178Y-82409066D01*
X84336178Y-82409066D02*
X84479035Y-82480494D01*
X84479035Y-82480494D02*
X85693321Y-82480494D01*
X85193321Y-83194780D02*
X83693321Y-83194780D01*
X85121892Y-83194780D02*
X85193321Y-83337638D01*
X85193321Y-83337638D02*
X85193321Y-83623352D01*
X85193321Y-83623352D02*
X85121892Y-83766209D01*
X85121892Y-83766209D02*
X85050464Y-83837638D01*
X85050464Y-83837638D02*
X84907607Y-83909066D01*
X84907607Y-83909066D02*
X84479035Y-83909066D01*
X84479035Y-83909066D02*
X84336178Y-83837638D01*
X84336178Y-83837638D02*
X84264750Y-83766209D01*
X84264750Y-83766209D02*
X84193321Y-83623352D01*
X84193321Y-83623352D02*
X84193321Y-83337638D01*
X84193321Y-83337638D02*
X84264750Y-83194780D01*
X84193321Y-84766209D02*
X84264750Y-84623352D01*
X84264750Y-84623352D02*
X84407607Y-84551923D01*
X84407607Y-84551923D02*
X85693321Y-84551923D01*
X84193321Y-85551923D02*
X84264750Y-85409066D01*
X84264750Y-85409066D02*
X84336178Y-85337637D01*
X84336178Y-85337637D02*
X84479035Y-85266209D01*
X84479035Y-85266209D02*
X84907607Y-85266209D01*
X84907607Y-85266209D02*
X85050464Y-85337637D01*
X85050464Y-85337637D02*
X85121892Y-85409066D01*
X85121892Y-85409066D02*
X85193321Y-85551923D01*
X85193321Y-85551923D02*
X85193321Y-85766209D01*
X85193321Y-85766209D02*
X85121892Y-85909066D01*
X85121892Y-85909066D02*
X85050464Y-85980495D01*
X85050464Y-85980495D02*
X84907607Y-86051923D01*
X84907607Y-86051923D02*
X84479035Y-86051923D01*
X84479035Y-86051923D02*
X84336178Y-85980495D01*
X84336178Y-85980495D02*
X84264750Y-85909066D01*
X84264750Y-85909066D02*
X84193321Y-85766209D01*
X84193321Y-85766209D02*
X84193321Y-85551923D01*
X84193321Y-87337638D02*
X84979035Y-87337638D01*
X84979035Y-87337638D02*
X85121892Y-87266209D01*
X85121892Y-87266209D02*
X85193321Y-87123352D01*
X85193321Y-87123352D02*
X85193321Y-86837638D01*
X85193321Y-86837638D02*
X85121892Y-86694780D01*
X84264750Y-87337638D02*
X84193321Y-87194780D01*
X84193321Y-87194780D02*
X84193321Y-86837638D01*
X84193321Y-86837638D02*
X84264750Y-86694780D01*
X84264750Y-86694780D02*
X84407607Y-86623352D01*
X84407607Y-86623352D02*
X84550464Y-86623352D01*
X84550464Y-86623352D02*
X84693321Y-86694780D01*
X84693321Y-86694780D02*
X84764750Y-86837638D01*
X84764750Y-86837638D02*
X84764750Y-87194780D01*
X84764750Y-87194780D02*
X84836178Y-87337638D01*
X84193321Y-88694781D02*
X85693321Y-88694781D01*
X84264750Y-88694781D02*
X84193321Y-88551923D01*
X84193321Y-88551923D02*
X84193321Y-88266209D01*
X84193321Y-88266209D02*
X84264750Y-88123352D01*
X84264750Y-88123352D02*
X84336178Y-88051923D01*
X84336178Y-88051923D02*
X84479035Y-87980495D01*
X84479035Y-87980495D02*
X84907607Y-87980495D01*
X84907607Y-87980495D02*
X85050464Y-88051923D01*
X85050464Y-88051923D02*
X85121892Y-88123352D01*
X85121892Y-88123352D02*
X85193321Y-88266209D01*
X85193321Y-88266209D02*
X85193321Y-88551923D01*
X85193321Y-88551923D02*
X85121892Y-88694781D01*
X84979035Y-90551923D02*
X84979035Y-91051923D01*
X84193321Y-91266209D02*
X84193321Y-90551923D01*
X84193321Y-90551923D02*
X85693321Y-90551923D01*
X85693321Y-90551923D02*
X85693321Y-91266209D01*
X84193321Y-91766209D02*
X85193321Y-92551924D01*
X85193321Y-91766209D02*
X84193321Y-92551924D01*
X85193321Y-93123352D02*
X83693321Y-93123352D01*
X85121892Y-93123352D02*
X85193321Y-93266210D01*
X85193321Y-93266210D02*
X85193321Y-93551924D01*
X85193321Y-93551924D02*
X85121892Y-93694781D01*
X85121892Y-93694781D02*
X85050464Y-93766210D01*
X85050464Y-93766210D02*
X84907607Y-93837638D01*
X84907607Y-93837638D02*
X84479035Y-93837638D01*
X84479035Y-93837638D02*
X84336178Y-93766210D01*
X84336178Y-93766210D02*
X84264750Y-93694781D01*
X84264750Y-93694781D02*
X84193321Y-93551924D01*
X84193321Y-93551924D02*
X84193321Y-93266210D01*
X84193321Y-93266210D02*
X84264750Y-93123352D01*
X84193321Y-95123353D02*
X84979035Y-95123353D01*
X84979035Y-95123353D02*
X85121892Y-95051924D01*
X85121892Y-95051924D02*
X85193321Y-94909067D01*
X85193321Y-94909067D02*
X85193321Y-94623353D01*
X85193321Y-94623353D02*
X85121892Y-94480495D01*
X84264750Y-95123353D02*
X84193321Y-94980495D01*
X84193321Y-94980495D02*
X84193321Y-94623353D01*
X84193321Y-94623353D02*
X84264750Y-94480495D01*
X84264750Y-94480495D02*
X84407607Y-94409067D01*
X84407607Y-94409067D02*
X84550464Y-94409067D01*
X84550464Y-94409067D02*
X84693321Y-94480495D01*
X84693321Y-94480495D02*
X84764750Y-94623353D01*
X84764750Y-94623353D02*
X84764750Y-94980495D01*
X84764750Y-94980495D02*
X84836178Y-95123353D01*
X85193321Y-95837638D02*
X84193321Y-95837638D01*
X85050464Y-95837638D02*
X85121892Y-95909067D01*
X85121892Y-95909067D02*
X85193321Y-96051924D01*
X85193321Y-96051924D02*
X85193321Y-96266210D01*
X85193321Y-96266210D02*
X85121892Y-96409067D01*
X85121892Y-96409067D02*
X84979035Y-96480496D01*
X84979035Y-96480496D02*
X84193321Y-96480496D01*
X84264750Y-97123353D02*
X84193321Y-97266210D01*
X84193321Y-97266210D02*
X84193321Y-97551924D01*
X84193321Y-97551924D02*
X84264750Y-97694781D01*
X84264750Y-97694781D02*
X84407607Y-97766210D01*
X84407607Y-97766210D02*
X84479035Y-97766210D01*
X84479035Y-97766210D02*
X84621892Y-97694781D01*
X84621892Y-97694781D02*
X84693321Y-97551924D01*
X84693321Y-97551924D02*
X84693321Y-97337639D01*
X84693321Y-97337639D02*
X84764750Y-97194781D01*
X84764750Y-97194781D02*
X84907607Y-97123353D01*
X84907607Y-97123353D02*
X84979035Y-97123353D01*
X84979035Y-97123353D02*
X85121892Y-97194781D01*
X85121892Y-97194781D02*
X85193321Y-97337639D01*
X85193321Y-97337639D02*
X85193321Y-97551924D01*
X85193321Y-97551924D02*
X85121892Y-97694781D01*
X84193321Y-98409067D02*
X85193321Y-98409067D01*
X85693321Y-98409067D02*
X85621892Y-98337639D01*
X85621892Y-98337639D02*
X85550464Y-98409067D01*
X85550464Y-98409067D02*
X85621892Y-98480496D01*
X85621892Y-98480496D02*
X85693321Y-98409067D01*
X85693321Y-98409067D02*
X85550464Y-98409067D01*
X84193321Y-99337639D02*
X84264750Y-99194782D01*
X84264750Y-99194782D02*
X84336178Y-99123353D01*
X84336178Y-99123353D02*
X84479035Y-99051925D01*
X84479035Y-99051925D02*
X84907607Y-99051925D01*
X84907607Y-99051925D02*
X85050464Y-99123353D01*
X85050464Y-99123353D02*
X85121892Y-99194782D01*
X85121892Y-99194782D02*
X85193321Y-99337639D01*
X85193321Y-99337639D02*
X85193321Y-99551925D01*
X85193321Y-99551925D02*
X85121892Y-99694782D01*
X85121892Y-99694782D02*
X85050464Y-99766211D01*
X85050464Y-99766211D02*
X84907607Y-99837639D01*
X84907607Y-99837639D02*
X84479035Y-99837639D01*
X84479035Y-99837639D02*
X84336178Y-99766211D01*
X84336178Y-99766211D02*
X84264750Y-99694782D01*
X84264750Y-99694782D02*
X84193321Y-99551925D01*
X84193321Y-99551925D02*
X84193321Y-99337639D01*
X85193321Y-100480496D02*
X84193321Y-100480496D01*
X85050464Y-100480496D02*
X85121892Y-100551925D01*
X85121892Y-100551925D02*
X85193321Y-100694782D01*
X85193321Y-100694782D02*
X85193321Y-100909068D01*
X85193321Y-100909068D02*
X85121892Y-101051925D01*
X85121892Y-101051925D02*
X84979035Y-101123354D01*
X84979035Y-101123354D02*
X84193321Y-101123354D01*
X84979035Y-103480496D02*
X84907607Y-103694782D01*
X84907607Y-103694782D02*
X84836178Y-103766211D01*
X84836178Y-103766211D02*
X84693321Y-103837639D01*
X84693321Y-103837639D02*
X84479035Y-103837639D01*
X84479035Y-103837639D02*
X84336178Y-103766211D01*
X84336178Y-103766211D02*
X84264750Y-103694782D01*
X84264750Y-103694782D02*
X84193321Y-103551925D01*
X84193321Y-103551925D02*
X84193321Y-102980496D01*
X84193321Y-102980496D02*
X85693321Y-102980496D01*
X85693321Y-102980496D02*
X85693321Y-103480496D01*
X85693321Y-103480496D02*
X85621892Y-103623354D01*
X85621892Y-103623354D02*
X85550464Y-103694782D01*
X85550464Y-103694782D02*
X85407607Y-103766211D01*
X85407607Y-103766211D02*
X85264750Y-103766211D01*
X85264750Y-103766211D02*
X85121892Y-103694782D01*
X85121892Y-103694782D02*
X85050464Y-103623354D01*
X85050464Y-103623354D02*
X84979035Y-103480496D01*
X84979035Y-103480496D02*
X84979035Y-102980496D01*
X84193321Y-104694782D02*
X84264750Y-104551925D01*
X84264750Y-104551925D02*
X84336178Y-104480496D01*
X84336178Y-104480496D02*
X84479035Y-104409068D01*
X84479035Y-104409068D02*
X84907607Y-104409068D01*
X84907607Y-104409068D02*
X85050464Y-104480496D01*
X85050464Y-104480496D02*
X85121892Y-104551925D01*
X85121892Y-104551925D02*
X85193321Y-104694782D01*
X85193321Y-104694782D02*
X85193321Y-104909068D01*
X85193321Y-104909068D02*
X85121892Y-105051925D01*
X85121892Y-105051925D02*
X85050464Y-105123354D01*
X85050464Y-105123354D02*
X84907607Y-105194782D01*
X84907607Y-105194782D02*
X84479035Y-105194782D01*
X84479035Y-105194782D02*
X84336178Y-105123354D01*
X84336178Y-105123354D02*
X84264750Y-105051925D01*
X84264750Y-105051925D02*
X84193321Y-104909068D01*
X84193321Y-104909068D02*
X84193321Y-104694782D01*
X84193321Y-106480497D02*
X84979035Y-106480497D01*
X84979035Y-106480497D02*
X85121892Y-106409068D01*
X85121892Y-106409068D02*
X85193321Y-106266211D01*
X85193321Y-106266211D02*
X85193321Y-105980497D01*
X85193321Y-105980497D02*
X85121892Y-105837639D01*
X84264750Y-106480497D02*
X84193321Y-106337639D01*
X84193321Y-106337639D02*
X84193321Y-105980497D01*
X84193321Y-105980497D02*
X84264750Y-105837639D01*
X84264750Y-105837639D02*
X84407607Y-105766211D01*
X84407607Y-105766211D02*
X84550464Y-105766211D01*
X84550464Y-105766211D02*
X84693321Y-105837639D01*
X84693321Y-105837639D02*
X84764750Y-105980497D01*
X84764750Y-105980497D02*
X84764750Y-106337639D01*
X84764750Y-106337639D02*
X84836178Y-106480497D01*
X84193321Y-107194782D02*
X85193321Y-107194782D01*
X84907607Y-107194782D02*
X85050464Y-107266211D01*
X85050464Y-107266211D02*
X85121892Y-107337640D01*
X85121892Y-107337640D02*
X85193321Y-107480497D01*
X85193321Y-107480497D02*
X85193321Y-107623354D01*
X84193321Y-108766211D02*
X85693321Y-108766211D01*
X84264750Y-108766211D02*
X84193321Y-108623353D01*
X84193321Y-108623353D02*
X84193321Y-108337639D01*
X84193321Y-108337639D02*
X84264750Y-108194782D01*
X84264750Y-108194782D02*
X84336178Y-108123353D01*
X84336178Y-108123353D02*
X84479035Y-108051925D01*
X84479035Y-108051925D02*
X84907607Y-108051925D01*
X84907607Y-108051925D02*
X85050464Y-108123353D01*
X85050464Y-108123353D02*
X85121892Y-108194782D01*
X85121892Y-108194782D02*
X85193321Y-108337639D01*
X85193321Y-108337639D02*
X85193321Y-108623353D01*
X85193321Y-108623353D02*
X85121892Y-108766211D01*
X85693321Y-110409068D02*
X84193321Y-110909068D01*
X84193321Y-110909068D02*
X85693321Y-111409068D01*
X85693321Y-112194782D02*
X85693321Y-112337639D01*
X85693321Y-112337639D02*
X85621892Y-112480496D01*
X85621892Y-112480496D02*
X85550464Y-112551925D01*
X85550464Y-112551925D02*
X85407607Y-112623353D01*
X85407607Y-112623353D02*
X85121892Y-112694782D01*
X85121892Y-112694782D02*
X84764750Y-112694782D01*
X84764750Y-112694782D02*
X84479035Y-112623353D01*
X84479035Y-112623353D02*
X84336178Y-112551925D01*
X84336178Y-112551925D02*
X84264750Y-112480496D01*
X84264750Y-112480496D02*
X84193321Y-112337639D01*
X84193321Y-112337639D02*
X84193321Y-112194782D01*
X84193321Y-112194782D02*
X84264750Y-112051925D01*
X84264750Y-112051925D02*
X84336178Y-111980496D01*
X84336178Y-111980496D02*
X84479035Y-111909067D01*
X84479035Y-111909067D02*
X84764750Y-111837639D01*
X84764750Y-111837639D02*
X85121892Y-111837639D01*
X85121892Y-111837639D02*
X85407607Y-111909067D01*
X85407607Y-111909067D02*
X85550464Y-111980496D01*
X85550464Y-111980496D02*
X85621892Y-112051925D01*
X85621892Y-112051925D02*
X85693321Y-112194782D01*
D10*
X60127580Y-100639598D02*
X61127580Y-100639598D01*
X61127580Y-100639598D02*
X61127580Y-101020550D01*
X61127580Y-101020550D02*
X61079961Y-101115788D01*
X61079961Y-101115788D02*
X61032342Y-101163407D01*
X61032342Y-101163407D02*
X60937104Y-101211026D01*
X60937104Y-101211026D02*
X60794247Y-101211026D01*
X60794247Y-101211026D02*
X60699009Y-101163407D01*
X60699009Y-101163407D02*
X60651390Y-101115788D01*
X60651390Y-101115788D02*
X60603771Y-101020550D01*
X60603771Y-101020550D02*
X60603771Y-100639598D01*
X60127580Y-101782455D02*
X60175200Y-101687217D01*
X60175200Y-101687217D02*
X60222819Y-101639598D01*
X60222819Y-101639598D02*
X60318057Y-101591979D01*
X60318057Y-101591979D02*
X60603771Y-101591979D01*
X60603771Y-101591979D02*
X60699009Y-101639598D01*
X60699009Y-101639598D02*
X60746628Y-101687217D01*
X60746628Y-101687217D02*
X60794247Y-101782455D01*
X60794247Y-101782455D02*
X60794247Y-101925312D01*
X60794247Y-101925312D02*
X60746628Y-102020550D01*
X60746628Y-102020550D02*
X60699009Y-102068169D01*
X60699009Y-102068169D02*
X60603771Y-102115788D01*
X60603771Y-102115788D02*
X60318057Y-102115788D01*
X60318057Y-102115788D02*
X60222819Y-102068169D01*
X60222819Y-102068169D02*
X60175200Y-102020550D01*
X60175200Y-102020550D02*
X60127580Y-101925312D01*
X60127580Y-101925312D02*
X60127580Y-101782455D01*
X60794247Y-102449122D02*
X60127580Y-102639598D01*
X60127580Y-102639598D02*
X60603771Y-102830074D01*
X60603771Y-102830074D02*
X60127580Y-103020550D01*
X60127580Y-103020550D02*
X60794247Y-103211026D01*
X60175200Y-103972931D02*
X60127580Y-103877693D01*
X60127580Y-103877693D02*
X60127580Y-103687217D01*
X60127580Y-103687217D02*
X60175200Y-103591979D01*
X60175200Y-103591979D02*
X60270438Y-103544360D01*
X60270438Y-103544360D02*
X60651390Y-103544360D01*
X60651390Y-103544360D02*
X60746628Y-103591979D01*
X60746628Y-103591979D02*
X60794247Y-103687217D01*
X60794247Y-103687217D02*
X60794247Y-103877693D01*
X60794247Y-103877693D02*
X60746628Y-103972931D01*
X60746628Y-103972931D02*
X60651390Y-104020550D01*
X60651390Y-104020550D02*
X60556152Y-104020550D01*
X60556152Y-104020550D02*
X60460914Y-103544360D01*
X60127580Y-104449122D02*
X60794247Y-104449122D01*
X60603771Y-104449122D02*
X60699009Y-104496741D01*
X60699009Y-104496741D02*
X60746628Y-104544360D01*
X60746628Y-104544360D02*
X60794247Y-104639598D01*
X60794247Y-104639598D02*
X60794247Y-104734836D01*
X60127580Y-83268170D02*
X61127580Y-83268170D01*
X61127580Y-83268170D02*
X61127580Y-83649122D01*
X61127580Y-83649122D02*
X61079961Y-83744360D01*
X61079961Y-83744360D02*
X61032342Y-83791979D01*
X61032342Y-83791979D02*
X60937104Y-83839598D01*
X60937104Y-83839598D02*
X60794247Y-83839598D01*
X60794247Y-83839598D02*
X60699009Y-83791979D01*
X60699009Y-83791979D02*
X60651390Y-83744360D01*
X60651390Y-83744360D02*
X60603771Y-83649122D01*
X60603771Y-83649122D02*
X60603771Y-83268170D01*
X60794247Y-84125313D02*
X60794247Y-84506265D01*
X61127580Y-84268170D02*
X60270438Y-84268170D01*
X60270438Y-84268170D02*
X60175200Y-84315789D01*
X60175200Y-84315789D02*
X60127580Y-84411027D01*
X60127580Y-84411027D02*
X60127580Y-84506265D01*
X61127580Y-63158646D02*
X60127580Y-63491979D01*
X60127580Y-63491979D02*
X61127580Y-63825312D01*
X60127580Y-64587217D02*
X60651390Y-64587217D01*
X60651390Y-64587217D02*
X60746628Y-64539598D01*
X60746628Y-64539598D02*
X60794247Y-64444360D01*
X60794247Y-64444360D02*
X60794247Y-64253884D01*
X60794247Y-64253884D02*
X60746628Y-64158646D01*
X60175200Y-64587217D02*
X60127580Y-64491979D01*
X60127580Y-64491979D02*
X60127580Y-64253884D01*
X60127580Y-64253884D02*
X60175200Y-64158646D01*
X60175200Y-64158646D02*
X60270438Y-64111027D01*
X60270438Y-64111027D02*
X60365676Y-64111027D01*
X60365676Y-64111027D02*
X60460914Y-64158646D01*
X60460914Y-64158646D02*
X60508533Y-64253884D01*
X60508533Y-64253884D02*
X60508533Y-64491979D01*
X60508533Y-64491979D02*
X60556152Y-64587217D01*
X60127580Y-65206265D02*
X60175200Y-65111027D01*
X60175200Y-65111027D02*
X60270438Y-65063408D01*
X60270438Y-65063408D02*
X61127580Y-65063408D01*
X60794247Y-65491980D02*
X60127580Y-65730075D01*
X60127580Y-65730075D02*
X60794247Y-65968170D01*
X60175200Y-66730075D02*
X60127580Y-66634837D01*
X60127580Y-66634837D02*
X60127580Y-66444361D01*
X60127580Y-66444361D02*
X60175200Y-66349123D01*
X60175200Y-66349123D02*
X60270438Y-66301504D01*
X60270438Y-66301504D02*
X60651390Y-66301504D01*
X60651390Y-66301504D02*
X60746628Y-66349123D01*
X60746628Y-66349123D02*
X60794247Y-66444361D01*
X60794247Y-66444361D02*
X60794247Y-66634837D01*
X60794247Y-66634837D02*
X60746628Y-66730075D01*
X60746628Y-66730075D02*
X60651390Y-66777694D01*
X60651390Y-66777694D02*
X60556152Y-66777694D01*
X60556152Y-66777694D02*
X60460914Y-66301504D01*
X76006700Y-112256265D02*
X75959080Y-112399122D01*
X75959080Y-112399122D02*
X75959080Y-112637217D01*
X75959080Y-112637217D02*
X76006700Y-112732455D01*
X76006700Y-112732455D02*
X76054319Y-112780074D01*
X76054319Y-112780074D02*
X76149557Y-112827693D01*
X76149557Y-112827693D02*
X76244795Y-112827693D01*
X76244795Y-112827693D02*
X76340033Y-112780074D01*
X76340033Y-112780074D02*
X76387652Y-112732455D01*
X76387652Y-112732455D02*
X76435271Y-112637217D01*
X76435271Y-112637217D02*
X76482890Y-112446741D01*
X76482890Y-112446741D02*
X76530509Y-112351503D01*
X76530509Y-112351503D02*
X76578128Y-112303884D01*
X76578128Y-112303884D02*
X76673366Y-112256265D01*
X76673366Y-112256265D02*
X76768604Y-112256265D01*
X76768604Y-112256265D02*
X76863842Y-112303884D01*
X76863842Y-112303884D02*
X76911461Y-112351503D01*
X76911461Y-112351503D02*
X76959080Y-112446741D01*
X76959080Y-112446741D02*
X76959080Y-112684836D01*
X76959080Y-112684836D02*
X76911461Y-112827693D01*
X76625747Y-113113408D02*
X76625747Y-113494360D01*
X76959080Y-113256265D02*
X76101938Y-113256265D01*
X76101938Y-113256265D02*
X76006700Y-113303884D01*
X76006700Y-113303884D02*
X75959080Y-113399122D01*
X75959080Y-113399122D02*
X75959080Y-113494360D01*
X75959080Y-114256265D02*
X76482890Y-114256265D01*
X76482890Y-114256265D02*
X76578128Y-114208646D01*
X76578128Y-114208646D02*
X76625747Y-114113408D01*
X76625747Y-114113408D02*
X76625747Y-113922932D01*
X76625747Y-113922932D02*
X76578128Y-113827694D01*
X76006700Y-114256265D02*
X75959080Y-114161027D01*
X75959080Y-114161027D02*
X75959080Y-113922932D01*
X75959080Y-113922932D02*
X76006700Y-113827694D01*
X76006700Y-113827694D02*
X76101938Y-113780075D01*
X76101938Y-113780075D02*
X76197176Y-113780075D01*
X76197176Y-113780075D02*
X76292414Y-113827694D01*
X76292414Y-113827694D02*
X76340033Y-113922932D01*
X76340033Y-113922932D02*
X76340033Y-114161027D01*
X76340033Y-114161027D02*
X76387652Y-114256265D01*
X76625747Y-114589599D02*
X76625747Y-114970551D01*
X76959080Y-114732456D02*
X76101938Y-114732456D01*
X76101938Y-114732456D02*
X76006700Y-114780075D01*
X76006700Y-114780075D02*
X75959080Y-114875313D01*
X75959080Y-114875313D02*
X75959080Y-114970551D01*
X76863842Y-116018171D02*
X76911461Y-116065790D01*
X76911461Y-116065790D02*
X76959080Y-116161028D01*
X76959080Y-116161028D02*
X76959080Y-116399123D01*
X76959080Y-116399123D02*
X76911461Y-116494361D01*
X76911461Y-116494361D02*
X76863842Y-116541980D01*
X76863842Y-116541980D02*
X76768604Y-116589599D01*
X76768604Y-116589599D02*
X76673366Y-116589599D01*
X76673366Y-116589599D02*
X76530509Y-116541980D01*
X76530509Y-116541980D02*
X75959080Y-115970552D01*
X75959080Y-115970552D02*
X75959080Y-116589599D01*
X60651390Y-110349122D02*
X60651390Y-110682455D01*
X60127580Y-110825312D02*
X60127580Y-110349122D01*
X60127580Y-110349122D02*
X61127580Y-110349122D01*
X61127580Y-110349122D02*
X61127580Y-110825312D01*
X60127580Y-111158646D02*
X60794247Y-111682455D01*
X60794247Y-111158646D02*
X60127580Y-111682455D01*
X60794247Y-111920551D02*
X60794247Y-112301503D01*
X61127580Y-112063408D02*
X60270438Y-112063408D01*
X60270438Y-112063408D02*
X60175200Y-112111027D01*
X60175200Y-112111027D02*
X60127580Y-112206265D01*
X60127580Y-112206265D02*
X60127580Y-112301503D01*
X60127580Y-112634837D02*
X60794247Y-112634837D01*
X60603771Y-112634837D02*
X60699009Y-112682456D01*
X60699009Y-112682456D02*
X60746628Y-112730075D01*
X60746628Y-112730075D02*
X60794247Y-112825313D01*
X60794247Y-112825313D02*
X60794247Y-112920551D01*
X60127580Y-113682456D02*
X60651390Y-113682456D01*
X60651390Y-113682456D02*
X60746628Y-113634837D01*
X60746628Y-113634837D02*
X60794247Y-113539599D01*
X60794247Y-113539599D02*
X60794247Y-113349123D01*
X60794247Y-113349123D02*
X60746628Y-113253885D01*
X60175200Y-113682456D02*
X60127580Y-113587218D01*
X60127580Y-113587218D02*
X60127580Y-113349123D01*
X60127580Y-113349123D02*
X60175200Y-113253885D01*
X60175200Y-113253885D02*
X60270438Y-113206266D01*
X60270438Y-113206266D02*
X60365676Y-113206266D01*
X60365676Y-113206266D02*
X60460914Y-113253885D01*
X60460914Y-113253885D02*
X60508533Y-113349123D01*
X60508533Y-113349123D02*
X60508533Y-113587218D01*
X60508533Y-113587218D02*
X60556152Y-113682456D01*
D12*
X65738095Y-96954819D02*
X65738095Y-97764342D01*
X65738095Y-97764342D02*
X65785714Y-97859580D01*
X65785714Y-97859580D02*
X65833333Y-97907200D01*
X65833333Y-97907200D02*
X65928571Y-97954819D01*
X65928571Y-97954819D02*
X66119047Y-97954819D01*
X66119047Y-97954819D02*
X66214285Y-97907200D01*
X66214285Y-97907200D02*
X66261904Y-97859580D01*
X66261904Y-97859580D02*
X66309523Y-97764342D01*
X66309523Y-97764342D02*
X66309523Y-96954819D01*
X66690476Y-96954819D02*
X67309523Y-96954819D01*
X67309523Y-96954819D02*
X66976190Y-97335771D01*
X66976190Y-97335771D02*
X67119047Y-97335771D01*
X67119047Y-97335771D02*
X67214285Y-97383390D01*
X67214285Y-97383390D02*
X67261904Y-97431009D01*
X67261904Y-97431009D02*
X67309523Y-97526247D01*
X67309523Y-97526247D02*
X67309523Y-97764342D01*
X67309523Y-97764342D02*
X67261904Y-97859580D01*
X67261904Y-97859580D02*
X67214285Y-97907200D01*
X67214285Y-97907200D02*
X67119047Y-97954819D01*
X67119047Y-97954819D02*
X66833333Y-97954819D01*
X66833333Y-97954819D02*
X66738095Y-97907200D01*
X66738095Y-97907200D02*
X66690476Y-97859580D01*
X63293200Y-93186018D02*
X63293200Y-93424113D01*
X63055105Y-93328875D02*
X63293200Y-93424113D01*
X63293200Y-93424113D02*
X63531295Y-93328875D01*
X63150343Y-93614589D02*
X63293200Y-93424113D01*
X63293200Y-93424113D02*
X63436057Y-93614589D01*
X63293200Y-93186018D02*
X63293200Y-93424113D01*
X63055105Y-93328875D02*
X63293200Y-93424113D01*
X63293200Y-93424113D02*
X63531295Y-93328875D01*
X63150343Y-93614589D02*
X63293200Y-93424113D01*
X63293200Y-93424113D02*
X63436057Y-93614589D01*
X65738095Y-84954819D02*
X65738095Y-85764342D01*
X65738095Y-85764342D02*
X65785714Y-85859580D01*
X65785714Y-85859580D02*
X65833333Y-85907200D01*
X65833333Y-85907200D02*
X65928571Y-85954819D01*
X65928571Y-85954819D02*
X66119047Y-85954819D01*
X66119047Y-85954819D02*
X66214285Y-85907200D01*
X66214285Y-85907200D02*
X66261904Y-85859580D01*
X66261904Y-85859580D02*
X66309523Y-85764342D01*
X66309523Y-85764342D02*
X66309523Y-84954819D01*
X66738095Y-85050057D02*
X66785714Y-85002438D01*
X66785714Y-85002438D02*
X66880952Y-84954819D01*
X66880952Y-84954819D02*
X67119047Y-84954819D01*
X67119047Y-84954819D02*
X67214285Y-85002438D01*
X67214285Y-85002438D02*
X67261904Y-85050057D01*
X67261904Y-85050057D02*
X67309523Y-85145295D01*
X67309523Y-85145295D02*
X67309523Y-85240533D01*
X67309523Y-85240533D02*
X67261904Y-85383390D01*
X67261904Y-85383390D02*
X66690476Y-85954819D01*
X66690476Y-85954819D02*
X67309523Y-85954819D01*
X63293200Y-81186018D02*
X63293200Y-81424113D01*
X63055105Y-81328875D02*
X63293200Y-81424113D01*
X63293200Y-81424113D02*
X63531295Y-81328875D01*
X63150343Y-81614589D02*
X63293200Y-81424113D01*
X63293200Y-81424113D02*
X63436057Y-81614589D01*
X63293200Y-81186018D02*
X63293200Y-81424113D01*
X63055105Y-81328875D02*
X63293200Y-81424113D01*
X63293200Y-81424113D02*
X63531295Y-81328875D01*
X63150343Y-81614589D02*
X63293200Y-81424113D01*
X63293200Y-81424113D02*
X63436057Y-81614589D01*
X65738095Y-72954819D02*
X65738095Y-73764342D01*
X65738095Y-73764342D02*
X65785714Y-73859580D01*
X65785714Y-73859580D02*
X65833333Y-73907200D01*
X65833333Y-73907200D02*
X65928571Y-73954819D01*
X65928571Y-73954819D02*
X66119047Y-73954819D01*
X66119047Y-73954819D02*
X66214285Y-73907200D01*
X66214285Y-73907200D02*
X66261904Y-73859580D01*
X66261904Y-73859580D02*
X66309523Y-73764342D01*
X66309523Y-73764342D02*
X66309523Y-72954819D01*
X67309523Y-73954819D02*
X66738095Y-73954819D01*
X67023809Y-73954819D02*
X67023809Y-72954819D01*
X67023809Y-72954819D02*
X66928571Y-73097676D01*
X66928571Y-73097676D02*
X66833333Y-73192914D01*
X66833333Y-73192914D02*
X66738095Y-73240533D01*
X63293200Y-69186018D02*
X63293200Y-69424113D01*
X63055105Y-69328875D02*
X63293200Y-69424113D01*
X63293200Y-69424113D02*
X63531295Y-69328875D01*
X63150343Y-69614589D02*
X63293200Y-69424113D01*
X63293200Y-69424113D02*
X63436057Y-69614589D01*
X63293200Y-69186018D02*
X63293200Y-69424113D01*
X63055105Y-69328875D02*
X63293200Y-69424113D01*
X63293200Y-69424113D02*
X63531295Y-69328875D01*
X63150343Y-69614589D02*
X63293200Y-69424113D01*
X63293200Y-69424113D02*
X63436057Y-69614589D01*
X71904779Y-56108104D02*
X72714302Y-56108104D01*
X72714302Y-56108104D02*
X72809540Y-56060485D01*
X72809540Y-56060485D02*
X72857160Y-56012866D01*
X72857160Y-56012866D02*
X72904779Y-55917628D01*
X72904779Y-55917628D02*
X72904779Y-55727152D01*
X72904779Y-55727152D02*
X72857160Y-55631914D01*
X72857160Y-55631914D02*
X72809540Y-55584295D01*
X72809540Y-55584295D02*
X72714302Y-55536676D01*
X72714302Y-55536676D02*
X71904779Y-55536676D01*
X71904779Y-54584295D02*
X71904779Y-55060485D01*
X71904779Y-55060485D02*
X72380969Y-55108104D01*
X72380969Y-55108104D02*
X72333350Y-55060485D01*
X72333350Y-55060485D02*
X72285731Y-54965247D01*
X72285731Y-54965247D02*
X72285731Y-54727152D01*
X72285731Y-54727152D02*
X72333350Y-54631914D01*
X72333350Y-54631914D02*
X72380969Y-54584295D01*
X72380969Y-54584295D02*
X72476207Y-54536676D01*
X72476207Y-54536676D02*
X72714302Y-54536676D01*
X72714302Y-54536676D02*
X72809540Y-54584295D01*
X72809540Y-54584295D02*
X72857160Y-54631914D01*
X72857160Y-54631914D02*
X72904779Y-54727152D01*
X72904779Y-54727152D02*
X72904779Y-54965247D01*
X72904779Y-54965247D02*
X72857160Y-55060485D01*
X72857160Y-55060485D02*
X72809540Y-55108104D01*
X69303819Y-55346199D02*
X69541914Y-55346199D01*
X69446676Y-55584294D02*
X69541914Y-55346199D01*
X69541914Y-55346199D02*
X69446676Y-55108104D01*
X69732390Y-55489056D02*
X69541914Y-55346199D01*
X69541914Y-55346199D02*
X69732390Y-55203342D01*
X69303819Y-55346199D02*
X69541914Y-55346199D01*
X69446676Y-55584294D02*
X69541914Y-55346199D01*
X69541914Y-55346199D02*
X69446676Y-55108104D01*
X69732390Y-55489056D02*
X69541914Y-55346199D01*
X69541914Y-55346199D02*
X69732390Y-55203342D01*
X65319476Y-50807819D02*
X65319476Y-51522104D01*
X65319476Y-51522104D02*
X65271857Y-51664961D01*
X65271857Y-51664961D02*
X65176619Y-51760200D01*
X65176619Y-51760200D02*
X65033762Y-51807819D01*
X65033762Y-51807819D02*
X64938524Y-51807819D01*
X66319476Y-51807819D02*
X65748048Y-51807819D01*
X66033762Y-51807819D02*
X66033762Y-50807819D01*
X66033762Y-50807819D02*
X65938524Y-50950676D01*
X65938524Y-50950676D02*
X65843286Y-51045914D01*
X65843286Y-51045914D02*
X65748048Y-51093533D01*
X66938524Y-50807819D02*
X67033762Y-50807819D01*
X67033762Y-50807819D02*
X67129000Y-50855438D01*
X67129000Y-50855438D02*
X67176619Y-50903057D01*
X67176619Y-50903057D02*
X67224238Y-50998295D01*
X67224238Y-50998295D02*
X67271857Y-51188771D01*
X67271857Y-51188771D02*
X67271857Y-51426866D01*
X67271857Y-51426866D02*
X67224238Y-51617342D01*
X67224238Y-51617342D02*
X67176619Y-51712580D01*
X67176619Y-51712580D02*
X67129000Y-51760200D01*
X67129000Y-51760200D02*
X67033762Y-51807819D01*
X67033762Y-51807819D02*
X66938524Y-51807819D01*
X66938524Y-51807819D02*
X66843286Y-51760200D01*
X66843286Y-51760200D02*
X66795667Y-51712580D01*
X66795667Y-51712580D02*
X66748048Y-51617342D01*
X66748048Y-51617342D02*
X66700429Y-51426866D01*
X66700429Y-51426866D02*
X66700429Y-51188771D01*
X66700429Y-51188771D02*
X66748048Y-50998295D01*
X66748048Y-50998295D02*
X66795667Y-50903057D01*
X66795667Y-50903057D02*
X66843286Y-50855438D01*
X66843286Y-50855438D02*
X66938524Y-50807819D01*
X78495666Y-50807819D02*
X78495666Y-51522104D01*
X78495666Y-51522104D02*
X78448047Y-51664961D01*
X78448047Y-51664961D02*
X78352809Y-51760200D01*
X78352809Y-51760200D02*
X78209952Y-51807819D01*
X78209952Y-51807819D02*
X78114714Y-51807819D01*
X79019476Y-51807819D02*
X79209952Y-51807819D01*
X79209952Y-51807819D02*
X79305190Y-51760200D01*
X79305190Y-51760200D02*
X79352809Y-51712580D01*
X79352809Y-51712580D02*
X79448047Y-51569723D01*
X79448047Y-51569723D02*
X79495666Y-51379247D01*
X79495666Y-51379247D02*
X79495666Y-50998295D01*
X79495666Y-50998295D02*
X79448047Y-50903057D01*
X79448047Y-50903057D02*
X79400428Y-50855438D01*
X79400428Y-50855438D02*
X79305190Y-50807819D01*
X79305190Y-50807819D02*
X79114714Y-50807819D01*
X79114714Y-50807819D02*
X79019476Y-50855438D01*
X79019476Y-50855438D02*
X78971857Y-50903057D01*
X78971857Y-50903057D02*
X78924238Y-50998295D01*
X78924238Y-50998295D02*
X78924238Y-51236390D01*
X78924238Y-51236390D02*
X78971857Y-51331628D01*
X78971857Y-51331628D02*
X79019476Y-51379247D01*
X79019476Y-51379247D02*
X79114714Y-51426866D01*
X79114714Y-51426866D02*
X79305190Y-51426866D01*
X79305190Y-51426866D02*
X79400428Y-51379247D01*
X79400428Y-51379247D02*
X79448047Y-51331628D01*
X79448047Y-51331628D02*
X79495666Y-51236390D01*
D13*
%TO.C,U3*%
G36*
X70663598Y-99315501D02*
G01*
X70409598Y-99315501D01*
X70409598Y-98934501D01*
X70663598Y-98934501D01*
X70663598Y-99315501D01*
G37*
D14*
X64493654Y-100177000D02*
X68506346Y-100177000D01*
X68506346Y-94823000D02*
X64493654Y-94823000D01*
D13*
%TO.C,U2*%
G36*
X70663598Y-87315501D02*
G01*
X70409598Y-87315501D01*
X70409598Y-86934501D01*
X70663598Y-86934501D01*
X70663598Y-87315501D01*
G37*
D14*
X64493654Y-88177000D02*
X68506346Y-88177000D01*
X68506346Y-82823000D02*
X64493654Y-82823000D01*
D13*
%TO.C,U1*%
G36*
X70663598Y-75315501D02*
G01*
X70409598Y-75315501D01*
X70409598Y-74934501D01*
X70663598Y-74934501D01*
X70663598Y-75315501D01*
G37*
D14*
X64493654Y-76177000D02*
X68506346Y-76177000D01*
X68506346Y-70823000D02*
X64493654Y-70823000D01*
D15*
%TO.C,D9*%
X77291500Y-105102500D02*
X75371500Y-105102500D01*
X75371500Y-105102500D02*
X75371500Y-107787500D01*
X77291500Y-107787500D02*
X77291500Y-105102500D01*
%TO.C,D8*%
X79791500Y-105102500D02*
X77871500Y-105102500D01*
X77871500Y-105102500D02*
X77871500Y-107787500D01*
X79791500Y-107787500D02*
X79791500Y-105102500D01*
%TO.C,D7*%
X57540000Y-103286250D02*
X57540000Y-105971250D01*
X59460000Y-105971250D02*
X59460000Y-103286250D01*
X57540000Y-105971250D02*
X59460000Y-105971250D01*
%TO.C,D6*%
X57540000Y-96571250D02*
X59460000Y-96571250D01*
X59460000Y-96571250D02*
X59460000Y-93886250D01*
X57540000Y-93886250D02*
X57540000Y-96571250D01*
%TO.C,D4*%
X57540000Y-77771250D02*
X59460000Y-77771250D01*
X59460000Y-77771250D02*
X59460000Y-75086250D01*
X57540000Y-75086250D02*
X57540000Y-77771250D01*
%TO.C,D3*%
X57540000Y-68371250D02*
X59460000Y-68371250D01*
X59460000Y-68371250D02*
X59460000Y-65686250D01*
X57540000Y-65686250D02*
X57540000Y-68371250D01*
%TO.C,D2*%
X57540000Y-115371250D02*
X59460000Y-115371250D01*
X59460000Y-115371250D02*
X59460000Y-112686250D01*
X57540000Y-112686250D02*
X57540000Y-115371250D01*
%TO.C,C3*%
X71187199Y-96617165D02*
X71187199Y-96832837D01*
X71907199Y-96617165D02*
X71907199Y-96832837D01*
%TO.C,J6*%
X50822500Y-107940000D02*
X56442500Y-107940000D01*
X50822500Y-108490000D02*
X56442500Y-108490000D01*
X50822500Y-115510000D02*
X56442500Y-115510000D01*
X50822500Y-116060000D02*
X50822500Y-107940000D01*
X51432500Y-109500000D02*
X51470000Y-109350000D01*
X51432500Y-110750000D02*
X51470000Y-110600000D01*
X51432500Y-112000000D02*
X51470000Y-111850000D01*
X51432500Y-113250000D02*
X51470000Y-113100000D01*
X51432500Y-114500000D02*
X51470000Y-114350000D01*
X51470000Y-109350000D02*
X52932500Y-109350000D01*
X51470000Y-109650000D02*
X51432500Y-109500000D01*
X51470000Y-110600000D02*
X52932500Y-110600000D01*
X51470000Y-110900000D02*
X51432500Y-110750000D01*
X51470000Y-111850000D02*
X52932500Y-111850000D01*
X51470000Y-112150000D02*
X51432500Y-112000000D01*
X51470000Y-113100000D02*
X52932500Y-113100000D01*
X51470000Y-113400000D02*
X51432500Y-113250000D01*
X51470000Y-114350000D02*
X52932500Y-114350000D01*
X51470000Y-114650000D02*
X51432500Y-114500000D01*
X52932500Y-109650000D02*
X51470000Y-109650000D01*
X52932500Y-110900000D02*
X51470000Y-110900000D01*
X52932500Y-112150000D02*
X51470000Y-112150000D01*
X52932500Y-113400000D02*
X51470000Y-113400000D01*
X52932500Y-114650000D02*
X51470000Y-114650000D01*
X52932500Y-115510000D02*
X52932500Y-108490000D01*
X54432500Y-115510000D02*
X54432500Y-108490000D01*
X56392500Y-110500000D02*
X56442500Y-110500000D01*
X56392500Y-111750000D02*
X56442500Y-111750000D01*
X56392500Y-113000000D02*
X56442500Y-113000000D01*
X56392500Y-114250000D02*
X56442500Y-114250000D01*
X56392500Y-114750000D02*
X56442500Y-114750000D01*
X56442500Y-107940000D02*
X56442500Y-109250000D01*
X56442500Y-109250000D02*
X56392500Y-109250000D01*
X56442500Y-109750000D02*
X56392500Y-109750000D01*
X56442500Y-110500000D02*
X56442500Y-109750000D01*
X56442500Y-111000000D02*
X56392500Y-111000000D01*
X56442500Y-111750000D02*
X56442500Y-111000000D01*
X56442500Y-112250000D02*
X56392500Y-112250000D01*
X56442500Y-113000000D02*
X56442500Y-112250000D01*
X56442500Y-113500000D02*
X56392500Y-113500000D01*
X56442500Y-114250000D02*
X56442500Y-113500000D01*
X56442500Y-114750000D02*
X56442500Y-116060000D01*
X56442500Y-116060000D02*
X50822500Y-116060000D01*
X56932500Y-114500000D02*
X57532500Y-114800000D01*
X57532500Y-114200000D02*
X56932500Y-114500000D01*
X57532500Y-114800000D02*
X57532500Y-114200000D01*
%TO.C,R13*%
X57977500Y-72711008D02*
X57977500Y-72236492D01*
X59022500Y-72711008D02*
X59022500Y-72236492D01*
%TO.C,R11*%
X57977500Y-110311008D02*
X57977500Y-109836492D01*
X59022500Y-110311008D02*
X59022500Y-109836492D01*
D14*
%TO.C,U5*%
X70773560Y-54368300D02*
X70773560Y-56324100D01*
X74126360Y-56324100D02*
X74126360Y-54368300D01*
D15*
%TO.C,R18*%
X76854000Y-110087742D02*
X76854000Y-110562258D01*
X75809000Y-110087742D02*
X75809000Y-110562258D01*
%TO.C,J10*%
X63529000Y-52353000D02*
X64859000Y-52353000D01*
X63529000Y-53683000D02*
X63529000Y-52353000D01*
X63529000Y-54953000D02*
X63529000Y-65173000D01*
X63529000Y-54953000D02*
X66129000Y-54953000D01*
X63529000Y-65173000D02*
X68729000Y-65173000D01*
X66129000Y-52353000D02*
X68729000Y-52353000D01*
X66129000Y-54953000D02*
X66129000Y-52353000D01*
X68729000Y-52353000D02*
X68729000Y-65173000D01*
%TO.C,R7*%
X69437742Y-101202501D02*
X69912258Y-101202501D01*
X69437742Y-102247501D02*
X69912258Y-102247501D01*
%TO.C,R16*%
X59022500Y-100911008D02*
X59022500Y-100436492D01*
X57977500Y-100911008D02*
X57977500Y-100436492D01*
%TO.C,R3*%
X72187742Y-59422500D02*
X72662258Y-59422500D01*
X72187742Y-58377500D02*
X72662258Y-58377500D01*
D13*
%TO.C,G\u002A\u002A\u002A*%
G36*
X67405527Y-105676636D02*
G01*
X68074784Y-105739282D01*
X68732420Y-105895833D01*
X69226919Y-106084926D01*
X69770722Y-106383038D01*
X70280766Y-106762831D01*
X70740722Y-107207771D01*
X71134265Y-107701322D01*
X71445069Y-108226948D01*
X71533774Y-108421352D01*
X71717387Y-108923267D01*
X71830853Y-109404024D01*
X71883381Y-109909527D01*
X71889673Y-110195255D01*
X71842327Y-110895009D01*
X71700491Y-111548404D01*
X71463158Y-112157753D01*
X71129320Y-112725370D01*
X70697968Y-113253569D01*
X70450818Y-113498592D01*
X69905717Y-113938532D01*
X69321437Y-114281090D01*
X68696120Y-114526986D01*
X68027903Y-114676938D01*
X67314928Y-114731664D01*
X67257513Y-114731950D01*
X66827937Y-114720439D01*
X66461835Y-114682251D01*
X66119439Y-114611906D01*
X65875160Y-114541417D01*
X65722985Y-114498098D01*
X65621666Y-114495325D01*
X65522405Y-114539332D01*
X65433055Y-114597886D01*
X65195282Y-114705179D01*
X64953092Y-114723081D01*
X64725388Y-114662376D01*
X64531073Y-114533844D01*
X64389050Y-114348269D01*
X64318222Y-114116432D01*
X64317555Y-113961598D01*
X64323910Y-113848727D01*
X64305722Y-113760186D01*
X64248362Y-113669550D01*
X64137200Y-113550390D01*
X64034454Y-113450221D01*
X63568469Y-112931440D01*
X63192598Y-112362449D01*
X62910191Y-111749843D01*
X62724599Y-111100218D01*
X62668942Y-110761890D01*
X62636861Y-110469470D01*
X62625756Y-110251589D01*
X62951113Y-110251589D01*
X62952719Y-110331742D01*
X62962580Y-110635396D01*
X62979207Y-110867684D01*
X63007960Y-111062628D01*
X63054199Y-111254245D01*
X63123284Y-111476557D01*
X63141860Y-111532306D01*
X63336735Y-112004191D01*
X63596409Y-112471100D01*
X63899667Y-112899157D01*
X64213387Y-113243309D01*
X64506249Y-113520020D01*
X64696182Y-113407957D01*
X64931617Y-113323038D01*
X65168633Y-113329440D01*
X65387355Y-113415297D01*
X65567910Y-113568743D01*
X65690421Y-113777912D01*
X65735021Y-114028196D01*
X65739666Y-114119782D01*
X65767788Y-114181391D01*
X65840666Y-114229707D01*
X65979580Y-114281416D01*
X66111805Y-114323631D01*
X66427738Y-114394606D01*
X66813193Y-114437429D01*
X67236136Y-114452131D01*
X67664531Y-114438741D01*
X68066344Y-114397287D01*
X68409540Y-114327800D01*
X68431881Y-114321500D01*
X69078438Y-114083856D01*
X69668150Y-113763248D01*
X70193934Y-113365475D01*
X70648703Y-112896332D01*
X71025373Y-112361617D01*
X71182530Y-112070822D01*
X71358169Y-111681491D01*
X71479395Y-111327541D01*
X71556994Y-110967123D01*
X71601752Y-110558389D01*
X71611016Y-110408372D01*
X71595339Y-109751125D01*
X71481275Y-109119412D01*
X71274355Y-108521196D01*
X70980112Y-107964438D01*
X70604077Y-107457099D01*
X70151782Y-107007140D01*
X69628759Y-106622525D01*
X69040540Y-106311213D01*
X68662035Y-106164085D01*
X68038756Y-106005457D01*
X67405527Y-105944613D01*
X66773476Y-105977003D01*
X66153729Y-106098080D01*
X65557416Y-106303292D01*
X64995664Y-106588092D01*
X64479601Y-106947930D01*
X64020356Y-107378256D01*
X63629055Y-107874522D01*
X63365814Y-108329253D01*
X63192432Y-108711240D01*
X63070885Y-109062402D01*
X62994560Y-109414805D01*
X62956841Y-109800512D01*
X62951113Y-110251589D01*
X62625756Y-110251589D01*
X62624654Y-110229975D01*
X62632474Y-109995968D01*
X62660477Y-109720007D01*
X62672632Y-109623524D01*
X62808668Y-108973839D01*
X63040587Y-108355685D01*
X63361257Y-107778336D01*
X63763543Y-107251065D01*
X64240312Y-106783146D01*
X64784431Y-106383852D01*
X65388766Y-106062456D01*
X65423736Y-106047169D01*
X66056304Y-105829753D01*
X66720091Y-105706077D01*
X67398463Y-105675975D01*
X67405527Y-105676636D01*
G37*
G36*
X67787358Y-107916851D02*
G01*
X68210110Y-108044426D01*
X68225171Y-108048971D01*
X68614182Y-108255608D01*
X68949735Y-108525838D01*
X69227179Y-108848736D01*
X69441858Y-109213377D01*
X69589120Y-109608836D01*
X69664310Y-110024186D01*
X69662775Y-110448504D01*
X69579862Y-110870864D01*
X69410915Y-111280341D01*
X69151283Y-111666009D01*
X68995234Y-111837314D01*
X68617524Y-112149665D01*
X68210267Y-112370587D01*
X67784330Y-112504455D01*
X67350580Y-112555647D01*
X66919884Y-112528537D01*
X66503109Y-112427502D01*
X66111124Y-112256917D01*
X65754794Y-112021160D01*
X65444986Y-111724605D01*
X65192569Y-111371628D01*
X65008409Y-110966606D01*
X64963597Y-110773471D01*
X65987967Y-110773471D01*
X65987967Y-110912192D01*
X66396370Y-110899384D01*
X66611849Y-110893093D01*
X66895620Y-110885463D01*
X67210604Y-110877463D01*
X67516183Y-110870143D01*
X67847460Y-110857334D01*
X68107535Y-110836506D01*
X68283665Y-110808930D01*
X68348685Y-110787136D01*
X68486455Y-110660852D01*
X68536964Y-110492489D01*
X68500729Y-110298299D01*
X68378268Y-110094537D01*
X68324684Y-110033857D01*
X68240083Y-109940715D01*
X68224956Y-109894824D01*
X68275760Y-109867429D01*
X68303092Y-109858594D01*
X68451461Y-109769866D01*
X68526620Y-109640175D01*
X68532770Y-109496800D01*
X68474114Y-109367022D01*
X68354855Y-109278119D01*
X68210110Y-109255018D01*
X68166992Y-109267985D01*
X68218960Y-109304959D01*
X68240768Y-109315768D01*
X68332064Y-109395206D01*
X68359337Y-109470293D01*
X68352157Y-109508331D01*
X68320080Y-109534958D01*
X68247295Y-109552187D01*
X68117993Y-109562033D01*
X67916365Y-109566509D01*
X67626601Y-109567629D01*
X67595229Y-109567634D01*
X66831121Y-109567634D01*
X66831121Y-109725726D01*
X66831121Y-109883817D01*
X67421080Y-109883817D01*
X67679349Y-109885056D01*
X67855258Y-109891720D01*
X67971836Y-109908230D01*
X68052110Y-109939004D01*
X68119109Y-109988464D01*
X68158839Y-110025419D01*
X68268826Y-110178492D01*
X68306408Y-110340089D01*
X68266021Y-110478626D01*
X68243403Y-110505643D01*
X68175779Y-110531445D01*
X68027268Y-110550166D01*
X67790946Y-110562246D01*
X67459889Y-110568126D01*
X67248745Y-110568879D01*
X66850905Y-110570118D01*
X66546203Y-110575160D01*
X66322399Y-110585991D01*
X66167252Y-110604596D01*
X66068522Y-110632963D01*
X66013969Y-110673078D01*
X65991352Y-110726927D01*
X65987967Y-110773471D01*
X64963597Y-110773471D01*
X64903373Y-110513915D01*
X64882689Y-110181274D01*
X64933837Y-109705114D01*
X65001313Y-109460823D01*
X65206016Y-109015500D01*
X65489967Y-108633387D01*
X65843440Y-108321198D01*
X66256711Y-108085647D01*
X66720055Y-107933447D01*
X67223747Y-107871313D01*
X67305395Y-107870176D01*
X67787358Y-107916851D01*
G37*
D15*
%TO.C,R10*%
X73477500Y-77087742D02*
X73477500Y-77562258D01*
X74522500Y-77087742D02*
X74522500Y-77562258D01*
%TO.C,R4*%
X80809000Y-110070242D02*
X80809000Y-110544758D01*
X81854000Y-110070242D02*
X81854000Y-110544758D01*
%TO.C,J3*%
X50822500Y-79740000D02*
X56442500Y-79740000D01*
X50822500Y-80290000D02*
X56442500Y-80290000D01*
X50822500Y-87310000D02*
X56442500Y-87310000D01*
X50822500Y-87860000D02*
X50822500Y-79740000D01*
X51432500Y-81300000D02*
X51470000Y-81150000D01*
X51432500Y-82550000D02*
X51470000Y-82400000D01*
X51432500Y-83800000D02*
X51470000Y-83650000D01*
X51432500Y-85050000D02*
X51470000Y-84900000D01*
X51432500Y-86300000D02*
X51470000Y-86150000D01*
X51470000Y-81150000D02*
X52932500Y-81150000D01*
X51470000Y-81450000D02*
X51432500Y-81300000D01*
X51470000Y-82400000D02*
X52932500Y-82400000D01*
X51470000Y-82700000D02*
X51432500Y-82550000D01*
X51470000Y-83650000D02*
X52932500Y-83650000D01*
X51470000Y-83950000D02*
X51432500Y-83800000D01*
X51470000Y-84900000D02*
X52932500Y-84900000D01*
X51470000Y-85200000D02*
X51432500Y-85050000D01*
X51470000Y-86150000D02*
X52932500Y-86150000D01*
X51470000Y-86450000D02*
X51432500Y-86300000D01*
X52932500Y-81450000D02*
X51470000Y-81450000D01*
X52932500Y-82700000D02*
X51470000Y-82700000D01*
X52932500Y-83950000D02*
X51470000Y-83950000D01*
X52932500Y-85200000D02*
X51470000Y-85200000D01*
X52932500Y-86450000D02*
X51470000Y-86450000D01*
X52932500Y-87310000D02*
X52932500Y-80290000D01*
X54432500Y-87310000D02*
X54432500Y-80290000D01*
X56392500Y-82300000D02*
X56442500Y-82300000D01*
X56392500Y-83550000D02*
X56442500Y-83550000D01*
X56392500Y-84800000D02*
X56442500Y-84800000D01*
X56392500Y-86050000D02*
X56442500Y-86050000D01*
X56392500Y-86550000D02*
X56442500Y-86550000D01*
X56442500Y-79740000D02*
X56442500Y-81050000D01*
X56442500Y-81050000D02*
X56392500Y-81050000D01*
X56442500Y-81550000D02*
X56392500Y-81550000D01*
X56442500Y-82300000D02*
X56442500Y-81550000D01*
X56442500Y-82800000D02*
X56392500Y-82800000D01*
X56442500Y-83550000D02*
X56442500Y-82800000D01*
X56442500Y-84050000D02*
X56392500Y-84050000D01*
X56442500Y-84800000D02*
X56442500Y-84050000D01*
X56442500Y-85300000D02*
X56392500Y-85300000D01*
X56442500Y-86050000D02*
X56442500Y-85300000D01*
X56442500Y-86550000D02*
X56442500Y-87860000D01*
X56442500Y-87860000D02*
X50822500Y-87860000D01*
X56932500Y-86300000D02*
X57532500Y-86600000D01*
X57532500Y-86000000D02*
X56932500Y-86300000D01*
X57532500Y-86600000D02*
X57532500Y-86000000D01*
%TO.C,J4*%
X50822500Y-89140000D02*
X56442500Y-89140000D01*
X50822500Y-89690000D02*
X56442500Y-89690000D01*
X50822500Y-96710000D02*
X56442500Y-96710000D01*
X50822500Y-97260000D02*
X50822500Y-89140000D01*
X51432500Y-90700000D02*
X51470000Y-90550000D01*
X51432500Y-91950000D02*
X51470000Y-91800000D01*
X51432500Y-93200000D02*
X51470000Y-93050000D01*
X51432500Y-94450000D02*
X51470000Y-94300000D01*
X51432500Y-95700000D02*
X51470000Y-95550000D01*
X51470000Y-90550000D02*
X52932500Y-90550000D01*
X51470000Y-90850000D02*
X51432500Y-90700000D01*
X51470000Y-91800000D02*
X52932500Y-91800000D01*
X51470000Y-92100000D02*
X51432500Y-91950000D01*
X51470000Y-93050000D02*
X52932500Y-93050000D01*
X51470000Y-93350000D02*
X51432500Y-93200000D01*
X51470000Y-94300000D02*
X52932500Y-94300000D01*
X51470000Y-94600000D02*
X51432500Y-94450000D01*
X51470000Y-95550000D02*
X52932500Y-95550000D01*
X51470000Y-95850000D02*
X51432500Y-95700000D01*
X52932500Y-90850000D02*
X51470000Y-90850000D01*
X52932500Y-92100000D02*
X51470000Y-92100000D01*
X52932500Y-93350000D02*
X51470000Y-93350000D01*
X52932500Y-94600000D02*
X51470000Y-94600000D01*
X52932500Y-95850000D02*
X51470000Y-95850000D01*
X52932500Y-96710000D02*
X52932500Y-89690000D01*
X54432500Y-96710000D02*
X54432500Y-89690000D01*
X56392500Y-91700000D02*
X56442500Y-91700000D01*
X56392500Y-92950000D02*
X56442500Y-92950000D01*
X56392500Y-94200000D02*
X56442500Y-94200000D01*
X56392500Y-95450000D02*
X56442500Y-95450000D01*
X56392500Y-95950000D02*
X56442500Y-95950000D01*
X56442500Y-89140000D02*
X56442500Y-90450000D01*
X56442500Y-90450000D02*
X56392500Y-90450000D01*
X56442500Y-90950000D02*
X56392500Y-90950000D01*
X56442500Y-91700000D02*
X56442500Y-90950000D01*
X56442500Y-92200000D02*
X56392500Y-92200000D01*
X56442500Y-92950000D02*
X56442500Y-92200000D01*
X56442500Y-93450000D02*
X56392500Y-93450000D01*
X56442500Y-94200000D02*
X56442500Y-93450000D01*
X56442500Y-94700000D02*
X56392500Y-94700000D01*
X56442500Y-95450000D02*
X56442500Y-94700000D01*
X56442500Y-95950000D02*
X56442500Y-97260000D01*
X56442500Y-97260000D02*
X50822500Y-97260000D01*
X56932500Y-95700000D02*
X57532500Y-96000000D01*
X57532500Y-95400000D02*
X56932500Y-95700000D01*
X57532500Y-96000000D02*
X57532500Y-95400000D01*
%TO.C,J9*%
X76229000Y-52353000D02*
X77559000Y-52353000D01*
X76229000Y-53683000D02*
X76229000Y-52353000D01*
X76229000Y-54953000D02*
X76229000Y-103273000D01*
X76229000Y-54953000D02*
X78829000Y-54953000D01*
X76229000Y-103273000D02*
X81429000Y-103273000D01*
X78829000Y-52353000D02*
X81429000Y-52353000D01*
X78829000Y-54953000D02*
X78829000Y-52353000D01*
X81429000Y-52353000D02*
X81429000Y-103273000D01*
%TO.C,R12*%
X57977500Y-63311008D02*
X57977500Y-62836492D01*
X59022500Y-63311008D02*
X59022500Y-62836492D01*
%TO.C,C1*%
X71187199Y-72617165D02*
X71187199Y-72832837D01*
X71907199Y-72617165D02*
X71907199Y-72832837D01*
%TO.C,R15*%
X57977500Y-91511008D02*
X57977500Y-91036492D01*
X59022500Y-91511008D02*
X59022500Y-91036492D01*
%TO.C,J2*%
X50822500Y-70340000D02*
X56442500Y-70340000D01*
X50822500Y-70890000D02*
X56442500Y-70890000D01*
X50822500Y-77910000D02*
X56442500Y-77910000D01*
X50822500Y-78460000D02*
X50822500Y-70340000D01*
X51432500Y-71900000D02*
X51470000Y-71750000D01*
X51432500Y-73150000D02*
X51470000Y-73000000D01*
X51432500Y-74400000D02*
X51470000Y-74250000D01*
X51432500Y-75650000D02*
X51470000Y-75500000D01*
X51432500Y-76900000D02*
X51470000Y-76750000D01*
X51470000Y-71750000D02*
X52932500Y-71750000D01*
X51470000Y-72050000D02*
X51432500Y-71900000D01*
X51470000Y-73000000D02*
X52932500Y-73000000D01*
X51470000Y-73300000D02*
X51432500Y-73150000D01*
X51470000Y-74250000D02*
X52932500Y-74250000D01*
X51470000Y-74550000D02*
X51432500Y-74400000D01*
X51470000Y-75500000D02*
X52932500Y-75500000D01*
X51470000Y-75800000D02*
X51432500Y-75650000D01*
X51470000Y-76750000D02*
X52932500Y-76750000D01*
X51470000Y-77050000D02*
X51432500Y-76900000D01*
X52932500Y-72050000D02*
X51470000Y-72050000D01*
X52932500Y-73300000D02*
X51470000Y-73300000D01*
X52932500Y-74550000D02*
X51470000Y-74550000D01*
X52932500Y-75800000D02*
X51470000Y-75800000D01*
X52932500Y-77050000D02*
X51470000Y-77050000D01*
X52932500Y-77910000D02*
X52932500Y-70890000D01*
X54432500Y-77910000D02*
X54432500Y-70890000D01*
X56392500Y-72900000D02*
X56442500Y-72900000D01*
X56392500Y-74150000D02*
X56442500Y-74150000D01*
X56392500Y-75400000D02*
X56442500Y-75400000D01*
X56392500Y-76650000D02*
X56442500Y-76650000D01*
X56392500Y-77150000D02*
X56442500Y-77150000D01*
X56442500Y-70340000D02*
X56442500Y-71650000D01*
X56442500Y-71650000D02*
X56392500Y-71650000D01*
X56442500Y-72150000D02*
X56392500Y-72150000D01*
X56442500Y-72900000D02*
X56442500Y-72150000D01*
X56442500Y-73400000D02*
X56392500Y-73400000D01*
X56442500Y-74150000D02*
X56442500Y-73400000D01*
X56442500Y-74650000D02*
X56392500Y-74650000D01*
X56442500Y-75400000D02*
X56442500Y-74650000D01*
X56442500Y-75900000D02*
X56392500Y-75900000D01*
X56442500Y-76650000D02*
X56442500Y-75900000D01*
X56442500Y-77150000D02*
X56442500Y-78460000D01*
X56442500Y-78460000D02*
X50822500Y-78460000D01*
X56932500Y-76900000D02*
X57532500Y-77200000D01*
X57532500Y-76600000D02*
X56932500Y-76900000D01*
X57532500Y-77200000D02*
X57532500Y-76600000D01*
%TO.C,J5*%
X50822500Y-98540000D02*
X56442500Y-98540000D01*
X50822500Y-99090000D02*
X56442500Y-99090000D01*
X50822500Y-106110000D02*
X56442500Y-106110000D01*
X50822500Y-106660000D02*
X50822500Y-98540000D01*
X51432500Y-100100000D02*
X51470000Y-99950000D01*
X51432500Y-101350000D02*
X51470000Y-101200000D01*
X51432500Y-102600000D02*
X51470000Y-102450000D01*
X51432500Y-103850000D02*
X51470000Y-103700000D01*
X51432500Y-105100000D02*
X51470000Y-104950000D01*
X51470000Y-99950000D02*
X52932500Y-99950000D01*
X51470000Y-100250000D02*
X51432500Y-100100000D01*
X51470000Y-101200000D02*
X52932500Y-101200000D01*
X51470000Y-101500000D02*
X51432500Y-101350000D01*
X51470000Y-102450000D02*
X52932500Y-102450000D01*
X51470000Y-102750000D02*
X51432500Y-102600000D01*
X51470000Y-103700000D02*
X52932500Y-103700000D01*
X51470000Y-104000000D02*
X51432500Y-103850000D01*
X51470000Y-104950000D02*
X52932500Y-104950000D01*
X51470000Y-105250000D02*
X51432500Y-105100000D01*
X52932500Y-100250000D02*
X51470000Y-100250000D01*
X52932500Y-101500000D02*
X51470000Y-101500000D01*
X52932500Y-102750000D02*
X51470000Y-102750000D01*
X52932500Y-104000000D02*
X51470000Y-104000000D01*
X52932500Y-105250000D02*
X51470000Y-105250000D01*
X52932500Y-106110000D02*
X52932500Y-99090000D01*
X54432500Y-106110000D02*
X54432500Y-99090000D01*
X56392500Y-101100000D02*
X56442500Y-101100000D01*
X56392500Y-102350000D02*
X56442500Y-102350000D01*
X56392500Y-103600000D02*
X56442500Y-103600000D01*
X56392500Y-104850000D02*
X56442500Y-104850000D01*
X56392500Y-105350000D02*
X56442500Y-105350000D01*
X56442500Y-98540000D02*
X56442500Y-99850000D01*
X56442500Y-99850000D02*
X56392500Y-99850000D01*
X56442500Y-100350000D02*
X56392500Y-100350000D01*
X56442500Y-101100000D02*
X56442500Y-100350000D01*
X56442500Y-101600000D02*
X56392500Y-101600000D01*
X56442500Y-102350000D02*
X56442500Y-101600000D01*
X56442500Y-102850000D02*
X56392500Y-102850000D01*
X56442500Y-103600000D02*
X56442500Y-102850000D01*
X56442500Y-104100000D02*
X56392500Y-104100000D01*
X56442500Y-104850000D02*
X56442500Y-104100000D01*
X56442500Y-105350000D02*
X56442500Y-106660000D01*
X56442500Y-106660000D02*
X50822500Y-106660000D01*
X56932500Y-105100000D02*
X57532500Y-105400000D01*
X57532500Y-104800000D02*
X56932500Y-105100000D01*
X57532500Y-105400000D02*
X57532500Y-104800000D01*
%TO.C,J1*%
X50822500Y-60940000D02*
X56442500Y-60940000D01*
X50822500Y-61490000D02*
X56442500Y-61490000D01*
X50822500Y-68510000D02*
X56442500Y-68510000D01*
X50822500Y-69060000D02*
X50822500Y-60940000D01*
X51432500Y-62500000D02*
X51470000Y-62350000D01*
X51432500Y-63750000D02*
X51470000Y-63600000D01*
X51432500Y-65000000D02*
X51470000Y-64850000D01*
X51432500Y-66250000D02*
X51470000Y-66100000D01*
X51432500Y-67500000D02*
X51470000Y-67350000D01*
X51470000Y-62350000D02*
X52932500Y-62350000D01*
X51470000Y-62650000D02*
X51432500Y-62500000D01*
X51470000Y-63600000D02*
X52932500Y-63600000D01*
X51470000Y-63900000D02*
X51432500Y-63750000D01*
X51470000Y-64850000D02*
X52932500Y-64850000D01*
X51470000Y-65150000D02*
X51432500Y-65000000D01*
X51470000Y-66100000D02*
X52932500Y-66100000D01*
X51470000Y-66400000D02*
X51432500Y-66250000D01*
X51470000Y-67350000D02*
X52932500Y-67350000D01*
X51470000Y-67650000D02*
X51432500Y-67500000D01*
X52932500Y-62650000D02*
X51470000Y-62650000D01*
X52932500Y-63900000D02*
X51470000Y-63900000D01*
X52932500Y-65150000D02*
X51470000Y-65150000D01*
X52932500Y-66400000D02*
X51470000Y-66400000D01*
X52932500Y-67650000D02*
X51470000Y-67650000D01*
X52932500Y-68510000D02*
X52932500Y-61490000D01*
X54432500Y-68510000D02*
X54432500Y-61490000D01*
X56392500Y-63500000D02*
X56442500Y-63500000D01*
X56392500Y-64750000D02*
X56442500Y-64750000D01*
X56392500Y-66000000D02*
X56442500Y-66000000D01*
X56392500Y-67250000D02*
X56442500Y-67250000D01*
X56392500Y-67750000D02*
X56442500Y-67750000D01*
X56442500Y-60940000D02*
X56442500Y-62250000D01*
X56442500Y-62250000D02*
X56392500Y-62250000D01*
X56442500Y-62750000D02*
X56392500Y-62750000D01*
X56442500Y-63500000D02*
X56442500Y-62750000D01*
X56442500Y-64000000D02*
X56392500Y-64000000D01*
X56442500Y-64750000D02*
X56442500Y-64000000D01*
X56442500Y-65250000D02*
X56392500Y-65250000D01*
X56442500Y-66000000D02*
X56442500Y-65250000D01*
X56442500Y-66500000D02*
X56392500Y-66500000D01*
X56442500Y-67250000D02*
X56442500Y-66500000D01*
X56442500Y-67750000D02*
X56442500Y-69060000D01*
X56442500Y-69060000D02*
X50822500Y-69060000D01*
X56932500Y-67500000D02*
X57532500Y-67800000D01*
X57532500Y-67200000D02*
X56932500Y-67500000D01*
X57532500Y-67800000D02*
X57532500Y-67200000D01*
%TO.C,R17*%
X79354000Y-110087742D02*
X79354000Y-110562258D01*
X78309000Y-110087742D02*
X78309000Y-110562258D01*
%TO.C,D1*%
X82291500Y-105102500D02*
X80371500Y-105102500D01*
X80371500Y-105102500D02*
X80371500Y-107787500D01*
X82291500Y-107787500D02*
X82291500Y-105102500D01*
%TO.C,C2*%
X71187199Y-84638465D02*
X71187199Y-84854137D01*
X71907199Y-84638465D02*
X71907199Y-84854137D01*
%TO.C,R8*%
X69309941Y-89202501D02*
X69784457Y-89202501D01*
X69309941Y-90247501D02*
X69784457Y-90247501D01*
%TO.C,D5*%
X57540000Y-87171250D02*
X59460000Y-87171250D01*
X59460000Y-87171250D02*
X59460000Y-84486250D01*
X57540000Y-84486250D02*
X57540000Y-87171250D01*
%TO.C,R14*%
X57977500Y-82111008D02*
X57977500Y-81636492D01*
X59022500Y-82111008D02*
X59022500Y-81636492D01*
%TO.C,R9*%
X69262742Y-78247501D02*
X69737258Y-78247501D01*
X69262742Y-77202501D02*
X69737258Y-77202501D01*
%TD*%
M02*
