%TF.GenerationSoftware,KiCad,Pcbnew,8.0.7*%
%TF.CreationDate,2025-01-18T12:10:44-08:00*%
%TF.ProjectId,plex-loader,706c6578-2d6c-46f6-9164-65722e6b6963,rev?*%
%TF.SameCoordinates,Original*%
%TF.FileFunction,Copper,L3,Inr*%
%TF.FilePolarity,Positive*%
%FSLAX46Y46*%
G04 Gerber Fmt 4.6, Leading zero omitted, Abs format (unit mm)*
G04 Created by KiCad (PCBNEW 8.0.7) date 2025-01-18 12:10:44*
%MOMM*%
%LPD*%
G01*
G04 APERTURE LIST*
G04 Aperture macros list*
%AMRoundRect*
0 Rectangle with rounded corners*
0 $1 Rounding radius*
0 $2 $3 $4 $5 $6 $7 $8 $9 X,Y pos of 4 corners*
0 Add a 4 corners polygon primitive as box body*
4,1,4,$2,$3,$4,$5,$6,$7,$8,$9,$2,$3,0*
0 Add four circle primitives for the rounded corners*
1,1,$1+$1,$2,$3*
1,1,$1+$1,$4,$5*
1,1,$1+$1,$6,$7*
1,1,$1+$1,$8,$9*
0 Add four rect primitives between the rounded corners*
20,1,$1+$1,$2,$3,$4,$5,0*
20,1,$1+$1,$4,$5,$6,$7,0*
20,1,$1+$1,$6,$7,$8,$9,0*
20,1,$1+$1,$8,$9,$2,$3,0*%
G04 Aperture macros list end*
%TA.AperFunction,ComponentPad*%
%ADD10RoundRect,0.225000X0.475000X-0.225000X0.475000X0.225000X-0.475000X0.225000X-0.475000X-0.225000X0*%
%TD*%
%TA.AperFunction,ComponentPad*%
%ADD11O,1.400000X0.900000*%
%TD*%
%TA.AperFunction,ComponentPad*%
%ADD12R,1.700000X1.700000*%
%TD*%
%TA.AperFunction,ComponentPad*%
%ADD13O,1.700000X1.700000*%
%TD*%
%TA.AperFunction,ViaPad*%
%ADD14C,0.600000*%
%TD*%
G04 APERTURE END LIST*
D10*
%TO.N,/MCLR6*%
%TO.C,J6*%
X55432500Y-114500000D03*
D11*
%TO.N,unconnected-(J6-Pin_2-Pad2)*%
X55432500Y-113250000D03*
%TO.N,unconnected-(J6-Pin_3-Pad3)*%
X55432500Y-112000000D03*
%TO.N,/PGD6*%
X55432500Y-110750000D03*
%TO.N,/PGC6*%
X55432500Y-109500000D03*
%TD*%
D12*
%TO.N,unconnected-(J10-Pin_1-Pad1)*%
%TO.C,J10*%
X64859000Y-53683000D03*
D13*
%TO.N,unconnected-(J10-Pin_2-Pad2)*%
X67399000Y-53683000D03*
%TO.N,unconnected-(J10-Pin_3-Pad3)*%
X64859000Y-56223000D03*
%TO.N,unconnected-(J10-Pin_4-Pad4)*%
X67399000Y-56223000D03*
%TO.N,unconnected-(J10-Pin_5-Pad5)*%
X64859000Y-58763000D03*
%TO.N,unconnected-(J10-Pin_6-Pad6)*%
X67399000Y-58763000D03*
%TO.N,unconnected-(J10-Pin_7-Pad7)*%
X64859000Y-61303000D03*
%TO.N,unconnected-(J10-Pin_8-Pad8)*%
X67399000Y-61303000D03*
%TO.N,unconnected-(J10-Pin_9-Pad9)*%
X64859000Y-63843000D03*
%TO.N,unconnected-(J10-Pin_10-Pad10)*%
X67399000Y-63843000D03*
%TD*%
D10*
%TO.N,/MCLR3*%
%TO.C,J3*%
X55432500Y-86300000D03*
D11*
%TO.N,unconnected-(J3-Pin_2-Pad2)*%
X55432500Y-85050000D03*
%TO.N,unconnected-(J3-Pin_3-Pad3)*%
X55432500Y-83800000D03*
%TO.N,/PGD3*%
X55432500Y-82550000D03*
%TO.N,/PGC3*%
X55432500Y-81300000D03*
%TD*%
D10*
%TO.N,/MCLR4*%
%TO.C,J4*%
X55432500Y-95700000D03*
D11*
%TO.N,unconnected-(J4-Pin_2-Pad2)*%
X55432500Y-94450000D03*
%TO.N,unconnected-(J4-Pin_3-Pad3)*%
X55432500Y-93200000D03*
%TO.N,/PGD4*%
X55432500Y-91950000D03*
%TO.N,/PGC4*%
X55432500Y-90700000D03*
%TD*%
D12*
%TO.N,+3.3V*%
%TO.C,J9*%
X77559000Y-53683000D03*
D13*
%TO.N,+5V*%
X80099000Y-53683000D03*
%TO.N,/GPIO2*%
X77559000Y-56223000D03*
%TO.N,+5V*%
X80099000Y-56223000D03*
%TO.N,/GPIO3*%
X77559000Y-58763000D03*
%TO.N,GND*%
X80099000Y-58763000D03*
%TO.N,unconnected-(J9-Pin_7-Pad7)*%
X77559000Y-61303000D03*
%TO.N,unconnected-(J9-Pin_8-Pad8)*%
X80099000Y-61303000D03*
%TO.N,unconnected-(J9-Pin_9-Pad9)*%
X77559000Y-63843000D03*
%TO.N,unconnected-(J9-Pin_10-Pad10)*%
X80099000Y-63843000D03*
%TO.N,/GPIO17*%
X77559000Y-66383000D03*
%TO.N,/GPIO18*%
X80099000Y-66383000D03*
%TO.N,/GPIO27*%
X77559000Y-68923000D03*
%TO.N,unconnected-(J9-Pin_14-Pad14)*%
X80099000Y-68923000D03*
%TO.N,/GPIO22*%
X77559000Y-71463000D03*
%TO.N,/GPIO23*%
X80099000Y-71463000D03*
%TO.N,unconnected-(J9-Pin_17-Pad17)*%
X77559000Y-74003000D03*
%TO.N,/GPIO24*%
X80099000Y-74003000D03*
%TO.N,/GPIO10*%
X77559000Y-76543000D03*
%TO.N,unconnected-(J9-Pin_20-Pad20)*%
X80099000Y-76543000D03*
%TO.N,unconnected-(J9-Pin_21-Pad21)*%
X77559000Y-79083000D03*
%TO.N,/GPIO25*%
X80099000Y-79083000D03*
%TO.N,unconnected-(J9-Pin_23-Pad23)*%
X77559000Y-81623000D03*
%TO.N,unconnected-(J9-Pin_24-Pad24)*%
X80099000Y-81623000D03*
%TO.N,unconnected-(J9-Pin_25-Pad25)*%
X77559000Y-84163000D03*
%TO.N,unconnected-(J9-Pin_26-Pad26)*%
X80099000Y-84163000D03*
%TO.N,unconnected-(J9-Pin_27-Pad27)*%
X77559000Y-86703000D03*
%TO.N,unconnected-(J9-Pin_28-Pad28)*%
X80099000Y-86703000D03*
%TO.N,unconnected-(J9-Pin_29-Pad29)*%
X77559000Y-89243000D03*
%TO.N,unconnected-(J9-Pin_30-Pad30)*%
X80099000Y-89243000D03*
%TO.N,unconnected-(J9-Pin_31-Pad31)*%
X77559000Y-91783000D03*
%TO.N,unconnected-(J9-Pin_32-Pad32)*%
X80099000Y-91783000D03*
%TO.N,unconnected-(J9-Pin_33-Pad33)*%
X77559000Y-94323000D03*
%TO.N,unconnected-(J9-Pin_34-Pad34)*%
X80099000Y-94323000D03*
%TO.N,unconnected-(J9-Pin_35-Pad35)*%
X77559000Y-96863000D03*
%TO.N,unconnected-(J9-Pin_36-Pad36)*%
X80099000Y-96863000D03*
%TO.N,unconnected-(J9-Pin_37-Pad37)*%
X77559000Y-99403000D03*
%TO.N,unconnected-(J9-Pin_38-Pad38)*%
X80099000Y-99403000D03*
%TO.N,unconnected-(J9-Pin_39-Pad39)*%
X77559000Y-101943000D03*
%TO.N,unconnected-(J9-Pin_40-Pad40)*%
X80099000Y-101943000D03*
%TD*%
D10*
%TO.N,/MCLR2*%
%TO.C,J2*%
X55432500Y-76900000D03*
D11*
%TO.N,unconnected-(J2-Pin_2-Pad2)*%
X55432500Y-75650000D03*
%TO.N,unconnected-(J2-Pin_3-Pad3)*%
X55432500Y-74400000D03*
%TO.N,/PGD2*%
X55432500Y-73150000D03*
%TO.N,/PGC2*%
X55432500Y-71900000D03*
%TD*%
D10*
%TO.N,/MCLR5*%
%TO.C,J5*%
X55432500Y-105100000D03*
D11*
%TO.N,unconnected-(J5-Pin_2-Pad2)*%
X55432500Y-103850000D03*
%TO.N,unconnected-(J5-Pin_3-Pad3)*%
X55432500Y-102600000D03*
%TO.N,/PGD5*%
X55432500Y-101350000D03*
%TO.N,/PGC5*%
X55432500Y-100100000D03*
%TD*%
D10*
%TO.N,/MCLR1*%
%TO.C,J1*%
X55432500Y-67500000D03*
D11*
%TO.N,unconnected-(J1-Pin_2-Pad2)*%
X55432500Y-66250000D03*
%TO.N,unconnected-(J1-Pin_3-Pad3)*%
X55432500Y-65000000D03*
%TO.N,/PGD1*%
X55432500Y-63750000D03*
%TO.N,/PGC1*%
X55432500Y-62500000D03*
%TD*%
D14*
%TO.N,/dspic/B11*%
X74200000Y-111400000D03*
%TO.N,/dspic/B6*%
X60943094Y-94343094D03*
X60400000Y-99800000D03*
X66000000Y-101600000D03*
%TO.N,/dspic/B3*%
X61400000Y-107200000D03*
%TO.N,/dspic/B4*%
X61600000Y-103400000D03*
X57200000Y-100400000D03*
X54600000Y-70600000D03*
%TO.N,/dspic/B5*%
X68000000Y-96340877D03*
X61800000Y-87800000D03*
X60800000Y-84200000D03*
%TO.N,GND*%
X58500000Y-95823750D03*
%TO.N,/GPIO17*%
X60600000Y-90600000D03*
X62052983Y-71241051D03*
X62999997Y-80000000D03*
%TO.N,/GPIO3*%
X63800000Y-77000000D03*
X68400000Y-82324265D03*
%TO.N,/GPIO18*%
X64600000Y-77800000D03*
%TO.N,/GPIO23*%
X73800000Y-95400000D03*
X71800000Y-99400000D03*
%TO.N,VDD*%
X58400000Y-106600000D03*
%TO.N,/dspic/B2*%
X58500000Y-109248750D03*
%TO.N,/dspic/B7*%
X66000000Y-102800000D03*
%TO.N,/GPIO2*%
X73200000Y-102951473D03*
%TO.N,/GPIO10*%
X65200000Y-84600000D03*
X61600000Y-90600000D03*
X73000000Y-70200000D03*
%TO.N,/PGD1*%
X61800000Y-84200000D03*
X61800000Y-72000000D03*
%TO.N,/PGD6*%
X71220728Y-92600000D03*
X71600000Y-101000000D03*
%TO.N,/PGC2*%
X65000000Y-96400000D03*
X61600000Y-95948930D03*
%TO.N,/PGC3*%
X62000000Y-98600000D03*
X64747481Y-98524998D03*
X59005855Y-98984280D03*
%TO.N,/MCLR3*%
X66397936Y-74524998D03*
%TO.N,/MCLR4*%
X67000000Y-75124998D03*
%TO.N,/MCLR5*%
X67800000Y-75000000D03*
%TO.N,/PGC4*%
X66000000Y-96400000D03*
X65600000Y-94000000D03*
%TO.N,/PGC5*%
X62000000Y-97800000D03*
%TO.N,/PGD5*%
X66123526Y-89125001D03*
X60800000Y-98384280D03*
%TO.N,/MCLR6*%
X72651471Y-104500000D03*
X70100000Y-81729275D03*
%TO.N,/dspic/B10*%
X78000000Y-113000000D03*
%TO.N,/PGD8*%
X67048528Y-89048528D03*
%TO.N,/PGC8*%
X65500000Y-104500000D03*
%TO.N,/MCLR8*%
X69500000Y-79500000D03*
%TO.N,VDD*%
X66035000Y-114000000D03*
%TO.N,GND*%
X63035000Y-113775000D03*
X73500000Y-108375000D03*
%TO.N,VDD*%
X73500000Y-100275000D03*
%TO.N,GND*%
X65420000Y-98000000D03*
%TO.N,VDD*%
X67975000Y-98000000D03*
X66380000Y-98000000D03*
%TO.N,/GPIO22*%
X71500000Y-82500000D03*
%TO.N,/GPIO27*%
X72400000Y-72500000D03*
%TO.N,VDD*%
X81331500Y-111132500D03*
%TO.N,GND*%
X81331500Y-105850000D03*
X78831500Y-105850000D03*
X76331500Y-105850000D03*
X58500000Y-114623750D03*
X58500000Y-105223750D03*
X71547199Y-96245001D03*
%TO.N,VDD*%
X71547199Y-97205001D03*
%TO.N,GND*%
X71547199Y-84266301D03*
%TO.N,VDD*%
X71547199Y-85226301D03*
%TO.N,GND*%
X58500000Y-67623750D03*
X58500000Y-77023750D03*
X58500000Y-86423750D03*
X74000000Y-78150000D03*
%TO.N,VDD*%
X71547199Y-73205001D03*
%TO.N,GND*%
X71547199Y-72245001D03*
%TO.N,VDD*%
X71500000Y-57800000D03*
X72449960Y-57800000D03*
X71500000Y-53000000D03*
X72449960Y-53000000D03*
%TO.N,/GPIO24*%
X70372199Y-89725001D03*
%TO.N,/PGC5*%
X66880996Y-96832467D03*
%TD*%
%TA.AperFunction,Conductor*%
%TO.N,GND*%
G36*
X87492939Y-50520185D02*
G01*
X87538694Y-50572989D01*
X87549900Y-50624500D01*
X87549900Y-117350900D01*
X87530215Y-117417939D01*
X87477411Y-117463694D01*
X87425900Y-117474900D01*
X50624500Y-117474900D01*
X50557461Y-117455215D01*
X50511706Y-117402411D01*
X50500500Y-117350900D01*
X50500500Y-109406379D01*
X54232000Y-109406379D01*
X54232000Y-109593620D01*
X54268525Y-109777243D01*
X54268527Y-109777251D01*
X54340176Y-109950228D01*
X54340180Y-109950235D01*
X54410923Y-110056110D01*
X54431800Y-110122787D01*
X54413315Y-110190167D01*
X54410923Y-110193890D01*
X54340180Y-110299764D01*
X54340176Y-110299771D01*
X54268527Y-110472748D01*
X54268525Y-110472756D01*
X54232000Y-110656379D01*
X54232000Y-110843620D01*
X54268525Y-111027243D01*
X54268527Y-111027251D01*
X54340176Y-111200228D01*
X54340180Y-111200235D01*
X54410923Y-111306110D01*
X54431800Y-111372787D01*
X54413315Y-111440167D01*
X54410923Y-111443890D01*
X54340180Y-111549764D01*
X54340176Y-111549771D01*
X54268527Y-111722748D01*
X54268525Y-111722756D01*
X54232000Y-111906379D01*
X54232000Y-112093620D01*
X54268525Y-112277243D01*
X54268527Y-112277251D01*
X54340176Y-112450228D01*
X54340180Y-112450235D01*
X54410923Y-112556110D01*
X54431800Y-112622787D01*
X54413315Y-112690167D01*
X54410923Y-112693890D01*
X54340180Y-112799764D01*
X54340176Y-112799771D01*
X54268527Y-112972748D01*
X54268525Y-112972756D01*
X54232000Y-113156379D01*
X54232000Y-113343620D01*
X54268525Y-113527243D01*
X54268527Y-113527251D01*
X54340177Y-113700230D01*
X54352650Y-113718897D01*
X54357254Y-113725788D01*
X54358041Y-113726965D01*
X54378919Y-113793643D01*
X54360478Y-113860953D01*
X54295498Y-113966300D01*
X54295496Y-113966305D01*
X54242151Y-114127290D01*
X54232000Y-114226647D01*
X54232000Y-114773337D01*
X54232001Y-114773355D01*
X54242150Y-114872707D01*
X54242151Y-114872710D01*
X54295496Y-115033694D01*
X54295501Y-115033705D01*
X54384529Y-115178040D01*
X54384532Y-115178044D01*
X54504455Y-115297967D01*
X54504459Y-115297970D01*
X54648794Y-115386998D01*
X54648797Y-115386999D01*
X54648803Y-115387003D01*
X54809792Y-115440349D01*
X54909155Y-115450500D01*
X55955844Y-115450499D01*
X55955852Y-115450498D01*
X55955855Y-115450498D01*
X56010260Y-115444940D01*
X56055208Y-115440349D01*
X56216197Y-115387003D01*
X56360544Y-115297968D01*
X56480468Y-115178044D01*
X56569503Y-115033697D01*
X56622849Y-114872708D01*
X56633000Y-114773345D01*
X56632999Y-114226656D01*
X56628156Y-114179249D01*
X56622849Y-114127292D01*
X56622848Y-114127289D01*
X56580668Y-113999996D01*
X65229435Y-113999996D01*
X65229435Y-114000003D01*
X65249630Y-114179249D01*
X65249631Y-114179254D01*
X65309211Y-114349523D01*
X65405184Y-114502262D01*
X65532738Y-114629816D01*
X65685478Y-114725789D01*
X65821385Y-114773345D01*
X65855745Y-114785368D01*
X65855750Y-114785369D01*
X66034996Y-114805565D01*
X66035000Y-114805565D01*
X66035004Y-114805565D01*
X66214249Y-114785369D01*
X66214252Y-114785368D01*
X66214255Y-114785368D01*
X66384522Y-114725789D01*
X66537262Y-114629816D01*
X66664816Y-114502262D01*
X66760789Y-114349522D01*
X66820368Y-114179255D01*
X66840565Y-114000000D01*
X66836768Y-113966303D01*
X66820369Y-113820750D01*
X66820368Y-113820745D01*
X66760788Y-113650476D01*
X66683355Y-113527243D01*
X66664816Y-113497738D01*
X66537262Y-113370184D01*
X66494981Y-113343617D01*
X66384523Y-113274211D01*
X66214254Y-113214631D01*
X66214249Y-113214630D01*
X66035004Y-113194435D01*
X66034996Y-113194435D01*
X65855750Y-113214630D01*
X65855745Y-113214631D01*
X65685476Y-113274211D01*
X65532737Y-113370184D01*
X65405184Y-113497737D01*
X65309211Y-113650476D01*
X65249631Y-113820745D01*
X65249630Y-113820750D01*
X65229435Y-113999996D01*
X56580668Y-113999996D01*
X56569503Y-113966303D01*
X56504521Y-113860952D01*
X56486081Y-113793561D01*
X56506959Y-113726964D01*
X56524822Y-113700231D01*
X56596473Y-113527251D01*
X56633000Y-113343616D01*
X56633000Y-113156384D01*
X56601893Y-112999996D01*
X77194435Y-112999996D01*
X77194435Y-113000003D01*
X77214630Y-113179249D01*
X77214631Y-113179254D01*
X77274211Y-113349523D01*
X77367341Y-113497737D01*
X77370184Y-113502262D01*
X77497738Y-113629816D01*
X77650478Y-113725789D01*
X77820745Y-113785368D01*
X77820750Y-113785369D01*
X77999996Y-113805565D01*
X78000000Y-113805565D01*
X78000004Y-113805565D01*
X78179249Y-113785369D01*
X78179252Y-113785368D01*
X78179255Y-113785368D01*
X78349522Y-113725789D01*
X78502262Y-113629816D01*
X78629816Y-113502262D01*
X78725789Y-113349522D01*
X78785368Y-113179255D01*
X78787945Y-113156383D01*
X78805565Y-113000003D01*
X78805565Y-112999996D01*
X78785369Y-112820750D01*
X78785368Y-112820745D01*
X78740980Y-112693891D01*
X78725789Y-112650478D01*
X78721776Y-112644092D01*
X78668833Y-112559833D01*
X78629816Y-112497738D01*
X78502262Y-112370184D01*
X78349523Y-112274211D01*
X78179254Y-112214631D01*
X78179249Y-112214630D01*
X78000004Y-112194435D01*
X77999996Y-112194435D01*
X77820750Y-112214630D01*
X77820745Y-112214631D01*
X77650476Y-112274211D01*
X77497737Y-112370184D01*
X77370184Y-112497737D01*
X77274211Y-112650476D01*
X77214631Y-112820745D01*
X77214630Y-112820750D01*
X77194435Y-112999996D01*
X56601893Y-112999996D01*
X56596473Y-112972749D01*
X56524822Y-112799769D01*
X56524819Y-112799764D01*
X56524818Y-112799762D01*
X56454077Y-112693891D01*
X56433199Y-112627213D01*
X56451683Y-112559833D01*
X56454077Y-112556109D01*
X56524818Y-112450237D01*
X56524819Y-112450235D01*
X56524822Y-112450231D01*
X56596473Y-112277251D01*
X56633000Y-112093616D01*
X56633000Y-111906384D01*
X56596473Y-111722749D01*
X56524822Y-111549769D01*
X56524819Y-111549764D01*
X56524818Y-111549762D01*
X56454077Y-111443891D01*
X56440333Y-111399996D01*
X73394435Y-111399996D01*
X73394435Y-111400003D01*
X73414630Y-111579249D01*
X73414631Y-111579254D01*
X73474211Y-111749523D01*
X73542553Y-111858288D01*
X73570184Y-111902262D01*
X73697738Y-112029816D01*
X73850478Y-112125789D01*
X74020745Y-112185368D01*
X74020750Y-112185369D01*
X74199996Y-112205565D01*
X74200000Y-112205565D01*
X74200004Y-112205565D01*
X74379249Y-112185369D01*
X74379252Y-112185368D01*
X74379255Y-112185368D01*
X74549522Y-112125789D01*
X74702262Y-112029816D01*
X74829816Y-111902262D01*
X74925789Y-111749522D01*
X74985368Y-111579255D01*
X74988690Y-111549771D01*
X75005565Y-111400003D01*
X75005565Y-111399996D01*
X74985369Y-111220750D01*
X74985368Y-111220745D01*
X74954488Y-111132496D01*
X80525935Y-111132496D01*
X80525935Y-111132503D01*
X80546130Y-111311749D01*
X80546131Y-111311754D01*
X80605711Y-111482023D01*
X80701684Y-111634762D01*
X80829238Y-111762316D01*
X80981978Y-111858289D01*
X81107646Y-111902262D01*
X81152245Y-111917868D01*
X81152250Y-111917869D01*
X81331496Y-111938065D01*
X81331500Y-111938065D01*
X81331504Y-111938065D01*
X81510749Y-111917869D01*
X81510752Y-111917868D01*
X81510755Y-111917868D01*
X81681022Y-111858289D01*
X81833762Y-111762316D01*
X81961316Y-111634762D01*
X82057289Y-111482022D01*
X82116868Y-111311755D01*
X82127122Y-111220750D01*
X82137065Y-111132503D01*
X82137065Y-111132496D01*
X82116869Y-110953250D01*
X82116868Y-110953245D01*
X82097445Y-110897737D01*
X82057289Y-110782978D01*
X81961316Y-110630238D01*
X81833762Y-110502684D01*
X81786119Y-110472748D01*
X81681023Y-110406711D01*
X81510754Y-110347131D01*
X81510749Y-110347130D01*
X81331504Y-110326935D01*
X81331496Y-110326935D01*
X81152250Y-110347130D01*
X81152245Y-110347131D01*
X80981976Y-110406711D01*
X80829237Y-110502684D01*
X80701684Y-110630237D01*
X80605711Y-110782976D01*
X80546131Y-110953245D01*
X80546130Y-110953250D01*
X80525935Y-111132496D01*
X74954488Y-111132496D01*
X74925788Y-111050476D01*
X74886582Y-110988080D01*
X74829816Y-110897738D01*
X74702262Y-110770184D01*
X74549523Y-110674211D01*
X74379254Y-110614631D01*
X74379249Y-110614630D01*
X74200004Y-110594435D01*
X74199996Y-110594435D01*
X74020750Y-110614630D01*
X74020745Y-110614631D01*
X73850476Y-110674211D01*
X73697737Y-110770184D01*
X73570184Y-110897737D01*
X73474211Y-111050476D01*
X73414631Y-111220745D01*
X73414630Y-111220750D01*
X73394435Y-111399996D01*
X56440333Y-111399996D01*
X56433199Y-111377213D01*
X56451683Y-111309833D01*
X56454077Y-111306109D01*
X56524818Y-111200237D01*
X56524819Y-111200235D01*
X56524822Y-111200231D01*
X56596473Y-111027251D01*
X56633000Y-110843616D01*
X56633000Y-110656384D01*
X56596473Y-110472749D01*
X56524822Y-110299769D01*
X56524819Y-110299764D01*
X56524818Y-110299762D01*
X56454077Y-110193891D01*
X56433199Y-110127213D01*
X56451683Y-110059833D01*
X56454077Y-110056109D01*
X56524818Y-109950237D01*
X56524819Y-109950235D01*
X56524822Y-109950231D01*
X56596473Y-109777251D01*
X56633000Y-109593616D01*
X56633000Y-109406384D01*
X56601644Y-109248746D01*
X57694435Y-109248746D01*
X57694435Y-109248753D01*
X57714630Y-109427999D01*
X57714631Y-109428004D01*
X57774211Y-109598273D01*
X57870184Y-109751012D01*
X57997738Y-109878566D01*
X58088080Y-109935332D01*
X58111801Y-109950237D01*
X58150478Y-109974539D01*
X58320745Y-110034118D01*
X58320750Y-110034119D01*
X58499996Y-110054315D01*
X58500000Y-110054315D01*
X58500004Y-110054315D01*
X58679249Y-110034119D01*
X58679252Y-110034118D01*
X58679255Y-110034118D01*
X58849522Y-109974539D01*
X59002262Y-109878566D01*
X59129816Y-109751012D01*
X59225789Y-109598272D01*
X59285368Y-109428005D01*
X59287804Y-109406384D01*
X59305565Y-109248753D01*
X59305565Y-109248746D01*
X59285369Y-109069500D01*
X59285368Y-109069495D01*
X59225788Y-108899226D01*
X59129815Y-108746487D01*
X59002262Y-108618934D01*
X58849523Y-108522961D01*
X58679254Y-108463381D01*
X58679249Y-108463380D01*
X58500004Y-108443185D01*
X58499996Y-108443185D01*
X58320750Y-108463380D01*
X58320745Y-108463381D01*
X58150476Y-108522961D01*
X57997737Y-108618934D01*
X57870184Y-108746487D01*
X57774211Y-108899226D01*
X57714631Y-109069495D01*
X57714630Y-109069500D01*
X57694435Y-109248746D01*
X56601644Y-109248746D01*
X56596473Y-109222749D01*
X56524822Y-109049769D01*
X56524821Y-109049768D01*
X56524818Y-109049762D01*
X56420802Y-108894092D01*
X56420799Y-108894088D01*
X56288411Y-108761700D01*
X56288407Y-108761697D01*
X56132737Y-108657681D01*
X56132728Y-108657676D01*
X55959751Y-108586027D01*
X55959743Y-108586025D01*
X55776120Y-108549500D01*
X55776116Y-108549500D01*
X55088884Y-108549500D01*
X55088879Y-108549500D01*
X54905256Y-108586025D01*
X54905248Y-108586027D01*
X54732271Y-108657676D01*
X54732262Y-108657681D01*
X54576592Y-108761697D01*
X54576588Y-108761700D01*
X54444200Y-108894088D01*
X54444197Y-108894092D01*
X54340181Y-109049762D01*
X54340176Y-109049771D01*
X54268527Y-109222748D01*
X54268525Y-109222756D01*
X54232000Y-109406379D01*
X50500500Y-109406379D01*
X50500500Y-106599996D01*
X57594435Y-106599996D01*
X57594435Y-106600003D01*
X57614630Y-106779249D01*
X57614631Y-106779254D01*
X57674211Y-106949523D01*
X57770184Y-107102262D01*
X57897738Y-107229816D01*
X58050478Y-107325789D01*
X58203258Y-107379249D01*
X58220745Y-107385368D01*
X58220750Y-107385369D01*
X58399996Y-107405565D01*
X58400000Y-107405565D01*
X58400004Y-107405565D01*
X58579249Y-107385369D01*
X58579252Y-107385368D01*
X58579255Y-107385368D01*
X58749522Y-107325789D01*
X58902262Y-107229816D01*
X58932082Y-107199996D01*
X60594435Y-107199996D01*
X60594435Y-107200003D01*
X60614630Y-107379249D01*
X60614631Y-107379254D01*
X60674211Y-107549523D01*
X60770184Y-107702262D01*
X60897738Y-107829816D01*
X61050478Y-107925789D01*
X61220745Y-107985368D01*
X61220750Y-107985369D01*
X61399996Y-108005565D01*
X61400000Y-108005565D01*
X61400004Y-108005565D01*
X61579249Y-107985369D01*
X61579252Y-107985368D01*
X61579255Y-107985368D01*
X61749522Y-107925789D01*
X61902262Y-107829816D01*
X62029816Y-107702262D01*
X62125789Y-107549522D01*
X62185368Y-107379255D01*
X62191392Y-107325789D01*
X62205565Y-107200003D01*
X62205565Y-107199996D01*
X62185369Y-107020750D01*
X62185368Y-107020745D01*
X62125788Y-106850476D01*
X62029815Y-106697737D01*
X61902262Y-106570184D01*
X61749523Y-106474211D01*
X61579254Y-106414631D01*
X61579249Y-106414630D01*
X61400004Y-106394435D01*
X61399996Y-106394435D01*
X61220750Y-106414630D01*
X61220745Y-106414631D01*
X61050476Y-106474211D01*
X60897737Y-106570184D01*
X60770184Y-106697737D01*
X60674211Y-106850476D01*
X60614631Y-107020745D01*
X60614630Y-107020750D01*
X60594435Y-107199996D01*
X58932082Y-107199996D01*
X59029816Y-107102262D01*
X59125789Y-106949522D01*
X59185368Y-106779255D01*
X59205565Y-106600000D01*
X59191392Y-106474211D01*
X59185369Y-106420750D01*
X59185368Y-106420745D01*
X59125788Y-106250476D01*
X59029815Y-106097737D01*
X58902262Y-105970184D01*
X58749523Y-105874211D01*
X58579254Y-105814631D01*
X58579249Y-105814630D01*
X58400004Y-105794435D01*
X58399996Y-105794435D01*
X58220750Y-105814630D01*
X58220745Y-105814631D01*
X58050476Y-105874211D01*
X57897737Y-105970184D01*
X57770184Y-106097737D01*
X57674211Y-106250476D01*
X57614631Y-106420745D01*
X57614630Y-106420750D01*
X57594435Y-106599996D01*
X50500500Y-106599996D01*
X50500500Y-100006379D01*
X54232000Y-100006379D01*
X54232000Y-100193620D01*
X54268525Y-100377243D01*
X54268527Y-100377251D01*
X54340176Y-100550228D01*
X54340180Y-100550235D01*
X54410923Y-100656110D01*
X54431800Y-100722787D01*
X54413315Y-100790167D01*
X54410923Y-100793890D01*
X54340180Y-100899764D01*
X54340176Y-100899771D01*
X54268527Y-101072748D01*
X54268525Y-101072756D01*
X54232001Y-101256374D01*
X54232000Y-101256383D01*
X54232000Y-101443620D01*
X54268525Y-101627243D01*
X54268527Y-101627251D01*
X54340176Y-101800228D01*
X54340180Y-101800235D01*
X54410923Y-101906110D01*
X54431800Y-101972787D01*
X54413315Y-102040167D01*
X54410923Y-102043890D01*
X54340180Y-102149764D01*
X54340176Y-102149771D01*
X54268527Y-102322748D01*
X54268525Y-102322756D01*
X54232000Y-102506379D01*
X54232000Y-102693620D01*
X54268525Y-102877243D01*
X54268527Y-102877251D01*
X54340176Y-103050228D01*
X54340180Y-103050235D01*
X54410923Y-103156110D01*
X54431800Y-103222787D01*
X54413315Y-103290167D01*
X54410923Y-103293890D01*
X54340180Y-103399764D01*
X54340176Y-103399771D01*
X54268527Y-103572748D01*
X54268525Y-103572756D01*
X54232000Y-103756379D01*
X54232000Y-103943620D01*
X54268525Y-104127243D01*
X54268527Y-104127251D01*
X54340177Y-104300230D01*
X54358041Y-104326965D01*
X54378919Y-104393643D01*
X54360478Y-104460953D01*
X54295498Y-104566300D01*
X54295496Y-104566305D01*
X54242151Y-104727290D01*
X54232000Y-104826647D01*
X54232000Y-105373337D01*
X54232001Y-105373355D01*
X54242150Y-105472707D01*
X54242151Y-105472710D01*
X54295496Y-105633694D01*
X54295501Y-105633705D01*
X54384529Y-105778040D01*
X54384532Y-105778044D01*
X54504455Y-105897967D01*
X54504459Y-105897970D01*
X54648794Y-105986998D01*
X54648797Y-105986999D01*
X54648803Y-105987003D01*
X54809792Y-106040349D01*
X54909155Y-106050500D01*
X55955844Y-106050499D01*
X55955852Y-106050498D01*
X55955855Y-106050498D01*
X56010260Y-106044940D01*
X56055208Y-106040349D01*
X56216197Y-105987003D01*
X56360544Y-105897968D01*
X56480468Y-105778044D01*
X56569503Y-105633697D01*
X56622849Y-105472708D01*
X56633000Y-105373345D01*
X56632999Y-104826656D01*
X56622849Y-104727292D01*
X56569503Y-104566303D01*
X56528604Y-104499996D01*
X64694435Y-104499996D01*
X64694435Y-104500003D01*
X64714630Y-104679249D01*
X64714631Y-104679254D01*
X64774211Y-104849523D01*
X64870184Y-105002262D01*
X64997738Y-105129816D01*
X65150478Y-105225789D01*
X65320745Y-105285368D01*
X65320750Y-105285369D01*
X65499996Y-105305565D01*
X65500000Y-105305565D01*
X65500004Y-105305565D01*
X65679249Y-105285369D01*
X65679252Y-105285368D01*
X65679255Y-105285368D01*
X65849522Y-105225789D01*
X66002262Y-105129816D01*
X66129816Y-105002262D01*
X66225789Y-104849522D01*
X66285368Y-104679255D01*
X66285369Y-104679249D01*
X66305565Y-104500003D01*
X66305565Y-104499996D01*
X71845906Y-104499996D01*
X71845906Y-104500003D01*
X71866101Y-104679249D01*
X71866102Y-104679254D01*
X71925682Y-104849523D01*
X72021655Y-105002262D01*
X72149209Y-105129816D01*
X72301949Y-105225789D01*
X72472216Y-105285368D01*
X72472221Y-105285369D01*
X72651467Y-105305565D01*
X72651471Y-105305565D01*
X72651475Y-105305565D01*
X72830720Y-105285369D01*
X72830723Y-105285368D01*
X72830726Y-105285368D01*
X73000993Y-105225789D01*
X73153733Y-105129816D01*
X73281287Y-105002262D01*
X73377260Y-104849522D01*
X73436839Y-104679255D01*
X73436840Y-104679249D01*
X73457036Y-104500003D01*
X73457036Y-104499996D01*
X73436840Y-104320750D01*
X73436839Y-104320745D01*
X73389469Y-104185369D01*
X73377260Y-104150478D01*
X73362665Y-104127251D01*
X73281286Y-103997737D01*
X73238801Y-103955252D01*
X73205316Y-103893929D01*
X73210300Y-103824237D01*
X73252172Y-103768304D01*
X73312595Y-103744351D01*
X73379255Y-103736841D01*
X73549522Y-103677262D01*
X73702262Y-103581289D01*
X73829816Y-103453735D01*
X73925789Y-103300995D01*
X73985368Y-103130728D01*
X73994437Y-103050237D01*
X74005565Y-102951476D01*
X74005565Y-102951469D01*
X73985369Y-102772223D01*
X73985368Y-102772218D01*
X73951074Y-102674211D01*
X73925789Y-102601951D01*
X73921066Y-102594435D01*
X73865740Y-102506384D01*
X73829816Y-102449211D01*
X73702262Y-102321657D01*
X73648190Y-102287681D01*
X73549523Y-102225684D01*
X73379254Y-102166104D01*
X73379249Y-102166103D01*
X73200004Y-102145908D01*
X73199996Y-102145908D01*
X73020750Y-102166103D01*
X73020745Y-102166104D01*
X72850476Y-102225684D01*
X72697737Y-102321657D01*
X72570184Y-102449210D01*
X72474211Y-102601949D01*
X72414631Y-102772218D01*
X72414630Y-102772223D01*
X72394435Y-102951469D01*
X72394435Y-102951476D01*
X72414630Y-103130722D01*
X72414631Y-103130727D01*
X72474211Y-103300996D01*
X72570184Y-103453735D01*
X72612669Y-103496220D01*
X72646154Y-103557543D01*
X72641170Y-103627235D01*
X72599298Y-103683168D01*
X72538872Y-103707121D01*
X72472220Y-103714630D01*
X72472216Y-103714631D01*
X72301947Y-103774211D01*
X72149208Y-103870184D01*
X72021655Y-103997737D01*
X71925682Y-104150476D01*
X71866102Y-104320745D01*
X71866101Y-104320750D01*
X71845906Y-104499996D01*
X66305565Y-104499996D01*
X66285369Y-104320750D01*
X66285368Y-104320745D01*
X66237998Y-104185369D01*
X66225789Y-104150478D01*
X66211194Y-104127251D01*
X66129815Y-103997737D01*
X66002262Y-103870184D01*
X65944868Y-103834120D01*
X65898578Y-103781787D01*
X65887930Y-103712734D01*
X65916305Y-103648885D01*
X65974694Y-103610513D01*
X65996958Y-103605908D01*
X66179249Y-103585369D01*
X66179252Y-103585368D01*
X66179255Y-103585368D01*
X66349522Y-103525789D01*
X66502262Y-103429816D01*
X66629816Y-103302262D01*
X66725789Y-103149522D01*
X66785368Y-102979255D01*
X66788498Y-102951476D01*
X66805565Y-102800003D01*
X66805565Y-102799996D01*
X66785369Y-102620750D01*
X66785368Y-102620745D01*
X66745351Y-102506383D01*
X66725789Y-102450478D01*
X66724992Y-102449210D01*
X66629815Y-102297737D01*
X66619759Y-102287681D01*
X66586274Y-102226358D01*
X66591258Y-102156666D01*
X66619759Y-102112319D01*
X66629816Y-102102262D01*
X66725789Y-101949522D01*
X66785368Y-101779255D01*
X66791392Y-101725789D01*
X66805565Y-101600003D01*
X66805565Y-101599996D01*
X66785369Y-101420750D01*
X66785368Y-101420745D01*
X66730930Y-101265171D01*
X66725789Y-101250478D01*
X66629816Y-101097738D01*
X66532074Y-100999996D01*
X70794435Y-100999996D01*
X70794435Y-101000003D01*
X70814630Y-101179249D01*
X70814631Y-101179254D01*
X70874211Y-101349523D01*
X70933334Y-101443616D01*
X70970184Y-101502262D01*
X71097738Y-101629816D01*
X71188080Y-101686582D01*
X71221517Y-101707592D01*
X71250478Y-101725789D01*
X71403258Y-101779249D01*
X71420745Y-101785368D01*
X71420750Y-101785369D01*
X71599996Y-101805565D01*
X71600000Y-101805565D01*
X71600004Y-101805565D01*
X71779249Y-101785369D01*
X71779252Y-101785368D01*
X71779255Y-101785368D01*
X71949522Y-101725789D01*
X72102262Y-101629816D01*
X72229816Y-101502262D01*
X72325789Y-101349522D01*
X72385368Y-101179255D01*
X72391392Y-101125789D01*
X72405565Y-101000003D01*
X72405565Y-100999996D01*
X72385369Y-100820750D01*
X72385368Y-100820745D01*
X72332073Y-100668438D01*
X72325789Y-100650478D01*
X72309480Y-100624523D01*
X72262802Y-100550235D01*
X72229816Y-100497738D01*
X72102262Y-100370184D01*
X72102259Y-100370182D01*
X72087360Y-100360820D01*
X72041069Y-100308485D01*
X72035906Y-100274996D01*
X72694435Y-100274996D01*
X72694435Y-100275003D01*
X72714630Y-100454249D01*
X72714631Y-100454254D01*
X72774211Y-100624523D01*
X72849342Y-100744092D01*
X72870184Y-100777262D01*
X72997738Y-100904816D01*
X73150478Y-101000789D01*
X73320745Y-101060368D01*
X73320750Y-101060369D01*
X73499996Y-101080565D01*
X73500000Y-101080565D01*
X73500004Y-101080565D01*
X73679249Y-101060369D01*
X73679252Y-101060368D01*
X73679255Y-101060368D01*
X73849522Y-101000789D01*
X74002262Y-100904816D01*
X74129816Y-100777262D01*
X74225789Y-100624522D01*
X74285368Y-100454255D01*
X74285369Y-100454249D01*
X74305565Y-100275003D01*
X74305565Y-100274996D01*
X74285369Y-100095750D01*
X74285368Y-100095745D01*
X74225788Y-99925476D01*
X74161239Y-99822748D01*
X74129816Y-99772738D01*
X74002262Y-99645184D01*
X73953639Y-99614632D01*
X73849523Y-99549211D01*
X73679254Y-99489631D01*
X73679249Y-99489630D01*
X73500004Y-99469435D01*
X73499996Y-99469435D01*
X73320750Y-99489630D01*
X73320745Y-99489631D01*
X73150476Y-99549211D01*
X72997737Y-99645184D01*
X72870184Y-99772737D01*
X72774211Y-99925476D01*
X72714631Y-100095745D01*
X72714630Y-100095750D01*
X72694435Y-100274996D01*
X72035906Y-100274996D01*
X72030422Y-100239431D01*
X72058798Y-100175583D01*
X72112377Y-100138786D01*
X72149522Y-100125789D01*
X72302262Y-100029816D01*
X72429816Y-99902262D01*
X72525789Y-99749522D01*
X72585368Y-99579255D01*
X72588753Y-99549211D01*
X72605565Y-99400003D01*
X72605565Y-99399996D01*
X72585369Y-99220750D01*
X72585368Y-99220745D01*
X72543331Y-99100611D01*
X72525789Y-99050478D01*
X72503265Y-99014632D01*
X72429815Y-98897737D01*
X72302262Y-98770184D01*
X72149523Y-98674211D01*
X71979254Y-98614631D01*
X71979249Y-98614630D01*
X71800004Y-98594435D01*
X71799996Y-98594435D01*
X71620750Y-98614630D01*
X71620745Y-98614631D01*
X71450476Y-98674211D01*
X71297737Y-98770184D01*
X71170184Y-98897737D01*
X71074211Y-99050476D01*
X71014631Y-99220745D01*
X71014630Y-99220750D01*
X70994435Y-99399996D01*
X70994435Y-99400003D01*
X71014630Y-99579249D01*
X71014631Y-99579254D01*
X71074211Y-99749523D01*
X71147816Y-99866664D01*
X71170184Y-99902262D01*
X71297738Y-100029816D01*
X71312638Y-100039178D01*
X71358929Y-100091513D01*
X71369577Y-100160566D01*
X71341202Y-100224415D01*
X71287621Y-100261213D01*
X71250480Y-100274209D01*
X71097737Y-100370184D01*
X70970184Y-100497737D01*
X70874211Y-100650476D01*
X70814631Y-100820745D01*
X70814630Y-100820750D01*
X70794435Y-100999996D01*
X66532074Y-100999996D01*
X66502262Y-100970184D01*
X66398230Y-100904816D01*
X66349523Y-100874211D01*
X66179254Y-100814631D01*
X66179249Y-100814630D01*
X66000004Y-100794435D01*
X65999996Y-100794435D01*
X65820750Y-100814630D01*
X65820745Y-100814631D01*
X65650476Y-100874211D01*
X65497737Y-100970184D01*
X65370184Y-101097737D01*
X65274211Y-101250476D01*
X65214631Y-101420745D01*
X65214630Y-101420750D01*
X65194435Y-101599996D01*
X65194435Y-101600003D01*
X65214630Y-101779249D01*
X65214631Y-101779254D01*
X65274211Y-101949523D01*
X65370184Y-102102262D01*
X65380241Y-102112319D01*
X65413726Y-102173642D01*
X65408742Y-102243334D01*
X65380241Y-102287681D01*
X65370184Y-102297737D01*
X65274211Y-102450476D01*
X65214631Y-102620745D01*
X65214630Y-102620750D01*
X65194435Y-102799996D01*
X65194435Y-102800003D01*
X65214630Y-102979249D01*
X65214631Y-102979254D01*
X65274211Y-103149523D01*
X65370184Y-103302262D01*
X65497740Y-103429818D01*
X65555129Y-103465877D01*
X65601421Y-103518211D01*
X65612070Y-103587265D01*
X65583695Y-103651113D01*
X65525305Y-103689485D01*
X65503042Y-103694091D01*
X65320749Y-103714630D01*
X65320745Y-103714631D01*
X65150476Y-103774211D01*
X64997737Y-103870184D01*
X64870184Y-103997737D01*
X64774211Y-104150476D01*
X64714631Y-104320745D01*
X64714630Y-104320750D01*
X64694435Y-104499996D01*
X56528604Y-104499996D01*
X56504521Y-104460952D01*
X56486081Y-104393561D01*
X56506959Y-104326964D01*
X56524822Y-104300231D01*
X56596473Y-104127251D01*
X56633000Y-103943616D01*
X56633000Y-103756384D01*
X56596473Y-103572749D01*
X56524916Y-103399996D01*
X60794435Y-103399996D01*
X60794435Y-103400003D01*
X60814630Y-103579249D01*
X60814631Y-103579254D01*
X60874211Y-103749523D01*
X60950028Y-103870184D01*
X60970184Y-103902262D01*
X61097738Y-104029816D01*
X61250478Y-104125789D01*
X61420745Y-104185368D01*
X61420750Y-104185369D01*
X61599996Y-104205565D01*
X61600000Y-104205565D01*
X61600004Y-104205565D01*
X61779249Y-104185369D01*
X61779252Y-104185368D01*
X61779255Y-104185368D01*
X61949522Y-104125789D01*
X62102262Y-104029816D01*
X62229816Y-103902262D01*
X62325789Y-103749522D01*
X62385368Y-103579255D01*
X62385369Y-103579249D01*
X62405565Y-103400003D01*
X62405565Y-103399996D01*
X62385369Y-103220750D01*
X62385368Y-103220745D01*
X62353869Y-103130727D01*
X62325789Y-103050478D01*
X62325636Y-103050235D01*
X62229815Y-102897737D01*
X62102262Y-102770184D01*
X61949523Y-102674211D01*
X61779254Y-102614631D01*
X61779249Y-102614630D01*
X61600004Y-102594435D01*
X61599996Y-102594435D01*
X61420750Y-102614630D01*
X61420745Y-102614631D01*
X61250476Y-102674211D01*
X61097737Y-102770184D01*
X60970184Y-102897737D01*
X60874211Y-103050476D01*
X60814631Y-103220745D01*
X60814630Y-103220750D01*
X60794435Y-103399996D01*
X56524916Y-103399996D01*
X56524822Y-103399769D01*
X56524819Y-103399764D01*
X56524818Y-103399762D01*
X56454077Y-103293891D01*
X56433199Y-103227213D01*
X56451683Y-103159833D01*
X56454077Y-103156109D01*
X56524818Y-103050237D01*
X56524819Y-103050235D01*
X56524822Y-103050231D01*
X56596473Y-102877251D01*
X56633000Y-102693616D01*
X56633000Y-102506384D01*
X56596473Y-102322749D01*
X56524822Y-102149769D01*
X56524819Y-102149764D01*
X56524818Y-102149762D01*
X56454077Y-102043891D01*
X56433199Y-101977213D01*
X56451683Y-101909833D01*
X56454077Y-101906109D01*
X56524818Y-101800237D01*
X56524819Y-101800235D01*
X56524822Y-101800231D01*
X56596473Y-101627251D01*
X56633000Y-101443616D01*
X56633000Y-101256384D01*
X56628410Y-101233309D01*
X56634636Y-101163722D01*
X56677498Y-101108543D01*
X56743387Y-101085297D01*
X56811384Y-101101363D01*
X56815998Y-101104125D01*
X56850474Y-101125787D01*
X56850475Y-101125787D01*
X56850478Y-101125789D01*
X57003258Y-101179249D01*
X57020745Y-101185368D01*
X57020750Y-101185369D01*
X57199996Y-101205565D01*
X57200000Y-101205565D01*
X57200004Y-101205565D01*
X57379249Y-101185369D01*
X57379252Y-101185368D01*
X57379255Y-101185368D01*
X57549522Y-101125789D01*
X57702262Y-101029816D01*
X57829816Y-100902262D01*
X57925789Y-100749522D01*
X57985368Y-100579255D01*
X57985618Y-100577035D01*
X58005565Y-100400003D01*
X58005565Y-100399996D01*
X57985369Y-100220750D01*
X57985368Y-100220745D01*
X57960446Y-100149522D01*
X57925789Y-100050478D01*
X57922483Y-100045217D01*
X57847245Y-99925476D01*
X57829816Y-99897738D01*
X57702262Y-99770184D01*
X57669379Y-99749522D01*
X57549523Y-99674211D01*
X57379254Y-99614631D01*
X57379249Y-99614630D01*
X57200004Y-99594435D01*
X57199996Y-99594435D01*
X57020750Y-99614630D01*
X57020745Y-99614631D01*
X56850474Y-99674212D01*
X56724445Y-99753401D01*
X56657209Y-99772401D01*
X56590374Y-99752033D01*
X56545160Y-99698765D01*
X56543934Y-99695909D01*
X56524822Y-99649769D01*
X56524818Y-99649762D01*
X56420802Y-99494092D01*
X56420799Y-99494088D01*
X56288411Y-99361700D01*
X56288407Y-99361697D01*
X56132737Y-99257681D01*
X56132728Y-99257676D01*
X55959751Y-99186027D01*
X55959743Y-99186025D01*
X55776120Y-99149500D01*
X55776116Y-99149500D01*
X55088884Y-99149500D01*
X55088879Y-99149500D01*
X54905256Y-99186025D01*
X54905248Y-99186027D01*
X54732271Y-99257676D01*
X54732262Y-99257681D01*
X54576592Y-99361697D01*
X54576588Y-99361700D01*
X54444200Y-99494088D01*
X54444197Y-99494092D01*
X54340181Y-99649762D01*
X54340176Y-99649771D01*
X54268527Y-99822748D01*
X54268525Y-99822756D01*
X54232000Y-100006379D01*
X50500500Y-100006379D01*
X50500500Y-98984276D01*
X58200290Y-98984276D01*
X58200290Y-98984283D01*
X58220485Y-99163529D01*
X58220486Y-99163534D01*
X58280066Y-99333803D01*
X58353377Y-99450476D01*
X58376039Y-99486542D01*
X58503593Y-99614096D01*
X58656333Y-99710069D01*
X58769083Y-99749522D01*
X58826600Y-99769648D01*
X58826605Y-99769649D01*
X59005851Y-99789845D01*
X59005855Y-99789845D01*
X59005859Y-99789845D01*
X59185104Y-99769649D01*
X59185107Y-99769648D01*
X59185110Y-99769648D01*
X59355377Y-99710069D01*
X59405532Y-99678553D01*
X59472765Y-99659554D01*
X59539601Y-99679921D01*
X59584816Y-99733188D01*
X59594049Y-99793036D01*
X59594435Y-99793036D01*
X59594435Y-99795538D01*
X59594725Y-99797418D01*
X59594435Y-99799994D01*
X59594435Y-99800003D01*
X59614630Y-99979249D01*
X59614631Y-99979254D01*
X59674211Y-100149523D01*
X59752678Y-100274401D01*
X59770184Y-100302262D01*
X59897738Y-100429816D01*
X59988080Y-100486582D01*
X60005833Y-100497737D01*
X60050478Y-100525789D01*
X60120341Y-100550235D01*
X60220745Y-100585368D01*
X60220750Y-100585369D01*
X60399996Y-100605565D01*
X60400000Y-100605565D01*
X60400004Y-100605565D01*
X60579249Y-100585369D01*
X60579252Y-100585368D01*
X60579255Y-100585368D01*
X60749522Y-100525789D01*
X60902262Y-100429816D01*
X61029816Y-100302262D01*
X61125789Y-100149522D01*
X61185368Y-99979255D01*
X61191427Y-99925478D01*
X61205565Y-99800003D01*
X61205565Y-99799996D01*
X61185369Y-99620750D01*
X61185368Y-99620745D01*
X61141049Y-99494088D01*
X61125789Y-99450478D01*
X61094073Y-99400003D01*
X61037451Y-99309889D01*
X61018451Y-99242652D01*
X61038819Y-99175817D01*
X61092086Y-99130603D01*
X61101493Y-99126875D01*
X61107638Y-99124725D01*
X61110984Y-99123553D01*
X61149520Y-99110070D01*
X61156435Y-99105725D01*
X61206843Y-99074051D01*
X61274078Y-99055051D01*
X61340914Y-99075418D01*
X61365109Y-99097488D01*
X61365260Y-99097338D01*
X61368533Y-99100611D01*
X61369763Y-99101733D01*
X61370180Y-99102257D01*
X61370184Y-99102262D01*
X61497738Y-99229816D01*
X61650478Y-99325789D01*
X61753100Y-99361698D01*
X61820745Y-99385368D01*
X61820750Y-99385369D01*
X61999996Y-99405565D01*
X62000000Y-99405565D01*
X62000004Y-99405565D01*
X62179249Y-99385369D01*
X62179252Y-99385368D01*
X62179255Y-99385368D01*
X62349522Y-99325789D01*
X62502262Y-99229816D01*
X62629816Y-99102262D01*
X62725789Y-98949522D01*
X62785368Y-98779255D01*
X62786639Y-98767977D01*
X62805565Y-98600003D01*
X62805565Y-98599996D01*
X62797114Y-98524994D01*
X63941916Y-98524994D01*
X63941916Y-98525001D01*
X63962111Y-98704247D01*
X63962112Y-98704252D01*
X64021692Y-98874521D01*
X64109730Y-99014632D01*
X64117665Y-99027260D01*
X64245219Y-99154814D01*
X64397959Y-99250787D01*
X64532137Y-99297738D01*
X64568226Y-99310366D01*
X64568231Y-99310367D01*
X64747477Y-99330563D01*
X64747481Y-99330563D01*
X64747485Y-99330563D01*
X64926730Y-99310367D01*
X64926733Y-99310366D01*
X64926736Y-99310366D01*
X65097003Y-99250787D01*
X65249743Y-99154814D01*
X65377297Y-99027260D01*
X65473270Y-98874520D01*
X65532849Y-98704253D01*
X65540679Y-98634758D01*
X65546482Y-98583259D01*
X65573548Y-98518845D01*
X65631143Y-98479290D01*
X65700980Y-98477152D01*
X65757383Y-98509461D01*
X65877738Y-98629816D01*
X66030478Y-98725789D01*
X66157352Y-98770184D01*
X66200745Y-98785368D01*
X66200750Y-98785369D01*
X66379996Y-98805565D01*
X66380000Y-98805565D01*
X66380004Y-98805565D01*
X66559249Y-98785369D01*
X66559252Y-98785368D01*
X66559255Y-98785368D01*
X66729522Y-98725789D01*
X66882262Y-98629816D01*
X67009816Y-98502262D01*
X67072506Y-98402490D01*
X67124841Y-98356200D01*
X67193894Y-98345552D01*
X67257743Y-98373927D01*
X67282492Y-98402489D01*
X67345184Y-98502262D01*
X67472738Y-98629816D01*
X67625478Y-98725789D01*
X67752352Y-98770184D01*
X67795745Y-98785368D01*
X67795750Y-98785369D01*
X67974996Y-98805565D01*
X67975000Y-98805565D01*
X67975004Y-98805565D01*
X68154249Y-98785369D01*
X68154252Y-98785368D01*
X68154255Y-98785368D01*
X68324522Y-98725789D01*
X68477262Y-98629816D01*
X68604816Y-98502262D01*
X68700789Y-98349522D01*
X68760368Y-98179255D01*
X68762942Y-98156411D01*
X68780565Y-98000003D01*
X68780565Y-97999996D01*
X68760369Y-97820750D01*
X68760368Y-97820745D01*
X68737175Y-97754464D01*
X68700789Y-97650478D01*
X68682106Y-97620745D01*
X68631895Y-97540834D01*
X68604816Y-97497738D01*
X68477262Y-97370184D01*
X68477260Y-97370182D01*
X68338349Y-97282898D01*
X68292059Y-97230564D01*
X68288117Y-97204997D01*
X70741634Y-97204997D01*
X70741634Y-97205004D01*
X70761829Y-97384250D01*
X70761830Y-97384255D01*
X70821410Y-97554524D01*
X70886737Y-97658491D01*
X70917383Y-97707263D01*
X71044937Y-97834817D01*
X71197677Y-97930790D01*
X71336165Y-97979249D01*
X71367944Y-97990369D01*
X71367949Y-97990370D01*
X71547195Y-98010566D01*
X71547199Y-98010566D01*
X71547203Y-98010566D01*
X71726448Y-97990370D01*
X71726451Y-97990369D01*
X71726454Y-97990369D01*
X71896721Y-97930790D01*
X72049461Y-97834817D01*
X72177015Y-97707263D01*
X72272988Y-97554523D01*
X72332567Y-97384256D01*
X72334153Y-97370182D01*
X72352764Y-97205004D01*
X72352764Y-97204997D01*
X72332568Y-97025751D01*
X72332567Y-97025746D01*
X72289358Y-96902262D01*
X72272988Y-96855479D01*
X72177015Y-96702739D01*
X72049461Y-96575185D01*
X71961845Y-96520132D01*
X71896722Y-96479212D01*
X71726453Y-96419632D01*
X71726448Y-96419631D01*
X71547203Y-96399436D01*
X71547195Y-96399436D01*
X71367949Y-96419631D01*
X71367944Y-96419632D01*
X71197675Y-96479212D01*
X71044936Y-96575185D01*
X70917383Y-96702738D01*
X70821410Y-96855477D01*
X70761830Y-97025746D01*
X70761829Y-97025751D01*
X70741634Y-97204997D01*
X68288117Y-97204997D01*
X68281411Y-97161510D01*
X68309786Y-97097662D01*
X68344110Y-97071141D01*
X68343626Y-97070371D01*
X68408170Y-97029815D01*
X68502262Y-96970693D01*
X68629816Y-96843139D01*
X68725789Y-96690399D01*
X68785368Y-96520132D01*
X68787865Y-96497970D01*
X68805565Y-96340880D01*
X68805565Y-96340873D01*
X68785369Y-96161627D01*
X68785368Y-96161622D01*
X68773668Y-96128185D01*
X68725789Y-95991355D01*
X68699133Y-95948933D01*
X68629815Y-95838614D01*
X68502262Y-95711061D01*
X68349523Y-95615088D01*
X68179254Y-95555508D01*
X68179249Y-95555507D01*
X68000004Y-95535312D01*
X67999996Y-95535312D01*
X67820750Y-95555507D01*
X67820745Y-95555508D01*
X67650476Y-95615088D01*
X67497737Y-95711061D01*
X67370184Y-95838614D01*
X67274212Y-95991352D01*
X67271193Y-95997623D01*
X67269913Y-95997007D01*
X67233707Y-96047467D01*
X67168750Y-96073202D01*
X67116452Y-96066764D01*
X67060253Y-96047099D01*
X67060245Y-96047097D01*
X66881000Y-96026902D01*
X66880992Y-96026902D01*
X66799640Y-96036068D01*
X66730818Y-96024013D01*
X66680763Y-95978820D01*
X66661979Y-95948926D01*
X66629816Y-95897738D01*
X66502262Y-95770184D01*
X66434027Y-95727309D01*
X66349523Y-95674211D01*
X66179254Y-95614631D01*
X66179249Y-95614630D01*
X66000004Y-95594435D01*
X65999996Y-95594435D01*
X65820750Y-95614630D01*
X65820737Y-95614633D01*
X65650479Y-95674209D01*
X65565971Y-95727309D01*
X65498734Y-95746309D01*
X65434029Y-95727309D01*
X65349520Y-95674209D01*
X65179262Y-95614633D01*
X65179249Y-95614630D01*
X65000004Y-95594435D01*
X64999996Y-95594435D01*
X64820750Y-95614630D01*
X64820745Y-95614631D01*
X64650476Y-95674211D01*
X64497737Y-95770184D01*
X64370184Y-95897737D01*
X64274211Y-96050476D01*
X64214631Y-96220745D01*
X64214630Y-96220750D01*
X64194435Y-96399996D01*
X64194435Y-96400003D01*
X64214630Y-96579249D01*
X64214631Y-96579254D01*
X64274211Y-96749523D01*
X64340787Y-96855477D01*
X64370184Y-96902262D01*
X64497738Y-97029816D01*
X64650478Y-97125789D01*
X64709501Y-97146442D01*
X64820745Y-97185368D01*
X64820750Y-97185369D01*
X64999996Y-97205565D01*
X65000000Y-97205565D01*
X65000004Y-97205565D01*
X65179249Y-97185369D01*
X65179252Y-97185368D01*
X65179255Y-97185368D01*
X65349522Y-97125789D01*
X65393091Y-97098413D01*
X65434027Y-97072691D01*
X65501264Y-97053690D01*
X65565973Y-97072691D01*
X65650475Y-97125788D01*
X65813603Y-97182869D01*
X65870379Y-97223591D01*
X65896126Y-97288544D01*
X65882670Y-97357106D01*
X65860330Y-97387592D01*
X65750183Y-97497739D01*
X65654211Y-97650476D01*
X65594631Y-97820745D01*
X65594630Y-97820749D01*
X65580998Y-97941739D01*
X65553931Y-98006153D01*
X65496336Y-98045708D01*
X65426499Y-98047845D01*
X65370097Y-98015536D01*
X65249743Y-97895182D01*
X65097004Y-97799209D01*
X64926735Y-97739629D01*
X64926730Y-97739628D01*
X64747485Y-97719433D01*
X64747477Y-97719433D01*
X64568231Y-97739628D01*
X64568226Y-97739629D01*
X64397957Y-97799209D01*
X64245218Y-97895182D01*
X64117665Y-98022735D01*
X64021692Y-98175474D01*
X63962112Y-98345743D01*
X63962111Y-98345748D01*
X63941916Y-98524994D01*
X62797114Y-98524994D01*
X62785369Y-98420750D01*
X62785366Y-98420737D01*
X62723489Y-98243905D01*
X62725637Y-98243153D01*
X62716035Y-98184872D01*
X62724392Y-98156411D01*
X62723489Y-98156095D01*
X62785366Y-97979262D01*
X62785369Y-97979249D01*
X62805565Y-97800003D01*
X62805565Y-97799996D01*
X62785369Y-97620750D01*
X62785368Y-97620745D01*
X62757406Y-97540834D01*
X62725789Y-97450478D01*
X62629816Y-97297738D01*
X62502262Y-97170184D01*
X62349523Y-97074211D01*
X62179254Y-97014631D01*
X62179249Y-97014630D01*
X62000004Y-96994435D01*
X61999996Y-96994435D01*
X61820750Y-97014630D01*
X61820745Y-97014631D01*
X61650476Y-97074211D01*
X61497737Y-97170184D01*
X61370184Y-97297737D01*
X61274209Y-97450480D01*
X61236716Y-97557629D01*
X61195995Y-97614405D01*
X61131042Y-97640152D01*
X61078721Y-97633716D01*
X60979257Y-97598912D01*
X60979249Y-97598910D01*
X60800004Y-97578715D01*
X60799996Y-97578715D01*
X60620750Y-97598910D01*
X60620745Y-97598911D01*
X60450476Y-97658491D01*
X60297737Y-97754464D01*
X60170184Y-97882017D01*
X60074211Y-98034756D01*
X60014631Y-98205025D01*
X60014630Y-98205030D01*
X59994435Y-98384276D01*
X59994435Y-98384283D01*
X60014630Y-98563529D01*
X60014631Y-98563534D01*
X60074211Y-98733803D01*
X60162548Y-98874390D01*
X60181548Y-98941627D01*
X60161180Y-99008462D01*
X60107912Y-99053676D01*
X60098509Y-99057403D01*
X60050480Y-99074209D01*
X60000323Y-99105725D01*
X59933086Y-99124725D01*
X59866251Y-99104357D01*
X59821037Y-99051089D01*
X59811809Y-98991244D01*
X59811420Y-98991244D01*
X59811420Y-98988720D01*
X59811131Y-98986846D01*
X59811420Y-98984281D01*
X59811420Y-98984276D01*
X59791224Y-98805030D01*
X59791223Y-98805025D01*
X59731643Y-98634756D01*
X59666825Y-98531599D01*
X59635671Y-98482018D01*
X59508117Y-98354464D01*
X59355378Y-98258491D01*
X59185109Y-98198911D01*
X59185104Y-98198910D01*
X59005859Y-98178715D01*
X59005851Y-98178715D01*
X58826605Y-98198910D01*
X58826600Y-98198911D01*
X58656331Y-98258491D01*
X58503592Y-98354464D01*
X58376039Y-98482017D01*
X58280066Y-98634756D01*
X58220486Y-98805025D01*
X58220485Y-98805030D01*
X58200290Y-98984276D01*
X50500500Y-98984276D01*
X50500500Y-90606379D01*
X54232000Y-90606379D01*
X54232000Y-90793620D01*
X54268525Y-90977243D01*
X54268527Y-90977251D01*
X54340176Y-91150228D01*
X54340180Y-91150235D01*
X54410923Y-91256110D01*
X54431800Y-91322787D01*
X54413315Y-91390167D01*
X54410923Y-91393890D01*
X54340180Y-91499764D01*
X54340176Y-91499771D01*
X54268527Y-91672748D01*
X54268525Y-91672756D01*
X54232000Y-91856379D01*
X54232000Y-92043620D01*
X54268525Y-92227243D01*
X54268527Y-92227251D01*
X54340176Y-92400228D01*
X54340180Y-92400235D01*
X54410923Y-92506110D01*
X54431800Y-92572787D01*
X54413315Y-92640167D01*
X54410923Y-92643890D01*
X54340180Y-92749764D01*
X54340176Y-92749771D01*
X54268527Y-92922748D01*
X54268525Y-92922756D01*
X54232000Y-93106379D01*
X54232000Y-93293620D01*
X54268525Y-93477243D01*
X54268527Y-93477251D01*
X54340176Y-93650228D01*
X54340180Y-93650235D01*
X54410923Y-93756110D01*
X54431800Y-93822787D01*
X54413315Y-93890167D01*
X54410923Y-93893890D01*
X54340180Y-93999764D01*
X54340176Y-93999771D01*
X54268527Y-94172748D01*
X54268525Y-94172756D01*
X54232000Y-94356379D01*
X54232000Y-94543620D01*
X54268525Y-94727243D01*
X54268527Y-94727251D01*
X54340177Y-94900230D01*
X54358041Y-94926965D01*
X54378919Y-94993643D01*
X54360478Y-95060953D01*
X54295498Y-95166300D01*
X54295496Y-95166305D01*
X54242151Y-95327290D01*
X54232000Y-95426647D01*
X54232000Y-95973337D01*
X54232001Y-95973355D01*
X54242150Y-96072707D01*
X54242151Y-96072710D01*
X54295496Y-96233694D01*
X54295501Y-96233705D01*
X54384529Y-96378040D01*
X54384532Y-96378044D01*
X54504455Y-96497967D01*
X54504459Y-96497970D01*
X54648794Y-96586998D01*
X54648797Y-96586999D01*
X54648803Y-96587003D01*
X54809792Y-96640349D01*
X54909155Y-96650500D01*
X55955844Y-96650499D01*
X55955852Y-96650498D01*
X55955855Y-96650498D01*
X56010260Y-96644940D01*
X56055208Y-96640349D01*
X56216197Y-96587003D01*
X56360544Y-96497968D01*
X56480468Y-96378044D01*
X56569503Y-96233697D01*
X56622849Y-96072708D01*
X56633000Y-95973345D01*
X56632999Y-95426656D01*
X56630276Y-95400003D01*
X56622849Y-95327292D01*
X56622848Y-95327289D01*
X56588337Y-95223141D01*
X56569503Y-95166303D01*
X56504521Y-95060952D01*
X56486081Y-94993561D01*
X56506959Y-94926964D01*
X56524822Y-94900231D01*
X56596473Y-94727251D01*
X56633000Y-94543616D01*
X56633000Y-94356384D01*
X56630356Y-94343090D01*
X60137529Y-94343090D01*
X60137529Y-94343097D01*
X60157724Y-94522343D01*
X60157725Y-94522348D01*
X60217305Y-94692617D01*
X60313276Y-94845353D01*
X60313278Y-94845356D01*
X60440832Y-94972910D01*
X60512511Y-95017949D01*
X60564280Y-95050478D01*
X60593572Y-95068883D01*
X60763839Y-95128462D01*
X60763844Y-95128463D01*
X60943090Y-95148659D01*
X60943094Y-95148659D01*
X60943095Y-95148659D01*
X60950120Y-95147867D01*
X60957329Y-95147055D01*
X61026151Y-95159109D01*
X61077531Y-95206457D01*
X61095156Y-95274067D01*
X61073430Y-95340473D01*
X61058896Y-95357956D01*
X60970183Y-95446669D01*
X60874211Y-95599406D01*
X60814631Y-95769675D01*
X60814630Y-95769680D01*
X60794435Y-95948926D01*
X60794435Y-95948933D01*
X60814630Y-96128179D01*
X60814631Y-96128184D01*
X60874211Y-96298453D01*
X60950354Y-96419633D01*
X60970184Y-96451192D01*
X61097738Y-96578746D01*
X61110871Y-96586998D01*
X61211930Y-96650498D01*
X61250478Y-96674719D01*
X61295289Y-96690399D01*
X61420745Y-96734298D01*
X61420750Y-96734299D01*
X61599996Y-96754495D01*
X61600000Y-96754495D01*
X61600004Y-96754495D01*
X61779249Y-96734299D01*
X61779252Y-96734298D01*
X61779255Y-96734298D01*
X61949522Y-96674719D01*
X62102262Y-96578746D01*
X62229816Y-96451192D01*
X62325789Y-96298452D01*
X62385368Y-96128185D01*
X62385638Y-96125788D01*
X62405565Y-95948933D01*
X62405565Y-95948926D01*
X62385369Y-95769680D01*
X62385368Y-95769675D01*
X62385049Y-95768762D01*
X62325789Y-95599408D01*
X62313125Y-95579254D01*
X62285515Y-95535312D01*
X62229816Y-95446668D01*
X62183144Y-95399996D01*
X72994435Y-95399996D01*
X72994435Y-95400003D01*
X73014630Y-95579249D01*
X73014631Y-95579254D01*
X73074211Y-95749523D01*
X73130191Y-95838614D01*
X73170184Y-95902262D01*
X73297738Y-96029816D01*
X73450478Y-96125789D01*
X73552883Y-96161622D01*
X73620745Y-96185368D01*
X73620750Y-96185369D01*
X73799996Y-96205565D01*
X73800000Y-96205565D01*
X73800004Y-96205565D01*
X73979249Y-96185369D01*
X73979252Y-96185368D01*
X73979255Y-96185368D01*
X74149522Y-96125789D01*
X74302262Y-96029816D01*
X74429816Y-95902262D01*
X74525789Y-95749522D01*
X74585368Y-95579255D01*
X74585369Y-95579249D01*
X74605565Y-95400003D01*
X74605565Y-95399996D01*
X74585369Y-95220750D01*
X74585368Y-95220745D01*
X74558853Y-95144969D01*
X74525789Y-95050478D01*
X74507867Y-95021956D01*
X74472216Y-94965217D01*
X74429816Y-94897738D01*
X74302262Y-94770184D01*
X74231608Y-94725789D01*
X74149523Y-94674211D01*
X73979254Y-94614631D01*
X73979249Y-94614630D01*
X73800004Y-94594435D01*
X73799996Y-94594435D01*
X73620750Y-94614630D01*
X73620745Y-94614631D01*
X73450476Y-94674211D01*
X73297737Y-94770184D01*
X73170184Y-94897737D01*
X73074211Y-95050476D01*
X73014631Y-95220745D01*
X73014630Y-95220750D01*
X72994435Y-95399996D01*
X62183144Y-95399996D01*
X62102262Y-95319114D01*
X61949523Y-95223141D01*
X61779254Y-95163561D01*
X61779249Y-95163560D01*
X61600004Y-95143365D01*
X61599999Y-95143365D01*
X61585758Y-95144969D01*
X61516936Y-95132911D01*
X61465559Y-95085560D01*
X61447937Y-95017949D01*
X61469666Y-94951544D01*
X61484188Y-94934077D01*
X61572910Y-94845356D01*
X61668883Y-94692616D01*
X61728462Y-94522349D01*
X61728463Y-94522343D01*
X61748659Y-94343097D01*
X61748659Y-94343090D01*
X61728463Y-94163844D01*
X61728462Y-94163839D01*
X61671130Y-93999996D01*
X64794435Y-93999996D01*
X64794435Y-94000003D01*
X64814630Y-94179249D01*
X64814631Y-94179254D01*
X64874211Y-94349523D01*
X64970184Y-94502262D01*
X65097738Y-94629816D01*
X65168392Y-94674211D01*
X65197683Y-94692616D01*
X65250478Y-94725789D01*
X65377352Y-94770184D01*
X65420745Y-94785368D01*
X65420750Y-94785369D01*
X65599996Y-94805565D01*
X65600000Y-94805565D01*
X65600004Y-94805565D01*
X65779249Y-94785369D01*
X65779252Y-94785368D01*
X65779255Y-94785368D01*
X65949522Y-94725789D01*
X66102262Y-94629816D01*
X66229816Y-94502262D01*
X66325789Y-94349522D01*
X66385368Y-94179255D01*
X66385369Y-94179249D01*
X66405565Y-94000003D01*
X66405565Y-93999996D01*
X66385369Y-93820750D01*
X66385368Y-93820745D01*
X66362751Y-93756109D01*
X66325789Y-93650478D01*
X66325636Y-93650235D01*
X66229815Y-93497737D01*
X66102262Y-93370184D01*
X65949523Y-93274211D01*
X65779254Y-93214631D01*
X65779249Y-93214630D01*
X65600004Y-93194435D01*
X65599996Y-93194435D01*
X65420750Y-93214630D01*
X65420745Y-93214631D01*
X65250476Y-93274211D01*
X65097737Y-93370184D01*
X64970184Y-93497737D01*
X64874211Y-93650476D01*
X64814631Y-93820745D01*
X64814630Y-93820750D01*
X64794435Y-93999996D01*
X61671130Y-93999996D01*
X61671051Y-93999769D01*
X61668883Y-93993572D01*
X61572910Y-93840832D01*
X61445356Y-93713278D01*
X61393641Y-93680783D01*
X61292617Y-93617305D01*
X61122348Y-93557725D01*
X61122343Y-93557724D01*
X60943098Y-93537529D01*
X60943090Y-93537529D01*
X60763844Y-93557724D01*
X60763839Y-93557725D01*
X60593570Y-93617305D01*
X60440831Y-93713278D01*
X60313278Y-93840831D01*
X60217305Y-93993570D01*
X60157725Y-94163839D01*
X60157724Y-94163844D01*
X60137529Y-94343090D01*
X56630356Y-94343090D01*
X56596473Y-94172749D01*
X56524822Y-93999769D01*
X56524819Y-93999764D01*
X56524818Y-93999762D01*
X56454077Y-93893891D01*
X56433199Y-93827213D01*
X56451683Y-93759833D01*
X56454077Y-93756109D01*
X56524818Y-93650237D01*
X56524819Y-93650235D01*
X56524822Y-93650231D01*
X56596473Y-93477251D01*
X56633000Y-93293616D01*
X56633000Y-93106384D01*
X56596473Y-92922749D01*
X56524822Y-92749769D01*
X56524819Y-92749764D01*
X56524818Y-92749762D01*
X56454077Y-92643891D01*
X56440333Y-92599996D01*
X70415163Y-92599996D01*
X70415163Y-92600003D01*
X70435358Y-92779249D01*
X70435359Y-92779254D01*
X70494939Y-92949523D01*
X70574096Y-93075500D01*
X70590912Y-93102262D01*
X70718466Y-93229816D01*
X70871206Y-93325789D01*
X70998080Y-93370184D01*
X71041473Y-93385368D01*
X71041478Y-93385369D01*
X71220724Y-93405565D01*
X71220728Y-93405565D01*
X71220732Y-93405565D01*
X71399977Y-93385369D01*
X71399980Y-93385368D01*
X71399983Y-93385368D01*
X71570250Y-93325789D01*
X71722990Y-93229816D01*
X71850544Y-93102262D01*
X71946517Y-92949522D01*
X72006096Y-92779255D01*
X72009418Y-92749771D01*
X72026293Y-92600003D01*
X72026293Y-92599996D01*
X72006097Y-92420750D01*
X72006096Y-92420745D01*
X71998917Y-92400228D01*
X71946517Y-92250478D01*
X71931922Y-92227251D01*
X71850543Y-92097737D01*
X71722990Y-91970184D01*
X71570251Y-91874211D01*
X71399982Y-91814631D01*
X71399977Y-91814630D01*
X71220732Y-91794435D01*
X71220724Y-91794435D01*
X71041478Y-91814630D01*
X71041473Y-91814631D01*
X70871204Y-91874211D01*
X70718465Y-91970184D01*
X70590912Y-92097737D01*
X70494939Y-92250476D01*
X70435359Y-92420745D01*
X70435358Y-92420750D01*
X70415163Y-92599996D01*
X56440333Y-92599996D01*
X56433199Y-92577213D01*
X56451683Y-92509833D01*
X56454077Y-92506109D01*
X56524818Y-92400237D01*
X56524819Y-92400235D01*
X56524822Y-92400231D01*
X56596473Y-92227251D01*
X56633000Y-92043616D01*
X56633000Y-91856384D01*
X56596473Y-91672749D01*
X56524822Y-91499769D01*
X56524819Y-91499764D01*
X56524818Y-91499762D01*
X56454077Y-91393891D01*
X56433199Y-91327213D01*
X56451683Y-91259833D01*
X56454077Y-91256109D01*
X56524818Y-91150237D01*
X56524819Y-91150235D01*
X56524822Y-91150231D01*
X56596473Y-90977251D01*
X56633000Y-90793616D01*
X56633000Y-90606384D01*
X56631729Y-90599996D01*
X59794435Y-90599996D01*
X59794435Y-90600003D01*
X59814630Y-90779249D01*
X59814631Y-90779254D01*
X59874211Y-90949523D01*
X59891629Y-90977243D01*
X59970184Y-91102262D01*
X60097738Y-91229816D01*
X60139583Y-91256109D01*
X60240209Y-91319337D01*
X60250478Y-91325789D01*
X60420745Y-91385368D01*
X60420750Y-91385369D01*
X60599996Y-91405565D01*
X60600000Y-91405565D01*
X60600004Y-91405565D01*
X60779249Y-91385369D01*
X60779252Y-91385368D01*
X60779255Y-91385368D01*
X60949522Y-91325789D01*
X60959780Y-91319344D01*
X61034027Y-91272691D01*
X61101264Y-91253690D01*
X61165973Y-91272691D01*
X61250475Y-91325788D01*
X61420745Y-91385368D01*
X61420750Y-91385369D01*
X61599996Y-91405565D01*
X61600000Y-91405565D01*
X61600004Y-91405565D01*
X61779249Y-91385369D01*
X61779252Y-91385368D01*
X61779255Y-91385368D01*
X61949522Y-91325789D01*
X62102262Y-91229816D01*
X62229816Y-91102262D01*
X62325789Y-90949522D01*
X62385368Y-90779255D01*
X62385369Y-90779249D01*
X62405565Y-90600003D01*
X62405565Y-90599996D01*
X62385369Y-90420750D01*
X62385368Y-90420745D01*
X62336642Y-90281495D01*
X62325789Y-90250478D01*
X62229816Y-90097738D01*
X62102262Y-89970184D01*
X62064265Y-89946309D01*
X61949523Y-89874211D01*
X61779254Y-89814631D01*
X61779249Y-89814630D01*
X61600004Y-89794435D01*
X61599996Y-89794435D01*
X61420750Y-89814630D01*
X61420737Y-89814633D01*
X61250479Y-89874209D01*
X61165971Y-89927309D01*
X61098734Y-89946309D01*
X61034029Y-89927309D01*
X60949520Y-89874209D01*
X60779262Y-89814633D01*
X60779249Y-89814630D01*
X60600004Y-89794435D01*
X60599996Y-89794435D01*
X60420750Y-89814630D01*
X60420745Y-89814631D01*
X60250476Y-89874211D01*
X60097737Y-89970184D01*
X59970184Y-90097737D01*
X59874211Y-90250476D01*
X59814631Y-90420745D01*
X59814630Y-90420750D01*
X59794435Y-90599996D01*
X56631729Y-90599996D01*
X56596473Y-90422749D01*
X56524822Y-90249769D01*
X56524821Y-90249768D01*
X56524818Y-90249762D01*
X56420802Y-90094092D01*
X56420799Y-90094088D01*
X56288411Y-89961700D01*
X56288407Y-89961697D01*
X56132737Y-89857681D01*
X56132728Y-89857676D01*
X55959751Y-89786027D01*
X55959743Y-89786025D01*
X55776120Y-89749500D01*
X55776116Y-89749500D01*
X55088884Y-89749500D01*
X55088879Y-89749500D01*
X54905256Y-89786025D01*
X54905248Y-89786027D01*
X54732271Y-89857676D01*
X54732262Y-89857681D01*
X54576592Y-89961697D01*
X54576588Y-89961700D01*
X54444200Y-90094088D01*
X54444197Y-90094092D01*
X54340181Y-90249762D01*
X54340176Y-90249771D01*
X54268527Y-90422748D01*
X54268525Y-90422756D01*
X54232000Y-90606379D01*
X50500500Y-90606379D01*
X50500500Y-89124997D01*
X65317961Y-89124997D01*
X65317961Y-89125004D01*
X65338156Y-89304250D01*
X65338157Y-89304255D01*
X65397737Y-89474524D01*
X65493710Y-89627263D01*
X65621264Y-89754817D01*
X65684316Y-89794435D01*
X65716460Y-89814633D01*
X65774004Y-89850790D01*
X65872391Y-89885217D01*
X65944271Y-89910369D01*
X65944276Y-89910370D01*
X66123522Y-89930566D01*
X66123526Y-89930566D01*
X66123530Y-89930566D01*
X66302775Y-89910370D01*
X66302778Y-89910369D01*
X66302781Y-89910369D01*
X66473048Y-89850790D01*
X66581959Y-89782356D01*
X66649194Y-89763356D01*
X66691968Y-89773348D01*
X66692434Y-89772018D01*
X66869265Y-89833894D01*
X66869271Y-89833895D01*
X66869273Y-89833896D01*
X66869274Y-89833896D01*
X66869278Y-89833897D01*
X67048524Y-89854093D01*
X67048528Y-89854093D01*
X67048532Y-89854093D01*
X67227777Y-89833897D01*
X67227780Y-89833896D01*
X67227783Y-89833896D01*
X67398050Y-89774317D01*
X67476542Y-89724997D01*
X69566634Y-89724997D01*
X69566634Y-89725004D01*
X69586829Y-89904250D01*
X69586830Y-89904255D01*
X69646410Y-90074524D01*
X69742383Y-90227263D01*
X69869937Y-90354817D01*
X70022677Y-90450790D01*
X70136162Y-90490500D01*
X70192944Y-90510369D01*
X70192949Y-90510370D01*
X70372195Y-90530566D01*
X70372199Y-90530566D01*
X70372203Y-90530566D01*
X70551448Y-90510370D01*
X70551451Y-90510369D01*
X70551454Y-90510369D01*
X70721721Y-90450790D01*
X70874461Y-90354817D01*
X71002015Y-90227263D01*
X71097988Y-90074523D01*
X71157567Y-89904256D01*
X71160523Y-89878023D01*
X71177764Y-89725004D01*
X71177764Y-89724997D01*
X71157568Y-89545751D01*
X71157567Y-89545746D01*
X71097987Y-89375477D01*
X71005184Y-89227783D01*
X71002015Y-89222739D01*
X70874461Y-89095185D01*
X70800201Y-89048524D01*
X70721722Y-88999212D01*
X70551453Y-88939632D01*
X70551448Y-88939631D01*
X70372203Y-88919436D01*
X70372195Y-88919436D01*
X70192949Y-88939631D01*
X70192944Y-88939632D01*
X70022675Y-88999212D01*
X69869936Y-89095185D01*
X69742383Y-89222738D01*
X69646410Y-89375477D01*
X69586830Y-89545746D01*
X69586829Y-89545751D01*
X69566634Y-89724997D01*
X67476542Y-89724997D01*
X67550790Y-89678344D01*
X67678344Y-89550790D01*
X67774317Y-89398050D01*
X67833896Y-89227783D01*
X67833897Y-89227777D01*
X67854093Y-89048531D01*
X67854093Y-89048524D01*
X67833897Y-88869278D01*
X67833896Y-88869273D01*
X67774316Y-88699004D01*
X67690223Y-88565171D01*
X67678344Y-88546266D01*
X67550790Y-88418712D01*
X67519756Y-88399212D01*
X67398051Y-88322739D01*
X67227782Y-88263159D01*
X67227777Y-88263158D01*
X67048532Y-88242963D01*
X67048524Y-88242963D01*
X66869278Y-88263158D01*
X66869273Y-88263159D01*
X66699004Y-88322739D01*
X66590094Y-88391172D01*
X66522857Y-88410172D01*
X66480085Y-88400180D01*
X66479620Y-88401511D01*
X66302788Y-88339634D01*
X66302775Y-88339631D01*
X66123530Y-88319436D01*
X66123522Y-88319436D01*
X65944276Y-88339631D01*
X65944271Y-88339632D01*
X65774002Y-88399212D01*
X65621263Y-88495185D01*
X65493710Y-88622738D01*
X65397737Y-88775477D01*
X65338157Y-88945746D01*
X65338156Y-88945751D01*
X65317961Y-89124997D01*
X50500500Y-89124997D01*
X50500500Y-87799996D01*
X60994435Y-87799996D01*
X60994435Y-87800003D01*
X61014630Y-87979249D01*
X61014631Y-87979254D01*
X61074211Y-88149523D01*
X61170184Y-88302262D01*
X61297738Y-88429816D01*
X61450478Y-88525789D01*
X61595270Y-88576454D01*
X61620745Y-88585368D01*
X61620750Y-88585369D01*
X61799996Y-88605565D01*
X61800000Y-88605565D01*
X61800004Y-88605565D01*
X61979249Y-88585369D01*
X61979252Y-88585368D01*
X61979255Y-88585368D01*
X62149522Y-88525789D01*
X62302262Y-88429816D01*
X62429816Y-88302262D01*
X62525789Y-88149522D01*
X62585368Y-87979255D01*
X62595634Y-87888145D01*
X62605565Y-87800003D01*
X62605565Y-87799996D01*
X62585369Y-87620750D01*
X62585368Y-87620745D01*
X62569152Y-87574402D01*
X62525789Y-87450478D01*
X62429816Y-87297738D01*
X62302262Y-87170184D01*
X62296646Y-87166655D01*
X62149523Y-87074211D01*
X61979254Y-87014631D01*
X61979249Y-87014630D01*
X61800004Y-86994435D01*
X61799996Y-86994435D01*
X61620750Y-87014630D01*
X61620745Y-87014631D01*
X61450476Y-87074211D01*
X61297737Y-87170184D01*
X61170184Y-87297737D01*
X61074211Y-87450476D01*
X61014631Y-87620745D01*
X61014630Y-87620750D01*
X60994435Y-87799996D01*
X50500500Y-87799996D01*
X50500500Y-81206379D01*
X54232000Y-81206379D01*
X54232000Y-81393620D01*
X54268525Y-81577243D01*
X54268527Y-81577251D01*
X54340176Y-81750228D01*
X54340180Y-81750235D01*
X54410923Y-81856110D01*
X54431800Y-81922787D01*
X54413315Y-81990167D01*
X54410923Y-81993890D01*
X54340180Y-82099764D01*
X54340176Y-82099771D01*
X54268527Y-82272748D01*
X54268525Y-82272756D01*
X54232000Y-82456379D01*
X54232000Y-82643620D01*
X54268525Y-82827243D01*
X54268527Y-82827251D01*
X54340176Y-83000228D01*
X54340180Y-83000235D01*
X54410923Y-83106110D01*
X54431800Y-83172787D01*
X54413315Y-83240167D01*
X54410923Y-83243890D01*
X54340180Y-83349764D01*
X54340176Y-83349771D01*
X54268527Y-83522748D01*
X54268525Y-83522756D01*
X54232000Y-83706379D01*
X54232000Y-83893620D01*
X54268525Y-84077243D01*
X54268527Y-84077251D01*
X54340176Y-84250228D01*
X54340180Y-84250235D01*
X54410923Y-84356110D01*
X54431800Y-84422787D01*
X54413315Y-84490167D01*
X54410923Y-84493890D01*
X54340180Y-84599764D01*
X54340176Y-84599771D01*
X54268527Y-84772748D01*
X54268525Y-84772756D01*
X54232000Y-84956379D01*
X54232000Y-85143620D01*
X54268525Y-85327243D01*
X54268527Y-85327251D01*
X54340177Y-85500230D01*
X54358041Y-85526965D01*
X54378919Y-85593643D01*
X54360478Y-85660953D01*
X54295498Y-85766300D01*
X54295496Y-85766305D01*
X54242151Y-85927290D01*
X54232000Y-86026647D01*
X54232000Y-86573337D01*
X54232001Y-86573355D01*
X54242150Y-86672707D01*
X54242151Y-86672710D01*
X54295496Y-86833694D01*
X54295501Y-86833705D01*
X54384529Y-86978040D01*
X54384532Y-86978044D01*
X54504455Y-87097967D01*
X54504459Y-87097970D01*
X54648794Y-87186998D01*
X54648797Y-87186999D01*
X54648803Y-87187003D01*
X54809792Y-87240349D01*
X54909155Y-87250500D01*
X55955844Y-87250499D01*
X55955852Y-87250498D01*
X55955855Y-87250498D01*
X56010260Y-87244940D01*
X56055208Y-87240349D01*
X56216197Y-87187003D01*
X56360544Y-87097968D01*
X56480468Y-86978044D01*
X56569503Y-86833697D01*
X56622849Y-86672708D01*
X56633000Y-86573345D01*
X56632999Y-86026656D01*
X56632847Y-86025171D01*
X56622849Y-85927292D01*
X56622848Y-85927289D01*
X56599264Y-85856116D01*
X56569503Y-85766303D01*
X56504521Y-85660952D01*
X56486081Y-85593561D01*
X56506959Y-85526964D01*
X56524822Y-85500231D01*
X56596473Y-85327251D01*
X56633000Y-85143616D01*
X56633000Y-84956384D01*
X56596473Y-84772749D01*
X56524822Y-84599769D01*
X56524819Y-84599764D01*
X56524818Y-84599762D01*
X56454077Y-84493891D01*
X56433199Y-84427213D01*
X56451683Y-84359833D01*
X56454077Y-84356109D01*
X56524818Y-84250237D01*
X56524819Y-84250235D01*
X56524822Y-84250231D01*
X56545630Y-84199996D01*
X59994435Y-84199996D01*
X59994435Y-84200003D01*
X60014630Y-84379249D01*
X60014631Y-84379254D01*
X60074211Y-84549523D01*
X60170184Y-84702262D01*
X60297738Y-84829816D01*
X60450478Y-84925789D01*
X60620745Y-84985368D01*
X60620750Y-84985369D01*
X60799996Y-85005565D01*
X60800000Y-85005565D01*
X60800004Y-85005565D01*
X60979249Y-84985369D01*
X60979252Y-84985368D01*
X60979255Y-84985368D01*
X61149522Y-84925789D01*
X61234027Y-84872691D01*
X61301264Y-84853690D01*
X61365973Y-84872691D01*
X61450475Y-84925788D01*
X61620745Y-84985368D01*
X61620750Y-84985369D01*
X61799996Y-85005565D01*
X61800000Y-85005565D01*
X61800004Y-85005565D01*
X61979249Y-84985369D01*
X61979252Y-84985368D01*
X61979255Y-84985368D01*
X62149522Y-84925789D01*
X62302262Y-84829816D01*
X62429816Y-84702262D01*
X62494074Y-84599996D01*
X64394435Y-84599996D01*
X64394435Y-84600003D01*
X64414630Y-84779249D01*
X64414631Y-84779254D01*
X64474211Y-84949523D01*
X64570184Y-85102262D01*
X64697738Y-85229816D01*
X64850478Y-85325789D01*
X64914368Y-85348145D01*
X65020745Y-85385368D01*
X65020750Y-85385369D01*
X65199996Y-85405565D01*
X65200000Y-85405565D01*
X65200004Y-85405565D01*
X65379249Y-85385369D01*
X65379252Y-85385368D01*
X65379255Y-85385368D01*
X65549522Y-85325789D01*
X65702262Y-85229816D01*
X65705781Y-85226297D01*
X70741634Y-85226297D01*
X70741634Y-85226304D01*
X70761829Y-85405550D01*
X70761830Y-85405555D01*
X70821410Y-85575824D01*
X70877133Y-85664506D01*
X70917383Y-85728563D01*
X71044937Y-85856117D01*
X71197677Y-85952090D01*
X71367944Y-86011669D01*
X71367949Y-86011670D01*
X71547195Y-86031866D01*
X71547199Y-86031866D01*
X71547203Y-86031866D01*
X71726448Y-86011670D01*
X71726451Y-86011669D01*
X71726454Y-86011669D01*
X71896721Y-85952090D01*
X72049461Y-85856117D01*
X72177015Y-85728563D01*
X72272988Y-85575823D01*
X72332567Y-85405556D01*
X72332568Y-85405550D01*
X72352764Y-85226304D01*
X72352764Y-85226297D01*
X72332568Y-85047051D01*
X72332567Y-85047046D01*
X72300843Y-84956384D01*
X72272988Y-84876779D01*
X72270419Y-84872691D01*
X72223502Y-84798023D01*
X72177015Y-84724039D01*
X72049461Y-84596485D01*
X71896722Y-84500512D01*
X71726453Y-84440932D01*
X71726448Y-84440931D01*
X71547203Y-84420736D01*
X71547195Y-84420736D01*
X71367949Y-84440931D01*
X71367944Y-84440932D01*
X71197675Y-84500512D01*
X71044936Y-84596485D01*
X70917383Y-84724038D01*
X70821410Y-84876777D01*
X70761830Y-85047046D01*
X70761829Y-85047051D01*
X70741634Y-85226297D01*
X65705781Y-85226297D01*
X65829816Y-85102262D01*
X65925789Y-84949522D01*
X65985368Y-84779255D01*
X65985369Y-84779249D01*
X66005565Y-84600003D01*
X66005565Y-84599996D01*
X65985369Y-84420750D01*
X65985368Y-84420745D01*
X65925788Y-84250476D01*
X65829815Y-84097737D01*
X65702262Y-83970184D01*
X65549523Y-83874211D01*
X65379254Y-83814631D01*
X65379249Y-83814630D01*
X65200004Y-83794435D01*
X65199996Y-83794435D01*
X65020750Y-83814630D01*
X65020745Y-83814631D01*
X64850476Y-83874211D01*
X64697737Y-83970184D01*
X64570184Y-84097737D01*
X64474211Y-84250476D01*
X64414631Y-84420745D01*
X64414630Y-84420750D01*
X64394435Y-84599996D01*
X62494074Y-84599996D01*
X62525789Y-84549522D01*
X62585368Y-84379255D01*
X62585369Y-84379249D01*
X62605565Y-84200003D01*
X62605565Y-84199996D01*
X62585369Y-84020750D01*
X62585368Y-84020745D01*
X62540884Y-83893617D01*
X62525789Y-83850478D01*
X62503265Y-83814632D01*
X62486582Y-83788080D01*
X62429816Y-83697738D01*
X62302262Y-83570184D01*
X62226770Y-83522749D01*
X62149523Y-83474211D01*
X61979254Y-83414631D01*
X61979249Y-83414630D01*
X61800004Y-83394435D01*
X61799996Y-83394435D01*
X61620750Y-83414630D01*
X61620737Y-83414633D01*
X61450479Y-83474209D01*
X61365971Y-83527309D01*
X61298734Y-83546309D01*
X61234029Y-83527309D01*
X61149520Y-83474209D01*
X60979262Y-83414633D01*
X60979249Y-83414630D01*
X60800004Y-83394435D01*
X60799996Y-83394435D01*
X60620750Y-83414630D01*
X60620745Y-83414631D01*
X60450476Y-83474211D01*
X60297737Y-83570184D01*
X60170184Y-83697737D01*
X60074211Y-83850476D01*
X60014631Y-84020745D01*
X60014630Y-84020750D01*
X59994435Y-84199996D01*
X56545630Y-84199996D01*
X56596473Y-84077251D01*
X56633000Y-83893616D01*
X56633000Y-83706384D01*
X56596473Y-83522749D01*
X56524822Y-83349769D01*
X56524819Y-83349764D01*
X56524818Y-83349762D01*
X56454077Y-83243891D01*
X56433199Y-83177213D01*
X56451683Y-83109833D01*
X56454077Y-83106109D01*
X56524818Y-83000237D01*
X56524819Y-83000235D01*
X56524822Y-83000231D01*
X56596473Y-82827251D01*
X56633000Y-82643616D01*
X56633000Y-82456384D01*
X56606719Y-82324261D01*
X67594435Y-82324261D01*
X67594435Y-82324268D01*
X67614630Y-82503514D01*
X67614631Y-82503519D01*
X67674211Y-82673788D01*
X67748128Y-82791425D01*
X67770184Y-82826527D01*
X67897738Y-82954081D01*
X68050478Y-83050054D01*
X68210674Y-83106109D01*
X68220745Y-83109633D01*
X68220750Y-83109634D01*
X68399996Y-83129830D01*
X68400000Y-83129830D01*
X68400004Y-83129830D01*
X68579249Y-83109634D01*
X68579252Y-83109633D01*
X68579255Y-83109633D01*
X68749522Y-83050054D01*
X68902262Y-82954081D01*
X69029816Y-82826527D01*
X69125789Y-82673787D01*
X69185368Y-82503520D01*
X69185369Y-82503514D01*
X69205565Y-82324268D01*
X69205565Y-82324262D01*
X69199761Y-82272756D01*
X69195843Y-82237981D01*
X69207897Y-82169161D01*
X69255246Y-82117782D01*
X69322856Y-82100157D01*
X69389262Y-82121883D01*
X69424056Y-82158126D01*
X69470182Y-82231535D01*
X69470184Y-82231537D01*
X69597738Y-82359091D01*
X69750478Y-82455064D01*
X69888957Y-82503520D01*
X69920745Y-82514643D01*
X69920750Y-82514644D01*
X70099996Y-82534840D01*
X70100000Y-82534840D01*
X70100004Y-82534840D01*
X70279249Y-82514644D01*
X70279252Y-82514643D01*
X70279255Y-82514643D01*
X70449522Y-82455064D01*
X70506416Y-82419314D01*
X70573653Y-82400314D01*
X70640488Y-82420681D01*
X70685702Y-82473949D01*
X70695609Y-82510425D01*
X70714630Y-82679249D01*
X70714631Y-82679254D01*
X70774211Y-82849523D01*
X70831061Y-82939998D01*
X70870184Y-83002262D01*
X70997738Y-83129816D01*
X71039263Y-83155908D01*
X71100032Y-83194092D01*
X71150478Y-83225789D01*
X71202208Y-83243890D01*
X71320745Y-83285368D01*
X71320750Y-83285369D01*
X71499996Y-83305565D01*
X71500000Y-83305565D01*
X71500004Y-83305565D01*
X71679249Y-83285369D01*
X71679252Y-83285368D01*
X71679255Y-83285368D01*
X71849522Y-83225789D01*
X72002262Y-83129816D01*
X72129816Y-83002262D01*
X72225789Y-82849522D01*
X72285368Y-82679255D01*
X72287369Y-82661495D01*
X72305565Y-82500003D01*
X72305565Y-82499996D01*
X72285369Y-82320750D01*
X72285368Y-82320745D01*
X72225788Y-82150476D01*
X72129815Y-81997737D01*
X72002262Y-81870184D01*
X71849523Y-81774211D01*
X71679254Y-81714631D01*
X71679249Y-81714630D01*
X71500004Y-81694435D01*
X71499996Y-81694435D01*
X71320750Y-81714630D01*
X71320745Y-81714631D01*
X71150474Y-81774212D01*
X71093581Y-81809960D01*
X71026344Y-81828960D01*
X70959509Y-81808592D01*
X70914296Y-81755323D01*
X70904390Y-81718849D01*
X70901639Y-81694435D01*
X70888436Y-81577251D01*
X70885369Y-81550025D01*
X70885368Y-81550020D01*
X70825788Y-81379751D01*
X70729815Y-81227012D01*
X70602262Y-81099459D01*
X70449523Y-81003486D01*
X70279254Y-80943906D01*
X70279249Y-80943905D01*
X70100004Y-80923710D01*
X70099996Y-80923710D01*
X69920750Y-80943905D01*
X69920745Y-80943906D01*
X69750476Y-81003486D01*
X69597737Y-81099459D01*
X69470184Y-81227012D01*
X69374211Y-81379751D01*
X69314631Y-81550020D01*
X69314630Y-81550025D01*
X69294435Y-81729271D01*
X69294435Y-81729278D01*
X69304156Y-81815557D01*
X69292101Y-81884379D01*
X69244752Y-81935758D01*
X69177142Y-81953382D01*
X69110736Y-81931655D01*
X69075942Y-81895412D01*
X69052691Y-81858408D01*
X69029816Y-81822003D01*
X68902262Y-81694449D01*
X68788552Y-81623000D01*
X68749523Y-81598476D01*
X68579254Y-81538896D01*
X68579249Y-81538895D01*
X68400004Y-81518700D01*
X68399996Y-81518700D01*
X68220750Y-81538895D01*
X68220745Y-81538896D01*
X68050476Y-81598476D01*
X67897737Y-81694449D01*
X67770184Y-81822002D01*
X67674211Y-81974741D01*
X67614631Y-82145010D01*
X67614630Y-82145015D01*
X67594435Y-82324261D01*
X56606719Y-82324261D01*
X56596473Y-82272749D01*
X56524822Y-82099769D01*
X56524819Y-82099764D01*
X56524818Y-82099762D01*
X56454077Y-81993891D01*
X56433199Y-81927213D01*
X56451683Y-81859833D01*
X56454077Y-81856109D01*
X56524818Y-81750237D01*
X56524819Y-81750235D01*
X56524822Y-81750231D01*
X56596473Y-81577251D01*
X56633000Y-81393616D01*
X56633000Y-81206384D01*
X56596473Y-81022749D01*
X56524822Y-80849769D01*
X56524821Y-80849768D01*
X56524818Y-80849762D01*
X56420802Y-80694092D01*
X56420799Y-80694088D01*
X56288411Y-80561700D01*
X56288407Y-80561697D01*
X56132737Y-80457681D01*
X56132728Y-80457676D01*
X55959751Y-80386027D01*
X55959743Y-80386025D01*
X55776120Y-80349500D01*
X55776116Y-80349500D01*
X55088884Y-80349500D01*
X55088879Y-80349500D01*
X54905256Y-80386025D01*
X54905248Y-80386027D01*
X54732271Y-80457676D01*
X54732262Y-80457681D01*
X54576592Y-80561697D01*
X54576588Y-80561700D01*
X54444200Y-80694088D01*
X54444197Y-80694092D01*
X54340181Y-80849762D01*
X54340176Y-80849771D01*
X54268527Y-81022748D01*
X54268525Y-81022756D01*
X54232000Y-81206379D01*
X50500500Y-81206379D01*
X50500500Y-79999996D01*
X62194432Y-79999996D01*
X62194432Y-80000003D01*
X62214627Y-80179249D01*
X62214628Y-80179254D01*
X62274208Y-80349523D01*
X62305924Y-80399998D01*
X62370181Y-80502262D01*
X62497735Y-80629816D01*
X62588077Y-80686582D01*
X62600029Y-80694092D01*
X62650475Y-80725789D01*
X62724236Y-80751599D01*
X62820742Y-80785368D01*
X62820747Y-80785369D01*
X62999993Y-80805565D01*
X62999997Y-80805565D01*
X63000001Y-80805565D01*
X63179246Y-80785369D01*
X63179249Y-80785368D01*
X63179252Y-80785368D01*
X63349519Y-80725789D01*
X63502259Y-80629816D01*
X63629813Y-80502262D01*
X63725786Y-80349522D01*
X63785365Y-80179255D01*
X63785366Y-80179249D01*
X63805562Y-80000003D01*
X63805562Y-79999996D01*
X63785366Y-79820750D01*
X63785365Y-79820745D01*
X63749421Y-79718023D01*
X63725786Y-79650478D01*
X63631232Y-79499996D01*
X68694435Y-79499996D01*
X68694435Y-79500003D01*
X68714630Y-79679249D01*
X68714631Y-79679254D01*
X68774211Y-79849523D01*
X68868760Y-79999996D01*
X68870184Y-80002262D01*
X68997738Y-80129816D01*
X69150478Y-80225789D01*
X69320745Y-80285368D01*
X69320750Y-80285369D01*
X69499996Y-80305565D01*
X69500000Y-80305565D01*
X69500004Y-80305565D01*
X69679249Y-80285369D01*
X69679252Y-80285368D01*
X69679255Y-80285368D01*
X69849522Y-80225789D01*
X70002262Y-80129816D01*
X70129816Y-80002262D01*
X70225789Y-79849522D01*
X70285368Y-79679255D01*
X70285369Y-79679249D01*
X70305565Y-79500003D01*
X70305565Y-79499996D01*
X70285369Y-79320750D01*
X70285368Y-79320745D01*
X70225788Y-79150476D01*
X70129815Y-78997737D01*
X70002262Y-78870184D01*
X69849523Y-78774211D01*
X69679254Y-78714631D01*
X69679249Y-78714630D01*
X69500004Y-78694435D01*
X69499996Y-78694435D01*
X69320750Y-78714630D01*
X69320745Y-78714631D01*
X69150476Y-78774211D01*
X68997737Y-78870184D01*
X68870184Y-78997737D01*
X68774211Y-79150476D01*
X68714631Y-79320745D01*
X68714630Y-79320750D01*
X68694435Y-79499996D01*
X63631232Y-79499996D01*
X63629813Y-79497738D01*
X63502259Y-79370184D01*
X63349520Y-79274211D01*
X63179251Y-79214631D01*
X63179246Y-79214630D01*
X63000001Y-79194435D01*
X62999993Y-79194435D01*
X62820747Y-79214630D01*
X62820742Y-79214631D01*
X62650473Y-79274211D01*
X62497734Y-79370184D01*
X62370181Y-79497737D01*
X62274208Y-79650476D01*
X62214628Y-79820745D01*
X62214627Y-79820750D01*
X62194432Y-79999996D01*
X50500500Y-79999996D01*
X50500500Y-70599996D01*
X53794435Y-70599996D01*
X53794435Y-70600003D01*
X53814630Y-70779249D01*
X53814631Y-70779254D01*
X53874211Y-70949523D01*
X53970184Y-71102262D01*
X54097738Y-71229816D01*
X54154504Y-71265484D01*
X54250477Y-71325789D01*
X54256751Y-71328810D01*
X54256142Y-71330073D01*
X54306649Y-71366295D01*
X54332399Y-71431246D01*
X54323483Y-71490072D01*
X54268528Y-71622744D01*
X54268525Y-71622756D01*
X54232000Y-71806379D01*
X54232000Y-71993620D01*
X54268525Y-72177243D01*
X54268527Y-72177251D01*
X54340176Y-72350228D01*
X54340180Y-72350235D01*
X54410923Y-72456110D01*
X54431800Y-72522787D01*
X54413315Y-72590167D01*
X54410923Y-72593890D01*
X54340180Y-72699764D01*
X54340176Y-72699771D01*
X54268527Y-72872748D01*
X54268525Y-72872756D01*
X54232000Y-73056379D01*
X54232000Y-73243620D01*
X54268525Y-73427243D01*
X54268527Y-73427251D01*
X54340176Y-73600228D01*
X54340180Y-73600235D01*
X54410923Y-73706110D01*
X54431800Y-73772787D01*
X54413315Y-73840167D01*
X54410923Y-73843890D01*
X54340180Y-73949764D01*
X54340176Y-73949771D01*
X54268527Y-74122748D01*
X54268525Y-74122756D01*
X54232000Y-74306379D01*
X54232000Y-74493620D01*
X54268525Y-74677243D01*
X54268527Y-74677251D01*
X54340176Y-74850228D01*
X54340180Y-74850235D01*
X54410923Y-74956110D01*
X54431800Y-75022787D01*
X54413315Y-75090167D01*
X54410923Y-75093890D01*
X54340180Y-75199764D01*
X54340176Y-75199771D01*
X54268527Y-75372748D01*
X54268525Y-75372756D01*
X54232000Y-75556379D01*
X54232000Y-75743620D01*
X54268525Y-75927243D01*
X54268527Y-75927251D01*
X54340177Y-76100230D01*
X54358041Y-76126965D01*
X54378919Y-76193643D01*
X54360478Y-76260953D01*
X54295498Y-76366300D01*
X54295496Y-76366305D01*
X54242151Y-76527290D01*
X54232000Y-76626647D01*
X54232000Y-77173337D01*
X54232001Y-77173355D01*
X54242150Y-77272707D01*
X54242151Y-77272710D01*
X54295496Y-77433694D01*
X54295501Y-77433705D01*
X54384529Y-77578040D01*
X54384532Y-77578044D01*
X54504455Y-77697967D01*
X54504459Y-77697970D01*
X54648794Y-77786998D01*
X54648797Y-77786999D01*
X54648803Y-77787003D01*
X54809792Y-77840349D01*
X54909155Y-77850500D01*
X55955844Y-77850499D01*
X55955852Y-77850498D01*
X55955855Y-77850498D01*
X56010260Y-77844940D01*
X56055208Y-77840349D01*
X56216197Y-77787003D01*
X56360544Y-77697968D01*
X56480468Y-77578044D01*
X56569503Y-77433697D01*
X56622849Y-77272708D01*
X56633000Y-77173345D01*
X56633000Y-76999996D01*
X62994435Y-76999996D01*
X62994435Y-77000003D01*
X63014630Y-77179249D01*
X63014631Y-77179254D01*
X63074211Y-77349523D01*
X63137646Y-77450478D01*
X63170184Y-77502262D01*
X63297738Y-77629816D01*
X63388080Y-77686582D01*
X63406199Y-77697967D01*
X63450478Y-77725789D01*
X63620745Y-77785368D01*
X63696735Y-77793929D01*
X63761145Y-77820994D01*
X63800701Y-77878588D01*
X63806069Y-77903265D01*
X63814630Y-77979249D01*
X63874210Y-78149521D01*
X63970184Y-78302262D01*
X64097738Y-78429816D01*
X64250478Y-78525789D01*
X64420745Y-78585368D01*
X64420750Y-78585369D01*
X64599996Y-78605565D01*
X64600000Y-78605565D01*
X64600004Y-78605565D01*
X64779249Y-78585369D01*
X64779252Y-78585368D01*
X64779255Y-78585368D01*
X64949522Y-78525789D01*
X65102262Y-78429816D01*
X65229816Y-78302262D01*
X65325789Y-78149522D01*
X65385368Y-77979255D01*
X65393930Y-77903265D01*
X65405565Y-77800003D01*
X65405565Y-77799996D01*
X65385369Y-77620750D01*
X65385368Y-77620745D01*
X65325788Y-77450476D01*
X65229815Y-77297737D01*
X65102262Y-77170184D01*
X64949521Y-77074210D01*
X64779249Y-77014630D01*
X64703265Y-77006069D01*
X64638851Y-76979002D01*
X64599296Y-76921407D01*
X64593930Y-76896743D01*
X64585368Y-76820745D01*
X64525789Y-76650478D01*
X64510824Y-76626662D01*
X64429815Y-76497737D01*
X64302262Y-76370184D01*
X64149523Y-76274211D01*
X63979254Y-76214631D01*
X63979249Y-76214630D01*
X63800004Y-76194435D01*
X63799996Y-76194435D01*
X63620750Y-76214630D01*
X63620745Y-76214631D01*
X63450476Y-76274211D01*
X63297737Y-76370184D01*
X63170184Y-76497737D01*
X63074211Y-76650476D01*
X63014631Y-76820745D01*
X63014630Y-76820750D01*
X62994435Y-76999996D01*
X56633000Y-76999996D01*
X56632999Y-76626656D01*
X56624453Y-76542999D01*
X56622849Y-76527292D01*
X56622848Y-76527289D01*
X56613056Y-76497738D01*
X56569503Y-76366303D01*
X56504521Y-76260952D01*
X56486081Y-76193561D01*
X56506959Y-76126964D01*
X56524822Y-76100231D01*
X56596473Y-75927251D01*
X56633000Y-75743616D01*
X56633000Y-75556384D01*
X56596473Y-75372749D01*
X56524822Y-75199769D01*
X56524819Y-75199764D01*
X56524818Y-75199762D01*
X56454077Y-75093891D01*
X56433199Y-75027213D01*
X56451683Y-74959833D01*
X56454077Y-74956109D01*
X56524818Y-74850237D01*
X56524819Y-74850235D01*
X56524822Y-74850231D01*
X56596473Y-74677251D01*
X56626759Y-74524994D01*
X65592371Y-74524994D01*
X65592371Y-74525001D01*
X65612566Y-74704247D01*
X65612567Y-74704252D01*
X65672147Y-74874521D01*
X65750989Y-74999996D01*
X65768120Y-75027260D01*
X65895674Y-75154814D01*
X66048414Y-75250787D01*
X66160139Y-75289881D01*
X66216915Y-75330603D01*
X66236226Y-75365967D01*
X66274211Y-75474521D01*
X66274212Y-75474522D01*
X66370184Y-75627260D01*
X66497738Y-75754814D01*
X66650478Y-75850787D01*
X66793358Y-75900783D01*
X66820745Y-75910366D01*
X66820750Y-75910367D01*
X66999996Y-75930563D01*
X67000000Y-75930563D01*
X67000004Y-75930563D01*
X67179249Y-75910367D01*
X67179252Y-75910366D01*
X67179255Y-75910366D01*
X67349522Y-75850787D01*
X67462847Y-75779579D01*
X67530084Y-75760579D01*
X67569770Y-75767531D01*
X67620745Y-75785368D01*
X67620749Y-75785368D01*
X67620751Y-75785369D01*
X67620748Y-75785369D01*
X67799996Y-75805565D01*
X67800000Y-75805565D01*
X67800004Y-75805565D01*
X67979249Y-75785369D01*
X67979252Y-75785368D01*
X67979255Y-75785368D01*
X68149522Y-75725789D01*
X68302262Y-75629816D01*
X68429816Y-75502262D01*
X68525789Y-75349522D01*
X68585368Y-75179255D01*
X68585618Y-75177035D01*
X68605565Y-75000003D01*
X68605565Y-74999996D01*
X68585369Y-74820750D01*
X68585368Y-74820745D01*
X68525789Y-74650478D01*
X68522483Y-74645217D01*
X68446946Y-74525001D01*
X68429816Y-74497738D01*
X68302262Y-74370184D01*
X68287639Y-74360996D01*
X68149523Y-74274211D01*
X67979254Y-74214631D01*
X67979249Y-74214630D01*
X67800004Y-74194435D01*
X67799996Y-74194435D01*
X67620750Y-74214630D01*
X67620745Y-74214631D01*
X67450476Y-74274211D01*
X67342598Y-74341996D01*
X67275361Y-74360996D01*
X67208526Y-74340628D01*
X67163312Y-74287360D01*
X67159584Y-74277956D01*
X67158274Y-74274211D01*
X67123725Y-74175476D01*
X67027752Y-74022736D01*
X66900198Y-73895182D01*
X66818569Y-73843891D01*
X66747459Y-73799209D01*
X66577190Y-73739629D01*
X66577185Y-73739628D01*
X66397940Y-73719433D01*
X66397932Y-73719433D01*
X66218686Y-73739628D01*
X66218681Y-73739629D01*
X66048412Y-73799209D01*
X65895673Y-73895182D01*
X65768120Y-74022735D01*
X65672147Y-74175474D01*
X65612567Y-74345743D01*
X65612566Y-74345748D01*
X65592371Y-74524994D01*
X56626759Y-74524994D01*
X56633000Y-74493616D01*
X56633000Y-74306384D01*
X56596473Y-74122749D01*
X56524822Y-73949769D01*
X56524819Y-73949764D01*
X56524818Y-73949762D01*
X56454077Y-73843891D01*
X56433199Y-73777213D01*
X56451683Y-73709833D01*
X56454077Y-73706109D01*
X56524818Y-73600237D01*
X56524819Y-73600235D01*
X56524822Y-73600231D01*
X56596473Y-73427251D01*
X56633000Y-73243616D01*
X56633000Y-73204997D01*
X70741634Y-73204997D01*
X70741634Y-73205004D01*
X70761829Y-73384250D01*
X70761830Y-73384255D01*
X70821410Y-73554524D01*
X70850134Y-73600237D01*
X70917383Y-73707263D01*
X71044937Y-73834817D01*
X71197677Y-73930790D01*
X71251896Y-73949762D01*
X71367944Y-73990369D01*
X71367949Y-73990370D01*
X71547195Y-74010566D01*
X71547199Y-74010566D01*
X71547203Y-74010566D01*
X71726448Y-73990370D01*
X71726451Y-73990369D01*
X71726454Y-73990369D01*
X71896721Y-73930790D01*
X72049461Y-73834817D01*
X72177015Y-73707263D01*
X72272988Y-73554523D01*
X72332567Y-73384256D01*
X72332568Y-73384250D01*
X72332730Y-73383787D01*
X72373451Y-73327011D01*
X72435887Y-73301521D01*
X72496351Y-73294708D01*
X72579250Y-73285369D01*
X72579253Y-73285368D01*
X72579255Y-73285368D01*
X72749522Y-73225789D01*
X72902262Y-73129816D01*
X73029816Y-73002262D01*
X73125789Y-72849522D01*
X73185368Y-72679255D01*
X73185369Y-72679249D01*
X73205565Y-72500003D01*
X73205565Y-72499996D01*
X73185369Y-72320750D01*
X73185368Y-72320745D01*
X73125789Y-72150478D01*
X73029816Y-71997738D01*
X72902262Y-71870184D01*
X72749523Y-71774211D01*
X72579254Y-71714631D01*
X72579249Y-71714630D01*
X72400004Y-71694435D01*
X72399996Y-71694435D01*
X72220750Y-71714630D01*
X72220745Y-71714631D01*
X72050476Y-71774211D01*
X71897737Y-71870184D01*
X71770184Y-71997737D01*
X71674211Y-72150476D01*
X71614468Y-72321214D01*
X71573746Y-72377990D01*
X71511310Y-72403479D01*
X71367948Y-72419631D01*
X71367944Y-72419632D01*
X71197675Y-72479212D01*
X71044936Y-72575185D01*
X70917383Y-72702738D01*
X70821410Y-72855477D01*
X70761830Y-73025746D01*
X70761829Y-73025751D01*
X70741634Y-73204997D01*
X56633000Y-73204997D01*
X56633000Y-73056384D01*
X56596473Y-72872749D01*
X56535600Y-72725789D01*
X56524823Y-72699771D01*
X56524818Y-72699762D01*
X56454077Y-72593891D01*
X56433199Y-72527213D01*
X56451683Y-72459833D01*
X56454077Y-72456109D01*
X56524818Y-72350237D01*
X56524819Y-72350235D01*
X56524822Y-72350231D01*
X56596473Y-72177251D01*
X56631731Y-71999996D01*
X60994435Y-71999996D01*
X60994435Y-72000003D01*
X61014630Y-72179249D01*
X61014631Y-72179254D01*
X61074211Y-72349523D01*
X61141184Y-72456109D01*
X61170184Y-72502262D01*
X61297738Y-72629816D01*
X61376410Y-72679249D01*
X61426145Y-72710500D01*
X61450478Y-72725789D01*
X61605398Y-72779998D01*
X61620745Y-72785368D01*
X61620750Y-72785369D01*
X61799996Y-72805565D01*
X61800000Y-72805565D01*
X61800004Y-72805565D01*
X61979249Y-72785369D01*
X61979252Y-72785368D01*
X61979255Y-72785368D01*
X62149522Y-72725789D01*
X62302262Y-72629816D01*
X62429816Y-72502262D01*
X62525789Y-72349522D01*
X62585368Y-72179255D01*
X62585595Y-72177243D01*
X62605565Y-72000003D01*
X62605565Y-71999997D01*
X62594079Y-71898059D01*
X62606133Y-71829237D01*
X62629619Y-71796493D01*
X62682796Y-71743316D01*
X62682796Y-71743315D01*
X62682799Y-71743313D01*
X62778772Y-71590573D01*
X62838351Y-71420306D01*
X62848660Y-71328810D01*
X62858548Y-71241054D01*
X62858548Y-71241047D01*
X62838352Y-71061801D01*
X62838351Y-71061796D01*
X62811838Y-70986027D01*
X62778772Y-70891529D01*
X62682799Y-70738789D01*
X62555245Y-70611235D01*
X62402506Y-70515262D01*
X62232237Y-70455682D01*
X62232232Y-70455681D01*
X62052987Y-70435486D01*
X62052979Y-70435486D01*
X61873733Y-70455681D01*
X61873728Y-70455682D01*
X61703459Y-70515262D01*
X61550720Y-70611235D01*
X61423167Y-70738788D01*
X61327194Y-70891527D01*
X61267614Y-71061796D01*
X61267613Y-71061801D01*
X61247418Y-71241047D01*
X61247418Y-71241054D01*
X61258903Y-71342992D01*
X61246848Y-71411814D01*
X61223365Y-71444555D01*
X61170186Y-71497734D01*
X61074211Y-71650476D01*
X61014631Y-71820745D01*
X61014630Y-71820750D01*
X60994435Y-71999996D01*
X56631731Y-71999996D01*
X56633000Y-71993616D01*
X56633000Y-71806384D01*
X56596473Y-71622749D01*
X56541054Y-71488956D01*
X56524823Y-71449771D01*
X56524818Y-71449762D01*
X56420802Y-71294092D01*
X56420799Y-71294088D01*
X56288411Y-71161700D01*
X56288407Y-71161697D01*
X56132737Y-71057681D01*
X56132728Y-71057676D01*
X55959751Y-70986027D01*
X55959743Y-70986025D01*
X55776120Y-70949500D01*
X55776116Y-70949500D01*
X55500559Y-70949500D01*
X55433520Y-70929815D01*
X55387765Y-70877011D01*
X55377821Y-70807853D01*
X55383517Y-70784546D01*
X55385367Y-70779257D01*
X55385368Y-70779255D01*
X55385369Y-70779249D01*
X55405565Y-70600003D01*
X55405565Y-70599996D01*
X55385369Y-70420750D01*
X55385368Y-70420745D01*
X55339256Y-70288965D01*
X55325789Y-70250478D01*
X55294069Y-70199996D01*
X72194435Y-70199996D01*
X72194435Y-70200003D01*
X72214630Y-70379249D01*
X72214631Y-70379254D01*
X72274211Y-70549523D01*
X72305926Y-70599996D01*
X72370184Y-70702262D01*
X72497738Y-70829816D01*
X72650478Y-70925789D01*
X72718306Y-70949523D01*
X72820745Y-70985368D01*
X72820750Y-70985369D01*
X72999996Y-71005565D01*
X73000000Y-71005565D01*
X73000004Y-71005565D01*
X73179249Y-70985369D01*
X73179252Y-70985368D01*
X73179255Y-70985368D01*
X73349522Y-70925789D01*
X73502262Y-70829816D01*
X73629816Y-70702262D01*
X73725789Y-70549522D01*
X73785368Y-70379255D01*
X73799878Y-70250476D01*
X73805565Y-70200003D01*
X73805565Y-70199996D01*
X73785369Y-70020750D01*
X73785368Y-70020745D01*
X73767676Y-69970184D01*
X73725789Y-69850478D01*
X73703265Y-69814632D01*
X73629815Y-69697737D01*
X73502262Y-69570184D01*
X73349523Y-69474211D01*
X73179254Y-69414631D01*
X73179249Y-69414630D01*
X73000004Y-69394435D01*
X72999996Y-69394435D01*
X72820750Y-69414630D01*
X72820745Y-69414631D01*
X72650476Y-69474211D01*
X72497737Y-69570184D01*
X72370184Y-69697737D01*
X72274211Y-69850476D01*
X72214631Y-70020745D01*
X72214630Y-70020750D01*
X72194435Y-70199996D01*
X55294069Y-70199996D01*
X55229816Y-70097738D01*
X55102262Y-69970184D01*
X55088430Y-69961493D01*
X54949523Y-69874211D01*
X54779254Y-69814631D01*
X54779249Y-69814630D01*
X54600004Y-69794435D01*
X54599996Y-69794435D01*
X54420750Y-69814630D01*
X54420745Y-69814631D01*
X54250476Y-69874211D01*
X54097737Y-69970184D01*
X53970184Y-70097737D01*
X53874211Y-70250476D01*
X53814631Y-70420745D01*
X53814630Y-70420750D01*
X53794435Y-70599996D01*
X50500500Y-70599996D01*
X50500500Y-62406379D01*
X54232000Y-62406379D01*
X54232000Y-62593620D01*
X54268525Y-62777243D01*
X54268527Y-62777251D01*
X54340176Y-62950228D01*
X54340180Y-62950235D01*
X54410923Y-63056110D01*
X54431800Y-63122787D01*
X54413315Y-63190167D01*
X54410923Y-63193890D01*
X54340180Y-63299764D01*
X54340176Y-63299771D01*
X54268527Y-63472748D01*
X54268525Y-63472756D01*
X54232000Y-63656379D01*
X54232000Y-63843620D01*
X54268525Y-64027243D01*
X54268527Y-64027251D01*
X54340176Y-64200228D01*
X54340180Y-64200235D01*
X54410923Y-64306110D01*
X54431800Y-64372787D01*
X54413315Y-64440167D01*
X54410923Y-64443890D01*
X54340180Y-64549764D01*
X54340176Y-64549771D01*
X54268527Y-64722748D01*
X54268525Y-64722756D01*
X54232000Y-64906379D01*
X54232000Y-65093620D01*
X54268525Y-65277243D01*
X54268527Y-65277251D01*
X54340176Y-65450228D01*
X54340180Y-65450235D01*
X54410923Y-65556110D01*
X54431800Y-65622787D01*
X54413315Y-65690167D01*
X54410923Y-65693890D01*
X54340180Y-65799764D01*
X54340176Y-65799771D01*
X54268527Y-65972748D01*
X54268525Y-65972756D01*
X54232000Y-66156379D01*
X54232000Y-66343620D01*
X54268525Y-66527243D01*
X54268527Y-66527251D01*
X54340177Y-66700230D01*
X54358041Y-66726965D01*
X54378919Y-66793643D01*
X54360478Y-66860953D01*
X54295498Y-66966300D01*
X54295496Y-66966305D01*
X54242151Y-67127290D01*
X54232000Y-67226647D01*
X54232000Y-67773337D01*
X54232001Y-67773355D01*
X54242150Y-67872707D01*
X54242151Y-67872710D01*
X54295496Y-68033694D01*
X54295501Y-68033705D01*
X54384529Y-68178040D01*
X54384532Y-68178044D01*
X54504455Y-68297967D01*
X54504459Y-68297970D01*
X54648794Y-68386998D01*
X54648797Y-68386999D01*
X54648803Y-68387003D01*
X54809792Y-68440349D01*
X54909155Y-68450500D01*
X55955844Y-68450499D01*
X55955852Y-68450498D01*
X55955855Y-68450498D01*
X56010260Y-68444940D01*
X56055208Y-68440349D01*
X56216197Y-68387003D01*
X56360544Y-68297968D01*
X56480468Y-68178044D01*
X56569503Y-68033697D01*
X56622849Y-67872708D01*
X56633000Y-67773345D01*
X56632999Y-67226656D01*
X56622849Y-67127292D01*
X56569503Y-66966303D01*
X56504521Y-66860952D01*
X56486081Y-66793561D01*
X56506959Y-66726964D01*
X56524822Y-66700231D01*
X56596473Y-66527251D01*
X56633000Y-66343616D01*
X56633000Y-66156384D01*
X56596473Y-65972749D01*
X56524822Y-65799769D01*
X56524819Y-65799764D01*
X56524818Y-65799762D01*
X56454077Y-65693891D01*
X56433199Y-65627213D01*
X56451683Y-65559833D01*
X56454077Y-65556109D01*
X56524818Y-65450237D01*
X56524819Y-65450235D01*
X56524822Y-65450231D01*
X56596473Y-65277251D01*
X56633000Y-65093616D01*
X56633000Y-64906384D01*
X56596473Y-64722749D01*
X56524822Y-64549769D01*
X56524819Y-64549764D01*
X56524818Y-64549762D01*
X56454077Y-64443891D01*
X56433199Y-64377213D01*
X56451683Y-64309833D01*
X56454077Y-64306109D01*
X56524818Y-64200237D01*
X56524819Y-64200235D01*
X56524822Y-64200231D01*
X56596473Y-64027251D01*
X56633000Y-63843616D01*
X56633000Y-63656384D01*
X56596473Y-63472749D01*
X56524822Y-63299769D01*
X56524819Y-63299764D01*
X56524818Y-63299762D01*
X56454077Y-63193891D01*
X56433199Y-63127213D01*
X56451683Y-63059833D01*
X56454077Y-63056109D01*
X56524818Y-62950237D01*
X56524819Y-62950235D01*
X56524822Y-62950231D01*
X56596473Y-62777251D01*
X56633000Y-62593616D01*
X56633000Y-62406384D01*
X56596473Y-62222749D01*
X56524822Y-62049769D01*
X56524821Y-62049768D01*
X56524818Y-62049762D01*
X56420802Y-61894092D01*
X56420799Y-61894088D01*
X56288411Y-61761700D01*
X56288407Y-61761697D01*
X56132737Y-61657681D01*
X56132728Y-61657676D01*
X55959751Y-61586027D01*
X55959743Y-61586025D01*
X55776120Y-61549500D01*
X55776116Y-61549500D01*
X55088884Y-61549500D01*
X55088879Y-61549500D01*
X54905256Y-61586025D01*
X54905248Y-61586027D01*
X54732271Y-61657676D01*
X54732262Y-61657681D01*
X54576592Y-61761697D01*
X54576588Y-61761700D01*
X54444200Y-61894088D01*
X54444197Y-61894092D01*
X54340181Y-62049762D01*
X54340176Y-62049771D01*
X54268527Y-62222748D01*
X54268525Y-62222756D01*
X54232000Y-62406379D01*
X50500500Y-62406379D01*
X50500500Y-54945186D01*
X52679500Y-54945186D01*
X52679500Y-55214813D01*
X52709686Y-55482719D01*
X52709688Y-55482731D01*
X52769684Y-55745594D01*
X52769687Y-55745602D01*
X52858734Y-56000082D01*
X52975714Y-56242994D01*
X52975716Y-56242997D01*
X53119162Y-56471289D01*
X53287266Y-56682085D01*
X53477915Y-56872734D01*
X53688711Y-57040838D01*
X53917003Y-57184284D01*
X54159921Y-57301267D01*
X54351049Y-57368145D01*
X54414397Y-57390312D01*
X54414405Y-57390315D01*
X54414408Y-57390315D01*
X54414409Y-57390316D01*
X54677268Y-57450312D01*
X54945187Y-57480499D01*
X54945188Y-57480500D01*
X54945191Y-57480500D01*
X55214812Y-57480500D01*
X55214812Y-57480499D01*
X55482732Y-57450312D01*
X55745591Y-57390316D01*
X56000079Y-57301267D01*
X56242997Y-57184284D01*
X56471289Y-57040838D01*
X56682085Y-56872734D01*
X56872734Y-56682085D01*
X57040838Y-56471289D01*
X57184284Y-56242997D01*
X57193915Y-56222999D01*
X63503341Y-56222999D01*
X63503341Y-56223000D01*
X63523936Y-56458403D01*
X63523938Y-56458413D01*
X63585094Y-56686655D01*
X63585096Y-56686659D01*
X63585097Y-56686663D01*
X63589000Y-56695032D01*
X63684965Y-56900830D01*
X63684967Y-56900834D01*
X63764649Y-57014631D01*
X63820501Y-57094396D01*
X63820506Y-57094402D01*
X63987597Y-57261493D01*
X63987603Y-57261498D01*
X64173158Y-57391425D01*
X64216783Y-57446002D01*
X64223977Y-57515500D01*
X64192454Y-57577855D01*
X64173158Y-57594575D01*
X63987597Y-57724505D01*
X63820505Y-57891597D01*
X63684965Y-58085169D01*
X63684964Y-58085171D01*
X63585098Y-58299335D01*
X63585094Y-58299344D01*
X63523938Y-58527586D01*
X63523936Y-58527596D01*
X63503341Y-58762999D01*
X63503341Y-58763000D01*
X63523936Y-58998403D01*
X63523938Y-58998413D01*
X63585094Y-59226655D01*
X63585096Y-59226659D01*
X63585097Y-59226663D01*
X63665004Y-59398023D01*
X63684965Y-59440830D01*
X63684967Y-59440834D01*
X63793281Y-59595521D01*
X63820501Y-59634396D01*
X63820506Y-59634402D01*
X63987597Y-59801493D01*
X63987603Y-59801498D01*
X64173158Y-59931425D01*
X64216783Y-59986002D01*
X64223977Y-60055500D01*
X64192454Y-60117855D01*
X64173158Y-60134575D01*
X63987597Y-60264505D01*
X63820505Y-60431597D01*
X63684965Y-60625169D01*
X63684964Y-60625171D01*
X63585098Y-60839335D01*
X63585094Y-60839344D01*
X63523938Y-61067586D01*
X63523936Y-61067596D01*
X63503341Y-61302999D01*
X63503341Y-61303000D01*
X63523936Y-61538403D01*
X63523938Y-61538413D01*
X63585094Y-61766655D01*
X63585096Y-61766659D01*
X63585097Y-61766663D01*
X63665004Y-61938023D01*
X63684965Y-61980830D01*
X63684967Y-61980834D01*
X63733238Y-62049771D01*
X63820501Y-62174396D01*
X63820506Y-62174402D01*
X63987597Y-62341493D01*
X63987603Y-62341498D01*
X64173158Y-62471425D01*
X64216783Y-62526002D01*
X64223977Y-62595500D01*
X64192454Y-62657855D01*
X64173158Y-62674575D01*
X63987597Y-62804505D01*
X63820505Y-62971597D01*
X63684965Y-63165169D01*
X63684964Y-63165171D01*
X63585098Y-63379335D01*
X63585094Y-63379344D01*
X63523938Y-63607586D01*
X63523936Y-63607596D01*
X63503341Y-63842999D01*
X63503341Y-63843000D01*
X63523936Y-64078403D01*
X63523938Y-64078413D01*
X63585094Y-64306655D01*
X63585096Y-64306659D01*
X63585097Y-64306663D01*
X63617995Y-64377213D01*
X63684965Y-64520830D01*
X63684967Y-64520834D01*
X63793281Y-64675521D01*
X63820505Y-64714401D01*
X63987599Y-64881495D01*
X64084384Y-64949265D01*
X64181165Y-65017032D01*
X64181167Y-65017033D01*
X64181170Y-65017035D01*
X64395337Y-65116903D01*
X64623592Y-65178063D01*
X64811918Y-65194539D01*
X64858999Y-65198659D01*
X64859000Y-65198659D01*
X64859001Y-65198659D01*
X64898234Y-65195226D01*
X65094408Y-65178063D01*
X65322663Y-65116903D01*
X65536830Y-65017035D01*
X65730401Y-64881495D01*
X65897495Y-64714401D01*
X66027425Y-64528842D01*
X66082002Y-64485217D01*
X66151500Y-64478023D01*
X66213855Y-64509546D01*
X66230575Y-64528842D01*
X66360500Y-64714395D01*
X66360505Y-64714401D01*
X66527599Y-64881495D01*
X66624384Y-64949265D01*
X66721165Y-65017032D01*
X66721167Y-65017033D01*
X66721170Y-65017035D01*
X66935337Y-65116903D01*
X67163592Y-65178063D01*
X67351918Y-65194539D01*
X67398999Y-65198659D01*
X67399000Y-65198659D01*
X67399001Y-65198659D01*
X67438234Y-65195226D01*
X67634408Y-65178063D01*
X67862663Y-65116903D01*
X68076830Y-65017035D01*
X68270401Y-64881495D01*
X68437495Y-64714401D01*
X68573035Y-64520830D01*
X68672903Y-64306663D01*
X68734063Y-64078408D01*
X68754659Y-63843000D01*
X68734063Y-63607592D01*
X68672903Y-63379337D01*
X68573035Y-63165171D01*
X68567425Y-63157158D01*
X68437494Y-62971597D01*
X68270402Y-62804506D01*
X68270396Y-62804501D01*
X68084842Y-62674575D01*
X68041217Y-62619998D01*
X68034023Y-62550500D01*
X68065546Y-62488145D01*
X68084842Y-62471425D01*
X68177737Y-62406379D01*
X68270401Y-62341495D01*
X68437495Y-62174401D01*
X68573035Y-61980830D01*
X68672903Y-61766663D01*
X68734063Y-61538408D01*
X68754659Y-61303000D01*
X68734063Y-61067592D01*
X68672903Y-60839337D01*
X68573035Y-60625171D01*
X68567425Y-60617158D01*
X68437494Y-60431597D01*
X68270402Y-60264506D01*
X68270396Y-60264501D01*
X68084842Y-60134575D01*
X68041217Y-60079998D01*
X68034023Y-60010500D01*
X68065546Y-59948145D01*
X68084842Y-59931425D01*
X68107026Y-59915891D01*
X68270401Y-59801495D01*
X68437495Y-59634401D01*
X68573035Y-59440830D01*
X68672903Y-59226663D01*
X68734063Y-58998408D01*
X68754659Y-58763000D01*
X68734063Y-58527592D01*
X68672903Y-58299337D01*
X68573035Y-58085171D01*
X68567731Y-58077595D01*
X68437494Y-57891597D01*
X68345892Y-57799996D01*
X70694435Y-57799996D01*
X70694435Y-57800003D01*
X70714630Y-57979249D01*
X70714631Y-57979254D01*
X70774211Y-58149523D01*
X70845514Y-58263000D01*
X70870184Y-58302262D01*
X70997738Y-58429816D01*
X71060753Y-58469411D01*
X71147958Y-58524206D01*
X71150478Y-58525789D01*
X71276846Y-58570007D01*
X71320745Y-58585368D01*
X71320750Y-58585369D01*
X71499996Y-58605565D01*
X71500000Y-58605565D01*
X71500004Y-58605565D01*
X71679249Y-58585369D01*
X71679252Y-58585368D01*
X71679255Y-58585368D01*
X71849522Y-58525789D01*
X71852042Y-58524206D01*
X71909007Y-58488412D01*
X71976244Y-58469411D01*
X72040953Y-58488412D01*
X72100435Y-58525788D01*
X72270705Y-58585368D01*
X72270710Y-58585369D01*
X72449956Y-58605565D01*
X72449960Y-58605565D01*
X72449964Y-58605565D01*
X72629209Y-58585369D01*
X72629212Y-58585368D01*
X72629215Y-58585368D01*
X72799482Y-58525789D01*
X72952222Y-58429816D01*
X73079776Y-58302262D01*
X73175749Y-58149522D01*
X73235328Y-57979255D01*
X73245168Y-57891922D01*
X73255525Y-57800003D01*
X73255525Y-57799996D01*
X73235329Y-57620750D01*
X73235328Y-57620745D01*
X73175748Y-57450476D01*
X73079775Y-57297737D01*
X72952222Y-57170184D01*
X72799483Y-57074211D01*
X72629214Y-57014631D01*
X72629209Y-57014630D01*
X72449964Y-56994435D01*
X72449956Y-56994435D01*
X72270710Y-57014630D01*
X72270697Y-57014633D01*
X72100439Y-57074209D01*
X72040951Y-57111588D01*
X71973714Y-57130588D01*
X71909009Y-57111588D01*
X71849520Y-57074209D01*
X71679262Y-57014633D01*
X71679249Y-57014630D01*
X71500004Y-56994435D01*
X71499996Y-56994435D01*
X71320750Y-57014630D01*
X71320745Y-57014631D01*
X71150476Y-57074211D01*
X70997737Y-57170184D01*
X70870184Y-57297737D01*
X70774211Y-57450476D01*
X70714631Y-57620745D01*
X70714630Y-57620750D01*
X70694435Y-57799996D01*
X68345892Y-57799996D01*
X68270402Y-57724506D01*
X68270396Y-57724501D01*
X68084842Y-57594575D01*
X68041217Y-57539998D01*
X68034023Y-57470500D01*
X68065546Y-57408145D01*
X68084842Y-57391425D01*
X68107026Y-57375891D01*
X68270401Y-57261495D01*
X68437495Y-57094401D01*
X68573035Y-56900830D01*
X68672903Y-56686663D01*
X68734063Y-56458408D01*
X68754659Y-56223000D01*
X68754659Y-56222999D01*
X76203341Y-56222999D01*
X76203341Y-56223000D01*
X76223936Y-56458403D01*
X76223938Y-56458413D01*
X76285094Y-56686655D01*
X76285096Y-56686659D01*
X76285097Y-56686663D01*
X76289000Y-56695032D01*
X76384965Y-56900830D01*
X76384967Y-56900834D01*
X76464649Y-57014631D01*
X76520501Y-57094396D01*
X76520506Y-57094402D01*
X76687597Y-57261493D01*
X76687603Y-57261498D01*
X76873158Y-57391425D01*
X76916783Y-57446002D01*
X76923977Y-57515500D01*
X76892454Y-57577855D01*
X76873158Y-57594575D01*
X76687597Y-57724505D01*
X76520505Y-57891597D01*
X76384965Y-58085169D01*
X76384964Y-58085171D01*
X76285098Y-58299335D01*
X76285094Y-58299344D01*
X76223938Y-58527586D01*
X76223936Y-58527596D01*
X76203341Y-58762999D01*
X76203341Y-58763000D01*
X76223936Y-58998403D01*
X76223938Y-58998413D01*
X76285094Y-59226655D01*
X76285096Y-59226659D01*
X76285097Y-59226663D01*
X76365004Y-59398023D01*
X76384965Y-59440830D01*
X76384967Y-59440834D01*
X76493281Y-59595521D01*
X76520501Y-59634396D01*
X76520506Y-59634402D01*
X76687597Y-59801493D01*
X76687603Y-59801498D01*
X76873158Y-59931425D01*
X76916783Y-59986002D01*
X76923977Y-60055500D01*
X76892454Y-60117855D01*
X76873158Y-60134575D01*
X76687597Y-60264505D01*
X76520505Y-60431597D01*
X76384965Y-60625169D01*
X76384964Y-60625171D01*
X76285098Y-60839335D01*
X76285094Y-60839344D01*
X76223938Y-61067586D01*
X76223936Y-61067596D01*
X76203341Y-61302999D01*
X76203341Y-61303000D01*
X76223936Y-61538403D01*
X76223938Y-61538413D01*
X76285094Y-61766655D01*
X76285096Y-61766659D01*
X76285097Y-61766663D01*
X76365004Y-61938023D01*
X76384965Y-61980830D01*
X76384967Y-61980834D01*
X76433238Y-62049771D01*
X76520501Y-62174396D01*
X76520506Y-62174402D01*
X76687597Y-62341493D01*
X76687603Y-62341498D01*
X76873158Y-62471425D01*
X76916783Y-62526002D01*
X76923977Y-62595500D01*
X76892454Y-62657855D01*
X76873158Y-62674575D01*
X76687597Y-62804505D01*
X76520505Y-62971597D01*
X76384965Y-63165169D01*
X76384964Y-63165171D01*
X76285098Y-63379335D01*
X76285094Y-63379344D01*
X76223938Y-63607586D01*
X76223936Y-63607596D01*
X76203341Y-63842999D01*
X76203341Y-63843000D01*
X76223936Y-64078403D01*
X76223938Y-64078413D01*
X76285094Y-64306655D01*
X76285096Y-64306659D01*
X76285097Y-64306663D01*
X76317995Y-64377213D01*
X76384965Y-64520830D01*
X76384967Y-64520834D01*
X76493281Y-64675521D01*
X76520501Y-64714396D01*
X76520506Y-64714402D01*
X76687597Y-64881493D01*
X76687603Y-64881498D01*
X76873158Y-65011425D01*
X76916783Y-65066002D01*
X76923977Y-65135500D01*
X76892454Y-65197855D01*
X76873158Y-65214575D01*
X76687597Y-65344505D01*
X76520505Y-65511597D01*
X76384965Y-65705169D01*
X76384964Y-65705171D01*
X76285098Y-65919335D01*
X76285094Y-65919344D01*
X76223938Y-66147586D01*
X76223936Y-66147596D01*
X76203341Y-66382999D01*
X76203341Y-66383000D01*
X76223936Y-66618403D01*
X76223938Y-66618413D01*
X76285094Y-66846655D01*
X76285096Y-66846659D01*
X76285097Y-66846663D01*
X76340884Y-66966298D01*
X76384965Y-67060830D01*
X76384967Y-67060834D01*
X76431502Y-67127292D01*
X76520501Y-67254396D01*
X76520506Y-67254402D01*
X76687597Y-67421493D01*
X76687603Y-67421498D01*
X76873158Y-67551425D01*
X76916783Y-67606002D01*
X76923977Y-67675500D01*
X76892454Y-67737855D01*
X76873158Y-67754575D01*
X76687597Y-67884505D01*
X76520505Y-68051597D01*
X76384965Y-68245169D01*
X76384964Y-68245171D01*
X76285098Y-68459335D01*
X76285094Y-68459344D01*
X76223938Y-68687586D01*
X76223936Y-68687596D01*
X76203341Y-68922999D01*
X76203341Y-68923000D01*
X76223936Y-69158403D01*
X76223938Y-69158413D01*
X76285094Y-69386655D01*
X76285096Y-69386659D01*
X76285097Y-69386663D01*
X76379703Y-69589546D01*
X76384965Y-69600830D01*
X76384967Y-69600834D01*
X76493281Y-69755521D01*
X76520501Y-69794396D01*
X76520506Y-69794402D01*
X76687597Y-69961493D01*
X76687603Y-69961498D01*
X76873158Y-70091425D01*
X76916783Y-70146002D01*
X76923977Y-70215500D01*
X76892454Y-70277855D01*
X76873158Y-70294575D01*
X76687597Y-70424505D01*
X76520505Y-70591597D01*
X76384965Y-70785169D01*
X76384964Y-70785171D01*
X76285098Y-70999335D01*
X76285094Y-70999344D01*
X76223938Y-71227586D01*
X76223936Y-71227596D01*
X76203341Y-71462999D01*
X76203341Y-71463000D01*
X76223936Y-71698403D01*
X76223938Y-71698413D01*
X76285094Y-71926655D01*
X76285096Y-71926659D01*
X76285097Y-71926663D01*
X76319295Y-72000000D01*
X76384965Y-72140830D01*
X76384967Y-72140834D01*
X76411870Y-72179255D01*
X76520501Y-72334396D01*
X76520506Y-72334402D01*
X76687597Y-72501493D01*
X76687603Y-72501498D01*
X76873158Y-72631425D01*
X76916783Y-72686002D01*
X76923977Y-72755500D01*
X76892454Y-72817855D01*
X76873158Y-72834575D01*
X76687597Y-72964505D01*
X76520505Y-73131597D01*
X76384965Y-73325169D01*
X76384964Y-73325171D01*
X76285098Y-73539335D01*
X76285094Y-73539344D01*
X76223938Y-73767586D01*
X76223936Y-73767596D01*
X76203341Y-74002999D01*
X76203341Y-74003000D01*
X76223936Y-74238403D01*
X76223938Y-74238413D01*
X76285094Y-74466655D01*
X76285096Y-74466659D01*
X76285097Y-74466663D01*
X76312301Y-74525001D01*
X76384965Y-74680830D01*
X76384967Y-74680834D01*
X76482935Y-74820745D01*
X76520501Y-74874396D01*
X76520506Y-74874402D01*
X76687597Y-75041493D01*
X76687603Y-75041498D01*
X76873158Y-75171425D01*
X76916783Y-75226002D01*
X76923977Y-75295500D01*
X76892454Y-75357855D01*
X76873158Y-75374575D01*
X76687597Y-75504505D01*
X76520505Y-75671597D01*
X76384965Y-75865169D01*
X76384964Y-75865171D01*
X76285098Y-76079335D01*
X76285094Y-76079344D01*
X76223938Y-76307586D01*
X76223936Y-76307596D01*
X76203341Y-76542999D01*
X76203341Y-76543000D01*
X76223936Y-76778403D01*
X76223938Y-76778413D01*
X76285094Y-77006655D01*
X76285096Y-77006659D01*
X76285097Y-77006663D01*
X76365578Y-77179254D01*
X76384965Y-77220830D01*
X76384967Y-77220834D01*
X76475076Y-77349522D01*
X76520501Y-77414396D01*
X76520506Y-77414402D01*
X76687597Y-77581493D01*
X76687603Y-77581498D01*
X76873158Y-77711425D01*
X76916783Y-77766002D01*
X76923977Y-77835500D01*
X76892454Y-77897855D01*
X76873158Y-77914575D01*
X76687597Y-78044505D01*
X76520505Y-78211597D01*
X76384965Y-78405169D01*
X76384964Y-78405171D01*
X76285098Y-78619335D01*
X76285094Y-78619344D01*
X76223938Y-78847586D01*
X76223936Y-78847596D01*
X76203341Y-79082999D01*
X76203341Y-79083000D01*
X76223936Y-79318403D01*
X76223938Y-79318413D01*
X76285094Y-79546655D01*
X76285096Y-79546659D01*
X76285097Y-79546663D01*
X76346926Y-79679255D01*
X76384965Y-79760830D01*
X76384967Y-79760834D01*
X76493281Y-79915521D01*
X76520501Y-79954396D01*
X76520506Y-79954402D01*
X76687597Y-80121493D01*
X76687603Y-80121498D01*
X76873158Y-80251425D01*
X76916783Y-80306002D01*
X76923977Y-80375500D01*
X76892454Y-80437855D01*
X76873158Y-80454575D01*
X76687597Y-80584505D01*
X76520505Y-80751597D01*
X76384965Y-80945169D01*
X76384964Y-80945171D01*
X76285098Y-81159335D01*
X76285094Y-81159344D01*
X76223938Y-81387586D01*
X76223936Y-81387596D01*
X76203341Y-81622999D01*
X76203341Y-81623000D01*
X76223936Y-81858403D01*
X76223938Y-81858413D01*
X76285094Y-82086655D01*
X76285096Y-82086659D01*
X76285097Y-82086663D01*
X76312305Y-82145010D01*
X76384965Y-82300830D01*
X76384967Y-82300834D01*
X76492960Y-82455063D01*
X76520501Y-82494396D01*
X76520506Y-82494402D01*
X76687597Y-82661493D01*
X76687603Y-82661498D01*
X76873158Y-82791425D01*
X76916783Y-82846002D01*
X76923977Y-82915500D01*
X76892454Y-82977855D01*
X76873158Y-82994575D01*
X76687597Y-83124505D01*
X76520505Y-83291597D01*
X76384965Y-83485169D01*
X76384964Y-83485171D01*
X76285098Y-83699335D01*
X76285094Y-83699344D01*
X76223938Y-83927586D01*
X76223936Y-83927596D01*
X76203341Y-84162999D01*
X76203341Y-84163000D01*
X76223936Y-84398403D01*
X76223938Y-84398413D01*
X76285094Y-84626655D01*
X76285096Y-84626659D01*
X76285097Y-84626663D01*
X76356249Y-84779249D01*
X76384965Y-84840830D01*
X76384967Y-84840834D01*
X76465873Y-84956379D01*
X76520501Y-85034396D01*
X76520506Y-85034402D01*
X76687597Y-85201493D01*
X76687603Y-85201498D01*
X76873158Y-85331425D01*
X76916783Y-85386002D01*
X76923977Y-85455500D01*
X76892454Y-85517855D01*
X76873158Y-85534575D01*
X76687597Y-85664505D01*
X76520505Y-85831597D01*
X76384965Y-86025169D01*
X76384964Y-86025171D01*
X76285098Y-86239335D01*
X76285094Y-86239344D01*
X76223938Y-86467586D01*
X76223936Y-86467596D01*
X76203341Y-86702999D01*
X76203341Y-86703000D01*
X76223936Y-86938403D01*
X76223938Y-86938413D01*
X76285094Y-87166655D01*
X76285096Y-87166659D01*
X76285097Y-87166663D01*
X76365004Y-87338023D01*
X76384965Y-87380830D01*
X76384967Y-87380834D01*
X76433733Y-87450478D01*
X76520501Y-87574396D01*
X76520506Y-87574402D01*
X76687597Y-87741493D01*
X76687603Y-87741498D01*
X76873158Y-87871425D01*
X76916783Y-87926002D01*
X76923977Y-87995500D01*
X76892454Y-88057855D01*
X76873158Y-88074575D01*
X76687597Y-88204505D01*
X76520505Y-88371597D01*
X76384965Y-88565169D01*
X76384964Y-88565171D01*
X76285098Y-88779335D01*
X76285094Y-88779344D01*
X76223938Y-89007586D01*
X76223936Y-89007596D01*
X76203341Y-89242999D01*
X76203341Y-89243000D01*
X76223936Y-89478403D01*
X76223938Y-89478413D01*
X76285094Y-89706655D01*
X76285096Y-89706659D01*
X76285097Y-89706663D01*
X76352304Y-89850789D01*
X76384965Y-89920830D01*
X76384967Y-89920834D01*
X76418527Y-89968762D01*
X76520501Y-90114396D01*
X76520506Y-90114402D01*
X76687597Y-90281493D01*
X76687603Y-90281498D01*
X76873158Y-90411425D01*
X76916783Y-90466002D01*
X76923977Y-90535500D01*
X76892454Y-90597855D01*
X76873158Y-90614575D01*
X76687597Y-90744505D01*
X76520505Y-90911597D01*
X76384965Y-91105169D01*
X76384964Y-91105171D01*
X76285098Y-91319335D01*
X76285094Y-91319344D01*
X76223938Y-91547586D01*
X76223936Y-91547596D01*
X76203341Y-91782999D01*
X76203341Y-91783000D01*
X76223936Y-92018403D01*
X76223938Y-92018413D01*
X76285094Y-92246655D01*
X76285096Y-92246659D01*
X76285097Y-92246663D01*
X76286876Y-92250478D01*
X76384965Y-92460830D01*
X76384967Y-92460834D01*
X76416670Y-92506110D01*
X76520501Y-92654396D01*
X76520506Y-92654402D01*
X76687597Y-92821493D01*
X76687603Y-92821498D01*
X76873158Y-92951425D01*
X76916783Y-93006002D01*
X76923977Y-93075500D01*
X76892454Y-93137855D01*
X76873158Y-93154575D01*
X76687597Y-93284505D01*
X76520505Y-93451597D01*
X76384965Y-93645170D01*
X76285098Y-93859335D01*
X76285094Y-93859344D01*
X76223938Y-94087586D01*
X76223936Y-94087596D01*
X76203341Y-94322999D01*
X76203341Y-94323000D01*
X76223936Y-94558403D01*
X76223938Y-94558413D01*
X76285094Y-94786655D01*
X76285096Y-94786659D01*
X76285097Y-94786663D01*
X76365004Y-94958023D01*
X76384965Y-95000830D01*
X76384967Y-95000834D01*
X76474334Y-95128462D01*
X76520501Y-95194396D01*
X76520506Y-95194402D01*
X76687597Y-95361493D01*
X76687603Y-95361498D01*
X76873158Y-95491425D01*
X76916783Y-95546002D01*
X76923977Y-95615500D01*
X76892454Y-95677855D01*
X76873158Y-95694575D01*
X76687597Y-95824505D01*
X76520505Y-95991597D01*
X76384965Y-96185169D01*
X76384964Y-96185171D01*
X76285098Y-96399335D01*
X76285094Y-96399344D01*
X76223938Y-96627586D01*
X76223936Y-96627596D01*
X76203341Y-96862999D01*
X76203341Y-96863000D01*
X76223936Y-97098403D01*
X76223938Y-97098413D01*
X76285094Y-97326655D01*
X76285096Y-97326659D01*
X76285097Y-97326663D01*
X76313509Y-97387592D01*
X76384965Y-97540830D01*
X76384967Y-97540834D01*
X76454511Y-97640152D01*
X76520501Y-97734396D01*
X76520506Y-97734402D01*
X76687597Y-97901493D01*
X76687603Y-97901498D01*
X76873158Y-98031425D01*
X76916783Y-98086002D01*
X76923977Y-98155500D01*
X76892454Y-98217855D01*
X76873158Y-98234575D01*
X76687597Y-98364505D01*
X76520505Y-98531597D01*
X76384965Y-98725169D01*
X76384964Y-98725171D01*
X76285098Y-98939335D01*
X76285094Y-98939344D01*
X76223938Y-99167586D01*
X76223936Y-99167596D01*
X76203341Y-99402999D01*
X76203341Y-99403000D01*
X76223936Y-99638403D01*
X76223938Y-99638413D01*
X76285094Y-99866655D01*
X76285096Y-99866659D01*
X76285097Y-99866663D01*
X76312522Y-99925476D01*
X76384965Y-100080830D01*
X76384967Y-100080834D01*
X76463941Y-100193620D01*
X76520501Y-100274396D01*
X76520506Y-100274402D01*
X76687597Y-100441493D01*
X76687603Y-100441498D01*
X76873158Y-100571425D01*
X76916783Y-100626002D01*
X76923977Y-100695500D01*
X76892454Y-100757855D01*
X76873158Y-100774575D01*
X76687597Y-100904505D01*
X76520505Y-101071597D01*
X76384965Y-101265169D01*
X76384964Y-101265171D01*
X76285098Y-101479335D01*
X76285094Y-101479344D01*
X76223938Y-101707586D01*
X76223936Y-101707596D01*
X76203341Y-101942999D01*
X76203341Y-101943000D01*
X76223936Y-102178403D01*
X76223938Y-102178413D01*
X76285094Y-102406655D01*
X76285096Y-102406659D01*
X76285097Y-102406663D01*
X76331598Y-102506384D01*
X76384965Y-102620830D01*
X76384967Y-102620834D01*
X76435930Y-102693616D01*
X76520505Y-102814401D01*
X76687599Y-102981495D01*
X76784384Y-103049265D01*
X76881165Y-103117032D01*
X76881167Y-103117033D01*
X76881170Y-103117035D01*
X77095337Y-103216903D01*
X77095343Y-103216904D01*
X77095344Y-103216905D01*
X77125556Y-103225000D01*
X77323592Y-103278063D01*
X77504491Y-103293890D01*
X77558999Y-103298659D01*
X77559000Y-103298659D01*
X77559001Y-103298659D01*
X77613497Y-103293891D01*
X77794408Y-103278063D01*
X78022663Y-103216903D01*
X78236830Y-103117035D01*
X78430401Y-102981495D01*
X78597495Y-102814401D01*
X78727425Y-102628842D01*
X78782002Y-102585217D01*
X78851500Y-102578023D01*
X78913855Y-102609546D01*
X78930575Y-102628842D01*
X79060500Y-102814395D01*
X79060505Y-102814401D01*
X79227599Y-102981495D01*
X79324384Y-103049265D01*
X79421165Y-103117032D01*
X79421167Y-103117033D01*
X79421170Y-103117035D01*
X79635337Y-103216903D01*
X79635343Y-103216904D01*
X79635344Y-103216905D01*
X79665556Y-103225000D01*
X79863592Y-103278063D01*
X80044491Y-103293890D01*
X80098999Y-103298659D01*
X80099000Y-103298659D01*
X80099001Y-103298659D01*
X80153497Y-103293891D01*
X80334408Y-103278063D01*
X80562663Y-103216903D01*
X80776830Y-103117035D01*
X80970401Y-102981495D01*
X81137495Y-102814401D01*
X81273035Y-102620830D01*
X81372903Y-102406663D01*
X81434063Y-102178408D01*
X81454659Y-101943000D01*
X81434063Y-101707592D01*
X81372903Y-101479337D01*
X81273035Y-101265171D01*
X81267425Y-101257158D01*
X81137494Y-101071597D01*
X80970402Y-100904506D01*
X80970396Y-100904501D01*
X80784842Y-100774575D01*
X80741217Y-100719998D01*
X80734023Y-100650500D01*
X80765546Y-100588145D01*
X80784842Y-100571425D01*
X80850018Y-100525788D01*
X80970401Y-100441495D01*
X81137495Y-100274401D01*
X81273035Y-100080830D01*
X81372903Y-99866663D01*
X81434063Y-99638408D01*
X81454659Y-99403000D01*
X81453116Y-99385369D01*
X81446513Y-99309889D01*
X81434063Y-99167592D01*
X81372903Y-98939337D01*
X81273035Y-98725171D01*
X81267425Y-98717158D01*
X81137494Y-98531597D01*
X80970402Y-98364506D01*
X80970396Y-98364501D01*
X80784842Y-98234575D01*
X80741217Y-98179998D01*
X80734023Y-98110500D01*
X80765546Y-98048145D01*
X80784842Y-98031425D01*
X80859357Y-97979249D01*
X80970401Y-97901495D01*
X81137495Y-97734401D01*
X81273035Y-97540830D01*
X81372903Y-97326663D01*
X81434063Y-97098408D01*
X81454659Y-96863000D01*
X81434063Y-96627592D01*
X81378341Y-96419631D01*
X81372905Y-96399344D01*
X81372904Y-96399343D01*
X81372903Y-96399337D01*
X81273035Y-96185171D01*
X81267425Y-96177158D01*
X81137494Y-95991597D01*
X80970402Y-95824506D01*
X80970396Y-95824501D01*
X80784842Y-95694575D01*
X80741217Y-95639998D01*
X80734023Y-95570500D01*
X80765546Y-95508145D01*
X80784842Y-95491425D01*
X80877333Y-95426662D01*
X80970401Y-95361495D01*
X81137495Y-95194401D01*
X81273035Y-95000830D01*
X81372903Y-94786663D01*
X81434063Y-94558408D01*
X81454659Y-94323000D01*
X81434063Y-94087592D01*
X81372903Y-93859337D01*
X81273035Y-93645171D01*
X81137495Y-93451599D01*
X81137494Y-93451597D01*
X80970402Y-93284506D01*
X80970396Y-93284501D01*
X80784842Y-93154575D01*
X80741217Y-93099998D01*
X80734023Y-93030500D01*
X80765546Y-92968145D01*
X80784842Y-92951425D01*
X80825797Y-92922748D01*
X80970401Y-92821495D01*
X81137495Y-92654401D01*
X81273035Y-92460830D01*
X81372903Y-92246663D01*
X81434063Y-92018408D01*
X81454659Y-91783000D01*
X81434063Y-91547592D01*
X81374420Y-91325000D01*
X81372905Y-91319344D01*
X81372904Y-91319343D01*
X81372903Y-91319337D01*
X81273035Y-91105171D01*
X81270999Y-91102262D01*
X81137494Y-90911597D01*
X80970402Y-90744506D01*
X80970396Y-90744501D01*
X80784842Y-90614575D01*
X80741217Y-90559998D01*
X80734023Y-90490500D01*
X80765546Y-90428145D01*
X80784842Y-90411425D01*
X80865688Y-90354816D01*
X80970401Y-90281495D01*
X81137495Y-90114401D01*
X81273035Y-89920830D01*
X81372903Y-89706663D01*
X81434063Y-89478408D01*
X81454659Y-89243000D01*
X81434063Y-89007592D01*
X81372903Y-88779337D01*
X81273035Y-88565171D01*
X81267425Y-88557158D01*
X81137494Y-88371597D01*
X80970402Y-88204506D01*
X80970396Y-88204501D01*
X80784842Y-88074575D01*
X80741217Y-88019998D01*
X80734023Y-87950500D01*
X80765546Y-87888145D01*
X80784842Y-87871425D01*
X80886853Y-87799996D01*
X80970401Y-87741495D01*
X81137495Y-87574401D01*
X81273035Y-87380830D01*
X81372903Y-87166663D01*
X81434063Y-86938408D01*
X81454659Y-86703000D01*
X81434063Y-86467592D01*
X81372903Y-86239337D01*
X81273035Y-86025171D01*
X81267425Y-86017158D01*
X81137494Y-85831597D01*
X80970402Y-85664506D01*
X80970396Y-85664501D01*
X80784842Y-85534575D01*
X80741217Y-85479998D01*
X80734023Y-85410500D01*
X80765546Y-85348145D01*
X80784842Y-85331425D01*
X80929954Y-85229816D01*
X80970401Y-85201495D01*
X81137495Y-85034401D01*
X81273035Y-84840830D01*
X81372903Y-84626663D01*
X81434063Y-84398408D01*
X81454659Y-84163000D01*
X81434063Y-83927592D01*
X81372903Y-83699337D01*
X81273035Y-83485171D01*
X81267425Y-83477158D01*
X81137494Y-83291597D01*
X80970402Y-83124506D01*
X80970396Y-83124501D01*
X80784842Y-82994575D01*
X80741217Y-82939998D01*
X80734023Y-82870500D01*
X80765546Y-82808145D01*
X80784842Y-82791425D01*
X80945037Y-82679255D01*
X80970401Y-82661495D01*
X81137495Y-82494401D01*
X81273035Y-82300830D01*
X81372903Y-82086663D01*
X81434063Y-81858408D01*
X81454659Y-81623000D01*
X81434063Y-81387592D01*
X81372903Y-81159337D01*
X81273035Y-80945171D01*
X81272150Y-80943906D01*
X81137494Y-80751597D01*
X80970402Y-80584506D01*
X80970396Y-80584501D01*
X80784842Y-80454575D01*
X80741217Y-80399998D01*
X80734023Y-80330500D01*
X80765546Y-80268145D01*
X80784842Y-80251425D01*
X80887911Y-80179255D01*
X80970401Y-80121495D01*
X81137495Y-79954401D01*
X81273035Y-79760830D01*
X81372903Y-79546663D01*
X81434063Y-79318408D01*
X81454659Y-79083000D01*
X81434063Y-78847592D01*
X81372903Y-78619337D01*
X81273035Y-78405171D01*
X81267425Y-78397158D01*
X81137494Y-78211597D01*
X80970402Y-78044506D01*
X80970396Y-78044501D01*
X80784842Y-77914575D01*
X80741217Y-77859998D01*
X80734023Y-77790500D01*
X80765546Y-77728145D01*
X80784842Y-77711425D01*
X80807026Y-77695891D01*
X80970401Y-77581495D01*
X81137495Y-77414401D01*
X81273035Y-77220830D01*
X81372903Y-77006663D01*
X81434063Y-76778408D01*
X81454659Y-76543000D01*
X81434063Y-76307592D01*
X81378503Y-76100235D01*
X81372905Y-76079344D01*
X81372904Y-76079343D01*
X81372903Y-76079337D01*
X81273035Y-75865171D01*
X81267425Y-75857158D01*
X81137494Y-75671597D01*
X80970402Y-75504506D01*
X80970396Y-75504501D01*
X80784842Y-75374575D01*
X80741217Y-75319998D01*
X80734023Y-75250500D01*
X80765546Y-75188145D01*
X80784842Y-75171425D01*
X80808566Y-75154813D01*
X80970401Y-75041495D01*
X81137495Y-74874401D01*
X81273035Y-74680830D01*
X81372903Y-74466663D01*
X81434063Y-74238408D01*
X81454659Y-74003000D01*
X81434063Y-73767592D01*
X81372903Y-73539337D01*
X81273035Y-73325171D01*
X81267425Y-73317158D01*
X81137494Y-73131597D01*
X80970402Y-72964506D01*
X80970396Y-72964501D01*
X80784842Y-72834575D01*
X80741217Y-72779998D01*
X80734023Y-72710500D01*
X80765546Y-72648145D01*
X80784842Y-72631425D01*
X80909566Y-72544092D01*
X80970401Y-72501495D01*
X81137495Y-72334401D01*
X81273035Y-72140830D01*
X81372903Y-71926663D01*
X81434063Y-71698408D01*
X81454659Y-71463000D01*
X81434063Y-71227592D01*
X81372903Y-70999337D01*
X81273035Y-70785171D01*
X81272598Y-70784546D01*
X81137494Y-70591597D01*
X80970402Y-70424506D01*
X80970396Y-70424501D01*
X80784842Y-70294575D01*
X80741217Y-70239998D01*
X80734023Y-70170500D01*
X80765546Y-70108145D01*
X80784842Y-70091425D01*
X80885783Y-70020745D01*
X80970401Y-69961495D01*
X81137495Y-69794401D01*
X81273035Y-69600830D01*
X81372903Y-69386663D01*
X81434063Y-69158408D01*
X81454659Y-68923000D01*
X81434063Y-68687592D01*
X81372903Y-68459337D01*
X81273035Y-68245171D01*
X81267425Y-68237158D01*
X81137494Y-68051597D01*
X80970402Y-67884506D01*
X80970396Y-67884501D01*
X80784842Y-67754575D01*
X80741217Y-67699998D01*
X80734023Y-67630500D01*
X80765546Y-67568145D01*
X80784842Y-67551425D01*
X80807026Y-67535891D01*
X80970401Y-67421495D01*
X81137495Y-67254401D01*
X81273035Y-67060830D01*
X81372903Y-66846663D01*
X81434063Y-66618408D01*
X81454659Y-66383000D01*
X81434063Y-66147592D01*
X81372903Y-65919337D01*
X81273035Y-65705171D01*
X81267425Y-65697158D01*
X81137494Y-65511597D01*
X80970402Y-65344506D01*
X80970396Y-65344501D01*
X80784842Y-65214575D01*
X80741217Y-65159998D01*
X80734023Y-65090500D01*
X80765546Y-65028145D01*
X80784842Y-65011425D01*
X80807026Y-64995891D01*
X80970401Y-64881495D01*
X81137495Y-64714401D01*
X81273035Y-64520830D01*
X81372903Y-64306663D01*
X81434063Y-64078408D01*
X81454659Y-63843000D01*
X81434063Y-63607592D01*
X81372903Y-63379337D01*
X81273035Y-63165171D01*
X81267425Y-63157158D01*
X81137494Y-62971597D01*
X80970402Y-62804506D01*
X80970396Y-62804501D01*
X80784842Y-62674575D01*
X80741217Y-62619998D01*
X80734023Y-62550500D01*
X80765546Y-62488145D01*
X80784842Y-62471425D01*
X80877737Y-62406379D01*
X80970401Y-62341495D01*
X81137495Y-62174401D01*
X81273035Y-61980830D01*
X81372903Y-61766663D01*
X81434063Y-61538408D01*
X81454659Y-61303000D01*
X81434063Y-61067592D01*
X81372903Y-60839337D01*
X81273035Y-60625171D01*
X81267425Y-60617158D01*
X81137494Y-60431597D01*
X80970402Y-60264506D01*
X80970401Y-60264505D01*
X80784405Y-60134269D01*
X80740781Y-60079692D01*
X80733588Y-60010193D01*
X80765110Y-59947839D01*
X80784405Y-59931119D01*
X80970082Y-59801105D01*
X81137105Y-59634082D01*
X81272600Y-59440578D01*
X81372429Y-59226492D01*
X81372432Y-59226486D01*
X81429636Y-59013000D01*
X80532012Y-59013000D01*
X80564925Y-58955993D01*
X80599000Y-58828826D01*
X80599000Y-58697174D01*
X80564925Y-58570007D01*
X80532012Y-58513000D01*
X81429636Y-58513000D01*
X81429635Y-58512999D01*
X81372432Y-58299513D01*
X81372429Y-58299507D01*
X81272600Y-58085422D01*
X81272599Y-58085420D01*
X81137113Y-57891926D01*
X81137108Y-57891920D01*
X80970078Y-57724890D01*
X80784405Y-57594879D01*
X80740780Y-57540302D01*
X80733588Y-57470804D01*
X80765110Y-57408449D01*
X80784406Y-57391730D01*
X80784842Y-57391425D01*
X80970401Y-57261495D01*
X81137495Y-57094401D01*
X81273035Y-56900830D01*
X81372903Y-56686663D01*
X81434063Y-56458408D01*
X81454659Y-56223000D01*
X81434063Y-55987592D01*
X81372903Y-55759337D01*
X81273035Y-55545171D01*
X81267425Y-55537158D01*
X81137494Y-55351597D01*
X80970402Y-55184506D01*
X80970396Y-55184501D01*
X80784842Y-55054575D01*
X80741217Y-54999998D01*
X80734023Y-54930500D01*
X80765546Y-54868145D01*
X80784842Y-54851425D01*
X80807026Y-54835891D01*
X80970401Y-54721495D01*
X81137495Y-54554401D01*
X81273035Y-54360830D01*
X81372903Y-54146663D01*
X81434063Y-53918408D01*
X81454659Y-53683000D01*
X81434063Y-53447592D01*
X81372903Y-53219337D01*
X81273035Y-53005171D01*
X81269417Y-53000003D01*
X81137494Y-52811597D01*
X80970402Y-52644506D01*
X80970395Y-52644501D01*
X80776834Y-52508967D01*
X80776830Y-52508965D01*
X80752754Y-52497738D01*
X80562663Y-52409097D01*
X80562659Y-52409096D01*
X80562655Y-52409094D01*
X80334413Y-52347938D01*
X80334403Y-52347936D01*
X80099001Y-52327341D01*
X80098999Y-52327341D01*
X79863596Y-52347936D01*
X79863586Y-52347938D01*
X79635344Y-52409094D01*
X79635335Y-52409098D01*
X79421171Y-52508964D01*
X79421169Y-52508965D01*
X79227600Y-52644503D01*
X79105673Y-52766430D01*
X79044350Y-52799914D01*
X78974658Y-52794930D01*
X78918725Y-52753058D01*
X78901810Y-52722081D01*
X78852797Y-52590671D01*
X78852793Y-52590664D01*
X78766547Y-52475455D01*
X78766544Y-52475452D01*
X78651335Y-52389206D01*
X78651328Y-52389202D01*
X78516482Y-52338908D01*
X78516483Y-52338908D01*
X78456883Y-52332501D01*
X78456881Y-52332500D01*
X78456873Y-52332500D01*
X78456864Y-52332500D01*
X76661129Y-52332500D01*
X76661123Y-52332501D01*
X76601516Y-52338908D01*
X76466671Y-52389202D01*
X76466664Y-52389206D01*
X76351455Y-52475452D01*
X76351452Y-52475455D01*
X76265206Y-52590664D01*
X76265202Y-52590671D01*
X76214908Y-52725517D01*
X76208501Y-52785116D01*
X76208500Y-52785135D01*
X76208500Y-54580870D01*
X76208501Y-54580876D01*
X76214908Y-54640483D01*
X76265202Y-54775328D01*
X76265206Y-54775335D01*
X76351452Y-54890544D01*
X76351455Y-54890547D01*
X76466664Y-54976793D01*
X76466671Y-54976797D01*
X76598081Y-55025810D01*
X76654015Y-55067681D01*
X76678432Y-55133145D01*
X76663580Y-55201418D01*
X76642430Y-55229673D01*
X76520503Y-55351600D01*
X76384965Y-55545169D01*
X76384964Y-55545171D01*
X76285098Y-55759335D01*
X76285094Y-55759344D01*
X76223938Y-55987586D01*
X76223936Y-55987596D01*
X76203341Y-56222999D01*
X68754659Y-56222999D01*
X68734063Y-55987592D01*
X68672903Y-55759337D01*
X68573035Y-55545171D01*
X68567425Y-55537158D01*
X68437494Y-55351597D01*
X68270402Y-55184506D01*
X68270396Y-55184501D01*
X68084842Y-55054575D01*
X68041217Y-54999998D01*
X68034023Y-54930500D01*
X68065546Y-54868145D01*
X68084842Y-54851425D01*
X68107026Y-54835891D01*
X68270401Y-54721495D01*
X68437495Y-54554401D01*
X68573035Y-54360830D01*
X68672903Y-54146663D01*
X68734063Y-53918408D01*
X68754659Y-53683000D01*
X68734063Y-53447592D01*
X68672903Y-53219337D01*
X68573035Y-53005171D01*
X68569417Y-53000003D01*
X68569412Y-52999996D01*
X70694435Y-52999996D01*
X70694435Y-53000003D01*
X70714630Y-53179249D01*
X70714631Y-53179254D01*
X70774211Y-53349523D01*
X70835835Y-53447596D01*
X70870184Y-53502262D01*
X70997738Y-53629816D01*
X71150478Y-53725789D01*
X71320745Y-53785368D01*
X71320750Y-53785369D01*
X71499996Y-53805565D01*
X71500000Y-53805565D01*
X71500004Y-53805565D01*
X71679249Y-53785369D01*
X71679252Y-53785368D01*
X71679255Y-53785368D01*
X71849522Y-53725789D01*
X71908530Y-53688712D01*
X71909007Y-53688412D01*
X71976244Y-53669411D01*
X72040953Y-53688412D01*
X72100435Y-53725788D01*
X72270705Y-53785368D01*
X72270710Y-53785369D01*
X72449956Y-53805565D01*
X72449960Y-53805565D01*
X72449964Y-53805565D01*
X72629209Y-53785369D01*
X72629212Y-53785368D01*
X72629215Y-53785368D01*
X72799482Y-53725789D01*
X72952222Y-53629816D01*
X73079776Y-53502262D01*
X73175749Y-53349522D01*
X73235328Y-53179255D01*
X73242099Y-53119161D01*
X73255525Y-53000003D01*
X73255525Y-52999996D01*
X73235329Y-52820750D01*
X73235328Y-52820745D01*
X73226295Y-52794930D01*
X73175749Y-52650478D01*
X73171993Y-52644501D01*
X73136542Y-52588080D01*
X73079776Y-52497738D01*
X72952222Y-52370184D01*
X72892250Y-52332501D01*
X72799483Y-52274211D01*
X72629214Y-52214631D01*
X72629209Y-52214630D01*
X72449964Y-52194435D01*
X72449956Y-52194435D01*
X72270710Y-52214630D01*
X72270697Y-52214633D01*
X72100439Y-52274209D01*
X72040951Y-52311588D01*
X71973714Y-52330588D01*
X71909009Y-52311588D01*
X71849520Y-52274209D01*
X71679262Y-52214633D01*
X71679249Y-52214630D01*
X71500004Y-52194435D01*
X71499996Y-52194435D01*
X71320750Y-52214630D01*
X71320745Y-52214631D01*
X71150476Y-52274211D01*
X70997737Y-52370184D01*
X70870184Y-52497737D01*
X70774211Y-52650476D01*
X70714631Y-52820745D01*
X70714630Y-52820750D01*
X70694435Y-52999996D01*
X68569412Y-52999996D01*
X68437494Y-52811597D01*
X68270402Y-52644506D01*
X68270395Y-52644501D01*
X68076834Y-52508967D01*
X68076830Y-52508965D01*
X68052754Y-52497738D01*
X67862663Y-52409097D01*
X67862659Y-52409096D01*
X67862655Y-52409094D01*
X67634413Y-52347938D01*
X67634403Y-52347936D01*
X67399001Y-52327341D01*
X67398999Y-52327341D01*
X67163596Y-52347936D01*
X67163586Y-52347938D01*
X66935344Y-52409094D01*
X66935335Y-52409098D01*
X66721171Y-52508964D01*
X66721169Y-52508965D01*
X66527600Y-52644503D01*
X66405673Y-52766430D01*
X66344350Y-52799914D01*
X66274658Y-52794930D01*
X66218725Y-52753058D01*
X66201810Y-52722081D01*
X66152797Y-52590671D01*
X66152793Y-52590664D01*
X66066547Y-52475455D01*
X66066544Y-52475452D01*
X65951335Y-52389206D01*
X65951328Y-52389202D01*
X65816482Y-52338908D01*
X65816483Y-52338908D01*
X65756883Y-52332501D01*
X65756881Y-52332500D01*
X65756873Y-52332500D01*
X65756864Y-52332500D01*
X63961129Y-52332500D01*
X63961123Y-52332501D01*
X63901516Y-52338908D01*
X63766671Y-52389202D01*
X63766664Y-52389206D01*
X63651455Y-52475452D01*
X63651452Y-52475455D01*
X63565206Y-52590664D01*
X63565202Y-52590671D01*
X63514908Y-52725517D01*
X63508501Y-52785116D01*
X63508500Y-52785135D01*
X63508500Y-54580870D01*
X63508501Y-54580876D01*
X63514908Y-54640483D01*
X63565202Y-54775328D01*
X63565206Y-54775335D01*
X63651452Y-54890544D01*
X63651455Y-54890547D01*
X63766664Y-54976793D01*
X63766671Y-54976797D01*
X63898081Y-55025810D01*
X63954015Y-55067681D01*
X63978432Y-55133145D01*
X63963580Y-55201418D01*
X63942430Y-55229673D01*
X63820503Y-55351600D01*
X63684965Y-55545169D01*
X63684964Y-55545171D01*
X63585098Y-55759335D01*
X63585094Y-55759344D01*
X63523938Y-55987586D01*
X63523936Y-55987596D01*
X63503341Y-56222999D01*
X57193915Y-56222999D01*
X57301267Y-56000079D01*
X57390316Y-55745591D01*
X57450312Y-55482732D01*
X57480500Y-55214809D01*
X57480500Y-54945191D01*
X57450312Y-54677268D01*
X57390316Y-54414409D01*
X57301267Y-54159921D01*
X57184284Y-53917003D01*
X57040838Y-53688711D01*
X56872734Y-53477915D01*
X56682085Y-53287266D01*
X56471289Y-53119162D01*
X56242997Y-52975716D01*
X56242994Y-52975714D01*
X56000082Y-52858734D01*
X55745602Y-52769687D01*
X55745594Y-52769684D01*
X55537029Y-52722081D01*
X55482732Y-52709688D01*
X55482728Y-52709687D01*
X55482719Y-52709686D01*
X55214813Y-52679500D01*
X55214809Y-52679500D01*
X54945191Y-52679500D01*
X54945186Y-52679500D01*
X54677280Y-52709686D01*
X54677268Y-52709688D01*
X54414405Y-52769684D01*
X54414397Y-52769687D01*
X54159917Y-52858734D01*
X53917005Y-52975714D01*
X53688712Y-53119161D01*
X53477915Y-53287265D01*
X53287265Y-53477915D01*
X53119161Y-53688712D01*
X52975714Y-53917005D01*
X52858734Y-54159917D01*
X52769687Y-54414397D01*
X52769684Y-54414405D01*
X52709688Y-54677268D01*
X52709686Y-54677280D01*
X52679500Y-54945186D01*
X50500500Y-54945186D01*
X50500500Y-50624500D01*
X50520185Y-50557461D01*
X50572989Y-50511706D01*
X50624500Y-50500500D01*
X87425900Y-50500500D01*
X87492939Y-50520185D01*
G37*
%TD.AperFunction*%
%TD*%
M02*
