%TF.GenerationSoftware,KiCad,Pcbnew,8.0.7*%
%TF.CreationDate,2025-01-18T12:10:45-08:00*%
%TF.ProjectId,plex-loader,706c6578-2d6c-46f6-9164-65722e6b6963,rev?*%
%TF.SameCoordinates,Original*%
%TF.FileFunction,Legend,Bot*%
%TF.FilePolarity,Positive*%
%FSLAX46Y46*%
G04 Gerber Fmt 4.6, Leading zero omitted, Abs format (unit mm)*
G04 Created by KiCad (PCBNEW 8.0.7) date 2025-01-18 12:10:45*
%MOMM*%
%LPD*%
G01*
G04 APERTURE LIST*
%ADD10C,0.120000*%
%ADD11C,0.150000*%
G04 APERTURE END LIST*
D10*
%TO.C,C5*%
X66007836Y-97640000D02*
X65792164Y-97640000D01*
X66007836Y-98360000D02*
X65792164Y-98360000D01*
%TO.C,C6*%
X72990000Y-107740580D02*
X72990000Y-107459420D01*
X74010000Y-107740580D02*
X74010000Y-107459420D01*
%TO.C,R5*%
X68562742Y-97477500D02*
X69037258Y-97477500D01*
X68562742Y-98522500D02*
X69037258Y-98522500D01*
%TO.C,R2*%
X63877500Y-114587742D02*
X63877500Y-115062258D01*
X64922500Y-114587742D02*
X64922500Y-115062258D01*
%TO.C,R6*%
X72977500Y-100862742D02*
X72977500Y-101337258D01*
X74022500Y-100862742D02*
X74022500Y-101337258D01*
%TO.C,C4*%
X62675000Y-114362836D02*
X62675000Y-114147164D01*
X63395000Y-114362836D02*
X63395000Y-114147164D01*
%TO.C,R1*%
X65512500Y-115062258D02*
X65512500Y-114587742D01*
X66557500Y-115062258D02*
X66557500Y-114587742D01*
%TO.C,U4*%
X71460000Y-101460000D02*
X71120000Y-100990000D01*
X71800000Y-100990000D01*
X71460000Y-101460000D01*
G36*
X71460000Y-101460000D02*
G01*
X71120000Y-100990000D01*
X71800000Y-100990000D01*
X71460000Y-101460000D01*
G37*
D11*
X70775000Y-110500000D02*
X70775000Y-111175000D01*
X70775000Y-101440000D02*
X70775000Y-100825000D01*
X70100000Y-111175000D02*
X70775000Y-111175000D01*
X70100000Y-100825000D02*
X70775000Y-100825000D01*
X61100000Y-111175000D02*
X60425000Y-111175000D01*
X61100000Y-100825000D02*
X60425000Y-100825000D01*
X60425000Y-110500000D02*
X60425000Y-111175000D01*
X60425000Y-101500000D02*
X60425000Y-100825000D01*
%TD*%
M02*
