%TF.GenerationSoftware,KiCad,Pcbnew,8.0.7*%
%TF.CreationDate,2025-01-23T07:46:30-08:00*%
%TF.ProjectId,plex-loader,706c6578-2d6c-46f6-9164-65722e6b6963,rev?*%
%TF.SameCoordinates,Original*%
%TF.FileFunction,Copper,L4,Bot*%
%TF.FilePolarity,Positive*%
%FSLAX46Y46*%
G04 Gerber Fmt 4.6, Leading zero omitted, Abs format (unit mm)*
G04 Created by KiCad (PCBNEW 8.0.7) date 2025-01-23 07:46:30*
%MOMM*%
%LPD*%
G01*
G04 APERTURE LIST*
G04 Aperture macros list*
%AMRoundRect*
0 Rectangle with rounded corners*
0 $1 Rounding radius*
0 $2 $3 $4 $5 $6 $7 $8 $9 X,Y pos of 4 corners*
0 Add a 4 corners polygon primitive as box body*
4,1,4,$2,$3,$4,$5,$6,$7,$8,$9,$2,$3,0*
0 Add four circle primitives for the rounded corners*
1,1,$1+$1,$2,$3*
1,1,$1+$1,$4,$5*
1,1,$1+$1,$6,$7*
1,1,$1+$1,$8,$9*
0 Add four rect primitives between the rounded corners*
20,1,$1+$1,$2,$3,$4,$5,0*
20,1,$1+$1,$4,$5,$6,$7,0*
20,1,$1+$1,$6,$7,$8,$9,0*
20,1,$1+$1,$8,$9,$2,$3,0*%
G04 Aperture macros list end*
%TA.AperFunction,ComponentPad*%
%ADD10RoundRect,0.225000X0.475000X-0.225000X0.475000X0.225000X-0.475000X0.225000X-0.475000X-0.225000X0*%
%TD*%
%TA.AperFunction,ComponentPad*%
%ADD11O,1.400000X0.900000*%
%TD*%
%TA.AperFunction,ComponentPad*%
%ADD12R,1.700000X1.700000*%
%TD*%
%TA.AperFunction,ComponentPad*%
%ADD13O,1.700000X1.700000*%
%TD*%
%TA.AperFunction,SMDPad,CuDef*%
%ADD14R,1.500000X0.550000*%
%TD*%
%TA.AperFunction,SMDPad,CuDef*%
%ADD15R,0.550000X1.500000*%
%TD*%
%TA.AperFunction,SMDPad,CuDef*%
%ADD16RoundRect,0.140000X-0.140000X-0.170000X0.140000X-0.170000X0.140000X0.170000X-0.140000X0.170000X0*%
%TD*%
%TA.AperFunction,SMDPad,CuDef*%
%ADD17RoundRect,0.225000X-0.250000X0.225000X-0.250000X-0.225000X0.250000X-0.225000X0.250000X0.225000X0*%
%TD*%
%TA.AperFunction,SMDPad,CuDef*%
%ADD18RoundRect,0.200000X0.200000X0.275000X-0.200000X0.275000X-0.200000X-0.275000X0.200000X-0.275000X0*%
%TD*%
%TA.AperFunction,SMDPad,CuDef*%
%ADD19RoundRect,0.200000X0.275000X-0.200000X0.275000X0.200000X-0.275000X0.200000X-0.275000X-0.200000X0*%
%TD*%
%TA.AperFunction,SMDPad,CuDef*%
%ADD20RoundRect,0.140000X-0.170000X0.140000X-0.170000X-0.140000X0.170000X-0.140000X0.170000X0.140000X0*%
%TD*%
%TA.AperFunction,SMDPad,CuDef*%
%ADD21RoundRect,0.200000X-0.275000X0.200000X-0.275000X-0.200000X0.275000X-0.200000X0.275000X0.200000X0*%
%TD*%
%TA.AperFunction,ViaPad*%
%ADD22C,0.600000*%
%TD*%
%TA.AperFunction,Conductor*%
%ADD23C,0.200000*%
%TD*%
G04 APERTURE END LIST*
D10*
%TO.P,J6,1,Pin_1*%
%TO.N,/MCLR6*%
X55432500Y-114500000D03*
D11*
%TO.P,J6,2,Pin_2*%
%TO.N,unconnected-(J6-Pin_2-Pad2)*%
X55432500Y-113250000D03*
%TO.P,J6,3,Pin_3*%
%TO.N,unconnected-(J6-Pin_3-Pad3)*%
X55432500Y-112000000D03*
%TO.P,J6,4,Pin_4*%
%TO.N,/PGD6*%
X55432500Y-110750000D03*
%TO.P,J6,5,Pin_5*%
%TO.N,/PGC6*%
X55432500Y-109500000D03*
%TD*%
D12*
%TO.P,J10,1,Pin_1*%
%TO.N,unconnected-(J10-Pin_1-Pad1)*%
X64859000Y-53683000D03*
D13*
%TO.P,J10,2,Pin_2*%
%TO.N,unconnected-(J10-Pin_2-Pad2)*%
X67399000Y-53683000D03*
%TO.P,J10,3,Pin_3*%
%TO.N,unconnected-(J10-Pin_3-Pad3)*%
X64859000Y-56223000D03*
%TO.P,J10,4,Pin_4*%
%TO.N,unconnected-(J10-Pin_4-Pad4)*%
X67399000Y-56223000D03*
%TO.P,J10,5,Pin_5*%
%TO.N,unconnected-(J10-Pin_5-Pad5)*%
X64859000Y-58763000D03*
%TO.P,J10,6,Pin_6*%
%TO.N,unconnected-(J10-Pin_6-Pad6)*%
X67399000Y-58763000D03*
%TO.P,J10,7,Pin_7*%
%TO.N,unconnected-(J10-Pin_7-Pad7)*%
X64859000Y-61303000D03*
%TO.P,J10,8,Pin_8*%
%TO.N,unconnected-(J10-Pin_8-Pad8)*%
X67399000Y-61303000D03*
%TO.P,J10,9,Pin_9*%
%TO.N,unconnected-(J10-Pin_9-Pad9)*%
X64859000Y-63843000D03*
%TO.P,J10,10,Pin_10*%
%TO.N,unconnected-(J10-Pin_10-Pad10)*%
X67399000Y-63843000D03*
%TD*%
D10*
%TO.P,J3,1,Pin_1*%
%TO.N,/MCLR3*%
X55432500Y-86300000D03*
D11*
%TO.P,J3,2,Pin_2*%
%TO.N,unconnected-(J3-Pin_2-Pad2)*%
X55432500Y-85050000D03*
%TO.P,J3,3,Pin_3*%
%TO.N,unconnected-(J3-Pin_3-Pad3)*%
X55432500Y-83800000D03*
%TO.P,J3,4,Pin_4*%
%TO.N,/PGD3*%
X55432500Y-82550000D03*
%TO.P,J3,5,Pin_5*%
%TO.N,/PGC3*%
X55432500Y-81300000D03*
%TD*%
D10*
%TO.P,J4,1,Pin_1*%
%TO.N,/MCLR4*%
X55432500Y-95700000D03*
D11*
%TO.P,J4,2,Pin_2*%
%TO.N,unconnected-(J4-Pin_2-Pad2)*%
X55432500Y-94450000D03*
%TO.P,J4,3,Pin_3*%
%TO.N,unconnected-(J4-Pin_3-Pad3)*%
X55432500Y-93200000D03*
%TO.P,J4,4,Pin_4*%
%TO.N,/PGD4*%
X55432500Y-91950000D03*
%TO.P,J4,5,Pin_5*%
%TO.N,/PGC4*%
X55432500Y-90700000D03*
%TD*%
D12*
%TO.P,J9,1,Pin_1*%
%TO.N,+3.3V*%
X77559000Y-53683000D03*
D13*
%TO.P,J9,2,Pin_2*%
%TO.N,+5V*%
X80099000Y-53683000D03*
%TO.P,J9,3,Pin_3*%
%TO.N,/GPIO2*%
X77559000Y-56223000D03*
%TO.P,J9,4,Pin_4*%
%TO.N,+5V*%
X80099000Y-56223000D03*
%TO.P,J9,5,Pin_5*%
%TO.N,/GPIO3*%
X77559000Y-58763000D03*
%TO.P,J9,6,Pin_6*%
%TO.N,GND*%
X80099000Y-58763000D03*
%TO.P,J9,7,Pin_7*%
%TO.N,unconnected-(J9-Pin_7-Pad7)*%
X77559000Y-61303000D03*
%TO.P,J9,8,Pin_8*%
%TO.N,unconnected-(J9-Pin_8-Pad8)*%
X80099000Y-61303000D03*
%TO.P,J9,9,Pin_9*%
%TO.N,GND*%
X77559000Y-63843000D03*
%TO.P,J9,10,Pin_10*%
%TO.N,unconnected-(J9-Pin_10-Pad10)*%
X80099000Y-63843000D03*
%TO.P,J9,11,Pin_11*%
%TO.N,/GPIO17*%
X77559000Y-66383000D03*
%TO.P,J9,12,Pin_12*%
%TO.N,/GPIO18*%
X80099000Y-66383000D03*
%TO.P,J9,13,Pin_13*%
%TO.N,/GPIO27*%
X77559000Y-68923000D03*
%TO.P,J9,14,Pin_14*%
%TO.N,GND*%
X80099000Y-68923000D03*
%TO.P,J9,15,Pin_15*%
%TO.N,/GPIO22*%
X77559000Y-71463000D03*
%TO.P,J9,16,Pin_16*%
%TO.N,/GPIO23*%
X80099000Y-71463000D03*
%TO.P,J9,17,Pin_17*%
%TO.N,+3.3V*%
X77559000Y-74003000D03*
%TO.P,J9,18,Pin_18*%
%TO.N,/GPIO24*%
X80099000Y-74003000D03*
%TO.P,J9,19,Pin_19*%
%TO.N,/GPIO10*%
X77559000Y-76543000D03*
%TO.P,J9,20,Pin_20*%
%TO.N,GND*%
X80099000Y-76543000D03*
%TO.P,J9,21,Pin_21*%
%TO.N,unconnected-(J9-Pin_21-Pad21)*%
X77559000Y-79083000D03*
%TO.P,J9,22,Pin_22*%
%TO.N,/GPIO25*%
X80099000Y-79083000D03*
%TO.P,J9,23,Pin_23*%
%TO.N,unconnected-(J9-Pin_23-Pad23)*%
X77559000Y-81623000D03*
%TO.P,J9,24,Pin_24*%
%TO.N,unconnected-(J9-Pin_24-Pad24)*%
X80099000Y-81623000D03*
%TO.P,J9,25,Pin_25*%
%TO.N,GND*%
X77559000Y-84163000D03*
%TO.P,J9,26,Pin_26*%
%TO.N,unconnected-(J9-Pin_26-Pad26)*%
X80099000Y-84163000D03*
%TO.P,J9,27,Pin_27*%
%TO.N,unconnected-(J9-Pin_27-Pad27)*%
X77559000Y-86703000D03*
%TO.P,J9,28,Pin_28*%
%TO.N,unconnected-(J9-Pin_28-Pad28)*%
X80099000Y-86703000D03*
%TO.P,J9,29,Pin_29*%
%TO.N,unconnected-(J9-Pin_29-Pad29)*%
X77559000Y-89243000D03*
%TO.P,J9,30,Pin_30*%
%TO.N,GND*%
X80099000Y-89243000D03*
%TO.P,J9,31,Pin_31*%
%TO.N,unconnected-(J9-Pin_31-Pad31)*%
X77559000Y-91783000D03*
%TO.P,J9,32,Pin_32*%
%TO.N,unconnected-(J9-Pin_32-Pad32)*%
X80099000Y-91783000D03*
%TO.P,J9,33,Pin_33*%
%TO.N,unconnected-(J9-Pin_33-Pad33)*%
X77559000Y-94323000D03*
%TO.P,J9,34,Pin_34*%
%TO.N,GND*%
X80099000Y-94323000D03*
%TO.P,J9,35,Pin_35*%
%TO.N,unconnected-(J9-Pin_35-Pad35)*%
X77559000Y-96863000D03*
%TO.P,J9,36,Pin_36*%
%TO.N,unconnected-(J9-Pin_36-Pad36)*%
X80099000Y-96863000D03*
%TO.P,J9,37,Pin_37*%
%TO.N,unconnected-(J9-Pin_37-Pad37)*%
X77559000Y-99403000D03*
%TO.P,J9,38,Pin_38*%
%TO.N,unconnected-(J9-Pin_38-Pad38)*%
X80099000Y-99403000D03*
%TO.P,J9,39,Pin_39*%
%TO.N,GND*%
X77559000Y-101943000D03*
%TO.P,J9,40,Pin_40*%
%TO.N,unconnected-(J9-Pin_40-Pad40)*%
X80099000Y-101943000D03*
%TD*%
D10*
%TO.P,J2,1,Pin_1*%
%TO.N,/MCLR2*%
X55432500Y-76900000D03*
D11*
%TO.P,J2,2,Pin_2*%
%TO.N,unconnected-(J2-Pin_2-Pad2)*%
X55432500Y-75650000D03*
%TO.P,J2,3,Pin_3*%
%TO.N,unconnected-(J2-Pin_3-Pad3)*%
X55432500Y-74400000D03*
%TO.P,J2,4,Pin_4*%
%TO.N,/PGD2*%
X55432500Y-73150000D03*
%TO.P,J2,5,Pin_5*%
%TO.N,/PGC2*%
X55432500Y-71900000D03*
%TD*%
D10*
%TO.P,J5,1,Pin_1*%
%TO.N,/MCLR5*%
X55432500Y-105100000D03*
D11*
%TO.P,J5,2,Pin_2*%
%TO.N,unconnected-(J5-Pin_2-Pad2)*%
X55432500Y-103850000D03*
%TO.P,J5,3,Pin_3*%
%TO.N,unconnected-(J5-Pin_3-Pad3)*%
X55432500Y-102600000D03*
%TO.P,J5,4,Pin_4*%
%TO.N,/PGD5*%
X55432500Y-101350000D03*
%TO.P,J5,5,Pin_5*%
%TO.N,/PGC5*%
X55432500Y-100100000D03*
%TD*%
D10*
%TO.P,J1,1,Pin_1*%
%TO.N,/MCLR1*%
X55432500Y-67500000D03*
D11*
%TO.P,J1,2,Pin_2*%
%TO.N,unconnected-(J1-Pin_2-Pad2)*%
X55432500Y-66250000D03*
%TO.P,J1,3,Pin_3*%
%TO.N,unconnected-(J1-Pin_3-Pad3)*%
X55432500Y-65000000D03*
%TO.P,J1,4,Pin_4*%
%TO.N,/PGD1*%
X55432500Y-63750000D03*
%TO.P,J1,5,Pin_5*%
%TO.N,/PGC1*%
X55432500Y-62500000D03*
%TD*%
D14*
%TO.P,U4,1,SDA1/RP9/CN21/PMD3/RB9*%
%TO.N,/GPIO2*%
X71300000Y-102000000D03*
%TO.P,U4,2,RP22/CN18/PMA1/RC6*%
%TO.N,unconnected-(U4-RP22{slash}CN18{slash}PMA1{slash}RC6-Pad2)*%
X71300000Y-102800000D03*
%TO.P,U4,3,RP23/CN17/PMA0/RC7*%
%TO.N,unconnected-(U4-RP23{slash}CN17{slash}PMA0{slash}RC7-Pad3)*%
X71300000Y-103600000D03*
%TO.P,U4,4,RP24/CN20/PMA5/RC8*%
%TO.N,unconnected-(U4-RP24{slash}CN20{slash}PMA5{slash}RC8-Pad4)*%
X71300000Y-104400000D03*
%TO.P,U4,5,RP25/CN19/PMA6/RC9*%
%TO.N,unconnected-(U4-RP25{slash}CN19{slash}PMA6{slash}RC9-Pad5)*%
X71300000Y-105200000D03*
%TO.P,U4,6,VSS*%
%TO.N,GND*%
X71300000Y-106000000D03*
%TO.P,U4,7,VCAP*%
%TO.N,Net-(U4-VCAP)*%
X71300000Y-106800000D03*
%TO.P,U4,8,PGED2/EMCD2/RP10/CN16/PMD2/RB10*%
%TO.N,/dspic/B10*%
X71300000Y-107600000D03*
%TO.P,U4,9,PGEC2/RP11/CN15/PMD1/RB11*%
%TO.N,/dspic/B11*%
X71300000Y-108400000D03*
%TO.P,U4,10,AN12/RP12/CN14/PMD0/RB12*%
%TO.N,unconnected-(U4-AN12{slash}RP12{slash}CN14{slash}PMD0{slash}RB12-Pad10)*%
X71300000Y-109200000D03*
%TO.P,U4,11,AN11/RP13/CN13/PMRD/RB13*%
%TO.N,unconnected-(U4-AN11{slash}RP13{slash}CN13{slash}PMRD{slash}RB13-Pad11)*%
X71300000Y-110000000D03*
D15*
%TO.P,U4,12,TMS/PMA10/RA10*%
%TO.N,unconnected-(U4-TMS{slash}PMA10{slash}RA10-Pad12)*%
X69600000Y-111700000D03*
%TO.P,U4,13,TCK/PMA7/RA7*%
%TO.N,unconnected-(U4-TCK{slash}PMA7{slash}RA7-Pad13)*%
X68800000Y-111700000D03*
%TO.P,U4,14,AN10/RTCC/RP14/CN12/PMWR/RB14*%
%TO.N,unconnected-(U4-AN10{slash}RTCC{slash}RP14{slash}CN12{slash}PMWR{slash}RB14-Pad14)*%
X68000000Y-111700000D03*
%TO.P,U4,15,AN9/RP15/CN11/PMCS1/RB15*%
%TO.N,unconnected-(U4-AN9{slash}RP15{slash}CN11{slash}PMCS1{slash}RB15-Pad15)*%
X67200000Y-111700000D03*
%TO.P,U4,16,AVSS*%
%TO.N,GND*%
X66400000Y-111700000D03*
%TO.P,U4,17,AVDD*%
%TO.N,VDD*%
X65600000Y-111700000D03*
%TO.P,U4,18,~{MCLR}*%
%TO.N,/MCLR8*%
X64800000Y-111700000D03*
%TO.P,U4,19,AN0/VREF+/CN2/RA0*%
%TO.N,unconnected-(U4-AN0{slash}VREF+{slash}CN2{slash}RA0-Pad19)*%
X64000000Y-111700000D03*
%TO.P,U4,20,AN1/VREF-/CN3/RA1*%
%TO.N,unconnected-(U4-AN1{slash}VREF-{slash}CN3{slash}RA1-Pad20)*%
X63200000Y-111700000D03*
%TO.P,U4,21,PGED1/AN2/C2IN-/RP0/CN4/RB0*%
%TO.N,/PGD8*%
X62400000Y-111700000D03*
%TO.P,U4,22,PGEC1/AN3/C2IN+/RP1/CN5/RB1*%
%TO.N,/PGC8*%
X61600000Y-111700000D03*
D14*
%TO.P,U4,23,AN4/C1IN-/RP2/CN6/RB2*%
%TO.N,/dspic/B2*%
X59900000Y-110000000D03*
%TO.P,U4,24,AN5/C1IN+/RP3/CN7/RB3*%
%TO.N,/dspic/B3*%
X59900000Y-109200000D03*
%TO.P,U4,25,AN6/RP16/CN8/RC0*%
%TO.N,unconnected-(U4-AN6{slash}RP16{slash}CN8{slash}RC0-Pad25)*%
X59900000Y-108400000D03*
%TO.P,U4,26,AN7/RP17/CN9/RC1*%
%TO.N,unconnected-(U4-AN7{slash}RP17{slash}CN9{slash}RC1-Pad26)*%
X59900000Y-107600000D03*
%TO.P,U4,27,AN8/CVREF/RP18/PMA2/CN10/RC2*%
%TO.N,unconnected-(U4-AN8{slash}CVREF{slash}RP18{slash}PMA2{slash}CN10{slash}RC2-Pad27)*%
X59900000Y-106800000D03*
%TO.P,U4,28,VDD*%
%TO.N,VDD*%
X59900000Y-106000000D03*
%TO.P,U4,29,VSS*%
%TO.N,GND*%
X59900000Y-105200000D03*
%TO.P,U4,30,OSC1/CLKI/CN30/RA2*%
%TO.N,unconnected-(U4-OSC1{slash}CLKI{slash}CN30{slash}RA2-Pad30)*%
X59900000Y-104400000D03*
%TO.P,U4,31,OSC2/CLKO/CN29/RA3*%
%TO.N,unconnected-(U4-OSC2{slash}CLKO{slash}CN29{slash}RA3-Pad31)*%
X59900000Y-103600000D03*
%TO.P,U4,32,TDO/PMA8/RA8*%
%TO.N,unconnected-(U4-TDO{slash}PMA8{slash}RA8-Pad32)*%
X59900000Y-102800000D03*
%TO.P,U4,33,SOSCI/RP4/CN1/RB4*%
%TO.N,/dspic/B4*%
X59900000Y-102000000D03*
D15*
%TO.P,U4,34,SOSCO/T1CK/CN0/RA4*%
%TO.N,unconnected-(U4-SOSCO{slash}T1CK{slash}CN0{slash}RA4-Pad34)*%
X61600000Y-100300000D03*
%TO.P,U4,35,TDI/PMA9/RA9*%
%TO.N,unconnected-(U4-TDI{slash}PMA9{slash}RA9-Pad35)*%
X62400000Y-100300000D03*
%TO.P,U4,36,RP19/CN28/PMBE/RC3*%
%TO.N,unconnected-(U4-RP19{slash}CN28{slash}PMBE{slash}RC3-Pad36)*%
X63200000Y-100300000D03*
%TO.P,U4,37,RP20/CN25/PMA4/RC4*%
%TO.N,unconnected-(U4-RP20{slash}CN25{slash}PMA4{slash}RC4-Pad37)*%
X64000000Y-100300000D03*
%TO.P,U4,38,RP21/CN26/PMA3/RC5*%
%TO.N,unconnected-(U4-RP21{slash}CN26{slash}PMA3{slash}RC5-Pad38)*%
X64800000Y-100300000D03*
%TO.P,U4,39,VSS*%
%TO.N,GND*%
X65600000Y-100300000D03*
%TO.P,U4,40,VDD*%
%TO.N,VDD*%
X66400000Y-100300000D03*
%TO.P,U4,41,PGED3/ASDA1/RP5/CN27/PMD7/RB5*%
%TO.N,/dspic/B5*%
X67200000Y-100300000D03*
%TO.P,U4,42,PGEC3/ASCL1/RP6/CN24/PMD6/RB6*%
%TO.N,/dspic/B6*%
X68000000Y-100300000D03*
%TO.P,U4,43,INT0/RP7/CN23/PMD5/RB7*%
%TO.N,/dspic/B7*%
X68800000Y-100300000D03*
%TO.P,U4,44,SCL1/RP8/CN22/PMD4/RB8*%
%TO.N,/GPIO3*%
X69600000Y-100300000D03*
%TD*%
D16*
%TO.P,C5,1*%
%TO.N,GND*%
X65420000Y-98000000D03*
%TO.P,C5,2*%
%TO.N,VDD*%
X66380000Y-98000000D03*
%TD*%
D17*
%TO.P,C6,1*%
%TO.N,Net-(U4-VCAP)*%
X73500000Y-106825000D03*
%TO.P,C6,2*%
%TO.N,GND*%
X73500000Y-108375000D03*
%TD*%
D18*
%TO.P,R5,1*%
%TO.N,/GPIO3*%
X69625000Y-98000000D03*
%TO.P,R5,2*%
%TO.N,VDD*%
X67975000Y-98000000D03*
%TD*%
D19*
%TO.P,R2,1*%
%TO.N,Net-(C4-Pad2)*%
X64400000Y-115650000D03*
%TO.P,R2,2*%
%TO.N,/MCLR8*%
X64400000Y-114000000D03*
%TD*%
%TO.P,R6,1*%
%TO.N,/GPIO2*%
X73500000Y-101925000D03*
%TO.P,R6,2*%
%TO.N,VDD*%
X73500000Y-100275000D03*
%TD*%
D20*
%TO.P,C4,1*%
%TO.N,GND*%
X63035000Y-113775000D03*
%TO.P,C4,2*%
%TO.N,Net-(C4-Pad2)*%
X63035000Y-114735000D03*
%TD*%
D21*
%TO.P,R1,1*%
%TO.N,VDD*%
X66035000Y-114000000D03*
%TO.P,R1,2*%
%TO.N,Net-(C4-Pad2)*%
X66035000Y-115650000D03*
%TD*%
D22*
%TO.N,/GPIO10*%
X73000000Y-70200000D03*
X65200000Y-84600000D03*
X61600000Y-90600000D03*
%TO.N,GND*%
X59800000Y-77200000D03*
X72400000Y-96200000D03*
X72522353Y-72257342D03*
X81331500Y-104600000D03*
X74600000Y-109200000D03*
X60400000Y-115200000D03*
X58500000Y-87600000D03*
X73975735Y-79175735D03*
X57400000Y-106000000D03*
X74800000Y-106000000D03*
X78831500Y-104600000D03*
X57400000Y-96000000D03*
X65547484Y-98774999D03*
X59000000Y-68600000D03*
X72200000Y-84266301D03*
X62200000Y-113800000D03*
%TO.N,+3.3V*%
X75500000Y-61900000D03*
X81400000Y-69500000D03*
%TO.N,/PGD1*%
X61800000Y-72000000D03*
X61800000Y-84200000D03*
%TO.N,/PGC2*%
X61600000Y-95948930D03*
X65000000Y-96400000D03*
%TO.N,/PGC3*%
X62000000Y-98600000D03*
X64747481Y-98524998D03*
X59005855Y-98984280D03*
%TO.N,/MCLR3*%
X66397936Y-74524998D03*
%TO.N,/MCLR4*%
X67000000Y-75124998D03*
%TO.N,/PGC4*%
X66000000Y-96400000D03*
X65600000Y-93800000D03*
%TO.N,/PGC5*%
X62000000Y-97800000D03*
X66880996Y-96832467D03*
%TO.N,/MCLR5*%
X67800000Y-75000000D03*
%TO.N,/PGD5*%
X66123526Y-89125001D03*
X60800000Y-98384280D03*
%TO.N,/MCLR6*%
X70100000Y-81729275D03*
X72800000Y-104200000D03*
%TO.N,/PGD6*%
X71600000Y-101000000D03*
X71220728Y-92600000D03*
%TO.N,/PGC8*%
X65500000Y-104500000D03*
%TO.N,/MCLR8*%
X69500000Y-79500000D03*
%TO.N,/PGD8*%
X67048528Y-89048528D03*
%TO.N,/GPIO23*%
X73800000Y-95400000D03*
X71800000Y-99400000D03*
%TO.N,/GPIO22*%
X71500000Y-82500000D03*
%TO.N,/GPIO27*%
X73675735Y-72675735D03*
%TO.N,/GPIO18*%
X64600000Y-77800000D03*
%TO.N,/GPIO17*%
X60600000Y-90600000D03*
X62999997Y-80000000D03*
X62400000Y-71241051D03*
%TO.N,/GPIO24*%
X70500000Y-88700351D03*
%TO.N,VDD*%
X68000000Y-99000000D03*
X72449960Y-54807600D03*
X71500000Y-54807600D03*
X66388236Y-98763235D03*
X66000000Y-113200000D03*
X71500000Y-59607600D03*
X72400000Y-97200000D03*
X72200000Y-85226301D03*
X58400000Y-106600000D03*
X72449960Y-59607600D03*
X73600000Y-99200000D03*
X81400000Y-112200000D03*
X72448969Y-73053971D03*
%TO.N,/GPIO2*%
X73200000Y-102951473D03*
%TO.N,/GPIO3*%
X68400000Y-82324265D03*
X63800000Y-77000000D03*
%TO.N,/dspic/B2*%
X57400000Y-109248750D03*
%TO.N,/dspic/B3*%
X61200000Y-107200000D03*
%TO.N,/dspic/B4*%
X54600000Y-70600000D03*
X57200000Y-100400000D03*
X61600000Y-103400000D03*
%TO.N,/dspic/B5*%
X68000000Y-96340877D03*
X61800000Y-87800000D03*
X60800000Y-84200000D03*
%TO.N,/dspic/B6*%
X60943094Y-94343094D03*
X60400000Y-99800000D03*
X66000000Y-101600000D03*
%TO.N,/dspic/B7*%
X66000000Y-102800000D03*
%TO.N,/dspic/B10*%
X78000000Y-113000000D03*
%TO.N,/dspic/B11*%
X74200000Y-111400000D03*
%TD*%
D23*
%TO.N,Net-(C4-Pad2)*%
X63035000Y-114735000D02*
X63485000Y-114735000D01*
X66035000Y-115650000D02*
X64400000Y-115650000D01*
X63485000Y-114735000D02*
X64400000Y-115650000D01*
%TO.N,Net-(U4-VCAP)*%
X73475000Y-106800000D02*
X73500000Y-106825000D01*
X71300000Y-106800000D02*
X73475000Y-106800000D01*
%TO.N,/GPIO10*%
X61600000Y-89800000D02*
X65200000Y-86200000D01*
X78709000Y-74691000D02*
X77559000Y-75841000D01*
X77559000Y-75841000D02*
X77559000Y-76543000D01*
X69200000Y-70200000D02*
X73000000Y-70200000D01*
X61600000Y-90600000D02*
X61600000Y-89800000D01*
X78035346Y-67773000D02*
X78709000Y-68446654D01*
X73000000Y-70200000D02*
X75427000Y-67773000D01*
X65200000Y-84600000D02*
X65200000Y-74200000D01*
X75427000Y-67773000D02*
X78035346Y-67773000D01*
X65200000Y-86200000D02*
X65200000Y-84600000D01*
X65200000Y-74200000D02*
X69200000Y-70200000D01*
X78709000Y-68446654D02*
X78709000Y-74691000D01*
%TO.N,GND*%
X65420000Y-98000000D02*
X65420000Y-98647515D01*
X65420000Y-98647515D02*
X65547484Y-98774999D01*
X73775000Y-108375000D02*
X74600000Y-109200000D01*
X57400000Y-106000000D02*
X58200000Y-105200000D01*
X63010000Y-113800000D02*
X63035000Y-113775000D01*
X62200000Y-113800000D02*
X63010000Y-113800000D01*
X74800000Y-106000000D02*
X71300000Y-106000000D01*
X65547484Y-99297484D02*
X65600000Y-99350000D01*
X73500000Y-108375000D02*
X73775000Y-108375000D01*
X65547484Y-98774999D02*
X65547484Y-99297484D01*
X65600000Y-99350000D02*
X65600000Y-100300000D01*
X58200000Y-105200000D02*
X59900000Y-105200000D01*
%TO.N,+3.3V*%
X82000000Y-64117654D02*
X80382346Y-62500000D01*
X82000000Y-68900000D02*
X82000000Y-64117654D01*
X81400000Y-69500000D02*
X82000000Y-68900000D01*
X80382346Y-62500000D02*
X76100000Y-62500000D01*
X76100000Y-62500000D02*
X75500000Y-61900000D01*
%TO.N,/PGD1*%
X61800000Y-72000000D02*
X61800000Y-84200000D01*
%TO.N,/PGC2*%
X62348930Y-95948930D02*
X62800000Y-96400000D01*
X61600000Y-95948930D02*
X62348930Y-95948930D01*
X62800000Y-96400000D02*
X65000000Y-96400000D01*
%TO.N,/PGC3*%
X59005855Y-98984280D02*
X58990135Y-99000000D01*
X56800000Y-99000000D02*
X54200000Y-96400000D01*
X62075002Y-98524998D02*
X64747481Y-98524998D01*
X62000000Y-98600000D02*
X62075002Y-98524998D01*
X54200000Y-81800000D02*
X54700000Y-81300000D01*
X54700000Y-81300000D02*
X55432500Y-81300000D01*
X54200000Y-96400000D02*
X54200000Y-81800000D01*
X58990135Y-99000000D02*
X56800000Y-99000000D01*
%TO.N,/MCLR3*%
X55432500Y-86300000D02*
X60532500Y-91400000D01*
X60532500Y-91400000D02*
X61834314Y-91400000D01*
X61834314Y-91400000D02*
X66397936Y-86836378D01*
X66397936Y-86836378D02*
X66397936Y-74524998D01*
%TO.N,/MCLR4*%
X60600000Y-91800000D02*
X56700000Y-95700000D01*
X67400000Y-75524998D02*
X67400000Y-86400000D01*
X67400000Y-86400000D02*
X62000000Y-91800000D01*
X56700000Y-95700000D02*
X55432500Y-95700000D01*
X62000000Y-91800000D02*
X60600000Y-91800000D01*
X67000000Y-75124998D02*
X67400000Y-75524998D01*
%TO.N,/PGC4*%
X66000000Y-94200000D02*
X66000000Y-96400000D01*
X65600000Y-93800000D02*
X66000000Y-94200000D01*
%TO.N,/PGC5*%
X66713463Y-97000000D02*
X66880996Y-96832467D01*
X63400000Y-97000000D02*
X66713463Y-97000000D01*
X62600000Y-97800000D02*
X63400000Y-97000000D01*
X62000000Y-97800000D02*
X62600000Y-97800000D01*
%TO.N,/MCLR5*%
X59605855Y-98735751D02*
X59605855Y-100594145D01*
X67800000Y-75000000D02*
X67800000Y-86600000D01*
X56132500Y-105100000D02*
X55432500Y-105100000D01*
X58600000Y-102632500D02*
X56132500Y-105100000D01*
X59600000Y-98729896D02*
X59605855Y-98735751D01*
X67800000Y-86600000D02*
X59600000Y-94800000D01*
X59605855Y-100594145D02*
X58600000Y-101600000D01*
X59600000Y-94800000D02*
X59600000Y-98729896D01*
X58600000Y-101600000D02*
X58600000Y-102632500D01*
%TO.N,/PGD5*%
X60800000Y-98384280D02*
X61000000Y-98184280D01*
X61000000Y-96763145D02*
X60600000Y-96363145D01*
X61000000Y-98184280D02*
X61000000Y-96763145D01*
X66123526Y-90011191D02*
X66123526Y-89125001D01*
X60600000Y-96363145D02*
X60600000Y-95534717D01*
X60600000Y-95534717D02*
X66123526Y-90011191D01*
%TO.N,/MCLR6*%
X69900000Y-81929275D02*
X70100000Y-81729275D01*
X69900000Y-89000000D02*
X69900000Y-81929275D01*
X74500000Y-94934314D02*
X69532843Y-89967157D01*
X69532843Y-89367157D02*
X69900000Y-89000000D01*
X74500000Y-102500000D02*
X74500000Y-94934314D01*
X72800000Y-104200000D02*
X74500000Y-102500000D01*
X69532843Y-89967157D02*
X69532843Y-89367157D01*
%TO.N,/PGD6*%
X73000000Y-94379272D02*
X71220728Y-92600000D01*
X71200000Y-100600000D02*
X71200000Y-99151471D01*
X71600000Y-101000000D02*
X71200000Y-100600000D01*
X71800000Y-98800000D02*
X73000000Y-97600000D01*
X73000000Y-97600000D02*
X73000000Y-94379272D01*
X71551471Y-98800000D02*
X71800000Y-98800000D01*
X71200000Y-99151471D02*
X71551471Y-98800000D01*
%TO.N,/PGC8*%
X61600000Y-111700000D02*
X61600000Y-108400000D01*
X61600000Y-108400000D02*
X65500000Y-104500000D01*
%TO.N,/MCLR8*%
X69500000Y-88048932D02*
X69500000Y-79500000D01*
X69000000Y-90000000D02*
X69000000Y-88548932D01*
X64400000Y-114000000D02*
X64800000Y-113600000D01*
X70620728Y-101054272D02*
X70620728Y-91620728D01*
X70620728Y-91620728D02*
X69000000Y-90000000D01*
X64800000Y-113600000D02*
X64800000Y-111700000D01*
X64800000Y-106875000D02*
X70620728Y-101054272D01*
X69000000Y-88548932D02*
X69500000Y-88048932D01*
X64800000Y-111700000D02*
X64800000Y-106875000D01*
%TO.N,/PGD8*%
X61000000Y-96197459D02*
X61400000Y-96597459D01*
X66100000Y-104100000D02*
X66100000Y-104748529D01*
X61500000Y-102000000D02*
X64000000Y-102000000D01*
X67048528Y-89048528D02*
X67048528Y-89651875D01*
X67048528Y-89651875D02*
X61000000Y-95700403D01*
X61025000Y-101525000D02*
X61500000Y-102000000D01*
X61025000Y-99250000D02*
X61025000Y-101525000D01*
X62400000Y-108448529D02*
X62400000Y-111700000D01*
X61400000Y-98875000D02*
X61025000Y-99250000D01*
X61000000Y-95700403D02*
X61000000Y-96197459D01*
X64000000Y-102000000D02*
X66100000Y-104100000D01*
X66100000Y-104748529D02*
X62400000Y-108448529D01*
X61400000Y-96597459D02*
X61400000Y-98875000D01*
%TO.N,/GPIO23*%
X73800000Y-97400000D02*
X73800000Y-95400000D01*
X71800000Y-99400000D02*
X73800000Y-97400000D01*
%TO.N,/GPIO22*%
X75737000Y-71463000D02*
X77559000Y-71463000D01*
X75200000Y-78800000D02*
X75200000Y-72000000D01*
X71500000Y-82500000D02*
X75200000Y-78800000D01*
X75200000Y-72000000D02*
X75737000Y-71463000D01*
%TO.N,/GPIO27*%
X73724265Y-72675735D02*
X77477000Y-68923000D01*
X77477000Y-68923000D02*
X77559000Y-68923000D01*
X73675735Y-72675735D02*
X73724265Y-72675735D01*
%TO.N,/GPIO18*%
X69000000Y-69600000D02*
X64400000Y-74200000D01*
X69600000Y-69600000D02*
X69800000Y-69600000D01*
X80099000Y-66383000D02*
X78949000Y-65233000D01*
X69800000Y-69600000D02*
X69000000Y-69600000D01*
X64400000Y-74200000D02*
X64400000Y-77600000D01*
X78949000Y-65233000D02*
X76967000Y-65233000D01*
X64400000Y-77600000D02*
X64600000Y-77800000D01*
X72600000Y-69600000D02*
X69600000Y-69600000D01*
X76967000Y-65233000D02*
X72600000Y-69600000D01*
%TO.N,/GPIO17*%
X62999997Y-80000000D02*
X62999997Y-87600003D01*
X62400000Y-72400000D02*
X62999997Y-72999997D01*
X62400000Y-71241051D02*
X62400000Y-72400000D01*
X60600000Y-90000000D02*
X60600000Y-90600000D01*
X62999997Y-72999997D02*
X62999997Y-80000000D01*
X62999997Y-87600003D02*
X60600000Y-90000000D01*
%TO.N,/GPIO24*%
X78035346Y-77693000D02*
X78709000Y-77019346D01*
X78709000Y-77019346D02*
X78709000Y-75393000D01*
X77271971Y-77693000D02*
X78035346Y-77693000D01*
X70500000Y-88700351D02*
X70372199Y-88572550D01*
X70372199Y-84592772D02*
X77271971Y-77693000D01*
X78709000Y-75393000D02*
X80099000Y-74003000D01*
X70372199Y-88572550D02*
X70372199Y-84592772D01*
%TO.N,VDD*%
X59900000Y-106000000D02*
X59000000Y-106000000D01*
X67975000Y-98000000D02*
X67975000Y-98975000D01*
X73500000Y-100275000D02*
X73500000Y-99300000D01*
X66000000Y-113965000D02*
X66035000Y-114000000D01*
X59000000Y-106000000D02*
X58400000Y-106600000D01*
X66000000Y-113200000D02*
X65600000Y-112800000D01*
X65600000Y-112800000D02*
X65600000Y-111700000D01*
X66388236Y-98763235D02*
X66400000Y-98774999D01*
X67975000Y-98975000D02*
X68000000Y-99000000D01*
X66000000Y-113200000D02*
X66000000Y-113965000D01*
X73500000Y-99300000D02*
X73600000Y-99200000D01*
X66380000Y-98754999D02*
X66388236Y-98763235D01*
X66380000Y-98000000D02*
X66380000Y-98754999D01*
X66400000Y-98774999D02*
X66400000Y-100300000D01*
%TO.N,/GPIO2*%
X73200000Y-102951473D02*
X73200000Y-102225000D01*
X71300000Y-102000000D02*
X73425000Y-102000000D01*
X73200000Y-102225000D02*
X73500000Y-101925000D01*
X73425000Y-102000000D02*
X73500000Y-101925000D01*
%TO.N,/GPIO3*%
X69625000Y-98000000D02*
X69625000Y-100275000D01*
X68600000Y-82524265D02*
X68600000Y-96975000D01*
X69625000Y-100275000D02*
X69600000Y-100300000D01*
X68400000Y-82324265D02*
X68600000Y-82524265D01*
X63800000Y-77000000D02*
X63800000Y-72522000D01*
X63800000Y-72522000D02*
X77559000Y-58763000D01*
X68600000Y-96975000D02*
X69625000Y-98000000D01*
%TO.N,/dspic/B2*%
X57400000Y-109248750D02*
X58151250Y-110000000D01*
X58151250Y-110000000D02*
X59900000Y-110000000D01*
%TO.N,/dspic/B3*%
X60850000Y-109200000D02*
X59900000Y-109200000D01*
X61200000Y-108850000D02*
X60850000Y-109200000D01*
X61200000Y-107200000D02*
X61200000Y-108850000D01*
%TO.N,/dspic/B4*%
X53600000Y-71600000D02*
X53600000Y-96800000D01*
X54600000Y-70600000D02*
X53600000Y-71600000D01*
X60850000Y-102000000D02*
X59900000Y-102000000D01*
X61600000Y-102750000D02*
X60850000Y-102000000D01*
X61600000Y-103400000D02*
X61600000Y-102750000D01*
X53600000Y-96800000D02*
X57200000Y-100400000D01*
%TO.N,/dspic/B5*%
X67200000Y-97587352D02*
X67200000Y-100300000D01*
X60800000Y-84200000D02*
X60800000Y-86800000D01*
X60800000Y-86800000D02*
X61800000Y-87800000D01*
X68000000Y-96340877D02*
X68000000Y-96787352D01*
X68000000Y-96787352D02*
X67200000Y-97587352D01*
%TO.N,/dspic/B6*%
X68000000Y-100300000D02*
X68000000Y-101250000D01*
X60200000Y-99600000D02*
X60200000Y-95086188D01*
X60200000Y-95086188D02*
X60943094Y-94343094D01*
X68000000Y-101250000D02*
X67650000Y-101600000D01*
X60400000Y-99800000D02*
X60200000Y-99600000D01*
X67650000Y-101600000D02*
X66000000Y-101600000D01*
%TO.N,/dspic/B7*%
X67250000Y-102800000D02*
X68800000Y-101250000D01*
X68800000Y-101250000D02*
X68800000Y-100300000D01*
X66000000Y-102800000D02*
X67250000Y-102800000D01*
%TO.N,/dspic/B10*%
X72325000Y-107600000D02*
X71300000Y-107600000D01*
X73026304Y-109125000D02*
X72725000Y-108823696D01*
X72725000Y-108000000D02*
X72325000Y-107600000D01*
X73125000Y-109125000D02*
X73026304Y-109125000D01*
X78000000Y-113000000D02*
X77000000Y-113000000D01*
X77000000Y-113000000D02*
X73125000Y-109125000D01*
X72725000Y-108823696D02*
X72725000Y-108000000D01*
%TO.N,/dspic/B11*%
X70250000Y-110450000D02*
X71200000Y-111400000D01*
X71300000Y-108400000D02*
X70475000Y-108400000D01*
X70250000Y-108625000D02*
X70250000Y-110450000D01*
X70475000Y-108400000D02*
X70250000Y-108625000D01*
X71200000Y-111400000D02*
X74200000Y-111400000D01*
%TD*%
%TA.AperFunction,Conductor*%
%TO.N,GND*%
G36*
X58996387Y-94355360D02*
G01*
X59052320Y-94397232D01*
X59076737Y-94462696D01*
X59061885Y-94530969D01*
X59060441Y-94533540D01*
X59040425Y-94568209D01*
X59040424Y-94568210D01*
X59029295Y-94609746D01*
X58999499Y-94720943D01*
X58999499Y-94720945D01*
X58999499Y-94889046D01*
X58999500Y-94889059D01*
X58999500Y-98068617D01*
X58979815Y-98135656D01*
X58927011Y-98181411D01*
X58889384Y-98191837D01*
X58826601Y-98198911D01*
X58826600Y-98198911D01*
X58733150Y-98231610D01*
X58721413Y-98235077D01*
X58692571Y-98242069D01*
X58692569Y-98242069D01*
X58692568Y-98242070D01*
X58433461Y-98345743D01*
X58321283Y-98390627D01*
X58275219Y-98399500D01*
X57100097Y-98399500D01*
X57033058Y-98379815D01*
X57012416Y-98363181D01*
X55511415Y-96862180D01*
X55477930Y-96800857D01*
X55482914Y-96731165D01*
X55524786Y-96675232D01*
X55590250Y-96650815D01*
X55599096Y-96650499D01*
X55955838Y-96650499D01*
X55955844Y-96650499D01*
X55955852Y-96650498D01*
X55955855Y-96650498D01*
X56010260Y-96644940D01*
X56055208Y-96640349D01*
X56216197Y-96587003D01*
X56360544Y-96497968D01*
X56480468Y-96378044D01*
X56491965Y-96359403D01*
X56543912Y-96312679D01*
X56597504Y-96300500D01*
X56613331Y-96300500D01*
X56613347Y-96300501D01*
X56620943Y-96300501D01*
X56779054Y-96300501D01*
X56779057Y-96300501D01*
X56931785Y-96259577D01*
X56981904Y-96230639D01*
X57068716Y-96180520D01*
X57180520Y-96068716D01*
X57180520Y-96068714D01*
X57190728Y-96058507D01*
X57190729Y-96058504D01*
X58865375Y-94383859D01*
X58926695Y-94350376D01*
X58996387Y-94355360D01*
G37*
%TD.AperFunction*%
%TA.AperFunction,Conductor*%
G36*
X71426431Y-93655384D02*
G01*
X71432909Y-93661416D01*
X72363181Y-94591688D01*
X72396666Y-94653011D01*
X72399500Y-94679369D01*
X72399500Y-96283677D01*
X72379815Y-96350716D01*
X72327011Y-96396471D01*
X72289384Y-96406897D01*
X72220750Y-96414630D01*
X72050478Y-96474210D01*
X71897737Y-96570184D01*
X71770184Y-96697737D01*
X71674211Y-96850476D01*
X71614631Y-97020745D01*
X71614630Y-97020750D01*
X71594435Y-97199996D01*
X71594435Y-97200003D01*
X71614630Y-97379249D01*
X71614631Y-97379254D01*
X71674211Y-97549523D01*
X71770184Y-97702262D01*
X71770185Y-97702263D01*
X71821662Y-97753741D01*
X71855146Y-97815064D01*
X71850161Y-97884756D01*
X71821661Y-97929102D01*
X71587582Y-98163182D01*
X71526262Y-98196666D01*
X71499903Y-98199500D01*
X71472414Y-98199500D01*
X71377321Y-98224980D01*
X71307471Y-98223317D01*
X71249609Y-98184154D01*
X71222105Y-98119926D01*
X71221228Y-98105205D01*
X71221228Y-93749097D01*
X71240913Y-93682058D01*
X71293717Y-93636303D01*
X71362875Y-93626359D01*
X71426431Y-93655384D01*
G37*
%TD.AperFunction*%
%TA.AperFunction,Conductor*%
G36*
X76213536Y-68393185D02*
G01*
X76259291Y-68445989D01*
X76269235Y-68515147D01*
X76266272Y-68529593D01*
X76223938Y-68687586D01*
X76223936Y-68687596D01*
X76203341Y-68922999D01*
X76203341Y-68923000D01*
X76223937Y-69158409D01*
X76223937Y-69158410D01*
X76240998Y-69222086D01*
X76239334Y-69291935D01*
X76208904Y-69341858D01*
X73796820Y-71753943D01*
X73753881Y-71781909D01*
X73389603Y-71922840D01*
X73382658Y-71925588D01*
X73382480Y-71925660D01*
X73382453Y-71925671D01*
X73350376Y-71940784D01*
X73338493Y-71945648D01*
X73326218Y-71949943D01*
X73326213Y-71949946D01*
X73173472Y-72045919D01*
X73045917Y-72173474D01*
X72972159Y-72290859D01*
X72919824Y-72337150D01*
X72850771Y-72347797D01*
X72804777Y-72331174D01*
X72804764Y-72331202D01*
X72804496Y-72331073D01*
X72801195Y-72329880D01*
X72798494Y-72328183D01*
X72628223Y-72268602D01*
X72628218Y-72268601D01*
X72448973Y-72248406D01*
X72448965Y-72248406D01*
X72269719Y-72268601D01*
X72269714Y-72268602D01*
X72099445Y-72328182D01*
X71946706Y-72424155D01*
X71819153Y-72551708D01*
X71723180Y-72704447D01*
X71663600Y-72874716D01*
X71663599Y-72874721D01*
X71643404Y-73053967D01*
X71643404Y-73053974D01*
X71663599Y-73233220D01*
X71663600Y-73233225D01*
X71723180Y-73403494D01*
X71808541Y-73539344D01*
X71819153Y-73556233D01*
X71946707Y-73683787D01*
X71988159Y-73709833D01*
X72091871Y-73775000D01*
X72099447Y-73779760D01*
X72269714Y-73839339D01*
X72269719Y-73839340D01*
X72448965Y-73859536D01*
X72448969Y-73859536D01*
X72448973Y-73859536D01*
X72628218Y-73839340D01*
X72628221Y-73839339D01*
X72628224Y-73839339D01*
X72798491Y-73779760D01*
X72951231Y-73683787D01*
X73078785Y-73556233D01*
X73152544Y-73438845D01*
X73204878Y-73392556D01*
X73273931Y-73381908D01*
X73319926Y-73398531D01*
X73319940Y-73398504D01*
X73320209Y-73398633D01*
X73323511Y-73399827D01*
X73326209Y-73401522D01*
X73326210Y-73401522D01*
X73326213Y-73401524D01*
X73496480Y-73461103D01*
X73496485Y-73461104D01*
X73675731Y-73481300D01*
X73675735Y-73481300D01*
X73675739Y-73481300D01*
X73854984Y-73461104D01*
X73854987Y-73461103D01*
X73854990Y-73461103D01*
X74025257Y-73401524D01*
X74177997Y-73305551D01*
X74305551Y-73177997D01*
X74370507Y-73074619D01*
X74422841Y-73028330D01*
X74491894Y-73017682D01*
X74555743Y-73046057D01*
X74594115Y-73104446D01*
X74599500Y-73140593D01*
X74599500Y-78499902D01*
X74579815Y-78566941D01*
X74563181Y-78587583D01*
X71588055Y-81562708D01*
X71552663Y-81587463D01*
X71182159Y-81759767D01*
X71169870Y-81766125D01*
X71153870Y-81773024D01*
X71150477Y-81774211D01*
X71093581Y-81809961D01*
X71026344Y-81828960D01*
X70959509Y-81808591D01*
X70914295Y-81755323D01*
X70904390Y-81718849D01*
X70885369Y-81550025D01*
X70885368Y-81550020D01*
X70825788Y-81379751D01*
X70729815Y-81227012D01*
X70602262Y-81099459D01*
X70449521Y-81003485D01*
X70282867Y-80945171D01*
X70279255Y-80943907D01*
X70279254Y-80943906D01*
X70279249Y-80943905D01*
X70210616Y-80936172D01*
X70146202Y-80909105D01*
X70106647Y-80851510D01*
X70100500Y-80812952D01*
X70100500Y-80225025D01*
X70108022Y-80182494D01*
X70248166Y-79798686D01*
X70261071Y-79758117D01*
X70261241Y-79756739D01*
X70267262Y-79730994D01*
X70285368Y-79679255D01*
X70286041Y-79673283D01*
X70305565Y-79500003D01*
X70305565Y-79499996D01*
X70285369Y-79320750D01*
X70285368Y-79320745D01*
X70225788Y-79150476D01*
X70129815Y-78997737D01*
X70002262Y-78870184D01*
X69849523Y-78774211D01*
X69679254Y-78714631D01*
X69679249Y-78714630D01*
X69500004Y-78694435D01*
X69499996Y-78694435D01*
X69320750Y-78714630D01*
X69320745Y-78714631D01*
X69150476Y-78774211D01*
X68997737Y-78870184D01*
X68870184Y-78997737D01*
X68774211Y-79150476D01*
X68714631Y-79320745D01*
X68714630Y-79320750D01*
X68694435Y-79499996D01*
X68694435Y-79500003D01*
X68714631Y-79679252D01*
X68742268Y-79758236D01*
X68746570Y-79773663D01*
X68751833Y-79798685D01*
X68808690Y-79954396D01*
X68890795Y-80179256D01*
X68891978Y-80182494D01*
X68899500Y-80225025D01*
X68899500Y-81476193D01*
X68879815Y-81543232D01*
X68827011Y-81588987D01*
X68757853Y-81598931D01*
X68734546Y-81593235D01*
X68579249Y-81538895D01*
X68510616Y-81531162D01*
X68446202Y-81504095D01*
X68406647Y-81446500D01*
X68400500Y-81407942D01*
X68400500Y-75725025D01*
X68408022Y-75682494D01*
X68454072Y-75556379D01*
X68548166Y-75298686D01*
X68561071Y-75258117D01*
X68561241Y-75256739D01*
X68567262Y-75230994D01*
X68585368Y-75179255D01*
X68600597Y-75044092D01*
X68605565Y-75000003D01*
X68605565Y-74999996D01*
X68585369Y-74820750D01*
X68585368Y-74820745D01*
X68536411Y-74680834D01*
X68525789Y-74650478D01*
X68429816Y-74497738D01*
X68302262Y-74370184D01*
X68254847Y-74340391D01*
X68149523Y-74274211D01*
X67979254Y-74214631D01*
X67979249Y-74214630D01*
X67800004Y-74194435D01*
X67799996Y-74194435D01*
X67620750Y-74214630D01*
X67620745Y-74214631D01*
X67450476Y-74274211D01*
X67342598Y-74341996D01*
X67275361Y-74360996D01*
X67208526Y-74340628D01*
X67163312Y-74287360D01*
X67159584Y-74277956D01*
X67158274Y-74274211D01*
X67123725Y-74175476D01*
X67027752Y-74022736D01*
X66900198Y-73895182D01*
X66811326Y-73839340D01*
X66747455Y-73799207D01*
X66713393Y-73787288D01*
X66656617Y-73746567D01*
X66630870Y-73681614D01*
X66644326Y-73613052D01*
X66666664Y-73582569D01*
X69412416Y-70836819D01*
X69473739Y-70803334D01*
X69500097Y-70800500D01*
X72274974Y-70800500D01*
X72317505Y-70808022D01*
X72567565Y-70899329D01*
X72567567Y-70899329D01*
X72701314Y-70948165D01*
X72741824Y-70961054D01*
X72743226Y-70961227D01*
X72768956Y-70967246D01*
X72820745Y-70985368D01*
X72820749Y-70985368D01*
X72820751Y-70985369D01*
X72999996Y-71005565D01*
X73000000Y-71005565D01*
X73000004Y-71005565D01*
X73179249Y-70985369D01*
X73179252Y-70985368D01*
X73179255Y-70985368D01*
X73349522Y-70925789D01*
X73502262Y-70829816D01*
X73629816Y-70702262D01*
X73725789Y-70549522D01*
X73728024Y-70543132D01*
X73738470Y-70521917D01*
X73738085Y-70521704D01*
X73740225Y-70517845D01*
X73740236Y-70517830D01*
X73912532Y-70147337D01*
X73937283Y-70111950D01*
X75639416Y-68409819D01*
X75700739Y-68376334D01*
X75727097Y-68373500D01*
X76146497Y-68373500D01*
X76213536Y-68393185D01*
G37*
%TD.AperFunction*%
%TA.AperFunction,Conductor*%
G36*
X74862912Y-62410836D02*
G01*
X74907259Y-62439337D01*
X74997738Y-62529816D01*
X75150478Y-62625789D01*
X75320745Y-62685368D01*
X75407669Y-62695161D01*
X75472080Y-62722226D01*
X75481465Y-62730700D01*
X75615139Y-62864374D01*
X75615149Y-62864385D01*
X75619479Y-62868715D01*
X75619480Y-62868716D01*
X75731284Y-62980520D01*
X75818095Y-63030639D01*
X75818097Y-63030641D01*
X75856151Y-63052611D01*
X75868215Y-63059577D01*
X76020943Y-63100500D01*
X76179057Y-63100500D01*
X76221032Y-63100500D01*
X76288071Y-63120185D01*
X76333826Y-63172989D01*
X76343770Y-63242147D01*
X76333414Y-63276904D01*
X76285571Y-63379502D01*
X76285567Y-63379513D01*
X76228364Y-63592999D01*
X76228364Y-63593000D01*
X77125988Y-63593000D01*
X77093075Y-63650007D01*
X77059000Y-63777174D01*
X77059000Y-63908826D01*
X77093075Y-64035993D01*
X77125988Y-64093000D01*
X76228364Y-64093000D01*
X76285567Y-64306486D01*
X76285570Y-64306492D01*
X76385400Y-64520579D01*
X76385404Y-64520585D01*
X76508899Y-64696952D01*
X76531227Y-64763158D01*
X76514217Y-64830925D01*
X76495006Y-64855757D01*
X72387584Y-68963181D01*
X72326261Y-68996666D01*
X72299903Y-68999500D01*
X68920940Y-68999500D01*
X68880019Y-69010464D01*
X68880019Y-69010465D01*
X68842751Y-69020451D01*
X68768214Y-69040423D01*
X68768209Y-69040426D01*
X68631290Y-69119475D01*
X68631282Y-69119481D01*
X64612181Y-73138583D01*
X64550858Y-73172068D01*
X64481166Y-73167084D01*
X64425233Y-73125212D01*
X64400816Y-73059748D01*
X64400500Y-73050902D01*
X64400500Y-72822096D01*
X64420185Y-72755057D01*
X64436814Y-72734420D01*
X74731897Y-62439336D01*
X74793220Y-62405852D01*
X74862912Y-62410836D01*
G37*
%TD.AperFunction*%
%TA.AperFunction,Conductor*%
G36*
X87492939Y-50520185D02*
G01*
X87538694Y-50572989D01*
X87549900Y-50624500D01*
X87549900Y-117350900D01*
X87530215Y-117417939D01*
X87477411Y-117463694D01*
X87425900Y-117474900D01*
X50624500Y-117474900D01*
X50557461Y-117455215D01*
X50511706Y-117402411D01*
X50500500Y-117350900D01*
X50500500Y-96879054D01*
X52999498Y-96879054D01*
X52999499Y-96879057D01*
X53040423Y-97031785D01*
X53040424Y-97031786D01*
X53051997Y-97051831D01*
X53051998Y-97051834D01*
X53119475Y-97168709D01*
X53119481Y-97168717D01*
X53238349Y-97287585D01*
X53238355Y-97287590D01*
X54937750Y-98986985D01*
X54971235Y-99048308D01*
X54966251Y-99118000D01*
X54924379Y-99173933D01*
X54897522Y-99189227D01*
X54732272Y-99257676D01*
X54732262Y-99257681D01*
X54576592Y-99361697D01*
X54576588Y-99361700D01*
X54444200Y-99494088D01*
X54444197Y-99494092D01*
X54340181Y-99649762D01*
X54340176Y-99649771D01*
X54268527Y-99822748D01*
X54268525Y-99822756D01*
X54232000Y-100006379D01*
X54232000Y-100193620D01*
X54268525Y-100377243D01*
X54268527Y-100377251D01*
X54340176Y-100550228D01*
X54340180Y-100550235D01*
X54410923Y-100656110D01*
X54431800Y-100722787D01*
X54413315Y-100790167D01*
X54410923Y-100793890D01*
X54340180Y-100899764D01*
X54340176Y-100899771D01*
X54268527Y-101072748D01*
X54268525Y-101072756D01*
X54232000Y-101256379D01*
X54232000Y-101443620D01*
X54268525Y-101627243D01*
X54268527Y-101627251D01*
X54340176Y-101800228D01*
X54340180Y-101800235D01*
X54410923Y-101906110D01*
X54431800Y-101972787D01*
X54413315Y-102040167D01*
X54410923Y-102043890D01*
X54340180Y-102149764D01*
X54340176Y-102149771D01*
X54268527Y-102322748D01*
X54268525Y-102322756D01*
X54232000Y-102506379D01*
X54232000Y-102693620D01*
X54268525Y-102877243D01*
X54268527Y-102877251D01*
X54340176Y-103050228D01*
X54340180Y-103050235D01*
X54410923Y-103156110D01*
X54431800Y-103222787D01*
X54413315Y-103290167D01*
X54410923Y-103293890D01*
X54340180Y-103399764D01*
X54340176Y-103399771D01*
X54268527Y-103572748D01*
X54268525Y-103572756D01*
X54232000Y-103756379D01*
X54232000Y-103943620D01*
X54268525Y-104127243D01*
X54268527Y-104127251D01*
X54340177Y-104300230D01*
X54358041Y-104326965D01*
X54378919Y-104393643D01*
X54360478Y-104460953D01*
X54295498Y-104566300D01*
X54295496Y-104566305D01*
X54242151Y-104727290D01*
X54232000Y-104826647D01*
X54232000Y-105373337D01*
X54232001Y-105373355D01*
X54242150Y-105472707D01*
X54242151Y-105472710D01*
X54295496Y-105633694D01*
X54295501Y-105633705D01*
X54384529Y-105778040D01*
X54384532Y-105778044D01*
X54504455Y-105897967D01*
X54504459Y-105897970D01*
X54648794Y-105986998D01*
X54648797Y-105986999D01*
X54648803Y-105987003D01*
X54809792Y-106040349D01*
X54909155Y-106050500D01*
X55955844Y-106050499D01*
X55955852Y-106050498D01*
X55955855Y-106050498D01*
X56025996Y-106043333D01*
X56055208Y-106040349D01*
X56216197Y-105987003D01*
X56360544Y-105897968D01*
X56480468Y-105778044D01*
X56569503Y-105633697D01*
X56620456Y-105479929D01*
X56650478Y-105431255D01*
X58437821Y-103643912D01*
X58499142Y-103610429D01*
X58568834Y-103615413D01*
X58624767Y-103657285D01*
X58649184Y-103722749D01*
X58649500Y-103731594D01*
X58649500Y-103922869D01*
X58649501Y-103922879D01*
X58656367Y-103986751D01*
X58656367Y-104013257D01*
X58655909Y-104017516D01*
X58655909Y-104017517D01*
X58649500Y-104077127D01*
X58649500Y-104077132D01*
X58649500Y-104077133D01*
X58649500Y-104722870D01*
X58649501Y-104722876D01*
X58656619Y-104789092D01*
X58656619Y-104815599D01*
X58650000Y-104877169D01*
X58650000Y-104950000D01*
X58668591Y-104950000D01*
X58735630Y-104969685D01*
X58767855Y-104999686D01*
X58792454Y-105032546D01*
X58792455Y-105032546D01*
X58792456Y-105032548D01*
X58883540Y-105100734D01*
X58925411Y-105156668D01*
X58930395Y-105226359D01*
X58896909Y-105287682D01*
X58883540Y-105299266D01*
X58792457Y-105367451D01*
X58792448Y-105367460D01*
X58767856Y-105400311D01*
X58711923Y-105442182D01*
X58668590Y-105450000D01*
X58650000Y-105450000D01*
X58649750Y-105450249D01*
X58630315Y-105516440D01*
X58613682Y-105537082D01*
X58519480Y-105631284D01*
X58519478Y-105631286D01*
X58488054Y-105662710D01*
X58452663Y-105687463D01*
X58082159Y-105859767D01*
X58069870Y-105866125D01*
X58053870Y-105873024D01*
X58050476Y-105874211D01*
X57897737Y-105970184D01*
X57770184Y-106097737D01*
X57674211Y-106250476D01*
X57614631Y-106420745D01*
X57614630Y-106420750D01*
X57594435Y-106599996D01*
X57594435Y-106600003D01*
X57614630Y-106779249D01*
X57614631Y-106779254D01*
X57674211Y-106949523D01*
X57690210Y-106974985D01*
X57770184Y-107102262D01*
X57897738Y-107229816D01*
X58050478Y-107325789D01*
X58220745Y-107385368D01*
X58220750Y-107385369D01*
X58399996Y-107405565D01*
X58400000Y-107405565D01*
X58400003Y-107405565D01*
X58511616Y-107392989D01*
X58580438Y-107405043D01*
X58631818Y-107452392D01*
X58649500Y-107516209D01*
X58649500Y-107922870D01*
X58649501Y-107922879D01*
X58656367Y-107986751D01*
X58656367Y-108013257D01*
X58655909Y-108017516D01*
X58655909Y-108017517D01*
X58649500Y-108077127D01*
X58649500Y-108077132D01*
X58649500Y-108077133D01*
X58649500Y-108722870D01*
X58649501Y-108722879D01*
X58656367Y-108786751D01*
X58656367Y-108813257D01*
X58655909Y-108817516D01*
X58655909Y-108817517D01*
X58649500Y-108877127D01*
X58649500Y-108877132D01*
X58649500Y-108877133D01*
X58649500Y-108877136D01*
X58649501Y-109275500D01*
X58629817Y-109342539D01*
X58577013Y-109388294D01*
X58525501Y-109399500D01*
X58451347Y-109399500D01*
X58384308Y-109379815D01*
X58363666Y-109363181D01*
X58337287Y-109336802D01*
X58312532Y-109301409D01*
X58140246Y-108930940D01*
X58140243Y-108930935D01*
X58140236Y-108930919D01*
X58133874Y-108918623D01*
X58126970Y-108902605D01*
X58125789Y-108899228D01*
X58029816Y-108746488D01*
X57902262Y-108618934D01*
X57817100Y-108565423D01*
X57749523Y-108522961D01*
X57579254Y-108463381D01*
X57579249Y-108463380D01*
X57400004Y-108443185D01*
X57399996Y-108443185D01*
X57220750Y-108463380D01*
X57220745Y-108463381D01*
X57050476Y-108522961D01*
X56897737Y-108618934D01*
X56770184Y-108746487D01*
X56674208Y-108899230D01*
X56670372Y-108910196D01*
X56629650Y-108966972D01*
X56564697Y-108992719D01*
X56496136Y-108979262D01*
X56450229Y-108938132D01*
X56420802Y-108894092D01*
X56420799Y-108894088D01*
X56288411Y-108761700D01*
X56288407Y-108761697D01*
X56132737Y-108657681D01*
X56132728Y-108657676D01*
X55959751Y-108586027D01*
X55959743Y-108586025D01*
X55776120Y-108549500D01*
X55776116Y-108549500D01*
X55088884Y-108549500D01*
X55088879Y-108549500D01*
X54905256Y-108586025D01*
X54905248Y-108586027D01*
X54732271Y-108657676D01*
X54732262Y-108657681D01*
X54576592Y-108761697D01*
X54576588Y-108761700D01*
X54444200Y-108894088D01*
X54444197Y-108894092D01*
X54340181Y-109049762D01*
X54340176Y-109049771D01*
X54268527Y-109222748D01*
X54268525Y-109222756D01*
X54232000Y-109406379D01*
X54232000Y-109593620D01*
X54268525Y-109777243D01*
X54268527Y-109777251D01*
X54340176Y-109950228D01*
X54340180Y-109950235D01*
X54410923Y-110056110D01*
X54431800Y-110122787D01*
X54413315Y-110190167D01*
X54410923Y-110193890D01*
X54340180Y-110299764D01*
X54340176Y-110299771D01*
X54268527Y-110472748D01*
X54268525Y-110472756D01*
X54232000Y-110656379D01*
X54232000Y-110843620D01*
X54268525Y-111027243D01*
X54268527Y-111027251D01*
X54340176Y-111200228D01*
X54340180Y-111200235D01*
X54410923Y-111306110D01*
X54431800Y-111372787D01*
X54413315Y-111440167D01*
X54410923Y-111443890D01*
X54340180Y-111549764D01*
X54340176Y-111549771D01*
X54268527Y-111722748D01*
X54268525Y-111722756D01*
X54232000Y-111906379D01*
X54232000Y-112093620D01*
X54268525Y-112277243D01*
X54268527Y-112277251D01*
X54340176Y-112450228D01*
X54340180Y-112450235D01*
X54410923Y-112556110D01*
X54431800Y-112622787D01*
X54413315Y-112690167D01*
X54410923Y-112693890D01*
X54340180Y-112799764D01*
X54340176Y-112799771D01*
X54268527Y-112972748D01*
X54268525Y-112972756D01*
X54232000Y-113156379D01*
X54232000Y-113343620D01*
X54268525Y-113527243D01*
X54268527Y-113527251D01*
X54340177Y-113700230D01*
X54342067Y-113703058D01*
X54357254Y-113725788D01*
X54358041Y-113726965D01*
X54378919Y-113793643D01*
X54360478Y-113860953D01*
X54295498Y-113966300D01*
X54295496Y-113966305D01*
X54242151Y-114127290D01*
X54232000Y-114226647D01*
X54232000Y-114773337D01*
X54232001Y-114773355D01*
X54242150Y-114872707D01*
X54242151Y-114872710D01*
X54295496Y-115033694D01*
X54295501Y-115033705D01*
X54384529Y-115178040D01*
X54384532Y-115178044D01*
X54504455Y-115297967D01*
X54504459Y-115297970D01*
X54648794Y-115386998D01*
X54648797Y-115386999D01*
X54648803Y-115387003D01*
X54809792Y-115440349D01*
X54909155Y-115450500D01*
X55955844Y-115450499D01*
X55955852Y-115450498D01*
X55955855Y-115450498D01*
X56010260Y-115444940D01*
X56055208Y-115440349D01*
X56216197Y-115387003D01*
X56360544Y-115297968D01*
X56480468Y-115178044D01*
X56569503Y-115033697D01*
X56622849Y-114872708D01*
X56633000Y-114773345D01*
X56632999Y-114226656D01*
X56629396Y-114191389D01*
X56622849Y-114127292D01*
X56622848Y-114127289D01*
X56577947Y-113991786D01*
X56569503Y-113966303D01*
X56504521Y-113860952D01*
X56486081Y-113793561D01*
X56506959Y-113726964D01*
X56524822Y-113700231D01*
X56596473Y-113527251D01*
X56633000Y-113343616D01*
X56633000Y-113156384D01*
X56596473Y-112972749D01*
X56524822Y-112799769D01*
X56524819Y-112799764D01*
X56524818Y-112799762D01*
X56454077Y-112693891D01*
X56433199Y-112627213D01*
X56451683Y-112559833D01*
X56454077Y-112556109D01*
X56524818Y-112450237D01*
X56524819Y-112450235D01*
X56524822Y-112450231D01*
X56596473Y-112277251D01*
X56633000Y-112093616D01*
X56633000Y-111906384D01*
X56596473Y-111722749D01*
X56524822Y-111549769D01*
X56524819Y-111549764D01*
X56524818Y-111549762D01*
X56454077Y-111443891D01*
X56433199Y-111377213D01*
X56451683Y-111309833D01*
X56454077Y-111306109D01*
X56524818Y-111200237D01*
X56524819Y-111200235D01*
X56524822Y-111200231D01*
X56596473Y-111027251D01*
X56633000Y-110843616D01*
X56633000Y-110656384D01*
X56596473Y-110472749D01*
X56524822Y-110299769D01*
X56524819Y-110299764D01*
X56524818Y-110299762D01*
X56454077Y-110193891D01*
X56433199Y-110127213D01*
X56451683Y-110059833D01*
X56454077Y-110056109D01*
X56524818Y-109950237D01*
X56524819Y-109950235D01*
X56524822Y-109950231D01*
X56584019Y-109807316D01*
X56627860Y-109752914D01*
X56694154Y-109730849D01*
X56761853Y-109748128D01*
X56786261Y-109767089D01*
X56897738Y-109878566D01*
X57050478Y-109974539D01*
X57056864Y-109976773D01*
X57078085Y-109987218D01*
X57078297Y-109986837D01*
X57082167Y-109988985D01*
X57239575Y-110062188D01*
X57239576Y-110062188D01*
X57452662Y-110161283D01*
X57488052Y-110186037D01*
X57666389Y-110364374D01*
X57666399Y-110364385D01*
X57670729Y-110368715D01*
X57670730Y-110368716D01*
X57782534Y-110480520D01*
X57782536Y-110480521D01*
X57782540Y-110480524D01*
X57866602Y-110529057D01*
X57866603Y-110529057D01*
X57919465Y-110559577D01*
X58072193Y-110600501D01*
X58072196Y-110600501D01*
X58237903Y-110600501D01*
X58237919Y-110600500D01*
X58709046Y-110600500D01*
X58776085Y-110620185D01*
X58785157Y-110627495D01*
X58785355Y-110627232D01*
X58907664Y-110718793D01*
X58907671Y-110718797D01*
X59042517Y-110769091D01*
X59042516Y-110769091D01*
X59049444Y-110769835D01*
X59102127Y-110775500D01*
X60697872Y-110775499D01*
X60700500Y-110775499D01*
X60767539Y-110795184D01*
X60813294Y-110847987D01*
X60824500Y-110899499D01*
X60824500Y-112497870D01*
X60824501Y-112497876D01*
X60830908Y-112557483D01*
X60881202Y-112692328D01*
X60881206Y-112692335D01*
X60967452Y-112807544D01*
X60967455Y-112807547D01*
X61082664Y-112893793D01*
X61082671Y-112893797D01*
X61127618Y-112910561D01*
X61217517Y-112944091D01*
X61277127Y-112950500D01*
X61922872Y-112950499D01*
X61982483Y-112944091D01*
X61982486Y-112944089D01*
X61986744Y-112943632D01*
X62013254Y-112943632D01*
X62017514Y-112944089D01*
X62017517Y-112944091D01*
X62077127Y-112950500D01*
X62345041Y-112950499D01*
X62412079Y-112970183D01*
X62457834Y-113022987D01*
X62467778Y-113092146D01*
X62438753Y-113155701D01*
X62432722Y-113162180D01*
X62355282Y-113239620D01*
X62355278Y-113239625D01*
X62272968Y-113378804D01*
X62230496Y-113525000D01*
X62911000Y-113525000D01*
X62978039Y-113544685D01*
X63023794Y-113597489D01*
X63035000Y-113649000D01*
X63035000Y-113830500D01*
X63015315Y-113897539D01*
X62962511Y-113943294D01*
X62911000Y-113954500D01*
X62800302Y-113954500D01*
X62764008Y-113957356D01*
X62764002Y-113957357D01*
X62608610Y-114002503D01*
X62608605Y-114002506D01*
X62599766Y-114007732D01*
X62536648Y-114025000D01*
X62230496Y-114025000D01*
X62272968Y-114171194D01*
X62284911Y-114191389D01*
X62302092Y-114259113D01*
X62284911Y-114317628D01*
X62272506Y-114338604D01*
X62272504Y-114338609D01*
X62227357Y-114494002D01*
X62227356Y-114494008D01*
X62224500Y-114530302D01*
X62224500Y-114939697D01*
X62227356Y-114975991D01*
X62227357Y-114975997D01*
X62272504Y-115131390D01*
X62272505Y-115131393D01*
X62354881Y-115270684D01*
X62354887Y-115270692D01*
X62469307Y-115385112D01*
X62469311Y-115385115D01*
X62469313Y-115385117D01*
X62608605Y-115467494D01*
X62649587Y-115479400D01*
X62764002Y-115512642D01*
X62764005Y-115512642D01*
X62764007Y-115512643D01*
X62800310Y-115515500D01*
X62800318Y-115515500D01*
X63269682Y-115515500D01*
X63269690Y-115515500D01*
X63290767Y-115513841D01*
X63359145Y-115528202D01*
X63408903Y-115577252D01*
X63424500Y-115637458D01*
X63424500Y-115906613D01*
X63430913Y-115977192D01*
X63481522Y-116139606D01*
X63569530Y-116285188D01*
X63689811Y-116405469D01*
X63689813Y-116405470D01*
X63689815Y-116405472D01*
X63835394Y-116493478D01*
X63997804Y-116544086D01*
X64068384Y-116550500D01*
X64068387Y-116550500D01*
X64731613Y-116550500D01*
X64731616Y-116550500D01*
X64802196Y-116544086D01*
X64964606Y-116493478D01*
X65110185Y-116405472D01*
X65129817Y-116385840D01*
X65191139Y-116352353D01*
X65260831Y-116357336D01*
X65305183Y-116385840D01*
X65324811Y-116405469D01*
X65324813Y-116405470D01*
X65324815Y-116405472D01*
X65470394Y-116493478D01*
X65632804Y-116544086D01*
X65703384Y-116550500D01*
X65703387Y-116550500D01*
X66366613Y-116550500D01*
X66366616Y-116550500D01*
X66437196Y-116544086D01*
X66599606Y-116493478D01*
X66745185Y-116405472D01*
X66865472Y-116285185D01*
X66953478Y-116139606D01*
X67004086Y-115977196D01*
X67010500Y-115906616D01*
X67010500Y-115393384D01*
X67004086Y-115322804D01*
X66953478Y-115160394D01*
X66865472Y-115014815D01*
X66865470Y-115014813D01*
X66865469Y-115014811D01*
X66763339Y-114912681D01*
X66729854Y-114851358D01*
X66734838Y-114781666D01*
X66763339Y-114737319D01*
X66865468Y-114635189D01*
X66865469Y-114635188D01*
X66865472Y-114635185D01*
X66953478Y-114489606D01*
X67004086Y-114327196D01*
X67010500Y-114256616D01*
X67010500Y-113743384D01*
X67004086Y-113672804D01*
X66953478Y-113510394D01*
X66865472Y-113364815D01*
X66837165Y-113336508D01*
X66803681Y-113275188D01*
X66801627Y-113234946D01*
X66805565Y-113200000D01*
X66794241Y-113099500D01*
X66792989Y-113088383D01*
X66805043Y-113019561D01*
X66852392Y-112968181D01*
X66916205Y-112950499D01*
X67522872Y-112950499D01*
X67582483Y-112944091D01*
X67582486Y-112944089D01*
X67586744Y-112943632D01*
X67613254Y-112943632D01*
X67617514Y-112944089D01*
X67617517Y-112944091D01*
X67677127Y-112950500D01*
X68322872Y-112950499D01*
X68382483Y-112944091D01*
X68382486Y-112944089D01*
X68386744Y-112943632D01*
X68413254Y-112943632D01*
X68417514Y-112944089D01*
X68417517Y-112944091D01*
X68477127Y-112950500D01*
X69122872Y-112950499D01*
X69182483Y-112944091D01*
X69182486Y-112944089D01*
X69186744Y-112943632D01*
X69213254Y-112943632D01*
X69217514Y-112944089D01*
X69217517Y-112944091D01*
X69277127Y-112950500D01*
X69922872Y-112950499D01*
X69982483Y-112944091D01*
X70117331Y-112893796D01*
X70232546Y-112807546D01*
X70318796Y-112692331D01*
X70369091Y-112557483D01*
X70375500Y-112497873D01*
X70375499Y-111724095D01*
X70395183Y-111657057D01*
X70447987Y-111611302D01*
X70517146Y-111601358D01*
X70580702Y-111630383D01*
X70587180Y-111636415D01*
X70715139Y-111764374D01*
X70715149Y-111764385D01*
X70719479Y-111768715D01*
X70719480Y-111768716D01*
X70831284Y-111880520D01*
X70831286Y-111880521D01*
X70831290Y-111880524D01*
X70901667Y-111921156D01*
X70901671Y-111921157D01*
X70901672Y-111921158D01*
X70968215Y-111959577D01*
X71120943Y-112000501D01*
X71120946Y-112000501D01*
X71286653Y-112000501D01*
X71286669Y-112000500D01*
X73474974Y-112000500D01*
X73517505Y-112008022D01*
X73767565Y-112099329D01*
X73767567Y-112099329D01*
X73901314Y-112148165D01*
X73941824Y-112161054D01*
X73943226Y-112161227D01*
X73968956Y-112167246D01*
X74020745Y-112185368D01*
X74020749Y-112185368D01*
X74020751Y-112185369D01*
X74199996Y-112205565D01*
X74200000Y-112205565D01*
X74200004Y-112205565D01*
X74379249Y-112185369D01*
X74379252Y-112185368D01*
X74379255Y-112185368D01*
X74549522Y-112125789D01*
X74702262Y-112029816D01*
X74829816Y-111902262D01*
X74833218Y-111896846D01*
X74885545Y-111850554D01*
X74954597Y-111839899D01*
X75018448Y-111868268D01*
X75025895Y-111875130D01*
X76631284Y-113480520D01*
X76631286Y-113480521D01*
X76631290Y-113480524D01*
X76708326Y-113525000D01*
X76768216Y-113559577D01*
X76920943Y-113600501D01*
X76920945Y-113600501D01*
X77086654Y-113600501D01*
X77086670Y-113600500D01*
X77274974Y-113600500D01*
X77317505Y-113608022D01*
X77567565Y-113699329D01*
X77567567Y-113699329D01*
X77701314Y-113748165D01*
X77741824Y-113761054D01*
X77743226Y-113761227D01*
X77768956Y-113767246D01*
X77820745Y-113785368D01*
X77820749Y-113785368D01*
X77820751Y-113785369D01*
X77999996Y-113805565D01*
X78000000Y-113805565D01*
X78000004Y-113805565D01*
X78179249Y-113785369D01*
X78179252Y-113785368D01*
X78179255Y-113785368D01*
X78349522Y-113725789D01*
X78502262Y-113629816D01*
X78629816Y-113502262D01*
X78725789Y-113349522D01*
X78785368Y-113179255D01*
X78787292Y-113162180D01*
X78805565Y-113000003D01*
X78805565Y-112999996D01*
X78785369Y-112820750D01*
X78785368Y-112820745D01*
X78740980Y-112693891D01*
X78725789Y-112650478D01*
X78721776Y-112644092D01*
X78667356Y-112557482D01*
X78629816Y-112497738D01*
X78502262Y-112370184D01*
X78349523Y-112274211D01*
X78179254Y-112214631D01*
X78179249Y-112214630D01*
X78049362Y-112199996D01*
X80594435Y-112199996D01*
X80594435Y-112200003D01*
X80614630Y-112379249D01*
X80614631Y-112379254D01*
X80674211Y-112549523D01*
X80764924Y-112693891D01*
X80770184Y-112702262D01*
X80897738Y-112829816D01*
X80988080Y-112886582D01*
X81039345Y-112918794D01*
X81050478Y-112925789D01*
X81177349Y-112970183D01*
X81220745Y-112985368D01*
X81220750Y-112985369D01*
X81399996Y-113005565D01*
X81400000Y-113005565D01*
X81400004Y-113005565D01*
X81579249Y-112985369D01*
X81579252Y-112985368D01*
X81579255Y-112985368D01*
X81749522Y-112925789D01*
X81902262Y-112829816D01*
X82029816Y-112702262D01*
X82125789Y-112549522D01*
X82185368Y-112379255D01*
X82186390Y-112370184D01*
X82205565Y-112200003D01*
X82205565Y-112199996D01*
X82185369Y-112020750D01*
X82185368Y-112020745D01*
X82145351Y-111906383D01*
X82125789Y-111850478D01*
X82029816Y-111697738D01*
X81902262Y-111570184D01*
X81869761Y-111549762D01*
X81749523Y-111474211D01*
X81579254Y-111414631D01*
X81579249Y-111414630D01*
X81400004Y-111394435D01*
X81399996Y-111394435D01*
X81220750Y-111414630D01*
X81220745Y-111414631D01*
X81050476Y-111474211D01*
X80897737Y-111570184D01*
X80770184Y-111697737D01*
X80674211Y-111850476D01*
X80614631Y-112020745D01*
X80614630Y-112020750D01*
X80594435Y-112199996D01*
X78049362Y-112199996D01*
X78000004Y-112194435D01*
X77999996Y-112194435D01*
X77820746Y-112214631D01*
X77820745Y-112214631D01*
X77741764Y-112242267D01*
X77726338Y-112246569D01*
X77701314Y-112251833D01*
X77335908Y-112385257D01*
X77266183Y-112389760D01*
X77205696Y-112356460D01*
X74199951Y-109350715D01*
X74166466Y-109289392D01*
X74171450Y-109219700D01*
X74199951Y-109175352D01*
X74322576Y-109052727D01*
X74411542Y-108908492D01*
X74411547Y-108908481D01*
X74464855Y-108747606D01*
X74474999Y-108648322D01*
X74475000Y-108648309D01*
X74475000Y-108625000D01*
X73624000Y-108625000D01*
X73556961Y-108605315D01*
X73511206Y-108552511D01*
X73500000Y-108501000D01*
X73500000Y-108249000D01*
X73519685Y-108181961D01*
X73572489Y-108136206D01*
X73624000Y-108125000D01*
X74474999Y-108125000D01*
X74474999Y-108101692D01*
X74474998Y-108101677D01*
X74464855Y-108002392D01*
X74411547Y-107841518D01*
X74411542Y-107841507D01*
X74322575Y-107697271D01*
X74322572Y-107697267D01*
X74313339Y-107688034D01*
X74279854Y-107626711D01*
X74284838Y-107557019D01*
X74313343Y-107512668D01*
X74322968Y-107503044D01*
X74412003Y-107358697D01*
X74465349Y-107197708D01*
X74475500Y-107098345D01*
X74475499Y-106551656D01*
X74465349Y-106452292D01*
X74412003Y-106291303D01*
X74411999Y-106291297D01*
X74411998Y-106291294D01*
X74322970Y-106146959D01*
X74322967Y-106146955D01*
X74203044Y-106027032D01*
X74203040Y-106027029D01*
X74058705Y-105938001D01*
X74058699Y-105937998D01*
X74058697Y-105937997D01*
X74000752Y-105918796D01*
X73897709Y-105884651D01*
X73798346Y-105874500D01*
X73201662Y-105874500D01*
X73201644Y-105874501D01*
X73102292Y-105884650D01*
X73102289Y-105884651D01*
X72941305Y-105937996D01*
X72941294Y-105938001D01*
X72796959Y-106027029D01*
X72677032Y-106146955D01*
X72672724Y-106152405D01*
X72615704Y-106192785D01*
X72575453Y-106199500D01*
X72490954Y-106199500D01*
X72423915Y-106179815D01*
X72414843Y-106172504D01*
X72414645Y-106172769D01*
X72407547Y-106167455D01*
X72407546Y-106167454D01*
X72316457Y-106099265D01*
X72274588Y-106043333D01*
X72269604Y-105973641D01*
X72303089Y-105912318D01*
X72316452Y-105900738D01*
X72407546Y-105832546D01*
X72432143Y-105799687D01*
X72488076Y-105757818D01*
X72531409Y-105750000D01*
X72550000Y-105750000D01*
X72550000Y-105677172D01*
X72549999Y-105677160D01*
X72543380Y-105615604D01*
X72543380Y-105589090D01*
X72544090Y-105582485D01*
X72544091Y-105582483D01*
X72550500Y-105522873D01*
X72550499Y-105116208D01*
X72570183Y-105049170D01*
X72622987Y-105003415D01*
X72688383Y-104992989D01*
X72799997Y-105005565D01*
X72800000Y-105005565D01*
X72800004Y-105005565D01*
X72979249Y-104985369D01*
X72979252Y-104985368D01*
X72979255Y-104985368D01*
X73149522Y-104925789D01*
X73302262Y-104829816D01*
X73429816Y-104702262D01*
X73525789Y-104549522D01*
X73528024Y-104543132D01*
X73538470Y-104521917D01*
X73538085Y-104521704D01*
X73540225Y-104517845D01*
X73540236Y-104517830D01*
X73712532Y-104147337D01*
X73737283Y-104111950D01*
X74858506Y-102990728D01*
X74858511Y-102990724D01*
X74868714Y-102980520D01*
X74868716Y-102980520D01*
X74980520Y-102868716D01*
X75049349Y-102749500D01*
X75059577Y-102731785D01*
X75100500Y-102579057D01*
X75100500Y-102420943D01*
X75100500Y-95023374D01*
X75100501Y-95023361D01*
X75100501Y-94855259D01*
X75100501Y-94855257D01*
X75059577Y-94702529D01*
X74980520Y-94565598D01*
X70169759Y-89754837D01*
X70136274Y-89693514D01*
X70141258Y-89623822D01*
X70169757Y-89579477D01*
X70227085Y-89522148D01*
X70288408Y-89488664D01*
X70328649Y-89486610D01*
X70499996Y-89505916D01*
X70500000Y-89505916D01*
X70500004Y-89505916D01*
X70679249Y-89485720D01*
X70679252Y-89485719D01*
X70679255Y-89485719D01*
X70849522Y-89426140D01*
X71002262Y-89330167D01*
X71129816Y-89202613D01*
X71225789Y-89049873D01*
X71285368Y-88879606D01*
X71285369Y-88879600D01*
X71305565Y-88700354D01*
X71305565Y-88700347D01*
X71285369Y-88521101D01*
X71285368Y-88521096D01*
X71272652Y-88484756D01*
X71225789Y-88350829D01*
X71129816Y-88198089D01*
X71127195Y-88195468D01*
X71112018Y-88177042D01*
X71091209Y-88146137D01*
X70993841Y-88001525D01*
X70972727Y-87934922D01*
X70972699Y-87932270D01*
X70972699Y-85226297D01*
X71394435Y-85226297D01*
X71394435Y-85226304D01*
X71414630Y-85405550D01*
X71414631Y-85405555D01*
X71474211Y-85575824D01*
X71570184Y-85728563D01*
X71697738Y-85856117D01*
X71850478Y-85952090D01*
X71892923Y-85966942D01*
X72020745Y-86011669D01*
X72020750Y-86011670D01*
X72199996Y-86031866D01*
X72200000Y-86031866D01*
X72200004Y-86031866D01*
X72379249Y-86011670D01*
X72379252Y-86011669D01*
X72379255Y-86011669D01*
X72549522Y-85952090D01*
X72702262Y-85856117D01*
X72829816Y-85728563D01*
X72925789Y-85575823D01*
X72985368Y-85405556D01*
X72985369Y-85405550D01*
X73005565Y-85226304D01*
X73005565Y-85226297D01*
X72985369Y-85047051D01*
X72985368Y-85047046D01*
X72963785Y-84985366D01*
X72925789Y-84876779D01*
X72918897Y-84865811D01*
X72876030Y-84797588D01*
X72829816Y-84724039D01*
X72702262Y-84596485D01*
X72649129Y-84563099D01*
X72549523Y-84500512D01*
X72379254Y-84440932D01*
X72379249Y-84440931D01*
X72200004Y-84420736D01*
X72199996Y-84420736D01*
X72020750Y-84440931D01*
X72020745Y-84440932D01*
X71850476Y-84500512D01*
X71697737Y-84596485D01*
X71570184Y-84724038D01*
X71474211Y-84876777D01*
X71414631Y-85047046D01*
X71414630Y-85047051D01*
X71394435Y-85226297D01*
X70972699Y-85226297D01*
X70972699Y-84892868D01*
X70992384Y-84825829D01*
X71009013Y-84805192D01*
X76154294Y-79659910D01*
X76215615Y-79626427D01*
X76285307Y-79631411D01*
X76341240Y-79673283D01*
X76354355Y-79695187D01*
X76384965Y-79760830D01*
X76384966Y-79760832D01*
X76384967Y-79760833D01*
X76384967Y-79760834D01*
X76426921Y-79820750D01*
X76520501Y-79954396D01*
X76520506Y-79954402D01*
X76687597Y-80121493D01*
X76687603Y-80121498D01*
X76873158Y-80251425D01*
X76916783Y-80306002D01*
X76923977Y-80375500D01*
X76892454Y-80437855D01*
X76873158Y-80454575D01*
X76687597Y-80584505D01*
X76520505Y-80751597D01*
X76384965Y-80945169D01*
X76384964Y-80945171D01*
X76285098Y-81159335D01*
X76285094Y-81159344D01*
X76223938Y-81387586D01*
X76223936Y-81387596D01*
X76203341Y-81622999D01*
X76203341Y-81623000D01*
X76223936Y-81858403D01*
X76223938Y-81858413D01*
X76285094Y-82086655D01*
X76285096Y-82086659D01*
X76285097Y-82086663D01*
X76368358Y-82265217D01*
X76384965Y-82300830D01*
X76384967Y-82300834D01*
X76493281Y-82455521D01*
X76520501Y-82494396D01*
X76520506Y-82494402D01*
X76687597Y-82661493D01*
X76687603Y-82661498D01*
X76873594Y-82791730D01*
X76917219Y-82846307D01*
X76924413Y-82915805D01*
X76892890Y-82978160D01*
X76873595Y-82994880D01*
X76687922Y-83124890D01*
X76687920Y-83124891D01*
X76520891Y-83291920D01*
X76520886Y-83291926D01*
X76385400Y-83485420D01*
X76385399Y-83485422D01*
X76285570Y-83699507D01*
X76285567Y-83699513D01*
X76228364Y-83912999D01*
X76228364Y-83913000D01*
X77125988Y-83913000D01*
X77093075Y-83970007D01*
X77059000Y-84097174D01*
X77059000Y-84228826D01*
X77093075Y-84355993D01*
X77125988Y-84413000D01*
X76228364Y-84413000D01*
X76285567Y-84626486D01*
X76285570Y-84626492D01*
X76385399Y-84840578D01*
X76520894Y-85034082D01*
X76687917Y-85201105D01*
X76873595Y-85331119D01*
X76917219Y-85385696D01*
X76924412Y-85455195D01*
X76892890Y-85517549D01*
X76873595Y-85534269D01*
X76687594Y-85664508D01*
X76520505Y-85831597D01*
X76384965Y-86025169D01*
X76384964Y-86025171D01*
X76285098Y-86239335D01*
X76285094Y-86239344D01*
X76223938Y-86467586D01*
X76223936Y-86467596D01*
X76203341Y-86702999D01*
X76203341Y-86703000D01*
X76223936Y-86938403D01*
X76223938Y-86938413D01*
X76285094Y-87166655D01*
X76285096Y-87166659D01*
X76285097Y-87166663D01*
X76350752Y-87307460D01*
X76384965Y-87380830D01*
X76384967Y-87380834D01*
X76493281Y-87535521D01*
X76520501Y-87574396D01*
X76520506Y-87574402D01*
X76687597Y-87741493D01*
X76687603Y-87741498D01*
X76873158Y-87871425D01*
X76916783Y-87926002D01*
X76923977Y-87995500D01*
X76892454Y-88057855D01*
X76873158Y-88074575D01*
X76687597Y-88204505D01*
X76520505Y-88371597D01*
X76384965Y-88565169D01*
X76384964Y-88565171D01*
X76285098Y-88779335D01*
X76285094Y-88779344D01*
X76223938Y-89007586D01*
X76223936Y-89007596D01*
X76203341Y-89242999D01*
X76203341Y-89243000D01*
X76223936Y-89478403D01*
X76223938Y-89478413D01*
X76285094Y-89706655D01*
X76285097Y-89706663D01*
X76384965Y-89920830D01*
X76384967Y-89920834D01*
X76454818Y-90020591D01*
X76520501Y-90114396D01*
X76520506Y-90114402D01*
X76687597Y-90281493D01*
X76687603Y-90281498D01*
X76873158Y-90411425D01*
X76916783Y-90466002D01*
X76923977Y-90535500D01*
X76892454Y-90597855D01*
X76873158Y-90614575D01*
X76687597Y-90744505D01*
X76520505Y-90911597D01*
X76384965Y-91105169D01*
X76384964Y-91105171D01*
X76285098Y-91319335D01*
X76285094Y-91319344D01*
X76223938Y-91547586D01*
X76223936Y-91547596D01*
X76203341Y-91782999D01*
X76203341Y-91783000D01*
X76223936Y-92018403D01*
X76223938Y-92018413D01*
X76285094Y-92246655D01*
X76285096Y-92246659D01*
X76285097Y-92246663D01*
X76289000Y-92255032D01*
X76384965Y-92460830D01*
X76384967Y-92460834D01*
X76419277Y-92509833D01*
X76520501Y-92654396D01*
X76520506Y-92654402D01*
X76687597Y-92821493D01*
X76687603Y-92821498D01*
X76873158Y-92951425D01*
X76916783Y-93006002D01*
X76923977Y-93075500D01*
X76892454Y-93137855D01*
X76873158Y-93154575D01*
X76687597Y-93284505D01*
X76520505Y-93451597D01*
X76384968Y-93645166D01*
X76384964Y-93645171D01*
X76285098Y-93859335D01*
X76285094Y-93859344D01*
X76223938Y-94087586D01*
X76223936Y-94087596D01*
X76203341Y-94322999D01*
X76203341Y-94323000D01*
X76223936Y-94558403D01*
X76223938Y-94558413D01*
X76285094Y-94786655D01*
X76285096Y-94786659D01*
X76285097Y-94786663D01*
X76368155Y-94964781D01*
X76384965Y-95000830D01*
X76384967Y-95000834D01*
X76400741Y-95023361D01*
X76520501Y-95194396D01*
X76520506Y-95194402D01*
X76687597Y-95361493D01*
X76687603Y-95361498D01*
X76873158Y-95491425D01*
X76916783Y-95546002D01*
X76923977Y-95615500D01*
X76892454Y-95677855D01*
X76873158Y-95694575D01*
X76687597Y-95824505D01*
X76520505Y-95991597D01*
X76384965Y-96185169D01*
X76384964Y-96185171D01*
X76303718Y-96359404D01*
X76286434Y-96396471D01*
X76285098Y-96399335D01*
X76285094Y-96399344D01*
X76223938Y-96627586D01*
X76223936Y-96627596D01*
X76203341Y-96862999D01*
X76203341Y-96863000D01*
X76223936Y-97098403D01*
X76223938Y-97098413D01*
X76285094Y-97326655D01*
X76285096Y-97326659D01*
X76285097Y-97326663D01*
X76365004Y-97498023D01*
X76384965Y-97540830D01*
X76384967Y-97540834D01*
X76440530Y-97620185D01*
X76520501Y-97734396D01*
X76520506Y-97734402D01*
X76687597Y-97901493D01*
X76687603Y-97901498D01*
X76873158Y-98031425D01*
X76916783Y-98086002D01*
X76923977Y-98155500D01*
X76892454Y-98217855D01*
X76873158Y-98234575D01*
X76687597Y-98364505D01*
X76520505Y-98531597D01*
X76384965Y-98725169D01*
X76384964Y-98725171D01*
X76285098Y-98939335D01*
X76285094Y-98939344D01*
X76223938Y-99167586D01*
X76223936Y-99167596D01*
X76203341Y-99402999D01*
X76203341Y-99403000D01*
X76223936Y-99638403D01*
X76223938Y-99638413D01*
X76285094Y-99866655D01*
X76285096Y-99866659D01*
X76285097Y-99866663D01*
X76322934Y-99947804D01*
X76384965Y-100080830D01*
X76384967Y-100080834D01*
X76478729Y-100214739D01*
X76520501Y-100274396D01*
X76520506Y-100274402D01*
X76687597Y-100441493D01*
X76687603Y-100441498D01*
X76873594Y-100571730D01*
X76917219Y-100626307D01*
X76924413Y-100695805D01*
X76892890Y-100758160D01*
X76873595Y-100774880D01*
X76687922Y-100904890D01*
X76687920Y-100904891D01*
X76520891Y-101071920D01*
X76520886Y-101071926D01*
X76385400Y-101265420D01*
X76385399Y-101265422D01*
X76285570Y-101479507D01*
X76285567Y-101479513D01*
X76228364Y-101692999D01*
X76228364Y-101693000D01*
X77125988Y-101693000D01*
X77093075Y-101750007D01*
X77059000Y-101877174D01*
X77059000Y-102008826D01*
X77093075Y-102135993D01*
X77125988Y-102193000D01*
X76228364Y-102193000D01*
X76285567Y-102406486D01*
X76285570Y-102406492D01*
X76385399Y-102620578D01*
X76520894Y-102814082D01*
X76687917Y-102981105D01*
X76881421Y-103116600D01*
X77095507Y-103216429D01*
X77095516Y-103216433D01*
X77309000Y-103273634D01*
X77309000Y-102376012D01*
X77366007Y-102408925D01*
X77493174Y-102443000D01*
X77624826Y-102443000D01*
X77751993Y-102408925D01*
X77809000Y-102376012D01*
X77809000Y-103273633D01*
X78022483Y-103216433D01*
X78022492Y-103216429D01*
X78236578Y-103116600D01*
X78430082Y-102981105D01*
X78597105Y-102814082D01*
X78727119Y-102628405D01*
X78781696Y-102584781D01*
X78851195Y-102577588D01*
X78913549Y-102609110D01*
X78930269Y-102628405D01*
X79060505Y-102814401D01*
X79227599Y-102981495D01*
X79240791Y-102990732D01*
X79421165Y-103117032D01*
X79421167Y-103117033D01*
X79421170Y-103117035D01*
X79635337Y-103216903D01*
X79635343Y-103216904D01*
X79635344Y-103216905D01*
X79665556Y-103225000D01*
X79863592Y-103278063D01*
X80044491Y-103293890D01*
X80098999Y-103298659D01*
X80099000Y-103298659D01*
X80099001Y-103298659D01*
X80153497Y-103293891D01*
X80334408Y-103278063D01*
X80562663Y-103216903D01*
X80776830Y-103117035D01*
X80970401Y-102981495D01*
X81137495Y-102814401D01*
X81273035Y-102620830D01*
X81372903Y-102406663D01*
X81434063Y-102178408D01*
X81454659Y-101943000D01*
X81434063Y-101707592D01*
X81372903Y-101479337D01*
X81273035Y-101265171D01*
X81267731Y-101257595D01*
X81137494Y-101071597D01*
X80970402Y-100904506D01*
X80970396Y-100904501D01*
X80784842Y-100774575D01*
X80741217Y-100719998D01*
X80734023Y-100650500D01*
X80765546Y-100588145D01*
X80784842Y-100571425D01*
X80841695Y-100531616D01*
X80970401Y-100441495D01*
X81137495Y-100274401D01*
X81273035Y-100080830D01*
X81372903Y-99866663D01*
X81434063Y-99638408D01*
X81454659Y-99403000D01*
X81434063Y-99167592D01*
X81372903Y-98939337D01*
X81273035Y-98725171D01*
X81267425Y-98717158D01*
X81137494Y-98531597D01*
X80970402Y-98364506D01*
X80970396Y-98364501D01*
X80784842Y-98234575D01*
X80741217Y-98179998D01*
X80734023Y-98110500D01*
X80765546Y-98048145D01*
X80784842Y-98031425D01*
X80937549Y-97924498D01*
X80970401Y-97901495D01*
X81137495Y-97734401D01*
X81273035Y-97540830D01*
X81372903Y-97326663D01*
X81434063Y-97098408D01*
X81454659Y-96863000D01*
X81453563Y-96850478D01*
X81446410Y-96768713D01*
X81434063Y-96627592D01*
X81372903Y-96399337D01*
X81273035Y-96185171D01*
X81269779Y-96180520D01*
X81137494Y-95991597D01*
X80970402Y-95824506D01*
X80970401Y-95824505D01*
X80784405Y-95694269D01*
X80740781Y-95639692D01*
X80733588Y-95570193D01*
X80765110Y-95507839D01*
X80784405Y-95491119D01*
X80970082Y-95361105D01*
X81137105Y-95194082D01*
X81272600Y-95000578D01*
X81372429Y-94786492D01*
X81372432Y-94786486D01*
X81429636Y-94573000D01*
X80532012Y-94573000D01*
X80564925Y-94515993D01*
X80599000Y-94388826D01*
X80599000Y-94257174D01*
X80564925Y-94130007D01*
X80532012Y-94073000D01*
X81429636Y-94073000D01*
X81429635Y-94072999D01*
X81372432Y-93859513D01*
X81372429Y-93859507D01*
X81272600Y-93645422D01*
X81272599Y-93645420D01*
X81137113Y-93451926D01*
X81137108Y-93451920D01*
X80970078Y-93284890D01*
X80784405Y-93154879D01*
X80740780Y-93100302D01*
X80733588Y-93030804D01*
X80765110Y-92968449D01*
X80784406Y-92951730D01*
X80825795Y-92922749D01*
X80970401Y-92821495D01*
X81137495Y-92654401D01*
X81273035Y-92460830D01*
X81372903Y-92246663D01*
X81434063Y-92018408D01*
X81454659Y-91783000D01*
X81434063Y-91547592D01*
X81372903Y-91319337D01*
X81273035Y-91105171D01*
X81267425Y-91097158D01*
X81137494Y-90911597D01*
X80970402Y-90744506D01*
X80970401Y-90744505D01*
X80784405Y-90614269D01*
X80740781Y-90559692D01*
X80733588Y-90490193D01*
X80765110Y-90427839D01*
X80784405Y-90411119D01*
X80970082Y-90281105D01*
X81137105Y-90114082D01*
X81272600Y-89920578D01*
X81372429Y-89706492D01*
X81372432Y-89706486D01*
X81429636Y-89493000D01*
X80532012Y-89493000D01*
X80564925Y-89435993D01*
X80599000Y-89308826D01*
X80599000Y-89177174D01*
X80564925Y-89050007D01*
X80532012Y-88993000D01*
X81429636Y-88993000D01*
X81429635Y-88992999D01*
X81372432Y-88779513D01*
X81372429Y-88779507D01*
X81272600Y-88565422D01*
X81272599Y-88565420D01*
X81137113Y-88371926D01*
X81137108Y-88371920D01*
X80970078Y-88204890D01*
X80784405Y-88074879D01*
X80740780Y-88020302D01*
X80733588Y-87950804D01*
X80765110Y-87888449D01*
X80784406Y-87871730D01*
X80962056Y-87747338D01*
X80970401Y-87741495D01*
X81137495Y-87574401D01*
X81273035Y-87380830D01*
X81372903Y-87166663D01*
X81434063Y-86938408D01*
X81454659Y-86703000D01*
X81434063Y-86467592D01*
X81372903Y-86239337D01*
X81273035Y-86025171D01*
X81267425Y-86017158D01*
X81137494Y-85831597D01*
X80970402Y-85664506D01*
X80970396Y-85664501D01*
X80784842Y-85534575D01*
X80741217Y-85479998D01*
X80734023Y-85410500D01*
X80765546Y-85348145D01*
X80784842Y-85331425D01*
X80825301Y-85303095D01*
X80970401Y-85201495D01*
X81137495Y-85034401D01*
X81273035Y-84840830D01*
X81372903Y-84626663D01*
X81434063Y-84398408D01*
X81454659Y-84163000D01*
X81434063Y-83927592D01*
X81372903Y-83699337D01*
X81273035Y-83485171D01*
X81267731Y-83477595D01*
X81137494Y-83291597D01*
X80970402Y-83124506D01*
X80970396Y-83124501D01*
X80784842Y-82994575D01*
X80741217Y-82939998D01*
X80734023Y-82870500D01*
X80765546Y-82808145D01*
X80784842Y-82791425D01*
X80835205Y-82756160D01*
X80970401Y-82661495D01*
X81137495Y-82494401D01*
X81273035Y-82300830D01*
X81372903Y-82086663D01*
X81434063Y-81858408D01*
X81454659Y-81623000D01*
X81434063Y-81387592D01*
X81372903Y-81159337D01*
X81273035Y-80945171D01*
X81267425Y-80937158D01*
X81137494Y-80751597D01*
X80970402Y-80584506D01*
X80970396Y-80584501D01*
X80784842Y-80454575D01*
X80741217Y-80399998D01*
X80734023Y-80330500D01*
X80765546Y-80268145D01*
X80784842Y-80251425D01*
X80807026Y-80235891D01*
X80970401Y-80121495D01*
X81137495Y-79954401D01*
X81273035Y-79760830D01*
X81372903Y-79546663D01*
X81434063Y-79318408D01*
X81454659Y-79083000D01*
X81434063Y-78847592D01*
X81372903Y-78619337D01*
X81273035Y-78405171D01*
X81267425Y-78397158D01*
X81137494Y-78211597D01*
X80970402Y-78044506D01*
X80970401Y-78044505D01*
X80784405Y-77914269D01*
X80740781Y-77859692D01*
X80733588Y-77790193D01*
X80765110Y-77727839D01*
X80784405Y-77711119D01*
X80970082Y-77581105D01*
X81137105Y-77414082D01*
X81272600Y-77220578D01*
X81372429Y-77006492D01*
X81372432Y-77006486D01*
X81429636Y-76793000D01*
X80532012Y-76793000D01*
X80564925Y-76735993D01*
X80599000Y-76608826D01*
X80599000Y-76477174D01*
X80564925Y-76350007D01*
X80532012Y-76293000D01*
X81429636Y-76293000D01*
X81429635Y-76292999D01*
X81372432Y-76079513D01*
X81372429Y-76079507D01*
X81272600Y-75865422D01*
X81272599Y-75865420D01*
X81137113Y-75671926D01*
X81137108Y-75671920D01*
X80970078Y-75504890D01*
X80784405Y-75374879D01*
X80740780Y-75320302D01*
X80733588Y-75250804D01*
X80765110Y-75188449D01*
X80784406Y-75171730D01*
X80784842Y-75171425D01*
X80970401Y-75041495D01*
X81137495Y-74874401D01*
X81273035Y-74680830D01*
X81372903Y-74466663D01*
X81434063Y-74238408D01*
X81454659Y-74003000D01*
X81434063Y-73767592D01*
X81372903Y-73539337D01*
X81273035Y-73325171D01*
X81259297Y-73305550D01*
X81137494Y-73131597D01*
X80970402Y-72964506D01*
X80970396Y-72964501D01*
X80784842Y-72834575D01*
X80741217Y-72779998D01*
X80734023Y-72710500D01*
X80765546Y-72648145D01*
X80784842Y-72631425D01*
X80909566Y-72544092D01*
X80970401Y-72501495D01*
X81137495Y-72334401D01*
X81273035Y-72140830D01*
X81372903Y-71926663D01*
X81434063Y-71698408D01*
X81454659Y-71463000D01*
X81434063Y-71227592D01*
X81372903Y-70999337D01*
X81273035Y-70785171D01*
X81272598Y-70784546D01*
X81137494Y-70591597D01*
X81005779Y-70459882D01*
X80972294Y-70398559D01*
X80977278Y-70328867D01*
X81019150Y-70272934D01*
X81084614Y-70248517D01*
X81134415Y-70255159D01*
X81139314Y-70256874D01*
X81220740Y-70285367D01*
X81220750Y-70285369D01*
X81399996Y-70305565D01*
X81400000Y-70305565D01*
X81400004Y-70305565D01*
X81579249Y-70285369D01*
X81579252Y-70285368D01*
X81579255Y-70285368D01*
X81749522Y-70225789D01*
X81902262Y-70129816D01*
X82029816Y-70002262D01*
X82125789Y-69849522D01*
X82185368Y-69679255D01*
X82195161Y-69592329D01*
X82222226Y-69527918D01*
X82230690Y-69518543D01*
X82358506Y-69390728D01*
X82358511Y-69390724D01*
X82368714Y-69380520D01*
X82368716Y-69380520D01*
X82480520Y-69268716D01*
X82548784Y-69150478D01*
X82559577Y-69131785D01*
X82600500Y-68979057D01*
X82600500Y-68820943D01*
X82600500Y-64038597D01*
X82559577Y-63885870D01*
X82559577Y-63885869D01*
X82535184Y-63843620D01*
X82526653Y-63828843D01*
X82526652Y-63828842D01*
X82480520Y-63748938D01*
X82368716Y-63637134D01*
X82368715Y-63637133D01*
X82364385Y-63632803D01*
X82364374Y-63632793D01*
X81109419Y-62377838D01*
X81075934Y-62316515D01*
X81080918Y-62246823D01*
X81109416Y-62202478D01*
X81137495Y-62174401D01*
X81273035Y-61980830D01*
X81372903Y-61766663D01*
X81434063Y-61538408D01*
X81454659Y-61303000D01*
X81434063Y-61067592D01*
X81372903Y-60839337D01*
X81273035Y-60625171D01*
X81267425Y-60617158D01*
X81137494Y-60431597D01*
X80970402Y-60264506D01*
X80970401Y-60264505D01*
X80784405Y-60134269D01*
X80740781Y-60079692D01*
X80733588Y-60010193D01*
X80765110Y-59947839D01*
X80784405Y-59931119D01*
X80970082Y-59801105D01*
X81137105Y-59634082D01*
X81272600Y-59440578D01*
X81372429Y-59226492D01*
X81372432Y-59226486D01*
X81429636Y-59013000D01*
X80532012Y-59013000D01*
X80564925Y-58955993D01*
X80599000Y-58828826D01*
X80599000Y-58697174D01*
X80564925Y-58570007D01*
X80532012Y-58513000D01*
X81429636Y-58513000D01*
X81429635Y-58512999D01*
X81372432Y-58299513D01*
X81372429Y-58299507D01*
X81272600Y-58085422D01*
X81272599Y-58085420D01*
X81137113Y-57891926D01*
X81137108Y-57891920D01*
X80970078Y-57724890D01*
X80784405Y-57594879D01*
X80740780Y-57540302D01*
X80733588Y-57470804D01*
X80765110Y-57408449D01*
X80784406Y-57391730D01*
X80784842Y-57391425D01*
X80970401Y-57261495D01*
X81137495Y-57094401D01*
X81273035Y-56900830D01*
X81372903Y-56686663D01*
X81434063Y-56458408D01*
X81454659Y-56223000D01*
X81434063Y-55987592D01*
X81372903Y-55759337D01*
X81273035Y-55545171D01*
X81267425Y-55537158D01*
X81137494Y-55351597D01*
X80970402Y-55184506D01*
X80970396Y-55184501D01*
X80784842Y-55054575D01*
X80741217Y-54999998D01*
X80734023Y-54930500D01*
X80765546Y-54868145D01*
X80784842Y-54851425D01*
X80847436Y-54807596D01*
X80970401Y-54721495D01*
X81137495Y-54554401D01*
X81273035Y-54360830D01*
X81372903Y-54146663D01*
X81434063Y-53918408D01*
X81454659Y-53683000D01*
X81434063Y-53447592D01*
X81372903Y-53219337D01*
X81273035Y-53005171D01*
X81252411Y-52975716D01*
X81137494Y-52811597D01*
X80970402Y-52644506D01*
X80970395Y-52644501D01*
X80776834Y-52508967D01*
X80776830Y-52508965D01*
X80776828Y-52508964D01*
X80562663Y-52409097D01*
X80562659Y-52409096D01*
X80562655Y-52409094D01*
X80334413Y-52347938D01*
X80334403Y-52347936D01*
X80099001Y-52327341D01*
X80098999Y-52327341D01*
X79863596Y-52347936D01*
X79863586Y-52347938D01*
X79635344Y-52409094D01*
X79635335Y-52409098D01*
X79421171Y-52508964D01*
X79421169Y-52508965D01*
X79227600Y-52644503D01*
X79105673Y-52766430D01*
X79044350Y-52799914D01*
X78974658Y-52794930D01*
X78918725Y-52753058D01*
X78901810Y-52722081D01*
X78852797Y-52590671D01*
X78852793Y-52590664D01*
X78766547Y-52475455D01*
X78766544Y-52475452D01*
X78651335Y-52389206D01*
X78651328Y-52389202D01*
X78516482Y-52338908D01*
X78516483Y-52338908D01*
X78456883Y-52332501D01*
X78456881Y-52332500D01*
X78456873Y-52332500D01*
X78456864Y-52332500D01*
X76661129Y-52332500D01*
X76661123Y-52332501D01*
X76601516Y-52338908D01*
X76466671Y-52389202D01*
X76466664Y-52389206D01*
X76351455Y-52475452D01*
X76351452Y-52475455D01*
X76265206Y-52590664D01*
X76265202Y-52590671D01*
X76214908Y-52725517D01*
X76208501Y-52785116D01*
X76208500Y-52785135D01*
X76208500Y-54580870D01*
X76208501Y-54580876D01*
X76214908Y-54640483D01*
X76265202Y-54775328D01*
X76265206Y-54775335D01*
X76351452Y-54890544D01*
X76351455Y-54890547D01*
X76466664Y-54976793D01*
X76466671Y-54976797D01*
X76598081Y-55025810D01*
X76654015Y-55067681D01*
X76678432Y-55133145D01*
X76663580Y-55201418D01*
X76642430Y-55229673D01*
X76520503Y-55351600D01*
X76384965Y-55545169D01*
X76384964Y-55545171D01*
X76285098Y-55759335D01*
X76285094Y-55759344D01*
X76223938Y-55987586D01*
X76223936Y-55987596D01*
X76203341Y-56222999D01*
X76203341Y-56223000D01*
X76223936Y-56458403D01*
X76223938Y-56458413D01*
X76285094Y-56686655D01*
X76285096Y-56686659D01*
X76285097Y-56686663D01*
X76289000Y-56695032D01*
X76384965Y-56900830D01*
X76384967Y-56900834D01*
X76483000Y-57040838D01*
X76520501Y-57094396D01*
X76520506Y-57094402D01*
X76687597Y-57261493D01*
X76687603Y-57261498D01*
X76873158Y-57391425D01*
X76916783Y-57446002D01*
X76923977Y-57515500D01*
X76892454Y-57577855D01*
X76873158Y-57594575D01*
X76687597Y-57724505D01*
X76520505Y-57891597D01*
X76384965Y-58085169D01*
X76384964Y-58085171D01*
X76285098Y-58299335D01*
X76285094Y-58299344D01*
X76223938Y-58527586D01*
X76223936Y-58527596D01*
X76203341Y-58762999D01*
X76203341Y-58763000D01*
X76223936Y-58998403D01*
X76223938Y-58998413D01*
X76258327Y-59126756D01*
X76256664Y-59196606D01*
X76226233Y-59246530D01*
X63431286Y-72041478D01*
X63319481Y-72153282D01*
X63319479Y-72153285D01*
X63292221Y-72200499D01*
X63292220Y-72200501D01*
X63284264Y-72214281D01*
X63233696Y-72262496D01*
X63165089Y-72275718D01*
X63100225Y-72249750D01*
X63089196Y-72239961D01*
X63036819Y-72187584D01*
X63003334Y-72126261D01*
X63000500Y-72099903D01*
X63000500Y-71966076D01*
X63008022Y-71923545D01*
X63148166Y-71539737D01*
X63161071Y-71499168D01*
X63161241Y-71497790D01*
X63167262Y-71472045D01*
X63185368Y-71420306D01*
X63185369Y-71420298D01*
X63205565Y-71241054D01*
X63205565Y-71241047D01*
X63185369Y-71061801D01*
X63185368Y-71061796D01*
X63158855Y-70986027D01*
X63125789Y-70891529D01*
X63029816Y-70738789D01*
X62902262Y-70611235D01*
X62749523Y-70515262D01*
X62579254Y-70455682D01*
X62579249Y-70455681D01*
X62400004Y-70435486D01*
X62399996Y-70435486D01*
X62220750Y-70455681D01*
X62220745Y-70455682D01*
X62050476Y-70515262D01*
X61897737Y-70611235D01*
X61770184Y-70738788D01*
X61674210Y-70891529D01*
X61614630Y-71061801D01*
X61605176Y-71145708D01*
X61578109Y-71210121D01*
X61522913Y-71248864D01*
X61450474Y-71274212D01*
X61297737Y-71370184D01*
X61170184Y-71497737D01*
X61074211Y-71650476D01*
X61014631Y-71820745D01*
X61014630Y-71820750D01*
X60994435Y-71999996D01*
X60994435Y-72000003D01*
X61014631Y-72179252D01*
X61042268Y-72258236D01*
X61046570Y-72273663D01*
X61051833Y-72298685D01*
X61144223Y-72551709D01*
X61173330Y-72631425D01*
X61191978Y-72682494D01*
X61199500Y-72725025D01*
X61199500Y-83316936D01*
X61179815Y-83383975D01*
X61127011Y-83429730D01*
X61057853Y-83439674D01*
X61034547Y-83433978D01*
X60979260Y-83414633D01*
X60979249Y-83414630D01*
X60800004Y-83394435D01*
X60799996Y-83394435D01*
X60620750Y-83414630D01*
X60620745Y-83414631D01*
X60450476Y-83474211D01*
X60297737Y-83570184D01*
X60170184Y-83697737D01*
X60074211Y-83850476D01*
X60014631Y-84020745D01*
X60014630Y-84020750D01*
X59994435Y-84199996D01*
X59994435Y-84200003D01*
X60014631Y-84379252D01*
X60042268Y-84458236D01*
X60046570Y-84473663D01*
X60051833Y-84498685D01*
X60151905Y-84772748D01*
X60179530Y-84848405D01*
X60191978Y-84882494D01*
X60199500Y-84925025D01*
X60199500Y-86713330D01*
X60199499Y-86713348D01*
X60199499Y-86879054D01*
X60199498Y-86879054D01*
X60240424Y-87031789D01*
X60240425Y-87031790D01*
X60261425Y-87068162D01*
X60261426Y-87068164D01*
X60319475Y-87168709D01*
X60319481Y-87168717D01*
X60438349Y-87287585D01*
X60438355Y-87287590D01*
X60862710Y-87711946D01*
X60887465Y-87747338D01*
X61059765Y-88117834D01*
X61066124Y-88130126D01*
X61073026Y-88146137D01*
X61074209Y-88149518D01*
X61074212Y-88149524D01*
X61170184Y-88302262D01*
X61170185Y-88302263D01*
X61221662Y-88353741D01*
X61255146Y-88415064D01*
X61250161Y-88484756D01*
X61221661Y-88529102D01*
X60231286Y-89519478D01*
X60119481Y-89631282D01*
X60119477Y-89631287D01*
X60076062Y-89706486D01*
X60075960Y-89706663D01*
X60069172Y-89718421D01*
X60040422Y-89768215D01*
X60034625Y-89789851D01*
X59998259Y-89849510D01*
X59935411Y-89880038D01*
X59866036Y-89871741D01*
X59827170Y-89845435D01*
X56667443Y-86685708D01*
X56633958Y-86624385D01*
X56631766Y-86585423D01*
X56632999Y-86573350D01*
X56633000Y-86573345D01*
X56632999Y-86026656D01*
X56632847Y-86025171D01*
X56622849Y-85927292D01*
X56622848Y-85927289D01*
X56599264Y-85856116D01*
X56569503Y-85766303D01*
X56504521Y-85660952D01*
X56486081Y-85593561D01*
X56506959Y-85526964D01*
X56524822Y-85500231D01*
X56596473Y-85327251D01*
X56633000Y-85143616D01*
X56633000Y-84956384D01*
X56596473Y-84772749D01*
X56524822Y-84599769D01*
X56524821Y-84599768D01*
X56524818Y-84599762D01*
X56454077Y-84493891D01*
X56433199Y-84427213D01*
X56451683Y-84359833D01*
X56454077Y-84356109D01*
X56524818Y-84250237D01*
X56524818Y-84250236D01*
X56524822Y-84250231D01*
X56596473Y-84077251D01*
X56633000Y-83893616D01*
X56633000Y-83706384D01*
X56596473Y-83522749D01*
X56524822Y-83349769D01*
X56524821Y-83349768D01*
X56524818Y-83349762D01*
X56454077Y-83243891D01*
X56433199Y-83177213D01*
X56451683Y-83109833D01*
X56454077Y-83106109D01*
X56524818Y-83000237D01*
X56524818Y-83000236D01*
X56524822Y-83000231D01*
X56596473Y-82827251D01*
X56633000Y-82643616D01*
X56633000Y-82456384D01*
X56596473Y-82272749D01*
X56524822Y-82099769D01*
X56524821Y-82099768D01*
X56524818Y-82099762D01*
X56454077Y-81993891D01*
X56433199Y-81927213D01*
X56451683Y-81859833D01*
X56454077Y-81856109D01*
X56524818Y-81750237D01*
X56524818Y-81750236D01*
X56524822Y-81750231D01*
X56596473Y-81577251D01*
X56633000Y-81393616D01*
X56633000Y-81206384D01*
X56596473Y-81022749D01*
X56524822Y-80849769D01*
X56524821Y-80849768D01*
X56524818Y-80849762D01*
X56420802Y-80694092D01*
X56420799Y-80694088D01*
X56288411Y-80561700D01*
X56288407Y-80561697D01*
X56132737Y-80457681D01*
X56132728Y-80457676D01*
X55959751Y-80386027D01*
X55959743Y-80386025D01*
X55776120Y-80349500D01*
X55776116Y-80349500D01*
X55088884Y-80349500D01*
X55088879Y-80349500D01*
X54905256Y-80386025D01*
X54905248Y-80386027D01*
X54732271Y-80457676D01*
X54732262Y-80457681D01*
X54576592Y-80561697D01*
X54576588Y-80561700D01*
X54444200Y-80694088D01*
X54444197Y-80694092D01*
X54427602Y-80718929D01*
X54373990Y-80763734D01*
X54304665Y-80772441D01*
X54241637Y-80742286D01*
X54204918Y-80682843D01*
X54200500Y-80650038D01*
X54200500Y-77693374D01*
X54220185Y-77626335D01*
X54272989Y-77580580D01*
X54342147Y-77570636D01*
X54405703Y-77599661D01*
X54412181Y-77605693D01*
X54504455Y-77697967D01*
X54504459Y-77697970D01*
X54648794Y-77786998D01*
X54648797Y-77786999D01*
X54648803Y-77787003D01*
X54809792Y-77840349D01*
X54909155Y-77850500D01*
X55955844Y-77850499D01*
X55955852Y-77850498D01*
X55955855Y-77850498D01*
X56010260Y-77844940D01*
X56055208Y-77840349D01*
X56216197Y-77787003D01*
X56360544Y-77697968D01*
X56480468Y-77578044D01*
X56569503Y-77433697D01*
X56622849Y-77272708D01*
X56633000Y-77173345D01*
X56632999Y-76626656D01*
X56624453Y-76542999D01*
X56622849Y-76527292D01*
X56622848Y-76527289D01*
X56569503Y-76366303D01*
X56504521Y-76260952D01*
X56486081Y-76193561D01*
X56506959Y-76126964D01*
X56524822Y-76100231D01*
X56596473Y-75927251D01*
X56633000Y-75743616D01*
X56633000Y-75556384D01*
X56596473Y-75372749D01*
X56524822Y-75199769D01*
X56524821Y-75199768D01*
X56524818Y-75199762D01*
X56454077Y-75093891D01*
X56433199Y-75027213D01*
X56451683Y-74959833D01*
X56454077Y-74956109D01*
X56524818Y-74850237D01*
X56524818Y-74850236D01*
X56524822Y-74850231D01*
X56596473Y-74677251D01*
X56633000Y-74493616D01*
X56633000Y-74306384D01*
X56596473Y-74122749D01*
X56524822Y-73949769D01*
X56524821Y-73949768D01*
X56524818Y-73949762D01*
X56454077Y-73843891D01*
X56433199Y-73777213D01*
X56451683Y-73709833D01*
X56454077Y-73706109D01*
X56524818Y-73600237D01*
X56524818Y-73600236D01*
X56524822Y-73600231D01*
X56596473Y-73427251D01*
X56633000Y-73243616D01*
X56633000Y-73056384D01*
X56596473Y-72872749D01*
X56524822Y-72699769D01*
X56524821Y-72699768D01*
X56524818Y-72699762D01*
X56454077Y-72593891D01*
X56433199Y-72527213D01*
X56451683Y-72459833D01*
X56454077Y-72456109D01*
X56524818Y-72350237D01*
X56524818Y-72350236D01*
X56524822Y-72350231D01*
X56596473Y-72177251D01*
X56633000Y-71993616D01*
X56633000Y-71806384D01*
X56596473Y-71622749D01*
X56534047Y-71472040D01*
X56524823Y-71449771D01*
X56524818Y-71449762D01*
X56420802Y-71294092D01*
X56420799Y-71294088D01*
X56288411Y-71161700D01*
X56288407Y-71161697D01*
X56132737Y-71057681D01*
X56132728Y-71057676D01*
X55959751Y-70986027D01*
X55959743Y-70986025D01*
X55776120Y-70949500D01*
X55776116Y-70949500D01*
X55500559Y-70949500D01*
X55433520Y-70929815D01*
X55387765Y-70877011D01*
X55377821Y-70807853D01*
X55383517Y-70784546D01*
X55385367Y-70779257D01*
X55385368Y-70779255D01*
X55385369Y-70779249D01*
X55405565Y-70600003D01*
X55405565Y-70599996D01*
X55385369Y-70420750D01*
X55385368Y-70420745D01*
X55337998Y-70285369D01*
X55325789Y-70250478D01*
X55229816Y-70097738D01*
X55102262Y-69970184D01*
X54949523Y-69874211D01*
X54779254Y-69814631D01*
X54779249Y-69814630D01*
X54600004Y-69794435D01*
X54599996Y-69794435D01*
X54420750Y-69814630D01*
X54420745Y-69814631D01*
X54250476Y-69874211D01*
X54097737Y-69970184D01*
X53970184Y-70097737D01*
X53950028Y-70129816D01*
X53874211Y-70250478D01*
X53874210Y-70250479D01*
X53874209Y-70250482D01*
X53871972Y-70256874D01*
X53861536Y-70278086D01*
X53861913Y-70278296D01*
X53859763Y-70282168D01*
X53687463Y-70652662D01*
X53662708Y-70688054D01*
X53231286Y-71119478D01*
X53119481Y-71231282D01*
X53119479Y-71231284D01*
X53113839Y-71241054D01*
X53092387Y-71278211D01*
X53040423Y-71368215D01*
X52999499Y-71520943D01*
X52999499Y-71520945D01*
X52999499Y-71689046D01*
X52999500Y-71689059D01*
X52999500Y-96713330D01*
X52999499Y-96713348D01*
X52999499Y-96879054D01*
X52999498Y-96879054D01*
X50500500Y-96879054D01*
X50500500Y-62406379D01*
X54232000Y-62406379D01*
X54232000Y-62593620D01*
X54268525Y-62777243D01*
X54268527Y-62777251D01*
X54340176Y-62950228D01*
X54340180Y-62950235D01*
X54410923Y-63056110D01*
X54431800Y-63122787D01*
X54413315Y-63190167D01*
X54410923Y-63193890D01*
X54340180Y-63299764D01*
X54340176Y-63299771D01*
X54268527Y-63472748D01*
X54268525Y-63472756D01*
X54232000Y-63656379D01*
X54232000Y-63843620D01*
X54268525Y-64027243D01*
X54268527Y-64027251D01*
X54340176Y-64200228D01*
X54340180Y-64200235D01*
X54410923Y-64306110D01*
X54431800Y-64372787D01*
X54413315Y-64440167D01*
X54410923Y-64443890D01*
X54340180Y-64549764D01*
X54340176Y-64549771D01*
X54268527Y-64722748D01*
X54268525Y-64722756D01*
X54232000Y-64906379D01*
X54232000Y-65093620D01*
X54268525Y-65277243D01*
X54268527Y-65277251D01*
X54340176Y-65450228D01*
X54340180Y-65450235D01*
X54410923Y-65556110D01*
X54431800Y-65622787D01*
X54413315Y-65690167D01*
X54410923Y-65693890D01*
X54340180Y-65799764D01*
X54340176Y-65799771D01*
X54268527Y-65972748D01*
X54268525Y-65972756D01*
X54232000Y-66156379D01*
X54232000Y-66343620D01*
X54268525Y-66527243D01*
X54268527Y-66527251D01*
X54340177Y-66700230D01*
X54358041Y-66726965D01*
X54378919Y-66793643D01*
X54360478Y-66860953D01*
X54295498Y-66966300D01*
X54295496Y-66966305D01*
X54242151Y-67127290D01*
X54232000Y-67226647D01*
X54232000Y-67773337D01*
X54232001Y-67773355D01*
X54242150Y-67872707D01*
X54242151Y-67872710D01*
X54295496Y-68033694D01*
X54295501Y-68033705D01*
X54384529Y-68178040D01*
X54384532Y-68178044D01*
X54504455Y-68297967D01*
X54504459Y-68297970D01*
X54648794Y-68386998D01*
X54648797Y-68386999D01*
X54648803Y-68387003D01*
X54809792Y-68440349D01*
X54909155Y-68450500D01*
X55955844Y-68450499D01*
X55955852Y-68450498D01*
X55955855Y-68450498D01*
X56010260Y-68444940D01*
X56055208Y-68440349D01*
X56216197Y-68387003D01*
X56360544Y-68297968D01*
X56480468Y-68178044D01*
X56569503Y-68033697D01*
X56622849Y-67872708D01*
X56633000Y-67773345D01*
X56632999Y-67226656D01*
X56625327Y-67151555D01*
X56622849Y-67127292D01*
X56622848Y-67127289D01*
X56600826Y-67060830D01*
X56569503Y-66966303D01*
X56504521Y-66860952D01*
X56486081Y-66793561D01*
X56506959Y-66726964D01*
X56524822Y-66700231D01*
X56596473Y-66527251D01*
X56633000Y-66343616D01*
X56633000Y-66156384D01*
X56596473Y-65972749D01*
X56524822Y-65799769D01*
X56524819Y-65799764D01*
X56524818Y-65799762D01*
X56454077Y-65693891D01*
X56433199Y-65627213D01*
X56451683Y-65559833D01*
X56454077Y-65556109D01*
X56524818Y-65450237D01*
X56524819Y-65450235D01*
X56524822Y-65450231D01*
X56596473Y-65277251D01*
X56633000Y-65093616D01*
X56633000Y-64906384D01*
X56596473Y-64722749D01*
X56524822Y-64549769D01*
X56524819Y-64549764D01*
X56524818Y-64549762D01*
X56454077Y-64443891D01*
X56433199Y-64377213D01*
X56451683Y-64309833D01*
X56454077Y-64306109D01*
X56524818Y-64200237D01*
X56524819Y-64200235D01*
X56524822Y-64200231D01*
X56596473Y-64027251D01*
X56633000Y-63843616D01*
X56633000Y-63656384D01*
X56596473Y-63472749D01*
X56524822Y-63299769D01*
X56524819Y-63299764D01*
X56524818Y-63299762D01*
X56454077Y-63193891D01*
X56433199Y-63127213D01*
X56451683Y-63059833D01*
X56454077Y-63056109D01*
X56524818Y-62950237D01*
X56524819Y-62950235D01*
X56524822Y-62950231D01*
X56596473Y-62777251D01*
X56633000Y-62593616D01*
X56633000Y-62406384D01*
X56596473Y-62222749D01*
X56524822Y-62049769D01*
X56524821Y-62049768D01*
X56524818Y-62049762D01*
X56420802Y-61894092D01*
X56420799Y-61894088D01*
X56288411Y-61761700D01*
X56288407Y-61761697D01*
X56132737Y-61657681D01*
X56132728Y-61657676D01*
X55959751Y-61586027D01*
X55959743Y-61586025D01*
X55776120Y-61549500D01*
X55776116Y-61549500D01*
X55088884Y-61549500D01*
X55088879Y-61549500D01*
X54905256Y-61586025D01*
X54905248Y-61586027D01*
X54732271Y-61657676D01*
X54732262Y-61657681D01*
X54576592Y-61761697D01*
X54576588Y-61761700D01*
X54444200Y-61894088D01*
X54444197Y-61894092D01*
X54340181Y-62049762D01*
X54340176Y-62049771D01*
X54268527Y-62222748D01*
X54268525Y-62222756D01*
X54232000Y-62406379D01*
X50500500Y-62406379D01*
X50500500Y-54945186D01*
X52679500Y-54945186D01*
X52679500Y-55214813D01*
X52709686Y-55482719D01*
X52709688Y-55482731D01*
X52769684Y-55745594D01*
X52769687Y-55745602D01*
X52858734Y-56000082D01*
X52975714Y-56242994D01*
X52975716Y-56242997D01*
X53119162Y-56471289D01*
X53287266Y-56682085D01*
X53477915Y-56872734D01*
X53688711Y-57040838D01*
X53917003Y-57184284D01*
X54159921Y-57301267D01*
X54351049Y-57368145D01*
X54414397Y-57390312D01*
X54414405Y-57390315D01*
X54414408Y-57390315D01*
X54414409Y-57390316D01*
X54677268Y-57450312D01*
X54945187Y-57480499D01*
X54945188Y-57480500D01*
X54945191Y-57480500D01*
X55214812Y-57480500D01*
X55214812Y-57480499D01*
X55482732Y-57450312D01*
X55745591Y-57390316D01*
X56000079Y-57301267D01*
X56242997Y-57184284D01*
X56471289Y-57040838D01*
X56682085Y-56872734D01*
X56872734Y-56682085D01*
X57040838Y-56471289D01*
X57184284Y-56242997D01*
X57193915Y-56222999D01*
X63503341Y-56222999D01*
X63503341Y-56223000D01*
X63523936Y-56458403D01*
X63523938Y-56458413D01*
X63585094Y-56686655D01*
X63585096Y-56686659D01*
X63585097Y-56686663D01*
X63589000Y-56695032D01*
X63684965Y-56900830D01*
X63684967Y-56900834D01*
X63783000Y-57040838D01*
X63820501Y-57094396D01*
X63820506Y-57094402D01*
X63987597Y-57261493D01*
X63987603Y-57261498D01*
X64173158Y-57391425D01*
X64216783Y-57446002D01*
X64223977Y-57515500D01*
X64192454Y-57577855D01*
X64173158Y-57594575D01*
X63987597Y-57724505D01*
X63820505Y-57891597D01*
X63684965Y-58085169D01*
X63684964Y-58085171D01*
X63585098Y-58299335D01*
X63585094Y-58299344D01*
X63523938Y-58527586D01*
X63523936Y-58527596D01*
X63503341Y-58762999D01*
X63503341Y-58763000D01*
X63523936Y-58998403D01*
X63523938Y-58998413D01*
X63585094Y-59226655D01*
X63585096Y-59226659D01*
X63585097Y-59226663D01*
X63665004Y-59398023D01*
X63684965Y-59440830D01*
X63684967Y-59440834D01*
X63793281Y-59595521D01*
X63820501Y-59634396D01*
X63820506Y-59634402D01*
X63987597Y-59801493D01*
X63987603Y-59801498D01*
X64173158Y-59931425D01*
X64216783Y-59986002D01*
X64223977Y-60055500D01*
X64192454Y-60117855D01*
X64173158Y-60134575D01*
X63987597Y-60264505D01*
X63820505Y-60431597D01*
X63684965Y-60625169D01*
X63684964Y-60625171D01*
X63585098Y-60839335D01*
X63585094Y-60839344D01*
X63523938Y-61067586D01*
X63523936Y-61067596D01*
X63503341Y-61302999D01*
X63503341Y-61303000D01*
X63523936Y-61538403D01*
X63523938Y-61538413D01*
X63585094Y-61766655D01*
X63585096Y-61766659D01*
X63585097Y-61766663D01*
X63645559Y-61896324D01*
X63684965Y-61980830D01*
X63684967Y-61980834D01*
X63733238Y-62049771D01*
X63820501Y-62174396D01*
X63820506Y-62174402D01*
X63987597Y-62341493D01*
X63987603Y-62341498D01*
X64173158Y-62471425D01*
X64216783Y-62526002D01*
X64223977Y-62595500D01*
X64192454Y-62657855D01*
X64173158Y-62674575D01*
X63987597Y-62804505D01*
X63820505Y-62971597D01*
X63684965Y-63165169D01*
X63684964Y-63165171D01*
X63585098Y-63379335D01*
X63585094Y-63379344D01*
X63523938Y-63607586D01*
X63523936Y-63607596D01*
X63503341Y-63842999D01*
X63503341Y-63843000D01*
X63523936Y-64078403D01*
X63523938Y-64078413D01*
X63585094Y-64306655D01*
X63585096Y-64306659D01*
X63585097Y-64306663D01*
X63617995Y-64377213D01*
X63684965Y-64520830D01*
X63684967Y-64520834D01*
X63763157Y-64632500D01*
X63820505Y-64714401D01*
X63987599Y-64881495D01*
X64084384Y-64949265D01*
X64181165Y-65017032D01*
X64181167Y-65017033D01*
X64181170Y-65017035D01*
X64395337Y-65116903D01*
X64623592Y-65178063D01*
X64811918Y-65194539D01*
X64858999Y-65198659D01*
X64859000Y-65198659D01*
X64859001Y-65198659D01*
X64898234Y-65195226D01*
X65094408Y-65178063D01*
X65322663Y-65116903D01*
X65536830Y-65017035D01*
X65730401Y-64881495D01*
X65897495Y-64714401D01*
X66027425Y-64528842D01*
X66082002Y-64485217D01*
X66151500Y-64478023D01*
X66213855Y-64509546D01*
X66230575Y-64528842D01*
X66360500Y-64714395D01*
X66360505Y-64714401D01*
X66527599Y-64881495D01*
X66624384Y-64949265D01*
X66721165Y-65017032D01*
X66721167Y-65017033D01*
X66721170Y-65017035D01*
X66935337Y-65116903D01*
X67163592Y-65178063D01*
X67351918Y-65194539D01*
X67398999Y-65198659D01*
X67399000Y-65198659D01*
X67399001Y-65198659D01*
X67438234Y-65195226D01*
X67634408Y-65178063D01*
X67862663Y-65116903D01*
X68076830Y-65017035D01*
X68270401Y-64881495D01*
X68437495Y-64714401D01*
X68573035Y-64520830D01*
X68672903Y-64306663D01*
X68734063Y-64078408D01*
X68754659Y-63843000D01*
X68734063Y-63607592D01*
X68672903Y-63379337D01*
X68573035Y-63165171D01*
X68567425Y-63157158D01*
X68437494Y-62971597D01*
X68270402Y-62804506D01*
X68270396Y-62804501D01*
X68084842Y-62674575D01*
X68041217Y-62619998D01*
X68034023Y-62550500D01*
X68065546Y-62488145D01*
X68084842Y-62471425D01*
X68177737Y-62406379D01*
X68270401Y-62341495D01*
X68437495Y-62174401D01*
X68573035Y-61980830D01*
X68672903Y-61766663D01*
X68734063Y-61538408D01*
X68754659Y-61303000D01*
X68734063Y-61067592D01*
X68672903Y-60839337D01*
X68573035Y-60625171D01*
X68567425Y-60617158D01*
X68437494Y-60431597D01*
X68270402Y-60264506D01*
X68270396Y-60264501D01*
X68084842Y-60134575D01*
X68041217Y-60079998D01*
X68034023Y-60010500D01*
X68065546Y-59948145D01*
X68084842Y-59931425D01*
X68107026Y-59915891D01*
X68270401Y-59801495D01*
X68437495Y-59634401D01*
X68456264Y-59607596D01*
X70694435Y-59607596D01*
X70694435Y-59607603D01*
X70714630Y-59786849D01*
X70714631Y-59786854D01*
X70774211Y-59957123D01*
X70819436Y-60029097D01*
X70870184Y-60109862D01*
X70997738Y-60237416D01*
X71150478Y-60333389D01*
X71320745Y-60392968D01*
X71320750Y-60392969D01*
X71499996Y-60413165D01*
X71500000Y-60413165D01*
X71500004Y-60413165D01*
X71679249Y-60392969D01*
X71679252Y-60392968D01*
X71679255Y-60392968D01*
X71849522Y-60333389D01*
X71909007Y-60296012D01*
X71976244Y-60277011D01*
X72040953Y-60296012D01*
X72100435Y-60333388D01*
X72270705Y-60392968D01*
X72270710Y-60392969D01*
X72449956Y-60413165D01*
X72449960Y-60413165D01*
X72449964Y-60413165D01*
X72629209Y-60392969D01*
X72629212Y-60392968D01*
X72629215Y-60392968D01*
X72799482Y-60333389D01*
X72952222Y-60237416D01*
X73079776Y-60109862D01*
X73175749Y-59957122D01*
X73235328Y-59786855D01*
X73235329Y-59786849D01*
X73255525Y-59607603D01*
X73255525Y-59607596D01*
X73235329Y-59428350D01*
X73235328Y-59428345D01*
X73175748Y-59258076D01*
X73079775Y-59105337D01*
X72952222Y-58977784D01*
X72799483Y-58881811D01*
X72629214Y-58822231D01*
X72629209Y-58822230D01*
X72449964Y-58802035D01*
X72449956Y-58802035D01*
X72270710Y-58822230D01*
X72270697Y-58822233D01*
X72100439Y-58881809D01*
X72040951Y-58919188D01*
X71973714Y-58938188D01*
X71909009Y-58919188D01*
X71849520Y-58881809D01*
X71679262Y-58822233D01*
X71679249Y-58822230D01*
X71500004Y-58802035D01*
X71499996Y-58802035D01*
X71320750Y-58822230D01*
X71320745Y-58822231D01*
X71150476Y-58881811D01*
X70997737Y-58977784D01*
X70870184Y-59105337D01*
X70774211Y-59258076D01*
X70714631Y-59428345D01*
X70714630Y-59428350D01*
X70694435Y-59607596D01*
X68456264Y-59607596D01*
X68573035Y-59440830D01*
X68672903Y-59226663D01*
X68734063Y-58998408D01*
X68754659Y-58763000D01*
X68734063Y-58527592D01*
X68672903Y-58299337D01*
X68573035Y-58085171D01*
X68567731Y-58077595D01*
X68437494Y-57891597D01*
X68270402Y-57724506D01*
X68270396Y-57724501D01*
X68084842Y-57594575D01*
X68041217Y-57539998D01*
X68034023Y-57470500D01*
X68065546Y-57408145D01*
X68084842Y-57391425D01*
X68107026Y-57375891D01*
X68270401Y-57261495D01*
X68437495Y-57094401D01*
X68573035Y-56900830D01*
X68672903Y-56686663D01*
X68734063Y-56458408D01*
X68754659Y-56223000D01*
X68734063Y-55987592D01*
X68672903Y-55759337D01*
X68573035Y-55545171D01*
X68567425Y-55537158D01*
X68437494Y-55351597D01*
X68270402Y-55184506D01*
X68270396Y-55184501D01*
X68084842Y-55054575D01*
X68041217Y-54999998D01*
X68034023Y-54930500D01*
X68065546Y-54868145D01*
X68084842Y-54851425D01*
X68147436Y-54807596D01*
X70694435Y-54807596D01*
X70694435Y-54807603D01*
X70714630Y-54986849D01*
X70714631Y-54986854D01*
X70774211Y-55157123D01*
X70819798Y-55229673D01*
X70870184Y-55309862D01*
X70997738Y-55437416D01*
X71150478Y-55533389D01*
X71285922Y-55580783D01*
X71320745Y-55592968D01*
X71320750Y-55592969D01*
X71499996Y-55613165D01*
X71500000Y-55613165D01*
X71500004Y-55613165D01*
X71679249Y-55592969D01*
X71679252Y-55592968D01*
X71679255Y-55592968D01*
X71849522Y-55533389D01*
X71909007Y-55496012D01*
X71976244Y-55477011D01*
X72040953Y-55496012D01*
X72100435Y-55533388D01*
X72270705Y-55592968D01*
X72270710Y-55592969D01*
X72449956Y-55613165D01*
X72449960Y-55613165D01*
X72449964Y-55613165D01*
X72629209Y-55592969D01*
X72629212Y-55592968D01*
X72629215Y-55592968D01*
X72799482Y-55533389D01*
X72952222Y-55437416D01*
X73079776Y-55309862D01*
X73175749Y-55157122D01*
X73235328Y-54986855D01*
X73235329Y-54986849D01*
X73255525Y-54807603D01*
X73255525Y-54807596D01*
X73235329Y-54628350D01*
X73235328Y-54628345D01*
X73175748Y-54458076D01*
X73079775Y-54305337D01*
X72952222Y-54177784D01*
X72799483Y-54081811D01*
X72629214Y-54022231D01*
X72629209Y-54022230D01*
X72449964Y-54002035D01*
X72449956Y-54002035D01*
X72270710Y-54022230D01*
X72270697Y-54022233D01*
X72100439Y-54081809D01*
X72040951Y-54119188D01*
X71973714Y-54138188D01*
X71909009Y-54119188D01*
X71849520Y-54081809D01*
X71679262Y-54022233D01*
X71679249Y-54022230D01*
X71500004Y-54002035D01*
X71499996Y-54002035D01*
X71320750Y-54022230D01*
X71320745Y-54022231D01*
X71150476Y-54081811D01*
X70997737Y-54177784D01*
X70870184Y-54305337D01*
X70774211Y-54458076D01*
X70714631Y-54628345D01*
X70714630Y-54628350D01*
X70694435Y-54807596D01*
X68147436Y-54807596D01*
X68270401Y-54721495D01*
X68437495Y-54554401D01*
X68573035Y-54360830D01*
X68672903Y-54146663D01*
X68734063Y-53918408D01*
X68754659Y-53683000D01*
X68734063Y-53447592D01*
X68672903Y-53219337D01*
X68573035Y-53005171D01*
X68552411Y-52975716D01*
X68437494Y-52811597D01*
X68270402Y-52644506D01*
X68270395Y-52644501D01*
X68076834Y-52508967D01*
X68076830Y-52508965D01*
X68076828Y-52508964D01*
X67862663Y-52409097D01*
X67862659Y-52409096D01*
X67862655Y-52409094D01*
X67634413Y-52347938D01*
X67634403Y-52347936D01*
X67399001Y-52327341D01*
X67398999Y-52327341D01*
X67163596Y-52347936D01*
X67163586Y-52347938D01*
X66935344Y-52409094D01*
X66935335Y-52409098D01*
X66721171Y-52508964D01*
X66721169Y-52508965D01*
X66527600Y-52644503D01*
X66405673Y-52766430D01*
X66344350Y-52799914D01*
X66274658Y-52794930D01*
X66218725Y-52753058D01*
X66201810Y-52722081D01*
X66152797Y-52590671D01*
X66152793Y-52590664D01*
X66066547Y-52475455D01*
X66066544Y-52475452D01*
X65951335Y-52389206D01*
X65951328Y-52389202D01*
X65816482Y-52338908D01*
X65816483Y-52338908D01*
X65756883Y-52332501D01*
X65756881Y-52332500D01*
X65756873Y-52332500D01*
X65756864Y-52332500D01*
X63961129Y-52332500D01*
X63961123Y-52332501D01*
X63901516Y-52338908D01*
X63766671Y-52389202D01*
X63766664Y-52389206D01*
X63651455Y-52475452D01*
X63651452Y-52475455D01*
X63565206Y-52590664D01*
X63565202Y-52590671D01*
X63514908Y-52725517D01*
X63508501Y-52785116D01*
X63508500Y-52785135D01*
X63508500Y-54580870D01*
X63508501Y-54580876D01*
X63514908Y-54640483D01*
X63565202Y-54775328D01*
X63565206Y-54775335D01*
X63651452Y-54890544D01*
X63651455Y-54890547D01*
X63766664Y-54976793D01*
X63766671Y-54976797D01*
X63898081Y-55025810D01*
X63954015Y-55067681D01*
X63978432Y-55133145D01*
X63963580Y-55201418D01*
X63942430Y-55229673D01*
X63820503Y-55351600D01*
X63684965Y-55545169D01*
X63684964Y-55545171D01*
X63585098Y-55759335D01*
X63585094Y-55759344D01*
X63523938Y-55987586D01*
X63523936Y-55987596D01*
X63503341Y-56222999D01*
X57193915Y-56222999D01*
X57301267Y-56000079D01*
X57390316Y-55745591D01*
X57450312Y-55482732D01*
X57480500Y-55214809D01*
X57480500Y-54945191D01*
X57450312Y-54677268D01*
X57390316Y-54414409D01*
X57301267Y-54159921D01*
X57184284Y-53917003D01*
X57040838Y-53688711D01*
X56872734Y-53477915D01*
X56682085Y-53287266D01*
X56471289Y-53119162D01*
X56242997Y-52975716D01*
X56242994Y-52975714D01*
X56000082Y-52858734D01*
X55745602Y-52769687D01*
X55745594Y-52769684D01*
X55537029Y-52722081D01*
X55482732Y-52709688D01*
X55482728Y-52709687D01*
X55482719Y-52709686D01*
X55214813Y-52679500D01*
X55214809Y-52679500D01*
X54945191Y-52679500D01*
X54945186Y-52679500D01*
X54677280Y-52709686D01*
X54677268Y-52709688D01*
X54414405Y-52769684D01*
X54414397Y-52769687D01*
X54159917Y-52858734D01*
X53917005Y-52975714D01*
X53688712Y-53119161D01*
X53477915Y-53287265D01*
X53287265Y-53477915D01*
X53119161Y-53688712D01*
X52975714Y-53917005D01*
X52858734Y-54159917D01*
X52769687Y-54414397D01*
X52769684Y-54414405D01*
X52709688Y-54677268D01*
X52709686Y-54677280D01*
X52679500Y-54945186D01*
X50500500Y-54945186D01*
X50500500Y-50624500D01*
X50520185Y-50557461D01*
X50572989Y-50511706D01*
X50624500Y-50500500D01*
X87425900Y-50500500D01*
X87492939Y-50520185D01*
G37*
%TD.AperFunction*%
%TD*%
%TA.AperFunction,Conductor*%
%TO.N,/GPIO10*%
G36*
X72883641Y-69927050D02*
G01*
X72889503Y-69933148D01*
X72999115Y-70195489D01*
X72999142Y-70204444D01*
X72999115Y-70204511D01*
X72889503Y-70466851D01*
X72883151Y-70473163D01*
X72874694Y-70473329D01*
X72740947Y-70424493D01*
X72407687Y-70302806D01*
X72401091Y-70296750D01*
X72400000Y-70291816D01*
X72400000Y-70108183D01*
X72403427Y-70099910D01*
X72407687Y-70097193D01*
X72874697Y-69926669D01*
X72883641Y-69927050D01*
G37*
%TD.AperFunction*%
%TD*%
%TA.AperFunction,Conductor*%
%TO.N,/GPIO10*%
G36*
X61700090Y-90003427D02*
G01*
X61702807Y-90007687D01*
X61873330Y-90474694D01*
X61872949Y-90483641D01*
X61866851Y-90489503D01*
X61604511Y-90599115D01*
X61595556Y-90599142D01*
X61595489Y-90599115D01*
X61333148Y-90489503D01*
X61326836Y-90483151D01*
X61326669Y-90474697D01*
X61497193Y-90007686D01*
X61503249Y-90001091D01*
X61508183Y-90000000D01*
X61691817Y-90000000D01*
X61700090Y-90003427D01*
G37*
%TD.AperFunction*%
%TD*%
%TA.AperFunction,Conductor*%
%TO.N,/GPIO10*%
G36*
X73359339Y-69710812D02*
G01*
X73489187Y-69840660D01*
X73492614Y-69848933D01*
X73491523Y-69853867D01*
X73281877Y-70304670D01*
X73275281Y-70310726D01*
X73266824Y-70310559D01*
X73003815Y-70202563D01*
X72997463Y-70196251D01*
X72997436Y-70196184D01*
X72889440Y-69933175D01*
X72889467Y-69924220D01*
X72895326Y-69918124D01*
X73346134Y-69708475D01*
X73355079Y-69708095D01*
X73359339Y-69710812D01*
G37*
%TD.AperFunction*%
%TD*%
%TA.AperFunction,Conductor*%
%TO.N,/GPIO10*%
G36*
X65300090Y-84003427D02*
G01*
X65302807Y-84007687D01*
X65473330Y-84474694D01*
X65472949Y-84483641D01*
X65466851Y-84489503D01*
X65204511Y-84599115D01*
X65195556Y-84599142D01*
X65195489Y-84599115D01*
X64933148Y-84489503D01*
X64926836Y-84483151D01*
X64926669Y-84474697D01*
X65097193Y-84007686D01*
X65103249Y-84001091D01*
X65108183Y-84000000D01*
X65291817Y-84000000D01*
X65300090Y-84003427D01*
G37*
%TD.AperFunction*%
%TD*%
%TA.AperFunction,Conductor*%
%TO.N,/GPIO10*%
G36*
X65466851Y-84710496D02*
G01*
X65473163Y-84716848D01*
X65473330Y-84725305D01*
X65302807Y-85192313D01*
X65296751Y-85198909D01*
X65291817Y-85200000D01*
X65108183Y-85200000D01*
X65099910Y-85196573D01*
X65097193Y-85192313D01*
X64926669Y-84725302D01*
X64927050Y-84716358D01*
X64933147Y-84710496D01*
X65195490Y-84600883D01*
X65204444Y-84600857D01*
X65466851Y-84710496D01*
G37*
%TD.AperFunction*%
%TD*%
%TA.AperFunction,Conductor*%
%TO.N,GND*%
G36*
X65759616Y-98562867D02*
G01*
X65547484Y-98775999D01*
X65247484Y-98774999D01*
X65320000Y-98206307D01*
X65520000Y-98206307D01*
X65759616Y-98562867D01*
G37*
%TD.AperFunction*%
%TD*%
%TA.AperFunction,Conductor*%
%TO.N,GND*%
G36*
X74714805Y-108922836D02*
G01*
X74600707Y-109200707D01*
X74322836Y-109314805D01*
X74105026Y-108846447D01*
X74246447Y-108705026D01*
X74714805Y-108922836D01*
G37*
%TD.AperFunction*%
%TD*%
%TA.AperFunction,Conductor*%
%TO.N,GND*%
G36*
X57894974Y-105646447D02*
G01*
X57677164Y-106114805D01*
X57399293Y-106000707D01*
X57285195Y-105722836D01*
X57753553Y-105505026D01*
X57894974Y-105646447D01*
G37*
%TD.AperFunction*%
%TD*%
%TA.AperFunction,Conductor*%
%TO.N,GND*%
G36*
X62800000Y-113700000D02*
G01*
X62800000Y-113900000D01*
X62314805Y-114077164D01*
X62199000Y-113800000D01*
X62314805Y-113522836D01*
X62800000Y-113700000D01*
G37*
%TD.AperFunction*%
%TD*%
%TA.AperFunction,Conductor*%
%TO.N,GND*%
G36*
X74801000Y-106000000D02*
G01*
X74685195Y-106277164D01*
X74200000Y-106100000D01*
X74200000Y-105900000D01*
X74685195Y-105722836D01*
X74801000Y-106000000D01*
G37*
%TD.AperFunction*%
%TD*%
%TA.AperFunction,Conductor*%
%TO.N,GND*%
G36*
X65824648Y-98889804D02*
G01*
X65670710Y-99279289D01*
X65529289Y-99420710D01*
X65270320Y-98889804D01*
X65546777Y-98774292D01*
X65824648Y-98889804D01*
G37*
%TD.AperFunction*%
%TD*%
%TA.AperFunction,Conductor*%
%TO.N,/PGD1*%
G36*
X62066851Y-72110496D02*
G01*
X62073163Y-72116848D01*
X62073330Y-72125305D01*
X61902807Y-72592313D01*
X61896751Y-72598909D01*
X61891817Y-72600000D01*
X61708183Y-72600000D01*
X61699910Y-72596573D01*
X61697193Y-72592313D01*
X61526669Y-72125302D01*
X61527050Y-72116358D01*
X61533147Y-72110496D01*
X61795490Y-72000883D01*
X61804444Y-72000857D01*
X62066851Y-72110496D01*
G37*
%TD.AperFunction*%
%TD*%
%TA.AperFunction,Conductor*%
%TO.N,/PGD1*%
G36*
X61900090Y-83603427D02*
G01*
X61902807Y-83607687D01*
X62073330Y-84074694D01*
X62072949Y-84083641D01*
X62066851Y-84089503D01*
X61804511Y-84199115D01*
X61795556Y-84199142D01*
X61795489Y-84199115D01*
X61533148Y-84089503D01*
X61526836Y-84083151D01*
X61526669Y-84074697D01*
X61697193Y-83607686D01*
X61703249Y-83601091D01*
X61708183Y-83600000D01*
X61891817Y-83600000D01*
X61900090Y-83603427D01*
G37*
%TD.AperFunction*%
%TD*%
%TA.AperFunction,Conductor*%
%TO.N,/PGC2*%
G36*
X62192313Y-95846123D02*
G01*
X62198909Y-95852179D01*
X62200000Y-95857113D01*
X62200000Y-96040746D01*
X62196573Y-96049019D01*
X62192313Y-96051736D01*
X61725305Y-96222260D01*
X61716358Y-96221879D01*
X61710496Y-96215781D01*
X61600883Y-95953439D01*
X61600857Y-95944486D01*
X61600862Y-95944472D01*
X61710496Y-95682077D01*
X61716848Y-95675766D01*
X61725302Y-95675599D01*
X62192313Y-95846123D01*
G37*
%TD.AperFunction*%
%TD*%
%TA.AperFunction,Conductor*%
%TO.N,/PGC2*%
G36*
X64883641Y-96127050D02*
G01*
X64889503Y-96133148D01*
X64999115Y-96395489D01*
X64999142Y-96404444D01*
X64999115Y-96404511D01*
X64889503Y-96666851D01*
X64883151Y-96673163D01*
X64874694Y-96673329D01*
X64740947Y-96624493D01*
X64407687Y-96502806D01*
X64401091Y-96496750D01*
X64400000Y-96491816D01*
X64400000Y-96308183D01*
X64403427Y-96299910D01*
X64407687Y-96297193D01*
X64874697Y-96126669D01*
X64883641Y-96127050D01*
G37*
%TD.AperFunction*%
%TD*%
%TA.AperFunction,Conductor*%
%TO.N,/PGC3*%
G36*
X64631122Y-98252048D02*
G01*
X64636984Y-98258146D01*
X64746596Y-98520487D01*
X64746623Y-98529442D01*
X64746596Y-98529509D01*
X64636984Y-98791849D01*
X64630632Y-98798161D01*
X64622175Y-98798327D01*
X64488428Y-98749491D01*
X64155168Y-98627804D01*
X64148572Y-98621748D01*
X64147481Y-98616814D01*
X64147481Y-98433181D01*
X64150908Y-98424908D01*
X64155168Y-98422191D01*
X64622178Y-98251667D01*
X64631122Y-98252048D01*
G37*
%TD.AperFunction*%
%TD*%
%TA.AperFunction,Conductor*%
%TO.N,/PGC3*%
G36*
X62575866Y-98422996D02*
G01*
X62583222Y-98428100D01*
X62585081Y-98434428D01*
X62585081Y-98617995D01*
X62581654Y-98626268D01*
X62578910Y-98628306D01*
X62126162Y-98871074D01*
X62117251Y-98871964D01*
X62110322Y-98866292D01*
X62109837Y-98865274D01*
X62000883Y-98604509D01*
X62000857Y-98595556D01*
X62000862Y-98595542D01*
X62111049Y-98331824D01*
X62117400Y-98325514D01*
X62124325Y-98324904D01*
X62575866Y-98422996D01*
G37*
%TD.AperFunction*%
%TD*%
%TA.AperFunction,Conductor*%
%TO.N,/PGC3*%
G36*
X58889304Y-98711505D02*
G01*
X58895492Y-98717748D01*
X59004970Y-98979769D01*
X59004997Y-98988724D01*
X59004970Y-98988791D01*
X58895244Y-99251405D01*
X58888892Y-99257717D01*
X58880733Y-99257988D01*
X58416967Y-99102674D01*
X58410210Y-99096798D01*
X58408982Y-99091580D01*
X58408982Y-98907920D01*
X58412409Y-98899647D01*
X58416333Y-98897058D01*
X58880353Y-98711396D01*
X58889304Y-98711505D01*
G37*
%TD.AperFunction*%
%TD*%
%TA.AperFunction,Conductor*%
%TO.N,/MCLR3*%
G36*
X66664787Y-74635494D02*
G01*
X66671098Y-74641845D01*
X66671265Y-74650302D01*
X66615340Y-74803462D01*
X66613193Y-74807111D01*
X66586813Y-74837556D01*
X66574623Y-74851625D01*
X66574622Y-74851626D01*
X66574621Y-74851628D01*
X66514834Y-74982542D01*
X66495796Y-75114963D01*
X66491227Y-75122664D01*
X66484215Y-75124998D01*
X66306119Y-75124998D01*
X66297846Y-75121571D01*
X66295129Y-75117311D01*
X66294272Y-75114963D01*
X66124605Y-74650300D01*
X66124986Y-74641356D01*
X66131083Y-74635494D01*
X66393426Y-74525881D01*
X66402380Y-74525855D01*
X66664787Y-74635494D01*
G37*
%TD.AperFunction*%
%TD*%
%TA.AperFunction,Conductor*%
%TO.N,/MCLR4*%
G36*
X67275251Y-75014682D02*
G01*
X67281563Y-75021034D01*
X67281581Y-75021079D01*
X67305516Y-75080061D01*
X67306256Y-75082795D01*
X67314834Y-75142455D01*
X67314835Y-75142457D01*
X67374623Y-75273373D01*
X67382267Y-75282195D01*
X67390921Y-75292183D01*
X67392919Y-75295444D01*
X67493467Y-75543213D01*
X67493403Y-75552168D01*
X67487026Y-75558454D01*
X67482626Y-75559313D01*
X67302142Y-75559313D01*
X67297997Y-75558554D01*
X66896461Y-75406430D01*
X66889938Y-75400295D01*
X66889665Y-75391344D01*
X66889779Y-75391053D01*
X66998141Y-75128501D01*
X67004460Y-75122166D01*
X67266297Y-75014655D01*
X67275251Y-75014682D01*
G37*
%TD.AperFunction*%
%TD*%
%TA.AperFunction,Conductor*%
%TO.N,/PGC4*%
G36*
X66100090Y-95803427D02*
G01*
X66102807Y-95807687D01*
X66273330Y-96274694D01*
X66272949Y-96283641D01*
X66266851Y-96289503D01*
X66004511Y-96399115D01*
X65995556Y-96399142D01*
X65995489Y-96399115D01*
X65733148Y-96289503D01*
X65726836Y-96283151D01*
X65726669Y-96274697D01*
X65897193Y-95807686D01*
X65903249Y-95801091D01*
X65908183Y-95800000D01*
X66091817Y-95800000D01*
X66100090Y-95803427D01*
G37*
%TD.AperFunction*%
%TD*%
%TA.AperFunction,Conductor*%
%TO.N,/PGC4*%
G36*
X65875251Y-93689684D02*
G01*
X65881563Y-93696036D01*
X65881581Y-93696081D01*
X66093467Y-94218216D01*
X66093403Y-94227170D01*
X66087025Y-94233456D01*
X66082626Y-94234315D01*
X65902142Y-94234315D01*
X65897997Y-94233556D01*
X65496461Y-94081432D01*
X65489938Y-94075297D01*
X65489665Y-94066346D01*
X65489779Y-94066055D01*
X65598141Y-93803503D01*
X65604460Y-93797168D01*
X65866297Y-93689657D01*
X65875251Y-93689684D01*
G37*
%TD.AperFunction*%
%TD*%
%TA.AperFunction,Conductor*%
%TO.N,/PGC5*%
G36*
X66676484Y-96627919D02*
G01*
X66878533Y-96829020D01*
X66881979Y-96837285D01*
X66881979Y-96837352D01*
X66881037Y-97120086D01*
X66877583Y-97128348D01*
X66869298Y-97131747D01*
X66868637Y-97131726D01*
X66350064Y-97100659D01*
X66342011Y-97096744D01*
X66339064Y-97088980D01*
X66339064Y-96905419D01*
X66342491Y-96897146D01*
X66343197Y-96896495D01*
X66660665Y-96627287D01*
X66669189Y-96624551D01*
X66676484Y-96627919D01*
G37*
%TD.AperFunction*%
%TD*%
%TA.AperFunction,Conductor*%
%TO.N,/PGC5*%
G36*
X62592313Y-97697193D02*
G01*
X62598909Y-97703249D01*
X62600000Y-97708183D01*
X62600000Y-97891816D01*
X62596573Y-97900089D01*
X62592313Y-97902806D01*
X62125305Y-98073330D01*
X62116358Y-98072949D01*
X62110496Y-98066851D01*
X62000883Y-97804509D01*
X62000857Y-97795556D01*
X62000862Y-97795542D01*
X62110496Y-97533147D01*
X62116848Y-97526836D01*
X62125302Y-97526669D01*
X62592313Y-97697193D01*
G37*
%TD.AperFunction*%
%TD*%
%TA.AperFunction,Conductor*%
%TO.N,/MCLR5*%
G36*
X67804484Y-75000873D02*
G01*
X68061569Y-75108289D01*
X68066851Y-75110496D01*
X68073163Y-75116848D01*
X68073330Y-75125305D01*
X67902807Y-75592313D01*
X67896751Y-75598909D01*
X67891817Y-75600000D01*
X67712200Y-75600000D01*
X67703927Y-75596573D01*
X67700500Y-75588300D01*
X67700500Y-75485433D01*
X67680022Y-75409010D01*
X67680020Y-75409006D01*
X67640462Y-75340490D01*
X67640458Y-75340485D01*
X67629538Y-75329565D01*
X67626970Y-75325691D01*
X67583344Y-75218187D01*
X67583338Y-75218173D01*
X67583337Y-75218170D01*
X67568145Y-75188084D01*
X67566147Y-75184823D01*
X67550767Y-75163810D01*
X67549569Y-75161766D01*
X67532297Y-75123945D01*
X67531978Y-75114996D01*
X67538080Y-75108442D01*
X67538384Y-75108308D01*
X67795490Y-75000883D01*
X67804443Y-75000857D01*
X67804484Y-75000873D01*
G37*
%TD.AperFunction*%
%TD*%
%TA.AperFunction,Conductor*%
%TO.N,/PGD5*%
G36*
X61096073Y-97867469D02*
G01*
X61099500Y-97875742D01*
X61099500Y-98372619D01*
X61096073Y-98380892D01*
X61087839Y-98384319D01*
X60804885Y-98385263D01*
X60796600Y-98381864D01*
X60796553Y-98381817D01*
X60795632Y-98380892D01*
X60596155Y-98180474D01*
X60592748Y-98172192D01*
X60596192Y-98163931D01*
X60896583Y-97867415D01*
X60904802Y-97864042D01*
X61087800Y-97864042D01*
X61096073Y-97867469D01*
G37*
%TD.AperFunction*%
%TD*%
%TA.AperFunction,Conductor*%
%TO.N,/PGD5*%
G36*
X66390377Y-89235497D02*
G01*
X66396689Y-89241849D01*
X66396856Y-89250306D01*
X66226333Y-89717314D01*
X66220277Y-89723910D01*
X66215343Y-89725001D01*
X66031709Y-89725001D01*
X66023436Y-89721574D01*
X66020719Y-89717314D01*
X65850195Y-89250303D01*
X65850576Y-89241359D01*
X65856673Y-89235497D01*
X66119016Y-89125884D01*
X66127970Y-89125858D01*
X66390377Y-89235497D01*
G37*
%TD.AperFunction*%
%TD*%
%TA.AperFunction,Conductor*%
%TO.N,/MCLR6*%
G36*
X70103398Y-81731689D02*
G01*
X70112600Y-81740934D01*
X70303844Y-81933080D01*
X70307251Y-81941362D01*
X70303805Y-81949627D01*
X70303770Y-81949661D01*
X70003417Y-82246140D01*
X69995198Y-82249513D01*
X69812200Y-82249513D01*
X69803927Y-82246086D01*
X69800500Y-82237813D01*
X69800500Y-81740934D01*
X69803927Y-81732661D01*
X69812159Y-81729234D01*
X70095114Y-81728291D01*
X70103398Y-81731689D01*
G37*
%TD.AperFunction*%
%TD*%
%TA.AperFunction,Conductor*%
%TO.N,/MCLR6*%
G36*
X73159339Y-103710812D02*
G01*
X73289187Y-103840660D01*
X73292614Y-103848933D01*
X73291523Y-103853867D01*
X73081877Y-104304670D01*
X73075281Y-104310726D01*
X73066824Y-104310559D01*
X72803815Y-104202563D01*
X72797463Y-104196251D01*
X72797436Y-104196184D01*
X72689440Y-103933175D01*
X72689467Y-103924220D01*
X72695326Y-103918124D01*
X73146134Y-103708475D01*
X73155079Y-103708095D01*
X73159339Y-103710812D01*
G37*
%TD.AperFunction*%
%TD*%
%TA.AperFunction,Conductor*%
%TO.N,/PGD6*%
G36*
X71496507Y-92489467D02*
G01*
X71502605Y-92495329D01*
X71712251Y-92946132D01*
X71712632Y-92955079D01*
X71709915Y-92959339D01*
X71580067Y-93089187D01*
X71571794Y-93092614D01*
X71566860Y-93091523D01*
X71273464Y-92955079D01*
X71116056Y-92881876D01*
X71110001Y-92875281D01*
X71110167Y-92866825D01*
X71218164Y-92603814D01*
X71224474Y-92597464D01*
X71487553Y-92489440D01*
X71496507Y-92489467D01*
G37*
%TD.AperFunction*%
%TD*%
%TA.AperFunction,Conductor*%
%TO.N,/PGD6*%
G36*
X71302003Y-100566444D02*
G01*
X71703538Y-100718567D01*
X71710061Y-100724702D01*
X71710334Y-100733653D01*
X71710208Y-100733972D01*
X71601860Y-100996493D01*
X71595536Y-101002833D01*
X71595489Y-101002852D01*
X71333703Y-101110342D01*
X71324748Y-101110315D01*
X71318436Y-101103963D01*
X71318418Y-101103918D01*
X71106533Y-100581784D01*
X71106597Y-100572830D01*
X71112975Y-100566544D01*
X71117374Y-100565685D01*
X71297858Y-100565685D01*
X71302003Y-100566444D01*
G37*
%TD.AperFunction*%
%TD*%
%TA.AperFunction,Conductor*%
%TO.N,/PGC8*%
G36*
X65233174Y-104389439D02*
G01*
X65396804Y-104456629D01*
X65496184Y-104497436D01*
X65502536Y-104503748D01*
X65502563Y-104503815D01*
X65610559Y-104766824D01*
X65610532Y-104775779D01*
X65604670Y-104781877D01*
X65153867Y-104991523D01*
X65144920Y-104991904D01*
X65140660Y-104989187D01*
X65010812Y-104859339D01*
X65007385Y-104851066D01*
X65008474Y-104846136D01*
X65218124Y-104395327D01*
X65224718Y-104389273D01*
X65233174Y-104389439D01*
G37*
%TD.AperFunction*%
%TD*%
%TA.AperFunction,Conductor*%
%TO.N,/MCLR8*%
G36*
X69766851Y-79610496D02*
G01*
X69773163Y-79616848D01*
X69773330Y-79625305D01*
X69602807Y-80092313D01*
X69596751Y-80098909D01*
X69591817Y-80100000D01*
X69408183Y-80100000D01*
X69399910Y-80096573D01*
X69397193Y-80092313D01*
X69226669Y-79625302D01*
X69227050Y-79616358D01*
X69233147Y-79610496D01*
X69495490Y-79500883D01*
X69504444Y-79500857D01*
X69766851Y-79610496D01*
G37*
%TD.AperFunction*%
%TD*%
%TA.AperFunction,Conductor*%
%TO.N,/PGD8*%
G36*
X67315379Y-89159024D02*
G01*
X67321691Y-89165376D01*
X67321858Y-89173833D01*
X67151335Y-89640841D01*
X67145279Y-89647437D01*
X67140345Y-89648528D01*
X66956711Y-89648528D01*
X66948438Y-89645101D01*
X66945721Y-89640841D01*
X66775197Y-89173830D01*
X66775578Y-89164886D01*
X66781675Y-89159024D01*
X67044018Y-89049411D01*
X67052972Y-89049385D01*
X67315379Y-89159024D01*
G37*
%TD.AperFunction*%
%TD*%
%TA.AperFunction,Conductor*%
%TO.N,/GPIO23*%
G36*
X74066851Y-95510496D02*
G01*
X74073163Y-95516848D01*
X74073330Y-95525305D01*
X73902807Y-95992313D01*
X73896751Y-95998909D01*
X73891817Y-96000000D01*
X73708183Y-96000000D01*
X73699910Y-95996573D01*
X73697193Y-95992313D01*
X73526669Y-95525302D01*
X73527050Y-95516358D01*
X73533147Y-95510496D01*
X73795490Y-95400883D01*
X73804444Y-95400857D01*
X74066851Y-95510496D01*
G37*
%TD.AperFunction*%
%TD*%
%TA.AperFunction,Conductor*%
%TO.N,/GPIO23*%
G36*
X72159339Y-98910812D02*
G01*
X72289187Y-99040660D01*
X72292614Y-99048933D01*
X72291523Y-99053867D01*
X72081877Y-99504670D01*
X72075281Y-99510726D01*
X72066824Y-99510559D01*
X71803815Y-99402563D01*
X71797463Y-99396251D01*
X71797436Y-99396184D01*
X71689440Y-99133175D01*
X71689467Y-99124220D01*
X71695328Y-99118123D01*
X71719090Y-99107072D01*
X71730879Y-99101591D01*
X71735812Y-99100500D01*
X71839564Y-99100500D01*
X71839564Y-99100499D01*
X71877775Y-99090260D01*
X71915987Y-99080022D01*
X71915991Y-99080020D01*
X71969835Y-99048933D01*
X71984511Y-99040460D01*
X72040460Y-98984511D01*
X72089269Y-98935701D01*
X72092596Y-98933373D01*
X72146134Y-98908475D01*
X72155079Y-98908095D01*
X72159339Y-98910812D01*
G37*
%TD.AperFunction*%
%TD*%
%TA.AperFunction,Conductor*%
%TO.N,/GPIO22*%
G36*
X71859339Y-82010812D02*
G01*
X71989187Y-82140660D01*
X71992614Y-82148933D01*
X71991523Y-82153867D01*
X71781877Y-82604670D01*
X71775281Y-82610726D01*
X71766824Y-82610559D01*
X71503815Y-82502563D01*
X71497463Y-82496251D01*
X71497436Y-82496184D01*
X71389440Y-82233175D01*
X71389467Y-82224220D01*
X71395326Y-82218124D01*
X71846134Y-82008475D01*
X71855079Y-82008095D01*
X71859339Y-82010812D01*
G37*
%TD.AperFunction*%
%TD*%
%TA.AperFunction,Conductor*%
%TO.N,/GPIO27*%
G36*
X74050572Y-72212813D02*
G01*
X74054114Y-72215241D01*
X74183983Y-72345110D01*
X74187410Y-72353383D01*
X74186004Y-72358943D01*
X73957900Y-72781279D01*
X73950954Y-72786930D01*
X73943162Y-72786542D01*
X73679550Y-72678298D01*
X73673198Y-72671986D01*
X73673171Y-72671919D01*
X73565466Y-72409618D01*
X73565493Y-72400663D01*
X73571845Y-72394351D01*
X73572043Y-72394271D01*
X74041620Y-72212602D01*
X74050572Y-72212813D01*
G37*
%TD.AperFunction*%
%TD*%
%TA.AperFunction,Conductor*%
%TO.N,/GPIO18*%
G36*
X64503417Y-77283135D02*
G01*
X64803770Y-77579614D01*
X64807251Y-77587864D01*
X64803878Y-77596159D01*
X64803844Y-77596194D01*
X64603446Y-77797537D01*
X64595181Y-77800983D01*
X64595114Y-77800983D01*
X64311661Y-77800038D01*
X64303399Y-77796584D01*
X64300000Y-77788338D01*
X64300000Y-77291462D01*
X64303427Y-77283189D01*
X64311700Y-77279762D01*
X64495198Y-77279762D01*
X64503417Y-77283135D01*
G37*
%TD.AperFunction*%
%TD*%
%TA.AperFunction,Conductor*%
%TO.N,/GPIO17*%
G36*
X63266848Y-80110496D02*
G01*
X63273160Y-80116848D01*
X63273327Y-80125305D01*
X63102804Y-80592313D01*
X63096748Y-80598909D01*
X63091814Y-80600000D01*
X62908180Y-80600000D01*
X62899907Y-80596573D01*
X62897190Y-80592313D01*
X62726666Y-80125302D01*
X62727047Y-80116358D01*
X62733144Y-80110496D01*
X62995487Y-80000883D01*
X63004441Y-80000857D01*
X63266848Y-80110496D01*
G37*
%TD.AperFunction*%
%TD*%
%TA.AperFunction,Conductor*%
%TO.N,/GPIO17*%
G36*
X62666851Y-71351547D02*
G01*
X62673163Y-71357899D01*
X62673330Y-71366356D01*
X62502807Y-71833364D01*
X62496751Y-71839960D01*
X62491817Y-71841051D01*
X62308183Y-71841051D01*
X62299910Y-71837624D01*
X62297193Y-71833364D01*
X62126669Y-71366353D01*
X62127050Y-71357409D01*
X62133147Y-71351547D01*
X62395490Y-71241934D01*
X62404444Y-71241908D01*
X62666851Y-71351547D01*
G37*
%TD.AperFunction*%
%TD*%
%TA.AperFunction,Conductor*%
%TO.N,/GPIO17*%
G36*
X60700090Y-90003427D02*
G01*
X60702807Y-90007687D01*
X60873330Y-90474694D01*
X60872949Y-90483641D01*
X60866851Y-90489503D01*
X60604511Y-90599115D01*
X60595556Y-90599142D01*
X60595489Y-90599115D01*
X60333148Y-90489503D01*
X60326836Y-90483151D01*
X60326669Y-90474697D01*
X60497193Y-90007686D01*
X60503249Y-90001091D01*
X60508183Y-90000000D01*
X60691817Y-90000000D01*
X60700090Y-90003427D01*
G37*
%TD.AperFunction*%
%TD*%
%TA.AperFunction,Conductor*%
%TO.N,/GPIO17*%
G36*
X63100087Y-79403427D02*
G01*
X63102804Y-79407687D01*
X63273327Y-79874694D01*
X63272946Y-79883641D01*
X63266848Y-79889503D01*
X63004508Y-79999115D01*
X62995553Y-79999142D01*
X62995486Y-79999115D01*
X62733145Y-79889503D01*
X62726833Y-79883151D01*
X62726666Y-79874697D01*
X62897190Y-79407686D01*
X62903246Y-79401091D01*
X62908180Y-79400000D01*
X63091814Y-79400000D01*
X63100087Y-79403427D01*
G37*
%TD.AperFunction*%
%TD*%
%TA.AperFunction,Conductor*%
%TO.N,/GPIO24*%
G36*
X70474245Y-88135298D02*
G01*
X70475675Y-88137033D01*
X70706762Y-88480243D01*
X70708540Y-88489020D01*
X70705350Y-88495032D01*
X70503446Y-88697888D01*
X70495181Y-88701334D01*
X70495114Y-88701334D01*
X70213235Y-88700394D01*
X70204973Y-88696940D01*
X70201574Y-88688655D01*
X70201666Y-88687230D01*
X70270900Y-88142096D01*
X70275342Y-88134321D01*
X70282507Y-88131871D01*
X70465972Y-88131871D01*
X70474245Y-88135298D01*
G37*
%TD.AperFunction*%
%TD*%
%TA.AperFunction,Conductor*%
%TO.N,VDD*%
G36*
X68075504Y-98408400D02*
G01*
X68078014Y-98412133D01*
X68272611Y-98874381D01*
X68272663Y-98883336D01*
X68266368Y-98889704D01*
X68266339Y-98889717D01*
X68004511Y-98999115D01*
X67995556Y-98999142D01*
X67995489Y-98999115D01*
X67732711Y-98889321D01*
X67726399Y-98882969D01*
X67726069Y-98874991D01*
X67726263Y-98874381D01*
X67872413Y-98413139D01*
X67878178Y-98406287D01*
X67883566Y-98404973D01*
X68067231Y-98404973D01*
X68075504Y-98408400D01*
G37*
%TD.AperFunction*%
%TD*%
%TA.AperFunction,Conductor*%
%TO.N,VDD*%
G36*
X73602178Y-99199910D02*
G01*
X73864721Y-99309606D01*
X73871033Y-99315958D01*
X73871006Y-99324913D01*
X73870262Y-99326389D01*
X73603402Y-99774396D01*
X73596224Y-99779751D01*
X73593350Y-99780109D01*
X73409856Y-99780109D01*
X73401583Y-99776682D01*
X73398326Y-99770397D01*
X73321787Y-99326389D01*
X73302351Y-99213639D01*
X73304323Y-99204906D01*
X73311893Y-99200123D01*
X73313831Y-99199953D01*
X73597636Y-99199007D01*
X73602178Y-99199910D01*
G37*
%TD.AperFunction*%
%TD*%
%TA.AperFunction,Conductor*%
%TO.N,VDD*%
G36*
X58759339Y-106110812D02*
G01*
X58889187Y-106240660D01*
X58892614Y-106248933D01*
X58891523Y-106253867D01*
X58681877Y-106704670D01*
X58675281Y-106710726D01*
X58666824Y-106710559D01*
X58403815Y-106602563D01*
X58397463Y-106596251D01*
X58397436Y-106596184D01*
X58289440Y-106333175D01*
X58289467Y-106324220D01*
X58295326Y-106318124D01*
X58746134Y-106108475D01*
X58755079Y-106108095D01*
X58759339Y-106110812D01*
G37*
%TD.AperFunction*%
%TD*%
%TA.AperFunction,Conductor*%
%TO.N,VDD*%
G36*
X65702003Y-112766444D02*
G01*
X66103538Y-112918567D01*
X66110061Y-112924702D01*
X66110334Y-112933653D01*
X66110208Y-112933972D01*
X66001860Y-113196493D01*
X65995536Y-113202833D01*
X65995489Y-113202852D01*
X65733703Y-113310342D01*
X65724748Y-113310315D01*
X65718436Y-113303963D01*
X65718418Y-113303918D01*
X65506533Y-112781784D01*
X65506597Y-112772830D01*
X65512975Y-112766544D01*
X65517374Y-112765685D01*
X65697858Y-112765685D01*
X65702003Y-112766444D01*
G37*
%TD.AperFunction*%
%TD*%
%TA.AperFunction,Conductor*%
%TO.N,VDD*%
G36*
X66266851Y-113310496D02*
G01*
X66273163Y-113316848D01*
X66273330Y-113325305D01*
X66102807Y-113792313D01*
X66096751Y-113798909D01*
X66091817Y-113800000D01*
X65908183Y-113800000D01*
X65899910Y-113796573D01*
X65897193Y-113792313D01*
X65726669Y-113325302D01*
X65727050Y-113316358D01*
X65733147Y-113310496D01*
X65995490Y-113200883D01*
X66004444Y-113200857D01*
X66266851Y-113310496D01*
G37*
%TD.AperFunction*%
%TD*%
%TA.AperFunction,Conductor*%
%TO.N,VDD*%
G36*
X66480228Y-98168300D02*
G01*
X66482879Y-98172383D01*
X66579604Y-98424658D01*
X66661333Y-98637823D01*
X66661095Y-98646775D01*
X66654919Y-98652808D01*
X66392747Y-98762350D01*
X66383792Y-98762377D01*
X66383725Y-98762350D01*
X66121241Y-98652678D01*
X66114929Y-98646326D01*
X66114707Y-98638024D01*
X66277261Y-98172714D01*
X66283224Y-98166034D01*
X66288306Y-98164873D01*
X66471955Y-98164873D01*
X66480228Y-98168300D01*
G37*
%TD.AperFunction*%
%TD*%
%TA.AperFunction,Conductor*%
%TO.N,VDD*%
G36*
X66655291Y-98873816D02*
G01*
X66661603Y-98880168D01*
X66661849Y-98888403D01*
X66502709Y-99352986D01*
X66496786Y-99359703D01*
X66491640Y-99360895D01*
X66307986Y-99360895D01*
X66299713Y-99357468D01*
X66297090Y-99353458D01*
X66115239Y-98888690D01*
X66115416Y-98879737D01*
X66121624Y-98873631D01*
X66383726Y-98764118D01*
X66392680Y-98764092D01*
X66655291Y-98873816D01*
G37*
%TD.AperFunction*%
%TD*%
%TA.AperFunction,Conductor*%
%TO.N,/GPIO2*%
G36*
X73300090Y-102354900D02*
G01*
X73302807Y-102359160D01*
X73473330Y-102826167D01*
X73472949Y-102835114D01*
X73466851Y-102840976D01*
X73204511Y-102950588D01*
X73195556Y-102950615D01*
X73195489Y-102950588D01*
X72933148Y-102840976D01*
X72926836Y-102834624D01*
X72926669Y-102826170D01*
X73097193Y-102359159D01*
X73103249Y-102352564D01*
X73108183Y-102351473D01*
X73291817Y-102351473D01*
X73300090Y-102354900D01*
G37*
%TD.AperFunction*%
%TD*%
%TA.AperFunction,Conductor*%
%TO.N,/GPIO3*%
G36*
X68688339Y-82324226D02*
G01*
X68696601Y-82327680D01*
X68700000Y-82335926D01*
X68700000Y-82832803D01*
X68696573Y-82841076D01*
X68688300Y-82844503D01*
X68504802Y-82844503D01*
X68496583Y-82841130D01*
X68472417Y-82817276D01*
X68196228Y-82544649D01*
X68192748Y-82536400D01*
X68196121Y-82528105D01*
X68396555Y-82326726D01*
X68404817Y-82323281D01*
X68688339Y-82324226D01*
G37*
%TD.AperFunction*%
%TD*%
%TA.AperFunction,Conductor*%
%TO.N,/GPIO3*%
G36*
X63900090Y-76403427D02*
G01*
X63902807Y-76407687D01*
X64073330Y-76874694D01*
X64072949Y-76883641D01*
X64066851Y-76889503D01*
X63804511Y-76999115D01*
X63795556Y-76999142D01*
X63795489Y-76999115D01*
X63533148Y-76889503D01*
X63526836Y-76883151D01*
X63526669Y-76874697D01*
X63697193Y-76407686D01*
X63703249Y-76401091D01*
X63708183Y-76400000D01*
X63891817Y-76400000D01*
X63900090Y-76403427D01*
G37*
%TD.AperFunction*%
%TD*%
%TA.AperFunction,Conductor*%
%TO.N,/dspic/B2*%
G36*
X57675779Y-109138217D02*
G01*
X57681877Y-109144079D01*
X57891523Y-109594882D01*
X57891904Y-109603829D01*
X57889187Y-109608089D01*
X57759339Y-109737937D01*
X57751066Y-109741364D01*
X57746132Y-109740273D01*
X57452736Y-109603829D01*
X57295328Y-109530626D01*
X57289273Y-109524031D01*
X57289439Y-109515575D01*
X57397436Y-109252564D01*
X57403746Y-109246214D01*
X57666825Y-109138190D01*
X57675779Y-109138217D01*
G37*
%TD.AperFunction*%
%TD*%
%TA.AperFunction,Conductor*%
%TO.N,/dspic/B3*%
G36*
X61466851Y-107310496D02*
G01*
X61473163Y-107316848D01*
X61473330Y-107325305D01*
X61302807Y-107792313D01*
X61296751Y-107798909D01*
X61291817Y-107800000D01*
X61108183Y-107800000D01*
X61099910Y-107796573D01*
X61097193Y-107792313D01*
X60926669Y-107325302D01*
X60927050Y-107316358D01*
X60933147Y-107310496D01*
X61195490Y-107200883D01*
X61204444Y-107200857D01*
X61466851Y-107310496D01*
G37*
%TD.AperFunction*%
%TD*%
%TA.AperFunction,Conductor*%
%TO.N,/dspic/B4*%
G36*
X54333174Y-70489439D02*
G01*
X54496804Y-70556629D01*
X54596184Y-70597436D01*
X54602536Y-70603748D01*
X54602563Y-70603815D01*
X54710559Y-70866824D01*
X54710532Y-70875779D01*
X54704670Y-70881877D01*
X54253867Y-71091523D01*
X54244920Y-71091904D01*
X54240660Y-71089187D01*
X54110812Y-70959339D01*
X54107385Y-70951066D01*
X54108474Y-70946136D01*
X54318124Y-70495327D01*
X54324718Y-70489273D01*
X54333174Y-70489439D01*
G37*
%TD.AperFunction*%
%TD*%
%TA.AperFunction,Conductor*%
%TO.N,/dspic/B4*%
G36*
X61700090Y-102803427D02*
G01*
X61702807Y-102807687D01*
X61873330Y-103274694D01*
X61872949Y-103283641D01*
X61866851Y-103289503D01*
X61604511Y-103399115D01*
X61595556Y-103399142D01*
X61595489Y-103399115D01*
X61333148Y-103289503D01*
X61326836Y-103283151D01*
X61326669Y-103274697D01*
X61497193Y-102807686D01*
X61503249Y-102801091D01*
X61508183Y-102800000D01*
X61691817Y-102800000D01*
X61700090Y-102803427D01*
G37*
%TD.AperFunction*%
%TD*%
%TA.AperFunction,Conductor*%
%TO.N,/dspic/B4*%
G36*
X56853864Y-99908475D02*
G01*
X57304671Y-100118123D01*
X57310726Y-100124718D01*
X57310559Y-100133175D01*
X57202563Y-100396184D01*
X57196251Y-100402536D01*
X57196184Y-100402563D01*
X56933175Y-100510559D01*
X56924220Y-100510532D01*
X56918123Y-100504671D01*
X56708475Y-100053865D01*
X56708095Y-100044920D01*
X56710810Y-100040662D01*
X56840661Y-99910811D01*
X56848933Y-99907385D01*
X56853864Y-99908475D01*
G37*
%TD.AperFunction*%
%TD*%
%TA.AperFunction,Conductor*%
%TO.N,/dspic/B5*%
G36*
X61066851Y-84310496D02*
G01*
X61073163Y-84316848D01*
X61073330Y-84325305D01*
X60902807Y-84792313D01*
X60896751Y-84798909D01*
X60891817Y-84800000D01*
X60708183Y-84800000D01*
X60699910Y-84796573D01*
X60697193Y-84792313D01*
X60526669Y-84325302D01*
X60527050Y-84316358D01*
X60533147Y-84310496D01*
X60795490Y-84200883D01*
X60804444Y-84200857D01*
X61066851Y-84310496D01*
G37*
%TD.AperFunction*%
%TD*%
%TA.AperFunction,Conductor*%
%TO.N,/dspic/B5*%
G36*
X61453864Y-87308475D02*
G01*
X61904671Y-87518123D01*
X61910726Y-87524718D01*
X61910559Y-87533175D01*
X61802563Y-87796184D01*
X61796251Y-87802536D01*
X61796184Y-87802563D01*
X61533175Y-87910559D01*
X61524220Y-87910532D01*
X61518123Y-87904671D01*
X61308475Y-87453865D01*
X61308095Y-87444920D01*
X61310810Y-87440662D01*
X61440661Y-87310811D01*
X61448933Y-87307385D01*
X61453864Y-87308475D01*
G37*
%TD.AperFunction*%
%TD*%
%TA.AperFunction,Conductor*%
%TO.N,/dspic/B5*%
G36*
X68264530Y-96450403D02*
G01*
X68270841Y-96456754D01*
X68270814Y-96465709D01*
X68269977Y-96467338D01*
X67969920Y-96954023D01*
X67962661Y-96959267D01*
X67953821Y-96957842D01*
X67951688Y-96956156D01*
X67822960Y-96827428D01*
X67819923Y-96822152D01*
X67725452Y-96465557D01*
X67726646Y-96456684D01*
X67732269Y-96451760D01*
X67996206Y-96342040D01*
X68005159Y-96342030D01*
X68264530Y-96450403D01*
G37*
%TD.AperFunction*%
%TD*%
%TA.AperFunction,Conductor*%
%TO.N,/dspic/B6*%
G36*
X60303417Y-99283135D02*
G01*
X60603770Y-99579614D01*
X60607251Y-99587864D01*
X60603878Y-99596159D01*
X60603844Y-99596194D01*
X60403446Y-99797537D01*
X60395181Y-99800983D01*
X60395114Y-99800983D01*
X60111661Y-99800038D01*
X60103399Y-99796584D01*
X60100000Y-99788338D01*
X60100000Y-99291462D01*
X60103427Y-99283189D01*
X60111700Y-99279762D01*
X60295198Y-99279762D01*
X60303417Y-99283135D01*
G37*
%TD.AperFunction*%
%TD*%
%TA.AperFunction,Conductor*%
%TO.N,/dspic/B6*%
G36*
X60676268Y-94232533D02*
G01*
X60839898Y-94299723D01*
X60939278Y-94340530D01*
X60945630Y-94346842D01*
X60945657Y-94346909D01*
X61053653Y-94609918D01*
X61053626Y-94618873D01*
X61047764Y-94624971D01*
X60596961Y-94834617D01*
X60588014Y-94834998D01*
X60583754Y-94832281D01*
X60453906Y-94702433D01*
X60450479Y-94694160D01*
X60451568Y-94689230D01*
X60661218Y-94238421D01*
X60667812Y-94232367D01*
X60676268Y-94232533D01*
G37*
%TD.AperFunction*%
%TD*%
%TA.AperFunction,Conductor*%
%TO.N,/dspic/B6*%
G36*
X66592313Y-101497193D02*
G01*
X66598909Y-101503249D01*
X66600000Y-101508183D01*
X66600000Y-101691816D01*
X66596573Y-101700089D01*
X66592313Y-101702806D01*
X66125305Y-101873330D01*
X66116358Y-101872949D01*
X66110496Y-101866851D01*
X66000883Y-101604509D01*
X66000857Y-101595556D01*
X66000862Y-101595542D01*
X66110496Y-101333147D01*
X66116848Y-101326836D01*
X66125302Y-101326669D01*
X66592313Y-101497193D01*
G37*
%TD.AperFunction*%
%TD*%
%TA.AperFunction,Conductor*%
%TO.N,/dspic/B7*%
G36*
X66592313Y-102697193D02*
G01*
X66598909Y-102703249D01*
X66600000Y-102708183D01*
X66600000Y-102891816D01*
X66596573Y-102900089D01*
X66592313Y-102902806D01*
X66125305Y-103073330D01*
X66116358Y-103072949D01*
X66110496Y-103066851D01*
X66000883Y-102804509D01*
X66000857Y-102795556D01*
X66000862Y-102795542D01*
X66110496Y-102533147D01*
X66116848Y-102526836D01*
X66125302Y-102526669D01*
X66592313Y-102697193D01*
G37*
%TD.AperFunction*%
%TD*%
%TA.AperFunction,Conductor*%
%TO.N,/dspic/B10*%
G36*
X77883641Y-112727050D02*
G01*
X77889503Y-112733148D01*
X77999115Y-112995489D01*
X77999142Y-113004444D01*
X77999115Y-113004511D01*
X77889503Y-113266851D01*
X77883151Y-113273163D01*
X77874694Y-113273329D01*
X77740947Y-113224493D01*
X77407687Y-113102806D01*
X77401091Y-113096750D01*
X77400000Y-113091816D01*
X77400000Y-112908183D01*
X77403427Y-112899910D01*
X77407687Y-112897193D01*
X77874697Y-112726669D01*
X77883641Y-112727050D01*
G37*
%TD.AperFunction*%
%TD*%
%TA.AperFunction,Conductor*%
%TO.N,/dspic/B11*%
G36*
X74083641Y-111127050D02*
G01*
X74089503Y-111133148D01*
X74199115Y-111395489D01*
X74199142Y-111404444D01*
X74199115Y-111404511D01*
X74089503Y-111666851D01*
X74083151Y-111673163D01*
X74074694Y-111673329D01*
X73940947Y-111624493D01*
X73607687Y-111502806D01*
X73601091Y-111496750D01*
X73600000Y-111491816D01*
X73600000Y-111308183D01*
X73603427Y-111299910D01*
X73607687Y-111297193D01*
X74074697Y-111126669D01*
X74083641Y-111127050D01*
G37*
%TD.AperFunction*%
%TD*%
M02*
