%TF.GenerationSoftware,KiCad,Pcbnew,8.0.7*%
%TF.CreationDate,2025-01-23T07:49:23-08:00*%
%TF.ProjectId,plex-loader,706c6578-2d6c-46f6-9164-65722e6b6963,rev?*%
%TF.SameCoordinates,Original*%
%TF.FileFunction,Copper,L1,Top*%
%TF.FilePolarity,Positive*%
%FSLAX46Y46*%
G04 Gerber Fmt 4.6, Leading zero omitted, Abs format (unit mm)*
G04 Created by KiCad (PCBNEW 8.0.7) date 2025-01-23 07:49:23*
%MOMM*%
%LPD*%
G01*
G04 APERTURE LIST*
G04 Aperture macros list*
%AMRoundRect*
0 Rectangle with rounded corners*
0 $1 Rounding radius*
0 $2 $3 $4 $5 $6 $7 $8 $9 X,Y pos of 4 corners*
0 Add a 4 corners polygon primitive as box body*
4,1,4,$2,$3,$4,$5,$6,$7,$8,$9,$2,$3,0*
0 Add four circle primitives for the rounded corners*
1,1,$1+$1,$2,$3*
1,1,$1+$1,$4,$5*
1,1,$1+$1,$6,$7*
1,1,$1+$1,$8,$9*
0 Add four rect primitives between the rounded corners*
20,1,$1+$1,$2,$3,$4,$5,0*
20,1,$1+$1,$4,$5,$6,$7,0*
20,1,$1+$1,$6,$7,$8,$9,0*
20,1,$1+$1,$8,$9,$2,$3,0*%
G04 Aperture macros list end*
%TA.AperFunction,SMDPad,CuDef*%
%ADD10RoundRect,0.140000X-0.170000X0.140000X-0.170000X-0.140000X0.170000X-0.140000X0.170000X0.140000X0*%
%TD*%
%TA.AperFunction,ComponentPad*%
%ADD11RoundRect,0.225000X0.475000X-0.225000X0.475000X0.225000X-0.475000X0.225000X-0.475000X-0.225000X0*%
%TD*%
%TA.AperFunction,ComponentPad*%
%ADD12O,1.400000X0.900000*%
%TD*%
%TA.AperFunction,SMDPad,CuDef*%
%ADD13RoundRect,0.200000X0.275000X-0.200000X0.275000X0.200000X-0.275000X0.200000X-0.275000X-0.200000X0*%
%TD*%
%TA.AperFunction,SMDPad,CuDef*%
%ADD14RoundRect,0.243750X0.456250X-0.243750X0.456250X0.243750X-0.456250X0.243750X-0.456250X-0.243750X0*%
%TD*%
%TA.AperFunction,SMDPad,CuDef*%
%ADD15RoundRect,0.243750X-0.456250X0.243750X-0.456250X-0.243750X0.456250X-0.243750X0.456250X0.243750X0*%
%TD*%
%TA.AperFunction,SMDPad,CuDef*%
%ADD16R,1.405599X0.350800*%
%TD*%
%TA.AperFunction,SMDPad,CuDef*%
%ADD17R,0.508000X0.990600*%
%TD*%
%TA.AperFunction,SMDPad,CuDef*%
%ADD18RoundRect,0.200000X-0.200000X-0.275000X0.200000X-0.275000X0.200000X0.275000X-0.200000X0.275000X0*%
%TD*%
%TA.AperFunction,SMDPad,CuDef*%
%ADD19RoundRect,0.200000X-0.275000X0.200000X-0.275000X-0.200000X0.275000X-0.200000X0.275000X0.200000X0*%
%TD*%
%TA.AperFunction,ComponentPad*%
%ADD20R,1.700000X1.700000*%
%TD*%
%TA.AperFunction,ComponentPad*%
%ADD21O,1.700000X1.700000*%
%TD*%
%TA.AperFunction,SMDPad,CuDef*%
%ADD22RoundRect,0.200000X0.200000X0.275000X-0.200000X0.275000X-0.200000X-0.275000X0.200000X-0.275000X0*%
%TD*%
%TA.AperFunction,ViaPad*%
%ADD23C,0.600000*%
%TD*%
%TA.AperFunction,Conductor*%
%ADD24C,0.200000*%
%TD*%
G04 APERTURE END LIST*
D10*
%TO.P,C3,1*%
%TO.N,GND*%
X71547199Y-96245001D03*
%TO.P,C3,2*%
%TO.N,VDD*%
X71547199Y-97205001D03*
%TD*%
D11*
%TO.P,J6,1,Pin_1*%
%TO.N,/MCLR6*%
X55432500Y-114500000D03*
D12*
%TO.P,J6,2,Pin_2*%
%TO.N,unconnected-(J6-Pin_2-Pad2)*%
X55432500Y-113250000D03*
%TO.P,J6,3,Pin_3*%
%TO.N,unconnected-(J6-Pin_3-Pad3)*%
X55432500Y-112000000D03*
%TO.P,J6,4,Pin_4*%
%TO.N,/PGD6*%
X55432500Y-110750000D03*
%TO.P,J6,5,Pin_5*%
%TO.N,/PGC6*%
X55432500Y-109500000D03*
%TD*%
D13*
%TO.P,R13,1*%
%TO.N,Net-(D4-A)*%
X58500000Y-73298750D03*
%TO.P,R13,2*%
%TO.N,/dspic/B4*%
X58500000Y-71648750D03*
%TD*%
%TO.P,R11,1*%
%TO.N,Net-(D2-A)*%
X58500000Y-110898750D03*
%TO.P,R11,2*%
%TO.N,/dspic/B2*%
X58500000Y-109248750D03*
%TD*%
D14*
%TO.P,D3,1,K*%
%TO.N,GND*%
X58500000Y-67623750D03*
%TO.P,D3,2,A*%
%TO.N,Net-(D3-A)*%
X58500000Y-65748750D03*
%TD*%
%TO.P,D2,1,K*%
%TO.N,GND*%
X58500000Y-114623750D03*
%TO.P,D2,2,A*%
%TO.N,Net-(D2-A)*%
X58500000Y-112748750D03*
%TD*%
D15*
%TO.P,D8,1,K*%
%TO.N,GND*%
X78831500Y-105850000D03*
%TO.P,D8,2,A*%
%TO.N,Net-(D8-A)*%
X78831500Y-107725000D03*
%TD*%
D16*
%TO.P,U1,1,A0*%
%TO.N,/GPIO17*%
X63547199Y-71225001D03*
%TO.P,U1,2,EN*%
%TO.N,/GPIO10*%
X63547199Y-71874999D03*
%TO.P,U1,3,N.C.*%
%TO.N,unconnected-(U1-N.C.-Pad3)*%
X63547199Y-72525001D03*
%TO.P,U1,4,S1*%
%TO.N,/MCLR1*%
X63547199Y-73174999D03*
%TO.P,U1,5,S2*%
%TO.N,/MCLR2*%
X63547199Y-73824998D03*
%TO.P,U1,6,S3*%
%TO.N,/MCLR3*%
X63547199Y-74474999D03*
%TO.P,U1,7,S4*%
%TO.N,/MCLR4*%
X63547199Y-75124998D03*
%TO.P,U1,8,D*%
%TO.N,/MCLR*%
X63547199Y-75774999D03*
%TO.P,U1,9,S8*%
%TO.N,/MCLR8*%
X69452801Y-75774999D03*
%TO.P,U1,10,S7*%
%TO.N,/MCLR7*%
X69452801Y-75125001D03*
%TO.P,U1,11,S6*%
%TO.N,/MCLR6*%
X69452801Y-74474999D03*
%TO.P,U1,12,S5*%
%TO.N,/MCLR5*%
X69452801Y-73825001D03*
%TO.P,U1,13,VDD*%
%TO.N,VDD*%
X69452801Y-73175002D03*
%TO.P,U1,14,GND*%
%TO.N,GND*%
X69452801Y-72525001D03*
%TO.P,U1,15,A2*%
%TO.N,/GPIO22*%
X69452801Y-71875002D03*
%TO.P,U1,16,A1*%
%TO.N,/GPIO27*%
X69452801Y-71225001D03*
%TD*%
D14*
%TO.P,D7,1,K*%
%TO.N,GND*%
X58500000Y-105223750D03*
%TO.P,D7,2,A*%
%TO.N,Net-(D7-A)*%
X58500000Y-103348750D03*
%TD*%
D17*
%TO.P,U5,1,D*%
%TO.N,VDD*%
X71500000Y-58500000D03*
%TO.P,U5,2,D*%
X72449960Y-58500000D03*
%TO.P,U5,3,G*%
%TO.N,Net-(U5-G)*%
X73399920Y-58500000D03*
%TO.P,U5,4,S*%
%TO.N,+3.3V*%
X73399920Y-55807600D03*
%TO.P,U5,5,D*%
%TO.N,VDD*%
X72449960Y-55807600D03*
%TO.P,U5,6,D*%
X71500000Y-55807600D03*
%TD*%
D18*
%TO.P,R8,1*%
%TO.N,/PGD*%
X68722199Y-89725001D03*
%TO.P,R8,2*%
%TO.N,/GPIO24*%
X70372199Y-89725001D03*
%TD*%
D19*
%TO.P,R18,1*%
%TO.N,Net-(D9-A)*%
X76331500Y-109500000D03*
%TO.P,R18,2*%
%TO.N,/dspic/B11*%
X76331500Y-111150000D03*
%TD*%
D20*
%TO.P,J10,1,Pin_1*%
%TO.N,unconnected-(J10-Pin_1-Pad1)*%
X64859000Y-53683000D03*
D21*
%TO.P,J10,2,Pin_2*%
%TO.N,unconnected-(J10-Pin_2-Pad2)*%
X67399000Y-53683000D03*
%TO.P,J10,3,Pin_3*%
%TO.N,unconnected-(J10-Pin_3-Pad3)*%
X64859000Y-56223000D03*
%TO.P,J10,4,Pin_4*%
%TO.N,unconnected-(J10-Pin_4-Pad4)*%
X67399000Y-56223000D03*
%TO.P,J10,5,Pin_5*%
%TO.N,unconnected-(J10-Pin_5-Pad5)*%
X64859000Y-58763000D03*
%TO.P,J10,6,Pin_6*%
%TO.N,unconnected-(J10-Pin_6-Pad6)*%
X67399000Y-58763000D03*
%TO.P,J10,7,Pin_7*%
%TO.N,unconnected-(J10-Pin_7-Pad7)*%
X64859000Y-61303000D03*
%TO.P,J10,8,Pin_8*%
%TO.N,unconnected-(J10-Pin_8-Pad8)*%
X67399000Y-61303000D03*
%TO.P,J10,9,Pin_9*%
%TO.N,unconnected-(J10-Pin_9-Pad9)*%
X64859000Y-63843000D03*
%TO.P,J10,10,Pin_10*%
%TO.N,unconnected-(J10-Pin_10-Pad10)*%
X67399000Y-63843000D03*
%TD*%
D18*
%TO.P,R9,1*%
%TO.N,/MCLR*%
X68675000Y-77725001D03*
%TO.P,R9,2*%
%TO.N,/GPIO18*%
X70325000Y-77725001D03*
%TD*%
D15*
%TO.P,D1,1,K*%
%TO.N,GND*%
X81331500Y-105850000D03*
%TO.P,D1,2,A*%
%TO.N,Net-(D1-A)*%
X81331500Y-107725000D03*
%TD*%
D14*
%TO.P,D6,1,K*%
%TO.N,GND*%
X58500000Y-95823750D03*
%TO.P,D6,2,A*%
%TO.N,Net-(D6-A)*%
X58500000Y-93948750D03*
%TD*%
D18*
%TO.P,R7,1*%
%TO.N,/PGC*%
X68850000Y-101725001D03*
%TO.P,R7,2*%
%TO.N,/GPIO23*%
X70500000Y-101725001D03*
%TD*%
D13*
%TO.P,R16,1*%
%TO.N,Net-(D7-A)*%
X58500000Y-101498750D03*
%TO.P,R16,2*%
%TO.N,/dspic/B7*%
X58500000Y-99848750D03*
%TD*%
D22*
%TO.P,R3,1*%
%TO.N,+3.3V*%
X73274960Y-53500000D03*
%TO.P,R3,2*%
%TO.N,Net-(U5-G)*%
X71624960Y-53500000D03*
%TD*%
D15*
%TO.P,D9,1,K*%
%TO.N,GND*%
X76331500Y-105850000D03*
%TO.P,D9,2,A*%
%TO.N,Net-(D9-A)*%
X76331500Y-107725000D03*
%TD*%
D19*
%TO.P,R10,1*%
%TO.N,/GPIO10*%
X74000000Y-76500000D03*
%TO.P,R10,2*%
%TO.N,GND*%
X74000000Y-78150000D03*
%TD*%
%TO.P,R4,1*%
%TO.N,Net-(D1-A)*%
X81331500Y-109482500D03*
%TO.P,R4,2*%
%TO.N,VDD*%
X81331500Y-111132500D03*
%TD*%
D16*
%TO.P,U3,1,A0*%
%TO.N,/GPIO17*%
X63547199Y-95225001D03*
%TO.P,U3,2,EN*%
%TO.N,/GPIO10*%
X63547199Y-95874999D03*
%TO.P,U3,3,N.C.*%
%TO.N,unconnected-(U3-N.C.-Pad3)*%
X63547199Y-96525001D03*
%TO.P,U3,4,S1*%
%TO.N,/PGC1*%
X63547199Y-97174999D03*
%TO.P,U3,5,S2*%
%TO.N,/PGC2*%
X63547199Y-97824998D03*
%TO.P,U3,6,S3*%
%TO.N,/PGC3*%
X63547199Y-98474999D03*
%TO.P,U3,7,S4*%
%TO.N,/PGC4*%
X63547199Y-99124998D03*
%TO.P,U3,8,D*%
%TO.N,/PGC*%
X63547199Y-99774999D03*
%TO.P,U3,9,S8*%
%TO.N,/PGC8*%
X69452801Y-99774999D03*
%TO.P,U3,10,S7*%
%TO.N,/PGC7*%
X69452801Y-99125001D03*
%TO.P,U3,11,S6*%
%TO.N,/PGC6*%
X69452801Y-98474999D03*
%TO.P,U3,12,S5*%
%TO.N,/PGC5*%
X69452801Y-97825001D03*
%TO.P,U3,13,VDD*%
%TO.N,VDD*%
X69452801Y-97175002D03*
%TO.P,U3,14,GND*%
%TO.N,GND*%
X69452801Y-96525001D03*
%TO.P,U3,15,A2*%
%TO.N,/GPIO22*%
X69452801Y-95875002D03*
%TO.P,U3,16,A1*%
%TO.N,/GPIO27*%
X69452801Y-95225001D03*
%TD*%
D14*
%TO.P,D4,1,K*%
%TO.N,GND*%
X58500000Y-77023750D03*
%TO.P,D4,2,A*%
%TO.N,Net-(D4-A)*%
X58500000Y-75148750D03*
%TD*%
D11*
%TO.P,J3,1,Pin_1*%
%TO.N,/MCLR3*%
X55432500Y-86300000D03*
D12*
%TO.P,J3,2,Pin_2*%
%TO.N,unconnected-(J3-Pin_2-Pad2)*%
X55432500Y-85050000D03*
%TO.P,J3,3,Pin_3*%
%TO.N,unconnected-(J3-Pin_3-Pad3)*%
X55432500Y-83800000D03*
%TO.P,J3,4,Pin_4*%
%TO.N,/PGD3*%
X55432500Y-82550000D03*
%TO.P,J3,5,Pin_5*%
%TO.N,/PGC3*%
X55432500Y-81300000D03*
%TD*%
D11*
%TO.P,J4,1,Pin_1*%
%TO.N,/MCLR4*%
X55432500Y-95700000D03*
D12*
%TO.P,J4,2,Pin_2*%
%TO.N,unconnected-(J4-Pin_2-Pad2)*%
X55432500Y-94450000D03*
%TO.P,J4,3,Pin_3*%
%TO.N,unconnected-(J4-Pin_3-Pad3)*%
X55432500Y-93200000D03*
%TO.P,J4,4,Pin_4*%
%TO.N,/PGD4*%
X55432500Y-91950000D03*
%TO.P,J4,5,Pin_5*%
%TO.N,/PGC4*%
X55432500Y-90700000D03*
%TD*%
D20*
%TO.P,J9,1,Pin_1*%
%TO.N,+3.3V*%
X77559000Y-53683000D03*
D21*
%TO.P,J9,2,Pin_2*%
%TO.N,+5V*%
X80099000Y-53683000D03*
%TO.P,J9,3,Pin_3*%
%TO.N,/GPIO2*%
X77559000Y-56223000D03*
%TO.P,J9,4,Pin_4*%
%TO.N,+5V*%
X80099000Y-56223000D03*
%TO.P,J9,5,Pin_5*%
%TO.N,/GPIO3*%
X77559000Y-58763000D03*
%TO.P,J9,6,Pin_6*%
%TO.N,GND*%
X80099000Y-58763000D03*
%TO.P,J9,7,Pin_7*%
%TO.N,unconnected-(J9-Pin_7-Pad7)*%
X77559000Y-61303000D03*
%TO.P,J9,8,Pin_8*%
%TO.N,unconnected-(J9-Pin_8-Pad8)*%
X80099000Y-61303000D03*
%TO.P,J9,9,Pin_9*%
%TO.N,GND*%
X77559000Y-63843000D03*
%TO.P,J9,10,Pin_10*%
%TO.N,unconnected-(J9-Pin_10-Pad10)*%
X80099000Y-63843000D03*
%TO.P,J9,11,Pin_11*%
%TO.N,/GPIO17*%
X77559000Y-66383000D03*
%TO.P,J9,12,Pin_12*%
%TO.N,/GPIO18*%
X80099000Y-66383000D03*
%TO.P,J9,13,Pin_13*%
%TO.N,/GPIO27*%
X77559000Y-68923000D03*
%TO.P,J9,14,Pin_14*%
%TO.N,GND*%
X80099000Y-68923000D03*
%TO.P,J9,15,Pin_15*%
%TO.N,/GPIO22*%
X77559000Y-71463000D03*
%TO.P,J9,16,Pin_16*%
%TO.N,/GPIO23*%
X80099000Y-71463000D03*
%TO.P,J9,17,Pin_17*%
%TO.N,+3.3V*%
X77559000Y-74003000D03*
%TO.P,J9,18,Pin_18*%
%TO.N,/GPIO24*%
X80099000Y-74003000D03*
%TO.P,J9,19,Pin_19*%
%TO.N,/GPIO10*%
X77559000Y-76543000D03*
%TO.P,J9,20,Pin_20*%
%TO.N,GND*%
X80099000Y-76543000D03*
%TO.P,J9,21,Pin_21*%
%TO.N,unconnected-(J9-Pin_21-Pad21)*%
X77559000Y-79083000D03*
%TO.P,J9,22,Pin_22*%
%TO.N,/GPIO25*%
X80099000Y-79083000D03*
%TO.P,J9,23,Pin_23*%
%TO.N,unconnected-(J9-Pin_23-Pad23)*%
X77559000Y-81623000D03*
%TO.P,J9,24,Pin_24*%
%TO.N,unconnected-(J9-Pin_24-Pad24)*%
X80099000Y-81623000D03*
%TO.P,J9,25,Pin_25*%
%TO.N,GND*%
X77559000Y-84163000D03*
%TO.P,J9,26,Pin_26*%
%TO.N,unconnected-(J9-Pin_26-Pad26)*%
X80099000Y-84163000D03*
%TO.P,J9,27,Pin_27*%
%TO.N,unconnected-(J9-Pin_27-Pad27)*%
X77559000Y-86703000D03*
%TO.P,J9,28,Pin_28*%
%TO.N,unconnected-(J9-Pin_28-Pad28)*%
X80099000Y-86703000D03*
%TO.P,J9,29,Pin_29*%
%TO.N,unconnected-(J9-Pin_29-Pad29)*%
X77559000Y-89243000D03*
%TO.P,J9,30,Pin_30*%
%TO.N,GND*%
X80099000Y-89243000D03*
%TO.P,J9,31,Pin_31*%
%TO.N,unconnected-(J9-Pin_31-Pad31)*%
X77559000Y-91783000D03*
%TO.P,J9,32,Pin_32*%
%TO.N,unconnected-(J9-Pin_32-Pad32)*%
X80099000Y-91783000D03*
%TO.P,J9,33,Pin_33*%
%TO.N,unconnected-(J9-Pin_33-Pad33)*%
X77559000Y-94323000D03*
%TO.P,J9,34,Pin_34*%
%TO.N,GND*%
X80099000Y-94323000D03*
%TO.P,J9,35,Pin_35*%
%TO.N,unconnected-(J9-Pin_35-Pad35)*%
X77559000Y-96863000D03*
%TO.P,J9,36,Pin_36*%
%TO.N,unconnected-(J9-Pin_36-Pad36)*%
X80099000Y-96863000D03*
%TO.P,J9,37,Pin_37*%
%TO.N,unconnected-(J9-Pin_37-Pad37)*%
X77559000Y-99403000D03*
%TO.P,J9,38,Pin_38*%
%TO.N,unconnected-(J9-Pin_38-Pad38)*%
X80099000Y-99403000D03*
%TO.P,J9,39,Pin_39*%
%TO.N,GND*%
X77559000Y-101943000D03*
%TO.P,J9,40,Pin_40*%
%TO.N,unconnected-(J9-Pin_40-Pad40)*%
X80099000Y-101943000D03*
%TD*%
D14*
%TO.P,D5,1,K*%
%TO.N,GND*%
X58500000Y-86423750D03*
%TO.P,D5,2,A*%
%TO.N,Net-(D5-A)*%
X58500000Y-84548750D03*
%TD*%
D13*
%TO.P,R12,1*%
%TO.N,Net-(D3-A)*%
X58500000Y-63898750D03*
%TO.P,R12,2*%
%TO.N,/dspic/B3*%
X58500000Y-62248750D03*
%TD*%
D10*
%TO.P,C2,1*%
%TO.N,GND*%
X71547199Y-84266301D03*
%TO.P,C2,2*%
%TO.N,VDD*%
X71547199Y-85226301D03*
%TD*%
D22*
%TO.P,R19,1*%
%TO.N,Net-(U5-G)*%
X73274960Y-61000000D03*
%TO.P,R19,2*%
%TO.N,/GPIO25*%
X71624960Y-61000000D03*
%TD*%
D13*
%TO.P,R14,1*%
%TO.N,Net-(D5-A)*%
X58500000Y-82698750D03*
%TO.P,R14,2*%
%TO.N,/dspic/B5*%
X58500000Y-81048750D03*
%TD*%
D16*
%TO.P,U2,1,A0*%
%TO.N,/GPIO17*%
X63547199Y-83225001D03*
%TO.P,U2,2,EN*%
%TO.N,/GPIO10*%
X63547199Y-83874999D03*
%TO.P,U2,3,N.C.*%
%TO.N,unconnected-(U2-N.C.-Pad3)*%
X63547199Y-84525001D03*
%TO.P,U2,4,S1*%
%TO.N,/PGD1*%
X63547199Y-85174999D03*
%TO.P,U2,5,S2*%
%TO.N,/PGD2*%
X63547199Y-85824998D03*
%TO.P,U2,6,S3*%
%TO.N,/PGD3*%
X63547199Y-86474999D03*
%TO.P,U2,7,S4*%
%TO.N,/PGD4*%
X63547199Y-87124998D03*
%TO.P,U2,8,D*%
%TO.N,/PGD*%
X63547199Y-87774999D03*
%TO.P,U2,9,S8*%
%TO.N,/PGD8*%
X69452801Y-87774999D03*
%TO.P,U2,10,S7*%
%TO.N,/PGD7*%
X69452801Y-87125001D03*
%TO.P,U2,11,S6*%
%TO.N,/PGD6*%
X69452801Y-86474999D03*
%TO.P,U2,12,S5*%
%TO.N,/PGD5*%
X69452801Y-85825001D03*
%TO.P,U2,13,VDD*%
%TO.N,VDD*%
X69452801Y-85175002D03*
%TO.P,U2,14,GND*%
%TO.N,GND*%
X69452801Y-84525001D03*
%TO.P,U2,15,A2*%
%TO.N,/GPIO22*%
X69452801Y-83875002D03*
%TO.P,U2,16,A1*%
%TO.N,/GPIO27*%
X69452801Y-83225001D03*
%TD*%
D10*
%TO.P,C1,1*%
%TO.N,GND*%
X71547199Y-72245001D03*
%TO.P,C1,2*%
%TO.N,VDD*%
X71547199Y-73205001D03*
%TD*%
D13*
%TO.P,R15,1*%
%TO.N,Net-(D6-A)*%
X58500000Y-92098750D03*
%TO.P,R15,2*%
%TO.N,/dspic/B6*%
X58500000Y-90448750D03*
%TD*%
D11*
%TO.P,J2,1,Pin_1*%
%TO.N,/MCLR2*%
X55432500Y-76900000D03*
D12*
%TO.P,J2,2,Pin_2*%
%TO.N,unconnected-(J2-Pin_2-Pad2)*%
X55432500Y-75650000D03*
%TO.P,J2,3,Pin_3*%
%TO.N,unconnected-(J2-Pin_3-Pad3)*%
X55432500Y-74400000D03*
%TO.P,J2,4,Pin_4*%
%TO.N,/PGD2*%
X55432500Y-73150000D03*
%TO.P,J2,5,Pin_5*%
%TO.N,/PGC2*%
X55432500Y-71900000D03*
%TD*%
D11*
%TO.P,J5,1,Pin_1*%
%TO.N,/MCLR5*%
X55432500Y-105100000D03*
D12*
%TO.P,J5,2,Pin_2*%
%TO.N,unconnected-(J5-Pin_2-Pad2)*%
X55432500Y-103850000D03*
%TO.P,J5,3,Pin_3*%
%TO.N,unconnected-(J5-Pin_3-Pad3)*%
X55432500Y-102600000D03*
%TO.P,J5,4,Pin_4*%
%TO.N,/PGD5*%
X55432500Y-101350000D03*
%TO.P,J5,5,Pin_5*%
%TO.N,/PGC5*%
X55432500Y-100100000D03*
%TD*%
D11*
%TO.P,J1,1,Pin_1*%
%TO.N,/MCLR1*%
X55432500Y-67500000D03*
D12*
%TO.P,J1,2,Pin_2*%
%TO.N,unconnected-(J1-Pin_2-Pad2)*%
X55432500Y-66250000D03*
%TO.P,J1,3,Pin_3*%
%TO.N,unconnected-(J1-Pin_3-Pad3)*%
X55432500Y-65000000D03*
%TO.P,J1,4,Pin_4*%
%TO.N,/PGD1*%
X55432500Y-63750000D03*
%TO.P,J1,5,Pin_5*%
%TO.N,/PGC1*%
X55432500Y-62500000D03*
%TD*%
D19*
%TO.P,R17,1*%
%TO.N,Net-(D8-A)*%
X78831500Y-109500000D03*
%TO.P,R17,2*%
%TO.N,/dspic/B10*%
X78831500Y-111150000D03*
%TD*%
D23*
%TO.N,/GPIO10*%
X73000000Y-70200000D03*
X65200000Y-84600000D03*
X61600000Y-90600000D03*
%TO.N,GND*%
X59800000Y-77200000D03*
X72400000Y-96200000D03*
X72522353Y-72257342D03*
X81331500Y-104600000D03*
X74600000Y-109200000D03*
X60400000Y-115200000D03*
X58500000Y-87600000D03*
X73975735Y-79175735D03*
X57400000Y-106000000D03*
X74800000Y-106000000D03*
X78831500Y-104600000D03*
X57400000Y-96000000D03*
X65547484Y-98774999D03*
X59000000Y-68600000D03*
X72200000Y-84266301D03*
X62200000Y-113800000D03*
%TO.N,+3.3V*%
X75500000Y-61900000D03*
X81400000Y-69500000D03*
%TO.N,/PGD1*%
X61800000Y-72000000D03*
X61800000Y-84200000D03*
%TO.N,/PGC2*%
X61600000Y-95948930D03*
X65000000Y-96400000D03*
%TO.N,/PGC3*%
X62000000Y-98600000D03*
X64747481Y-98524998D03*
X59005855Y-98984280D03*
%TO.N,/MCLR3*%
X66397936Y-74524998D03*
%TO.N,/MCLR4*%
X67000000Y-75124998D03*
%TO.N,/PGC4*%
X66000000Y-96400000D03*
X65600000Y-93800000D03*
%TO.N,/PGC5*%
X62000000Y-97800000D03*
X66880996Y-96832467D03*
%TO.N,/MCLR5*%
X67800000Y-75000000D03*
%TO.N,/PGD5*%
X66123526Y-89125001D03*
X60800000Y-98384280D03*
%TO.N,/MCLR6*%
X70100000Y-81729275D03*
X72800000Y-104200000D03*
%TO.N,/PGD6*%
X71600000Y-101000000D03*
X71220728Y-92600000D03*
%TO.N,/PGC8*%
X65500000Y-104500000D03*
%TO.N,/MCLR8*%
X69500000Y-79500000D03*
%TO.N,/PGD8*%
X67048528Y-89048528D03*
%TO.N,/GPIO23*%
X73800000Y-95400000D03*
X71800000Y-99400000D03*
%TO.N,/GPIO22*%
X71500000Y-82500000D03*
%TO.N,/GPIO27*%
X73675735Y-72675735D03*
%TO.N,/GPIO18*%
X64600000Y-77800000D03*
%TO.N,/GPIO17*%
X60600000Y-90600000D03*
X62999997Y-80000000D03*
X62400000Y-71241051D03*
%TO.N,/GPIO24*%
X70500000Y-88700351D03*
%TO.N,VDD*%
X68000000Y-99000000D03*
X72449960Y-54807600D03*
X71500000Y-54807600D03*
X66388236Y-98763235D03*
X66000000Y-113200000D03*
X71500000Y-59607600D03*
X72400000Y-97200000D03*
X72200000Y-85226301D03*
X58400000Y-106600000D03*
X72449960Y-59607600D03*
X73600000Y-99200000D03*
X81400000Y-112200000D03*
X72448969Y-73053971D03*
%TO.N,/GPIO2*%
X73200000Y-102951473D03*
%TO.N,/GPIO3*%
X68400000Y-82324265D03*
X63800000Y-77000000D03*
%TO.N,/dspic/B2*%
X57400000Y-109248750D03*
%TO.N,/dspic/B3*%
X61200000Y-107200000D03*
%TO.N,/dspic/B4*%
X54600000Y-70600000D03*
X57200000Y-100400000D03*
X61600000Y-103400000D03*
%TO.N,/dspic/B5*%
X68000000Y-96340877D03*
X61800000Y-87800000D03*
X60800000Y-84200000D03*
%TO.N,/dspic/B6*%
X60943094Y-94343094D03*
X60400000Y-99800000D03*
X66000000Y-101600000D03*
%TO.N,/dspic/B7*%
X66000000Y-102800000D03*
%TO.N,/dspic/B10*%
X78000000Y-113000000D03*
%TO.N,/dspic/B11*%
X74200000Y-111400000D03*
%TD*%
D24*
%TO.N,Net-(D8-A)*%
X78831500Y-107725000D02*
X78831500Y-109500000D01*
%TO.N,/GPIO10*%
X63547199Y-95874999D02*
X64375400Y-95874999D01*
X67324604Y-71874999D02*
X68999603Y-70200000D01*
X64549998Y-93549998D02*
X61600000Y-90600000D01*
X74000000Y-76500000D02*
X77516000Y-76500000D01*
X64549998Y-95700401D02*
X64549998Y-93549998D01*
X64474999Y-83874999D02*
X63547199Y-83874999D01*
X63547199Y-71874999D02*
X67324604Y-71874999D01*
X68999603Y-70200000D02*
X73000000Y-70200000D01*
X65200000Y-84600000D02*
X64474999Y-83874999D01*
X64375400Y-95874999D02*
X64549998Y-95700401D01*
X77516000Y-76500000D02*
X77559000Y-76543000D01*
%TO.N,Net-(D9-A)*%
X76331500Y-107725000D02*
X76331500Y-109500000D01*
%TO.N,GND*%
X57576250Y-95823750D02*
X57400000Y-96000000D01*
X72133699Y-84200000D02*
X70455600Y-84200000D01*
X72510012Y-72245001D02*
X72522353Y-72257342D01*
X58500000Y-95823750D02*
X57576250Y-95823750D01*
X81331500Y-105850000D02*
X81331500Y-104600000D01*
X58500000Y-114623750D02*
X59823750Y-114623750D01*
X71547199Y-96245001D02*
X72354999Y-96245001D01*
X59623750Y-77023750D02*
X59800000Y-77200000D01*
X71267199Y-72525001D02*
X71547199Y-72245001D01*
X57723750Y-106000000D02*
X58500000Y-105223750D01*
X69452801Y-72525001D02*
X71267199Y-72525001D01*
X58500000Y-86423750D02*
X58576250Y-86423750D01*
X70175600Y-96525001D02*
X69452801Y-96525001D01*
X70455600Y-96245001D02*
X70175600Y-96525001D01*
X59823750Y-114623750D02*
X60400000Y-115200000D01*
X58500000Y-77023750D02*
X59623750Y-77023750D01*
X72200000Y-84266301D02*
X71547199Y-84266301D01*
X58500000Y-86500000D02*
X58500000Y-87600000D01*
X72354999Y-96245001D02*
X72400000Y-96200000D01*
X76181500Y-106000000D02*
X76331500Y-105850000D01*
X57400000Y-106000000D02*
X57723750Y-106000000D01*
X58576250Y-86423750D02*
X58500000Y-86500000D01*
X73975735Y-79175735D02*
X73975735Y-78174265D01*
X74800000Y-106000000D02*
X76181500Y-106000000D01*
X58500000Y-68100000D02*
X59000000Y-68600000D01*
X70130599Y-84525001D02*
X69452801Y-84525001D01*
X70455600Y-84200000D02*
X70130599Y-84525001D01*
X78831500Y-105850000D02*
X78831500Y-104600000D01*
X71547199Y-72245001D02*
X72510012Y-72245001D01*
X72354999Y-96245001D02*
X70455600Y-96245001D01*
X58500000Y-67623750D02*
X58500000Y-68100000D01*
X73975735Y-78174265D02*
X74000000Y-78150000D01*
X72200000Y-84266301D02*
X72133699Y-84200000D01*
%TO.N,+5V*%
X80099000Y-56223000D02*
X80099000Y-53683000D01*
%TO.N,+3.3V*%
X73457960Y-53683000D02*
X73274960Y-53500000D01*
X73399920Y-55807600D02*
X75500000Y-57907680D01*
X75500000Y-57907680D02*
X75500000Y-61900000D01*
X79529404Y-70166250D02*
X78709000Y-70986654D01*
X77242000Y-54000000D02*
X77559000Y-53683000D01*
X77559000Y-53683000D02*
X73457960Y-53683000D01*
X77559000Y-73089346D02*
X77559000Y-74003000D01*
X73399920Y-53624960D02*
X73399920Y-55807600D01*
X78709000Y-71939346D02*
X77559000Y-73089346D01*
X80733750Y-70166250D02*
X79529404Y-70166250D01*
X78709000Y-70986654D02*
X78709000Y-71939346D01*
X73274960Y-53500000D02*
X73399920Y-53624960D01*
X81400000Y-69500000D02*
X80733750Y-70166250D01*
%TO.N,/MCLR1*%
X56132500Y-67500000D02*
X61807499Y-73174999D01*
X61807499Y-73174999D02*
X63547199Y-73174999D01*
X55432500Y-67500000D02*
X56132500Y-67500000D01*
%TO.N,/PGC1*%
X63547199Y-97174999D02*
X63383450Y-97011250D01*
X63383450Y-97011250D02*
X54645564Y-97011250D01*
X53600000Y-95965686D02*
X53600000Y-64082500D01*
X55182500Y-62500000D02*
X55432500Y-62500000D01*
X53600000Y-64082500D02*
X55182500Y-62500000D01*
X54645564Y-97011250D02*
X53600000Y-95965686D01*
%TO.N,/PGD1*%
X61400518Y-72000000D02*
X61800000Y-72000000D01*
X55682500Y-63750000D02*
X57200000Y-65267500D01*
X55432500Y-63750000D02*
X55682500Y-63750000D01*
X61800000Y-84200000D02*
X62774999Y-85174999D01*
X57200000Y-67799482D02*
X61400518Y-72000000D01*
X57200000Y-65267500D02*
X57200000Y-67799482D01*
X62774999Y-85174999D02*
X63547199Y-85174999D01*
%TO.N,/PGD2*%
X55182500Y-73150000D02*
X54432500Y-73900000D01*
X58788898Y-81800000D02*
X59600000Y-82611102D01*
X59600000Y-85000000D02*
X61819402Y-85000000D01*
X62644400Y-85824998D02*
X63547199Y-85824998D01*
X58001250Y-81800000D02*
X58788898Y-81800000D01*
X61819402Y-85000000D02*
X62644400Y-85824998D01*
X54432500Y-73900000D02*
X54432500Y-78231250D01*
X59600000Y-82611102D02*
X59600000Y-85000000D01*
X55432500Y-73150000D02*
X55182500Y-73150000D01*
X54432500Y-78231250D02*
X58001250Y-81800000D01*
%TO.N,/MCLR2*%
X62200000Y-74269398D02*
X62644400Y-73824998D01*
X62200000Y-77400000D02*
X62200000Y-74269398D01*
X61400000Y-78200000D02*
X62200000Y-77400000D01*
X55432500Y-76900000D02*
X56300000Y-76900000D01*
X62644400Y-73824998D02*
X63547199Y-73824998D01*
X57600000Y-78200000D02*
X61400000Y-78200000D01*
X56300000Y-76900000D02*
X57600000Y-78200000D01*
%TO.N,/PGC2*%
X54032500Y-73050000D02*
X55182500Y-71900000D01*
X65000000Y-97274996D02*
X64449998Y-97824998D01*
X65000000Y-96400000D02*
X65000000Y-97274996D01*
X64449998Y-97824998D02*
X63547199Y-97824998D01*
X60937680Y-96611250D02*
X54811250Y-96611250D01*
X55182500Y-71900000D02*
X55432500Y-71900000D01*
X54811250Y-96611250D02*
X54032500Y-95832500D01*
X61600000Y-95948930D02*
X60937680Y-96611250D01*
X54032500Y-95832500D02*
X54032500Y-73050000D01*
%TO.N,/PGC3*%
X61615720Y-98984280D02*
X59005855Y-98984280D01*
X63547199Y-98474999D02*
X64697482Y-98474999D01*
X64697482Y-98474999D02*
X64747481Y-98524998D01*
X62000000Y-98600000D02*
X61615720Y-98984280D01*
%TO.N,/PGD3*%
X55682500Y-82550000D02*
X57200000Y-84067500D01*
X55432500Y-82550000D02*
X55682500Y-82550000D01*
X61805651Y-85636250D02*
X62644400Y-86474999D01*
X57200000Y-84067500D02*
X57200000Y-84724482D01*
X58111768Y-85636250D02*
X61805651Y-85636250D01*
X57200000Y-84724482D02*
X58111768Y-85636250D01*
X62644400Y-86474999D02*
X63547199Y-86474999D01*
%TO.N,/MCLR3*%
X66397936Y-74524998D02*
X66347937Y-74474999D01*
X66347937Y-74474999D02*
X63547199Y-74474999D01*
%TO.N,/MCLR4*%
X67000000Y-75124998D02*
X63547199Y-75124998D01*
%TO.N,/PGC4*%
X65600000Y-93800000D02*
X62200000Y-90400000D01*
X67000000Y-99000000D02*
X67000000Y-97771471D01*
X60648529Y-88800000D02*
X59600000Y-88800000D01*
X59000000Y-89400000D02*
X56732500Y-89400000D01*
X67000000Y-97771471D02*
X66628529Y-97400000D01*
X66600000Y-97400000D02*
X66000000Y-96800000D01*
X64549998Y-99374999D02*
X66625001Y-99374999D01*
X66628529Y-97400000D02*
X66600000Y-97400000D01*
X59600000Y-88800000D02*
X59000000Y-89400000D01*
X62200000Y-90351471D02*
X60648529Y-88800000D01*
X64299997Y-99124998D02*
X64549998Y-99374999D01*
X66000000Y-96800000D02*
X66000000Y-96400000D01*
X66625001Y-99374999D02*
X67000000Y-99000000D01*
X56732500Y-89400000D02*
X55432500Y-90700000D01*
X63547199Y-99124998D02*
X64299997Y-99124998D01*
X62200000Y-90400000D02*
X62200000Y-90351471D01*
X55881250Y-91148750D02*
X55432500Y-90700000D01*
%TO.N,/PGD4*%
X54432500Y-91200000D02*
X54432500Y-90389340D01*
X60475002Y-87124998D02*
X63547199Y-87124998D01*
X55182500Y-91950000D02*
X54432500Y-91200000D01*
X55432500Y-91950000D02*
X55182500Y-91950000D01*
X55821840Y-89000000D02*
X58600000Y-89000000D01*
X54432500Y-90389340D02*
X55821840Y-89000000D01*
X58600000Y-89000000D02*
X60475002Y-87124998D01*
%TO.N,/PGC5*%
X61984280Y-97784280D02*
X60151471Y-97784280D01*
X68648530Y-97825001D02*
X69452801Y-97825001D01*
X59951471Y-97984280D02*
X57548220Y-97984280D01*
X60151471Y-97784280D02*
X59951471Y-97984280D01*
X62000000Y-97800000D02*
X61984280Y-97784280D01*
X67655996Y-96832467D02*
X68648530Y-97825001D01*
X57548220Y-97984280D02*
X55432500Y-100100000D01*
X66880996Y-96832467D02*
X67655996Y-96832467D01*
%TO.N,/MCLR5*%
X67800000Y-74649601D02*
X68624600Y-73825001D01*
X67800000Y-75000000D02*
X67800000Y-74649601D01*
X68624600Y-73825001D02*
X69452801Y-73825001D01*
%TO.N,/PGD5*%
X68450002Y-85999599D02*
X68624600Y-85825001D01*
X55493160Y-101350000D02*
X55432500Y-101350000D01*
X56432500Y-100410660D02*
X55493160Y-101350000D01*
X56432500Y-99767500D02*
X56432500Y-100410660D01*
X68450002Y-86798525D02*
X68450002Y-85999599D01*
X60800000Y-98384280D02*
X57815720Y-98384280D01*
X57815720Y-98384280D02*
X56432500Y-99767500D01*
X66123526Y-89125001D02*
X68450002Y-86798525D01*
X68624600Y-85825001D02*
X69452801Y-85825001D01*
%TO.N,/MCLR6*%
X72800000Y-104200000D02*
X63825000Y-113175000D01*
X57053420Y-113746580D02*
X56300000Y-114500000D01*
X59825000Y-113175000D02*
X59253420Y-113746580D01*
X69452801Y-74474999D02*
X70474999Y-74474999D01*
X59253420Y-113746580D02*
X57053420Y-113746580D01*
X70474999Y-74474999D02*
X71306058Y-75306058D01*
X71306058Y-80523217D02*
X70100000Y-81729275D01*
X56300000Y-114500000D02*
X55432500Y-114500000D01*
X63825000Y-113175000D02*
X59825000Y-113175000D01*
X71306058Y-75306058D02*
X71306058Y-80523217D01*
%TO.N,/PGC6*%
X72600000Y-103200000D02*
X72600000Y-99000000D01*
X55432500Y-109500000D02*
X56383750Y-108548750D01*
X56383750Y-108548750D02*
X67251250Y-108548750D01*
X67251250Y-108548750D02*
X72600000Y-103200000D01*
X72600000Y-99000000D02*
X72074999Y-98474999D01*
X72074999Y-98474999D02*
X69452801Y-98474999D01*
%TO.N,/PGD6*%
X69452801Y-86474999D02*
X70355600Y-86474999D01*
X55051250Y-108148750D02*
X65263899Y-108148750D01*
X54200000Y-109578160D02*
X54200000Y-109000000D01*
X70355600Y-86474999D02*
X71200000Y-87319399D01*
X71200000Y-87319399D02*
X71200000Y-87600000D01*
X71200000Y-92579272D02*
X71200000Y-87600000D01*
X71600000Y-101812649D02*
X71600000Y-101000000D01*
X55432500Y-110750000D02*
X55182500Y-110750000D01*
X55432500Y-110750000D02*
X55371840Y-110750000D01*
X71220728Y-92600000D02*
X71200000Y-92579272D01*
X54200000Y-109000000D02*
X55051250Y-108148750D01*
X65263899Y-108148750D02*
X71600000Y-101812649D01*
X55371840Y-110750000D02*
X54200000Y-109578160D01*
%TO.N,/PGC8*%
X65500000Y-104500000D02*
X67262649Y-104500000D01*
X67262649Y-104500000D02*
X69550000Y-102212649D01*
X69550000Y-99872198D02*
X69452801Y-99774999D01*
X69550000Y-102212649D02*
X69550000Y-99872198D01*
%TO.N,/MCLR8*%
X69500000Y-79500000D02*
X69500000Y-78500000D01*
X69452801Y-78452801D02*
X69452801Y-75774999D01*
X69500000Y-78500000D02*
X69452801Y-78452801D01*
%TO.N,/PGD8*%
X68322057Y-87774999D02*
X67048528Y-89048528D01*
X69452801Y-87774999D02*
X68322057Y-87774999D01*
%TO.N,/GPIO23*%
X77928346Y-77800000D02*
X78800000Y-76928346D01*
X78800000Y-72762000D02*
X80099000Y-71463000D01*
X78800000Y-76928346D02*
X78800000Y-72762000D01*
X70500000Y-100700000D02*
X71800000Y-99400000D01*
X73800000Y-81000000D02*
X77000000Y-77800000D01*
X77000000Y-77800000D02*
X77928346Y-77800000D01*
X70500000Y-101725001D02*
X70500000Y-100700000D01*
X73800000Y-95400000D02*
X73800000Y-81000000D01*
%TO.N,/GPIO22*%
X69452801Y-83875002D02*
X70124998Y-83875002D01*
X73200000Y-92964016D02*
X73200000Y-75400000D01*
X70355600Y-71875002D02*
X69452801Y-71875002D01*
X69452801Y-95875002D02*
X70289014Y-95875002D01*
X73200000Y-75400000D02*
X74500000Y-74100000D01*
X70124998Y-83875002D02*
X71500000Y-82500000D01*
X77396999Y-71625001D02*
X74500000Y-71625001D01*
X77559000Y-71463000D02*
X77396999Y-71625001D01*
X74500000Y-71625001D02*
X70605601Y-71625001D01*
X70289014Y-95875002D02*
X73200000Y-92964016D01*
X74500000Y-74100000D02*
X74500000Y-71625001D01*
X70605601Y-71625001D02*
X70355600Y-71875002D01*
%TO.N,/GPIO27*%
X72800000Y-73551470D02*
X73675735Y-72675735D01*
X72400000Y-80277802D02*
X72800000Y-79877802D01*
X72800000Y-91877802D02*
X72800000Y-79877802D01*
X69452801Y-95225001D02*
X72800000Y-91877802D01*
X69452801Y-71225001D02*
X75256999Y-71225001D01*
X72800000Y-79877802D02*
X72800000Y-73551470D01*
X75256999Y-71225001D02*
X77559000Y-68923000D01*
X69452801Y-83225001D02*
X72400000Y-80277802D01*
%TO.N,/GPIO18*%
X69748529Y-80100000D02*
X70325000Y-79523529D01*
X70325000Y-79523529D02*
X70325000Y-77725001D01*
X66900000Y-80100000D02*
X69748529Y-80100000D01*
X64600000Y-77800000D02*
X66900000Y-80100000D01*
%TO.N,/GPIO17*%
X63547199Y-93547199D02*
X60600000Y-90600000D01*
X72217000Y-66383000D02*
X77559000Y-66383000D01*
X67374999Y-71225001D02*
X72217000Y-66383000D01*
X63547199Y-71225001D02*
X67374999Y-71225001D01*
X62999997Y-80000000D02*
X62999997Y-82677799D01*
X63547199Y-95225001D02*
X63547199Y-93547199D01*
X62999997Y-82677799D02*
X63547199Y-83225001D01*
X63531149Y-71241051D02*
X63547199Y-71225001D01*
X62400000Y-71241051D02*
X63531149Y-71241051D01*
%TO.N,/GPIO24*%
X70500000Y-88700351D02*
X70372199Y-88828152D01*
X70372199Y-88828152D02*
X70372199Y-89725001D01*
%TO.N,VDD*%
X72449960Y-58500000D02*
X72449960Y-59607600D01*
X71547199Y-97205001D02*
X72394999Y-97205001D01*
X72200000Y-85226301D02*
X72148701Y-85175002D01*
X81331500Y-111132500D02*
X81331500Y-112131500D01*
X70324998Y-97175002D02*
X69452801Y-97175002D01*
X72400000Y-97200000D02*
X70349996Y-97200000D01*
X72394999Y-97205001D02*
X72400000Y-97200000D01*
X70349996Y-97200000D02*
X70324998Y-97175002D01*
X72148701Y-85175002D02*
X69452801Y-85175002D01*
X71500000Y-58500000D02*
X71500000Y-59607600D01*
X72448969Y-73053971D02*
X72327938Y-73175002D01*
X72449960Y-55807600D02*
X72449960Y-54807600D01*
X81331500Y-112131500D02*
X81400000Y-112200000D01*
X72327938Y-73175002D02*
X69452801Y-73175002D01*
X71500000Y-55807600D02*
X71500000Y-54807600D01*
X72200000Y-85226301D02*
X71547199Y-85226301D01*
%TO.N,/GPIO2*%
X82400000Y-102400000D02*
X81000000Y-103800000D01*
X81000000Y-103800000D02*
X74048527Y-103800000D01*
X77559000Y-56223000D02*
X78736000Y-57400000D01*
X82400000Y-58400000D02*
X82400000Y-102400000D01*
X78736000Y-57400000D02*
X81400000Y-57400000D01*
X81400000Y-57400000D02*
X82400000Y-58400000D01*
X74048527Y-103800000D02*
X73200000Y-102951473D01*
%TO.N,/GPIO3*%
X68275736Y-82324265D02*
X63800000Y-77848529D01*
X68400000Y-82324265D02*
X68275736Y-82324265D01*
X63800000Y-77848529D02*
X63800000Y-77000000D01*
%TO.N,/GPIO25*%
X80099000Y-79083000D02*
X82000000Y-77182000D01*
X82000000Y-63500000D02*
X81000000Y-62500000D01*
X73124960Y-62500000D02*
X71624960Y-61000000D01*
X81000000Y-62500000D02*
X73124960Y-62500000D01*
X82000000Y-77182000D02*
X82000000Y-63500000D01*
%TO.N,Net-(U5-G)*%
X71500000Y-57000000D02*
X72141220Y-57000000D01*
X70500000Y-56000000D02*
X71500000Y-57000000D01*
X73399920Y-58258700D02*
X73399920Y-58500000D01*
X72141220Y-57000000D02*
X73399920Y-58258700D01*
X71624960Y-53500000D02*
X70500000Y-54624960D01*
X73399920Y-60875040D02*
X73274960Y-61000000D01*
X73399920Y-58500000D02*
X73399920Y-60875040D01*
X70500000Y-54624960D02*
X70500000Y-56000000D01*
%TO.N,Net-(D1-A)*%
X81331500Y-107725000D02*
X81331500Y-109482500D01*
%TO.N,/PGD*%
X68722199Y-89725001D02*
X65525001Y-89725001D01*
X65525001Y-89725001D02*
X64027800Y-88227800D01*
X64027800Y-88227800D02*
X64000000Y-88227800D01*
X64000000Y-88227800D02*
X63547199Y-87774999D01*
%TO.N,/MCLR*%
X67774999Y-75774999D02*
X63547199Y-75774999D01*
X68675000Y-76675000D02*
X67774999Y-75774999D01*
X68675000Y-77725001D02*
X68675000Y-76675000D01*
%TO.N,/dspic/B2*%
X57400000Y-109248750D02*
X58500000Y-109248750D01*
%TO.N,Net-(D2-A)*%
X58500000Y-112748750D02*
X58500000Y-110898750D01*
%TO.N,Net-(D3-A)*%
X58500000Y-63898750D02*
X58500000Y-65748750D01*
%TO.N,/dspic/B3*%
X61200000Y-107200000D02*
X55200000Y-107200000D01*
X55200000Y-107200000D02*
X53200000Y-105200000D01*
X55000000Y-61400000D02*
X57651250Y-61400000D01*
X53200000Y-63200000D02*
X55000000Y-61400000D01*
X57651250Y-61400000D02*
X58500000Y-62248750D01*
X53200000Y-105200000D02*
X53200000Y-63200000D01*
%TO.N,Net-(D4-A)*%
X58500000Y-75148750D02*
X58500000Y-73298750D01*
%TO.N,/dspic/B4*%
X60863750Y-104136250D02*
X61600000Y-103400000D01*
X57200000Y-100400000D02*
X57200000Y-103524482D01*
X57811768Y-104136250D02*
X60863750Y-104136250D01*
X57451250Y-70600000D02*
X54600000Y-70600000D01*
X58500000Y-71648750D02*
X57451250Y-70600000D01*
X57200000Y-103524482D02*
X57811768Y-104136250D01*
%TO.N,/dspic/B5*%
X58603333Y-81048750D02*
X60800000Y-83245417D01*
X68000000Y-96340877D02*
X68400000Y-95940877D01*
X58500000Y-81048750D02*
X58603333Y-81048750D01*
X68400000Y-95940877D02*
X68400000Y-93200000D01*
X60800000Y-83245417D02*
X60800000Y-84200000D01*
X63400000Y-89400000D02*
X61800000Y-87800000D01*
X68400000Y-93200000D02*
X64600000Y-89400000D01*
X64600000Y-89400000D02*
X63400000Y-89400000D01*
%TO.N,Net-(D5-A)*%
X58500000Y-82698750D02*
X58500000Y-84548750D01*
%TO.N,/dspic/B6*%
X58500000Y-90448750D02*
X60943094Y-92891844D01*
X62200000Y-101600000D02*
X60400000Y-99800000D01*
X60943094Y-92891844D02*
X60943094Y-94343094D01*
X66000000Y-101600000D02*
X62200000Y-101600000D01*
%TO.N,Net-(D6-A)*%
X58500000Y-93948750D02*
X58500000Y-92098750D01*
%TO.N,Net-(D7-A)*%
X58500000Y-103348750D02*
X58500000Y-101498750D01*
%TO.N,/dspic/B7*%
X60651250Y-102000000D02*
X58500000Y-99848750D01*
X66000000Y-102800000D02*
X65200000Y-102000000D01*
X65200000Y-102000000D02*
X60651250Y-102000000D01*
%TO.N,/PGC*%
X67774999Y-99774999D02*
X63547199Y-99774999D01*
X68850000Y-101725001D02*
X68850000Y-100850000D01*
X68850000Y-100850000D02*
X67774999Y-99774999D01*
%TO.N,/dspic/B10*%
X78000000Y-113000000D02*
X78831500Y-112168500D01*
X78831500Y-112168500D02*
X78831500Y-111150000D01*
%TO.N,/dspic/B11*%
X75050000Y-111150000D02*
X76331500Y-111150000D01*
X74800000Y-111400000D02*
X75050000Y-111150000D01*
X74200000Y-111400000D02*
X74800000Y-111400000D01*
%TD*%
%TA.AperFunction,Conductor*%
%TO.N,/GPIO17*%
G36*
X60875779Y-90489467D02*
G01*
X60881877Y-90495329D01*
X61091523Y-90946132D01*
X61091904Y-90955079D01*
X61089187Y-90959339D01*
X60959339Y-91089187D01*
X60951066Y-91092614D01*
X60946132Y-91091523D01*
X60652736Y-90955079D01*
X60495328Y-90881876D01*
X60489273Y-90875281D01*
X60489439Y-90866825D01*
X60597436Y-90603814D01*
X60603746Y-90597464D01*
X60866825Y-90489440D01*
X60875779Y-90489467D01*
G37*
%TD.AperFunction*%
%TD*%
%TA.AperFunction,Conductor*%
%TO.N,+3.3V*%
G36*
X73653099Y-55706430D02*
G01*
X73658902Y-55711707D01*
X73900142Y-56162840D01*
X73901022Y-56171751D01*
X73898098Y-56176630D01*
X73766435Y-56308293D01*
X73758162Y-56311720D01*
X73757697Y-56311711D01*
X73544551Y-56303239D01*
X73536421Y-56299486D01*
X73533737Y-56294659D01*
X73501185Y-56176630D01*
X73401970Y-55816889D01*
X73403074Y-55808004D01*
X73408807Y-55802956D01*
X73644146Y-55706400D01*
X73653099Y-55706430D01*
G37*
%TD.AperFunction*%
%TD*%
%TA.AperFunction,Conductor*%
%TO.N,/dspic/B6*%
G36*
X60675779Y-99689467D02*
G01*
X60681877Y-99695329D01*
X60891523Y-100146132D01*
X60891904Y-100155079D01*
X60889187Y-100159339D01*
X60759339Y-100289187D01*
X60751066Y-100292614D01*
X60746132Y-100291523D01*
X60452736Y-100155079D01*
X60295328Y-100081876D01*
X60289273Y-100075281D01*
X60289439Y-100066825D01*
X60397436Y-99803814D01*
X60403746Y-99797464D01*
X60666825Y-99689440D01*
X60675779Y-99689467D01*
G37*
%TD.AperFunction*%
%TD*%
%TA.AperFunction,Conductor*%
%TO.N,GND*%
G36*
X79108664Y-104714805D02*
G01*
X78931500Y-105200000D01*
X78731500Y-105200000D01*
X78554336Y-104714805D01*
X78831500Y-104599000D01*
X79108664Y-104714805D01*
G37*
%TD.AperFunction*%
%TD*%
%TA.AperFunction,Conductor*%
%TO.N,/PGC5*%
G36*
X67473309Y-96729660D02*
G01*
X67479905Y-96735716D01*
X67480996Y-96740650D01*
X67480996Y-96924283D01*
X67477569Y-96932556D01*
X67473309Y-96935273D01*
X67006301Y-97105797D01*
X66997354Y-97105416D01*
X66991492Y-97099318D01*
X66881879Y-96836976D01*
X66881853Y-96828023D01*
X66881858Y-96828009D01*
X66991492Y-96565614D01*
X66997844Y-96559303D01*
X67006298Y-96559136D01*
X67473309Y-96729660D01*
G37*
%TD.AperFunction*%
%TD*%
%TA.AperFunction,Conductor*%
%TO.N,/PGC1*%
G36*
X62681831Y-96912516D02*
G01*
X63552824Y-96998457D01*
X63560721Y-97002679D01*
X63563325Y-97011176D01*
X63549115Y-97165070D01*
X63544942Y-97172993D01*
X63538250Y-97175668D01*
X62848212Y-97222077D01*
X62841167Y-97220287D01*
X62674439Y-97114695D01*
X62669283Y-97107374D01*
X62668999Y-97104811D01*
X62668999Y-96924160D01*
X62672426Y-96915887D01*
X62680699Y-96912460D01*
X62681831Y-96912516D01*
G37*
%TD.AperFunction*%
%TD*%
%TA.AperFunction,Conductor*%
%TO.N,/GPIO27*%
G36*
X69688199Y-94861547D02*
G01*
X69863883Y-95037231D01*
X69867310Y-95045504D01*
X69863883Y-95053777D01*
X69860096Y-95056310D01*
X69462960Y-95221196D01*
X69454006Y-95221203D01*
X69447669Y-95214877D01*
X69383818Y-95058584D01*
X69383861Y-95049630D01*
X69388297Y-95044335D01*
X69673579Y-94859992D01*
X69682385Y-94858381D01*
X69688199Y-94861547D01*
G37*
%TD.AperFunction*%
%TD*%
%TA.AperFunction,Conductor*%
%TO.N,/GPIO22*%
G36*
X70158785Y-95702337D02*
G01*
X70160142Y-95703288D01*
X70247525Y-95774223D01*
X70248424Y-95775034D01*
X70377663Y-95904273D01*
X70381090Y-95912546D01*
X70377663Y-95920819D01*
X70374390Y-95923124D01*
X70159181Y-96024848D01*
X70151728Y-96025710D01*
X69501342Y-95886267D01*
X69493971Y-95881182D01*
X69492355Y-95872374D01*
X69497440Y-95865003D01*
X69500948Y-95863479D01*
X70149927Y-95701022D01*
X70158785Y-95702337D01*
G37*
%TD.AperFunction*%
%TD*%
%TA.AperFunction,Conductor*%
%TO.N,/GPIO3*%
G36*
X64066851Y-77110496D02*
G01*
X64073163Y-77116848D01*
X64073330Y-77125305D01*
X63902807Y-77592313D01*
X63896751Y-77598909D01*
X63891817Y-77600000D01*
X63708183Y-77600000D01*
X63699910Y-77596573D01*
X63697193Y-77592313D01*
X63526669Y-77125302D01*
X63527050Y-77116358D01*
X63533147Y-77110496D01*
X63795490Y-77000883D01*
X63804444Y-77000857D01*
X64066851Y-77110496D01*
G37*
%TD.AperFunction*%
%TD*%
%TA.AperFunction,Conductor*%
%TO.N,VDD*%
G36*
X72283580Y-96927105D02*
G01*
X72289546Y-96933250D01*
X72399115Y-97195489D01*
X72399142Y-97204444D01*
X72399115Y-97204511D01*
X72289467Y-97466937D01*
X72283115Y-97473249D01*
X72274751Y-97473450D01*
X71808775Y-97307767D01*
X71802128Y-97301766D01*
X71800995Y-97296743D01*
X71800995Y-97113100D01*
X71804422Y-97104827D01*
X71808574Y-97102149D01*
X72274631Y-96926810D01*
X72283580Y-96927105D01*
G37*
%TD.AperFunction*%
%TD*%
%TA.AperFunction,Conductor*%
%TO.N,/GPIO17*%
G36*
X64253620Y-71051157D02*
G01*
X64418321Y-71121958D01*
X64424567Y-71128373D01*
X64425399Y-71132706D01*
X64425399Y-71317295D01*
X64421972Y-71325568D01*
X64418320Y-71328044D01*
X64253622Y-71398843D01*
X64246172Y-71399447D01*
X63591753Y-71236354D01*
X63584554Y-71231028D01*
X63583229Y-71222172D01*
X63588555Y-71214973D01*
X63591753Y-71213648D01*
X64246174Y-71050554D01*
X64253620Y-71051157D01*
G37*
%TD.AperFunction*%
%TD*%
%TA.AperFunction,Conductor*%
%TO.N,/PGC8*%
G36*
X69462096Y-99781106D02*
G01*
X69462151Y-99781148D01*
X69677768Y-99946009D01*
X69682258Y-99953756D01*
X69682153Y-99957499D01*
X69651816Y-100116295D01*
X69646898Y-100123778D01*
X69640324Y-100125799D01*
X69455881Y-100125799D01*
X69447608Y-100122372D01*
X69446492Y-100121081D01*
X69324799Y-99957435D01*
X69322612Y-99948751D01*
X69324851Y-99943402D01*
X69445708Y-99783389D01*
X69453429Y-99778854D01*
X69462096Y-99781106D01*
G37*
%TD.AperFunction*%
%TD*%
%TA.AperFunction,Conductor*%
%TO.N,GND*%
G36*
X72201000Y-84266301D02*
G01*
X72085195Y-84543465D01*
X71613188Y-84300000D01*
X71613188Y-84100000D01*
X72085195Y-83989137D01*
X72201000Y-84266301D01*
G37*
%TD.AperFunction*%
%TD*%
%TA.AperFunction,Conductor*%
%TO.N,GND*%
G36*
X59801000Y-77200000D02*
G01*
X59587868Y-77412132D01*
X59263892Y-77123750D01*
X59263892Y-76923750D01*
X59800000Y-76900000D01*
X59801000Y-77200000D01*
G37*
%TD.AperFunction*%
%TD*%
%TA.AperFunction,Conductor*%
%TO.N,/PGD*%
G36*
X63954494Y-87943689D02*
G01*
X63960821Y-87950027D01*
X63960814Y-87958981D01*
X63958281Y-87962768D01*
X63917336Y-88003714D01*
X63782597Y-88138452D01*
X63774324Y-88141879D01*
X63767975Y-88140006D01*
X63482696Y-87955665D01*
X63477608Y-87948298D01*
X63478215Y-87941416D01*
X63542043Y-87785181D01*
X63548342Y-87778821D01*
X63557297Y-87778778D01*
X63954494Y-87943689D01*
G37*
%TD.AperFunction*%
%TD*%
%TA.AperFunction,Conductor*%
%TO.N,/GPIO27*%
G36*
X70159222Y-71051157D02*
G01*
X70323923Y-71121958D01*
X70330169Y-71128373D01*
X70331001Y-71132706D01*
X70331001Y-71317295D01*
X70327574Y-71325568D01*
X70323922Y-71328044D01*
X70159224Y-71398843D01*
X70151774Y-71399447D01*
X69497355Y-71236354D01*
X69490156Y-71231028D01*
X69488831Y-71222172D01*
X69494157Y-71214973D01*
X69497355Y-71213648D01*
X70151776Y-71050554D01*
X70159222Y-71051157D01*
G37*
%TD.AperFunction*%
%TD*%
%TA.AperFunction,Conductor*%
%TO.N,VDD*%
G36*
X70159222Y-73001158D02*
G01*
X70323923Y-73071959D01*
X70330169Y-73078374D01*
X70331001Y-73082707D01*
X70331001Y-73267296D01*
X70327574Y-73275569D01*
X70323922Y-73278045D01*
X70159224Y-73348844D01*
X70151774Y-73349448D01*
X69497355Y-73186355D01*
X69490156Y-73181029D01*
X69488831Y-73172173D01*
X69494157Y-73164974D01*
X69497355Y-73163649D01*
X70151776Y-73000555D01*
X70159222Y-73001158D01*
G37*
%TD.AperFunction*%
%TD*%
%TA.AperFunction,Conductor*%
%TO.N,/PGC3*%
G36*
X59598168Y-98881473D02*
G01*
X59604764Y-98887529D01*
X59605855Y-98892463D01*
X59605855Y-99076096D01*
X59602428Y-99084369D01*
X59598168Y-99087086D01*
X59131160Y-99257610D01*
X59122213Y-99257229D01*
X59116351Y-99251131D01*
X59006738Y-98988789D01*
X59006712Y-98979836D01*
X59006717Y-98979822D01*
X59116351Y-98717427D01*
X59122703Y-98711116D01*
X59131157Y-98710949D01*
X59598168Y-98881473D01*
G37*
%TD.AperFunction*%
%TD*%
%TA.AperFunction,Conductor*%
%TO.N,/MCLR1*%
G36*
X63353899Y-73126575D02*
G01*
X63502644Y-73163646D01*
X63509843Y-73168972D01*
X63511168Y-73177828D01*
X63505842Y-73185027D01*
X63502644Y-73186352D01*
X62848225Y-73349445D01*
X62840775Y-73348841D01*
X62676078Y-73278042D01*
X62669831Y-73271626D01*
X62668999Y-73267293D01*
X62668999Y-73082704D01*
X62672426Y-73074431D01*
X62676074Y-73071957D01*
X62840777Y-73001155D01*
X62848223Y-73000552D01*
X63353899Y-73126575D01*
G37*
%TD.AperFunction*%
%TD*%
%TA.AperFunction,Conductor*%
%TO.N,/GPIO17*%
G36*
X62992313Y-71138244D02*
G01*
X62998909Y-71144300D01*
X63000000Y-71149234D01*
X63000000Y-71332867D01*
X62996573Y-71341140D01*
X62992313Y-71343857D01*
X62525305Y-71514381D01*
X62516358Y-71514000D01*
X62510496Y-71507902D01*
X62400883Y-71245560D01*
X62400857Y-71236607D01*
X62400862Y-71236593D01*
X62510496Y-70974198D01*
X62516848Y-70967887D01*
X62525302Y-70967720D01*
X62992313Y-71138244D01*
G37*
%TD.AperFunction*%
%TD*%
%TA.AperFunction,Conductor*%
%TO.N,/GPIO10*%
G36*
X61875779Y-90489467D02*
G01*
X61881877Y-90495329D01*
X62091523Y-90946132D01*
X62091904Y-90955079D01*
X62089187Y-90959339D01*
X61959339Y-91089187D01*
X61951066Y-91092614D01*
X61946132Y-91091523D01*
X61652736Y-90955079D01*
X61495328Y-90881876D01*
X61489273Y-90875281D01*
X61489439Y-90866825D01*
X61597436Y-90603814D01*
X61603746Y-90597464D01*
X61866825Y-90489440D01*
X61875779Y-90489467D01*
G37*
%TD.AperFunction*%
%TD*%
%TA.AperFunction,Conductor*%
%TO.N,/GPIO22*%
G36*
X71233174Y-82389439D02*
G01*
X71396804Y-82456629D01*
X71496184Y-82497436D01*
X71502536Y-82503748D01*
X71502563Y-82503815D01*
X71610559Y-82766824D01*
X71610532Y-82775779D01*
X71604670Y-82781877D01*
X71153867Y-82991523D01*
X71144920Y-82991904D01*
X71140660Y-82989187D01*
X71010812Y-82859339D01*
X71007385Y-82851066D01*
X71008474Y-82846136D01*
X71218124Y-82395327D01*
X71224718Y-82389273D01*
X71233174Y-82389439D01*
G37*
%TD.AperFunction*%
%TD*%
%TA.AperFunction,Conductor*%
%TO.N,/GPIO3*%
G36*
X68003241Y-81905598D02*
G01*
X68502090Y-82043584D01*
X68509149Y-82049092D01*
X68510247Y-82057979D01*
X68509793Y-82059304D01*
X68401606Y-82322781D01*
X68399029Y-82326638D01*
X68197885Y-82526446D01*
X68189600Y-82529845D01*
X68181338Y-82526391D01*
X68179951Y-82524705D01*
X68003062Y-82263483D01*
X67860669Y-82053202D01*
X67858869Y-82044431D01*
X67862083Y-82038372D01*
X67991853Y-81908602D01*
X68000125Y-81905176D01*
X68003241Y-81905598D01*
G37*
%TD.AperFunction*%
%TD*%
%TA.AperFunction,Conductor*%
%TO.N,/PGD5*%
G36*
X66482865Y-88635813D02*
G01*
X66612713Y-88765661D01*
X66616140Y-88773934D01*
X66615049Y-88778868D01*
X66405403Y-89229671D01*
X66398807Y-89235727D01*
X66390350Y-89235560D01*
X66127341Y-89127564D01*
X66120989Y-89121252D01*
X66120962Y-89121185D01*
X66012966Y-88858176D01*
X66012993Y-88849221D01*
X66018852Y-88843125D01*
X66469660Y-88633476D01*
X66478605Y-88633096D01*
X66482865Y-88635813D01*
G37*
%TD.AperFunction*%
%TD*%
%TA.AperFunction,Conductor*%
%TO.N,Net-(U5-G)*%
G36*
X73045101Y-57760215D02*
G01*
X73379079Y-58001343D01*
X73383780Y-58008964D01*
X73383923Y-58010431D01*
X73400316Y-58491595D01*
X73397173Y-58499980D01*
X73391867Y-58503234D01*
X73156374Y-58571189D01*
X73147475Y-58570191D01*
X73142153Y-58563998D01*
X73119732Y-58503234D01*
X72898197Y-57902830D01*
X72898548Y-57893884D01*
X72900898Y-57890512D01*
X73029982Y-57761428D01*
X73038254Y-57758002D01*
X73045101Y-57760215D01*
G37*
%TD.AperFunction*%
%TD*%
%TA.AperFunction,Conductor*%
%TO.N,/PGD5*%
G36*
X60683641Y-98111330D02*
G01*
X60689503Y-98117428D01*
X60799115Y-98379769D01*
X60799142Y-98388724D01*
X60799115Y-98388791D01*
X60689503Y-98651131D01*
X60683151Y-98657443D01*
X60674694Y-98657609D01*
X60540947Y-98608773D01*
X60207687Y-98487086D01*
X60201091Y-98481030D01*
X60200000Y-98476096D01*
X60200000Y-98292463D01*
X60203427Y-98284190D01*
X60207687Y-98281473D01*
X60674697Y-98110949D01*
X60683641Y-98111330D01*
G37*
%TD.AperFunction*%
%TD*%
%TA.AperFunction,Conductor*%
%TO.N,/dspic/B5*%
G36*
X68490899Y-95909989D02*
G01*
X68494326Y-95918262D01*
X68493467Y-95922661D01*
X68281581Y-96444795D01*
X68275295Y-96451173D01*
X68266341Y-96451237D01*
X68266296Y-96451219D01*
X68004510Y-96343729D01*
X67998160Y-96337419D01*
X67889791Y-96074848D01*
X67889802Y-96065894D01*
X67896142Y-96059570D01*
X67896410Y-96059464D01*
X68257506Y-95922661D01*
X68297997Y-95907321D01*
X68302142Y-95906562D01*
X68482626Y-95906562D01*
X68490899Y-95909989D01*
G37*
%TD.AperFunction*%
%TD*%
%TA.AperFunction,Conductor*%
%TO.N,VDD*%
G36*
X72455290Y-58514265D02*
G01*
X72460375Y-58519350D01*
X72700985Y-58989487D01*
X72701704Y-58998413D01*
X72700575Y-59000883D01*
X72553376Y-59243666D01*
X72546156Y-59248964D01*
X72543371Y-59249300D01*
X72356549Y-59249300D01*
X72348276Y-59245873D01*
X72346544Y-59243666D01*
X72199343Y-59000880D01*
X72197985Y-58992032D01*
X72198931Y-58989494D01*
X72439545Y-58519349D01*
X72446364Y-58513546D01*
X72455290Y-58514265D01*
G37*
%TD.AperFunction*%
%TD*%
%TA.AperFunction,Conductor*%
%TO.N,/PGC3*%
G36*
X61996494Y-98598140D02*
G01*
X62002833Y-98604463D01*
X62002852Y-98604510D01*
X62110212Y-98865979D01*
X62110185Y-98874934D01*
X62103833Y-98881246D01*
X62103476Y-98881386D01*
X61574961Y-99078395D01*
X61566012Y-99078074D01*
X61559911Y-99071519D01*
X61559174Y-99067432D01*
X61559174Y-98886585D01*
X61560049Y-98882146D01*
X61566679Y-98865979D01*
X61718387Y-98496042D01*
X61724696Y-98489689D01*
X61733650Y-98489658D01*
X61996494Y-98598140D01*
G37*
%TD.AperFunction*%
%TD*%
%TA.AperFunction,Conductor*%
%TO.N,/PGC5*%
G36*
X68754848Y-97650814D02*
G01*
X69401671Y-97812731D01*
X69408864Y-97818064D01*
X69410179Y-97826922D01*
X69404846Y-97834116D01*
X69400991Y-97835580D01*
X68753924Y-97957224D01*
X68746444Y-97956147D01*
X68539879Y-97850749D01*
X68534068Y-97843936D01*
X68534775Y-97835009D01*
X68536921Y-97832057D01*
X68666043Y-97702935D01*
X68668062Y-97701321D01*
X68745769Y-97652271D01*
X68754594Y-97650754D01*
X68754848Y-97650814D01*
G37*
%TD.AperFunction*%
%TD*%
%TA.AperFunction,Conductor*%
%TO.N,/GPIO27*%
G36*
X73408909Y-72565174D02*
G01*
X73572539Y-72632364D01*
X73671919Y-72673171D01*
X73678271Y-72679483D01*
X73678298Y-72679550D01*
X73786294Y-72942559D01*
X73786267Y-72951514D01*
X73780405Y-72957612D01*
X73329602Y-73167258D01*
X73320655Y-73167639D01*
X73316395Y-73164922D01*
X73186547Y-73035074D01*
X73183120Y-73026801D01*
X73184209Y-73021871D01*
X73393859Y-72571062D01*
X73400453Y-72565008D01*
X73408909Y-72565174D01*
G37*
%TD.AperFunction*%
%TD*%
%TA.AperFunction,Conductor*%
%TO.N,GND*%
G36*
X72201000Y-84266301D02*
G01*
X72085195Y-84543465D01*
X71600000Y-84366301D01*
X71600000Y-84166301D01*
X72085195Y-83989137D01*
X72201000Y-84266301D01*
G37*
%TD.AperFunction*%
%TD*%
%TA.AperFunction,Conductor*%
%TO.N,GND*%
G36*
X72401000Y-96200000D02*
G01*
X72285195Y-96477164D01*
X71808951Y-96345001D01*
X71808951Y-96145001D01*
X72285195Y-95922836D01*
X72401000Y-96200000D01*
G37*
%TD.AperFunction*%
%TD*%
%TA.AperFunction,Conductor*%
%TO.N,VDD*%
G36*
X72083641Y-84953351D02*
G01*
X72089503Y-84959449D01*
X72199115Y-85221790D01*
X72199142Y-85230745D01*
X72199115Y-85230812D01*
X72089503Y-85493152D01*
X72083151Y-85499464D01*
X72074694Y-85499630D01*
X71940947Y-85450794D01*
X71607687Y-85329107D01*
X71601091Y-85323051D01*
X71600000Y-85318117D01*
X71600000Y-85134484D01*
X71603427Y-85126211D01*
X71607687Y-85123494D01*
X72074697Y-84952970D01*
X72083641Y-84953351D01*
G37*
%TD.AperFunction*%
%TD*%
%TA.AperFunction,Conductor*%
%TO.N,/PGC3*%
G36*
X64253620Y-98301155D02*
G01*
X64418321Y-98371956D01*
X64424567Y-98378371D01*
X64425399Y-98382704D01*
X64425399Y-98567293D01*
X64421972Y-98575566D01*
X64418320Y-98578042D01*
X64253622Y-98648841D01*
X64246172Y-98649445D01*
X63591753Y-98486352D01*
X63584554Y-98481026D01*
X63583229Y-98472170D01*
X63588555Y-98464971D01*
X63591753Y-98463646D01*
X64246174Y-98300552D01*
X64253620Y-98301155D01*
G37*
%TD.AperFunction*%
%TD*%
%TA.AperFunction,Conductor*%
%TO.N,/PGC8*%
G36*
X66092313Y-104397193D02*
G01*
X66098909Y-104403249D01*
X66100000Y-104408183D01*
X66100000Y-104591816D01*
X66096573Y-104600089D01*
X66092313Y-104602806D01*
X65625305Y-104773330D01*
X65616358Y-104772949D01*
X65610496Y-104766851D01*
X65500883Y-104504509D01*
X65500857Y-104495556D01*
X65500862Y-104495542D01*
X65610496Y-104233147D01*
X65616848Y-104226836D01*
X65625302Y-104226669D01*
X66092313Y-104397193D01*
G37*
%TD.AperFunction*%
%TD*%
%TA.AperFunction,Conductor*%
%TO.N,/dspic/B5*%
G36*
X62075779Y-87689467D02*
G01*
X62081877Y-87695329D01*
X62291523Y-88146132D01*
X62291904Y-88155079D01*
X62289187Y-88159339D01*
X62159339Y-88289187D01*
X62151066Y-88292614D01*
X62146132Y-88291523D01*
X61852736Y-88155079D01*
X61695328Y-88081876D01*
X61689273Y-88075281D01*
X61689439Y-88066825D01*
X61797436Y-87803814D01*
X61803746Y-87797464D01*
X62066825Y-87689440D01*
X62075779Y-87689467D01*
G37*
%TD.AperFunction*%
%TD*%
%TA.AperFunction,Conductor*%
%TO.N,/GPIO18*%
G36*
X64875779Y-77689467D02*
G01*
X64881877Y-77695329D01*
X65091523Y-78146132D01*
X65091904Y-78155079D01*
X65089187Y-78159339D01*
X64959339Y-78289187D01*
X64951066Y-78292614D01*
X64946132Y-78291523D01*
X64652736Y-78155079D01*
X64495328Y-78081876D01*
X64489273Y-78075281D01*
X64489439Y-78066825D01*
X64597436Y-77803814D01*
X64603746Y-77797464D01*
X64866825Y-77689440D01*
X64875779Y-77689467D01*
G37*
%TD.AperFunction*%
%TD*%
%TA.AperFunction,Conductor*%
%TO.N,VDD*%
G36*
X70159201Y-97004421D02*
G01*
X70384147Y-97101701D01*
X70390380Y-97108130D01*
X70390242Y-97117084D01*
X70387776Y-97120713D01*
X70258593Y-97249896D01*
X70258491Y-97249997D01*
X70160276Y-97345839D01*
X70151962Y-97349164D01*
X70149264Y-97348815D01*
X69498044Y-97185797D01*
X69490850Y-97180464D01*
X69489535Y-97171606D01*
X69494868Y-97164412D01*
X69498111Y-97163081D01*
X70151788Y-97003793D01*
X70159201Y-97004421D01*
G37*
%TD.AperFunction*%
%TD*%
%TA.AperFunction,Conductor*%
%TO.N,/PGD6*%
G36*
X70159222Y-86301155D02*
G01*
X70323923Y-86371956D01*
X70330169Y-86378371D01*
X70331001Y-86382704D01*
X70331001Y-86567293D01*
X70327574Y-86575566D01*
X70323922Y-86578042D01*
X70159224Y-86648841D01*
X70151774Y-86649445D01*
X69497355Y-86486352D01*
X69490156Y-86481026D01*
X69488831Y-86472170D01*
X69494157Y-86464971D01*
X69497355Y-86463646D01*
X70151776Y-86300552D01*
X70159222Y-86301155D01*
G37*
%TD.AperFunction*%
%TD*%
%TA.AperFunction,Conductor*%
%TO.N,/GPIO10*%
G36*
X64853864Y-84108475D02*
G01*
X65304671Y-84318123D01*
X65310726Y-84324718D01*
X65310559Y-84333175D01*
X65202563Y-84596184D01*
X65196251Y-84602536D01*
X65196184Y-84602563D01*
X64933175Y-84710559D01*
X64924220Y-84710532D01*
X64918123Y-84704671D01*
X64708475Y-84253865D01*
X64708095Y-84244920D01*
X64710810Y-84240662D01*
X64840661Y-84110811D01*
X64848933Y-84107385D01*
X64853864Y-84108475D01*
G37*
%TD.AperFunction*%
%TD*%
%TA.AperFunction,Conductor*%
%TO.N,/dspic/B6*%
G36*
X65883641Y-101327050D02*
G01*
X65889503Y-101333148D01*
X65999115Y-101595489D01*
X65999142Y-101604444D01*
X65999115Y-101604511D01*
X65889503Y-101866851D01*
X65883151Y-101873163D01*
X65874694Y-101873329D01*
X65740947Y-101824493D01*
X65407687Y-101702806D01*
X65401091Y-101696750D01*
X65400000Y-101691816D01*
X65400000Y-101508183D01*
X65403427Y-101499910D01*
X65407687Y-101497193D01*
X65874697Y-101326669D01*
X65883641Y-101327050D01*
G37*
%TD.AperFunction*%
%TD*%
%TA.AperFunction,Conductor*%
%TO.N,/MCLR3*%
G36*
X64253620Y-74301155D02*
G01*
X64418321Y-74371956D01*
X64424567Y-74378371D01*
X64425399Y-74382704D01*
X64425399Y-74567293D01*
X64421972Y-74575566D01*
X64418320Y-74578042D01*
X64253622Y-74648841D01*
X64246172Y-74649445D01*
X63591753Y-74486352D01*
X63584554Y-74481026D01*
X63583229Y-74472170D01*
X63588555Y-74464971D01*
X63591753Y-74463646D01*
X64246174Y-74300552D01*
X64253620Y-74301155D01*
G37*
%TD.AperFunction*%
%TD*%
%TA.AperFunction,Conductor*%
%TO.N,GND*%
G36*
X57848377Y-105733952D02*
G01*
X57989798Y-105875373D01*
X57612132Y-106212132D01*
X57399293Y-106000707D01*
X57400000Y-105700000D01*
X57848377Y-105733952D01*
G37*
%TD.AperFunction*%
%TD*%
%TA.AperFunction,Conductor*%
%TO.N,/MCLR6*%
G36*
X72533174Y-104089439D02*
G01*
X72696804Y-104156629D01*
X72796184Y-104197436D01*
X72802536Y-104203748D01*
X72802563Y-104203815D01*
X72910559Y-104466824D01*
X72910532Y-104475779D01*
X72904670Y-104481877D01*
X72453867Y-104691523D01*
X72444920Y-104691904D01*
X72440660Y-104689187D01*
X72310812Y-104559339D01*
X72307385Y-104551066D01*
X72308474Y-104546136D01*
X72518124Y-104095327D01*
X72524718Y-104089273D01*
X72533174Y-104089439D01*
G37*
%TD.AperFunction*%
%TD*%
%TA.AperFunction,Conductor*%
%TO.N,/GPIO17*%
G36*
X63326420Y-82859992D02*
G01*
X63611700Y-83044333D01*
X63616789Y-83051701D01*
X63616181Y-83058585D01*
X63552356Y-83214815D01*
X63546055Y-83221178D01*
X63537100Y-83221221D01*
X63537039Y-83221196D01*
X63139903Y-83056310D01*
X63133576Y-83049972D01*
X63133583Y-83041018D01*
X63136113Y-83037234D01*
X63177062Y-82996286D01*
X63311801Y-82861546D01*
X63320073Y-82858120D01*
X63326420Y-82859992D01*
G37*
%TD.AperFunction*%
%TD*%
%TA.AperFunction,Conductor*%
%TO.N,/GPIO22*%
G36*
X70212108Y-83652888D02*
G01*
X70212661Y-83653407D01*
X70340290Y-83781036D01*
X70343717Y-83789309D01*
X70340290Y-83797582D01*
X70338549Y-83799016D01*
X70158916Y-83919886D01*
X70151614Y-83921854D01*
X69462269Y-83876380D01*
X69454239Y-83872416D01*
X69451369Y-83865537D01*
X69440380Y-83711346D01*
X69443210Y-83702850D01*
X69451217Y-83698844D01*
X70203630Y-83650005D01*
X70212108Y-83652888D01*
G37*
%TD.AperFunction*%
%TD*%
%TA.AperFunction,Conductor*%
%TO.N,GND*%
G36*
X75400000Y-105900000D02*
G01*
X75400000Y-106100000D01*
X74914805Y-106277164D01*
X74799000Y-106000000D01*
X74914805Y-105722836D01*
X75400000Y-105900000D01*
G37*
%TD.AperFunction*%
%TD*%
%TA.AperFunction,Conductor*%
%TO.N,/PGD8*%
G36*
X69259501Y-87726575D02*
G01*
X69408246Y-87763646D01*
X69415445Y-87768972D01*
X69416770Y-87777828D01*
X69411444Y-87785027D01*
X69408246Y-87786352D01*
X68753827Y-87949445D01*
X68746377Y-87948841D01*
X68581680Y-87878042D01*
X68575433Y-87871626D01*
X68574601Y-87867293D01*
X68574601Y-87682704D01*
X68578028Y-87674431D01*
X68581676Y-87671957D01*
X68746379Y-87601155D01*
X68753825Y-87600552D01*
X69259501Y-87726575D01*
G37*
%TD.AperFunction*%
%TD*%
%TA.AperFunction,Conductor*%
%TO.N,/PGD5*%
G36*
X69403479Y-85813897D02*
G01*
X69410881Y-85818935D01*
X69412553Y-85827733D01*
X69407515Y-85835135D01*
X69403939Y-85836702D01*
X68755493Y-85999026D01*
X68746635Y-85997711D01*
X68745514Y-85996946D01*
X68660556Y-85931528D01*
X68659421Y-85930531D01*
X68530191Y-85801301D01*
X68526764Y-85793028D01*
X68530191Y-85784755D01*
X68533383Y-85782489D01*
X68746428Y-85679816D01*
X68753884Y-85678902D01*
X69403479Y-85813897D01*
G37*
%TD.AperFunction*%
%TD*%
%TA.AperFunction,Conductor*%
%TO.N,VDD*%
G36*
X81432676Y-111617052D02*
G01*
X81434779Y-111619919D01*
X81671280Y-112073901D01*
X81672064Y-112082822D01*
X81666310Y-112089683D01*
X81665415Y-112090103D01*
X81404511Y-112199115D01*
X81395556Y-112199142D01*
X81395489Y-112199115D01*
X81131942Y-112088999D01*
X81125630Y-112082647D01*
X81125052Y-112075577D01*
X81229409Y-111622697D01*
X81234606Y-111615405D01*
X81240810Y-111613625D01*
X81424403Y-111613625D01*
X81432676Y-111617052D01*
G37*
%TD.AperFunction*%
%TD*%
%TA.AperFunction,Conductor*%
%TO.N,/GPIO17*%
G36*
X63266848Y-80110496D02*
G01*
X63273160Y-80116848D01*
X63273327Y-80125305D01*
X63102804Y-80592313D01*
X63096748Y-80598909D01*
X63091814Y-80600000D01*
X62908180Y-80600000D01*
X62899907Y-80596573D01*
X62897190Y-80592313D01*
X62726666Y-80125302D01*
X62727047Y-80116358D01*
X62733144Y-80110496D01*
X62995487Y-80000883D01*
X63004441Y-80000857D01*
X63266848Y-80110496D01*
G37*
%TD.AperFunction*%
%TD*%
%TA.AperFunction,Conductor*%
%TO.N,/MCLR2*%
G36*
X63353899Y-73776574D02*
G01*
X63502644Y-73813645D01*
X63509843Y-73818971D01*
X63511168Y-73827827D01*
X63505842Y-73835026D01*
X63502644Y-73836351D01*
X62848225Y-73999444D01*
X62840775Y-73998840D01*
X62676078Y-73928041D01*
X62669831Y-73921625D01*
X62668999Y-73917292D01*
X62668999Y-73732703D01*
X62672426Y-73724430D01*
X62676074Y-73721956D01*
X62840777Y-73651154D01*
X62848223Y-73650551D01*
X63353899Y-73776574D01*
G37*
%TD.AperFunction*%
%TD*%
%TA.AperFunction,Conductor*%
%TO.N,VDD*%
G36*
X70159222Y-85001158D02*
G01*
X70323923Y-85071959D01*
X70330169Y-85078374D01*
X70331001Y-85082707D01*
X70331001Y-85267296D01*
X70327574Y-85275569D01*
X70323922Y-85278045D01*
X70159224Y-85348844D01*
X70151774Y-85349448D01*
X69497355Y-85186355D01*
X69490156Y-85181029D01*
X69488831Y-85172173D01*
X69494157Y-85164974D01*
X69497355Y-85163649D01*
X70151776Y-85000555D01*
X70159222Y-85001158D01*
G37*
%TD.AperFunction*%
%TD*%
%TA.AperFunction,Conductor*%
%TO.N,/MCLR*%
G36*
X64253620Y-75601155D02*
G01*
X64418321Y-75671956D01*
X64424567Y-75678371D01*
X64425399Y-75682704D01*
X64425399Y-75867293D01*
X64421972Y-75875566D01*
X64418320Y-75878042D01*
X64253622Y-75948841D01*
X64246172Y-75949445D01*
X63591753Y-75786352D01*
X63584554Y-75781026D01*
X63583229Y-75772170D01*
X63588555Y-75764971D01*
X63591753Y-75763646D01*
X64246174Y-75600552D01*
X64253620Y-75601155D01*
G37*
%TD.AperFunction*%
%TD*%
%TA.AperFunction,Conductor*%
%TO.N,/dspic/B4*%
G36*
X55192313Y-70497193D02*
G01*
X55198909Y-70503249D01*
X55200000Y-70508183D01*
X55200000Y-70691816D01*
X55196573Y-70700089D01*
X55192313Y-70702806D01*
X54725305Y-70873330D01*
X54716358Y-70872949D01*
X54710496Y-70866851D01*
X54600883Y-70604509D01*
X54600857Y-70595556D01*
X54600862Y-70595542D01*
X54710496Y-70333147D01*
X54716848Y-70326836D01*
X54725302Y-70326669D01*
X55192313Y-70497193D01*
G37*
%TD.AperFunction*%
%TD*%
%TA.AperFunction,Conductor*%
%TO.N,/MCLR3*%
G36*
X66282130Y-74251649D02*
G01*
X66287072Y-74257268D01*
X66397051Y-74520487D01*
X66397078Y-74529442D01*
X66397051Y-74529509D01*
X66287873Y-74790811D01*
X66281521Y-74797123D01*
X66272566Y-74797096D01*
X66272031Y-74796856D01*
X65814535Y-74578179D01*
X65808549Y-74571519D01*
X65807881Y-74567623D01*
X65807881Y-74383979D01*
X65811308Y-74375706D01*
X65816555Y-74372677D01*
X66273252Y-74250477D01*
X66282130Y-74251649D01*
G37*
%TD.AperFunction*%
%TD*%
%TA.AperFunction,Conductor*%
%TO.N,/PGD4*%
G36*
X63353899Y-87076574D02*
G01*
X63502644Y-87113645D01*
X63509843Y-87118971D01*
X63511168Y-87127827D01*
X63505842Y-87135026D01*
X63502644Y-87136351D01*
X62848225Y-87299444D01*
X62840775Y-87298840D01*
X62676078Y-87228041D01*
X62669831Y-87221625D01*
X62668999Y-87217292D01*
X62668999Y-87032703D01*
X62672426Y-87024430D01*
X62676074Y-87021956D01*
X62840777Y-86951154D01*
X62848223Y-86950551D01*
X63353899Y-87076574D01*
G37*
%TD.AperFunction*%
%TD*%
%TA.AperFunction,Conductor*%
%TO.N,VDD*%
G36*
X72716811Y-54918096D02*
G01*
X72723123Y-54924448D01*
X72723290Y-54932905D01*
X72552767Y-55399913D01*
X72546711Y-55406509D01*
X72541777Y-55407600D01*
X72358143Y-55407600D01*
X72349870Y-55404173D01*
X72347153Y-55399913D01*
X72176629Y-54932902D01*
X72177010Y-54923958D01*
X72183107Y-54918096D01*
X72445450Y-54808483D01*
X72454404Y-54808457D01*
X72716811Y-54918096D01*
G37*
%TD.AperFunction*%
%TD*%
%TA.AperFunction,Conductor*%
%TO.N,/MCLR4*%
G36*
X66883641Y-74852048D02*
G01*
X66889503Y-74858146D01*
X66999115Y-75120487D01*
X66999142Y-75129442D01*
X66999115Y-75129509D01*
X66889503Y-75391849D01*
X66883151Y-75398161D01*
X66874694Y-75398327D01*
X66740947Y-75349491D01*
X66407687Y-75227804D01*
X66401091Y-75221748D01*
X66400000Y-75216814D01*
X66400000Y-75037198D01*
X66403427Y-75028925D01*
X66411700Y-75025498D01*
X66469897Y-75025498D01*
X66607989Y-74984951D01*
X66729064Y-74907141D01*
X66729990Y-74906072D01*
X66734818Y-74902742D01*
X66874697Y-74851667D01*
X66883641Y-74852048D01*
G37*
%TD.AperFunction*%
%TD*%
%TA.AperFunction,Conductor*%
%TO.N,/PGC5*%
G36*
X61883811Y-97526913D02*
G01*
X61889389Y-97532874D01*
X61999115Y-97795489D01*
X61999142Y-97804444D01*
X61999115Y-97804511D01*
X61889637Y-98066531D01*
X61883285Y-98072843D01*
X61874495Y-98072882D01*
X61708130Y-98006317D01*
X61410481Y-97887222D01*
X61404073Y-97880967D01*
X61403127Y-97876359D01*
X61403127Y-97692699D01*
X61406554Y-97684426D01*
X61411109Y-97681606D01*
X61874878Y-97526291D01*
X61883811Y-97526913D01*
G37*
%TD.AperFunction*%
%TD*%
%TA.AperFunction,Conductor*%
%TO.N,+3.3V*%
G36*
X73501604Y-55061727D02*
G01*
X73503335Y-55063933D01*
X73650535Y-55306717D01*
X73651894Y-55315567D01*
X73650945Y-55318112D01*
X73410335Y-55788249D01*
X73403516Y-55794053D01*
X73394590Y-55793334D01*
X73389505Y-55788249D01*
X73286183Y-55586366D01*
X73148893Y-55318110D01*
X73148175Y-55309186D01*
X73149299Y-55306726D01*
X73296504Y-55063933D01*
X73303724Y-55058636D01*
X73306509Y-55058300D01*
X73493331Y-55058300D01*
X73501604Y-55061727D01*
G37*
%TD.AperFunction*%
%TD*%
%TA.AperFunction,Conductor*%
%TO.N,GND*%
G36*
X81608664Y-104714805D02*
G01*
X81431500Y-105200000D01*
X81231500Y-105200000D01*
X81054336Y-104714805D01*
X81331500Y-104599000D01*
X81608664Y-104714805D01*
G37*
%TD.AperFunction*%
%TD*%
%TA.AperFunction,Conductor*%
%TO.N,/GPIO23*%
G36*
X73900090Y-94803427D02*
G01*
X73902807Y-94807687D01*
X74073330Y-95274694D01*
X74072949Y-95283641D01*
X74066851Y-95289503D01*
X73804511Y-95399115D01*
X73795556Y-95399142D01*
X73795489Y-95399115D01*
X73533148Y-95289503D01*
X73526836Y-95283151D01*
X73526669Y-95274697D01*
X73697193Y-94807686D01*
X73703249Y-94801091D01*
X73708183Y-94800000D01*
X73891817Y-94800000D01*
X73900090Y-94803427D01*
G37*
%TD.AperFunction*%
%TD*%
%TA.AperFunction,Conductor*%
%TO.N,/PGC4*%
G36*
X64253503Y-99024582D02*
G01*
X64446137Y-99135344D01*
X64451601Y-99142439D01*
X64450448Y-99151319D01*
X64448578Y-99153760D01*
X64320310Y-99282028D01*
X64314721Y-99285143D01*
X64252766Y-99299745D01*
X64247241Y-99299707D01*
X63604126Y-99138718D01*
X63596932Y-99133385D01*
X63595617Y-99124527D01*
X63600950Y-99117333D01*
X63605289Y-99115789D01*
X64245999Y-99023146D01*
X64253503Y-99024582D01*
G37*
%TD.AperFunction*%
%TD*%
%TA.AperFunction,Conductor*%
%TO.N,/GPIO24*%
G36*
X70503399Y-88702766D02*
G01*
X70503446Y-88702813D01*
X70705350Y-88905669D01*
X70708757Y-88913951D01*
X70706761Y-88920458D01*
X70479085Y-89258605D01*
X70475677Y-89263666D01*
X70468214Y-89268614D01*
X70465972Y-89268831D01*
X70282507Y-89268831D01*
X70274234Y-89265404D01*
X70270900Y-89258605D01*
X70227128Y-88913951D01*
X70201667Y-88713478D01*
X70204024Y-88704841D01*
X70211800Y-88700399D01*
X70213220Y-88700306D01*
X70495114Y-88699367D01*
X70503399Y-88702766D01*
G37*
%TD.AperFunction*%
%TD*%
%TA.AperFunction,Conductor*%
%TO.N,/dspic/B7*%
G36*
X65653864Y-102308475D02*
G01*
X66104671Y-102518123D01*
X66110726Y-102524718D01*
X66110559Y-102533175D01*
X66002563Y-102796184D01*
X65996251Y-102802536D01*
X65996184Y-102802563D01*
X65733175Y-102910559D01*
X65724220Y-102910532D01*
X65718123Y-102904671D01*
X65508475Y-102453865D01*
X65508095Y-102444920D01*
X65510810Y-102440662D01*
X65640661Y-102310811D01*
X65648933Y-102307385D01*
X65653864Y-102308475D01*
G37*
%TD.AperFunction*%
%TD*%
%TA.AperFunction,Conductor*%
%TO.N,/PGC6*%
G36*
X70159222Y-98301155D02*
G01*
X70323923Y-98371956D01*
X70330169Y-98378371D01*
X70331001Y-98382704D01*
X70331001Y-98567293D01*
X70327574Y-98575566D01*
X70323922Y-98578042D01*
X70159224Y-98648841D01*
X70151774Y-98649445D01*
X69497355Y-98486352D01*
X69490156Y-98481026D01*
X69488831Y-98472170D01*
X69494157Y-98464971D01*
X69497355Y-98463646D01*
X70151776Y-98300552D01*
X70159222Y-98301155D01*
G37*
%TD.AperFunction*%
%TD*%
%TA.AperFunction,Conductor*%
%TO.N,/PGC2*%
G36*
X61333174Y-95838369D02*
G01*
X61496804Y-95905559D01*
X61596184Y-95946366D01*
X61602536Y-95952678D01*
X61602563Y-95952745D01*
X61710559Y-96215754D01*
X61710532Y-96224709D01*
X61704670Y-96230807D01*
X61253867Y-96440453D01*
X61244920Y-96440834D01*
X61240660Y-96438117D01*
X61110812Y-96308269D01*
X61107385Y-96299996D01*
X61108474Y-96295066D01*
X61318124Y-95844257D01*
X61324718Y-95838203D01*
X61333174Y-95838369D01*
G37*
%TD.AperFunction*%
%TD*%
%TA.AperFunction,Conductor*%
%TO.N,/GPIO2*%
G36*
X73475779Y-102840940D02*
G01*
X73481877Y-102846802D01*
X73691523Y-103297605D01*
X73691904Y-103306552D01*
X73689187Y-103310812D01*
X73559339Y-103440660D01*
X73551066Y-103444087D01*
X73546132Y-103442996D01*
X73252736Y-103306552D01*
X73095328Y-103233349D01*
X73089273Y-103226754D01*
X73089439Y-103218298D01*
X73197436Y-102955287D01*
X73203746Y-102948937D01*
X73466825Y-102840913D01*
X73475779Y-102840940D01*
G37*
%TD.AperFunction*%
%TD*%
%TA.AperFunction,Conductor*%
%TO.N,GND*%
G36*
X74252899Y-79060930D02*
G01*
X73975735Y-79176735D01*
X73698571Y-79060930D01*
X73875735Y-78575735D01*
X74075735Y-78575735D01*
X74252899Y-79060930D01*
G37*
%TD.AperFunction*%
%TD*%
%TA.AperFunction,Conductor*%
%TO.N,GND*%
G36*
X58777164Y-87485195D02*
G01*
X58500000Y-87601000D01*
X58222836Y-87485195D01*
X58400000Y-87000000D01*
X58600000Y-87000000D01*
X58777164Y-87485195D01*
G37*
%TD.AperFunction*%
%TD*%
%TA.AperFunction,Conductor*%
%TO.N,/GPIO10*%
G36*
X64253620Y-83701155D02*
G01*
X64418321Y-83771956D01*
X64424567Y-83778371D01*
X64425399Y-83782704D01*
X64425399Y-83967293D01*
X64421972Y-83975566D01*
X64418320Y-83978042D01*
X64253622Y-84048841D01*
X64246172Y-84049445D01*
X63591753Y-83886352D01*
X63584554Y-83881026D01*
X63583229Y-83872170D01*
X63588555Y-83864971D01*
X63591753Y-83863646D01*
X64246174Y-83700552D01*
X64253620Y-83701155D01*
G37*
%TD.AperFunction*%
%TD*%
%TA.AperFunction,Conductor*%
%TO.N,/PGC2*%
G36*
X64253620Y-97651154D02*
G01*
X64418321Y-97721955D01*
X64424567Y-97728370D01*
X64425399Y-97732703D01*
X64425399Y-97917292D01*
X64421972Y-97925565D01*
X64418320Y-97928041D01*
X64253622Y-97998840D01*
X64246172Y-97999444D01*
X63591753Y-97836351D01*
X63584554Y-97831025D01*
X63583229Y-97822169D01*
X63588555Y-97814970D01*
X63591753Y-97813645D01*
X64246174Y-97650551D01*
X64253620Y-97651154D01*
G37*
%TD.AperFunction*%
%TD*%
%TA.AperFunction,Conductor*%
%TO.N,/MCLR6*%
G36*
X70459339Y-81240087D02*
G01*
X70589187Y-81369935D01*
X70592614Y-81378208D01*
X70591523Y-81383142D01*
X70381877Y-81833945D01*
X70375281Y-81840001D01*
X70366824Y-81839834D01*
X70103815Y-81731838D01*
X70097463Y-81725526D01*
X70097436Y-81725459D01*
X69989440Y-81462450D01*
X69989467Y-81453495D01*
X69995326Y-81447399D01*
X70446134Y-81237750D01*
X70455079Y-81237370D01*
X70459339Y-81240087D01*
G37*
%TD.AperFunction*%
%TD*%
%TA.AperFunction,Conductor*%
%TO.N,VDD*%
G36*
X71505330Y-58514265D02*
G01*
X71510415Y-58519350D01*
X71751025Y-58989487D01*
X71751744Y-58998413D01*
X71750615Y-59000883D01*
X71603416Y-59243666D01*
X71596196Y-59248964D01*
X71593411Y-59249300D01*
X71406589Y-59249300D01*
X71398316Y-59245873D01*
X71396584Y-59243666D01*
X71249383Y-59000880D01*
X71248025Y-58992032D01*
X71248971Y-58989494D01*
X71489585Y-58519349D01*
X71496404Y-58513546D01*
X71505330Y-58514265D01*
G37*
%TD.AperFunction*%
%TD*%
%TA.AperFunction,Conductor*%
%TO.N,/GPIO10*%
G36*
X72883641Y-69927050D02*
G01*
X72889503Y-69933148D01*
X72999115Y-70195489D01*
X72999142Y-70204444D01*
X72999115Y-70204511D01*
X72889503Y-70466851D01*
X72883151Y-70473163D01*
X72874694Y-70473329D01*
X72740947Y-70424493D01*
X72407687Y-70302806D01*
X72401091Y-70296750D01*
X72400000Y-70291816D01*
X72400000Y-70108183D01*
X72403427Y-70099910D01*
X72407687Y-70097193D01*
X72874697Y-69926669D01*
X72883641Y-69927050D01*
G37*
%TD.AperFunction*%
%TD*%
%TA.AperFunction,Conductor*%
%TO.N,/GPIO17*%
G36*
X63647766Y-94877628D02*
G01*
X63650242Y-94881280D01*
X63719476Y-95042336D01*
X63719595Y-95051290D01*
X63717024Y-95055207D01*
X63555496Y-95217656D01*
X63547232Y-95221106D01*
X63538949Y-95217703D01*
X63538902Y-95217656D01*
X63377373Y-95055207D01*
X63373970Y-95046924D01*
X63374920Y-95042340D01*
X63444156Y-94881280D01*
X63450572Y-94875033D01*
X63454905Y-94874201D01*
X63639493Y-94874201D01*
X63647766Y-94877628D01*
G37*
%TD.AperFunction*%
%TD*%
%TA.AperFunction,Conductor*%
%TO.N,/dspic/B4*%
G36*
X57466851Y-100510496D02*
G01*
X57473163Y-100516848D01*
X57473330Y-100525305D01*
X57302807Y-100992313D01*
X57296751Y-100998909D01*
X57291817Y-101000000D01*
X57108183Y-101000000D01*
X57099910Y-100996573D01*
X57097193Y-100992313D01*
X56926669Y-100525302D01*
X56927050Y-100516358D01*
X56933147Y-100510496D01*
X57195490Y-100400883D01*
X57204444Y-100400857D01*
X57466851Y-100510496D01*
G37*
%TD.AperFunction*%
%TD*%
%TA.AperFunction,Conductor*%
%TO.N,/MCLR5*%
G36*
X69403479Y-73813897D02*
G01*
X69410881Y-73818935D01*
X69412553Y-73827733D01*
X69407515Y-73835135D01*
X69403939Y-73836702D01*
X68755493Y-73999026D01*
X68746635Y-73997711D01*
X68745514Y-73996946D01*
X68660556Y-73931528D01*
X68659421Y-73930531D01*
X68530191Y-73801301D01*
X68526764Y-73793028D01*
X68530191Y-73784755D01*
X68533383Y-73782489D01*
X68746428Y-73679816D01*
X68753884Y-73678902D01*
X69403479Y-73813897D01*
G37*
%TD.AperFunction*%
%TD*%
%TA.AperFunction,Conductor*%
%TO.N,/PGC3*%
G36*
X64631675Y-98251649D02*
G01*
X64636617Y-98257268D01*
X64746596Y-98520487D01*
X64746623Y-98529442D01*
X64746596Y-98529509D01*
X64637418Y-98790811D01*
X64631066Y-98797123D01*
X64622111Y-98797096D01*
X64621576Y-98796856D01*
X64164080Y-98578179D01*
X64158094Y-98571519D01*
X64157426Y-98567623D01*
X64157426Y-98383979D01*
X64160853Y-98375706D01*
X64166100Y-98372677D01*
X64622797Y-98250477D01*
X64631675Y-98251649D01*
G37*
%TD.AperFunction*%
%TD*%
%TA.AperFunction,Conductor*%
%TO.N,/GPIO27*%
G36*
X69688199Y-82861547D02*
G01*
X69863883Y-83037231D01*
X69867310Y-83045504D01*
X69863883Y-83053777D01*
X69860096Y-83056310D01*
X69462960Y-83221196D01*
X69454006Y-83221203D01*
X69447669Y-83214877D01*
X69383818Y-83058584D01*
X69383861Y-83049630D01*
X69388297Y-83044335D01*
X69673579Y-82859992D01*
X69682385Y-82858381D01*
X69688199Y-82861547D01*
G37*
%TD.AperFunction*%
%TD*%
%TA.AperFunction,Conductor*%
%TO.N,/MCLR6*%
G36*
X70159222Y-74301155D02*
G01*
X70323923Y-74371956D01*
X70330169Y-74378371D01*
X70331001Y-74382704D01*
X70331001Y-74567293D01*
X70327574Y-74575566D01*
X70323922Y-74578042D01*
X70159224Y-74648841D01*
X70151774Y-74649445D01*
X69497355Y-74486352D01*
X69490156Y-74481026D01*
X69488831Y-74472170D01*
X69494157Y-74464971D01*
X69497355Y-74463646D01*
X70151776Y-74300552D01*
X70159222Y-74301155D01*
G37*
%TD.AperFunction*%
%TD*%
%TA.AperFunction,Conductor*%
%TO.N,/PGC4*%
G36*
X66285949Y-96399966D02*
G01*
X66294213Y-96403412D01*
X66297620Y-96411693D01*
X66297421Y-96413813D01*
X66212797Y-96867146D01*
X66209569Y-96873272D01*
X66080523Y-97002318D01*
X66072250Y-97005745D01*
X66063977Y-97002318D01*
X66062697Y-97000800D01*
X65793543Y-96620158D01*
X65791564Y-96611424D01*
X65794793Y-96605160D01*
X65995851Y-96402757D01*
X66004111Y-96399304D01*
X66285949Y-96399966D01*
G37*
%TD.AperFunction*%
%TD*%
%TA.AperFunction,Conductor*%
%TO.N,VDD*%
G36*
X72338585Y-72787888D02*
G01*
X72339575Y-72789759D01*
X72449057Y-73051788D01*
X72449961Y-73056338D01*
X72449013Y-73340593D01*
X72445559Y-73348855D01*
X72437274Y-73352254D01*
X72435716Y-73352144D01*
X71886068Y-73276394D01*
X71878340Y-73271870D01*
X71875965Y-73264804D01*
X71875965Y-73081347D01*
X71879392Y-73073074D01*
X71881283Y-73071541D01*
X72322399Y-72784463D01*
X72331200Y-72782823D01*
X72338585Y-72787888D01*
G37*
%TD.AperFunction*%
%TD*%
%TA.AperFunction,Conductor*%
%TO.N,GND*%
G36*
X60514805Y-114922836D02*
G01*
X60400707Y-115200707D01*
X60122836Y-115314805D01*
X59905026Y-114846447D01*
X60046447Y-114705026D01*
X60514805Y-114922836D01*
G37*
%TD.AperFunction*%
%TD*%
%TA.AperFunction,Conductor*%
%TO.N,/PGD1*%
G36*
X62075779Y-84089467D02*
G01*
X62081877Y-84095329D01*
X62291523Y-84546132D01*
X62291904Y-84555079D01*
X62289187Y-84559339D01*
X62159339Y-84689187D01*
X62151066Y-84692614D01*
X62146132Y-84691523D01*
X61852736Y-84555079D01*
X61695328Y-84481876D01*
X61689273Y-84475281D01*
X61689439Y-84466825D01*
X61797436Y-84203814D01*
X61803746Y-84197464D01*
X62066825Y-84089440D01*
X62075779Y-84089467D01*
G37*
%TD.AperFunction*%
%TD*%
%TA.AperFunction,Conductor*%
%TO.N,/dspic/B5*%
G36*
X60900090Y-83603427D02*
G01*
X60902807Y-83607687D01*
X61073330Y-84074694D01*
X61072949Y-84083641D01*
X61066851Y-84089503D01*
X60804511Y-84199115D01*
X60795556Y-84199142D01*
X60795489Y-84199115D01*
X60533148Y-84089503D01*
X60526836Y-84083151D01*
X60526669Y-84074697D01*
X60697193Y-83607686D01*
X60703249Y-83601091D01*
X60708183Y-83600000D01*
X60891817Y-83600000D01*
X60900090Y-83603427D01*
G37*
%TD.AperFunction*%
%TD*%
%TA.AperFunction,Conductor*%
%TO.N,/dspic/B3*%
G36*
X61083641Y-106927050D02*
G01*
X61089503Y-106933148D01*
X61199115Y-107195489D01*
X61199142Y-107204444D01*
X61199115Y-107204511D01*
X61089503Y-107466851D01*
X61083151Y-107473163D01*
X61074694Y-107473329D01*
X60940947Y-107424493D01*
X60607687Y-107302806D01*
X60601091Y-107296750D01*
X60600000Y-107291816D01*
X60600000Y-107108183D01*
X60603427Y-107099910D01*
X60607687Y-107097193D01*
X61074697Y-106926669D01*
X61083641Y-106927050D01*
G37*
%TD.AperFunction*%
%TD*%
%TA.AperFunction,Conductor*%
%TO.N,/dspic/B10*%
G36*
X78359339Y-112510812D02*
G01*
X78489187Y-112640660D01*
X78492614Y-112648933D01*
X78491523Y-112653867D01*
X78281877Y-113104670D01*
X78275281Y-113110726D01*
X78266824Y-113110559D01*
X78003815Y-113002563D01*
X77997463Y-112996251D01*
X77997436Y-112996184D01*
X77889440Y-112733175D01*
X77889467Y-112724220D01*
X77895326Y-112718124D01*
X78346134Y-112508475D01*
X78355079Y-112508095D01*
X78359339Y-112510812D01*
G37*
%TD.AperFunction*%
%TD*%
%TA.AperFunction,Conductor*%
%TO.N,/MCLR4*%
G36*
X64253620Y-74951154D02*
G01*
X64418321Y-75021955D01*
X64424567Y-75028370D01*
X64425399Y-75032703D01*
X64425399Y-75217292D01*
X64421972Y-75225565D01*
X64418320Y-75228041D01*
X64253622Y-75298840D01*
X64246172Y-75299444D01*
X63591753Y-75136351D01*
X63584554Y-75131025D01*
X63583229Y-75122169D01*
X63588555Y-75114970D01*
X63591753Y-75113645D01*
X64246174Y-74950551D01*
X64253620Y-74951154D01*
G37*
%TD.AperFunction*%
%TD*%
%TA.AperFunction,Conductor*%
%TO.N,Net-(U5-G)*%
G36*
X73405250Y-58514265D02*
G01*
X73410335Y-58519350D01*
X73650945Y-58989487D01*
X73651664Y-58998413D01*
X73650535Y-59000883D01*
X73503336Y-59243666D01*
X73496116Y-59248964D01*
X73493331Y-59249300D01*
X73306509Y-59249300D01*
X73298236Y-59245873D01*
X73296504Y-59243666D01*
X73149303Y-59000880D01*
X73147945Y-58992032D01*
X73148891Y-58989494D01*
X73389505Y-58519349D01*
X73396324Y-58513546D01*
X73405250Y-58514265D01*
G37*
%TD.AperFunction*%
%TD*%
%TA.AperFunction,Conductor*%
%TO.N,/dspic/B11*%
G36*
X74792313Y-111297193D02*
G01*
X74798909Y-111303249D01*
X74800000Y-111308183D01*
X74800000Y-111491816D01*
X74796573Y-111500089D01*
X74792313Y-111502806D01*
X74325305Y-111673330D01*
X74316358Y-111672949D01*
X74310496Y-111666851D01*
X74200883Y-111404509D01*
X74200857Y-111395556D01*
X74200862Y-111395542D01*
X74310496Y-111133147D01*
X74316848Y-111126836D01*
X74325302Y-111126669D01*
X74792313Y-111297193D01*
G37*
%TD.AperFunction*%
%TD*%
%TA.AperFunction,Conductor*%
%TO.N,VDD*%
G36*
X72550050Y-59011027D02*
G01*
X72552767Y-59015287D01*
X72723290Y-59482294D01*
X72722909Y-59491241D01*
X72716811Y-59497103D01*
X72454471Y-59606715D01*
X72445516Y-59606742D01*
X72445449Y-59606715D01*
X72183108Y-59497103D01*
X72176796Y-59490751D01*
X72176629Y-59482297D01*
X72347153Y-59015286D01*
X72353209Y-59008691D01*
X72358143Y-59007600D01*
X72541777Y-59007600D01*
X72550050Y-59011027D01*
G37*
%TD.AperFunction*%
%TD*%
%TA.AperFunction,Conductor*%
%TO.N,/MCLR5*%
G36*
X67914059Y-74410748D02*
G01*
X67914888Y-74411501D01*
X68044324Y-74540937D01*
X68047673Y-74547865D01*
X68098493Y-74986985D01*
X68096040Y-74995597D01*
X68088216Y-74999952D01*
X68086899Y-75000030D01*
X67804179Y-75000695D01*
X67795897Y-74997288D01*
X67795850Y-74997241D01*
X67595334Y-74795384D01*
X67591935Y-74787099D01*
X67594609Y-74779694D01*
X67897590Y-74412329D01*
X67905496Y-74408128D01*
X67914059Y-74410748D01*
G37*
%TD.AperFunction*%
%TD*%
%TA.AperFunction,Conductor*%
%TO.N,/PGD3*%
G36*
X63353899Y-86426575D02*
G01*
X63502644Y-86463646D01*
X63509843Y-86468972D01*
X63511168Y-86477828D01*
X63505842Y-86485027D01*
X63502644Y-86486352D01*
X62848225Y-86649445D01*
X62840775Y-86648841D01*
X62676078Y-86578042D01*
X62669831Y-86571626D01*
X62668999Y-86567293D01*
X62668999Y-86382704D01*
X62672426Y-86374431D01*
X62676074Y-86371957D01*
X62840777Y-86301155D01*
X62848223Y-86300552D01*
X63353899Y-86426575D01*
G37*
%TD.AperFunction*%
%TD*%
%TA.AperFunction,Conductor*%
%TO.N,/dspic/B4*%
G36*
X61333174Y-103289439D02*
G01*
X61496804Y-103356629D01*
X61596184Y-103397436D01*
X61602536Y-103403748D01*
X61602563Y-103403815D01*
X61710559Y-103666824D01*
X61710532Y-103675779D01*
X61704670Y-103681877D01*
X61253867Y-103891523D01*
X61244920Y-103891904D01*
X61240660Y-103889187D01*
X61110812Y-103759339D01*
X61107385Y-103751066D01*
X61108474Y-103746136D01*
X61318124Y-103295327D01*
X61324718Y-103289273D01*
X61333174Y-103289439D01*
G37*
%TD.AperFunction*%
%TD*%
%TA.AperFunction,Conductor*%
%TO.N,/GPIO17*%
G36*
X63500717Y-71214032D02*
G01*
X63508007Y-71219233D01*
X63509484Y-71228065D01*
X63504283Y-71235355D01*
X63500913Y-71236785D01*
X62847728Y-71399571D01*
X62841149Y-71399301D01*
X62676949Y-71343741D01*
X62670211Y-71337843D01*
X62668999Y-71332658D01*
X62668999Y-71148627D01*
X62672426Y-71140354D01*
X62675911Y-71137952D01*
X62840812Y-71064026D01*
X62848226Y-71063303D01*
X63500717Y-71214032D01*
G37*
%TD.AperFunction*%
%TD*%
%TA.AperFunction,Conductor*%
%TO.N,/MCLR8*%
G36*
X69600090Y-78903427D02*
G01*
X69602807Y-78907687D01*
X69773330Y-79374694D01*
X69772949Y-79383641D01*
X69766851Y-79389503D01*
X69504511Y-79499115D01*
X69495556Y-79499142D01*
X69495489Y-79499115D01*
X69233148Y-79389503D01*
X69226836Y-79383151D01*
X69226669Y-79374697D01*
X69397193Y-78907686D01*
X69403249Y-78901091D01*
X69408183Y-78900000D01*
X69591817Y-78900000D01*
X69600090Y-78903427D01*
G37*
%TD.AperFunction*%
%TD*%
%TA.AperFunction,Conductor*%
%TO.N,/dspic/B2*%
G36*
X57992313Y-109145943D02*
G01*
X57998909Y-109151999D01*
X58000000Y-109156933D01*
X58000000Y-109340566D01*
X57996573Y-109348839D01*
X57992313Y-109351556D01*
X57525305Y-109522080D01*
X57516358Y-109521699D01*
X57510496Y-109515601D01*
X57400883Y-109253259D01*
X57400857Y-109244306D01*
X57400862Y-109244292D01*
X57510496Y-108981897D01*
X57516848Y-108975586D01*
X57525302Y-108975419D01*
X57992313Y-109145943D01*
G37*
%TD.AperFunction*%
%TD*%
%TA.AperFunction,Conductor*%
%TO.N,/GPIO22*%
G36*
X70159222Y-71701158D02*
G01*
X70323923Y-71771959D01*
X70330169Y-71778374D01*
X70331001Y-71782707D01*
X70331001Y-71967296D01*
X70327574Y-71975569D01*
X70323922Y-71978045D01*
X70159224Y-72048844D01*
X70151774Y-72049448D01*
X69497355Y-71886355D01*
X69490156Y-71881029D01*
X69488831Y-71872173D01*
X69494157Y-71864974D01*
X69497355Y-71863649D01*
X70151776Y-71700555D01*
X70159222Y-71701158D01*
G37*
%TD.AperFunction*%
%TD*%
%TA.AperFunction,Conductor*%
%TO.N,GND*%
G36*
X59114805Y-68322836D02*
G01*
X59000707Y-68600707D01*
X58722836Y-68714805D01*
X58505026Y-68246447D01*
X58646447Y-68105026D01*
X59114805Y-68322836D01*
G37*
%TD.AperFunction*%
%TD*%
%TA.AperFunction,Conductor*%
%TO.N,/PGD8*%
G36*
X67407867Y-88559340D02*
G01*
X67537715Y-88689188D01*
X67541142Y-88697461D01*
X67540051Y-88702395D01*
X67330405Y-89153198D01*
X67323809Y-89159254D01*
X67315352Y-89159087D01*
X67052343Y-89051091D01*
X67045991Y-89044779D01*
X67045964Y-89044712D01*
X66937968Y-88781703D01*
X66937995Y-88772748D01*
X66943854Y-88766652D01*
X67394662Y-88557003D01*
X67403607Y-88556623D01*
X67407867Y-88559340D01*
G37*
%TD.AperFunction*%
%TD*%
%TA.AperFunction,Conductor*%
%TO.N,/PGD6*%
G36*
X71300435Y-92007550D02*
G01*
X71302982Y-92011372D01*
X71493465Y-92474433D01*
X71493443Y-92483388D01*
X71487156Y-92489680D01*
X71225239Y-92599115D01*
X71216284Y-92599142D01*
X71216217Y-92599115D01*
X70953515Y-92489352D01*
X70947203Y-92483000D01*
X70946900Y-92474938D01*
X71097373Y-92012205D01*
X71103190Y-92005397D01*
X71108499Y-92004123D01*
X71292162Y-92004123D01*
X71300435Y-92007550D01*
G37*
%TD.AperFunction*%
%TD*%
%TA.AperFunction,Conductor*%
%TO.N,/dspic/B6*%
G36*
X61043184Y-93746521D02*
G01*
X61045901Y-93750781D01*
X61216424Y-94217788D01*
X61216043Y-94226735D01*
X61209945Y-94232597D01*
X60947605Y-94342209D01*
X60938650Y-94342236D01*
X60938583Y-94342209D01*
X60676242Y-94232597D01*
X60669930Y-94226245D01*
X60669763Y-94217791D01*
X60840287Y-93750780D01*
X60846343Y-93744185D01*
X60851277Y-93743094D01*
X61034911Y-93743094D01*
X61043184Y-93746521D01*
G37*
%TD.AperFunction*%
%TD*%
%TA.AperFunction,Conductor*%
%TO.N,VDD*%
G36*
X71766851Y-54918096D02*
G01*
X71773163Y-54924448D01*
X71773330Y-54932905D01*
X71602807Y-55399913D01*
X71596751Y-55406509D01*
X71591817Y-55407600D01*
X71408183Y-55407600D01*
X71399910Y-55404173D01*
X71397193Y-55399913D01*
X71226669Y-54932902D01*
X71227050Y-54923958D01*
X71233147Y-54918096D01*
X71495490Y-54808483D01*
X71504444Y-54808457D01*
X71766851Y-54918096D01*
G37*
%TD.AperFunction*%
%TD*%
%TA.AperFunction,Conductor*%
%TO.N,/PGC4*%
G36*
X65253864Y-93308475D02*
G01*
X65704671Y-93518123D01*
X65710726Y-93524718D01*
X65710559Y-93533175D01*
X65602563Y-93796184D01*
X65596251Y-93802536D01*
X65596184Y-93802563D01*
X65333175Y-93910559D01*
X65324220Y-93910532D01*
X65318123Y-93904671D01*
X65108475Y-93453865D01*
X65108095Y-93444920D01*
X65110810Y-93440662D01*
X65240661Y-93310811D01*
X65248933Y-93307385D01*
X65253864Y-93308475D01*
G37*
%TD.AperFunction*%
%TD*%
%TA.AperFunction,Conductor*%
%TO.N,VDD*%
G36*
X72551644Y-55061727D02*
G01*
X72553375Y-55063933D01*
X72700575Y-55306717D01*
X72701934Y-55315567D01*
X72700985Y-55318112D01*
X72460375Y-55788249D01*
X72453556Y-55794053D01*
X72444630Y-55793334D01*
X72439545Y-55788249D01*
X72336223Y-55586366D01*
X72198933Y-55318110D01*
X72198215Y-55309186D01*
X72199339Y-55306726D01*
X72346544Y-55063933D01*
X72353764Y-55058636D01*
X72356549Y-55058300D01*
X72543371Y-55058300D01*
X72551644Y-55061727D01*
G37*
%TD.AperFunction*%
%TD*%
%TA.AperFunction,Conductor*%
%TO.N,/GPIO10*%
G36*
X64253620Y-71701155D02*
G01*
X64418321Y-71771956D01*
X64424567Y-71778371D01*
X64425399Y-71782704D01*
X64425399Y-71967293D01*
X64421972Y-71975566D01*
X64418320Y-71978042D01*
X64253622Y-72048841D01*
X64246172Y-72049445D01*
X63591753Y-71886352D01*
X63584554Y-71881026D01*
X63583229Y-71872170D01*
X63588555Y-71864971D01*
X63591753Y-71863646D01*
X64246174Y-71700552D01*
X64253620Y-71701155D01*
G37*
%TD.AperFunction*%
%TD*%
%TA.AperFunction,Conductor*%
%TO.N,VDD*%
G36*
X71600090Y-59011027D02*
G01*
X71602807Y-59015287D01*
X71773330Y-59482294D01*
X71772949Y-59491241D01*
X71766851Y-59497103D01*
X71504511Y-59606715D01*
X71495556Y-59606742D01*
X71495489Y-59606715D01*
X71233148Y-59497103D01*
X71226836Y-59490751D01*
X71226669Y-59482297D01*
X71397193Y-59015286D01*
X71403249Y-59008691D01*
X71408183Y-59007600D01*
X71591817Y-59007600D01*
X71600090Y-59011027D01*
G37*
%TD.AperFunction*%
%TD*%
%TA.AperFunction,Conductor*%
%TO.N,VDD*%
G36*
X72283641Y-96927050D02*
G01*
X72289503Y-96933148D01*
X72399115Y-97195489D01*
X72399142Y-97204444D01*
X72399115Y-97204511D01*
X72289503Y-97466851D01*
X72283151Y-97473163D01*
X72274694Y-97473329D01*
X72140947Y-97424493D01*
X71807687Y-97302806D01*
X71801091Y-97296750D01*
X71800000Y-97291816D01*
X71800000Y-97108183D01*
X71803427Y-97099910D01*
X71807687Y-97097193D01*
X72274697Y-96926669D01*
X72283641Y-96927050D01*
G37*
%TD.AperFunction*%
%TD*%
%TA.AperFunction,Conductor*%
%TO.N,/PGD2*%
G36*
X63353899Y-85776574D02*
G01*
X63502644Y-85813645D01*
X63509843Y-85818971D01*
X63511168Y-85827827D01*
X63505842Y-85835026D01*
X63502644Y-85836351D01*
X62848225Y-85999444D01*
X62840775Y-85998840D01*
X62676078Y-85928041D01*
X62669831Y-85921625D01*
X62668999Y-85917292D01*
X62668999Y-85732703D01*
X62672426Y-85724430D01*
X62676074Y-85721956D01*
X62840777Y-85651154D01*
X62848223Y-85650551D01*
X63353899Y-85776574D01*
G37*
%TD.AperFunction*%
%TD*%
%TA.AperFunction,Conductor*%
%TO.N,/GPIO23*%
G36*
X71533174Y-99289439D02*
G01*
X71696804Y-99356629D01*
X71796184Y-99397436D01*
X71802536Y-99403748D01*
X71802563Y-99403815D01*
X71910559Y-99666824D01*
X71910532Y-99675779D01*
X71904670Y-99681877D01*
X71453867Y-99891523D01*
X71444920Y-99891904D01*
X71440660Y-99889187D01*
X71310812Y-99759339D01*
X71307385Y-99751066D01*
X71308474Y-99746136D01*
X71518124Y-99295327D01*
X71524718Y-99289273D01*
X71533174Y-99289439D01*
G37*
%TD.AperFunction*%
%TD*%
%TA.AperFunction,Conductor*%
%TO.N,GND*%
G36*
X57936108Y-95723750D02*
G01*
X57936108Y-95923750D01*
X57612132Y-96212132D01*
X57399000Y-96000000D01*
X57400000Y-95700000D01*
X57936108Y-95723750D01*
G37*
%TD.AperFunction*%
%TD*%
%TA.AperFunction,Conductor*%
%TO.N,VDD*%
G36*
X72084209Y-84952943D02*
G01*
X72089127Y-84958548D01*
X72199115Y-85221790D01*
X72199142Y-85230745D01*
X72199115Y-85230812D01*
X72089949Y-85492086D01*
X72083597Y-85498398D01*
X72074642Y-85498371D01*
X72074082Y-85498119D01*
X71616833Y-85278190D01*
X71610862Y-85271516D01*
X71610204Y-85267646D01*
X71610204Y-85084005D01*
X71613631Y-85075732D01*
X71618904Y-85072696D01*
X72075336Y-84951749D01*
X72084209Y-84952943D01*
G37*
%TD.AperFunction*%
%TD*%
%TA.AperFunction,Conductor*%
%TO.N,/PGD6*%
G36*
X71866851Y-101110496D02*
G01*
X71873163Y-101116848D01*
X71873330Y-101125305D01*
X71702807Y-101592313D01*
X71696751Y-101598909D01*
X71691817Y-101600000D01*
X71508183Y-101600000D01*
X71499910Y-101596573D01*
X71497193Y-101592313D01*
X71326669Y-101125302D01*
X71327050Y-101116358D01*
X71333147Y-101110496D01*
X71595490Y-101000883D01*
X71604444Y-101000857D01*
X71866851Y-101110496D01*
G37*
%TD.AperFunction*%
%TD*%
%TA.AperFunction,Conductor*%
%TO.N,GND*%
G36*
X72401000Y-96200000D02*
G01*
X72285195Y-96477164D01*
X71808951Y-96345001D01*
X71808951Y-96145001D01*
X72285195Y-95922836D01*
X72401000Y-96200000D01*
G37*
%TD.AperFunction*%
%TD*%
%TA.AperFunction,Conductor*%
%TO.N,/MCLR8*%
G36*
X69461051Y-75782296D02*
G01*
X69461098Y-75782343D01*
X69622626Y-75944792D01*
X69626029Y-75953075D01*
X69625078Y-75957663D01*
X69555844Y-76118720D01*
X69549428Y-76124967D01*
X69545095Y-76125799D01*
X69360507Y-76125799D01*
X69352234Y-76122372D01*
X69349758Y-76118720D01*
X69341532Y-76099584D01*
X69280522Y-75957661D01*
X69280404Y-75948709D01*
X69282972Y-75944795D01*
X69444504Y-75782342D01*
X69452768Y-75778893D01*
X69461051Y-75782296D01*
G37*
%TD.AperFunction*%
%TD*%
%TA.AperFunction,Conductor*%
%TO.N,/PGD1*%
G36*
X61794954Y-71704424D02*
G01*
X61799836Y-71711931D01*
X61800033Y-71714043D01*
X61800695Y-71995821D01*
X61797288Y-72004102D01*
X61797241Y-72004149D01*
X61594848Y-72205198D01*
X61586563Y-72208597D01*
X61579839Y-72206445D01*
X61514655Y-72160276D01*
X61199334Y-71936937D01*
X61194565Y-71929360D01*
X61196550Y-71920628D01*
X61197819Y-71919124D01*
X61326877Y-71790066D01*
X61333006Y-71786839D01*
X61786194Y-71702567D01*
X61794954Y-71704424D01*
G37*
%TD.AperFunction*%
%TD*%
%TA.AperFunction,Conductor*%
%TO.N,VDD*%
G36*
X71601684Y-55061727D02*
G01*
X71603415Y-55063933D01*
X71750615Y-55306717D01*
X71751974Y-55315567D01*
X71751025Y-55318112D01*
X71510415Y-55788249D01*
X71503596Y-55794053D01*
X71494670Y-55793334D01*
X71489585Y-55788249D01*
X71386263Y-55586366D01*
X71248973Y-55318110D01*
X71248255Y-55309186D01*
X71249379Y-55306726D01*
X71396584Y-55063933D01*
X71403804Y-55058636D01*
X71406589Y-55058300D01*
X71593411Y-55058300D01*
X71601684Y-55061727D01*
G37*
%TD.AperFunction*%
%TD*%
%TA.AperFunction,Conductor*%
%TO.N,/PGC*%
G36*
X64253620Y-99601155D02*
G01*
X64418321Y-99671956D01*
X64424567Y-99678371D01*
X64425399Y-99682704D01*
X64425399Y-99867293D01*
X64421972Y-99875566D01*
X64418320Y-99878042D01*
X64253622Y-99948841D01*
X64246172Y-99949445D01*
X63591753Y-99786352D01*
X63584554Y-99781026D01*
X63583229Y-99772170D01*
X63588555Y-99764971D01*
X63591753Y-99763646D01*
X64246174Y-99600552D01*
X64253620Y-99601155D01*
G37*
%TD.AperFunction*%
%TD*%
%TA.AperFunction,Conductor*%
%TO.N,/GPIO10*%
G36*
X64253364Y-95702288D02*
G01*
X64254485Y-95703053D01*
X64339443Y-95768471D01*
X64340578Y-95769468D01*
X64469808Y-95898698D01*
X64473235Y-95906971D01*
X64469808Y-95915244D01*
X64466614Y-95917511D01*
X64253573Y-96020182D01*
X64246113Y-96021097D01*
X63596520Y-95886102D01*
X63589118Y-95881064D01*
X63587446Y-95872266D01*
X63592484Y-95864864D01*
X63596055Y-95863298D01*
X64244508Y-95700973D01*
X64253364Y-95702288D01*
G37*
%TD.AperFunction*%
%TD*%
%TA.AperFunction,Conductor*%
%TO.N,/PGC2*%
G36*
X65266851Y-96510496D02*
G01*
X65273163Y-96516848D01*
X65273330Y-96525305D01*
X65102807Y-96992313D01*
X65096751Y-96998909D01*
X65091817Y-97000000D01*
X64908183Y-97000000D01*
X64899910Y-96996573D01*
X64897193Y-96992313D01*
X64726669Y-96525302D01*
X64727050Y-96516358D01*
X64733147Y-96510496D01*
X64995490Y-96400883D01*
X65004444Y-96400857D01*
X65266851Y-96510496D01*
G37*
%TD.AperFunction*%
%TD*%
%TA.AperFunction,Conductor*%
%TO.N,/PGD1*%
G36*
X63492624Y-85161867D02*
G01*
X63499818Y-85167200D01*
X63501133Y-85176058D01*
X63495800Y-85183252D01*
X63491644Y-85184768D01*
X62848372Y-85288385D01*
X62840873Y-85287086D01*
X62642988Y-85178264D01*
X62637390Y-85171275D01*
X62638374Y-85162374D01*
X62640349Y-85159743D01*
X62769074Y-85031018D01*
X62772960Y-85028446D01*
X62840870Y-85001023D01*
X62848090Y-85000523D01*
X63492624Y-85161867D01*
G37*
%TD.AperFunction*%
%TD*%
%TA.AperFunction,Conductor*%
%TO.N,GND*%
G36*
X64966942Y-102620185D02*
G01*
X64987584Y-102636819D01*
X65062710Y-102711945D01*
X65087465Y-102747337D01*
X65259765Y-103117834D01*
X65266124Y-103130126D01*
X65273026Y-103146137D01*
X65274209Y-103149518D01*
X65274212Y-103149524D01*
X65370184Y-103302262D01*
X65497740Y-103429818D01*
X65543355Y-103458479D01*
X65550965Y-103463261D01*
X65555129Y-103465877D01*
X65601421Y-103518211D01*
X65612070Y-103587265D01*
X65583695Y-103651113D01*
X65525305Y-103689485D01*
X65503042Y-103694091D01*
X65320749Y-103714630D01*
X65320745Y-103714631D01*
X65150476Y-103774211D01*
X64997737Y-103870184D01*
X64870184Y-103997737D01*
X64774211Y-104150476D01*
X64714631Y-104320745D01*
X64714630Y-104320750D01*
X64694435Y-104499996D01*
X64694435Y-104500003D01*
X64714630Y-104679249D01*
X64714631Y-104679254D01*
X64774211Y-104849523D01*
X64827220Y-104933885D01*
X64870184Y-105002262D01*
X64997738Y-105129816D01*
X65150478Y-105225789D01*
X65234187Y-105255080D01*
X65320745Y-105285368D01*
X65320750Y-105285369D01*
X65499996Y-105305565D01*
X65500000Y-105305565D01*
X65500004Y-105305565D01*
X65679249Y-105285369D01*
X65679250Y-105285368D01*
X65679255Y-105285368D01*
X65758251Y-105257725D01*
X65773651Y-105253431D01*
X65798687Y-105248166D01*
X66144819Y-105121779D01*
X66182495Y-105108022D01*
X66225026Y-105100500D01*
X67163551Y-105100500D01*
X67230590Y-105120185D01*
X67276345Y-105172989D01*
X67286289Y-105242147D01*
X67257264Y-105305703D01*
X67251232Y-105312181D01*
X65051483Y-107511931D01*
X64990160Y-107545416D01*
X64963802Y-107548250D01*
X62100995Y-107548250D01*
X62033956Y-107528565D01*
X61988201Y-107475761D01*
X61978257Y-107406603D01*
X61983955Y-107383292D01*
X61985368Y-107379255D01*
X62005565Y-107200000D01*
X62001573Y-107164571D01*
X61985369Y-107020750D01*
X61985368Y-107020745D01*
X61940832Y-106893468D01*
X61925789Y-106850478D01*
X61829816Y-106697738D01*
X61702262Y-106570184D01*
X61633553Y-106527011D01*
X61549523Y-106474211D01*
X61379254Y-106414631D01*
X61379249Y-106414630D01*
X61200004Y-106394435D01*
X61199996Y-106394435D01*
X61020746Y-106414631D01*
X61020745Y-106414631D01*
X60941764Y-106442267D01*
X60926338Y-106446569D01*
X60901314Y-106451833D01*
X60517503Y-106591978D01*
X60474972Y-106599500D01*
X59316322Y-106599500D01*
X59249283Y-106579815D01*
X59203528Y-106527011D01*
X59193102Y-106489383D01*
X59185369Y-106420748D01*
X59176162Y-106394435D01*
X59149983Y-106319623D01*
X59146422Y-106249845D01*
X59181150Y-106189218D01*
X59228022Y-106160963D01*
X59272707Y-106146156D01*
X59272714Y-106146153D01*
X59420691Y-106054879D01*
X59543629Y-105931941D01*
X59634903Y-105783964D01*
X59634905Y-105783959D01*
X59689592Y-105618923D01*
X59699999Y-105517065D01*
X59700000Y-105517052D01*
X59700000Y-105473750D01*
X57300000Y-105473750D01*
X57300000Y-105517065D01*
X57310407Y-105618923D01*
X57365094Y-105783959D01*
X57365096Y-105783964D01*
X57456370Y-105931941D01*
X57579308Y-106054879D01*
X57629993Y-106086142D01*
X57676717Y-106138090D01*
X57687940Y-106207053D01*
X57676617Y-106245480D01*
X57674213Y-106250472D01*
X57614630Y-106420750D01*
X57606898Y-106489383D01*
X57579832Y-106553797D01*
X57522237Y-106593352D01*
X57483678Y-106599500D01*
X55500097Y-106599500D01*
X55433058Y-106579815D01*
X55412416Y-106563181D01*
X55111415Y-106262180D01*
X55077930Y-106200857D01*
X55082914Y-106131165D01*
X55124786Y-106075232D01*
X55190250Y-106050815D01*
X55199075Y-106050499D01*
X55955844Y-106050499D01*
X55955852Y-106050498D01*
X55955855Y-106050498D01*
X56010260Y-106044940D01*
X56055208Y-106040349D01*
X56216197Y-105987003D01*
X56360544Y-105897968D01*
X56480468Y-105778044D01*
X56569503Y-105633697D01*
X56622849Y-105472708D01*
X56633000Y-105373345D01*
X56632999Y-104826656D01*
X56622849Y-104727292D01*
X56569503Y-104566303D01*
X56504521Y-104460952D01*
X56486081Y-104393561D01*
X56506959Y-104326964D01*
X56524822Y-104300231D01*
X56596473Y-104127251D01*
X56610455Y-104056958D01*
X56642837Y-103995050D01*
X56703553Y-103960475D01*
X56773322Y-103964214D01*
X56819752Y-103993470D01*
X56838349Y-104012067D01*
X56838355Y-104012072D01*
X57343364Y-104517082D01*
X57376849Y-104578405D01*
X57371865Y-104648097D01*
X57368068Y-104657162D01*
X57365096Y-104663536D01*
X57310407Y-104828576D01*
X57300000Y-104930434D01*
X57300000Y-104973750D01*
X59700000Y-104973750D01*
X59700000Y-104930447D01*
X59699999Y-104930432D01*
X59694168Y-104873352D01*
X59706937Y-104804659D01*
X59754818Y-104753775D01*
X59817526Y-104736750D01*
X60777081Y-104736750D01*
X60777097Y-104736751D01*
X60784693Y-104736751D01*
X60942804Y-104736751D01*
X60942807Y-104736751D01*
X61095535Y-104695827D01*
X61191497Y-104640423D01*
X61232466Y-104616770D01*
X61344270Y-104504966D01*
X61344270Y-104504964D01*
X61354474Y-104494761D01*
X61354478Y-104494756D01*
X61511950Y-104337283D01*
X61547337Y-104312532D01*
X61917830Y-104140236D01*
X61930117Y-104133878D01*
X61946135Y-104126973D01*
X61949522Y-104125789D01*
X62102262Y-104029816D01*
X62229816Y-103902262D01*
X62325789Y-103749522D01*
X62385368Y-103579255D01*
X62385369Y-103579249D01*
X62405565Y-103400003D01*
X62405565Y-103399996D01*
X62385369Y-103220750D01*
X62385368Y-103220745D01*
X62377390Y-103197944D01*
X62325789Y-103050478D01*
X62325636Y-103050235D01*
X62264837Y-102953473D01*
X62229816Y-102897738D01*
X62144259Y-102812181D01*
X62110774Y-102750858D01*
X62115758Y-102681166D01*
X62157630Y-102625233D01*
X62223094Y-102600816D01*
X62231940Y-102600500D01*
X64899903Y-102600500D01*
X64966942Y-102620185D01*
G37*
%TD.AperFunction*%
%TA.AperFunction,Conductor*%
G36*
X76232844Y-79518903D02*
G01*
X76288777Y-79560775D01*
X76301892Y-79582680D01*
X76384965Y-79760830D01*
X76384967Y-79760834D01*
X76426921Y-79820750D01*
X76520501Y-79954396D01*
X76520506Y-79954402D01*
X76687597Y-80121493D01*
X76687603Y-80121498D01*
X76873158Y-80251425D01*
X76916783Y-80306002D01*
X76923977Y-80375500D01*
X76892454Y-80437855D01*
X76873158Y-80454575D01*
X76687597Y-80584505D01*
X76520505Y-80751597D01*
X76384965Y-80945169D01*
X76384964Y-80945171D01*
X76285098Y-81159335D01*
X76285094Y-81159344D01*
X76223938Y-81387586D01*
X76223936Y-81387596D01*
X76203341Y-81622999D01*
X76203341Y-81623000D01*
X76223936Y-81858403D01*
X76223938Y-81858413D01*
X76285094Y-82086655D01*
X76285096Y-82086659D01*
X76285097Y-82086663D01*
X76352653Y-82231537D01*
X76384965Y-82300830D01*
X76384967Y-82300834D01*
X76434487Y-82371555D01*
X76520501Y-82494396D01*
X76520506Y-82494402D01*
X76687597Y-82661493D01*
X76687603Y-82661498D01*
X76775403Y-82722976D01*
X76835269Y-82764895D01*
X76873594Y-82791730D01*
X76917219Y-82846307D01*
X76924413Y-82915805D01*
X76892890Y-82978160D01*
X76873595Y-82994880D01*
X76687922Y-83124890D01*
X76687920Y-83124891D01*
X76520891Y-83291920D01*
X76520886Y-83291926D01*
X76385400Y-83485420D01*
X76385399Y-83485422D01*
X76285570Y-83699507D01*
X76285567Y-83699513D01*
X76228364Y-83912999D01*
X76228364Y-83913000D01*
X77125988Y-83913000D01*
X77093075Y-83970007D01*
X77059000Y-84097174D01*
X77059000Y-84228826D01*
X77093075Y-84355993D01*
X77125988Y-84413000D01*
X76228364Y-84413000D01*
X76285567Y-84626486D01*
X76285570Y-84626492D01*
X76385399Y-84840578D01*
X76520894Y-85034082D01*
X76687917Y-85201105D01*
X76873595Y-85331119D01*
X76917219Y-85385696D01*
X76924412Y-85455195D01*
X76892890Y-85517549D01*
X76873595Y-85534269D01*
X76687594Y-85664508D01*
X76520505Y-85831597D01*
X76384965Y-86025169D01*
X76384964Y-86025171D01*
X76285098Y-86239335D01*
X76285094Y-86239344D01*
X76223938Y-86467586D01*
X76223936Y-86467596D01*
X76203341Y-86702999D01*
X76203341Y-86703000D01*
X76223936Y-86938403D01*
X76223938Y-86938413D01*
X76285094Y-87166655D01*
X76285096Y-87166659D01*
X76285097Y-87166663D01*
X76372214Y-87353486D01*
X76384965Y-87380830D01*
X76384967Y-87380834D01*
X76457341Y-87484194D01*
X76520501Y-87574396D01*
X76520506Y-87574402D01*
X76687597Y-87741493D01*
X76687603Y-87741498D01*
X76873158Y-87871425D01*
X76916783Y-87926002D01*
X76923977Y-87995500D01*
X76892454Y-88057855D01*
X76873158Y-88074575D01*
X76687597Y-88204505D01*
X76520505Y-88371597D01*
X76384965Y-88565169D01*
X76384964Y-88565171D01*
X76285098Y-88779335D01*
X76285094Y-88779344D01*
X76223938Y-89007586D01*
X76223936Y-89007596D01*
X76203341Y-89242999D01*
X76203341Y-89243000D01*
X76223936Y-89478403D01*
X76223938Y-89478413D01*
X76285094Y-89706655D01*
X76285096Y-89706659D01*
X76285097Y-89706663D01*
X76365519Y-89879128D01*
X76384965Y-89920830D01*
X76384967Y-89920834D01*
X76440751Y-90000501D01*
X76520501Y-90114396D01*
X76520506Y-90114402D01*
X76687597Y-90281493D01*
X76687603Y-90281498D01*
X76873158Y-90411425D01*
X76916783Y-90466002D01*
X76923977Y-90535500D01*
X76892454Y-90597855D01*
X76873158Y-90614575D01*
X76687597Y-90744505D01*
X76520505Y-90911597D01*
X76384965Y-91105169D01*
X76384964Y-91105171D01*
X76285098Y-91319335D01*
X76285094Y-91319344D01*
X76223938Y-91547586D01*
X76223936Y-91547596D01*
X76203341Y-91782999D01*
X76203341Y-91783000D01*
X76223936Y-92018403D01*
X76223938Y-92018413D01*
X76285094Y-92246655D01*
X76285096Y-92246659D01*
X76285097Y-92246663D01*
X76379703Y-92449546D01*
X76384965Y-92460830D01*
X76384967Y-92460834D01*
X76451539Y-92555908D01*
X76520501Y-92654396D01*
X76520506Y-92654402D01*
X76687597Y-92821493D01*
X76687603Y-92821498D01*
X76873158Y-92951425D01*
X76916783Y-93006002D01*
X76923977Y-93075500D01*
X76892454Y-93137855D01*
X76873158Y-93154575D01*
X76687597Y-93284505D01*
X76520505Y-93451597D01*
X76384968Y-93645166D01*
X76384964Y-93645171D01*
X76285098Y-93859335D01*
X76285094Y-93859344D01*
X76223938Y-94087586D01*
X76223936Y-94087596D01*
X76203341Y-94322999D01*
X76203341Y-94323000D01*
X76223936Y-94558403D01*
X76223938Y-94558413D01*
X76285094Y-94786655D01*
X76285096Y-94786659D01*
X76285097Y-94786663D01*
X76368155Y-94964781D01*
X76384965Y-95000830D01*
X76384967Y-95000834D01*
X76474334Y-95128462D01*
X76520501Y-95194396D01*
X76520506Y-95194402D01*
X76687597Y-95361493D01*
X76687603Y-95361498D01*
X76873158Y-95491425D01*
X76916783Y-95546002D01*
X76923977Y-95615500D01*
X76892454Y-95677855D01*
X76873158Y-95694575D01*
X76687597Y-95824505D01*
X76520505Y-95991597D01*
X76384965Y-96185169D01*
X76384964Y-96185171D01*
X76285098Y-96399335D01*
X76285094Y-96399344D01*
X76223938Y-96627586D01*
X76223936Y-96627596D01*
X76203341Y-96862999D01*
X76203341Y-96863000D01*
X76223936Y-97098403D01*
X76223938Y-97098413D01*
X76285094Y-97326655D01*
X76285096Y-97326659D01*
X76285097Y-97326663D01*
X76362088Y-97491770D01*
X76384965Y-97540830D01*
X76384967Y-97540834D01*
X76448407Y-97631435D01*
X76520501Y-97734396D01*
X76520506Y-97734402D01*
X76687597Y-97901493D01*
X76687603Y-97901498D01*
X76873158Y-98031425D01*
X76916783Y-98086002D01*
X76923977Y-98155500D01*
X76892454Y-98217855D01*
X76873158Y-98234575D01*
X76687597Y-98364505D01*
X76520505Y-98531597D01*
X76384965Y-98725169D01*
X76384964Y-98725171D01*
X76285098Y-98939335D01*
X76285094Y-98939344D01*
X76223938Y-99167586D01*
X76223936Y-99167596D01*
X76203341Y-99402999D01*
X76203341Y-99403000D01*
X76223936Y-99638403D01*
X76223938Y-99638413D01*
X76285094Y-99866655D01*
X76285096Y-99866659D01*
X76285097Y-99866663D01*
X76287840Y-99872545D01*
X76384965Y-100080830D01*
X76384967Y-100080834D01*
X76463941Y-100193620D01*
X76520501Y-100274396D01*
X76520506Y-100274402D01*
X76687597Y-100441493D01*
X76687603Y-100441498D01*
X76873594Y-100571730D01*
X76917219Y-100626307D01*
X76924413Y-100695805D01*
X76892890Y-100758160D01*
X76873595Y-100774880D01*
X76687922Y-100904890D01*
X76687920Y-100904891D01*
X76520891Y-101071920D01*
X76520886Y-101071926D01*
X76385400Y-101265420D01*
X76385399Y-101265422D01*
X76285570Y-101479507D01*
X76285567Y-101479513D01*
X76228364Y-101692999D01*
X76228364Y-101693000D01*
X77125988Y-101693000D01*
X77093075Y-101750007D01*
X77059000Y-101877174D01*
X77059000Y-102008826D01*
X77093075Y-102135993D01*
X77125988Y-102193000D01*
X76228364Y-102193000D01*
X76285567Y-102406486D01*
X76285570Y-102406492D01*
X76385399Y-102620578D01*
X76520894Y-102814082D01*
X76691750Y-102984938D01*
X76690790Y-102985897D01*
X76725908Y-103038672D01*
X76727022Y-103108533D01*
X76690190Y-103167906D01*
X76627105Y-103197941D01*
X76607503Y-103199500D01*
X74348624Y-103199500D01*
X74281585Y-103179815D01*
X74260943Y-103163181D01*
X74137287Y-103039525D01*
X74112532Y-103004132D01*
X73940246Y-102633663D01*
X73940243Y-102633658D01*
X73940236Y-102633642D01*
X73933874Y-102621346D01*
X73926970Y-102605328D01*
X73925789Y-102601951D01*
X73829816Y-102449211D01*
X73702262Y-102321657D01*
X73648190Y-102287681D01*
X73549521Y-102225683D01*
X73379249Y-102166103D01*
X73310616Y-102158370D01*
X73246202Y-102131303D01*
X73206647Y-102073708D01*
X73200500Y-102035150D01*
X73200500Y-100083062D01*
X73220185Y-100016023D01*
X73272989Y-99970268D01*
X73342147Y-99960324D01*
X73365448Y-99966018D01*
X73420745Y-99985368D01*
X73420748Y-99985368D01*
X73420750Y-99985369D01*
X73599996Y-100005565D01*
X73600000Y-100005565D01*
X73600004Y-100005565D01*
X73779249Y-99985369D01*
X73779252Y-99985368D01*
X73779255Y-99985368D01*
X73949522Y-99925789D01*
X74102262Y-99829816D01*
X74229816Y-99702262D01*
X74325789Y-99549522D01*
X74385368Y-99379255D01*
X74387346Y-99361700D01*
X74405565Y-99200003D01*
X74405565Y-99199996D01*
X74385369Y-99020750D01*
X74385368Y-99020745D01*
X74325789Y-98850478D01*
X74229816Y-98697738D01*
X74102262Y-98570184D01*
X74066629Y-98547794D01*
X73949523Y-98474211D01*
X73779254Y-98414631D01*
X73779249Y-98414630D01*
X73600004Y-98394435D01*
X73599996Y-98394435D01*
X73420750Y-98414630D01*
X73420745Y-98414631D01*
X73250476Y-98474211D01*
X73133370Y-98547794D01*
X73066133Y-98566794D01*
X72999298Y-98546426D01*
X72979717Y-98530481D01*
X72611643Y-98162407D01*
X72578158Y-98101084D01*
X72583142Y-98031392D01*
X72625014Y-97975459D01*
X72658367Y-97957685D01*
X72749522Y-97925789D01*
X72902262Y-97829816D01*
X73029816Y-97702262D01*
X73125789Y-97549522D01*
X73185368Y-97379255D01*
X73185369Y-97379249D01*
X73205565Y-97200003D01*
X73205565Y-97199996D01*
X73185369Y-97020750D01*
X73185368Y-97020745D01*
X73183505Y-97015421D01*
X73125789Y-96850478D01*
X73029816Y-96697738D01*
X72902262Y-96570184D01*
X72838609Y-96530188D01*
X72749523Y-96474211D01*
X72579254Y-96414631D01*
X72579249Y-96414630D01*
X72400004Y-96394435D01*
X72399996Y-96394435D01*
X72220746Y-96414631D01*
X72220745Y-96414631D01*
X72141764Y-96442267D01*
X72126339Y-96446569D01*
X72101309Y-96451834D01*
X72051327Y-96470085D01*
X71981603Y-96474588D01*
X71974202Y-96472683D01*
X71818196Y-96427358D01*
X71818190Y-96427357D01*
X71781896Y-96424501D01*
X71781889Y-96424501D01*
X71671199Y-96424501D01*
X71604160Y-96404816D01*
X71558405Y-96352012D01*
X71547199Y-96300501D01*
X71547199Y-96119001D01*
X71566884Y-96051962D01*
X71619688Y-96006207D01*
X71671199Y-95995001D01*
X72351703Y-95995001D01*
X72309230Y-95848805D01*
X72226920Y-95709626D01*
X72226913Y-95709617D01*
X72112582Y-95595286D01*
X72112573Y-95595279D01*
X71973395Y-95512970D01*
X71812028Y-95466089D01*
X71812517Y-95464404D01*
X71757681Y-95436806D01*
X71722160Y-95376640D01*
X71724806Y-95306820D01*
X71754691Y-95258558D01*
X72987821Y-94025429D01*
X73049142Y-93991946D01*
X73118834Y-93996930D01*
X73174767Y-94038802D01*
X73199184Y-94104266D01*
X73199500Y-94113112D01*
X73199500Y-94674972D01*
X73191978Y-94717503D01*
X73051831Y-95101320D01*
X73038928Y-95141882D01*
X73038925Y-95141894D01*
X73038754Y-95143281D01*
X73032735Y-95169006D01*
X73014631Y-95220745D01*
X73014631Y-95220746D01*
X72994435Y-95399996D01*
X72994435Y-95400003D01*
X73014630Y-95579249D01*
X73014631Y-95579254D01*
X73074211Y-95749523D01*
X73160437Y-95886750D01*
X73170184Y-95902262D01*
X73297738Y-96029816D01*
X73450478Y-96125789D01*
X73597282Y-96177158D01*
X73620745Y-96185368D01*
X73620750Y-96185369D01*
X73799996Y-96205565D01*
X73800000Y-96205565D01*
X73800004Y-96205565D01*
X73979249Y-96185369D01*
X73979252Y-96185368D01*
X73979255Y-96185368D01*
X74149522Y-96125789D01*
X74302262Y-96029816D01*
X74429816Y-95902262D01*
X74525789Y-95749522D01*
X74585368Y-95579255D01*
X74585369Y-95579249D01*
X74605565Y-95400003D01*
X74605565Y-95399996D01*
X74585369Y-95220750D01*
X74585368Y-95220746D01*
X74585368Y-95220745D01*
X74557729Y-95141760D01*
X74553428Y-95126335D01*
X74548166Y-95101312D01*
X74408022Y-94717502D01*
X74400500Y-94674971D01*
X74400500Y-81300096D01*
X74420185Y-81233057D01*
X74436814Y-81212420D01*
X76101831Y-79547402D01*
X76163152Y-79513919D01*
X76232844Y-79518903D01*
G37*
%TD.AperFunction*%
%TA.AperFunction,Conductor*%
G36*
X81718834Y-78414914D02*
G01*
X81774767Y-78456786D01*
X81799184Y-78522250D01*
X81799500Y-78531096D01*
X81799500Y-102099902D01*
X81779815Y-102166941D01*
X81763181Y-102187583D01*
X81637469Y-102313295D01*
X81576146Y-102346780D01*
X81506454Y-102341796D01*
X81450521Y-102299924D01*
X81426104Y-102234460D01*
X81430014Y-102193518D01*
X81430153Y-102193000D01*
X81434063Y-102178408D01*
X81454659Y-101943000D01*
X81434063Y-101707592D01*
X81372903Y-101479337D01*
X81273035Y-101265171D01*
X81267731Y-101257595D01*
X81137494Y-101071597D01*
X80970402Y-100904506D01*
X80970396Y-100904501D01*
X80784842Y-100774575D01*
X80741217Y-100719998D01*
X80734023Y-100650500D01*
X80765546Y-100588145D01*
X80784842Y-100571425D01*
X80953553Y-100453292D01*
X80970401Y-100441495D01*
X81137495Y-100274401D01*
X81273035Y-100080830D01*
X81372903Y-99866663D01*
X81434063Y-99638408D01*
X81454659Y-99403000D01*
X81434063Y-99167592D01*
X81372903Y-98939337D01*
X81273035Y-98725171D01*
X81267425Y-98717158D01*
X81137494Y-98531597D01*
X80970402Y-98364506D01*
X80970396Y-98364501D01*
X80784842Y-98234575D01*
X80741217Y-98179998D01*
X80734023Y-98110500D01*
X80765546Y-98048145D01*
X80784842Y-98031425D01*
X80850618Y-97985368D01*
X80970401Y-97901495D01*
X81137495Y-97734401D01*
X81273035Y-97540830D01*
X81372903Y-97326663D01*
X81434063Y-97098408D01*
X81454659Y-96863000D01*
X81453563Y-96850478D01*
X81434063Y-96627596D01*
X81434063Y-96627592D01*
X81372903Y-96399337D01*
X81273035Y-96185171D01*
X81267425Y-96177158D01*
X81137494Y-95991597D01*
X80970402Y-95824506D01*
X80970401Y-95824505D01*
X80784405Y-95694269D01*
X80740781Y-95639692D01*
X80733588Y-95570193D01*
X80765110Y-95507839D01*
X80784405Y-95491119D01*
X80970082Y-95361105D01*
X81137105Y-95194082D01*
X81272600Y-95000578D01*
X81372429Y-94786492D01*
X81372432Y-94786486D01*
X81429636Y-94573000D01*
X80532012Y-94573000D01*
X80564925Y-94515993D01*
X80599000Y-94388826D01*
X80599000Y-94257174D01*
X80564925Y-94130007D01*
X80532012Y-94073000D01*
X81429636Y-94073000D01*
X81429635Y-94072999D01*
X81372432Y-93859513D01*
X81372429Y-93859507D01*
X81272600Y-93645422D01*
X81272599Y-93645420D01*
X81137113Y-93451926D01*
X81137108Y-93451920D01*
X80970078Y-93284890D01*
X80784405Y-93154879D01*
X80740780Y-93100302D01*
X80733588Y-93030804D01*
X80765110Y-92968449D01*
X80784406Y-92951730D01*
X80784842Y-92951425D01*
X80970401Y-92821495D01*
X81137495Y-92654401D01*
X81273035Y-92460830D01*
X81372903Y-92246663D01*
X81434063Y-92018408D01*
X81454659Y-91783000D01*
X81434063Y-91547592D01*
X81372903Y-91319337D01*
X81273035Y-91105171D01*
X81267425Y-91097158D01*
X81137494Y-90911597D01*
X80970402Y-90744506D01*
X80970401Y-90744505D01*
X80784405Y-90614269D01*
X80740781Y-90559692D01*
X80733588Y-90490193D01*
X80765110Y-90427839D01*
X80784405Y-90411119D01*
X80970082Y-90281105D01*
X81137105Y-90114082D01*
X81272600Y-89920578D01*
X81372429Y-89706492D01*
X81372432Y-89706486D01*
X81429636Y-89493000D01*
X80532012Y-89493000D01*
X80564925Y-89435993D01*
X80599000Y-89308826D01*
X80599000Y-89177174D01*
X80564925Y-89050007D01*
X80532012Y-88993000D01*
X81429636Y-88993000D01*
X81429635Y-88992999D01*
X81372432Y-88779513D01*
X81372429Y-88779507D01*
X81272600Y-88565422D01*
X81272599Y-88565420D01*
X81137113Y-88371926D01*
X81137108Y-88371920D01*
X80970078Y-88204890D01*
X80784405Y-88074879D01*
X80740780Y-88020302D01*
X80733588Y-87950804D01*
X80765110Y-87888449D01*
X80784406Y-87871730D01*
X80941378Y-87761817D01*
X80970401Y-87741495D01*
X81137495Y-87574401D01*
X81273035Y-87380830D01*
X81372903Y-87166663D01*
X81434063Y-86938408D01*
X81454659Y-86703000D01*
X81434063Y-86467592D01*
X81372903Y-86239337D01*
X81273035Y-86025171D01*
X81267425Y-86017158D01*
X81137494Y-85831597D01*
X80970402Y-85664506D01*
X80970396Y-85664501D01*
X80784842Y-85534575D01*
X80741217Y-85479998D01*
X80734023Y-85410500D01*
X80765546Y-85348145D01*
X80784842Y-85331425D01*
X80929954Y-85229816D01*
X80970401Y-85201495D01*
X81137495Y-85034401D01*
X81273035Y-84840830D01*
X81372903Y-84626663D01*
X81434063Y-84398408D01*
X81454659Y-84163000D01*
X81454211Y-84157885D01*
X81437774Y-83970007D01*
X81434063Y-83927592D01*
X81372903Y-83699337D01*
X81273035Y-83485171D01*
X81267731Y-83477595D01*
X81137494Y-83291597D01*
X80970402Y-83124506D01*
X80970396Y-83124501D01*
X80784842Y-82994575D01*
X80741217Y-82939998D01*
X80734023Y-82870500D01*
X80765546Y-82808145D01*
X80784842Y-82791425D01*
X80828927Y-82760556D01*
X80970401Y-82661495D01*
X81137495Y-82494401D01*
X81273035Y-82300830D01*
X81372903Y-82086663D01*
X81434063Y-81858408D01*
X81454659Y-81623000D01*
X81434063Y-81387592D01*
X81372903Y-81159337D01*
X81273035Y-80945171D01*
X81267425Y-80937158D01*
X81137494Y-80751597D01*
X80970402Y-80584506D01*
X80970396Y-80584501D01*
X80784842Y-80454575D01*
X80741217Y-80399998D01*
X80734023Y-80330500D01*
X80765546Y-80268145D01*
X80784842Y-80251425D01*
X80807026Y-80235891D01*
X80970401Y-80121495D01*
X81137495Y-79954401D01*
X81273035Y-79760830D01*
X81372903Y-79546663D01*
X81434063Y-79318408D01*
X81454659Y-79083000D01*
X81434063Y-78847592D01*
X81399671Y-78719239D01*
X81401334Y-78649393D01*
X81431761Y-78599472D01*
X81587822Y-78443412D01*
X81649142Y-78409930D01*
X81718834Y-78414914D01*
G37*
%TD.AperFunction*%
%TA.AperFunction,Conductor*%
G36*
X57473175Y-90020185D02*
G01*
X57518930Y-90072989D01*
X57529626Y-90135720D01*
X57524500Y-90192134D01*
X57524500Y-90192138D01*
X57524500Y-90705363D01*
X57530913Y-90775942D01*
X57530913Y-90775944D01*
X57530914Y-90775946D01*
X57546044Y-90824501D01*
X57581522Y-90938356D01*
X57669530Y-91083938D01*
X57771661Y-91186069D01*
X57805146Y-91247392D01*
X57800162Y-91317084D01*
X57771661Y-91361431D01*
X57669531Y-91463560D01*
X57669530Y-91463561D01*
X57581522Y-91609143D01*
X57530913Y-91771557D01*
X57528055Y-91803014D01*
X57524500Y-91842134D01*
X57524500Y-92355366D01*
X57526422Y-92376519D01*
X57530913Y-92425942D01*
X57530913Y-92425944D01*
X57530914Y-92425946D01*
X57544281Y-92468842D01*
X57581522Y-92588356D01*
X57669530Y-92733938D01*
X57761714Y-92826122D01*
X57795199Y-92887445D01*
X57790215Y-92957137D01*
X57748343Y-93013070D01*
X57731689Y-93023041D01*
X57579000Y-93117221D01*
X57578996Y-93117224D01*
X57455974Y-93240246D01*
X57455971Y-93240250D01*
X57364642Y-93388316D01*
X57364637Y-93388327D01*
X57309913Y-93553473D01*
X57299500Y-93655394D01*
X57299500Y-94242105D01*
X57309913Y-94344026D01*
X57364637Y-94509172D01*
X57364642Y-94509183D01*
X57455971Y-94657249D01*
X57455974Y-94657253D01*
X57578999Y-94780278D01*
X57580183Y-94781008D01*
X57580823Y-94781720D01*
X57584664Y-94784757D01*
X57584145Y-94785413D01*
X57626906Y-94832958D01*
X57638125Y-94901921D01*
X57610279Y-94966002D01*
X57584877Y-94988012D01*
X57584977Y-94988138D01*
X57582177Y-94990351D01*
X57580184Y-94992079D01*
X57579315Y-94992614D01*
X57579309Y-94992619D01*
X57456370Y-95115558D01*
X57365096Y-95263535D01*
X57365094Y-95263540D01*
X57310407Y-95428576D01*
X57300000Y-95530434D01*
X57300000Y-95573750D01*
X59700000Y-95573750D01*
X59700000Y-95530447D01*
X59699999Y-95530434D01*
X59689592Y-95428576D01*
X59634905Y-95263540D01*
X59634903Y-95263535D01*
X59543629Y-95115558D01*
X59420690Y-94992619D01*
X59420685Y-94992615D01*
X59419822Y-94992083D01*
X59419353Y-94991562D01*
X59415023Y-94988138D01*
X59415608Y-94987398D01*
X59373096Y-94940136D01*
X59361873Y-94871174D01*
X59389716Y-94807091D01*
X59415398Y-94784836D01*
X59415336Y-94784757D01*
X59417106Y-94783357D01*
X59419820Y-94781005D01*
X59421003Y-94780276D01*
X59544026Y-94657253D01*
X59635362Y-94509175D01*
X59690087Y-94344025D01*
X59700500Y-94242098D01*
X59700500Y-93655402D01*
X59690087Y-93553475D01*
X59635362Y-93388325D01*
X59635358Y-93388319D01*
X59635357Y-93388316D01*
X59544028Y-93240250D01*
X59544025Y-93240246D01*
X59421003Y-93117224D01*
X59420999Y-93117221D01*
X59266778Y-93022096D01*
X59267531Y-93020873D01*
X59221126Y-92980019D01*
X59201970Y-92912826D01*
X59222182Y-92845944D01*
X59238280Y-92826126D01*
X59330472Y-92733935D01*
X59418478Y-92588356D01*
X59445808Y-92500646D01*
X59484542Y-92442502D01*
X59548567Y-92414527D01*
X59617553Y-92425608D01*
X59651873Y-92449858D01*
X60306275Y-93104260D01*
X60339760Y-93165583D01*
X60342594Y-93191941D01*
X60342594Y-93618066D01*
X60335072Y-93660597D01*
X60194925Y-94044414D01*
X60182022Y-94084976D01*
X60182019Y-94084988D01*
X60181848Y-94086375D01*
X60175829Y-94112100D01*
X60157725Y-94163839D01*
X60157725Y-94163840D01*
X60137529Y-94343090D01*
X60137529Y-94343097D01*
X60157724Y-94522343D01*
X60157725Y-94522348D01*
X60217305Y-94692617D01*
X60276399Y-94786664D01*
X60313278Y-94845356D01*
X60440832Y-94972910D01*
X60593572Y-95068883D01*
X60757760Y-95126335D01*
X60763839Y-95128462D01*
X60763844Y-95128463D01*
X60943090Y-95148659D01*
X60943094Y-95148659D01*
X60943095Y-95148659D01*
X60950120Y-95147867D01*
X60957329Y-95147055D01*
X61026151Y-95159109D01*
X61077531Y-95206457D01*
X61095156Y-95274067D01*
X61073430Y-95340473D01*
X61058896Y-95357956D01*
X60970183Y-95446669D01*
X60942061Y-95491425D01*
X60874211Y-95599408D01*
X60874210Y-95599409D01*
X60874209Y-95599412D01*
X60871972Y-95605804D01*
X60861539Y-95627010D01*
X60861916Y-95627220D01*
X60859766Y-95631093D01*
X60716555Y-95939039D01*
X60670437Y-95991526D01*
X60604119Y-96010750D01*
X56757000Y-96010750D01*
X56689961Y-95991065D01*
X56644206Y-95938261D01*
X56633000Y-95886750D01*
X56632999Y-95426662D01*
X56632998Y-95426644D01*
X56622849Y-95327292D01*
X56622848Y-95327289D01*
X56588337Y-95223141D01*
X56569503Y-95166303D01*
X56504521Y-95060952D01*
X56486081Y-94993561D01*
X56506959Y-94926964D01*
X56524822Y-94900231D01*
X56596473Y-94727251D01*
X56633000Y-94543616D01*
X56633000Y-94356384D01*
X56596473Y-94172749D01*
X56524822Y-93999769D01*
X56524821Y-93999768D01*
X56524818Y-93999762D01*
X56454077Y-93893891D01*
X56433199Y-93827213D01*
X56451683Y-93759833D01*
X56454077Y-93756109D01*
X56524818Y-93650237D01*
X56524818Y-93650236D01*
X56524822Y-93650231D01*
X56596473Y-93477251D01*
X56633000Y-93293616D01*
X56633000Y-93106384D01*
X56596473Y-92922749D01*
X56524822Y-92749769D01*
X56524821Y-92749768D01*
X56524818Y-92749762D01*
X56454077Y-92643891D01*
X56433199Y-92577213D01*
X56451683Y-92509833D01*
X56454077Y-92506109D01*
X56524818Y-92400237D01*
X56524818Y-92400236D01*
X56524822Y-92400231D01*
X56596473Y-92227251D01*
X56633000Y-92043616D01*
X56633000Y-91856384D01*
X56596473Y-91672749D01*
X56524822Y-91499769D01*
X56473278Y-91422628D01*
X56452400Y-91355951D01*
X56456604Y-91321649D01*
X56481750Y-91227807D01*
X56481750Y-91227802D01*
X56482317Y-91225686D01*
X56498987Y-91188894D01*
X56524822Y-91150231D01*
X56596473Y-90977251D01*
X56633000Y-90793616D01*
X56633000Y-90606384D01*
X56631730Y-90600000D01*
X56603184Y-90456486D01*
X56609411Y-90386895D01*
X56637115Y-90344619D01*
X56944919Y-90036816D01*
X57006240Y-90003334D01*
X57032598Y-90000500D01*
X57406136Y-90000500D01*
X57473175Y-90020185D01*
G37*
%TD.AperFunction*%
%TA.AperFunction,Conductor*%
G36*
X56773322Y-85164214D02*
G01*
X56819752Y-85193470D01*
X56838349Y-85212067D01*
X56838355Y-85212072D01*
X57343364Y-85717082D01*
X57376849Y-85778405D01*
X57371865Y-85848097D01*
X57368068Y-85857162D01*
X57365096Y-85863536D01*
X57310407Y-86028576D01*
X57300000Y-86130434D01*
X57300000Y-86173750D01*
X57808520Y-86173750D01*
X57870519Y-86190362D01*
X57879984Y-86195827D01*
X58032711Y-86236751D01*
X58032713Y-86236751D01*
X58198422Y-86236751D01*
X58198438Y-86236750D01*
X61505554Y-86236750D01*
X61572593Y-86256435D01*
X61593235Y-86273069D01*
X61632983Y-86312817D01*
X61666468Y-86374140D01*
X61661484Y-86443832D01*
X61619612Y-86499765D01*
X61554148Y-86524182D01*
X61545302Y-86524498D01*
X60554059Y-86524498D01*
X60395944Y-86524498D01*
X60243217Y-86565421D01*
X60243216Y-86565421D01*
X60243214Y-86565422D01*
X60243211Y-86565423D01*
X60197092Y-86592051D01*
X60197090Y-86592052D01*
X60106292Y-86644473D01*
X60106284Y-86644479D01*
X60047765Y-86702999D01*
X59994482Y-86756282D01*
X59994480Y-86756284D01*
X59950766Y-86799998D01*
X59908492Y-86842272D01*
X59847168Y-86875756D01*
X59777477Y-86870772D01*
X59721543Y-86828900D01*
X59697127Y-86763435D01*
X59697453Y-86741986D01*
X59699999Y-86717062D01*
X59700000Y-86717052D01*
X59700000Y-86673750D01*
X58750000Y-86673750D01*
X58750000Y-87411250D01*
X59005803Y-87411250D01*
X59005814Y-87411249D01*
X59030738Y-87408703D01*
X59099431Y-87421472D01*
X59150316Y-87469352D01*
X59167237Y-87537142D01*
X59144822Y-87603318D01*
X59131022Y-87619742D01*
X58387584Y-88363181D01*
X58326261Y-88396666D01*
X58299903Y-88399500D01*
X55742781Y-88399500D01*
X55710242Y-88408218D01*
X55710243Y-88408219D01*
X55590054Y-88440423D01*
X55590049Y-88440426D01*
X55453130Y-88519475D01*
X55453122Y-88519481D01*
X54844681Y-89127923D01*
X54783358Y-89161408D01*
X54713666Y-89156424D01*
X54657733Y-89114552D01*
X54633316Y-89049088D01*
X54633000Y-89040242D01*
X54633000Y-87353486D01*
X54652685Y-87286447D01*
X54705489Y-87240692D01*
X54774647Y-87230748D01*
X54796006Y-87235781D01*
X54809368Y-87240208D01*
X54809792Y-87240349D01*
X54909155Y-87250500D01*
X55955844Y-87250499D01*
X55955852Y-87250498D01*
X55955855Y-87250498D01*
X56010260Y-87244940D01*
X56055208Y-87240349D01*
X56216197Y-87187003D01*
X56360544Y-87097968D01*
X56480468Y-86978044D01*
X56569503Y-86833697D01*
X56608151Y-86717065D01*
X57300000Y-86717065D01*
X57310407Y-86818923D01*
X57365094Y-86983959D01*
X57365096Y-86983964D01*
X57456370Y-87131941D01*
X57579308Y-87254879D01*
X57727285Y-87346153D01*
X57727290Y-87346155D01*
X57892326Y-87400842D01*
X57994184Y-87411249D01*
X57994197Y-87411250D01*
X58250000Y-87411250D01*
X58250000Y-86673750D01*
X57300000Y-86673750D01*
X57300000Y-86717065D01*
X56608151Y-86717065D01*
X56622849Y-86672708D01*
X56633000Y-86573345D01*
X56632999Y-86026656D01*
X56632847Y-86025171D01*
X56622849Y-85927292D01*
X56622848Y-85927289D01*
X56620612Y-85920542D01*
X56569503Y-85766303D01*
X56504521Y-85660952D01*
X56486081Y-85593561D01*
X56506959Y-85526964D01*
X56524822Y-85500231D01*
X56596473Y-85327251D01*
X56610455Y-85256958D01*
X56642837Y-85195050D01*
X56703553Y-85160475D01*
X56773322Y-85164214D01*
G37*
%TD.AperFunction*%
%TA.AperFunction,Conductor*%
G36*
X76316897Y-77120185D02*
G01*
X76362240Y-77172096D01*
X76384963Y-77220826D01*
X76384967Y-77220834D01*
X76467356Y-77338497D01*
X76489683Y-77404703D01*
X76472673Y-77472470D01*
X76453462Y-77497301D01*
X75038872Y-78911892D01*
X74977549Y-78945377D01*
X74907857Y-78940393D01*
X74851924Y-78898521D01*
X74827507Y-78833057D01*
X74842359Y-78764784D01*
X74845074Y-78760061D01*
X74918019Y-78639395D01*
X74968590Y-78477106D01*
X74975000Y-78406572D01*
X74975000Y-78400000D01*
X74250000Y-78400000D01*
X74250000Y-79049999D01*
X74331581Y-79049999D01*
X74402102Y-79043591D01*
X74402107Y-79043590D01*
X74564396Y-78993018D01*
X74685061Y-78920074D01*
X74752615Y-78902238D01*
X74819089Y-78923755D01*
X74863377Y-78977796D01*
X74871418Y-79047201D01*
X74840659Y-79109936D01*
X74836892Y-79113872D01*
X74012181Y-79938583D01*
X73950858Y-79972068D01*
X73881166Y-79967084D01*
X73825233Y-79925212D01*
X73800816Y-79859748D01*
X73800500Y-79850902D01*
X73800500Y-78274000D01*
X73820185Y-78206961D01*
X73872989Y-78161206D01*
X73924500Y-78150000D01*
X74000000Y-78150000D01*
X74000000Y-78024000D01*
X74019685Y-77956961D01*
X74072489Y-77911206D01*
X74124000Y-77900000D01*
X74974999Y-77900000D01*
X74974999Y-77893417D01*
X74968591Y-77822897D01*
X74968590Y-77822892D01*
X74918018Y-77660603D01*
X74830072Y-77515122D01*
X74727984Y-77413034D01*
X74694499Y-77351711D01*
X74699483Y-77282019D01*
X74727983Y-77237673D01*
X74798715Y-77166942D01*
X74828840Y-77136818D01*
X74890163Y-77103334D01*
X74916520Y-77100500D01*
X76249858Y-77100500D01*
X76316897Y-77120185D01*
G37*
%TD.AperFunction*%
%TA.AperFunction,Conductor*%
G36*
X59680464Y-71897199D02*
G01*
X61438783Y-73655519D01*
X61438785Y-73655520D01*
X61438789Y-73655523D01*
X61526408Y-73706109D01*
X61575715Y-73734576D01*
X61627180Y-73748366D01*
X61686839Y-73784730D01*
X61717368Y-73847577D01*
X61709073Y-73916952D01*
X61702473Y-73930138D01*
X61687981Y-73955240D01*
X61681806Y-73965936D01*
X61640423Y-74037613D01*
X61599499Y-74190341D01*
X61599499Y-74190343D01*
X61599499Y-74358444D01*
X61599500Y-74358457D01*
X61599500Y-77099903D01*
X61579815Y-77166942D01*
X61563181Y-77187584D01*
X61187584Y-77563181D01*
X61126261Y-77596666D01*
X61099903Y-77599500D01*
X59801476Y-77599500D01*
X59734437Y-77579815D01*
X59688682Y-77527011D01*
X59678738Y-77457853D01*
X59683770Y-77436495D01*
X59689593Y-77418922D01*
X59699999Y-77317065D01*
X59700000Y-77317052D01*
X59700000Y-77273750D01*
X58624000Y-77273750D01*
X58556961Y-77254065D01*
X58511206Y-77201261D01*
X58500000Y-77149750D01*
X58500000Y-76897750D01*
X58519685Y-76830711D01*
X58572489Y-76784956D01*
X58624000Y-76773750D01*
X59700000Y-76773750D01*
X59700000Y-76730447D01*
X59699999Y-76730434D01*
X59689592Y-76628576D01*
X59634905Y-76463540D01*
X59634903Y-76463535D01*
X59543629Y-76315558D01*
X59420690Y-76192619D01*
X59420685Y-76192615D01*
X59419822Y-76192083D01*
X59419353Y-76191562D01*
X59415023Y-76188138D01*
X59415608Y-76187398D01*
X59373096Y-76140136D01*
X59361873Y-76071174D01*
X59389716Y-76007091D01*
X59415398Y-75984836D01*
X59415336Y-75984757D01*
X59417106Y-75983357D01*
X59419820Y-75981005D01*
X59421003Y-75980276D01*
X59544026Y-75857253D01*
X59635362Y-75709175D01*
X59690087Y-75544025D01*
X59700500Y-75442098D01*
X59700500Y-74855402D01*
X59690087Y-74753475D01*
X59635362Y-74588325D01*
X59635358Y-74588319D01*
X59635357Y-74588316D01*
X59544028Y-74440250D01*
X59544025Y-74440246D01*
X59421003Y-74317224D01*
X59420999Y-74317221D01*
X59266778Y-74222096D01*
X59267531Y-74220873D01*
X59221126Y-74180019D01*
X59201970Y-74112826D01*
X59222182Y-74045944D01*
X59238280Y-74026126D01*
X59330472Y-73933935D01*
X59418478Y-73788356D01*
X59469086Y-73625946D01*
X59475500Y-73555366D01*
X59475500Y-73042134D01*
X59469086Y-72971554D01*
X59418478Y-72809144D01*
X59330472Y-72663565D01*
X59330470Y-72663563D01*
X59330469Y-72663561D01*
X59228339Y-72561431D01*
X59194854Y-72500108D01*
X59199838Y-72430416D01*
X59228339Y-72386069D01*
X59330468Y-72283939D01*
X59330469Y-72283938D01*
X59330472Y-72283935D01*
X59418478Y-72138356D01*
X59469086Y-71975946D01*
X59469293Y-71973663D01*
X59469790Y-71972405D01*
X59470366Y-71969511D01*
X59470892Y-71969615D01*
X59494959Y-71908683D01*
X59551684Y-71867890D01*
X59621458Y-71864242D01*
X59680464Y-71897199D01*
G37*
%TD.AperFunction*%
%TA.AperFunction,Conductor*%
G36*
X81631270Y-58480505D02*
G01*
X81763181Y-58612416D01*
X81796666Y-58673739D01*
X81799500Y-58700097D01*
X81799500Y-62150902D01*
X81779815Y-62217941D01*
X81727011Y-62263696D01*
X81657853Y-62273640D01*
X81594297Y-62244615D01*
X81587819Y-62238584D01*
X81567176Y-62217941D01*
X81487584Y-62138349D01*
X81487580Y-62138344D01*
X81368714Y-62019478D01*
X81363925Y-62015803D01*
X81322725Y-61959373D01*
X81318573Y-61889627D01*
X81327029Y-61865038D01*
X81372903Y-61766663D01*
X81434063Y-61538408D01*
X81454659Y-61303000D01*
X81434063Y-61067592D01*
X81372903Y-60839337D01*
X81273035Y-60625171D01*
X81267425Y-60617158D01*
X81137494Y-60431597D01*
X80970402Y-60264506D01*
X80970401Y-60264505D01*
X80784405Y-60134269D01*
X80740781Y-60079692D01*
X80733588Y-60010193D01*
X80765110Y-59947839D01*
X80784405Y-59931119D01*
X80970082Y-59801105D01*
X81137105Y-59634082D01*
X81272600Y-59440578D01*
X81372429Y-59226492D01*
X81372432Y-59226486D01*
X81429636Y-59013000D01*
X80532012Y-59013000D01*
X80564925Y-58955993D01*
X80599000Y-58828826D01*
X80599000Y-58697174D01*
X80564925Y-58570007D01*
X80532012Y-58513000D01*
X81429635Y-58513000D01*
X81445213Y-58492699D01*
X81501641Y-58451497D01*
X81571387Y-58447342D01*
X81631270Y-58480505D01*
G37*
%TD.AperFunction*%
%TA.AperFunction,Conductor*%
G36*
X87492939Y-50520185D02*
G01*
X87538694Y-50572989D01*
X87549900Y-50624500D01*
X87549900Y-117350900D01*
X87530215Y-117417939D01*
X87477411Y-117463694D01*
X87425900Y-117474900D01*
X50624500Y-117474900D01*
X50557461Y-117455215D01*
X50511706Y-117402411D01*
X50500500Y-117350900D01*
X50500500Y-105279054D01*
X52599498Y-105279054D01*
X52640424Y-105431789D01*
X52640425Y-105431790D01*
X52664049Y-105472707D01*
X52664050Y-105472708D01*
X52719477Y-105568712D01*
X52719481Y-105568717D01*
X52838349Y-105687585D01*
X52838355Y-105687590D01*
X54663083Y-107512318D01*
X54696568Y-107573641D01*
X54691584Y-107643333D01*
X54663084Y-107687680D01*
X54570730Y-107780034D01*
X53719481Y-108631282D01*
X53719475Y-108631290D01*
X53672302Y-108712998D01*
X53672302Y-108712999D01*
X53640423Y-108768214D01*
X53640423Y-108768215D01*
X53599499Y-108920943D01*
X53599499Y-108920945D01*
X53599499Y-109089046D01*
X53599500Y-109089059D01*
X53599500Y-109491490D01*
X53599499Y-109491508D01*
X53599499Y-109657214D01*
X53599498Y-109657214D01*
X53599499Y-109657217D01*
X53640423Y-109809945D01*
X53640424Y-109809947D01*
X53640423Y-109809947D01*
X53649919Y-109826393D01*
X53649920Y-109826394D01*
X53719477Y-109946872D01*
X53719481Y-109946877D01*
X53838349Y-110065745D01*
X53838355Y-110065750D01*
X54217815Y-110445210D01*
X54251300Y-110506533D01*
X54251752Y-110557081D01*
X54234684Y-110642893D01*
X54232000Y-110656385D01*
X54232000Y-110843620D01*
X54268525Y-111027243D01*
X54268527Y-111027251D01*
X54340176Y-111200228D01*
X54340180Y-111200235D01*
X54410923Y-111306110D01*
X54431800Y-111372787D01*
X54413315Y-111440167D01*
X54410923Y-111443890D01*
X54340180Y-111549764D01*
X54340176Y-111549771D01*
X54268527Y-111722748D01*
X54268525Y-111722756D01*
X54232000Y-111906379D01*
X54232000Y-112093620D01*
X54268525Y-112277243D01*
X54268527Y-112277251D01*
X54340176Y-112450228D01*
X54340180Y-112450235D01*
X54410923Y-112556110D01*
X54431800Y-112622787D01*
X54413315Y-112690167D01*
X54410923Y-112693890D01*
X54340180Y-112799764D01*
X54340176Y-112799771D01*
X54268527Y-112972748D01*
X54268525Y-112972756D01*
X54232000Y-113156379D01*
X54232000Y-113343620D01*
X54268525Y-113527243D01*
X54268527Y-113527251D01*
X54340177Y-113700230D01*
X54341381Y-113702032D01*
X54357254Y-113725788D01*
X54358041Y-113726965D01*
X54378919Y-113793643D01*
X54360478Y-113860953D01*
X54295498Y-113966300D01*
X54295496Y-113966305D01*
X54242151Y-114127290D01*
X54232000Y-114226647D01*
X54232000Y-114773337D01*
X54232001Y-114773355D01*
X54242150Y-114872707D01*
X54242151Y-114872710D01*
X54295496Y-115033694D01*
X54295501Y-115033705D01*
X54384529Y-115178040D01*
X54384532Y-115178044D01*
X54504455Y-115297967D01*
X54504459Y-115297970D01*
X54648794Y-115386998D01*
X54648797Y-115386999D01*
X54648803Y-115387003D01*
X54809792Y-115440349D01*
X54909155Y-115450500D01*
X55955844Y-115450499D01*
X55955852Y-115450498D01*
X55955855Y-115450498D01*
X56010260Y-115444940D01*
X56055208Y-115440349D01*
X56216197Y-115387003D01*
X56360544Y-115297968D01*
X56480468Y-115178044D01*
X56549142Y-115066705D01*
X56592680Y-115024417D01*
X56668716Y-114980520D01*
X56732171Y-114917065D01*
X57300000Y-114917065D01*
X57310407Y-115018923D01*
X57365094Y-115183959D01*
X57365096Y-115183964D01*
X57456370Y-115331941D01*
X57579308Y-115454879D01*
X57727285Y-115546153D01*
X57727290Y-115546155D01*
X57892326Y-115600842D01*
X57994184Y-115611249D01*
X57994197Y-115611250D01*
X58250000Y-115611250D01*
X58750000Y-115611250D01*
X59005803Y-115611250D01*
X59005815Y-115611249D01*
X59107673Y-115600842D01*
X59272709Y-115546155D01*
X59272714Y-115546153D01*
X59420691Y-115454879D01*
X59543629Y-115331941D01*
X59634903Y-115183964D01*
X59634905Y-115183959D01*
X59689592Y-115018923D01*
X59699999Y-114917065D01*
X59700000Y-114917052D01*
X59700000Y-114873750D01*
X58750000Y-114873750D01*
X58750000Y-115611250D01*
X58250000Y-115611250D01*
X58250000Y-114873750D01*
X57300000Y-114873750D01*
X57300000Y-114917065D01*
X56732171Y-114917065D01*
X56780520Y-114868716D01*
X56780520Y-114868714D01*
X56790728Y-114858507D01*
X56790729Y-114858504D01*
X57239167Y-114410068D01*
X57300489Y-114376584D01*
X57326847Y-114373750D01*
X59700000Y-114373750D01*
X59700000Y-114330447D01*
X59699999Y-114330434D01*
X59689192Y-114224651D01*
X59701961Y-114155958D01*
X59724868Y-114124367D01*
X59733940Y-114115296D01*
X59733940Y-114115294D01*
X59744142Y-114105093D01*
X59744145Y-114105088D01*
X60037417Y-113811816D01*
X60098739Y-113778334D01*
X60125097Y-113775500D01*
X63738331Y-113775500D01*
X63738347Y-113775501D01*
X63745943Y-113775501D01*
X63904054Y-113775501D01*
X63904057Y-113775501D01*
X64056785Y-113734577D01*
X64112756Y-113702262D01*
X64113153Y-113702033D01*
X64113154Y-113702032D01*
X64193716Y-113655520D01*
X64305520Y-113543716D01*
X64305520Y-113543714D01*
X64315724Y-113533511D01*
X64315727Y-113533506D01*
X65038322Y-112810911D01*
X65099643Y-112777428D01*
X65169335Y-112782412D01*
X65225268Y-112824284D01*
X65249685Y-112889748D01*
X65243043Y-112939548D01*
X65214632Y-113020742D01*
X65214630Y-113020750D01*
X65194435Y-113199996D01*
X65194435Y-113200003D01*
X65214630Y-113379249D01*
X65214631Y-113379254D01*
X65274211Y-113549523D01*
X65324662Y-113629815D01*
X65370184Y-113702262D01*
X65497738Y-113829816D01*
X65650478Y-113925789D01*
X65766266Y-113966305D01*
X65820745Y-113985368D01*
X65820750Y-113985369D01*
X65999996Y-114005565D01*
X66000000Y-114005565D01*
X66000004Y-114005565D01*
X66179249Y-113985369D01*
X66179252Y-113985368D01*
X66179255Y-113985368D01*
X66349522Y-113925789D01*
X66502262Y-113829816D01*
X66629816Y-113702262D01*
X66725789Y-113549522D01*
X66785368Y-113379255D01*
X66791039Y-113328927D01*
X66805565Y-113200003D01*
X66805565Y-113199996D01*
X66785369Y-113020750D01*
X66785368Y-113020745D01*
X66725788Y-112850476D01*
X66679889Y-112777428D01*
X66629816Y-112697738D01*
X66502262Y-112570184D01*
X66349523Y-112474211D01*
X66179254Y-112414631D01*
X66179249Y-112414630D01*
X66000004Y-112394435D01*
X65999996Y-112394435D01*
X65820750Y-112414630D01*
X65820742Y-112414632D01*
X65739548Y-112443043D01*
X65669769Y-112446604D01*
X65609142Y-112411875D01*
X65576915Y-112349881D01*
X65583321Y-112280306D01*
X65610910Y-112238323D01*
X66449237Y-111399996D01*
X73394435Y-111399996D01*
X73394435Y-111400003D01*
X73414630Y-111579249D01*
X73414631Y-111579254D01*
X73474211Y-111749523D01*
X73561205Y-111887972D01*
X73570184Y-111902262D01*
X73697738Y-112029816D01*
X73850478Y-112125789D01*
X73934187Y-112155080D01*
X74020745Y-112185368D01*
X74020750Y-112185369D01*
X74199996Y-112205565D01*
X74200000Y-112205565D01*
X74200004Y-112205565D01*
X74379249Y-112185369D01*
X74379250Y-112185368D01*
X74379255Y-112185368D01*
X74458251Y-112157725D01*
X74473651Y-112153431D01*
X74498687Y-112148166D01*
X74964242Y-111978172D01*
X74974635Y-111974890D01*
X75031785Y-111959577D01*
X75105142Y-111917224D01*
X75168716Y-111880520D01*
X75262417Y-111786819D01*
X75323740Y-111753334D01*
X75350098Y-111750500D01*
X75414980Y-111750500D01*
X75482019Y-111770185D01*
X75502661Y-111786819D01*
X75621311Y-111905469D01*
X75621313Y-111905470D01*
X75621315Y-111905472D01*
X75766894Y-111993478D01*
X75929304Y-112044086D01*
X75999884Y-112050500D01*
X75999887Y-112050500D01*
X76663113Y-112050500D01*
X76663116Y-112050500D01*
X76733696Y-112044086D01*
X76896106Y-111993478D01*
X77041685Y-111905472D01*
X77161972Y-111785185D01*
X77249978Y-111639606D01*
X77300586Y-111477196D01*
X77307000Y-111406616D01*
X77307000Y-110893384D01*
X77300586Y-110822804D01*
X77249978Y-110660394D01*
X77161972Y-110514815D01*
X77161970Y-110514813D01*
X77161969Y-110514811D01*
X77059839Y-110412681D01*
X77026354Y-110351358D01*
X77031338Y-110281666D01*
X77059839Y-110237319D01*
X77161968Y-110135189D01*
X77161969Y-110135188D01*
X77161972Y-110135185D01*
X77249978Y-109989606D01*
X77300586Y-109827196D01*
X77307000Y-109756616D01*
X77307000Y-109243384D01*
X77300586Y-109172804D01*
X77249978Y-109010394D01*
X77161972Y-108864815D01*
X77161970Y-108864813D01*
X77161969Y-108864811D01*
X77116723Y-108819565D01*
X77083238Y-108758242D01*
X77088222Y-108688550D01*
X77130094Y-108632617D01*
X77139284Y-108626360D01*
X77252503Y-108556526D01*
X77375526Y-108433503D01*
X77466862Y-108285425D01*
X77466866Y-108285412D01*
X77469116Y-108280590D01*
X77515287Y-108228149D01*
X77582480Y-108208995D01*
X77649362Y-108229208D01*
X77693884Y-108280590D01*
X77696136Y-108285420D01*
X77696138Y-108285425D01*
X77696140Y-108285429D01*
X77696141Y-108285430D01*
X77787471Y-108433499D01*
X77787474Y-108433503D01*
X77910497Y-108556526D01*
X78023693Y-108626346D01*
X78070416Y-108678293D01*
X78081639Y-108747256D01*
X78053795Y-108811338D01*
X78046277Y-108819564D01*
X78001030Y-108864811D01*
X77913022Y-109010393D01*
X77862413Y-109172807D01*
X77856000Y-109243386D01*
X77856000Y-109756613D01*
X77862413Y-109827192D01*
X77862413Y-109827194D01*
X77862414Y-109827196D01*
X77913022Y-109989606D01*
X77954779Y-110058681D01*
X78001030Y-110135188D01*
X78103161Y-110237319D01*
X78136646Y-110298642D01*
X78131662Y-110368334D01*
X78103161Y-110412681D01*
X78001031Y-110514810D01*
X78001030Y-110514811D01*
X77913022Y-110660393D01*
X77862413Y-110822807D01*
X77856000Y-110893386D01*
X77856000Y-111406613D01*
X77862413Y-111477192D01*
X77862413Y-111477194D01*
X77862414Y-111477196D01*
X77913022Y-111639606D01*
X77992551Y-111771163D01*
X78001030Y-111785188D01*
X78095621Y-111879779D01*
X78129106Y-111941102D01*
X78124122Y-112010794D01*
X78095621Y-112055141D01*
X78088052Y-112062710D01*
X78052660Y-112087465D01*
X77682159Y-112259767D01*
X77669870Y-112266125D01*
X77653870Y-112273024D01*
X77650476Y-112274211D01*
X77497737Y-112370184D01*
X77370184Y-112497737D01*
X77274211Y-112650476D01*
X77214631Y-112820745D01*
X77214630Y-112820750D01*
X77194435Y-112999996D01*
X77194435Y-113000003D01*
X77214630Y-113179249D01*
X77214631Y-113179254D01*
X77274211Y-113349523D01*
X77370184Y-113502262D01*
X77497738Y-113629816D01*
X77538646Y-113655520D01*
X77612670Y-113702033D01*
X77650478Y-113725789D01*
X77675593Y-113734577D01*
X77820745Y-113785368D01*
X77820750Y-113785369D01*
X77999996Y-113805565D01*
X78000000Y-113805565D01*
X78000004Y-113805565D01*
X78179249Y-113785369D01*
X78179252Y-113785368D01*
X78179255Y-113785368D01*
X78349522Y-113725789D01*
X78502262Y-113629816D01*
X78629816Y-113502262D01*
X78725789Y-113349522D01*
X78728024Y-113343132D01*
X78738470Y-113321917D01*
X78738085Y-113321704D01*
X78740225Y-113317845D01*
X78740236Y-113317830D01*
X78912532Y-112947338D01*
X78937283Y-112911951D01*
X79312020Y-112537216D01*
X79391077Y-112400284D01*
X79432001Y-112247557D01*
X79432001Y-112089442D01*
X79432001Y-112081847D01*
X79432000Y-112081829D01*
X79432000Y-112041715D01*
X79451685Y-111974676D01*
X79491849Y-111935598D01*
X79541685Y-111905472D01*
X79661972Y-111785185D01*
X79749978Y-111639606D01*
X79800586Y-111477196D01*
X79807000Y-111406616D01*
X79807000Y-110893384D01*
X79800586Y-110822804D01*
X79749978Y-110660394D01*
X79661972Y-110514815D01*
X79661970Y-110514813D01*
X79661969Y-110514811D01*
X79559839Y-110412681D01*
X79526354Y-110351358D01*
X79531338Y-110281666D01*
X79559839Y-110237319D01*
X79661968Y-110135189D01*
X79661969Y-110135188D01*
X79661972Y-110135185D01*
X79749978Y-109989606D01*
X79800586Y-109827196D01*
X79807000Y-109756616D01*
X79807000Y-109243384D01*
X79800586Y-109172804D01*
X79749978Y-109010394D01*
X79661972Y-108864815D01*
X79661970Y-108864813D01*
X79661969Y-108864811D01*
X79616723Y-108819565D01*
X79583238Y-108758242D01*
X79588222Y-108688550D01*
X79630094Y-108632617D01*
X79639284Y-108626360D01*
X79752503Y-108556526D01*
X79875526Y-108433503D01*
X79966862Y-108285425D01*
X79966866Y-108285412D01*
X79969116Y-108280590D01*
X80015287Y-108228149D01*
X80082480Y-108208995D01*
X80149362Y-108229208D01*
X80193884Y-108280590D01*
X80196136Y-108285420D01*
X80196138Y-108285425D01*
X80196140Y-108285429D01*
X80196141Y-108285430D01*
X80287471Y-108433499D01*
X80287474Y-108433503D01*
X80410496Y-108556525D01*
X80410500Y-108556528D01*
X80512868Y-108619670D01*
X80559593Y-108671618D01*
X80570814Y-108740580D01*
X80542971Y-108804662D01*
X80535453Y-108812888D01*
X80501031Y-108847309D01*
X80501030Y-108847311D01*
X80413022Y-108992893D01*
X80362413Y-109155307D01*
X80356000Y-109225886D01*
X80356000Y-109739113D01*
X80362413Y-109809692D01*
X80362413Y-109809694D01*
X80362414Y-109809696D01*
X80413022Y-109972106D01*
X80501030Y-110117688D01*
X80603161Y-110219819D01*
X80636646Y-110281142D01*
X80631662Y-110350834D01*
X80603161Y-110395181D01*
X80501031Y-110497310D01*
X80501030Y-110497311D01*
X80413022Y-110642893D01*
X80362413Y-110805307D01*
X80356000Y-110875886D01*
X80356000Y-111389113D01*
X80362413Y-111459692D01*
X80362413Y-111459694D01*
X80362414Y-111459696D01*
X80413022Y-111622106D01*
X80501028Y-111767685D01*
X80595687Y-111862344D01*
X80629171Y-111923665D01*
X80625047Y-111990976D01*
X80614632Y-112020741D01*
X80614631Y-112020746D01*
X80594435Y-112199996D01*
X80594435Y-112200003D01*
X80614630Y-112379249D01*
X80614631Y-112379254D01*
X80674211Y-112549523D01*
X80764924Y-112693891D01*
X80770184Y-112702262D01*
X80897738Y-112829816D01*
X81050478Y-112925789D01*
X81184679Y-112972748D01*
X81220745Y-112985368D01*
X81220750Y-112985369D01*
X81399996Y-113005565D01*
X81400000Y-113005565D01*
X81400004Y-113005565D01*
X81579249Y-112985369D01*
X81579252Y-112985368D01*
X81579255Y-112985368D01*
X81749522Y-112925789D01*
X81902262Y-112829816D01*
X82029816Y-112702262D01*
X82125789Y-112549522D01*
X82185368Y-112379255D01*
X82197204Y-112274211D01*
X82205565Y-112200003D01*
X82205565Y-112199996D01*
X82185369Y-112020750D01*
X82185366Y-112020737D01*
X82139339Y-111889200D01*
X82135777Y-111819421D01*
X82158772Y-111771769D01*
X82161970Y-111767687D01*
X82161970Y-111767686D01*
X82161972Y-111767685D01*
X82249978Y-111622106D01*
X82300586Y-111459696D01*
X82307000Y-111389116D01*
X82307000Y-110875884D01*
X82300586Y-110805304D01*
X82249978Y-110642894D01*
X82161972Y-110497315D01*
X82161970Y-110497313D01*
X82161969Y-110497311D01*
X82059839Y-110395181D01*
X82026354Y-110333858D01*
X82031338Y-110264166D01*
X82059839Y-110219819D01*
X82161968Y-110117689D01*
X82161969Y-110117688D01*
X82161972Y-110117685D01*
X82249978Y-109972106D01*
X82300586Y-109809696D01*
X82307000Y-109739116D01*
X82307000Y-109225884D01*
X82300586Y-109155304D01*
X82249978Y-108992894D01*
X82161972Y-108847315D01*
X82161970Y-108847313D01*
X82161969Y-108847311D01*
X82127547Y-108812889D01*
X82094062Y-108751566D01*
X82099046Y-108681874D01*
X82140918Y-108625941D01*
X82150114Y-108619680D01*
X82252503Y-108556526D01*
X82375526Y-108433503D01*
X82466862Y-108285425D01*
X82521587Y-108120275D01*
X82532000Y-108018348D01*
X82532000Y-107431652D01*
X82521587Y-107329725D01*
X82466862Y-107164575D01*
X82466858Y-107164569D01*
X82466857Y-107164566D01*
X82375528Y-107016500D01*
X82375525Y-107016496D01*
X82252503Y-106893474D01*
X82252495Y-106893468D01*
X82251312Y-106892738D01*
X82250671Y-106892025D01*
X82246836Y-106888993D01*
X82247354Y-106888337D01*
X82204591Y-106840787D01*
X82193375Y-106771823D01*
X82221223Y-106707743D01*
X82246623Y-106685738D01*
X82246523Y-106685612D01*
X82249342Y-106683382D01*
X82251332Y-106681659D01*
X82252192Y-106681128D01*
X82375129Y-106558191D01*
X82466403Y-106410214D01*
X82466405Y-106410209D01*
X82521092Y-106245173D01*
X82531499Y-106143315D01*
X82531500Y-106143302D01*
X82531500Y-106100000D01*
X75131500Y-106100000D01*
X75131500Y-106143315D01*
X75141907Y-106245173D01*
X75196594Y-106410209D01*
X75196596Y-106410214D01*
X75287870Y-106558191D01*
X75410809Y-106681130D01*
X75411673Y-106681663D01*
X75412141Y-106682183D01*
X75416477Y-106685612D01*
X75415891Y-106686352D01*
X75458401Y-106733608D01*
X75469626Y-106802570D01*
X75441786Y-106866654D01*
X75416101Y-106888914D01*
X75416164Y-106888993D01*
X75414412Y-106890378D01*
X75411694Y-106892734D01*
X75410505Y-106893467D01*
X75410496Y-106893474D01*
X75287474Y-107016496D01*
X75287471Y-107016500D01*
X75196142Y-107164566D01*
X75196137Y-107164577D01*
X75141413Y-107329723D01*
X75131000Y-107431644D01*
X75131000Y-108018355D01*
X75141413Y-108120276D01*
X75196137Y-108285422D01*
X75196142Y-108285433D01*
X75287471Y-108433499D01*
X75287474Y-108433503D01*
X75410497Y-108556526D01*
X75523693Y-108626346D01*
X75570416Y-108678293D01*
X75581639Y-108747256D01*
X75553795Y-108811338D01*
X75546277Y-108819564D01*
X75501030Y-108864811D01*
X75413022Y-109010393D01*
X75362413Y-109172807D01*
X75356000Y-109243386D01*
X75356000Y-109756613D01*
X75362413Y-109827192D01*
X75362413Y-109827194D01*
X75362414Y-109827196D01*
X75413022Y-109989606D01*
X75454779Y-110058681D01*
X75501030Y-110135188D01*
X75603161Y-110237319D01*
X75636646Y-110298642D01*
X75631662Y-110368334D01*
X75603161Y-110412681D01*
X75502661Y-110513181D01*
X75441338Y-110546666D01*
X75414980Y-110549500D01*
X74970940Y-110549500D01*
X74930019Y-110560464D01*
X74930019Y-110560465D01*
X74888635Y-110571554D01*
X74818215Y-110590423D01*
X74679406Y-110670564D01*
X74611506Y-110687036D01*
X74574876Y-110679654D01*
X74498687Y-110651834D01*
X74487104Y-110648150D01*
X74458111Y-110638927D01*
X74458104Y-110638926D01*
X74458095Y-110638924D01*
X74456718Y-110638754D01*
X74430992Y-110632735D01*
X74379252Y-110614631D01*
X74200004Y-110594435D01*
X74199996Y-110594435D01*
X74020750Y-110614630D01*
X74020745Y-110614631D01*
X73850476Y-110674211D01*
X73697737Y-110770184D01*
X73570184Y-110897737D01*
X73474211Y-111050476D01*
X73414631Y-111220745D01*
X73414630Y-111220750D01*
X73394435Y-111399996D01*
X66449237Y-111399996D01*
X72292550Y-105556684D01*
X75131500Y-105556684D01*
X75131500Y-105600000D01*
X76081500Y-105600000D01*
X76581500Y-105600000D01*
X78581500Y-105600000D01*
X79081500Y-105600000D01*
X81081500Y-105600000D01*
X81581500Y-105600000D01*
X82531500Y-105600000D01*
X82531500Y-105556697D01*
X82531499Y-105556684D01*
X82521092Y-105454826D01*
X82466405Y-105289790D01*
X82466403Y-105289785D01*
X82375129Y-105141808D01*
X82252191Y-105018870D01*
X82104214Y-104927596D01*
X82104209Y-104927594D01*
X81939173Y-104872907D01*
X81837315Y-104862500D01*
X81581500Y-104862500D01*
X81581500Y-105600000D01*
X81081500Y-105600000D01*
X81081500Y-104862500D01*
X80825684Y-104862500D01*
X80723826Y-104872907D01*
X80558790Y-104927594D01*
X80558785Y-104927596D01*
X80410808Y-105018870D01*
X80287870Y-105141808D01*
X80196593Y-105289791D01*
X80193882Y-105295606D01*
X80147710Y-105348045D01*
X80080516Y-105367197D01*
X80013635Y-105346981D01*
X79969118Y-105295606D01*
X79966406Y-105289791D01*
X79875129Y-105141808D01*
X79752191Y-105018870D01*
X79604214Y-104927596D01*
X79604209Y-104927594D01*
X79439173Y-104872907D01*
X79337315Y-104862500D01*
X79081500Y-104862500D01*
X79081500Y-105600000D01*
X78581500Y-105600000D01*
X78581500Y-104862500D01*
X78325684Y-104862500D01*
X78223826Y-104872907D01*
X78058790Y-104927594D01*
X78058785Y-104927596D01*
X77910808Y-105018870D01*
X77787870Y-105141808D01*
X77696593Y-105289791D01*
X77693882Y-105295606D01*
X77647710Y-105348045D01*
X77580516Y-105367197D01*
X77513635Y-105346981D01*
X77469118Y-105295606D01*
X77466406Y-105289791D01*
X77375129Y-105141808D01*
X77252191Y-105018870D01*
X77104214Y-104927596D01*
X77104209Y-104927594D01*
X76939173Y-104872907D01*
X76837315Y-104862500D01*
X76581500Y-104862500D01*
X76581500Y-105600000D01*
X76081500Y-105600000D01*
X76081500Y-104862500D01*
X75825684Y-104862500D01*
X75723826Y-104872907D01*
X75558790Y-104927594D01*
X75558785Y-104927596D01*
X75410808Y-105018870D01*
X75287870Y-105141808D01*
X75196596Y-105289785D01*
X75196594Y-105289790D01*
X75141907Y-105454826D01*
X75131500Y-105556684D01*
X72292550Y-105556684D01*
X72711951Y-105137283D01*
X72747338Y-105112532D01*
X73117830Y-104940236D01*
X73130117Y-104933878D01*
X73146135Y-104926973D01*
X73149522Y-104925789D01*
X73302262Y-104829816D01*
X73429816Y-104702262D01*
X73525789Y-104549522D01*
X73580553Y-104393014D01*
X73621275Y-104336239D01*
X73686228Y-104310492D01*
X73754789Y-104323948D01*
X73759595Y-104326583D01*
X73760257Y-104326965D01*
X73816743Y-104359577D01*
X73928546Y-104389534D01*
X73969469Y-104400500D01*
X73969470Y-104400500D01*
X80913331Y-104400500D01*
X80913347Y-104400501D01*
X80920943Y-104400501D01*
X81079054Y-104400501D01*
X81079057Y-104400501D01*
X81231785Y-104359577D01*
X81290766Y-104325524D01*
X81368716Y-104280520D01*
X81480520Y-104168716D01*
X81480520Y-104168714D01*
X81490724Y-104158511D01*
X81490728Y-104158506D01*
X82758506Y-102890728D01*
X82758511Y-102890724D01*
X82768714Y-102880520D01*
X82768716Y-102880520D01*
X82880520Y-102768716D01*
X82952825Y-102643479D01*
X82959577Y-102631785D01*
X83000501Y-102479057D01*
X83000501Y-102320943D01*
X83000501Y-102313348D01*
X83000500Y-102313330D01*
X83000500Y-58489060D01*
X83000501Y-58489047D01*
X83000501Y-58320944D01*
X82994713Y-58299344D01*
X82959577Y-58168216D01*
X82952764Y-58156415D01*
X82880524Y-58031290D01*
X82880518Y-58031282D01*
X81887590Y-57038355D01*
X81887588Y-57038352D01*
X81768717Y-56919481D01*
X81768716Y-56919480D01*
X81667047Y-56860782D01*
X81667046Y-56860781D01*
X81641233Y-56845878D01*
X81631785Y-56840423D01*
X81631784Y-56840422D01*
X81631783Y-56840422D01*
X81570853Y-56824096D01*
X81479057Y-56799499D01*
X81479054Y-56799499D01*
X81471579Y-56797496D01*
X81411919Y-56761131D01*
X81381390Y-56698284D01*
X81383898Y-56645628D01*
X81434063Y-56458408D01*
X81454659Y-56223000D01*
X81434063Y-55987592D01*
X81372903Y-55759337D01*
X81273035Y-55545171D01*
X81267425Y-55537158D01*
X81137494Y-55351597D01*
X80970402Y-55184506D01*
X80970396Y-55184501D01*
X80784842Y-55054575D01*
X80741217Y-54999998D01*
X80734023Y-54930500D01*
X80765546Y-54868145D01*
X80784842Y-54851425D01*
X80807026Y-54835891D01*
X80970401Y-54721495D01*
X81137495Y-54554401D01*
X81273035Y-54360830D01*
X81372903Y-54146663D01*
X81434063Y-53918408D01*
X81454659Y-53683000D01*
X81434063Y-53447592D01*
X81372903Y-53219337D01*
X81273035Y-53005171D01*
X81266187Y-52995390D01*
X81137494Y-52811597D01*
X80970402Y-52644506D01*
X80970395Y-52644501D01*
X80776834Y-52508967D01*
X80776830Y-52508965D01*
X80776828Y-52508964D01*
X80562663Y-52409097D01*
X80562659Y-52409096D01*
X80562655Y-52409094D01*
X80334413Y-52347938D01*
X80334403Y-52347936D01*
X80099001Y-52327341D01*
X80098999Y-52327341D01*
X79863596Y-52347936D01*
X79863586Y-52347938D01*
X79635344Y-52409094D01*
X79635335Y-52409098D01*
X79421171Y-52508964D01*
X79421169Y-52508965D01*
X79227600Y-52644503D01*
X79105673Y-52766430D01*
X79044350Y-52799914D01*
X78974658Y-52794930D01*
X78918725Y-52753058D01*
X78901810Y-52722081D01*
X78852797Y-52590671D01*
X78852793Y-52590664D01*
X78766547Y-52475455D01*
X78766544Y-52475452D01*
X78651335Y-52389206D01*
X78651328Y-52389202D01*
X78516482Y-52338908D01*
X78516483Y-52338908D01*
X78456883Y-52332501D01*
X78456881Y-52332500D01*
X78456873Y-52332500D01*
X78456864Y-52332500D01*
X76661129Y-52332500D01*
X76661123Y-52332501D01*
X76601516Y-52338908D01*
X76466671Y-52389202D01*
X76466664Y-52389206D01*
X76351455Y-52475452D01*
X76351452Y-52475455D01*
X76265206Y-52590664D01*
X76265202Y-52590671D01*
X76214908Y-52725517D01*
X76208501Y-52785116D01*
X76208500Y-52785135D01*
X76208500Y-52958500D01*
X76188815Y-53025539D01*
X76136011Y-53071294D01*
X76084500Y-53082500D01*
X74255519Y-53082500D01*
X74188480Y-53062815D01*
X74142725Y-53010011D01*
X74137134Y-52995390D01*
X74118439Y-52935397D01*
X74118438Y-52935396D01*
X74118438Y-52935394D01*
X74030432Y-52789815D01*
X74030430Y-52789813D01*
X74030429Y-52789811D01*
X73910148Y-52669530D01*
X73764566Y-52581522D01*
X73602156Y-52530914D01*
X73602154Y-52530913D01*
X73602152Y-52530913D01*
X73552738Y-52526423D01*
X73531576Y-52524500D01*
X73018344Y-52524500D01*
X72999105Y-52526248D01*
X72947767Y-52530913D01*
X72785353Y-52581522D01*
X72639771Y-52669530D01*
X72639770Y-52669531D01*
X72537641Y-52771661D01*
X72476318Y-52805146D01*
X72406626Y-52800162D01*
X72362279Y-52771661D01*
X72260148Y-52669530D01*
X72114566Y-52581522D01*
X71952156Y-52530914D01*
X71952154Y-52530913D01*
X71952152Y-52530913D01*
X71902738Y-52526423D01*
X71881576Y-52524500D01*
X71368344Y-52524500D01*
X71349105Y-52526248D01*
X71297767Y-52530913D01*
X71135353Y-52581522D01*
X70989771Y-52669530D01*
X70869490Y-52789811D01*
X70781482Y-52935393D01*
X70730873Y-53097807D01*
X70724460Y-53168386D01*
X70724460Y-53499902D01*
X70704775Y-53566941D01*
X70688141Y-53587583D01*
X70019481Y-54256242D01*
X70019480Y-54256244D01*
X69980926Y-54323022D01*
X69940423Y-54393175D01*
X69899499Y-54545903D01*
X69899499Y-54545905D01*
X69899499Y-54714006D01*
X69899500Y-54714019D01*
X69899500Y-55913330D01*
X69899499Y-55913348D01*
X69899499Y-56079054D01*
X69899498Y-56079054D01*
X69940423Y-56231787D01*
X69959805Y-56265355D01*
X69959806Y-56265358D01*
X70019475Y-56368709D01*
X70019481Y-56368717D01*
X70138349Y-56487585D01*
X70138355Y-56487590D01*
X71021431Y-57370667D01*
X71054916Y-57431990D01*
X71049932Y-57501682D01*
X71008062Y-57557614D01*
X70888452Y-57647155D01*
X70802206Y-57762364D01*
X70802202Y-57762371D01*
X70751908Y-57897217D01*
X70745501Y-57956816D01*
X70745501Y-57956823D01*
X70745500Y-57956835D01*
X70745500Y-59043170D01*
X70745501Y-59043176D01*
X70751909Y-59102784D01*
X70755650Y-59112815D01*
X70760566Y-59129817D01*
X70760801Y-59130564D01*
X70771614Y-59155982D01*
X70773664Y-59161113D01*
X70773883Y-59161699D01*
X70778912Y-59231387D01*
X70774207Y-59247638D01*
X70751834Y-59308911D01*
X70738928Y-59349482D01*
X70738925Y-59349494D01*
X70738754Y-59350881D01*
X70732735Y-59376606D01*
X70714631Y-59428345D01*
X70714631Y-59428346D01*
X70694435Y-59607596D01*
X70694435Y-59607603D01*
X70714630Y-59786849D01*
X70714631Y-59786854D01*
X70774211Y-59957123D01*
X70870184Y-60109862D01*
X70872131Y-60111809D01*
X70872986Y-60113376D01*
X70874525Y-60115305D01*
X70874187Y-60115574D01*
X70905616Y-60173132D01*
X70900632Y-60242824D01*
X70872137Y-60287166D01*
X70869489Y-60289814D01*
X70869488Y-60289814D01*
X70781482Y-60435393D01*
X70730873Y-60597807D01*
X70724460Y-60668386D01*
X70724460Y-61331613D01*
X70730873Y-61402192D01*
X70730873Y-61402194D01*
X70730874Y-61402196D01*
X70781482Y-61564606D01*
X70811076Y-61613561D01*
X70869490Y-61710188D01*
X70989771Y-61830469D01*
X70989773Y-61830470D01*
X70989775Y-61830472D01*
X71135354Y-61918478D01*
X71297764Y-61969086D01*
X71368344Y-61975500D01*
X71699863Y-61975500D01*
X71766902Y-61995185D01*
X71787544Y-62011819D01*
X72640099Y-62864374D01*
X72640109Y-62864385D01*
X72644439Y-62868715D01*
X72644440Y-62868716D01*
X72756244Y-62980520D01*
X72756246Y-62980521D01*
X72756250Y-62980524D01*
X72797297Y-63004222D01*
X72893176Y-63059577D01*
X73004979Y-63089534D01*
X73045902Y-63100500D01*
X73045903Y-63100500D01*
X76221032Y-63100500D01*
X76288071Y-63120185D01*
X76333826Y-63172989D01*
X76343770Y-63242147D01*
X76333414Y-63276904D01*
X76285571Y-63379502D01*
X76285567Y-63379513D01*
X76228364Y-63592999D01*
X76228364Y-63593000D01*
X77125988Y-63593000D01*
X77093075Y-63650007D01*
X77059000Y-63777174D01*
X77059000Y-63908826D01*
X77093075Y-64035993D01*
X77125988Y-64093000D01*
X76228364Y-64093000D01*
X76285567Y-64306486D01*
X76285570Y-64306492D01*
X76385399Y-64520578D01*
X76520894Y-64714082D01*
X76687917Y-64881105D01*
X76873595Y-65011119D01*
X76917219Y-65065696D01*
X76924412Y-65135195D01*
X76892890Y-65197549D01*
X76873595Y-65214269D01*
X76687594Y-65344508D01*
X76520506Y-65511596D01*
X76384965Y-65705170D01*
X76384962Y-65705175D01*
X76382289Y-65710909D01*
X76336115Y-65763346D01*
X76269909Y-65782500D01*
X72137940Y-65782500D01*
X72097019Y-65793464D01*
X72097019Y-65793465D01*
X72073493Y-65799769D01*
X71985214Y-65823423D01*
X71985209Y-65823426D01*
X71848290Y-65902475D01*
X71848282Y-65902481D01*
X71736478Y-66014286D01*
X67162583Y-70588182D01*
X67101260Y-70621667D01*
X67074902Y-70624501D01*
X64566602Y-70624501D01*
X64517630Y-70614421D01*
X64453265Y-70586751D01*
X64434724Y-70579212D01*
X64434721Y-70579211D01*
X64407713Y-70573069D01*
X64391881Y-70568339D01*
X64357484Y-70555510D01*
X64357483Y-70555509D01*
X64313491Y-70550780D01*
X64299252Y-70548404D01*
X64294425Y-70547306D01*
X64294427Y-70547306D01*
X64290974Y-70547026D01*
X64286977Y-70546703D01*
X64267074Y-70545486D01*
X64267073Y-70545486D01*
X64267072Y-70545486D01*
X64237818Y-70548464D01*
X64225262Y-70549101D01*
X62874575Y-70549101D01*
X62832045Y-70541579D01*
X62698695Y-70492888D01*
X62698686Y-70492885D01*
X62698683Y-70492884D01*
X62658111Y-70479978D01*
X62658104Y-70479977D01*
X62658095Y-70479975D01*
X62656718Y-70479805D01*
X62630992Y-70473786D01*
X62579252Y-70455682D01*
X62400004Y-70435486D01*
X62399996Y-70435486D01*
X62220750Y-70455681D01*
X62220745Y-70455682D01*
X62050476Y-70515262D01*
X61897737Y-70611235D01*
X61770184Y-70738788D01*
X61674210Y-70891529D01*
X61614630Y-71061800D01*
X61612769Y-71078321D01*
X61585700Y-71142734D01*
X61528103Y-71182287D01*
X61458266Y-71184422D01*
X61401868Y-71152114D01*
X59056733Y-68806979D01*
X59023248Y-68745656D01*
X59028232Y-68675964D01*
X59070104Y-68620031D01*
X59105411Y-68601592D01*
X59272707Y-68546156D01*
X59272714Y-68546153D01*
X59420691Y-68454879D01*
X59543629Y-68331941D01*
X59634903Y-68183964D01*
X59634905Y-68183959D01*
X59689592Y-68018923D01*
X59699999Y-67917065D01*
X59700000Y-67917052D01*
X59700000Y-67873750D01*
X58624000Y-67873750D01*
X58556961Y-67854065D01*
X58511206Y-67801261D01*
X58500000Y-67749750D01*
X58500000Y-67497750D01*
X58519685Y-67430711D01*
X58572489Y-67384956D01*
X58624000Y-67373750D01*
X59700000Y-67373750D01*
X59700000Y-67330447D01*
X59699999Y-67330434D01*
X59689592Y-67228576D01*
X59634905Y-67063540D01*
X59634903Y-67063535D01*
X59543629Y-66915558D01*
X59420690Y-66792619D01*
X59420685Y-66792615D01*
X59419822Y-66792083D01*
X59419353Y-66791562D01*
X59415023Y-66788138D01*
X59415608Y-66787398D01*
X59373096Y-66740136D01*
X59361873Y-66671174D01*
X59389716Y-66607091D01*
X59415398Y-66584836D01*
X59415336Y-66584757D01*
X59417106Y-66583357D01*
X59419820Y-66581005D01*
X59421003Y-66580276D01*
X59544026Y-66457253D01*
X59635362Y-66309175D01*
X59690087Y-66144025D01*
X59700500Y-66042098D01*
X59700500Y-65455402D01*
X59690087Y-65353475D01*
X59635362Y-65188325D01*
X59635358Y-65188319D01*
X59635357Y-65188316D01*
X59544028Y-65040250D01*
X59544025Y-65040246D01*
X59421003Y-64917224D01*
X59420999Y-64917221D01*
X59266778Y-64822096D01*
X59267531Y-64820873D01*
X59221126Y-64780019D01*
X59201970Y-64712826D01*
X59222182Y-64645944D01*
X59238280Y-64626126D01*
X59330472Y-64533935D01*
X59418478Y-64388356D01*
X59469086Y-64225946D01*
X59475500Y-64155366D01*
X59475500Y-63642134D01*
X59469086Y-63571554D01*
X59418478Y-63409144D01*
X59330472Y-63263565D01*
X59330470Y-63263563D01*
X59330469Y-63263561D01*
X59228339Y-63161431D01*
X59194854Y-63100108D01*
X59199838Y-63030416D01*
X59228339Y-62986069D01*
X59330468Y-62883939D01*
X59330469Y-62883938D01*
X59330472Y-62883935D01*
X59418478Y-62738356D01*
X59469086Y-62575946D01*
X59475500Y-62505366D01*
X59475500Y-61992134D01*
X59469086Y-61921554D01*
X59418478Y-61759144D01*
X59330472Y-61613565D01*
X59330470Y-61613563D01*
X59330469Y-61613561D01*
X59210188Y-61493280D01*
X59064606Y-61405272D01*
X59040415Y-61397734D01*
X58902196Y-61354664D01*
X58902194Y-61354663D01*
X58902192Y-61354663D01*
X58852778Y-61350173D01*
X58831616Y-61348250D01*
X58831613Y-61348250D01*
X58500097Y-61348250D01*
X58433058Y-61328565D01*
X58412416Y-61311931D01*
X58138840Y-61038355D01*
X58138838Y-61038352D01*
X58019967Y-60919481D01*
X58019966Y-60919480D01*
X57933154Y-60869360D01*
X57933154Y-60869359D01*
X57933150Y-60869358D01*
X57883035Y-60840423D01*
X57730307Y-60799499D01*
X57572193Y-60799499D01*
X57564597Y-60799499D01*
X57564581Y-60799500D01*
X54920940Y-60799500D01*
X54880019Y-60810464D01*
X54880019Y-60810465D01*
X54842751Y-60820451D01*
X54768214Y-60840423D01*
X54768209Y-60840426D01*
X54631290Y-60919475D01*
X54631282Y-60919481D01*
X52719479Y-62831284D01*
X52697869Y-62868716D01*
X52680096Y-62899500D01*
X52640423Y-62968215D01*
X52599499Y-63120943D01*
X52599499Y-63120945D01*
X52599499Y-63289046D01*
X52599500Y-63289059D01*
X52599500Y-105113330D01*
X52599499Y-105113348D01*
X52599499Y-105279054D01*
X52599498Y-105279054D01*
X50500500Y-105279054D01*
X50500500Y-54945186D01*
X52679500Y-54945186D01*
X52679500Y-55214813D01*
X52709686Y-55482719D01*
X52709688Y-55482731D01*
X52769684Y-55745594D01*
X52769687Y-55745602D01*
X52858734Y-56000082D01*
X52975714Y-56242994D01*
X52989766Y-56265357D01*
X53119162Y-56471289D01*
X53132158Y-56487585D01*
X53258192Y-56645628D01*
X53287266Y-56682085D01*
X53477915Y-56872734D01*
X53688711Y-57040838D01*
X53917003Y-57184284D01*
X54159921Y-57301267D01*
X54315571Y-57355731D01*
X54414397Y-57390312D01*
X54414405Y-57390315D01*
X54414408Y-57390315D01*
X54414409Y-57390316D01*
X54677268Y-57450312D01*
X54945187Y-57480499D01*
X54945188Y-57480500D01*
X54945191Y-57480500D01*
X55214812Y-57480500D01*
X55214812Y-57480499D01*
X55482732Y-57450312D01*
X55745591Y-57390316D01*
X56000079Y-57301267D01*
X56242997Y-57184284D01*
X56471289Y-57040838D01*
X56682085Y-56872734D01*
X56872734Y-56682085D01*
X57040838Y-56471289D01*
X57184284Y-56242997D01*
X57193915Y-56222999D01*
X63503341Y-56222999D01*
X63503341Y-56223000D01*
X63523936Y-56458403D01*
X63523938Y-56458413D01*
X63585094Y-56686655D01*
X63585096Y-56686659D01*
X63585097Y-56686663D01*
X63637714Y-56799500D01*
X63684965Y-56900830D01*
X63684967Y-56900834D01*
X63721965Y-56953672D01*
X63820501Y-57094396D01*
X63820506Y-57094402D01*
X63987597Y-57261493D01*
X63987603Y-57261498D01*
X64173158Y-57391425D01*
X64216783Y-57446002D01*
X64223977Y-57515500D01*
X64192454Y-57577855D01*
X64173158Y-57594575D01*
X63987597Y-57724505D01*
X63820505Y-57891597D01*
X63684965Y-58085169D01*
X63684964Y-58085171D01*
X63585098Y-58299335D01*
X63585094Y-58299344D01*
X63523938Y-58527586D01*
X63523936Y-58527596D01*
X63503341Y-58762999D01*
X63503341Y-58763000D01*
X63523936Y-58998403D01*
X63523938Y-58998413D01*
X63585094Y-59226655D01*
X63585096Y-59226659D01*
X63585097Y-59226663D01*
X63665004Y-59398023D01*
X63684965Y-59440830D01*
X63684967Y-59440834D01*
X63793281Y-59595521D01*
X63820501Y-59634396D01*
X63820506Y-59634402D01*
X63987597Y-59801493D01*
X63987603Y-59801498D01*
X64173158Y-59931425D01*
X64216783Y-59986002D01*
X64223977Y-60055500D01*
X64192454Y-60117855D01*
X64173158Y-60134575D01*
X63987597Y-60264505D01*
X63820505Y-60431597D01*
X63684965Y-60625169D01*
X63684964Y-60625171D01*
X63585098Y-60839335D01*
X63585094Y-60839344D01*
X63523938Y-61067586D01*
X63523936Y-61067596D01*
X63503341Y-61302999D01*
X63503341Y-61303000D01*
X63523936Y-61538403D01*
X63523938Y-61538413D01*
X63585094Y-61766655D01*
X63585096Y-61766659D01*
X63585097Y-61766663D01*
X63665004Y-61938023D01*
X63684965Y-61980830D01*
X63684967Y-61980834D01*
X63758722Y-62086166D01*
X63820501Y-62174396D01*
X63820506Y-62174402D01*
X63987597Y-62341493D01*
X63987603Y-62341498D01*
X64173158Y-62471425D01*
X64216783Y-62526002D01*
X64223977Y-62595500D01*
X64192454Y-62657855D01*
X64173158Y-62674575D01*
X63987597Y-62804505D01*
X63820505Y-62971597D01*
X63684965Y-63165169D01*
X63684964Y-63165171D01*
X63585098Y-63379335D01*
X63585094Y-63379344D01*
X63523938Y-63607586D01*
X63523936Y-63607596D01*
X63503341Y-63842999D01*
X63503341Y-63843000D01*
X63523936Y-64078403D01*
X63523938Y-64078413D01*
X63585094Y-64306655D01*
X63585096Y-64306659D01*
X63585097Y-64306663D01*
X63625866Y-64394092D01*
X63684965Y-64520830D01*
X63684967Y-64520834D01*
X63758691Y-64626122D01*
X63820505Y-64714401D01*
X63987599Y-64881495D01*
X64084384Y-64949265D01*
X64181165Y-65017032D01*
X64181167Y-65017033D01*
X64181170Y-65017035D01*
X64395337Y-65116903D01*
X64623592Y-65178063D01*
X64811918Y-65194539D01*
X64858999Y-65198659D01*
X64859000Y-65198659D01*
X64859001Y-65198659D01*
X64898234Y-65195226D01*
X65094408Y-65178063D01*
X65322663Y-65116903D01*
X65536830Y-65017035D01*
X65730401Y-64881495D01*
X65897495Y-64714401D01*
X66027425Y-64528842D01*
X66082002Y-64485217D01*
X66151500Y-64478023D01*
X66213855Y-64509546D01*
X66230575Y-64528842D01*
X66360500Y-64714395D01*
X66360505Y-64714401D01*
X66527599Y-64881495D01*
X66624384Y-64949265D01*
X66721165Y-65017032D01*
X66721167Y-65017033D01*
X66721170Y-65017035D01*
X66935337Y-65116903D01*
X67163592Y-65178063D01*
X67351918Y-65194539D01*
X67398999Y-65198659D01*
X67399000Y-65198659D01*
X67399001Y-65198659D01*
X67438234Y-65195226D01*
X67634408Y-65178063D01*
X67862663Y-65116903D01*
X68076830Y-65017035D01*
X68270401Y-64881495D01*
X68437495Y-64714401D01*
X68573035Y-64520830D01*
X68672903Y-64306663D01*
X68734063Y-64078408D01*
X68754659Y-63843000D01*
X68753194Y-63826261D01*
X68738332Y-63656384D01*
X68734063Y-63607592D01*
X68672903Y-63379337D01*
X68573035Y-63165171D01*
X68570417Y-63161431D01*
X68437494Y-62971597D01*
X68270402Y-62804506D01*
X68270396Y-62804501D01*
X68084842Y-62674575D01*
X68041217Y-62619998D01*
X68034023Y-62550500D01*
X68065546Y-62488145D01*
X68084842Y-62471425D01*
X68177737Y-62406379D01*
X68270401Y-62341495D01*
X68437495Y-62174401D01*
X68573035Y-61980830D01*
X68672903Y-61766663D01*
X68734063Y-61538408D01*
X68754659Y-61303000D01*
X68734063Y-61067592D01*
X68672903Y-60839337D01*
X68573035Y-60625171D01*
X68567425Y-60617158D01*
X68437494Y-60431597D01*
X68270402Y-60264506D01*
X68270396Y-60264501D01*
X68084842Y-60134575D01*
X68041217Y-60079998D01*
X68034023Y-60010500D01*
X68065546Y-59948145D01*
X68084842Y-59931425D01*
X68107026Y-59915891D01*
X68270401Y-59801495D01*
X68437495Y-59634401D01*
X68573035Y-59440830D01*
X68672903Y-59226663D01*
X68734063Y-58998408D01*
X68754659Y-58763000D01*
X68734063Y-58527592D01*
X68672903Y-58299337D01*
X68573035Y-58085171D01*
X68567425Y-58077158D01*
X68437494Y-57891597D01*
X68270402Y-57724506D01*
X68270396Y-57724501D01*
X68084842Y-57594575D01*
X68041217Y-57539998D01*
X68034023Y-57470500D01*
X68065546Y-57408145D01*
X68084842Y-57391425D01*
X68144066Y-57349956D01*
X68270401Y-57261495D01*
X68437495Y-57094401D01*
X68573035Y-56900830D01*
X68672903Y-56686663D01*
X68734063Y-56458408D01*
X68754659Y-56223000D01*
X68734063Y-55987592D01*
X68672903Y-55759337D01*
X68573035Y-55545171D01*
X68567425Y-55537158D01*
X68437494Y-55351597D01*
X68270402Y-55184506D01*
X68270396Y-55184501D01*
X68084842Y-55054575D01*
X68041217Y-54999998D01*
X68034023Y-54930500D01*
X68065546Y-54868145D01*
X68084842Y-54851425D01*
X68107026Y-54835891D01*
X68270401Y-54721495D01*
X68437495Y-54554401D01*
X68573035Y-54360830D01*
X68672903Y-54146663D01*
X68734063Y-53918408D01*
X68754659Y-53683000D01*
X68734063Y-53447592D01*
X68672903Y-53219337D01*
X68573035Y-53005171D01*
X68566187Y-52995390D01*
X68437494Y-52811597D01*
X68270402Y-52644506D01*
X68270395Y-52644501D01*
X68076834Y-52508967D01*
X68076830Y-52508965D01*
X68076828Y-52508964D01*
X67862663Y-52409097D01*
X67862659Y-52409096D01*
X67862655Y-52409094D01*
X67634413Y-52347938D01*
X67634403Y-52347936D01*
X67399001Y-52327341D01*
X67398999Y-52327341D01*
X67163596Y-52347936D01*
X67163586Y-52347938D01*
X66935344Y-52409094D01*
X66935335Y-52409098D01*
X66721171Y-52508964D01*
X66721169Y-52508965D01*
X66527600Y-52644503D01*
X66405673Y-52766430D01*
X66344350Y-52799914D01*
X66274658Y-52794930D01*
X66218725Y-52753058D01*
X66201810Y-52722081D01*
X66152797Y-52590671D01*
X66152793Y-52590664D01*
X66066547Y-52475455D01*
X66066544Y-52475452D01*
X65951335Y-52389206D01*
X65951328Y-52389202D01*
X65816482Y-52338908D01*
X65816483Y-52338908D01*
X65756883Y-52332501D01*
X65756881Y-52332500D01*
X65756873Y-52332500D01*
X65756864Y-52332500D01*
X63961129Y-52332500D01*
X63961123Y-52332501D01*
X63901516Y-52338908D01*
X63766671Y-52389202D01*
X63766664Y-52389206D01*
X63651455Y-52475452D01*
X63651452Y-52475455D01*
X63565206Y-52590664D01*
X63565202Y-52590671D01*
X63514908Y-52725517D01*
X63508501Y-52785116D01*
X63508500Y-52785135D01*
X63508500Y-54580870D01*
X63508501Y-54580876D01*
X63514908Y-54640483D01*
X63565202Y-54775328D01*
X63565206Y-54775335D01*
X63651452Y-54890544D01*
X63651455Y-54890547D01*
X63766664Y-54976793D01*
X63766671Y-54976797D01*
X63898081Y-55025810D01*
X63954015Y-55067681D01*
X63978432Y-55133145D01*
X63963580Y-55201418D01*
X63942430Y-55229673D01*
X63820503Y-55351600D01*
X63684965Y-55545169D01*
X63684964Y-55545171D01*
X63585098Y-55759335D01*
X63585094Y-55759344D01*
X63523938Y-55987586D01*
X63523936Y-55987596D01*
X63503341Y-56222999D01*
X57193915Y-56222999D01*
X57301267Y-56000079D01*
X57390316Y-55745591D01*
X57450312Y-55482732D01*
X57480500Y-55214809D01*
X57480500Y-54945191D01*
X57450312Y-54677268D01*
X57390316Y-54414409D01*
X57387898Y-54407500D01*
X57334971Y-54256242D01*
X57301267Y-54159921D01*
X57184284Y-53917003D01*
X57040838Y-53688711D01*
X56872734Y-53477915D01*
X56682085Y-53287266D01*
X56471289Y-53119162D01*
X56242997Y-52975716D01*
X56242994Y-52975714D01*
X56000082Y-52858734D01*
X55745602Y-52769687D01*
X55745594Y-52769684D01*
X55537029Y-52722081D01*
X55482732Y-52709688D01*
X55482728Y-52709687D01*
X55482719Y-52709686D01*
X55214813Y-52679500D01*
X55214809Y-52679500D01*
X54945191Y-52679500D01*
X54945186Y-52679500D01*
X54677280Y-52709686D01*
X54677268Y-52709688D01*
X54414405Y-52769684D01*
X54414397Y-52769687D01*
X54159917Y-52858734D01*
X53917005Y-52975714D01*
X53688712Y-53119161D01*
X53477915Y-53287265D01*
X53287265Y-53477915D01*
X53119161Y-53688712D01*
X52975714Y-53917005D01*
X52858734Y-54159917D01*
X52769687Y-54414397D01*
X52769684Y-54414405D01*
X52709688Y-54677268D01*
X52709686Y-54677280D01*
X52679500Y-54945186D01*
X50500500Y-54945186D01*
X50500500Y-50624500D01*
X50520185Y-50557461D01*
X50572989Y-50511706D01*
X50624500Y-50500500D01*
X87425900Y-50500500D01*
X87492939Y-50520185D01*
G37*
%TD.AperFunction*%
%TD*%
M02*
