%TF.GenerationSoftware,KiCad,Pcbnew,8.0.7*%
%TF.CreationDate,2025-01-18T12:10:44-08:00*%
%TF.ProjectId,plex-loader,706c6578-2d6c-46f6-9164-65722e6b6963,rev?*%
%TF.SameCoordinates,Original*%
%TF.FileFunction,Copper,L4,Bot*%
%TF.FilePolarity,Positive*%
%FSLAX46Y46*%
G04 Gerber Fmt 4.6, Leading zero omitted, Abs format (unit mm)*
G04 Created by KiCad (PCBNEW 8.0.7) date 2025-01-18 12:10:44*
%MOMM*%
%LPD*%
G01*
G04 APERTURE LIST*
G04 Aperture macros list*
%AMRoundRect*
0 Rectangle with rounded corners*
0 $1 Rounding radius*
0 $2 $3 $4 $5 $6 $7 $8 $9 X,Y pos of 4 corners*
0 Add a 4 corners polygon primitive as box body*
4,1,4,$2,$3,$4,$5,$6,$7,$8,$9,$2,$3,0*
0 Add four circle primitives for the rounded corners*
1,1,$1+$1,$2,$3*
1,1,$1+$1,$4,$5*
1,1,$1+$1,$6,$7*
1,1,$1+$1,$8,$9*
0 Add four rect primitives between the rounded corners*
20,1,$1+$1,$2,$3,$4,$5,0*
20,1,$1+$1,$4,$5,$6,$7,0*
20,1,$1+$1,$6,$7,$8,$9,0*
20,1,$1+$1,$8,$9,$2,$3,0*%
G04 Aperture macros list end*
%TA.AperFunction,ComponentPad*%
%ADD10RoundRect,0.225000X0.475000X-0.225000X0.475000X0.225000X-0.475000X0.225000X-0.475000X-0.225000X0*%
%TD*%
%TA.AperFunction,ComponentPad*%
%ADD11O,1.400000X0.900000*%
%TD*%
%TA.AperFunction,ComponentPad*%
%ADD12R,1.700000X1.700000*%
%TD*%
%TA.AperFunction,ComponentPad*%
%ADD13O,1.700000X1.700000*%
%TD*%
%TA.AperFunction,SMDPad,CuDef*%
%ADD14RoundRect,0.140000X-0.140000X-0.170000X0.140000X-0.170000X0.140000X0.170000X-0.140000X0.170000X0*%
%TD*%
%TA.AperFunction,SMDPad,CuDef*%
%ADD15RoundRect,0.225000X-0.250000X0.225000X-0.250000X-0.225000X0.250000X-0.225000X0.250000X0.225000X0*%
%TD*%
%TA.AperFunction,SMDPad,CuDef*%
%ADD16RoundRect,0.200000X0.200000X0.275000X-0.200000X0.275000X-0.200000X-0.275000X0.200000X-0.275000X0*%
%TD*%
%TA.AperFunction,SMDPad,CuDef*%
%ADD17RoundRect,0.200000X0.275000X-0.200000X0.275000X0.200000X-0.275000X0.200000X-0.275000X-0.200000X0*%
%TD*%
%TA.AperFunction,SMDPad,CuDef*%
%ADD18RoundRect,0.140000X-0.170000X0.140000X-0.170000X-0.140000X0.170000X-0.140000X0.170000X0.140000X0*%
%TD*%
%TA.AperFunction,SMDPad,CuDef*%
%ADD19RoundRect,0.200000X-0.275000X0.200000X-0.275000X-0.200000X0.275000X-0.200000X0.275000X0.200000X0*%
%TD*%
%TA.AperFunction,SMDPad,CuDef*%
%ADD20R,0.550000X1.500000*%
%TD*%
%TA.AperFunction,SMDPad,CuDef*%
%ADD21R,1.500000X0.550000*%
%TD*%
%TA.AperFunction,ViaPad*%
%ADD22C,0.600000*%
%TD*%
%TA.AperFunction,Conductor*%
%ADD23C,0.200000*%
%TD*%
G04 APERTURE END LIST*
D10*
%TO.P,J6,1,Pin_1*%
%TO.N,/MCLR6*%
X55432500Y-114500000D03*
D11*
%TO.P,J6,2,Pin_2*%
%TO.N,unconnected-(J6-Pin_2-Pad2)*%
X55432500Y-113250000D03*
%TO.P,J6,3,Pin_3*%
%TO.N,unconnected-(J6-Pin_3-Pad3)*%
X55432500Y-112000000D03*
%TO.P,J6,4,Pin_4*%
%TO.N,/PGD6*%
X55432500Y-110750000D03*
%TO.P,J6,5,Pin_5*%
%TO.N,/PGC6*%
X55432500Y-109500000D03*
%TD*%
D12*
%TO.P,J10,1,Pin_1*%
%TO.N,unconnected-(J10-Pin_1-Pad1)*%
X64859000Y-53683000D03*
D13*
%TO.P,J10,2,Pin_2*%
%TO.N,unconnected-(J10-Pin_2-Pad2)*%
X67399000Y-53683000D03*
%TO.P,J10,3,Pin_3*%
%TO.N,unconnected-(J10-Pin_3-Pad3)*%
X64859000Y-56223000D03*
%TO.P,J10,4,Pin_4*%
%TO.N,unconnected-(J10-Pin_4-Pad4)*%
X67399000Y-56223000D03*
%TO.P,J10,5,Pin_5*%
%TO.N,unconnected-(J10-Pin_5-Pad5)*%
X64859000Y-58763000D03*
%TO.P,J10,6,Pin_6*%
%TO.N,unconnected-(J10-Pin_6-Pad6)*%
X67399000Y-58763000D03*
%TO.P,J10,7,Pin_7*%
%TO.N,unconnected-(J10-Pin_7-Pad7)*%
X64859000Y-61303000D03*
%TO.P,J10,8,Pin_8*%
%TO.N,unconnected-(J10-Pin_8-Pad8)*%
X67399000Y-61303000D03*
%TO.P,J10,9,Pin_9*%
%TO.N,unconnected-(J10-Pin_9-Pad9)*%
X64859000Y-63843000D03*
%TO.P,J10,10,Pin_10*%
%TO.N,unconnected-(J10-Pin_10-Pad10)*%
X67399000Y-63843000D03*
%TD*%
D10*
%TO.P,J3,1,Pin_1*%
%TO.N,/MCLR3*%
X55432500Y-86300000D03*
D11*
%TO.P,J3,2,Pin_2*%
%TO.N,unconnected-(J3-Pin_2-Pad2)*%
X55432500Y-85050000D03*
%TO.P,J3,3,Pin_3*%
%TO.N,unconnected-(J3-Pin_3-Pad3)*%
X55432500Y-83800000D03*
%TO.P,J3,4,Pin_4*%
%TO.N,/PGD3*%
X55432500Y-82550000D03*
%TO.P,J3,5,Pin_5*%
%TO.N,/PGC3*%
X55432500Y-81300000D03*
%TD*%
D10*
%TO.P,J4,1,Pin_1*%
%TO.N,/MCLR4*%
X55432500Y-95700000D03*
D11*
%TO.P,J4,2,Pin_2*%
%TO.N,unconnected-(J4-Pin_2-Pad2)*%
X55432500Y-94450000D03*
%TO.P,J4,3,Pin_3*%
%TO.N,unconnected-(J4-Pin_3-Pad3)*%
X55432500Y-93200000D03*
%TO.P,J4,4,Pin_4*%
%TO.N,/PGD4*%
X55432500Y-91950000D03*
%TO.P,J4,5,Pin_5*%
%TO.N,/PGC4*%
X55432500Y-90700000D03*
%TD*%
D12*
%TO.P,J9,1,Pin_1*%
%TO.N,+3.3V*%
X77559000Y-53683000D03*
D13*
%TO.P,J9,2,Pin_2*%
%TO.N,+5V*%
X80099000Y-53683000D03*
%TO.P,J9,3,Pin_3*%
%TO.N,/GPIO2*%
X77559000Y-56223000D03*
%TO.P,J9,4,Pin_4*%
%TO.N,+5V*%
X80099000Y-56223000D03*
%TO.P,J9,5,Pin_5*%
%TO.N,/GPIO3*%
X77559000Y-58763000D03*
%TO.P,J9,6,Pin_6*%
%TO.N,GND*%
X80099000Y-58763000D03*
%TO.P,J9,7,Pin_7*%
%TO.N,unconnected-(J9-Pin_7-Pad7)*%
X77559000Y-61303000D03*
%TO.P,J9,8,Pin_8*%
%TO.N,unconnected-(J9-Pin_8-Pad8)*%
X80099000Y-61303000D03*
%TO.P,J9,9,Pin_9*%
%TO.N,unconnected-(J9-Pin_9-Pad9)*%
X77559000Y-63843000D03*
%TO.P,J9,10,Pin_10*%
%TO.N,unconnected-(J9-Pin_10-Pad10)*%
X80099000Y-63843000D03*
%TO.P,J9,11,Pin_11*%
%TO.N,/GPIO17*%
X77559000Y-66383000D03*
%TO.P,J9,12,Pin_12*%
%TO.N,/GPIO18*%
X80099000Y-66383000D03*
%TO.P,J9,13,Pin_13*%
%TO.N,/GPIO27*%
X77559000Y-68923000D03*
%TO.P,J9,14,Pin_14*%
%TO.N,unconnected-(J9-Pin_14-Pad14)*%
X80099000Y-68923000D03*
%TO.P,J9,15,Pin_15*%
%TO.N,/GPIO22*%
X77559000Y-71463000D03*
%TO.P,J9,16,Pin_16*%
%TO.N,/GPIO23*%
X80099000Y-71463000D03*
%TO.P,J9,17,Pin_17*%
%TO.N,unconnected-(J9-Pin_17-Pad17)*%
X77559000Y-74003000D03*
%TO.P,J9,18,Pin_18*%
%TO.N,/GPIO24*%
X80099000Y-74003000D03*
%TO.P,J9,19,Pin_19*%
%TO.N,/GPIO10*%
X77559000Y-76543000D03*
%TO.P,J9,20,Pin_20*%
%TO.N,unconnected-(J9-Pin_20-Pad20)*%
X80099000Y-76543000D03*
%TO.P,J9,21,Pin_21*%
%TO.N,unconnected-(J9-Pin_21-Pad21)*%
X77559000Y-79083000D03*
%TO.P,J9,22,Pin_22*%
%TO.N,/GPIO25*%
X80099000Y-79083000D03*
%TO.P,J9,23,Pin_23*%
%TO.N,unconnected-(J9-Pin_23-Pad23)*%
X77559000Y-81623000D03*
%TO.P,J9,24,Pin_24*%
%TO.N,unconnected-(J9-Pin_24-Pad24)*%
X80099000Y-81623000D03*
%TO.P,J9,25,Pin_25*%
%TO.N,unconnected-(J9-Pin_25-Pad25)*%
X77559000Y-84163000D03*
%TO.P,J9,26,Pin_26*%
%TO.N,unconnected-(J9-Pin_26-Pad26)*%
X80099000Y-84163000D03*
%TO.P,J9,27,Pin_27*%
%TO.N,unconnected-(J9-Pin_27-Pad27)*%
X77559000Y-86703000D03*
%TO.P,J9,28,Pin_28*%
%TO.N,unconnected-(J9-Pin_28-Pad28)*%
X80099000Y-86703000D03*
%TO.P,J9,29,Pin_29*%
%TO.N,unconnected-(J9-Pin_29-Pad29)*%
X77559000Y-89243000D03*
%TO.P,J9,30,Pin_30*%
%TO.N,unconnected-(J9-Pin_30-Pad30)*%
X80099000Y-89243000D03*
%TO.P,J9,31,Pin_31*%
%TO.N,unconnected-(J9-Pin_31-Pad31)*%
X77559000Y-91783000D03*
%TO.P,J9,32,Pin_32*%
%TO.N,unconnected-(J9-Pin_32-Pad32)*%
X80099000Y-91783000D03*
%TO.P,J9,33,Pin_33*%
%TO.N,unconnected-(J9-Pin_33-Pad33)*%
X77559000Y-94323000D03*
%TO.P,J9,34,Pin_34*%
%TO.N,unconnected-(J9-Pin_34-Pad34)*%
X80099000Y-94323000D03*
%TO.P,J9,35,Pin_35*%
%TO.N,unconnected-(J9-Pin_35-Pad35)*%
X77559000Y-96863000D03*
%TO.P,J9,36,Pin_36*%
%TO.N,unconnected-(J9-Pin_36-Pad36)*%
X80099000Y-96863000D03*
%TO.P,J9,37,Pin_37*%
%TO.N,unconnected-(J9-Pin_37-Pad37)*%
X77559000Y-99403000D03*
%TO.P,J9,38,Pin_38*%
%TO.N,unconnected-(J9-Pin_38-Pad38)*%
X80099000Y-99403000D03*
%TO.P,J9,39,Pin_39*%
%TO.N,unconnected-(J9-Pin_39-Pad39)*%
X77559000Y-101943000D03*
%TO.P,J9,40,Pin_40*%
%TO.N,unconnected-(J9-Pin_40-Pad40)*%
X80099000Y-101943000D03*
%TD*%
D10*
%TO.P,J2,1,Pin_1*%
%TO.N,/MCLR2*%
X55432500Y-76900000D03*
D11*
%TO.P,J2,2,Pin_2*%
%TO.N,unconnected-(J2-Pin_2-Pad2)*%
X55432500Y-75650000D03*
%TO.P,J2,3,Pin_3*%
%TO.N,unconnected-(J2-Pin_3-Pad3)*%
X55432500Y-74400000D03*
%TO.P,J2,4,Pin_4*%
%TO.N,/PGD2*%
X55432500Y-73150000D03*
%TO.P,J2,5,Pin_5*%
%TO.N,/PGC2*%
X55432500Y-71900000D03*
%TD*%
D10*
%TO.P,J5,1,Pin_1*%
%TO.N,/MCLR5*%
X55432500Y-105100000D03*
D11*
%TO.P,J5,2,Pin_2*%
%TO.N,unconnected-(J5-Pin_2-Pad2)*%
X55432500Y-103850000D03*
%TO.P,J5,3,Pin_3*%
%TO.N,unconnected-(J5-Pin_3-Pad3)*%
X55432500Y-102600000D03*
%TO.P,J5,4,Pin_4*%
%TO.N,/PGD5*%
X55432500Y-101350000D03*
%TO.P,J5,5,Pin_5*%
%TO.N,/PGC5*%
X55432500Y-100100000D03*
%TD*%
D10*
%TO.P,J1,1,Pin_1*%
%TO.N,/MCLR1*%
X55432500Y-67500000D03*
D11*
%TO.P,J1,2,Pin_2*%
%TO.N,unconnected-(J1-Pin_2-Pad2)*%
X55432500Y-66250000D03*
%TO.P,J1,3,Pin_3*%
%TO.N,unconnected-(J1-Pin_3-Pad3)*%
X55432500Y-65000000D03*
%TO.P,J1,4,Pin_4*%
%TO.N,/PGD1*%
X55432500Y-63750000D03*
%TO.P,J1,5,Pin_5*%
%TO.N,/PGC1*%
X55432500Y-62500000D03*
%TD*%
D14*
%TO.P,C5,1*%
%TO.N,GND*%
X65420000Y-98000000D03*
%TO.P,C5,2*%
%TO.N,VDD*%
X66380000Y-98000000D03*
%TD*%
D15*
%TO.P,C6,1*%
%TO.N,Net-(U4-VCAP)*%
X73500000Y-106825000D03*
%TO.P,C6,2*%
%TO.N,GND*%
X73500000Y-108375000D03*
%TD*%
D16*
%TO.P,R5,1*%
%TO.N,/GPIO3*%
X69625000Y-98000000D03*
%TO.P,R5,2*%
%TO.N,VDD*%
X67975000Y-98000000D03*
%TD*%
D17*
%TO.P,R2,1*%
%TO.N,Net-(C4-Pad2)*%
X64400000Y-115650000D03*
%TO.P,R2,2*%
%TO.N,/MCLR8*%
X64400000Y-114000000D03*
%TD*%
%TO.P,R6,1*%
%TO.N,/GPIO2*%
X73500000Y-101925000D03*
%TO.P,R6,2*%
%TO.N,VDD*%
X73500000Y-100275000D03*
%TD*%
D18*
%TO.P,C4,1*%
%TO.N,GND*%
X63035000Y-113775000D03*
%TO.P,C4,2*%
%TO.N,Net-(C4-Pad2)*%
X63035000Y-114735000D03*
%TD*%
D19*
%TO.P,R1,1*%
%TO.N,VDD*%
X66035000Y-114000000D03*
%TO.P,R1,2*%
%TO.N,Net-(C4-Pad2)*%
X66035000Y-115650000D03*
%TD*%
D20*
%TO.P,U4,44,SCL1/RP8/CN22/PMD4/RB8*%
%TO.N,/GPIO3*%
X69600000Y-100300000D03*
%TO.P,U4,43,INT0/RP7/CN23/PMD5/RB7*%
%TO.N,/dspic/B7*%
X68800000Y-100300000D03*
%TO.P,U4,42,PGEC3/ASCL1/RP6/CN24/PMD6/RB6*%
%TO.N,/dspic/B6*%
X68000000Y-100300000D03*
%TO.P,U4,41,PGED3/ASDA1/RP5/CN27/PMD7/RB5*%
%TO.N,/dspic/B5*%
X67200000Y-100300000D03*
%TO.P,U4,40,VDD*%
%TO.N,VDD*%
X66400000Y-100300000D03*
%TO.P,U4,39,VSS*%
%TO.N,GND*%
X65600000Y-100300000D03*
%TO.P,U4,38,RP21/CN26/PMA3/RC5*%
%TO.N,unconnected-(U4-RP21{slash}CN26{slash}PMA3{slash}RC5-Pad38)*%
X64800000Y-100300000D03*
%TO.P,U4,37,RP20/CN25/PMA4/RC4*%
%TO.N,unconnected-(U4-RP20{slash}CN25{slash}PMA4{slash}RC4-Pad37)*%
X64000000Y-100300000D03*
%TO.P,U4,36,RP19/CN28/PMBE/RC3*%
%TO.N,unconnected-(U4-RP19{slash}CN28{slash}PMBE{slash}RC3-Pad36)*%
X63200000Y-100300000D03*
%TO.P,U4,35,TDI/PMA9/RA9*%
%TO.N,unconnected-(U4-TDI{slash}PMA9{slash}RA9-Pad35)*%
X62400000Y-100300000D03*
%TO.P,U4,34,SOSCO/T1CK/CN0/RA4*%
%TO.N,unconnected-(U4-SOSCO{slash}T1CK{slash}CN0{slash}RA4-Pad34)*%
X61600000Y-100300000D03*
D21*
%TO.P,U4,33,SOSCI/RP4/CN1/RB4*%
%TO.N,/dspic/B4*%
X59900000Y-102000000D03*
%TO.P,U4,32,TDO/PMA8/RA8*%
%TO.N,unconnected-(U4-TDO{slash}PMA8{slash}RA8-Pad32)*%
X59900000Y-102800000D03*
%TO.P,U4,31,OSC2/CLKO/CN29/RA3*%
%TO.N,unconnected-(U4-OSC2{slash}CLKO{slash}CN29{slash}RA3-Pad31)*%
X59900000Y-103600000D03*
%TO.P,U4,30,OSC1/CLKI/CN30/RA2*%
%TO.N,unconnected-(U4-OSC1{slash}CLKI{slash}CN30{slash}RA2-Pad30)*%
X59900000Y-104400000D03*
%TO.P,U4,29,VSS*%
%TO.N,GND*%
X59900000Y-105200000D03*
%TO.P,U4,28,VDD*%
%TO.N,VDD*%
X59900000Y-106000000D03*
%TO.P,U4,27,AN8/CVREF/RP18/PMA2/CN10/RC2*%
%TO.N,unconnected-(U4-AN8{slash}CVREF{slash}RP18{slash}PMA2{slash}CN10{slash}RC2-Pad27)*%
X59900000Y-106800000D03*
%TO.P,U4,26,AN7/RP17/CN9/RC1*%
%TO.N,unconnected-(U4-AN7{slash}RP17{slash}CN9{slash}RC1-Pad26)*%
X59900000Y-107600000D03*
%TO.P,U4,25,AN6/RP16/CN8/RC0*%
%TO.N,unconnected-(U4-AN6{slash}RP16{slash}CN8{slash}RC0-Pad25)*%
X59900000Y-108400000D03*
%TO.P,U4,24,AN5/C1IN+/RP3/CN7/RB3*%
%TO.N,/dspic/B3*%
X59900000Y-109200000D03*
%TO.P,U4,23,AN4/C1IN-/RP2/CN6/RB2*%
%TO.N,/dspic/B2*%
X59900000Y-110000000D03*
D20*
%TO.P,U4,22,PGEC1/AN3/C2IN+/RP1/CN5/RB1*%
%TO.N,/PGC8*%
X61600000Y-111700000D03*
%TO.P,U4,21,PGED1/AN2/C2IN-/RP0/CN4/RB0*%
%TO.N,/PGD8*%
X62400000Y-111700000D03*
%TO.P,U4,20,AN1/VREF-/CN3/RA1*%
%TO.N,unconnected-(U4-AN1{slash}VREF-{slash}CN3{slash}RA1-Pad20)*%
X63200000Y-111700000D03*
%TO.P,U4,19,AN0/VREF+/CN2/RA0*%
%TO.N,unconnected-(U4-AN0{slash}VREF+{slash}CN2{slash}RA0-Pad19)*%
X64000000Y-111700000D03*
%TO.P,U4,18,~{MCLR}*%
%TO.N,/MCLR8*%
X64800000Y-111700000D03*
%TO.P,U4,17,AVDD*%
%TO.N,VDD*%
X65600000Y-111700000D03*
%TO.P,U4,16,AVSS*%
%TO.N,unconnected-(U4-AVSS-Pad16)*%
X66400000Y-111700000D03*
%TO.P,U4,15,AN9/RP15/CN11/PMCS1/RB15*%
%TO.N,unconnected-(U4-AN9{slash}RP15{slash}CN11{slash}PMCS1{slash}RB15-Pad15)*%
X67200000Y-111700000D03*
%TO.P,U4,14,AN10/RTCC/RP14/CN12/PMWR/RB14*%
%TO.N,unconnected-(U4-AN10{slash}RTCC{slash}RP14{slash}CN12{slash}PMWR{slash}RB14-Pad14)*%
X68000000Y-111700000D03*
%TO.P,U4,13,TCK/PMA7/RA7*%
%TO.N,unconnected-(U4-TCK{slash}PMA7{slash}RA7-Pad13)*%
X68800000Y-111700000D03*
%TO.P,U4,12,TMS/PMA10/RA10*%
%TO.N,unconnected-(U4-TMS{slash}PMA10{slash}RA10-Pad12)*%
X69600000Y-111700000D03*
D21*
%TO.P,U4,11,AN11/RP13/CN13/PMRD/RB13*%
%TO.N,unconnected-(U4-AN11{slash}RP13{slash}CN13{slash}PMRD{slash}RB13-Pad11)*%
X71300000Y-110000000D03*
%TO.P,U4,10,AN12/RP12/CN14/PMD0/RB12*%
%TO.N,unconnected-(U4-AN12{slash}RP12{slash}CN14{slash}PMD0{slash}RB12-Pad10)*%
X71300000Y-109200000D03*
%TO.P,U4,9,PGEC2/RP11/CN15/PMD1/RB11*%
%TO.N,/dspic/B11*%
X71300000Y-108400000D03*
%TO.P,U4,8,PGED2/EMCD2/RP10/CN16/PMD2/RB10*%
%TO.N,/dspic/B10*%
X71300000Y-107600000D03*
%TO.P,U4,7,VCAP*%
%TO.N,Net-(U4-VCAP)*%
X71300000Y-106800000D03*
%TO.P,U4,6,VSS*%
%TO.N,GND*%
X71300000Y-106000000D03*
%TO.P,U4,5,RP25/CN19/PMA6/RC9*%
%TO.N,unconnected-(U4-RP25{slash}CN19{slash}PMA6{slash}RC9-Pad5)*%
X71300000Y-105200000D03*
%TO.P,U4,4,RP24/CN20/PMA5/RC8*%
%TO.N,unconnected-(U4-RP24{slash}CN20{slash}PMA5{slash}RC8-Pad4)*%
X71300000Y-104400000D03*
%TO.P,U4,3,RP23/CN17/PMA0/RC7*%
%TO.N,unconnected-(U4-RP23{slash}CN17{slash}PMA0{slash}RC7-Pad3)*%
X71300000Y-103600000D03*
%TO.P,U4,2,RP22/CN18/PMA1/RC6*%
%TO.N,unconnected-(U4-RP22{slash}CN18{slash}PMA1{slash}RC6-Pad2)*%
X71300000Y-102800000D03*
%TO.P,U4,1,SDA1/RP9/CN21/PMD3/RB9*%
%TO.N,/GPIO2*%
X71300000Y-102000000D03*
%TD*%
D22*
%TO.N,/dspic/B11*%
X74200000Y-111400000D03*
%TO.N,/dspic/B6*%
X60943094Y-94343094D03*
X60400000Y-99800000D03*
X66000000Y-101600000D03*
%TO.N,/dspic/B3*%
X61400000Y-107200000D03*
%TO.N,/dspic/B4*%
X61600000Y-103400000D03*
X57200000Y-100400000D03*
X54600000Y-70600000D03*
%TO.N,/dspic/B5*%
X68000000Y-96340877D03*
X61800000Y-87800000D03*
X60800000Y-84200000D03*
%TO.N,GND*%
X58500000Y-95823750D03*
%TO.N,/GPIO17*%
X60600000Y-90600000D03*
X62052983Y-71241051D03*
X62999997Y-80000000D03*
%TO.N,/GPIO3*%
X63800000Y-77000000D03*
X68400000Y-82324265D03*
%TO.N,/GPIO18*%
X64600000Y-77800000D03*
%TO.N,/GPIO23*%
X73800000Y-95400000D03*
X71800000Y-99400000D03*
%TO.N,VDD*%
X58400000Y-106600000D03*
%TO.N,/dspic/B2*%
X58500000Y-109248750D03*
%TO.N,/dspic/B7*%
X66000000Y-102800000D03*
%TO.N,/GPIO2*%
X73200000Y-102951473D03*
%TO.N,/GPIO10*%
X65200000Y-84600000D03*
X61600000Y-90600000D03*
X73000000Y-70200000D03*
%TO.N,/PGD1*%
X61800000Y-84200000D03*
X61800000Y-72000000D03*
%TO.N,/PGD6*%
X71220728Y-92600000D03*
X71600000Y-101000000D03*
%TO.N,/PGC2*%
X65000000Y-96400000D03*
X61600000Y-95948930D03*
%TO.N,/PGC3*%
X62000000Y-98600000D03*
X64747481Y-98524998D03*
X59005855Y-98984280D03*
%TO.N,/MCLR3*%
X66397936Y-74524998D03*
%TO.N,/MCLR4*%
X67000000Y-75124998D03*
%TO.N,/MCLR5*%
X67800000Y-75000000D03*
%TO.N,/PGC4*%
X66000000Y-96400000D03*
X65600000Y-94000000D03*
%TO.N,/PGC5*%
X62000000Y-97800000D03*
%TO.N,/PGD5*%
X66123526Y-89125001D03*
X60800000Y-98384280D03*
%TO.N,/MCLR6*%
X72651471Y-104500000D03*
X70100000Y-81729275D03*
%TO.N,/dspic/B10*%
X78000000Y-113000000D03*
%TO.N,/PGD8*%
X67048528Y-89048528D03*
%TO.N,/PGC8*%
X65500000Y-104500000D03*
%TO.N,/MCLR8*%
X69500000Y-79500000D03*
%TO.N,VDD*%
X66035000Y-114000000D03*
%TO.N,GND*%
X63035000Y-113775000D03*
X73500000Y-108375000D03*
%TO.N,VDD*%
X73500000Y-100275000D03*
%TO.N,GND*%
X65420000Y-98000000D03*
%TO.N,VDD*%
X67975000Y-98000000D03*
X66380000Y-98000000D03*
%TO.N,/GPIO22*%
X71500000Y-82500000D03*
%TO.N,/GPIO27*%
X72400000Y-72500000D03*
%TO.N,VDD*%
X81331500Y-111132500D03*
%TO.N,GND*%
X81331500Y-105850000D03*
X78831500Y-105850000D03*
X76331500Y-105850000D03*
X58500000Y-114623750D03*
X58500000Y-105223750D03*
X71547199Y-96245001D03*
%TO.N,VDD*%
X71547199Y-97205001D03*
%TO.N,GND*%
X71547199Y-84266301D03*
%TO.N,VDD*%
X71547199Y-85226301D03*
%TO.N,GND*%
X58500000Y-67623750D03*
X58500000Y-77023750D03*
X58500000Y-86423750D03*
X74000000Y-78150000D03*
%TO.N,VDD*%
X71547199Y-73205001D03*
%TO.N,GND*%
X71547199Y-72245001D03*
%TO.N,VDD*%
X71500000Y-57800000D03*
X72449960Y-57800000D03*
X71500000Y-53000000D03*
X72449960Y-53000000D03*
%TO.N,/GPIO24*%
X70372199Y-89725001D03*
%TO.N,/PGC5*%
X66880996Y-96832467D03*
%TD*%
D23*
%TO.N,/dspic/B11*%
X71200000Y-111400000D02*
X74200000Y-111400000D01*
X70250000Y-108625000D02*
X70250000Y-110450000D01*
X70250000Y-110450000D02*
X71200000Y-111400000D01*
X71300000Y-108400000D02*
X70475000Y-108400000D01*
X70475000Y-108400000D02*
X70250000Y-108625000D01*
%TO.N,/dspic/B10*%
X72725000Y-108000000D02*
X72325000Y-107600000D01*
X72725000Y-108823696D02*
X72725000Y-108000000D01*
X73125000Y-109125000D02*
X73026304Y-109125000D01*
X73026304Y-109125000D02*
X72725000Y-108823696D01*
X77000000Y-113000000D02*
X73125000Y-109125000D01*
X72325000Y-107600000D02*
X71300000Y-107600000D01*
X78000000Y-113000000D02*
X77000000Y-113000000D01*
%TO.N,/PGD6*%
X72147199Y-98000000D02*
X72147199Y-93526471D01*
X72147199Y-93526471D02*
X71220728Y-92600000D01*
X71200000Y-100600000D02*
X71200000Y-98947199D01*
X71200000Y-98947199D02*
X72147199Y-98000000D01*
X71600000Y-101000000D02*
X71200000Y-100600000D01*
%TO.N,/dspic/B6*%
X60200000Y-95086188D02*
X60943094Y-94343094D01*
X60200000Y-99600000D02*
X60200000Y-95086188D01*
X60400000Y-99800000D02*
X60200000Y-99600000D01*
%TO.N,/PGD5*%
X60600000Y-96363145D02*
X60600000Y-95534717D01*
X60600000Y-95534717D02*
X66123526Y-90011191D01*
X66123526Y-90011191D02*
X66123526Y-89125001D01*
X61000000Y-96763145D02*
X60600000Y-96363145D01*
X61000000Y-98184280D02*
X61000000Y-96763145D01*
X60800000Y-98384280D02*
X61000000Y-98184280D01*
%TO.N,/PGD8*%
X62400000Y-108448529D02*
X62400000Y-111700000D01*
X66100000Y-104748529D02*
X62400000Y-108448529D01*
X66100000Y-104100000D02*
X66100000Y-104748529D01*
X64000000Y-102000000D02*
X66100000Y-104100000D01*
X61500000Y-102000000D02*
X64000000Y-102000000D01*
X61025000Y-101525000D02*
X61500000Y-102000000D01*
X61025000Y-99250000D02*
X61025000Y-101525000D01*
X61400000Y-96597459D02*
X61400000Y-98875000D01*
X61400000Y-98875000D02*
X61025000Y-99250000D01*
X61000000Y-95700403D02*
X61000000Y-96197459D01*
X67048528Y-89651875D02*
X61000000Y-95700403D01*
X61000000Y-96197459D02*
X61400000Y-96597459D01*
X67048528Y-89048528D02*
X67048528Y-89651875D01*
%TO.N,/PGC3*%
X62000000Y-98600000D02*
X62075002Y-98524998D01*
X62075002Y-98524998D02*
X64747481Y-98524998D01*
%TO.N,/PGC5*%
X66713463Y-97000000D02*
X66880996Y-96832467D01*
X63400000Y-97000000D02*
X66713463Y-97000000D01*
X62000000Y-97800000D02*
X62600000Y-97800000D01*
X62600000Y-97800000D02*
X63400000Y-97000000D01*
%TO.N,/PGC3*%
X54700000Y-81300000D02*
X55432500Y-81300000D01*
X54432500Y-81567500D02*
X54700000Y-81300000D01*
X54432500Y-96232500D02*
X54432500Y-81567500D01*
X57200000Y-99000000D02*
X54432500Y-96232500D01*
X58990135Y-99000000D02*
X57200000Y-99000000D01*
X59005855Y-98984280D02*
X58990135Y-99000000D01*
%TO.N,/MCLR5*%
X56132500Y-105100000D02*
X55432500Y-105100000D01*
X58800000Y-101400000D02*
X58800000Y-102432500D01*
X59605855Y-100594145D02*
X58800000Y-101400000D01*
X59600000Y-94800000D02*
X59600000Y-98729896D01*
X59605855Y-98735751D02*
X59605855Y-100594145D01*
X59600000Y-98729896D02*
X59605855Y-98735751D01*
X67800000Y-86600000D02*
X59600000Y-94800000D01*
X58800000Y-102432500D02*
X56132500Y-105100000D01*
X67800000Y-75000000D02*
X67800000Y-86600000D01*
%TO.N,/dspic/B6*%
X67650000Y-101600000D02*
X66000000Y-101600000D01*
X68000000Y-101250000D02*
X67650000Y-101600000D01*
X68000000Y-100300000D02*
X68000000Y-101250000D01*
%TO.N,/dspic/B3*%
X61200000Y-107400000D02*
X61400000Y-107200000D01*
X61200000Y-108850000D02*
X61200000Y-107400000D01*
X60850000Y-109200000D02*
X61200000Y-108850000D01*
X59900000Y-109200000D02*
X60850000Y-109200000D01*
%TO.N,/dspic/B4*%
X60850000Y-102000000D02*
X59900000Y-102000000D01*
X61600000Y-102750000D02*
X60850000Y-102000000D01*
X61600000Y-103400000D02*
X61600000Y-102750000D01*
X54032500Y-97232500D02*
X57200000Y-100400000D01*
X54032500Y-71167500D02*
X54032500Y-97232500D01*
X54600000Y-70600000D02*
X54032500Y-71167500D01*
%TO.N,/PGC4*%
X66000000Y-94400000D02*
X66000000Y-96400000D01*
X65600000Y-94000000D02*
X66000000Y-94400000D01*
%TO.N,/dspic/B5*%
X67200000Y-97587352D02*
X67200000Y-100300000D01*
X68000000Y-96340877D02*
X68000000Y-96787352D01*
X68000000Y-96787352D02*
X67200000Y-97587352D01*
X60800000Y-86800000D02*
X61800000Y-87800000D01*
X60800000Y-84200000D02*
X60800000Y-86800000D01*
%TO.N,/MCLR4*%
X57100000Y-95700000D02*
X55432500Y-95700000D01*
X67400000Y-86400000D02*
X62000000Y-91800000D01*
X62000000Y-91800000D02*
X61000000Y-91800000D01*
X67400000Y-75524998D02*
X67400000Y-86400000D01*
X61000000Y-91800000D02*
X57100000Y-95700000D01*
X67000000Y-75124998D02*
X67400000Y-75524998D01*
%TO.N,/dspic/B7*%
X68800000Y-101250000D02*
X68800000Y-100300000D01*
X67250000Y-102800000D02*
X68800000Y-101250000D01*
X66000000Y-102800000D02*
X67250000Y-102800000D01*
%TO.N,/GPIO17*%
X62999997Y-72188065D02*
X62052983Y-71241051D01*
X62999997Y-80000000D02*
X62999997Y-88200003D01*
X62999997Y-88200003D02*
X60600000Y-90600000D01*
X62999997Y-80000000D02*
X62999997Y-72188065D01*
%TO.N,/GPIO3*%
X68600000Y-82524265D02*
X68600000Y-96975000D01*
X68400000Y-82324265D02*
X68600000Y-82524265D01*
X68600000Y-96975000D02*
X69625000Y-98000000D01*
X63800000Y-72522000D02*
X77559000Y-58763000D01*
X63800000Y-77000000D02*
X63800000Y-72522000D01*
%TO.N,/GPIO18*%
X64400000Y-77600000D02*
X64600000Y-77800000D01*
X64400000Y-74200000D02*
X64400000Y-77600000D01*
X69000000Y-69600000D02*
X64400000Y-74200000D01*
X69600000Y-69600000D02*
X69800000Y-69600000D01*
X72600000Y-69600000D02*
X69600000Y-69600000D01*
X69800000Y-69600000D02*
X69000000Y-69600000D01*
X78949000Y-65233000D02*
X76967000Y-65233000D01*
X76967000Y-65233000D02*
X72600000Y-69600000D01*
X80099000Y-66383000D02*
X78949000Y-65233000D01*
%TO.N,/GPIO3*%
X74200000Y-62122000D02*
X77559000Y-58763000D01*
%TO.N,/GPIO23*%
X73800000Y-98400000D02*
X73800000Y-95400000D01*
X71800000Y-99400000D02*
X72800000Y-99400000D01*
X72800000Y-99400000D02*
X73800000Y-98400000D01*
%TO.N,VDD*%
X59000000Y-106000000D02*
X58400000Y-106600000D01*
X59900000Y-106000000D02*
X59000000Y-106000000D01*
%TO.N,/dspic/B2*%
X59251250Y-110000000D02*
X58500000Y-109248750D01*
X59900000Y-110000000D02*
X59251250Y-110000000D01*
%TO.N,/GPIO2*%
X73200000Y-102225000D02*
X73500000Y-101925000D01*
X73200000Y-102951473D02*
X73200000Y-102225000D01*
%TO.N,/GPIO10*%
X69200000Y-70200000D02*
X73000000Y-70200000D01*
X65200000Y-74200000D02*
X69200000Y-70200000D01*
X65200000Y-84600000D02*
X65200000Y-74200000D01*
X61600000Y-90600000D02*
X65200000Y-87000000D01*
X65200000Y-87000000D02*
X65200000Y-84600000D01*
%TO.N,/MCLR3*%
X66397936Y-86836378D02*
X66397936Y-74524998D01*
X60532500Y-91400000D02*
X61834314Y-91400000D01*
X61834314Y-91400000D02*
X66397936Y-86836378D01*
X55432500Y-86300000D02*
X60532500Y-91400000D01*
%TO.N,/GPIO10*%
X77559000Y-75841000D02*
X77559000Y-76543000D01*
X78709000Y-74691000D02*
X77559000Y-75841000D01*
X75427000Y-67773000D02*
X78035346Y-67773000D01*
X78709000Y-68446654D02*
X78709000Y-74691000D01*
X73000000Y-70200000D02*
X75427000Y-67773000D01*
X78035346Y-67773000D02*
X78709000Y-68446654D01*
%TO.N,/PGD1*%
X61800000Y-72000000D02*
X61800000Y-84200000D01*
%TO.N,/PGC2*%
X62800000Y-96400000D02*
X65000000Y-96400000D01*
X62348930Y-95948930D02*
X62800000Y-96400000D01*
X61600000Y-95948930D02*
X62348930Y-95948930D01*
%TO.N,/MCLR6*%
X69532843Y-89367157D02*
X69900000Y-89000000D01*
X74500000Y-102500000D02*
X74500000Y-94934314D01*
X72651471Y-104348529D02*
X74500000Y-102500000D01*
X72651471Y-104500000D02*
X72651471Y-104348529D01*
X74500000Y-94934314D02*
X69532843Y-89967157D01*
X69532843Y-89967157D02*
X69532843Y-89367157D01*
X69900000Y-89000000D02*
X69900000Y-81929275D01*
X69900000Y-81929275D02*
X70100000Y-81729275D01*
%TO.N,GND*%
X58523750Y-105200000D02*
X58500000Y-105223750D01*
X59900000Y-105200000D02*
X58523750Y-105200000D01*
%TO.N,/PGC8*%
X61600000Y-108400000D02*
X65500000Y-104500000D01*
X61600000Y-111700000D02*
X61600000Y-108400000D01*
%TO.N,GND*%
X76181500Y-106000000D02*
X76331500Y-105850000D01*
X71300000Y-106000000D02*
X76181500Y-106000000D01*
%TO.N,Net-(U4-VCAP)*%
X73475000Y-106800000D02*
X73500000Y-106825000D01*
X71300000Y-106800000D02*
X73475000Y-106800000D01*
%TO.N,/GPIO2*%
X73425000Y-102000000D02*
X73500000Y-101925000D01*
X71300000Y-102000000D02*
X73425000Y-102000000D01*
%TO.N,GND*%
X65420000Y-99170000D02*
X65420000Y-98000000D01*
X65600000Y-99350000D02*
X65420000Y-99170000D01*
X65600000Y-100300000D02*
X65600000Y-99350000D01*
%TO.N,/MCLR8*%
X64800000Y-113600000D02*
X64800000Y-111700000D01*
X64400000Y-114000000D02*
X64800000Y-113600000D01*
%TO.N,VDD*%
X65600000Y-111700000D02*
X65600000Y-113565000D01*
X65600000Y-113565000D02*
X66035000Y-114000000D01*
%TO.N,Net-(C4-Pad2)*%
X66035000Y-115650000D02*
X64400000Y-115650000D01*
X63485000Y-114735000D02*
X64400000Y-115650000D01*
X63035000Y-114735000D02*
X63485000Y-114735000D01*
%TO.N,/GPIO3*%
X69625000Y-100275000D02*
X69600000Y-100300000D01*
X69625000Y-98000000D02*
X69625000Y-100275000D01*
%TO.N,/GPIO24*%
X78709000Y-75393000D02*
X80099000Y-74003000D01*
X78035346Y-77693000D02*
X78709000Y-77019346D01*
X78709000Y-77019346D02*
X78709000Y-75393000D01*
X77271971Y-77693000D02*
X78035346Y-77693000D01*
X70372199Y-84592772D02*
X77271971Y-77693000D01*
%TO.N,/GPIO22*%
X74037000Y-71463000D02*
X77559000Y-71463000D01*
X73000000Y-72500000D02*
X74037000Y-71463000D01*
X73000000Y-81000000D02*
X73000000Y-72500000D01*
X71500000Y-82500000D02*
X73000000Y-81000000D01*
%TO.N,/GPIO27*%
X75977000Y-68923000D02*
X77559000Y-68923000D01*
X72400000Y-72500000D02*
X75977000Y-68923000D01*
%TO.N,/MCLR8*%
X64800000Y-111700000D02*
X64800000Y-106875000D01*
X64800000Y-106875000D02*
X70620728Y-101054272D01*
X69000000Y-88548932D02*
X69500000Y-88048932D01*
X70620728Y-101054272D02*
X70620728Y-91620728D01*
X70620728Y-91620728D02*
X69000000Y-90000000D01*
X69000000Y-90000000D02*
X69000000Y-88548932D01*
X69500000Y-88048932D02*
X69500000Y-79500000D01*
%TO.N,/GPIO24*%
X70372199Y-89725001D02*
X70372199Y-84592772D01*
%TO.N,VDD*%
X66400000Y-98020000D02*
X66380000Y-98000000D01*
X66400000Y-100300000D02*
X66400000Y-98020000D01*
%TD*%
%TA.AperFunction,Conductor*%
%TO.N,GND*%
G36*
X65651862Y-98792984D02*
G01*
X65669124Y-98803847D01*
X65681410Y-98813071D01*
X65710772Y-98813155D01*
X65769442Y-98851096D01*
X65798287Y-98914734D01*
X65799500Y-98932033D01*
X65799500Y-99109045D01*
X65779815Y-99176084D01*
X65772504Y-99185157D01*
X65772768Y-99185355D01*
X65699266Y-99283540D01*
X65643332Y-99325411D01*
X65573641Y-99330395D01*
X65512318Y-99296909D01*
X65500734Y-99283540D01*
X65432547Y-99192455D01*
X65423960Y-99186027D01*
X65415855Y-99179959D01*
X65373986Y-99124026D01*
X65369002Y-99054334D01*
X65385173Y-99014724D01*
X65473270Y-98874520D01*
X65477630Y-98862057D01*
X65518348Y-98805282D01*
X65583300Y-98779532D01*
X65651862Y-98792984D01*
G37*
%TD.AperFunction*%
%TA.AperFunction,Conductor*%
G36*
X58918834Y-94832914D02*
G01*
X58974767Y-94874786D01*
X58999184Y-94940250D01*
X58999500Y-94949096D01*
X58999500Y-98068617D01*
X58979815Y-98135656D01*
X58927011Y-98181411D01*
X58889384Y-98191837D01*
X58826604Y-98198910D01*
X58826600Y-98198911D01*
X58656331Y-98258491D01*
X58503592Y-98354464D01*
X58494876Y-98363181D01*
X58433553Y-98396666D01*
X58407195Y-98399500D01*
X57500097Y-98399500D01*
X57433058Y-98379815D01*
X57412416Y-98363181D01*
X55907991Y-96858756D01*
X55874506Y-96797433D01*
X55879490Y-96727741D01*
X55921362Y-96671808D01*
X55983069Y-96647717D01*
X56055208Y-96640349D01*
X56216197Y-96587003D01*
X56360544Y-96497968D01*
X56480468Y-96378044D01*
X56491965Y-96359403D01*
X56543912Y-96312679D01*
X56597504Y-96300500D01*
X57013331Y-96300500D01*
X57013347Y-96300501D01*
X57020943Y-96300501D01*
X57179054Y-96300501D01*
X57179057Y-96300501D01*
X57331785Y-96259577D01*
X57381904Y-96230639D01*
X57468716Y-96180520D01*
X57580520Y-96068716D01*
X57580520Y-96068714D01*
X57590728Y-96058507D01*
X57590730Y-96058504D01*
X58787819Y-94861415D01*
X58849142Y-94827930D01*
X58918834Y-94832914D01*
G37*
%TD.AperFunction*%
%TA.AperFunction,Conductor*%
G36*
X71426431Y-93655384D02*
G01*
X71432909Y-93661416D01*
X71510380Y-93738887D01*
X71543865Y-93800210D01*
X71546699Y-93826568D01*
X71546699Y-96288678D01*
X71527014Y-96355717D01*
X71474210Y-96401472D01*
X71436583Y-96411898D01*
X71361024Y-96420412D01*
X71360727Y-96417782D01*
X71303058Y-96414237D01*
X71246709Y-96372927D01*
X71221639Y-96307710D01*
X71221228Y-96297628D01*
X71221228Y-93749097D01*
X71240913Y-93682058D01*
X71293717Y-93636303D01*
X71362875Y-93626359D01*
X71426431Y-93655384D01*
G37*
%TD.AperFunction*%
%TA.AperFunction,Conductor*%
G36*
X72484627Y-70820185D02*
G01*
X72494903Y-70827555D01*
X72497736Y-70829814D01*
X72497738Y-70829816D01*
X72650478Y-70925789D01*
X72815709Y-70983605D01*
X72872484Y-71024327D01*
X72898232Y-71089279D01*
X72884776Y-71157841D01*
X72862435Y-71188328D01*
X72381465Y-71669298D01*
X72320142Y-71702783D01*
X72307668Y-71704837D01*
X72220750Y-71714630D01*
X72050478Y-71774210D01*
X71897737Y-71870184D01*
X71770184Y-71997737D01*
X71674211Y-72150476D01*
X71614468Y-72321214D01*
X71573746Y-72377990D01*
X71511310Y-72403479D01*
X71367948Y-72419631D01*
X71367944Y-72419632D01*
X71197675Y-72479212D01*
X71044936Y-72575185D01*
X70917383Y-72702738D01*
X70821410Y-72855477D01*
X70761830Y-73025746D01*
X70761829Y-73025751D01*
X70741634Y-73204997D01*
X70741634Y-73205004D01*
X70761829Y-73384250D01*
X70761830Y-73384255D01*
X70821410Y-73554524D01*
X70850128Y-73600228D01*
X70917383Y-73707263D01*
X71044937Y-73834817D01*
X71197677Y-73930790D01*
X71251896Y-73949762D01*
X71367944Y-73990369D01*
X71367949Y-73990370D01*
X71547195Y-74010566D01*
X71547199Y-74010566D01*
X71547203Y-74010566D01*
X71726448Y-73990370D01*
X71726451Y-73990369D01*
X71726454Y-73990369D01*
X71896721Y-73930790D01*
X72049461Y-73834817D01*
X72177015Y-73707263D01*
X72177021Y-73707252D01*
X72178549Y-73705338D01*
X72179860Y-73704417D01*
X72181939Y-73702339D01*
X72182302Y-73702702D01*
X72235736Y-73665195D01*
X72305547Y-73662342D01*
X72365819Y-73697684D01*
X72397415Y-73760002D01*
X72399500Y-73782646D01*
X72399500Y-80699902D01*
X72379815Y-80766941D01*
X72363181Y-80787583D01*
X71481465Y-81669298D01*
X71420142Y-81702783D01*
X71407668Y-81704837D01*
X71320750Y-81714630D01*
X71150475Y-81774211D01*
X71093581Y-81809960D01*
X71026344Y-81828960D01*
X70959509Y-81808592D01*
X70914296Y-81755323D01*
X70904390Y-81718849D01*
X70902811Y-81704837D01*
X70890237Y-81593235D01*
X70885369Y-81550025D01*
X70885368Y-81550020D01*
X70825788Y-81379751D01*
X70729815Y-81227012D01*
X70602262Y-81099459D01*
X70449521Y-81003485D01*
X70282867Y-80945171D01*
X70279255Y-80943907D01*
X70279254Y-80943906D01*
X70279249Y-80943905D01*
X70210616Y-80936172D01*
X70146202Y-80909105D01*
X70106647Y-80851510D01*
X70100500Y-80812952D01*
X70100500Y-80082412D01*
X70120185Y-80015373D01*
X70127555Y-80005097D01*
X70129810Y-80002267D01*
X70129816Y-80002262D01*
X70225789Y-79849522D01*
X70285368Y-79679255D01*
X70286041Y-79673283D01*
X70305565Y-79500003D01*
X70305565Y-79499996D01*
X70285369Y-79320750D01*
X70285368Y-79320745D01*
X70225788Y-79150476D01*
X70129815Y-78997737D01*
X70002262Y-78870184D01*
X69849523Y-78774211D01*
X69679254Y-78714631D01*
X69679249Y-78714630D01*
X69500004Y-78694435D01*
X69499996Y-78694435D01*
X69320750Y-78714630D01*
X69320745Y-78714631D01*
X69150476Y-78774211D01*
X68997737Y-78870184D01*
X68870184Y-78997737D01*
X68774211Y-79150476D01*
X68714631Y-79320745D01*
X68714630Y-79320750D01*
X68694435Y-79499996D01*
X68694435Y-79500003D01*
X68714630Y-79679249D01*
X68714631Y-79679254D01*
X68774211Y-79849523D01*
X68834515Y-79945496D01*
X68868760Y-79999996D01*
X68870185Y-80002263D01*
X68872445Y-80005097D01*
X68873334Y-80007275D01*
X68873889Y-80008158D01*
X68873734Y-80008255D01*
X68898855Y-80069783D01*
X68899500Y-80082412D01*
X68899500Y-81476193D01*
X68879815Y-81543232D01*
X68827011Y-81588987D01*
X68757853Y-81598931D01*
X68734546Y-81593235D01*
X68579249Y-81538895D01*
X68510616Y-81531162D01*
X68446202Y-81504095D01*
X68406647Y-81446500D01*
X68400500Y-81407942D01*
X68400500Y-75582412D01*
X68420185Y-75515373D01*
X68427555Y-75505097D01*
X68429810Y-75502267D01*
X68429816Y-75502262D01*
X68525789Y-75349522D01*
X68585368Y-75179255D01*
X68585618Y-75177035D01*
X68605565Y-75000003D01*
X68605565Y-74999996D01*
X68585369Y-74820750D01*
X68585368Y-74820745D01*
X68536411Y-74680834D01*
X68525789Y-74650478D01*
X68429816Y-74497738D01*
X68302262Y-74370184D01*
X68254847Y-74340391D01*
X68149523Y-74274211D01*
X67979254Y-74214631D01*
X67979249Y-74214630D01*
X67800004Y-74194435D01*
X67799996Y-74194435D01*
X67620750Y-74214630D01*
X67620745Y-74214631D01*
X67450476Y-74274211D01*
X67342598Y-74341996D01*
X67275361Y-74360996D01*
X67208526Y-74340628D01*
X67163312Y-74287360D01*
X67159584Y-74277956D01*
X67158274Y-74274211D01*
X67123725Y-74175476D01*
X67027752Y-74022736D01*
X66900198Y-73895182D01*
X66747458Y-73799209D01*
X66747455Y-73799207D01*
X66713393Y-73787288D01*
X66656617Y-73746567D01*
X66630870Y-73681614D01*
X66644326Y-73613052D01*
X66666664Y-73582569D01*
X69412416Y-70836819D01*
X69473739Y-70803334D01*
X69500097Y-70800500D01*
X72417588Y-70800500D01*
X72484627Y-70820185D01*
G37*
%TD.AperFunction*%
%TA.AperFunction,Conductor*%
G36*
X76336948Y-72083185D02*
G01*
X76382292Y-72135097D01*
X76384965Y-72140830D01*
X76520501Y-72334395D01*
X76520506Y-72334402D01*
X76687597Y-72501493D01*
X76687603Y-72501498D01*
X76873158Y-72631425D01*
X76916783Y-72686002D01*
X76923977Y-72755500D01*
X76892454Y-72817855D01*
X76873158Y-72834575D01*
X76687597Y-72964505D01*
X76520505Y-73131597D01*
X76384965Y-73325169D01*
X76384964Y-73325171D01*
X76285098Y-73539335D01*
X76285094Y-73539344D01*
X76223938Y-73767586D01*
X76223936Y-73767596D01*
X76203341Y-74002999D01*
X76203341Y-74003000D01*
X76223936Y-74238403D01*
X76223938Y-74238413D01*
X76285094Y-74466655D01*
X76285096Y-74466659D01*
X76285097Y-74466663D01*
X76299588Y-74497738D01*
X76384965Y-74680830D01*
X76384967Y-74680834D01*
X76520501Y-74874395D01*
X76520506Y-74874402D01*
X76687597Y-75041493D01*
X76687603Y-75041498D01*
X76873158Y-75171425D01*
X76916783Y-75226002D01*
X76923977Y-75295500D01*
X76892454Y-75357855D01*
X76873158Y-75374575D01*
X76687597Y-75504505D01*
X76520505Y-75671597D01*
X76384965Y-75865169D01*
X76384964Y-75865171D01*
X76285098Y-76079335D01*
X76285094Y-76079344D01*
X76223938Y-76307586D01*
X76223936Y-76307596D01*
X76203341Y-76542999D01*
X76203341Y-76543000D01*
X76223936Y-76778403D01*
X76223938Y-76778413D01*
X76285094Y-77006655D01*
X76285096Y-77006659D01*
X76285097Y-77006663D01*
X76362822Y-77173345D01*
X76384965Y-77220830D01*
X76384967Y-77220834D01*
X76520501Y-77414395D01*
X76520506Y-77414402D01*
X76523239Y-77417135D01*
X76556724Y-77478458D01*
X76551740Y-77548150D01*
X76523239Y-77592497D01*
X73812181Y-80303555D01*
X73750858Y-80337040D01*
X73681166Y-80332056D01*
X73625233Y-80290184D01*
X73600816Y-80224720D01*
X73600500Y-80215874D01*
X73600500Y-72800097D01*
X73620185Y-72733058D01*
X73636819Y-72712416D01*
X74249416Y-72099819D01*
X74310739Y-72066334D01*
X74337097Y-72063500D01*
X76269909Y-72063500D01*
X76336948Y-72083185D01*
G37*
%TD.AperFunction*%
%TA.AperFunction,Conductor*%
G36*
X87492939Y-50520185D02*
G01*
X87538694Y-50572989D01*
X87549900Y-50624500D01*
X87549900Y-117350900D01*
X87530215Y-117417939D01*
X87477411Y-117463694D01*
X87425900Y-117474900D01*
X50624500Y-117474900D01*
X50557461Y-117455215D01*
X50511706Y-117402411D01*
X50500500Y-117350900D01*
X50500500Y-109406379D01*
X54232000Y-109406379D01*
X54232000Y-109593620D01*
X54268525Y-109777243D01*
X54268527Y-109777251D01*
X54340176Y-109950228D01*
X54340180Y-109950235D01*
X54410923Y-110056110D01*
X54431800Y-110122787D01*
X54413315Y-110190167D01*
X54410923Y-110193890D01*
X54340180Y-110299764D01*
X54340176Y-110299771D01*
X54268527Y-110472748D01*
X54268525Y-110472756D01*
X54232000Y-110656379D01*
X54232000Y-110843620D01*
X54268525Y-111027243D01*
X54268527Y-111027251D01*
X54340176Y-111200228D01*
X54340180Y-111200235D01*
X54410923Y-111306110D01*
X54431800Y-111372787D01*
X54413315Y-111440167D01*
X54410923Y-111443890D01*
X54340180Y-111549764D01*
X54340176Y-111549771D01*
X54268527Y-111722748D01*
X54268525Y-111722756D01*
X54232000Y-111906379D01*
X54232000Y-112093620D01*
X54268525Y-112277243D01*
X54268527Y-112277251D01*
X54340176Y-112450228D01*
X54340180Y-112450235D01*
X54410923Y-112556110D01*
X54431800Y-112622787D01*
X54413315Y-112690167D01*
X54410923Y-112693890D01*
X54340180Y-112799764D01*
X54340176Y-112799771D01*
X54268527Y-112972748D01*
X54268525Y-112972756D01*
X54232000Y-113156379D01*
X54232000Y-113343620D01*
X54268525Y-113527243D01*
X54268527Y-113527251D01*
X54340177Y-113700230D01*
X54352650Y-113718897D01*
X54357254Y-113725788D01*
X54358041Y-113726965D01*
X54378919Y-113793643D01*
X54360478Y-113860953D01*
X54295498Y-113966300D01*
X54295496Y-113966305D01*
X54242151Y-114127290D01*
X54232000Y-114226647D01*
X54232000Y-114773337D01*
X54232001Y-114773355D01*
X54242150Y-114872707D01*
X54242151Y-114872710D01*
X54295496Y-115033694D01*
X54295501Y-115033705D01*
X54384529Y-115178040D01*
X54384532Y-115178044D01*
X54504455Y-115297967D01*
X54504459Y-115297970D01*
X54648794Y-115386998D01*
X54648797Y-115386999D01*
X54648803Y-115387003D01*
X54809792Y-115440349D01*
X54909155Y-115450500D01*
X55955844Y-115450499D01*
X55955852Y-115450498D01*
X55955855Y-115450498D01*
X56010260Y-115444940D01*
X56055208Y-115440349D01*
X56216197Y-115387003D01*
X56360544Y-115297968D01*
X56480468Y-115178044D01*
X56569503Y-115033697D01*
X56622849Y-114872708D01*
X56633000Y-114773345D01*
X56632999Y-114226656D01*
X56629396Y-114191389D01*
X56622849Y-114127292D01*
X56622848Y-114127289D01*
X56577947Y-113991786D01*
X56569503Y-113966303D01*
X56504521Y-113860952D01*
X56486081Y-113793561D01*
X56506959Y-113726964D01*
X56524822Y-113700231D01*
X56596473Y-113527251D01*
X56633000Y-113343616D01*
X56633000Y-113156384D01*
X56596473Y-112972749D01*
X56524822Y-112799769D01*
X56524819Y-112799764D01*
X56524818Y-112799762D01*
X56454077Y-112693891D01*
X56433199Y-112627213D01*
X56451683Y-112559833D01*
X56454077Y-112556109D01*
X56524818Y-112450237D01*
X56524819Y-112450235D01*
X56524822Y-112450231D01*
X56596473Y-112277251D01*
X56633000Y-112093616D01*
X56633000Y-111906384D01*
X56596473Y-111722749D01*
X56524822Y-111549769D01*
X56524819Y-111549764D01*
X56524818Y-111549762D01*
X56454077Y-111443891D01*
X56433199Y-111377213D01*
X56451683Y-111309833D01*
X56454077Y-111306109D01*
X56524818Y-111200237D01*
X56524819Y-111200235D01*
X56524822Y-111200231D01*
X56596473Y-111027251D01*
X56633000Y-110843616D01*
X56633000Y-110656384D01*
X56596473Y-110472749D01*
X56524822Y-110299769D01*
X56524819Y-110299764D01*
X56524818Y-110299762D01*
X56454077Y-110193891D01*
X56433199Y-110127213D01*
X56451683Y-110059833D01*
X56454077Y-110056109D01*
X56524818Y-109950237D01*
X56524819Y-109950235D01*
X56524822Y-109950231D01*
X56596473Y-109777251D01*
X56633000Y-109593616D01*
X56633000Y-109406384D01*
X56596473Y-109222749D01*
X56524822Y-109049769D01*
X56524821Y-109049768D01*
X56524818Y-109049762D01*
X56420802Y-108894092D01*
X56420799Y-108894088D01*
X56288411Y-108761700D01*
X56288407Y-108761697D01*
X56132737Y-108657681D01*
X56132728Y-108657676D01*
X55959751Y-108586027D01*
X55959743Y-108586025D01*
X55776120Y-108549500D01*
X55776116Y-108549500D01*
X55088884Y-108549500D01*
X55088879Y-108549500D01*
X54905256Y-108586025D01*
X54905248Y-108586027D01*
X54732271Y-108657676D01*
X54732262Y-108657681D01*
X54576592Y-108761697D01*
X54576588Y-108761700D01*
X54444200Y-108894088D01*
X54444197Y-108894092D01*
X54340181Y-109049762D01*
X54340176Y-109049771D01*
X54268527Y-109222748D01*
X54268525Y-109222756D01*
X54232000Y-109406379D01*
X50500500Y-109406379D01*
X50500500Y-97311554D01*
X53431998Y-97311554D01*
X53472924Y-97464289D01*
X53472925Y-97464290D01*
X53496555Y-97505217D01*
X53499042Y-97509524D01*
X53517119Y-97540834D01*
X53551979Y-97601214D01*
X53551981Y-97601217D01*
X53670849Y-97720085D01*
X53670855Y-97720090D01*
X54937750Y-98986985D01*
X54971235Y-99048308D01*
X54966251Y-99118000D01*
X54924379Y-99173933D01*
X54897522Y-99189227D01*
X54732272Y-99257676D01*
X54732262Y-99257681D01*
X54576592Y-99361697D01*
X54576588Y-99361700D01*
X54444200Y-99494088D01*
X54444197Y-99494092D01*
X54340181Y-99649762D01*
X54340176Y-99649771D01*
X54268527Y-99822748D01*
X54268525Y-99822756D01*
X54232000Y-100006379D01*
X54232000Y-100193620D01*
X54268525Y-100377243D01*
X54268527Y-100377251D01*
X54340176Y-100550228D01*
X54340180Y-100550235D01*
X54410923Y-100656110D01*
X54431800Y-100722787D01*
X54413315Y-100790167D01*
X54410923Y-100793890D01*
X54340180Y-100899764D01*
X54340176Y-100899771D01*
X54268527Y-101072748D01*
X54268525Y-101072756D01*
X54232000Y-101256379D01*
X54232000Y-101443620D01*
X54268525Y-101627243D01*
X54268527Y-101627251D01*
X54340176Y-101800228D01*
X54340180Y-101800235D01*
X54410923Y-101906110D01*
X54431800Y-101972787D01*
X54413315Y-102040167D01*
X54410923Y-102043890D01*
X54340180Y-102149764D01*
X54340176Y-102149771D01*
X54268527Y-102322748D01*
X54268525Y-102322756D01*
X54232000Y-102506379D01*
X54232000Y-102693620D01*
X54268525Y-102877243D01*
X54268527Y-102877251D01*
X54340176Y-103050228D01*
X54340180Y-103050235D01*
X54410923Y-103156110D01*
X54431800Y-103222787D01*
X54413315Y-103290167D01*
X54410923Y-103293890D01*
X54340180Y-103399764D01*
X54340176Y-103399771D01*
X54268527Y-103572748D01*
X54268525Y-103572756D01*
X54232000Y-103756379D01*
X54232000Y-103943620D01*
X54268525Y-104127243D01*
X54268527Y-104127251D01*
X54340177Y-104300230D01*
X54358041Y-104326965D01*
X54378919Y-104393643D01*
X54360478Y-104460953D01*
X54295498Y-104566300D01*
X54295496Y-104566305D01*
X54242151Y-104727290D01*
X54232000Y-104826647D01*
X54232000Y-105373337D01*
X54232001Y-105373355D01*
X54242150Y-105472707D01*
X54242151Y-105472710D01*
X54295496Y-105633694D01*
X54295501Y-105633705D01*
X54384529Y-105778040D01*
X54384532Y-105778044D01*
X54504455Y-105897967D01*
X54504459Y-105897970D01*
X54648794Y-105986998D01*
X54648797Y-105986999D01*
X54648803Y-105987003D01*
X54809792Y-106040349D01*
X54909155Y-106050500D01*
X55955844Y-106050499D01*
X55955852Y-106050498D01*
X55955855Y-106050498D01*
X56025996Y-106043333D01*
X56055208Y-106040349D01*
X56216197Y-105987003D01*
X56360544Y-105897968D01*
X56480468Y-105778044D01*
X56569503Y-105633697D01*
X56620456Y-105479929D01*
X56650478Y-105431255D01*
X58437820Y-103643913D01*
X58499142Y-103610430D01*
X58568834Y-103615414D01*
X58624767Y-103657286D01*
X58649184Y-103722750D01*
X58649500Y-103731595D01*
X58649500Y-103922869D01*
X58649501Y-103922879D01*
X58656367Y-103986751D01*
X58656367Y-104013257D01*
X58655909Y-104017516D01*
X58655909Y-104017517D01*
X58649500Y-104077127D01*
X58649500Y-104077132D01*
X58649500Y-104077133D01*
X58649500Y-104722870D01*
X58649501Y-104722876D01*
X58656619Y-104789092D01*
X58656619Y-104815599D01*
X58650000Y-104877169D01*
X58650000Y-104950000D01*
X58668591Y-104950000D01*
X58735630Y-104969685D01*
X58767855Y-104999686D01*
X58792454Y-105032546D01*
X58792455Y-105032546D01*
X58792456Y-105032548D01*
X58883540Y-105100734D01*
X58925411Y-105156668D01*
X58930395Y-105226359D01*
X58896909Y-105287682D01*
X58883540Y-105299266D01*
X58792457Y-105367451D01*
X58792448Y-105367460D01*
X58767856Y-105400311D01*
X58711923Y-105442182D01*
X58668590Y-105450000D01*
X58650000Y-105450000D01*
X58649750Y-105450249D01*
X58630315Y-105516440D01*
X58613682Y-105537082D01*
X58519480Y-105631284D01*
X58519478Y-105631286D01*
X58433433Y-105717331D01*
X58381465Y-105769299D01*
X58320142Y-105802783D01*
X58307668Y-105804837D01*
X58220750Y-105814630D01*
X58050478Y-105874210D01*
X57897737Y-105970184D01*
X57770184Y-106097737D01*
X57674211Y-106250476D01*
X57614631Y-106420745D01*
X57614630Y-106420750D01*
X57594435Y-106599996D01*
X57594435Y-106600003D01*
X57614630Y-106779249D01*
X57614631Y-106779254D01*
X57674211Y-106949523D01*
X57693200Y-106979743D01*
X57770184Y-107102262D01*
X57897738Y-107229816D01*
X58050478Y-107325789D01*
X58220745Y-107385368D01*
X58220750Y-107385369D01*
X58399996Y-107405565D01*
X58400000Y-107405565D01*
X58400003Y-107405565D01*
X58511616Y-107392989D01*
X58580438Y-107405043D01*
X58631818Y-107452392D01*
X58649500Y-107516209D01*
X58649500Y-107922870D01*
X58649501Y-107922879D01*
X58656367Y-107986751D01*
X58656367Y-108013257D01*
X58655909Y-108017516D01*
X58655909Y-108017517D01*
X58649500Y-108077127D01*
X58649500Y-108077132D01*
X58649500Y-108321273D01*
X58629815Y-108388312D01*
X58577011Y-108434067D01*
X58511620Y-108444494D01*
X58504024Y-108443638D01*
X58500000Y-108443185D01*
X58499999Y-108443185D01*
X58499996Y-108443185D01*
X58320750Y-108463380D01*
X58320745Y-108463381D01*
X58150476Y-108522961D01*
X57997737Y-108618934D01*
X57870184Y-108746487D01*
X57774211Y-108899226D01*
X57714631Y-109069495D01*
X57714630Y-109069500D01*
X57694435Y-109248746D01*
X57694435Y-109248753D01*
X57714630Y-109427999D01*
X57714631Y-109428004D01*
X57774211Y-109598273D01*
X57837829Y-109699519D01*
X57870184Y-109751012D01*
X57997738Y-109878566D01*
X58150478Y-109974539D01*
X58320745Y-110034118D01*
X58407669Y-110043911D01*
X58472080Y-110070976D01*
X58481465Y-110079450D01*
X58613181Y-110211166D01*
X58646666Y-110272489D01*
X58649500Y-110298842D01*
X58649500Y-110322867D01*
X58649501Y-110322877D01*
X58655908Y-110382483D01*
X58706202Y-110517328D01*
X58706206Y-110517335D01*
X58792452Y-110632544D01*
X58792455Y-110632547D01*
X58907664Y-110718793D01*
X58907671Y-110718797D01*
X59042517Y-110769091D01*
X59042516Y-110769091D01*
X59049444Y-110769835D01*
X59102127Y-110775500D01*
X60697872Y-110775499D01*
X60700500Y-110775499D01*
X60767539Y-110795184D01*
X60813294Y-110847987D01*
X60824500Y-110899499D01*
X60824500Y-112497870D01*
X60824501Y-112497876D01*
X60830908Y-112557483D01*
X60881202Y-112692328D01*
X60881206Y-112692335D01*
X60967452Y-112807544D01*
X60967455Y-112807547D01*
X61082664Y-112893793D01*
X61082671Y-112893797D01*
X61127618Y-112910561D01*
X61217517Y-112944091D01*
X61277127Y-112950500D01*
X61922872Y-112950499D01*
X61982483Y-112944091D01*
X61982486Y-112944089D01*
X61986744Y-112943632D01*
X62013254Y-112943632D01*
X62017514Y-112944089D01*
X62017517Y-112944091D01*
X62077127Y-112950500D01*
X62345041Y-112950499D01*
X62412079Y-112970183D01*
X62457834Y-113022987D01*
X62467778Y-113092146D01*
X62438753Y-113155701D01*
X62432722Y-113162180D01*
X62355282Y-113239620D01*
X62355278Y-113239625D01*
X62272968Y-113378804D01*
X62230496Y-113525000D01*
X62911000Y-113525000D01*
X62978039Y-113544685D01*
X63023794Y-113597489D01*
X63035000Y-113649000D01*
X63035000Y-113830500D01*
X63015315Y-113897539D01*
X62962511Y-113943294D01*
X62911000Y-113954500D01*
X62800302Y-113954500D01*
X62764008Y-113957356D01*
X62764002Y-113957357D01*
X62608610Y-114002503D01*
X62608605Y-114002506D01*
X62599766Y-114007732D01*
X62536648Y-114025000D01*
X62230496Y-114025000D01*
X62272968Y-114171194D01*
X62284911Y-114191389D01*
X62302092Y-114259113D01*
X62284911Y-114317628D01*
X62272506Y-114338604D01*
X62272504Y-114338609D01*
X62227357Y-114494002D01*
X62227356Y-114494008D01*
X62224500Y-114530302D01*
X62224500Y-114939697D01*
X62227356Y-114975991D01*
X62227357Y-114975997D01*
X62272504Y-115131390D01*
X62272505Y-115131393D01*
X62354881Y-115270684D01*
X62354887Y-115270692D01*
X62469307Y-115385112D01*
X62469311Y-115385115D01*
X62469313Y-115385117D01*
X62608605Y-115467494D01*
X62649587Y-115479400D01*
X62764002Y-115512642D01*
X62764005Y-115512642D01*
X62764007Y-115512643D01*
X62800310Y-115515500D01*
X62800318Y-115515500D01*
X63269682Y-115515500D01*
X63269690Y-115515500D01*
X63290767Y-115513841D01*
X63359145Y-115528202D01*
X63408903Y-115577252D01*
X63424500Y-115637458D01*
X63424500Y-115906613D01*
X63430913Y-115977192D01*
X63481522Y-116139606D01*
X63569530Y-116285188D01*
X63689811Y-116405469D01*
X63689813Y-116405470D01*
X63689815Y-116405472D01*
X63835394Y-116493478D01*
X63997804Y-116544086D01*
X64068384Y-116550500D01*
X64068387Y-116550500D01*
X64731613Y-116550500D01*
X64731616Y-116550500D01*
X64802196Y-116544086D01*
X64964606Y-116493478D01*
X65110185Y-116405472D01*
X65129817Y-116385840D01*
X65191139Y-116352353D01*
X65260831Y-116357336D01*
X65305183Y-116385840D01*
X65324811Y-116405469D01*
X65324813Y-116405470D01*
X65324815Y-116405472D01*
X65470394Y-116493478D01*
X65632804Y-116544086D01*
X65703384Y-116550500D01*
X65703387Y-116550500D01*
X66366613Y-116550500D01*
X66366616Y-116550500D01*
X66437196Y-116544086D01*
X66599606Y-116493478D01*
X66745185Y-116405472D01*
X66865472Y-116285185D01*
X66953478Y-116139606D01*
X67004086Y-115977196D01*
X67010500Y-115906616D01*
X67010500Y-115393384D01*
X67004086Y-115322804D01*
X66953478Y-115160394D01*
X66865472Y-115014815D01*
X66865470Y-115014813D01*
X66865469Y-115014811D01*
X66763339Y-114912681D01*
X66729854Y-114851358D01*
X66734838Y-114781666D01*
X66763339Y-114737319D01*
X66865468Y-114635189D01*
X66865469Y-114635188D01*
X66865472Y-114635185D01*
X66953478Y-114489606D01*
X67004086Y-114327196D01*
X67010500Y-114256616D01*
X67010500Y-113743384D01*
X67004086Y-113672804D01*
X66953478Y-113510394D01*
X66865472Y-113364815D01*
X66865470Y-113364813D01*
X66865469Y-113364811D01*
X66745188Y-113244530D01*
X66737066Y-113239620D01*
X66639459Y-113180614D01*
X66592273Y-113129088D01*
X66580435Y-113060229D01*
X66607704Y-112995900D01*
X66665423Y-112956526D01*
X66703611Y-112950499D01*
X66722871Y-112950499D01*
X66722872Y-112950499D01*
X66782483Y-112944091D01*
X66782486Y-112944089D01*
X66786744Y-112943632D01*
X66813254Y-112943632D01*
X66817514Y-112944089D01*
X66817517Y-112944091D01*
X66877127Y-112950500D01*
X67522872Y-112950499D01*
X67582483Y-112944091D01*
X67582486Y-112944089D01*
X67586744Y-112943632D01*
X67613254Y-112943632D01*
X67617514Y-112944089D01*
X67617517Y-112944091D01*
X67677127Y-112950500D01*
X68322872Y-112950499D01*
X68382483Y-112944091D01*
X68382486Y-112944089D01*
X68386744Y-112943632D01*
X68413254Y-112943632D01*
X68417514Y-112944089D01*
X68417517Y-112944091D01*
X68477127Y-112950500D01*
X69122872Y-112950499D01*
X69182483Y-112944091D01*
X69182486Y-112944089D01*
X69186744Y-112943632D01*
X69213254Y-112943632D01*
X69217514Y-112944089D01*
X69217517Y-112944091D01*
X69277127Y-112950500D01*
X69922872Y-112950499D01*
X69982483Y-112944091D01*
X70117331Y-112893796D01*
X70232546Y-112807546D01*
X70318796Y-112692331D01*
X70369091Y-112557483D01*
X70375500Y-112497873D01*
X70375499Y-111724095D01*
X70395183Y-111657057D01*
X70447987Y-111611302D01*
X70517146Y-111601358D01*
X70580702Y-111630383D01*
X70587180Y-111636415D01*
X70715139Y-111764374D01*
X70715149Y-111764385D01*
X70719479Y-111768715D01*
X70719480Y-111768716D01*
X70831284Y-111880520D01*
X70831286Y-111880521D01*
X70831290Y-111880524D01*
X70901667Y-111921156D01*
X70901671Y-111921157D01*
X70901672Y-111921158D01*
X70968215Y-111959577D01*
X71120943Y-112000501D01*
X71120946Y-112000501D01*
X71286653Y-112000501D01*
X71286669Y-112000500D01*
X73617588Y-112000500D01*
X73684627Y-112020185D01*
X73694903Y-112027555D01*
X73697736Y-112029814D01*
X73697738Y-112029816D01*
X73850478Y-112125789D01*
X74020745Y-112185368D01*
X74020750Y-112185369D01*
X74199996Y-112205565D01*
X74200000Y-112205565D01*
X74200004Y-112205565D01*
X74379249Y-112185369D01*
X74379252Y-112185368D01*
X74379255Y-112185368D01*
X74549522Y-112125789D01*
X74702262Y-112029816D01*
X74829816Y-111902262D01*
X74833218Y-111896846D01*
X74885545Y-111850554D01*
X74954597Y-111839899D01*
X75018448Y-111868268D01*
X75025895Y-111875130D01*
X76631284Y-113480520D01*
X76631286Y-113480521D01*
X76631290Y-113480524D01*
X76708326Y-113525000D01*
X76768216Y-113559577D01*
X76920943Y-113600501D01*
X76920945Y-113600501D01*
X77086654Y-113600501D01*
X77086670Y-113600500D01*
X77417588Y-113600500D01*
X77484627Y-113620185D01*
X77494903Y-113627555D01*
X77497736Y-113629814D01*
X77497738Y-113629816D01*
X77650478Y-113725789D01*
X77820745Y-113785368D01*
X77820750Y-113785369D01*
X77999996Y-113805565D01*
X78000000Y-113805565D01*
X78000004Y-113805565D01*
X78179249Y-113785369D01*
X78179252Y-113785368D01*
X78179255Y-113785368D01*
X78349522Y-113725789D01*
X78502262Y-113629816D01*
X78629816Y-113502262D01*
X78725789Y-113349522D01*
X78785368Y-113179255D01*
X78787292Y-113162180D01*
X78805565Y-113000003D01*
X78805565Y-112999996D01*
X78785369Y-112820750D01*
X78785368Y-112820745D01*
X78740980Y-112693891D01*
X78725789Y-112650478D01*
X78721776Y-112644092D01*
X78667356Y-112557482D01*
X78629816Y-112497738D01*
X78502262Y-112370184D01*
X78491117Y-112363181D01*
X78349523Y-112274211D01*
X78179254Y-112214631D01*
X78179249Y-112214630D01*
X78000004Y-112194435D01*
X77999996Y-112194435D01*
X77820750Y-112214630D01*
X77820745Y-112214631D01*
X77650476Y-112274211D01*
X77497736Y-112370185D01*
X77494903Y-112372445D01*
X77492724Y-112373334D01*
X77491842Y-112373889D01*
X77491744Y-112373734D01*
X77430217Y-112398855D01*
X77417588Y-112399500D01*
X77300098Y-112399500D01*
X77233059Y-112379815D01*
X77212417Y-112363181D01*
X75981732Y-111132496D01*
X80525935Y-111132496D01*
X80525935Y-111132503D01*
X80546130Y-111311749D01*
X80546131Y-111311754D01*
X80605711Y-111482023D01*
X80680695Y-111601358D01*
X80701684Y-111634762D01*
X80829238Y-111762316D01*
X80832531Y-111764385D01*
X80952710Y-111839899D01*
X80981978Y-111858289D01*
X81119411Y-111906379D01*
X81152245Y-111917868D01*
X81152250Y-111917869D01*
X81331496Y-111938065D01*
X81331500Y-111938065D01*
X81331504Y-111938065D01*
X81510749Y-111917869D01*
X81510752Y-111917868D01*
X81510755Y-111917868D01*
X81681022Y-111858289D01*
X81833762Y-111762316D01*
X81961316Y-111634762D01*
X82057289Y-111482022D01*
X82116868Y-111311755D01*
X82129433Y-111200237D01*
X82137065Y-111132503D01*
X82137065Y-111132496D01*
X82116869Y-110953250D01*
X82116868Y-110953245D01*
X82098061Y-110899499D01*
X82057289Y-110782978D01*
X81961316Y-110630238D01*
X81833762Y-110502684D01*
X81786119Y-110472748D01*
X81681023Y-110406711D01*
X81510754Y-110347131D01*
X81510749Y-110347130D01*
X81331504Y-110326935D01*
X81331496Y-110326935D01*
X81152250Y-110347130D01*
X81152245Y-110347131D01*
X80981976Y-110406711D01*
X80829237Y-110502684D01*
X80701684Y-110630237D01*
X80605711Y-110782976D01*
X80546131Y-110953245D01*
X80546130Y-110953250D01*
X80525935Y-111132496D01*
X75981732Y-111132496D01*
X74199951Y-109350715D01*
X74166466Y-109289392D01*
X74171450Y-109219700D01*
X74199951Y-109175352D01*
X74322576Y-109052727D01*
X74411542Y-108908492D01*
X74411547Y-108908481D01*
X74464855Y-108747606D01*
X74474999Y-108648322D01*
X74475000Y-108648309D01*
X74475000Y-108625000D01*
X73624000Y-108625000D01*
X73556961Y-108605315D01*
X73511206Y-108552511D01*
X73500000Y-108501000D01*
X73500000Y-108249000D01*
X73519685Y-108181961D01*
X73572489Y-108136206D01*
X73624000Y-108125000D01*
X74474999Y-108125000D01*
X74474999Y-108101692D01*
X74474998Y-108101677D01*
X74464855Y-108002392D01*
X74411547Y-107841518D01*
X74411542Y-107841507D01*
X74322575Y-107697271D01*
X74322572Y-107697267D01*
X74313339Y-107688034D01*
X74279854Y-107626711D01*
X74284838Y-107557019D01*
X74313343Y-107512668D01*
X74322968Y-107503044D01*
X74412003Y-107358697D01*
X74465349Y-107197708D01*
X74475500Y-107098345D01*
X74475499Y-106551656D01*
X74465349Y-106452292D01*
X74412003Y-106291303D01*
X74411999Y-106291297D01*
X74411998Y-106291294D01*
X74322970Y-106146959D01*
X74322967Y-106146955D01*
X74203044Y-106027032D01*
X74203040Y-106027029D01*
X74058705Y-105938001D01*
X74058699Y-105937998D01*
X74058697Y-105937997D01*
X74000752Y-105918796D01*
X73897709Y-105884651D01*
X73798346Y-105874500D01*
X73201662Y-105874500D01*
X73201644Y-105874501D01*
X73102292Y-105884650D01*
X73102289Y-105884651D01*
X72941305Y-105937996D01*
X72941294Y-105938001D01*
X72796959Y-106027029D01*
X72677032Y-106146955D01*
X72672724Y-106152405D01*
X72615704Y-106192785D01*
X72575453Y-106199500D01*
X72490954Y-106199500D01*
X72423915Y-106179815D01*
X72414843Y-106172504D01*
X72414645Y-106172769D01*
X72407547Y-106167455D01*
X72407546Y-106167454D01*
X72316457Y-106099265D01*
X72274588Y-106043333D01*
X72269604Y-105973641D01*
X72303089Y-105912318D01*
X72316452Y-105900738D01*
X72407546Y-105832546D01*
X72432143Y-105799687D01*
X72488076Y-105757818D01*
X72531409Y-105750000D01*
X72550000Y-105750000D01*
X72550000Y-105677172D01*
X72549999Y-105677160D01*
X72543380Y-105615604D01*
X72543380Y-105589090D01*
X72544090Y-105582485D01*
X72544091Y-105582483D01*
X72550500Y-105522873D01*
X72550499Y-105427753D01*
X72570183Y-105360716D01*
X72622986Y-105314960D01*
X72660612Y-105304535D01*
X72760130Y-105293322D01*
X72830721Y-105285369D01*
X72830724Y-105285368D01*
X72830726Y-105285368D01*
X73000993Y-105225789D01*
X73153733Y-105129816D01*
X73281287Y-105002262D01*
X73377260Y-104849522D01*
X73436839Y-104679255D01*
X73449566Y-104566305D01*
X73457036Y-104500002D01*
X73457036Y-104500000D01*
X73453890Y-104472082D01*
X73452805Y-104462454D01*
X73464858Y-104393634D01*
X73488341Y-104360892D01*
X74980520Y-102868716D01*
X75059577Y-102731784D01*
X75100501Y-102579057D01*
X75100501Y-102420942D01*
X75100501Y-102413347D01*
X75100500Y-102413329D01*
X75100500Y-95023374D01*
X75100501Y-95023361D01*
X75100501Y-94855259D01*
X75100501Y-94855257D01*
X75059577Y-94702529D01*
X74980520Y-94565598D01*
X70909779Y-90494858D01*
X70876295Y-90433536D01*
X70881279Y-90363844D01*
X70909776Y-90319501D01*
X71002015Y-90227263D01*
X71097988Y-90074523D01*
X71157567Y-89904256D01*
X71160523Y-89878023D01*
X71177764Y-89725004D01*
X71177764Y-89724997D01*
X71157568Y-89545751D01*
X71157567Y-89545746D01*
X71097987Y-89375477D01*
X71064844Y-89322731D01*
X71002015Y-89222739D01*
X71002013Y-89222737D01*
X71002012Y-89222735D01*
X70999749Y-89219897D01*
X70998858Y-89217716D01*
X70998310Y-89216843D01*
X70998463Y-89216746D01*
X70973343Y-89155210D01*
X70972699Y-89142588D01*
X70972699Y-86035088D01*
X70992384Y-85968049D01*
X71045188Y-85922294D01*
X71114346Y-85912350D01*
X71162672Y-85930095D01*
X71197674Y-85952089D01*
X71367944Y-86011669D01*
X71367949Y-86011670D01*
X71547195Y-86031866D01*
X71547199Y-86031866D01*
X71547203Y-86031866D01*
X71726448Y-86011670D01*
X71726451Y-86011669D01*
X71726454Y-86011669D01*
X71896721Y-85952090D01*
X72049461Y-85856117D01*
X72177015Y-85728563D01*
X72272988Y-85575823D01*
X72332567Y-85405556D01*
X72332568Y-85405550D01*
X72352764Y-85226304D01*
X72352764Y-85226297D01*
X72332568Y-85047051D01*
X72332567Y-85047046D01*
X72310985Y-84985368D01*
X72272988Y-84876779D01*
X72177015Y-84724039D01*
X72049461Y-84596485D01*
X71896722Y-84500512D01*
X71726453Y-84440932D01*
X71726449Y-84440931D01*
X71664905Y-84433997D01*
X71600491Y-84406930D01*
X71560936Y-84349335D01*
X71558799Y-84279498D01*
X71591106Y-84223098D01*
X76154294Y-79659910D01*
X76215615Y-79626427D01*
X76285307Y-79631411D01*
X76341240Y-79673283D01*
X76354355Y-79695187D01*
X76384965Y-79760830D01*
X76384966Y-79760832D01*
X76384967Y-79760833D01*
X76384967Y-79760834D01*
X76493281Y-79915521D01*
X76520501Y-79954396D01*
X76520506Y-79954402D01*
X76687597Y-80121493D01*
X76687603Y-80121498D01*
X76873158Y-80251425D01*
X76916783Y-80306002D01*
X76923977Y-80375500D01*
X76892454Y-80437855D01*
X76873158Y-80454575D01*
X76687597Y-80584505D01*
X76520505Y-80751597D01*
X76384965Y-80945169D01*
X76384964Y-80945171D01*
X76285098Y-81159335D01*
X76285094Y-81159344D01*
X76223938Y-81387586D01*
X76223936Y-81387596D01*
X76203341Y-81622999D01*
X76203341Y-81623000D01*
X76223936Y-81858403D01*
X76223938Y-81858413D01*
X76285094Y-82086655D01*
X76285096Y-82086659D01*
X76285097Y-82086663D01*
X76325804Y-82173959D01*
X76384965Y-82300830D01*
X76384967Y-82300834D01*
X76470532Y-82423032D01*
X76520501Y-82494396D01*
X76520506Y-82494402D01*
X76687597Y-82661493D01*
X76687603Y-82661498D01*
X76873158Y-82791425D01*
X76916783Y-82846002D01*
X76923977Y-82915500D01*
X76892454Y-82977855D01*
X76873158Y-82994575D01*
X76687597Y-83124505D01*
X76520505Y-83291597D01*
X76384965Y-83485169D01*
X76384964Y-83485171D01*
X76285098Y-83699335D01*
X76285094Y-83699344D01*
X76223938Y-83927586D01*
X76223936Y-83927596D01*
X76203341Y-84162999D01*
X76203341Y-84163000D01*
X76223936Y-84398403D01*
X76223938Y-84398413D01*
X76285094Y-84626655D01*
X76285096Y-84626659D01*
X76285097Y-84626663D01*
X76356249Y-84779249D01*
X76384965Y-84840830D01*
X76384967Y-84840834D01*
X76486171Y-84985367D01*
X76520501Y-85034396D01*
X76520506Y-85034402D01*
X76687597Y-85201493D01*
X76687603Y-85201498D01*
X76873158Y-85331425D01*
X76916783Y-85386002D01*
X76923977Y-85455500D01*
X76892454Y-85517855D01*
X76873158Y-85534575D01*
X76687597Y-85664505D01*
X76520505Y-85831597D01*
X76384965Y-86025169D01*
X76384964Y-86025171D01*
X76285098Y-86239335D01*
X76285094Y-86239344D01*
X76223938Y-86467586D01*
X76223936Y-86467596D01*
X76203341Y-86702999D01*
X76203341Y-86703000D01*
X76223936Y-86938403D01*
X76223938Y-86938413D01*
X76285094Y-87166655D01*
X76285096Y-87166659D01*
X76285097Y-87166663D01*
X76350752Y-87307460D01*
X76384965Y-87380830D01*
X76384967Y-87380834D01*
X76486065Y-87525216D01*
X76520501Y-87574396D01*
X76520506Y-87574402D01*
X76687597Y-87741493D01*
X76687603Y-87741498D01*
X76873158Y-87871425D01*
X76916783Y-87926002D01*
X76923977Y-87995500D01*
X76892454Y-88057855D01*
X76873158Y-88074575D01*
X76687597Y-88204505D01*
X76520505Y-88371597D01*
X76384965Y-88565169D01*
X76384964Y-88565171D01*
X76285098Y-88779335D01*
X76285094Y-88779344D01*
X76223938Y-89007586D01*
X76223936Y-89007596D01*
X76203341Y-89242999D01*
X76203341Y-89243000D01*
X76223936Y-89478403D01*
X76223938Y-89478413D01*
X76285094Y-89706655D01*
X76285096Y-89706659D01*
X76285097Y-89706663D01*
X76335443Y-89814630D01*
X76384965Y-89920830D01*
X76384967Y-89920834D01*
X76492582Y-90074523D01*
X76520501Y-90114396D01*
X76520506Y-90114402D01*
X76687597Y-90281493D01*
X76687603Y-90281498D01*
X76873158Y-90411425D01*
X76916783Y-90466002D01*
X76923977Y-90535500D01*
X76892454Y-90597855D01*
X76873158Y-90614575D01*
X76687597Y-90744505D01*
X76520505Y-90911597D01*
X76384965Y-91105169D01*
X76384964Y-91105171D01*
X76285098Y-91319335D01*
X76285094Y-91319344D01*
X76223938Y-91547586D01*
X76223936Y-91547596D01*
X76203341Y-91782999D01*
X76203341Y-91783000D01*
X76223936Y-92018403D01*
X76223938Y-92018413D01*
X76285094Y-92246655D01*
X76285096Y-92246659D01*
X76285097Y-92246663D01*
X76289000Y-92255032D01*
X76384965Y-92460830D01*
X76384967Y-92460834D01*
X76419277Y-92509833D01*
X76520501Y-92654396D01*
X76520506Y-92654402D01*
X76687597Y-92821493D01*
X76687603Y-92821498D01*
X76873158Y-92951425D01*
X76916783Y-93006002D01*
X76923977Y-93075500D01*
X76892454Y-93137855D01*
X76873158Y-93154575D01*
X76687597Y-93284505D01*
X76520505Y-93451597D01*
X76384968Y-93645166D01*
X76384964Y-93645171D01*
X76285098Y-93859335D01*
X76285094Y-93859344D01*
X76223938Y-94087586D01*
X76223936Y-94087596D01*
X76203341Y-94322999D01*
X76203341Y-94323000D01*
X76223936Y-94558403D01*
X76223938Y-94558413D01*
X76285094Y-94786655D01*
X76285096Y-94786659D01*
X76285097Y-94786663D01*
X76365004Y-94958023D01*
X76384965Y-95000830D01*
X76384967Y-95000834D01*
X76488461Y-95148637D01*
X76520501Y-95194396D01*
X76520506Y-95194402D01*
X76687597Y-95361493D01*
X76687603Y-95361498D01*
X76873158Y-95491425D01*
X76916783Y-95546002D01*
X76923977Y-95615500D01*
X76892454Y-95677855D01*
X76873158Y-95694575D01*
X76687597Y-95824505D01*
X76520505Y-95991597D01*
X76384965Y-96185169D01*
X76384964Y-96185171D01*
X76285098Y-96399335D01*
X76285094Y-96399344D01*
X76223938Y-96627586D01*
X76223936Y-96627596D01*
X76203341Y-96862999D01*
X76203341Y-96863000D01*
X76223936Y-97098403D01*
X76223938Y-97098413D01*
X76285094Y-97326655D01*
X76285096Y-97326659D01*
X76285097Y-97326663D01*
X76349273Y-97464289D01*
X76384965Y-97540830D01*
X76384967Y-97540834D01*
X76440530Y-97620185D01*
X76520501Y-97734396D01*
X76520506Y-97734402D01*
X76687597Y-97901493D01*
X76687603Y-97901498D01*
X76873158Y-98031425D01*
X76916783Y-98086002D01*
X76923977Y-98155500D01*
X76892454Y-98217855D01*
X76873158Y-98234575D01*
X76687597Y-98364505D01*
X76520505Y-98531597D01*
X76384965Y-98725169D01*
X76384964Y-98725171D01*
X76285098Y-98939335D01*
X76285094Y-98939344D01*
X76223938Y-99167586D01*
X76223936Y-99167596D01*
X76203341Y-99402999D01*
X76203341Y-99403000D01*
X76223936Y-99638403D01*
X76223938Y-99638413D01*
X76285094Y-99866655D01*
X76285096Y-99866659D01*
X76285097Y-99866663D01*
X76361176Y-100029814D01*
X76384965Y-100080830D01*
X76384967Y-100080834D01*
X76482935Y-100220745D01*
X76520501Y-100274396D01*
X76520506Y-100274402D01*
X76687597Y-100441493D01*
X76687603Y-100441498D01*
X76873158Y-100571425D01*
X76916783Y-100626002D01*
X76923977Y-100695500D01*
X76892454Y-100757855D01*
X76873158Y-100774575D01*
X76687597Y-100904505D01*
X76520505Y-101071597D01*
X76384965Y-101265169D01*
X76384964Y-101265171D01*
X76285098Y-101479335D01*
X76285094Y-101479344D01*
X76223938Y-101707586D01*
X76223936Y-101707596D01*
X76203341Y-101942999D01*
X76203341Y-101943000D01*
X76223936Y-102178403D01*
X76223938Y-102178413D01*
X76285094Y-102406655D01*
X76285096Y-102406659D01*
X76285097Y-102406663D01*
X76331598Y-102506384D01*
X76384965Y-102620830D01*
X76384967Y-102620834D01*
X76462660Y-102731790D01*
X76520505Y-102814401D01*
X76687599Y-102981495D01*
X76784384Y-103049265D01*
X76881165Y-103117032D01*
X76881167Y-103117033D01*
X76881170Y-103117035D01*
X77095337Y-103216903D01*
X77095343Y-103216904D01*
X77095344Y-103216905D01*
X77125556Y-103225000D01*
X77323592Y-103278063D01*
X77504491Y-103293890D01*
X77558999Y-103298659D01*
X77559000Y-103298659D01*
X77559001Y-103298659D01*
X77613497Y-103293891D01*
X77794408Y-103278063D01*
X78022663Y-103216903D01*
X78236830Y-103117035D01*
X78430401Y-102981495D01*
X78597495Y-102814401D01*
X78727425Y-102628842D01*
X78782002Y-102585217D01*
X78851500Y-102578023D01*
X78913855Y-102609546D01*
X78930575Y-102628842D01*
X79060500Y-102814395D01*
X79060505Y-102814401D01*
X79227599Y-102981495D01*
X79324384Y-103049265D01*
X79421165Y-103117032D01*
X79421167Y-103117033D01*
X79421170Y-103117035D01*
X79635337Y-103216903D01*
X79635343Y-103216904D01*
X79635344Y-103216905D01*
X79665556Y-103225000D01*
X79863592Y-103278063D01*
X80044491Y-103293890D01*
X80098999Y-103298659D01*
X80099000Y-103298659D01*
X80099001Y-103298659D01*
X80153497Y-103293891D01*
X80334408Y-103278063D01*
X80562663Y-103216903D01*
X80776830Y-103117035D01*
X80970401Y-102981495D01*
X81137495Y-102814401D01*
X81273035Y-102620830D01*
X81372903Y-102406663D01*
X81434063Y-102178408D01*
X81454659Y-101943000D01*
X81434063Y-101707592D01*
X81375508Y-101489059D01*
X81372905Y-101479344D01*
X81372904Y-101479343D01*
X81372903Y-101479337D01*
X81273035Y-101265171D01*
X81267425Y-101257158D01*
X81137494Y-101071597D01*
X80970402Y-100904506D01*
X80970396Y-100904501D01*
X80784842Y-100774575D01*
X80741217Y-100719998D01*
X80734023Y-100650500D01*
X80765546Y-100588145D01*
X80784842Y-100571425D01*
X80841695Y-100531616D01*
X80970401Y-100441495D01*
X81137495Y-100274401D01*
X81273035Y-100080830D01*
X81372903Y-99866663D01*
X81434063Y-99638408D01*
X81454659Y-99403000D01*
X81434063Y-99167592D01*
X81372903Y-98939337D01*
X81273035Y-98725171D01*
X81267425Y-98717158D01*
X81137494Y-98531597D01*
X80970402Y-98364506D01*
X80970396Y-98364501D01*
X80784842Y-98234575D01*
X80741217Y-98179998D01*
X80734023Y-98110500D01*
X80765546Y-98048145D01*
X80784842Y-98031425D01*
X80865818Y-97974725D01*
X80970401Y-97901495D01*
X81137495Y-97734401D01*
X81273035Y-97540830D01*
X81372903Y-97326663D01*
X81434063Y-97098408D01*
X81454659Y-96863000D01*
X81434063Y-96627592D01*
X81372903Y-96399337D01*
X81273035Y-96185171D01*
X81269779Y-96180520D01*
X81137494Y-95991597D01*
X80970402Y-95824506D01*
X80970396Y-95824501D01*
X80784842Y-95694575D01*
X80741217Y-95639998D01*
X80734023Y-95570500D01*
X80765546Y-95508145D01*
X80784842Y-95491425D01*
X80880343Y-95424554D01*
X80970401Y-95361495D01*
X81137495Y-95194401D01*
X81273035Y-95000830D01*
X81372903Y-94786663D01*
X81434063Y-94558408D01*
X81454659Y-94323000D01*
X81434063Y-94087592D01*
X81372903Y-93859337D01*
X81273035Y-93645171D01*
X81273032Y-93645166D01*
X81137494Y-93451597D01*
X80970402Y-93284506D01*
X80970396Y-93284501D01*
X80784842Y-93154575D01*
X80741217Y-93099998D01*
X80734023Y-93030500D01*
X80765546Y-92968145D01*
X80784842Y-92951425D01*
X80825797Y-92922748D01*
X80970401Y-92821495D01*
X81137495Y-92654401D01*
X81273035Y-92460830D01*
X81372903Y-92246663D01*
X81434063Y-92018408D01*
X81454659Y-91783000D01*
X81434063Y-91547592D01*
X81372903Y-91319337D01*
X81273035Y-91105171D01*
X81267425Y-91097158D01*
X81137494Y-90911597D01*
X80970402Y-90744506D01*
X80970396Y-90744501D01*
X80784842Y-90614575D01*
X80741217Y-90559998D01*
X80734023Y-90490500D01*
X80765546Y-90428145D01*
X80784842Y-90411425D01*
X80807975Y-90395227D01*
X80970401Y-90281495D01*
X81137495Y-90114401D01*
X81273035Y-89920830D01*
X81372903Y-89706663D01*
X81434063Y-89478408D01*
X81454659Y-89243000D01*
X81434063Y-89007592D01*
X81372903Y-88779337D01*
X81273035Y-88565171D01*
X81267425Y-88557158D01*
X81137494Y-88371597D01*
X80970402Y-88204506D01*
X80970396Y-88204501D01*
X80784842Y-88074575D01*
X80741217Y-88019998D01*
X80734023Y-87950500D01*
X80765546Y-87888145D01*
X80784842Y-87871425D01*
X80860379Y-87818533D01*
X80970401Y-87741495D01*
X81137495Y-87574401D01*
X81273035Y-87380830D01*
X81372903Y-87166663D01*
X81434063Y-86938408D01*
X81454659Y-86703000D01*
X81434063Y-86467592D01*
X81372903Y-86239337D01*
X81273035Y-86025171D01*
X81267425Y-86017158D01*
X81137494Y-85831597D01*
X80970402Y-85664506D01*
X80970396Y-85664501D01*
X80784842Y-85534575D01*
X80741217Y-85479998D01*
X80734023Y-85410500D01*
X80765546Y-85348145D01*
X80784842Y-85331425D01*
X80934980Y-85226297D01*
X80970401Y-85201495D01*
X81137495Y-85034401D01*
X81273035Y-84840830D01*
X81372903Y-84626663D01*
X81434063Y-84398408D01*
X81454659Y-84163000D01*
X81434063Y-83927592D01*
X81372903Y-83699337D01*
X81273035Y-83485171D01*
X81267425Y-83477158D01*
X81137494Y-83291597D01*
X80970402Y-83124506D01*
X80970396Y-83124501D01*
X80784842Y-82994575D01*
X80741217Y-82939998D01*
X80734023Y-82870500D01*
X80765546Y-82808145D01*
X80784842Y-82791425D01*
X80835205Y-82756160D01*
X80970401Y-82661495D01*
X81137495Y-82494401D01*
X81273035Y-82300830D01*
X81372903Y-82086663D01*
X81434063Y-81858408D01*
X81454659Y-81623000D01*
X81434063Y-81387592D01*
X81372903Y-81159337D01*
X81273035Y-80945171D01*
X81267425Y-80937158D01*
X81137494Y-80751597D01*
X80970402Y-80584506D01*
X80970396Y-80584501D01*
X80784842Y-80454575D01*
X80741217Y-80399998D01*
X80734023Y-80330500D01*
X80765546Y-80268145D01*
X80784842Y-80251425D01*
X80807026Y-80235891D01*
X80970401Y-80121495D01*
X81137495Y-79954401D01*
X81273035Y-79760830D01*
X81372903Y-79546663D01*
X81434063Y-79318408D01*
X81454659Y-79083000D01*
X81434063Y-78847592D01*
X81372903Y-78619337D01*
X81273035Y-78405171D01*
X81267425Y-78397158D01*
X81137494Y-78211597D01*
X80970402Y-78044506D01*
X80970396Y-78044501D01*
X80784842Y-77914575D01*
X80741217Y-77859998D01*
X80734023Y-77790500D01*
X80765546Y-77728145D01*
X80784842Y-77711425D01*
X80807026Y-77695891D01*
X80970401Y-77581495D01*
X81137495Y-77414401D01*
X81273035Y-77220830D01*
X81372903Y-77006663D01*
X81434063Y-76778408D01*
X81454659Y-76543000D01*
X81434063Y-76307592D01*
X81378503Y-76100235D01*
X81372905Y-76079344D01*
X81372904Y-76079343D01*
X81372903Y-76079337D01*
X81273035Y-75865171D01*
X81187925Y-75743620D01*
X81137494Y-75671597D01*
X80970402Y-75504506D01*
X80970396Y-75504501D01*
X80784842Y-75374575D01*
X80741217Y-75319998D01*
X80734023Y-75250500D01*
X80765546Y-75188145D01*
X80784842Y-75171425D01*
X80807026Y-75155891D01*
X80970401Y-75041495D01*
X81137495Y-74874401D01*
X81273035Y-74680830D01*
X81372903Y-74466663D01*
X81434063Y-74238408D01*
X81454659Y-74003000D01*
X81434063Y-73767592D01*
X81372903Y-73539337D01*
X81273035Y-73325171D01*
X81188892Y-73205001D01*
X81137494Y-73131597D01*
X80970402Y-72964506D01*
X80970396Y-72964501D01*
X80784842Y-72834575D01*
X80741217Y-72779998D01*
X80734023Y-72710500D01*
X80765546Y-72648145D01*
X80784842Y-72631425D01*
X80838446Y-72593891D01*
X80970401Y-72501495D01*
X81137495Y-72334401D01*
X81273035Y-72140830D01*
X81372903Y-71926663D01*
X81434063Y-71698408D01*
X81454659Y-71463000D01*
X81434063Y-71227592D01*
X81372903Y-70999337D01*
X81273035Y-70785171D01*
X81273034Y-70785169D01*
X81137494Y-70591597D01*
X80970402Y-70424506D01*
X80970396Y-70424501D01*
X80784842Y-70294575D01*
X80741217Y-70239998D01*
X80734023Y-70170500D01*
X80765546Y-70108145D01*
X80784842Y-70091425D01*
X80888501Y-70018842D01*
X80970401Y-69961495D01*
X81137495Y-69794401D01*
X81273035Y-69600830D01*
X81372903Y-69386663D01*
X81434063Y-69158408D01*
X81454659Y-68923000D01*
X81434063Y-68687592D01*
X81372903Y-68459337D01*
X81273035Y-68245171D01*
X81226033Y-68178044D01*
X81137494Y-68051597D01*
X80970402Y-67884506D01*
X80970396Y-67884501D01*
X80784842Y-67754575D01*
X80741217Y-67699998D01*
X80734023Y-67630500D01*
X80765546Y-67568145D01*
X80784842Y-67551425D01*
X80807026Y-67535891D01*
X80970401Y-67421495D01*
X81137495Y-67254401D01*
X81273035Y-67060830D01*
X81372903Y-66846663D01*
X81434063Y-66618408D01*
X81454659Y-66383000D01*
X81434063Y-66147592D01*
X81372903Y-65919337D01*
X81273035Y-65705171D01*
X81262530Y-65690167D01*
X81137494Y-65511597D01*
X80970402Y-65344506D01*
X80970396Y-65344501D01*
X80784842Y-65214575D01*
X80741217Y-65159998D01*
X80734023Y-65090500D01*
X80765546Y-65028145D01*
X80784842Y-65011425D01*
X80807026Y-64995891D01*
X80970401Y-64881495D01*
X81137495Y-64714401D01*
X81273035Y-64520830D01*
X81372903Y-64306663D01*
X81434063Y-64078408D01*
X81454659Y-63843000D01*
X81434063Y-63607592D01*
X81372903Y-63379337D01*
X81273035Y-63165171D01*
X81267425Y-63157158D01*
X81137494Y-62971597D01*
X80970402Y-62804506D01*
X80970396Y-62804501D01*
X80784842Y-62674575D01*
X80741217Y-62619998D01*
X80734023Y-62550500D01*
X80765546Y-62488145D01*
X80784842Y-62471425D01*
X80877737Y-62406379D01*
X80970401Y-62341495D01*
X81137495Y-62174401D01*
X81273035Y-61980830D01*
X81372903Y-61766663D01*
X81434063Y-61538408D01*
X81454659Y-61303000D01*
X81434063Y-61067592D01*
X81372903Y-60839337D01*
X81273035Y-60625171D01*
X81267425Y-60617158D01*
X81137494Y-60431597D01*
X80970402Y-60264506D01*
X80970401Y-60264505D01*
X80784405Y-60134269D01*
X80740781Y-60079692D01*
X80733588Y-60010193D01*
X80765110Y-59947839D01*
X80784405Y-59931119D01*
X80970082Y-59801105D01*
X81137105Y-59634082D01*
X81272600Y-59440578D01*
X81372429Y-59226492D01*
X81372432Y-59226486D01*
X81429636Y-59013000D01*
X80532012Y-59013000D01*
X80564925Y-58955993D01*
X80599000Y-58828826D01*
X80599000Y-58697174D01*
X80564925Y-58570007D01*
X80532012Y-58513000D01*
X81429636Y-58513000D01*
X81429635Y-58512999D01*
X81372432Y-58299513D01*
X81372429Y-58299507D01*
X81272600Y-58085422D01*
X81272599Y-58085420D01*
X81137113Y-57891926D01*
X81137108Y-57891920D01*
X80970078Y-57724890D01*
X80784405Y-57594879D01*
X80740780Y-57540302D01*
X80733588Y-57470804D01*
X80765110Y-57408449D01*
X80784406Y-57391730D01*
X80784842Y-57391425D01*
X80970401Y-57261495D01*
X81137495Y-57094401D01*
X81273035Y-56900830D01*
X81372903Y-56686663D01*
X81434063Y-56458408D01*
X81454659Y-56223000D01*
X81434063Y-55987592D01*
X81372903Y-55759337D01*
X81273035Y-55545171D01*
X81267425Y-55537158D01*
X81137494Y-55351597D01*
X80970402Y-55184506D01*
X80970396Y-55184501D01*
X80784842Y-55054575D01*
X80741217Y-54999998D01*
X80734023Y-54930500D01*
X80765546Y-54868145D01*
X80784842Y-54851425D01*
X80807026Y-54835891D01*
X80970401Y-54721495D01*
X81137495Y-54554401D01*
X81273035Y-54360830D01*
X81372903Y-54146663D01*
X81434063Y-53918408D01*
X81454659Y-53683000D01*
X81434063Y-53447592D01*
X81372903Y-53219337D01*
X81273035Y-53005171D01*
X81269417Y-53000003D01*
X81137494Y-52811597D01*
X80970402Y-52644506D01*
X80970395Y-52644501D01*
X80776834Y-52508967D01*
X80776830Y-52508965D01*
X80752754Y-52497738D01*
X80562663Y-52409097D01*
X80562659Y-52409096D01*
X80562655Y-52409094D01*
X80334413Y-52347938D01*
X80334403Y-52347936D01*
X80099001Y-52327341D01*
X80098999Y-52327341D01*
X79863596Y-52347936D01*
X79863586Y-52347938D01*
X79635344Y-52409094D01*
X79635335Y-52409098D01*
X79421171Y-52508964D01*
X79421169Y-52508965D01*
X79227600Y-52644503D01*
X79105673Y-52766430D01*
X79044350Y-52799914D01*
X78974658Y-52794930D01*
X78918725Y-52753058D01*
X78901810Y-52722081D01*
X78852797Y-52590671D01*
X78852793Y-52590664D01*
X78766547Y-52475455D01*
X78766544Y-52475452D01*
X78651335Y-52389206D01*
X78651328Y-52389202D01*
X78516482Y-52338908D01*
X78516483Y-52338908D01*
X78456883Y-52332501D01*
X78456881Y-52332500D01*
X78456873Y-52332500D01*
X78456864Y-52332500D01*
X76661129Y-52332500D01*
X76661123Y-52332501D01*
X76601516Y-52338908D01*
X76466671Y-52389202D01*
X76466664Y-52389206D01*
X76351455Y-52475452D01*
X76351452Y-52475455D01*
X76265206Y-52590664D01*
X76265202Y-52590671D01*
X76214908Y-52725517D01*
X76208501Y-52785116D01*
X76208500Y-52785135D01*
X76208500Y-54580870D01*
X76208501Y-54580876D01*
X76214908Y-54640483D01*
X76265202Y-54775328D01*
X76265206Y-54775335D01*
X76351452Y-54890544D01*
X76351455Y-54890547D01*
X76466664Y-54976793D01*
X76466671Y-54976797D01*
X76598081Y-55025810D01*
X76654015Y-55067681D01*
X76678432Y-55133145D01*
X76663580Y-55201418D01*
X76642430Y-55229673D01*
X76520503Y-55351600D01*
X76384965Y-55545169D01*
X76384964Y-55545171D01*
X76285098Y-55759335D01*
X76285094Y-55759344D01*
X76223938Y-55987586D01*
X76223936Y-55987596D01*
X76203341Y-56222999D01*
X76203341Y-56223000D01*
X76223936Y-56458403D01*
X76223938Y-56458413D01*
X76285094Y-56686655D01*
X76285096Y-56686659D01*
X76285097Y-56686663D01*
X76289000Y-56695032D01*
X76384965Y-56900830D01*
X76384967Y-56900834D01*
X76464649Y-57014631D01*
X76520501Y-57094396D01*
X76520506Y-57094402D01*
X76687597Y-57261493D01*
X76687603Y-57261498D01*
X76873158Y-57391425D01*
X76916783Y-57446002D01*
X76923977Y-57515500D01*
X76892454Y-57577855D01*
X76873158Y-57594575D01*
X76687597Y-57724505D01*
X76520505Y-57891597D01*
X76384965Y-58085169D01*
X76384964Y-58085171D01*
X76285098Y-58299335D01*
X76285094Y-58299344D01*
X76223938Y-58527586D01*
X76223936Y-58527596D01*
X76203341Y-58762999D01*
X76203341Y-58763000D01*
X76223936Y-58998403D01*
X76223938Y-58998413D01*
X76258327Y-59126756D01*
X76256664Y-59196606D01*
X76226233Y-59246530D01*
X63654647Y-71818116D01*
X63593324Y-71851601D01*
X63523632Y-71846617D01*
X63479285Y-71818116D01*
X63364394Y-71703225D01*
X63364371Y-71703204D01*
X62883683Y-71222516D01*
X62850198Y-71161193D01*
X62848146Y-71148737D01*
X62838351Y-71061796D01*
X62778772Y-70891529D01*
X62682799Y-70738789D01*
X62555245Y-70611235D01*
X62402506Y-70515262D01*
X62232237Y-70455682D01*
X62232232Y-70455681D01*
X62052987Y-70435486D01*
X62052979Y-70435486D01*
X61873733Y-70455681D01*
X61873728Y-70455682D01*
X61703459Y-70515262D01*
X61550720Y-70611235D01*
X61423167Y-70738788D01*
X61327194Y-70891527D01*
X61267614Y-71061796D01*
X61267613Y-71061801D01*
X61247418Y-71241047D01*
X61247418Y-71241054D01*
X61258903Y-71342992D01*
X61246848Y-71411814D01*
X61223365Y-71444555D01*
X61170186Y-71497734D01*
X61074211Y-71650476D01*
X61014631Y-71820745D01*
X61014630Y-71820750D01*
X60994435Y-71999996D01*
X60994435Y-72000003D01*
X61014630Y-72179249D01*
X61014631Y-72179254D01*
X61074211Y-72349523D01*
X61170185Y-72502263D01*
X61172445Y-72505097D01*
X61173334Y-72507275D01*
X61173889Y-72508158D01*
X61173734Y-72508255D01*
X61198855Y-72569783D01*
X61199500Y-72582412D01*
X61199500Y-83316936D01*
X61179815Y-83383975D01*
X61127011Y-83429730D01*
X61057853Y-83439674D01*
X61034547Y-83433978D01*
X60979260Y-83414633D01*
X60979249Y-83414630D01*
X60800004Y-83394435D01*
X60799996Y-83394435D01*
X60620750Y-83414630D01*
X60620745Y-83414631D01*
X60450476Y-83474211D01*
X60297737Y-83570184D01*
X60170184Y-83697737D01*
X60074211Y-83850476D01*
X60014631Y-84020745D01*
X60014630Y-84020750D01*
X59994435Y-84199996D01*
X59994435Y-84200003D01*
X60014630Y-84379249D01*
X60014631Y-84379254D01*
X60074211Y-84549523D01*
X60170185Y-84702263D01*
X60172445Y-84705097D01*
X60173334Y-84707275D01*
X60173889Y-84708158D01*
X60173734Y-84708255D01*
X60198855Y-84769783D01*
X60199500Y-84782412D01*
X60199500Y-86713330D01*
X60199499Y-86713348D01*
X60199499Y-86879054D01*
X60199498Y-86879054D01*
X60240424Y-87031789D01*
X60240425Y-87031790D01*
X60261425Y-87068162D01*
X60261426Y-87068164D01*
X60319475Y-87168709D01*
X60319481Y-87168717D01*
X60438349Y-87287585D01*
X60438355Y-87287590D01*
X60969298Y-87818533D01*
X61002783Y-87879856D01*
X61004837Y-87892330D01*
X61014630Y-87979249D01*
X61074210Y-88149521D01*
X61147200Y-88265683D01*
X61170184Y-88302262D01*
X61297738Y-88429816D01*
X61450478Y-88525789D01*
X61540125Y-88557158D01*
X61541629Y-88557684D01*
X61598405Y-88598406D01*
X61624153Y-88663358D01*
X61610697Y-88731920D01*
X61588356Y-88762407D01*
X60581465Y-89769298D01*
X60520142Y-89802783D01*
X60507668Y-89804837D01*
X60420750Y-89814630D01*
X60250477Y-89874210D01*
X60091916Y-89973841D01*
X60024679Y-89992841D01*
X59957844Y-89972473D01*
X59938263Y-89956528D01*
X56667443Y-86685708D01*
X56633958Y-86624385D01*
X56631766Y-86585423D01*
X56632999Y-86573350D01*
X56633000Y-86573345D01*
X56632999Y-86026656D01*
X56632847Y-86025171D01*
X56622849Y-85927292D01*
X56622848Y-85927289D01*
X56599264Y-85856116D01*
X56569503Y-85766303D01*
X56504521Y-85660952D01*
X56486081Y-85593561D01*
X56506959Y-85526964D01*
X56524822Y-85500231D01*
X56596473Y-85327251D01*
X56633000Y-85143616D01*
X56633000Y-84956384D01*
X56596473Y-84772749D01*
X56524822Y-84599769D01*
X56524821Y-84599768D01*
X56524818Y-84599762D01*
X56454077Y-84493891D01*
X56433199Y-84427213D01*
X56451683Y-84359833D01*
X56454077Y-84356109D01*
X56524818Y-84250237D01*
X56524818Y-84250236D01*
X56524822Y-84250231D01*
X56596473Y-84077251D01*
X56633000Y-83893616D01*
X56633000Y-83706384D01*
X56596473Y-83522749D01*
X56524822Y-83349769D01*
X56524821Y-83349768D01*
X56524818Y-83349762D01*
X56454077Y-83243891D01*
X56433199Y-83177213D01*
X56451683Y-83109833D01*
X56454077Y-83106109D01*
X56524818Y-83000237D01*
X56524818Y-83000236D01*
X56524822Y-83000231D01*
X56596473Y-82827251D01*
X56633000Y-82643616D01*
X56633000Y-82456384D01*
X56596473Y-82272749D01*
X56524822Y-82099769D01*
X56524821Y-82099768D01*
X56524818Y-82099762D01*
X56454077Y-81993891D01*
X56433199Y-81927213D01*
X56451683Y-81859833D01*
X56454077Y-81856109D01*
X56524818Y-81750237D01*
X56524818Y-81750236D01*
X56524822Y-81750231D01*
X56596473Y-81577251D01*
X56633000Y-81393616D01*
X56633000Y-81206384D01*
X56596473Y-81022749D01*
X56524822Y-80849769D01*
X56524821Y-80849768D01*
X56524818Y-80849762D01*
X56420802Y-80694092D01*
X56420799Y-80694088D01*
X56288411Y-80561700D01*
X56288407Y-80561697D01*
X56132737Y-80457681D01*
X56132728Y-80457676D01*
X55959751Y-80386027D01*
X55959743Y-80386025D01*
X55776120Y-80349500D01*
X55776116Y-80349500D01*
X55088884Y-80349500D01*
X55088879Y-80349500D01*
X54905256Y-80386025D01*
X54905248Y-80386027D01*
X54804453Y-80427778D01*
X54734983Y-80435247D01*
X54672504Y-80403972D01*
X54636852Y-80343883D01*
X54633000Y-80313217D01*
X54633000Y-77953486D01*
X54652685Y-77886447D01*
X54705489Y-77840692D01*
X54774647Y-77830748D01*
X54796006Y-77835781D01*
X54809368Y-77840208D01*
X54809792Y-77840349D01*
X54909155Y-77850500D01*
X55955844Y-77850499D01*
X55955852Y-77850498D01*
X55955855Y-77850498D01*
X56010260Y-77844940D01*
X56055208Y-77840349D01*
X56216197Y-77787003D01*
X56360544Y-77697968D01*
X56480468Y-77578044D01*
X56569503Y-77433697D01*
X56622849Y-77272708D01*
X56633000Y-77173345D01*
X56632999Y-76626656D01*
X56624453Y-76542999D01*
X56622849Y-76527292D01*
X56622848Y-76527289D01*
X56569503Y-76366303D01*
X56504521Y-76260952D01*
X56486081Y-76193561D01*
X56506959Y-76126964D01*
X56524822Y-76100231D01*
X56596473Y-75927251D01*
X56633000Y-75743616D01*
X56633000Y-75556384D01*
X56596473Y-75372749D01*
X56524822Y-75199769D01*
X56524821Y-75199768D01*
X56524818Y-75199762D01*
X56454077Y-75093891D01*
X56433199Y-75027213D01*
X56451683Y-74959833D01*
X56454077Y-74956109D01*
X56524818Y-74850237D01*
X56524818Y-74850236D01*
X56524822Y-74850231D01*
X56596473Y-74677251D01*
X56633000Y-74493616D01*
X56633000Y-74306384D01*
X56596473Y-74122749D01*
X56524822Y-73949769D01*
X56524821Y-73949768D01*
X56524818Y-73949762D01*
X56454077Y-73843891D01*
X56433199Y-73777213D01*
X56451683Y-73709833D01*
X56454077Y-73706109D01*
X56524818Y-73600237D01*
X56524818Y-73600236D01*
X56524822Y-73600231D01*
X56596473Y-73427251D01*
X56633000Y-73243616D01*
X56633000Y-73056384D01*
X56596473Y-72872749D01*
X56524822Y-72699769D01*
X56524821Y-72699768D01*
X56524818Y-72699762D01*
X56454077Y-72593891D01*
X56433199Y-72527213D01*
X56451683Y-72459833D01*
X56454077Y-72456109D01*
X56524818Y-72350237D01*
X56524818Y-72350236D01*
X56524822Y-72350231D01*
X56596473Y-72177251D01*
X56633000Y-71993616D01*
X56633000Y-71806384D01*
X56596473Y-71622749D01*
X56541054Y-71488956D01*
X56524823Y-71449771D01*
X56524818Y-71449762D01*
X56420802Y-71294092D01*
X56420799Y-71294088D01*
X56288411Y-71161700D01*
X56288407Y-71161697D01*
X56132737Y-71057681D01*
X56132728Y-71057676D01*
X55959751Y-70986027D01*
X55959743Y-70986025D01*
X55776120Y-70949500D01*
X55776116Y-70949500D01*
X55500559Y-70949500D01*
X55433520Y-70929815D01*
X55387765Y-70877011D01*
X55377821Y-70807853D01*
X55383517Y-70784546D01*
X55385367Y-70779257D01*
X55385368Y-70779255D01*
X55385369Y-70779249D01*
X55405565Y-70600003D01*
X55405565Y-70599996D01*
X55385369Y-70420750D01*
X55385368Y-70420745D01*
X55339256Y-70288965D01*
X55325789Y-70250478D01*
X55324995Y-70249215D01*
X55229815Y-70097737D01*
X55102262Y-69970184D01*
X54949523Y-69874211D01*
X54779254Y-69814631D01*
X54779249Y-69814630D01*
X54600004Y-69794435D01*
X54599996Y-69794435D01*
X54420750Y-69814630D01*
X54420745Y-69814631D01*
X54250476Y-69874211D01*
X54097737Y-69970184D01*
X53970184Y-70097737D01*
X53874210Y-70250478D01*
X53814630Y-70420750D01*
X53804837Y-70507668D01*
X53777770Y-70572082D01*
X53769299Y-70581465D01*
X53663786Y-70686978D01*
X53551981Y-70798782D01*
X53551980Y-70798784D01*
X53522122Y-70850500D01*
X53472923Y-70935715D01*
X53431999Y-71088443D01*
X53431999Y-71088445D01*
X53431999Y-71256546D01*
X53432000Y-71256559D01*
X53432000Y-97145830D01*
X53431999Y-97145848D01*
X53431999Y-97311554D01*
X53431998Y-97311554D01*
X50500500Y-97311554D01*
X50500500Y-62406379D01*
X54232000Y-62406379D01*
X54232000Y-62593620D01*
X54268525Y-62777243D01*
X54268527Y-62777251D01*
X54340176Y-62950228D01*
X54340180Y-62950235D01*
X54410923Y-63056110D01*
X54431800Y-63122787D01*
X54413315Y-63190167D01*
X54410923Y-63193890D01*
X54340180Y-63299764D01*
X54340176Y-63299771D01*
X54268527Y-63472748D01*
X54268525Y-63472756D01*
X54232000Y-63656379D01*
X54232000Y-63843620D01*
X54268525Y-64027243D01*
X54268527Y-64027251D01*
X54340176Y-64200228D01*
X54340180Y-64200235D01*
X54410923Y-64306110D01*
X54431800Y-64372787D01*
X54413315Y-64440167D01*
X54410923Y-64443890D01*
X54340180Y-64549764D01*
X54340176Y-64549771D01*
X54268527Y-64722748D01*
X54268525Y-64722756D01*
X54232000Y-64906379D01*
X54232000Y-65093620D01*
X54268525Y-65277243D01*
X54268527Y-65277251D01*
X54340176Y-65450228D01*
X54340180Y-65450235D01*
X54410923Y-65556110D01*
X54431800Y-65622787D01*
X54413315Y-65690167D01*
X54410923Y-65693890D01*
X54340180Y-65799764D01*
X54340176Y-65799771D01*
X54268527Y-65972748D01*
X54268525Y-65972756D01*
X54232000Y-66156379D01*
X54232000Y-66343620D01*
X54268525Y-66527243D01*
X54268527Y-66527251D01*
X54340177Y-66700230D01*
X54358041Y-66726965D01*
X54378919Y-66793643D01*
X54360478Y-66860953D01*
X54295498Y-66966300D01*
X54295496Y-66966305D01*
X54242151Y-67127290D01*
X54232000Y-67226647D01*
X54232000Y-67773337D01*
X54232001Y-67773355D01*
X54242150Y-67872707D01*
X54242151Y-67872710D01*
X54295496Y-68033694D01*
X54295501Y-68033705D01*
X54384529Y-68178040D01*
X54384532Y-68178044D01*
X54504455Y-68297967D01*
X54504459Y-68297970D01*
X54648794Y-68386998D01*
X54648797Y-68386999D01*
X54648803Y-68387003D01*
X54809792Y-68440349D01*
X54909155Y-68450500D01*
X55955844Y-68450499D01*
X55955852Y-68450498D01*
X55955855Y-68450498D01*
X56034346Y-68442480D01*
X56055208Y-68440349D01*
X56216197Y-68387003D01*
X56360544Y-68297968D01*
X56480468Y-68178044D01*
X56569503Y-68033697D01*
X56622849Y-67872708D01*
X56633000Y-67773345D01*
X56632999Y-67226656D01*
X56622849Y-67127292D01*
X56569503Y-66966303D01*
X56504521Y-66860952D01*
X56486081Y-66793561D01*
X56506959Y-66726964D01*
X56524822Y-66700231D01*
X56596473Y-66527251D01*
X56633000Y-66343616D01*
X56633000Y-66156384D01*
X56596473Y-65972749D01*
X56524822Y-65799769D01*
X56524819Y-65799764D01*
X56524818Y-65799762D01*
X56454077Y-65693891D01*
X56433199Y-65627213D01*
X56451683Y-65559833D01*
X56454077Y-65556109D01*
X56524818Y-65450237D01*
X56524819Y-65450235D01*
X56524822Y-65450231D01*
X56596473Y-65277251D01*
X56633000Y-65093616D01*
X56633000Y-64906384D01*
X56596473Y-64722749D01*
X56524822Y-64549769D01*
X56524819Y-64549764D01*
X56524818Y-64549762D01*
X56454077Y-64443891D01*
X56433199Y-64377213D01*
X56451683Y-64309833D01*
X56454077Y-64306109D01*
X56524818Y-64200237D01*
X56524819Y-64200235D01*
X56524822Y-64200231D01*
X56596473Y-64027251D01*
X56633000Y-63843616D01*
X56633000Y-63656384D01*
X56596473Y-63472749D01*
X56524822Y-63299769D01*
X56524819Y-63299764D01*
X56524818Y-63299762D01*
X56454077Y-63193891D01*
X56433199Y-63127213D01*
X56451683Y-63059833D01*
X56454077Y-63056109D01*
X56524818Y-62950237D01*
X56524819Y-62950235D01*
X56524822Y-62950231D01*
X56596473Y-62777251D01*
X56633000Y-62593616D01*
X56633000Y-62406384D01*
X56596473Y-62222749D01*
X56524822Y-62049769D01*
X56524821Y-62049768D01*
X56524818Y-62049762D01*
X56420802Y-61894092D01*
X56420799Y-61894088D01*
X56288411Y-61761700D01*
X56288407Y-61761697D01*
X56132737Y-61657681D01*
X56132728Y-61657676D01*
X55959751Y-61586027D01*
X55959743Y-61586025D01*
X55776120Y-61549500D01*
X55776116Y-61549500D01*
X55088884Y-61549500D01*
X55088879Y-61549500D01*
X54905256Y-61586025D01*
X54905248Y-61586027D01*
X54732271Y-61657676D01*
X54732262Y-61657681D01*
X54576592Y-61761697D01*
X54576588Y-61761700D01*
X54444200Y-61894088D01*
X54444197Y-61894092D01*
X54340181Y-62049762D01*
X54340176Y-62049771D01*
X54268527Y-62222748D01*
X54268525Y-62222756D01*
X54232000Y-62406379D01*
X50500500Y-62406379D01*
X50500500Y-54945186D01*
X52679500Y-54945186D01*
X52679500Y-55214813D01*
X52709686Y-55482719D01*
X52709688Y-55482731D01*
X52769684Y-55745594D01*
X52769687Y-55745602D01*
X52858734Y-56000082D01*
X52975714Y-56242994D01*
X52975716Y-56242997D01*
X53119162Y-56471289D01*
X53287266Y-56682085D01*
X53477915Y-56872734D01*
X53688711Y-57040838D01*
X53917003Y-57184284D01*
X54159921Y-57301267D01*
X54351049Y-57368145D01*
X54414397Y-57390312D01*
X54414405Y-57390315D01*
X54414408Y-57390315D01*
X54414409Y-57390316D01*
X54677268Y-57450312D01*
X54945187Y-57480499D01*
X54945188Y-57480500D01*
X54945191Y-57480500D01*
X55214812Y-57480500D01*
X55214812Y-57480499D01*
X55482732Y-57450312D01*
X55745591Y-57390316D01*
X56000079Y-57301267D01*
X56242997Y-57184284D01*
X56471289Y-57040838D01*
X56682085Y-56872734D01*
X56872734Y-56682085D01*
X57040838Y-56471289D01*
X57184284Y-56242997D01*
X57193915Y-56222999D01*
X63503341Y-56222999D01*
X63503341Y-56223000D01*
X63523936Y-56458403D01*
X63523938Y-56458413D01*
X63585094Y-56686655D01*
X63585096Y-56686659D01*
X63585097Y-56686663D01*
X63589000Y-56695032D01*
X63684965Y-56900830D01*
X63684967Y-56900834D01*
X63764649Y-57014631D01*
X63820501Y-57094396D01*
X63820506Y-57094402D01*
X63987597Y-57261493D01*
X63987603Y-57261498D01*
X64173158Y-57391425D01*
X64216783Y-57446002D01*
X64223977Y-57515500D01*
X64192454Y-57577855D01*
X64173158Y-57594575D01*
X63987597Y-57724505D01*
X63820505Y-57891597D01*
X63684965Y-58085169D01*
X63684964Y-58085171D01*
X63585098Y-58299335D01*
X63585094Y-58299344D01*
X63523938Y-58527586D01*
X63523936Y-58527596D01*
X63503341Y-58762999D01*
X63503341Y-58763000D01*
X63523936Y-58998403D01*
X63523938Y-58998413D01*
X63585094Y-59226655D01*
X63585096Y-59226659D01*
X63585097Y-59226663D01*
X63665004Y-59398023D01*
X63684965Y-59440830D01*
X63684967Y-59440834D01*
X63793281Y-59595521D01*
X63820501Y-59634396D01*
X63820506Y-59634402D01*
X63987597Y-59801493D01*
X63987603Y-59801498D01*
X64173158Y-59931425D01*
X64216783Y-59986002D01*
X64223977Y-60055500D01*
X64192454Y-60117855D01*
X64173158Y-60134575D01*
X63987597Y-60264505D01*
X63820505Y-60431597D01*
X63684965Y-60625169D01*
X63684964Y-60625171D01*
X63585098Y-60839335D01*
X63585094Y-60839344D01*
X63523938Y-61067586D01*
X63523936Y-61067596D01*
X63503341Y-61302999D01*
X63503341Y-61303000D01*
X63523936Y-61538403D01*
X63523938Y-61538413D01*
X63585094Y-61766655D01*
X63585096Y-61766659D01*
X63585097Y-61766663D01*
X63665004Y-61938023D01*
X63684965Y-61980830D01*
X63684967Y-61980834D01*
X63733238Y-62049771D01*
X63820501Y-62174396D01*
X63820506Y-62174402D01*
X63987597Y-62341493D01*
X63987603Y-62341498D01*
X64173158Y-62471425D01*
X64216783Y-62526002D01*
X64223977Y-62595500D01*
X64192454Y-62657855D01*
X64173158Y-62674575D01*
X63987597Y-62804505D01*
X63820505Y-62971597D01*
X63684965Y-63165169D01*
X63684964Y-63165171D01*
X63585098Y-63379335D01*
X63585094Y-63379344D01*
X63523938Y-63607586D01*
X63523936Y-63607596D01*
X63503341Y-63842999D01*
X63503341Y-63843000D01*
X63523936Y-64078403D01*
X63523938Y-64078413D01*
X63585094Y-64306655D01*
X63585096Y-64306659D01*
X63585097Y-64306663D01*
X63617995Y-64377213D01*
X63684965Y-64520830D01*
X63684967Y-64520834D01*
X63763157Y-64632500D01*
X63820505Y-64714401D01*
X63987599Y-64881495D01*
X64084384Y-64949265D01*
X64181165Y-65017032D01*
X64181167Y-65017033D01*
X64181170Y-65017035D01*
X64395337Y-65116903D01*
X64623592Y-65178063D01*
X64811918Y-65194539D01*
X64858999Y-65198659D01*
X64859000Y-65198659D01*
X64859001Y-65198659D01*
X64898234Y-65195226D01*
X65094408Y-65178063D01*
X65322663Y-65116903D01*
X65536830Y-65017035D01*
X65730401Y-64881495D01*
X65897495Y-64714401D01*
X66027425Y-64528842D01*
X66082002Y-64485217D01*
X66151500Y-64478023D01*
X66213855Y-64509546D01*
X66230575Y-64528842D01*
X66360500Y-64714395D01*
X66360505Y-64714401D01*
X66527599Y-64881495D01*
X66624384Y-64949265D01*
X66721165Y-65017032D01*
X66721167Y-65017033D01*
X66721170Y-65017035D01*
X66935337Y-65116903D01*
X67163592Y-65178063D01*
X67351918Y-65194539D01*
X67398999Y-65198659D01*
X67399000Y-65198659D01*
X67399001Y-65198659D01*
X67438234Y-65195226D01*
X67634408Y-65178063D01*
X67862663Y-65116903D01*
X68076830Y-65017035D01*
X68270401Y-64881495D01*
X68437495Y-64714401D01*
X68573035Y-64520830D01*
X68672903Y-64306663D01*
X68734063Y-64078408D01*
X68754659Y-63843000D01*
X68734063Y-63607592D01*
X68672903Y-63379337D01*
X68573035Y-63165171D01*
X68567425Y-63157158D01*
X68437494Y-62971597D01*
X68270402Y-62804506D01*
X68270396Y-62804501D01*
X68084842Y-62674575D01*
X68041217Y-62619998D01*
X68034023Y-62550500D01*
X68065546Y-62488145D01*
X68084842Y-62471425D01*
X68177737Y-62406379D01*
X68270401Y-62341495D01*
X68437495Y-62174401D01*
X68573035Y-61980830D01*
X68672903Y-61766663D01*
X68734063Y-61538408D01*
X68754659Y-61303000D01*
X68734063Y-61067592D01*
X68672903Y-60839337D01*
X68573035Y-60625171D01*
X68567425Y-60617158D01*
X68437494Y-60431597D01*
X68270402Y-60264506D01*
X68270396Y-60264501D01*
X68084842Y-60134575D01*
X68041217Y-60079998D01*
X68034023Y-60010500D01*
X68065546Y-59948145D01*
X68084842Y-59931425D01*
X68107026Y-59915891D01*
X68270401Y-59801495D01*
X68437495Y-59634401D01*
X68573035Y-59440830D01*
X68672903Y-59226663D01*
X68734063Y-58998408D01*
X68754659Y-58763000D01*
X68734063Y-58527592D01*
X68672903Y-58299337D01*
X68573035Y-58085171D01*
X68567731Y-58077595D01*
X68437494Y-57891597D01*
X68345892Y-57799996D01*
X70694435Y-57799996D01*
X70694435Y-57800003D01*
X70714630Y-57979249D01*
X70714631Y-57979254D01*
X70774211Y-58149523D01*
X70845514Y-58263000D01*
X70870184Y-58302262D01*
X70997738Y-58429816D01*
X71060753Y-58469411D01*
X71147958Y-58524206D01*
X71150478Y-58525789D01*
X71276846Y-58570007D01*
X71320745Y-58585368D01*
X71320750Y-58585369D01*
X71499996Y-58605565D01*
X71500000Y-58605565D01*
X71500004Y-58605565D01*
X71679249Y-58585369D01*
X71679252Y-58585368D01*
X71679255Y-58585368D01*
X71849522Y-58525789D01*
X71852042Y-58524206D01*
X71909007Y-58488412D01*
X71976244Y-58469411D01*
X72040953Y-58488412D01*
X72100435Y-58525788D01*
X72270705Y-58585368D01*
X72270710Y-58585369D01*
X72449956Y-58605565D01*
X72449960Y-58605565D01*
X72449964Y-58605565D01*
X72629209Y-58585369D01*
X72629212Y-58585368D01*
X72629215Y-58585368D01*
X72799482Y-58525789D01*
X72952222Y-58429816D01*
X73079776Y-58302262D01*
X73175749Y-58149522D01*
X73235328Y-57979255D01*
X73245168Y-57891922D01*
X73255525Y-57800003D01*
X73255525Y-57799996D01*
X73235329Y-57620750D01*
X73235328Y-57620745D01*
X73175748Y-57450476D01*
X73079775Y-57297737D01*
X72952222Y-57170184D01*
X72799483Y-57074211D01*
X72629214Y-57014631D01*
X72629209Y-57014630D01*
X72449964Y-56994435D01*
X72449956Y-56994435D01*
X72270710Y-57014630D01*
X72270697Y-57014633D01*
X72100439Y-57074209D01*
X72040951Y-57111588D01*
X71973714Y-57130588D01*
X71909009Y-57111588D01*
X71849520Y-57074209D01*
X71679262Y-57014633D01*
X71679249Y-57014630D01*
X71500004Y-56994435D01*
X71499996Y-56994435D01*
X71320750Y-57014630D01*
X71320745Y-57014631D01*
X71150476Y-57074211D01*
X70997737Y-57170184D01*
X70870184Y-57297737D01*
X70774211Y-57450476D01*
X70714631Y-57620745D01*
X70714630Y-57620750D01*
X70694435Y-57799996D01*
X68345892Y-57799996D01*
X68270402Y-57724506D01*
X68270396Y-57724501D01*
X68084842Y-57594575D01*
X68041217Y-57539998D01*
X68034023Y-57470500D01*
X68065546Y-57408145D01*
X68084842Y-57391425D01*
X68107026Y-57375891D01*
X68270401Y-57261495D01*
X68437495Y-57094401D01*
X68573035Y-56900830D01*
X68672903Y-56686663D01*
X68734063Y-56458408D01*
X68754659Y-56223000D01*
X68734063Y-55987592D01*
X68672903Y-55759337D01*
X68573035Y-55545171D01*
X68567425Y-55537158D01*
X68437494Y-55351597D01*
X68270402Y-55184506D01*
X68270396Y-55184501D01*
X68084842Y-55054575D01*
X68041217Y-54999998D01*
X68034023Y-54930500D01*
X68065546Y-54868145D01*
X68084842Y-54851425D01*
X68107026Y-54835891D01*
X68270401Y-54721495D01*
X68437495Y-54554401D01*
X68573035Y-54360830D01*
X68672903Y-54146663D01*
X68734063Y-53918408D01*
X68754659Y-53683000D01*
X68734063Y-53447592D01*
X68672903Y-53219337D01*
X68573035Y-53005171D01*
X68569417Y-53000003D01*
X68569412Y-52999996D01*
X70694435Y-52999996D01*
X70694435Y-53000003D01*
X70714630Y-53179249D01*
X70714631Y-53179254D01*
X70774211Y-53349523D01*
X70835835Y-53447596D01*
X70870184Y-53502262D01*
X70997738Y-53629816D01*
X71150478Y-53725789D01*
X71320745Y-53785368D01*
X71320750Y-53785369D01*
X71499996Y-53805565D01*
X71500000Y-53805565D01*
X71500004Y-53805565D01*
X71679249Y-53785369D01*
X71679252Y-53785368D01*
X71679255Y-53785368D01*
X71849522Y-53725789D01*
X71908530Y-53688712D01*
X71909007Y-53688412D01*
X71976244Y-53669411D01*
X72040953Y-53688412D01*
X72100435Y-53725788D01*
X72270705Y-53785368D01*
X72270710Y-53785369D01*
X72449956Y-53805565D01*
X72449960Y-53805565D01*
X72449964Y-53805565D01*
X72629209Y-53785369D01*
X72629212Y-53785368D01*
X72629215Y-53785368D01*
X72799482Y-53725789D01*
X72952222Y-53629816D01*
X73079776Y-53502262D01*
X73175749Y-53349522D01*
X73235328Y-53179255D01*
X73242099Y-53119161D01*
X73255525Y-53000003D01*
X73255525Y-52999996D01*
X73235329Y-52820750D01*
X73235328Y-52820745D01*
X73226295Y-52794930D01*
X73175749Y-52650478D01*
X73171993Y-52644501D01*
X73136542Y-52588080D01*
X73079776Y-52497738D01*
X72952222Y-52370184D01*
X72892250Y-52332501D01*
X72799483Y-52274211D01*
X72629214Y-52214631D01*
X72629209Y-52214630D01*
X72449964Y-52194435D01*
X72449956Y-52194435D01*
X72270710Y-52214630D01*
X72270697Y-52214633D01*
X72100439Y-52274209D01*
X72040951Y-52311588D01*
X71973714Y-52330588D01*
X71909009Y-52311588D01*
X71849520Y-52274209D01*
X71679262Y-52214633D01*
X71679249Y-52214630D01*
X71500004Y-52194435D01*
X71499996Y-52194435D01*
X71320750Y-52214630D01*
X71320745Y-52214631D01*
X71150476Y-52274211D01*
X70997737Y-52370184D01*
X70870184Y-52497737D01*
X70774211Y-52650476D01*
X70714631Y-52820745D01*
X70714630Y-52820750D01*
X70694435Y-52999996D01*
X68569412Y-52999996D01*
X68437494Y-52811597D01*
X68270402Y-52644506D01*
X68270395Y-52644501D01*
X68076834Y-52508967D01*
X68076830Y-52508965D01*
X68052754Y-52497738D01*
X67862663Y-52409097D01*
X67862659Y-52409096D01*
X67862655Y-52409094D01*
X67634413Y-52347938D01*
X67634403Y-52347936D01*
X67399001Y-52327341D01*
X67398999Y-52327341D01*
X67163596Y-52347936D01*
X67163586Y-52347938D01*
X66935344Y-52409094D01*
X66935335Y-52409098D01*
X66721171Y-52508964D01*
X66721169Y-52508965D01*
X66527600Y-52644503D01*
X66405673Y-52766430D01*
X66344350Y-52799914D01*
X66274658Y-52794930D01*
X66218725Y-52753058D01*
X66201810Y-52722081D01*
X66152797Y-52590671D01*
X66152793Y-52590664D01*
X66066547Y-52475455D01*
X66066544Y-52475452D01*
X65951335Y-52389206D01*
X65951328Y-52389202D01*
X65816482Y-52338908D01*
X65816483Y-52338908D01*
X65756883Y-52332501D01*
X65756881Y-52332500D01*
X65756873Y-52332500D01*
X65756864Y-52332500D01*
X63961129Y-52332500D01*
X63961123Y-52332501D01*
X63901516Y-52338908D01*
X63766671Y-52389202D01*
X63766664Y-52389206D01*
X63651455Y-52475452D01*
X63651452Y-52475455D01*
X63565206Y-52590664D01*
X63565202Y-52590671D01*
X63514908Y-52725517D01*
X63508501Y-52785116D01*
X63508500Y-52785135D01*
X63508500Y-54580870D01*
X63508501Y-54580876D01*
X63514908Y-54640483D01*
X63565202Y-54775328D01*
X63565206Y-54775335D01*
X63651452Y-54890544D01*
X63651455Y-54890547D01*
X63766664Y-54976793D01*
X63766671Y-54976797D01*
X63898081Y-55025810D01*
X63954015Y-55067681D01*
X63978432Y-55133145D01*
X63963580Y-55201418D01*
X63942430Y-55229673D01*
X63820503Y-55351600D01*
X63684965Y-55545169D01*
X63684964Y-55545171D01*
X63585098Y-55759335D01*
X63585094Y-55759344D01*
X63523938Y-55987586D01*
X63523936Y-55987596D01*
X63503341Y-56222999D01*
X57193915Y-56222999D01*
X57301267Y-56000079D01*
X57390316Y-55745591D01*
X57450312Y-55482732D01*
X57480500Y-55214809D01*
X57480500Y-54945191D01*
X57450312Y-54677268D01*
X57390316Y-54414409D01*
X57301267Y-54159921D01*
X57184284Y-53917003D01*
X57040838Y-53688711D01*
X56872734Y-53477915D01*
X56682085Y-53287266D01*
X56471289Y-53119162D01*
X56242997Y-52975716D01*
X56242994Y-52975714D01*
X56000082Y-52858734D01*
X55745602Y-52769687D01*
X55745594Y-52769684D01*
X55537029Y-52722081D01*
X55482732Y-52709688D01*
X55482728Y-52709687D01*
X55482719Y-52709686D01*
X55214813Y-52679500D01*
X55214809Y-52679500D01*
X54945191Y-52679500D01*
X54945186Y-52679500D01*
X54677280Y-52709686D01*
X54677268Y-52709688D01*
X54414405Y-52769684D01*
X54414397Y-52769687D01*
X54159917Y-52858734D01*
X53917005Y-52975714D01*
X53688712Y-53119161D01*
X53477915Y-53287265D01*
X53287265Y-53477915D01*
X53119161Y-53688712D01*
X52975714Y-53917005D01*
X52858734Y-54159917D01*
X52769687Y-54414397D01*
X52769684Y-54414405D01*
X52709688Y-54677268D01*
X52709686Y-54677280D01*
X52679500Y-54945186D01*
X50500500Y-54945186D01*
X50500500Y-50624500D01*
X50520185Y-50557461D01*
X50572989Y-50511706D01*
X50624500Y-50500500D01*
X87425900Y-50500500D01*
X87492939Y-50520185D01*
G37*
%TD.AperFunction*%
%TD*%
M02*
