%TF.GenerationSoftware,KiCad,Pcbnew,8.0.7*%
%TF.CreationDate,2025-01-23T07:49:24-08:00*%
%TF.ProjectId,plex-loader,706c6578-2d6c-46f6-9164-65722e6b6963,rev?*%
%TF.SameCoordinates,Original*%
%TF.FileFunction,Paste,Top*%
%TF.FilePolarity,Positive*%
%FSLAX46Y46*%
G04 Gerber Fmt 4.6, Leading zero omitted, Abs format (unit mm)*
G04 Created by KiCad (PCBNEW 8.0.7) date 2025-01-23 07:49:24*
%MOMM*%
%LPD*%
G01*
G04 APERTURE LIST*
G04 Aperture macros list*
%AMRoundRect*
0 Rectangle with rounded corners*
0 $1 Rounding radius*
0 $2 $3 $4 $5 $6 $7 $8 $9 X,Y pos of 4 corners*
0 Add a 4 corners polygon primitive as box body*
4,1,4,$2,$3,$4,$5,$6,$7,$8,$9,$2,$3,0*
0 Add four circle primitives for the rounded corners*
1,1,$1+$1,$2,$3*
1,1,$1+$1,$4,$5*
1,1,$1+$1,$6,$7*
1,1,$1+$1,$8,$9*
0 Add four rect primitives between the rounded corners*
20,1,$1+$1,$2,$3,$4,$5,0*
20,1,$1+$1,$4,$5,$6,$7,0*
20,1,$1+$1,$6,$7,$8,$9,0*
20,1,$1+$1,$8,$9,$2,$3,0*%
G04 Aperture macros list end*
%ADD10RoundRect,0.140000X-0.170000X0.140000X-0.170000X-0.140000X0.170000X-0.140000X0.170000X0.140000X0*%
%ADD11RoundRect,0.200000X0.275000X-0.200000X0.275000X0.200000X-0.275000X0.200000X-0.275000X-0.200000X0*%
%ADD12RoundRect,0.243750X0.456250X-0.243750X0.456250X0.243750X-0.456250X0.243750X-0.456250X-0.243750X0*%
%ADD13RoundRect,0.243750X-0.456250X0.243750X-0.456250X-0.243750X0.456250X-0.243750X0.456250X0.243750X0*%
%ADD14R,1.405599X0.350800*%
%ADD15R,0.508000X0.990600*%
%ADD16RoundRect,0.200000X-0.200000X-0.275000X0.200000X-0.275000X0.200000X0.275000X-0.200000X0.275000X0*%
%ADD17RoundRect,0.200000X-0.275000X0.200000X-0.275000X-0.200000X0.275000X-0.200000X0.275000X0.200000X0*%
%ADD18RoundRect,0.200000X0.200000X0.275000X-0.200000X0.275000X-0.200000X-0.275000X0.200000X-0.275000X0*%
G04 APERTURE END LIST*
D10*
%TO.C,C3*%
X71547199Y-96245001D03*
X71547199Y-97205001D03*
%TD*%
D11*
%TO.C,R13*%
X58500000Y-73298750D03*
X58500000Y-71648750D03*
%TD*%
%TO.C,R11*%
X58500000Y-110898750D03*
X58500000Y-109248750D03*
%TD*%
D12*
%TO.C,D3*%
X58500000Y-67623750D03*
X58500000Y-65748750D03*
%TD*%
%TO.C,D2*%
X58500000Y-114623750D03*
X58500000Y-112748750D03*
%TD*%
D13*
%TO.C,D8*%
X78831500Y-105850000D03*
X78831500Y-107725000D03*
%TD*%
D14*
%TO.C,U1*%
X63547199Y-71225001D03*
X63547199Y-71874999D03*
X63547199Y-72525001D03*
X63547199Y-73174999D03*
X63547199Y-73824998D03*
X63547199Y-74474999D03*
X63547199Y-75124998D03*
X63547199Y-75774999D03*
X69452801Y-75774999D03*
X69452801Y-75125001D03*
X69452801Y-74474999D03*
X69452801Y-73825001D03*
X69452801Y-73175002D03*
X69452801Y-72525001D03*
X69452801Y-71875002D03*
X69452801Y-71225001D03*
%TD*%
D12*
%TO.C,D7*%
X58500000Y-105223750D03*
X58500000Y-103348750D03*
%TD*%
D15*
%TO.C,U5*%
X71500000Y-58500000D03*
X72449960Y-58500000D03*
X73399920Y-58500000D03*
X73399920Y-55807600D03*
X72449960Y-55807600D03*
X71500000Y-55807600D03*
%TD*%
D16*
%TO.C,R8*%
X68722199Y-89725001D03*
X70372199Y-89725001D03*
%TD*%
D17*
%TO.C,R18*%
X76331500Y-109500000D03*
X76331500Y-111150000D03*
%TD*%
D16*
%TO.C,R9*%
X68675000Y-77725001D03*
X70325000Y-77725001D03*
%TD*%
D13*
%TO.C,D1*%
X81331500Y-105850000D03*
X81331500Y-107725000D03*
%TD*%
D12*
%TO.C,D6*%
X58500000Y-95823750D03*
X58500000Y-93948750D03*
%TD*%
D16*
%TO.C,R7*%
X68850000Y-101725001D03*
X70500000Y-101725001D03*
%TD*%
D11*
%TO.C,R16*%
X58500000Y-101498750D03*
X58500000Y-99848750D03*
%TD*%
D18*
%TO.C,R3*%
X73274960Y-53500000D03*
X71624960Y-53500000D03*
%TD*%
D13*
%TO.C,D9*%
X76331500Y-105850000D03*
X76331500Y-107725000D03*
%TD*%
D17*
%TO.C,R10*%
X74000000Y-76500000D03*
X74000000Y-78150000D03*
%TD*%
%TO.C,R4*%
X81331500Y-109482500D03*
X81331500Y-111132500D03*
%TD*%
D14*
%TO.C,U3*%
X63547199Y-95225001D03*
X63547199Y-95874999D03*
X63547199Y-96525001D03*
X63547199Y-97174999D03*
X63547199Y-97824998D03*
X63547199Y-98474999D03*
X63547199Y-99124998D03*
X63547199Y-99774999D03*
X69452801Y-99774999D03*
X69452801Y-99125001D03*
X69452801Y-98474999D03*
X69452801Y-97825001D03*
X69452801Y-97175002D03*
X69452801Y-96525001D03*
X69452801Y-95875002D03*
X69452801Y-95225001D03*
%TD*%
D12*
%TO.C,D4*%
X58500000Y-77023750D03*
X58500000Y-75148750D03*
%TD*%
%TO.C,D5*%
X58500000Y-86423750D03*
X58500000Y-84548750D03*
%TD*%
D11*
%TO.C,R12*%
X58500000Y-63898750D03*
X58500000Y-62248750D03*
%TD*%
D10*
%TO.C,C2*%
X71547199Y-84266301D03*
X71547199Y-85226301D03*
%TD*%
D18*
%TO.C,R19*%
X73274960Y-61000000D03*
X71624960Y-61000000D03*
%TD*%
D11*
%TO.C,R14*%
X58500000Y-82698750D03*
X58500000Y-81048750D03*
%TD*%
D14*
%TO.C,U2*%
X63547199Y-83225001D03*
X63547199Y-83874999D03*
X63547199Y-84525001D03*
X63547199Y-85174999D03*
X63547199Y-85824998D03*
X63547199Y-86474999D03*
X63547199Y-87124998D03*
X63547199Y-87774999D03*
X69452801Y-87774999D03*
X69452801Y-87125001D03*
X69452801Y-86474999D03*
X69452801Y-85825001D03*
X69452801Y-85175002D03*
X69452801Y-84525001D03*
X69452801Y-83875002D03*
X69452801Y-83225001D03*
%TD*%
D10*
%TO.C,C1*%
X71547199Y-72245001D03*
X71547199Y-73205001D03*
%TD*%
D11*
%TO.C,R15*%
X58500000Y-92098750D03*
X58500000Y-90448750D03*
%TD*%
D17*
%TO.C,R17*%
X78831500Y-109500000D03*
X78831500Y-111150000D03*
%TD*%
M02*
