M48
; DRILL file {KiCad 8.0.7} date 2025-01-18T12:10:49-0800
; FORMAT={-:-/ absolute / inch / decimal}
; #@! TF.CreationDate,2025-01-18T12:10:49-08:00
; #@! TF.GenerationSoftware,Kicad,Pcbnew,8.0.7
; #@! TF.FileFunction,Plated,1,4,PTH
FMAT,2
INCH
; #@! TA.AperFunction,Plated,PTH,ViaDrill
T1C0.0118
; #@! TA.AperFunction,Plated,PTH,ComponentDrill
T2C0.0236
; #@! TA.AperFunction,Plated,PTH,ComponentDrill
T3C0.0394
%
G90
G05
T1
X2.1496Y-2.7795
X2.252Y-3.9528
X2.2992Y-4.1969
X2.3031Y-2.6624
X2.3031Y-3.0324
X2.3031Y-3.4025
X2.3031Y-3.7726
X2.3031Y-4.1427
X2.3031Y-4.3011
X2.3031Y-4.5127
X2.3231Y-3.897
X2.378Y-3.9291
X2.3858Y-3.5669
X2.3937Y-3.315
X2.3937Y-3.8734
X2.3993Y-3.7143
X2.4173Y-4.2205
X2.4252Y-3.5669
X2.4252Y-3.7775
X2.4252Y-4.0709
X2.4331Y-2.8346
X2.4331Y-3.315
X2.4331Y-3.4567
X2.4409Y-3.8504
X2.4409Y-3.8819
X2.443Y-2.8048
X2.4803Y-3.1496
X2.4817Y-4.4793
X2.5118Y-3.0315
X2.5433Y-3.063
X2.5491Y-3.8789
X2.5591Y-3.7953
X2.5669Y-3.3307
X2.5756Y-3.8583
X2.5787Y-4.1142
X2.5827Y-3.7008
X2.5984Y-3.7953
X2.5984Y-4.0
X2.5984Y-4.0472
X2.5998Y-4.4882
X2.6033Y-3.5089
X2.6134Y-3.8583
X2.6141Y-2.9341
X2.6331Y-3.8123
X2.6378Y-2.9577
X2.6397Y-3.5058
X2.6693Y-2.9528
X2.6762Y-3.8583
X2.6772Y-3.7929
X2.6929Y-3.2411
X2.7362Y-3.1299
X2.7598Y-3.2177
X2.7706Y-3.5325
X2.804Y-3.6457
X2.815Y-2.0866
X2.815Y-2.2756
X2.815Y-3.248
X2.8168Y-2.8443
X2.8168Y-2.8821
X2.8168Y-3.3176
X2.8168Y-3.3554
X2.8168Y-3.7892
X2.8168Y-3.827
X2.8189Y-3.9764
X2.8268Y-3.9134
X2.8504Y-2.8543
X2.8524Y-2.0866
X2.8524Y-2.2756
X2.8603Y-4.1142
X2.874Y-2.7638
X2.8819Y-4.0532
X2.8937Y-3.9478
X2.8937Y-4.2667
X2.9055Y-3.7559
X2.9134Y-3.0768
X2.9213Y-4.3858
X3.0052Y-4.1673
X3.0709Y-4.4488
X3.1036Y-4.1673
X3.202Y-4.1673
X3.202Y-4.3753
T2
X2.1824Y-2.4606
X2.1824Y-2.5098
X2.1824Y-2.5591
X2.1824Y-2.6083
X2.1824Y-2.6575
X2.1824Y-2.8307
X2.1824Y-2.8799
X2.1824Y-2.9291
X2.1824Y-2.9783
X2.1824Y-3.0276
X2.1824Y-3.2008
X2.1824Y-3.25
X2.1824Y-3.2992
X2.1824Y-3.3484
X2.1824Y-3.3976
X2.1824Y-3.5709
X2.1824Y-3.6201
X2.1824Y-3.6693
X2.1824Y-3.7185
X2.1824Y-3.7677
X2.1824Y-3.9409
X2.1824Y-3.9902
X2.1824Y-4.0394
X2.1824Y-4.0886
X2.1824Y-4.1378
X2.1824Y-4.311
X2.1824Y-4.3602
X2.1824Y-4.4094
X2.1824Y-4.4587
X2.1824Y-4.5079
T3
X2.5535Y-2.1135
X2.5535Y-2.2135
X2.5535Y-2.3135
X2.5535Y-2.4135
X2.5535Y-2.5135
X2.6535Y-2.1135
X2.6535Y-2.2135
X2.6535Y-2.3135
X2.6535Y-2.4135
X2.6535Y-2.5135
X3.0535Y-2.1135
X3.0535Y-2.2135
X3.0535Y-2.3135
X3.0535Y-2.4135
X3.0535Y-2.5135
X3.0535Y-2.6135
X3.0535Y-2.7135
X3.0535Y-2.8135
X3.0535Y-2.9135
X3.0535Y-3.0135
X3.0535Y-3.1135
X3.0535Y-3.2135
X3.0535Y-3.3135
X3.0535Y-3.4135
X3.0535Y-3.5135
X3.0535Y-3.6135
X3.0535Y-3.7135
X3.0535Y-3.8135
X3.0535Y-3.9135
X3.0535Y-4.0135
X3.1535Y-2.1135
X3.1535Y-2.2135
X3.1535Y-2.3135
X3.1535Y-2.4135
X3.1535Y-2.5135
X3.1535Y-2.6135
X3.1535Y-2.7135
X3.1535Y-2.8135
X3.1535Y-2.9135
X3.1535Y-3.0135
X3.1535Y-3.1135
X3.1535Y-3.2135
X3.1535Y-3.3135
X3.1535Y-3.4135
X3.1535Y-3.5135
X3.1535Y-3.6135
X3.1535Y-3.7135
X3.1535Y-3.8135
X3.1535Y-3.9135
X3.1535Y-4.0135
M30
