%TF.GenerationSoftware,KiCad,Pcbnew,8.0.7*%
%TF.CreationDate,2025-01-18T12:10:52-08:00*%
%TF.ProjectId,plex-loader,706c6578-2d6c-46f6-9164-65722e6b6963,rev?*%
%TF.SameCoordinates,Original*%
%TF.FileFunction,Drillmap*%
%TF.FilePolarity,Positive*%
%FSLAX45Y45*%
G04 Gerber Fmt 4.5, Leading zero omitted, Abs format (unit mm)*
G04 Created by KiCad (PCBNEW 8.0.7) date 2025-01-18 12:10:52*
%MOMM*%
%LPD*%
G01*
G04 APERTURE LIST*
%ADD10C,0.200000*%
%ADD11C,0.430000*%
G04 APERTURE END LIST*
D10*
X5000000Y-5000000D02*
X8805040Y-5000000D01*
X8805040Y-11797540D01*
X5000000Y-11797540D01*
X5000000Y-5000000D01*
D11*
X5293000Y-5293000D02*
X5723000Y-5723000D01*
X5723000Y-5293000D02*
X5293000Y-5723000D01*
D10*
X5250777Y-12119024D02*
X5250777Y-11919024D01*
X5250777Y-11919024D02*
X5298396Y-11919024D01*
X5298396Y-11919024D02*
X5326967Y-11928548D01*
X5326967Y-11928548D02*
X5346015Y-11947595D01*
X5346015Y-11947595D02*
X5355539Y-11966643D01*
X5355539Y-11966643D02*
X5365063Y-12004738D01*
X5365063Y-12004738D02*
X5365063Y-12033309D01*
X5365063Y-12033309D02*
X5355539Y-12071405D01*
X5355539Y-12071405D02*
X5346015Y-12090452D01*
X5346015Y-12090452D02*
X5326967Y-12109500D01*
X5326967Y-12109500D02*
X5298396Y-12119024D01*
X5298396Y-12119024D02*
X5250777Y-12119024D01*
X5450777Y-12119024D02*
X5450777Y-11985690D01*
X5450777Y-12023786D02*
X5460301Y-12004738D01*
X5460301Y-12004738D02*
X5469824Y-11995214D01*
X5469824Y-11995214D02*
X5488872Y-11985690D01*
X5488872Y-11985690D02*
X5507920Y-11985690D01*
X5574586Y-12119024D02*
X5574586Y-11985690D01*
X5574586Y-11919024D02*
X5565063Y-11928548D01*
X5565063Y-11928548D02*
X5574586Y-11938071D01*
X5574586Y-11938071D02*
X5584110Y-11928548D01*
X5584110Y-11928548D02*
X5574586Y-11919024D01*
X5574586Y-11919024D02*
X5574586Y-11938071D01*
X5698396Y-12119024D02*
X5679348Y-12109500D01*
X5679348Y-12109500D02*
X5669824Y-12090452D01*
X5669824Y-12090452D02*
X5669824Y-11919024D01*
X5803158Y-12119024D02*
X5784110Y-12109500D01*
X5784110Y-12109500D02*
X5774586Y-12090452D01*
X5774586Y-12090452D02*
X5774586Y-11919024D01*
X6031729Y-12119024D02*
X6031729Y-11919024D01*
X6031729Y-11919024D02*
X6098396Y-12061881D01*
X6098396Y-12061881D02*
X6165062Y-11919024D01*
X6165062Y-11919024D02*
X6165062Y-12119024D01*
X6346015Y-12119024D02*
X6346015Y-12014262D01*
X6346015Y-12014262D02*
X6336491Y-11995214D01*
X6336491Y-11995214D02*
X6317443Y-11985690D01*
X6317443Y-11985690D02*
X6279348Y-11985690D01*
X6279348Y-11985690D02*
X6260301Y-11995214D01*
X6346015Y-12109500D02*
X6326967Y-12119024D01*
X6326967Y-12119024D02*
X6279348Y-12119024D01*
X6279348Y-12119024D02*
X6260301Y-12109500D01*
X6260301Y-12109500D02*
X6250777Y-12090452D01*
X6250777Y-12090452D02*
X6250777Y-12071405D01*
X6250777Y-12071405D02*
X6260301Y-12052357D01*
X6260301Y-12052357D02*
X6279348Y-12042833D01*
X6279348Y-12042833D02*
X6326967Y-12042833D01*
X6326967Y-12042833D02*
X6346015Y-12033309D01*
X6441253Y-11985690D02*
X6441253Y-12185690D01*
X6441253Y-11995214D02*
X6460301Y-11985690D01*
X6460301Y-11985690D02*
X6498396Y-11985690D01*
X6498396Y-11985690D02*
X6517443Y-11995214D01*
X6517443Y-11995214D02*
X6526967Y-12004738D01*
X6526967Y-12004738D02*
X6536491Y-12023786D01*
X6536491Y-12023786D02*
X6536491Y-12080928D01*
X6536491Y-12080928D02*
X6526967Y-12099976D01*
X6526967Y-12099976D02*
X6517443Y-12109500D01*
X6517443Y-12109500D02*
X6498396Y-12119024D01*
X6498396Y-12119024D02*
X6460301Y-12119024D01*
X6460301Y-12119024D02*
X6441253Y-12109500D01*
X6622205Y-12099976D02*
X6631729Y-12109500D01*
X6631729Y-12109500D02*
X6622205Y-12119024D01*
X6622205Y-12119024D02*
X6612682Y-12109500D01*
X6612682Y-12109500D02*
X6622205Y-12099976D01*
X6622205Y-12099976D02*
X6622205Y-12119024D01*
X6622205Y-11995214D02*
X6631729Y-12004738D01*
X6631729Y-12004738D02*
X6622205Y-12014262D01*
X6622205Y-12014262D02*
X6612682Y-12004738D01*
X6612682Y-12004738D02*
X6622205Y-11995214D01*
X6622205Y-11995214D02*
X6622205Y-12014262D01*
X4790000Y-12347540D02*
X4990000Y-12547540D01*
X4990000Y-12347540D02*
X4790000Y-12547540D01*
X5336491Y-12405690D02*
X5336491Y-12539024D01*
X5288872Y-12329500D02*
X5241253Y-12472357D01*
X5241253Y-12472357D02*
X5365063Y-12472357D01*
X5441253Y-12519976D02*
X5450777Y-12529500D01*
X5450777Y-12529500D02*
X5441253Y-12539024D01*
X5441253Y-12539024D02*
X5431729Y-12529500D01*
X5431729Y-12529500D02*
X5441253Y-12519976D01*
X5441253Y-12519976D02*
X5441253Y-12539024D01*
X5517444Y-12339024D02*
X5641253Y-12339024D01*
X5641253Y-12339024D02*
X5574586Y-12415214D01*
X5574586Y-12415214D02*
X5603158Y-12415214D01*
X5603158Y-12415214D02*
X5622205Y-12424738D01*
X5622205Y-12424738D02*
X5631729Y-12434262D01*
X5631729Y-12434262D02*
X5641253Y-12453309D01*
X5641253Y-12453309D02*
X5641253Y-12500928D01*
X5641253Y-12500928D02*
X5631729Y-12519976D01*
X5631729Y-12519976D02*
X5622205Y-12529500D01*
X5622205Y-12529500D02*
X5603158Y-12539024D01*
X5603158Y-12539024D02*
X5546015Y-12539024D01*
X5546015Y-12539024D02*
X5526967Y-12529500D01*
X5526967Y-12529500D02*
X5517444Y-12519976D01*
X5765062Y-12339024D02*
X5784110Y-12339024D01*
X5784110Y-12339024D02*
X5803158Y-12348548D01*
X5803158Y-12348548D02*
X5812682Y-12358071D01*
X5812682Y-12358071D02*
X5822205Y-12377119D01*
X5822205Y-12377119D02*
X5831729Y-12415214D01*
X5831729Y-12415214D02*
X5831729Y-12462833D01*
X5831729Y-12462833D02*
X5822205Y-12500928D01*
X5822205Y-12500928D02*
X5812682Y-12519976D01*
X5812682Y-12519976D02*
X5803158Y-12529500D01*
X5803158Y-12529500D02*
X5784110Y-12539024D01*
X5784110Y-12539024D02*
X5765062Y-12539024D01*
X5765062Y-12539024D02*
X5746015Y-12529500D01*
X5746015Y-12529500D02*
X5736491Y-12519976D01*
X5736491Y-12519976D02*
X5726967Y-12500928D01*
X5726967Y-12500928D02*
X5717443Y-12462833D01*
X5717443Y-12462833D02*
X5717443Y-12415214D01*
X5717443Y-12415214D02*
X5726967Y-12377119D01*
X5726967Y-12377119D02*
X5736491Y-12358071D01*
X5736491Y-12358071D02*
X5746015Y-12348548D01*
X5746015Y-12348548D02*
X5765062Y-12339024D01*
X5955539Y-12339024D02*
X5974586Y-12339024D01*
X5974586Y-12339024D02*
X5993634Y-12348548D01*
X5993634Y-12348548D02*
X6003158Y-12358071D01*
X6003158Y-12358071D02*
X6012682Y-12377119D01*
X6012682Y-12377119D02*
X6022205Y-12415214D01*
X6022205Y-12415214D02*
X6022205Y-12462833D01*
X6022205Y-12462833D02*
X6012682Y-12500928D01*
X6012682Y-12500928D02*
X6003158Y-12519976D01*
X6003158Y-12519976D02*
X5993634Y-12529500D01*
X5993634Y-12529500D02*
X5974586Y-12539024D01*
X5974586Y-12539024D02*
X5955539Y-12539024D01*
X5955539Y-12539024D02*
X5936491Y-12529500D01*
X5936491Y-12529500D02*
X5926967Y-12519976D01*
X5926967Y-12519976D02*
X5917443Y-12500928D01*
X5917443Y-12500928D02*
X5907920Y-12462833D01*
X5907920Y-12462833D02*
X5907920Y-12415214D01*
X5907920Y-12415214D02*
X5917443Y-12377119D01*
X5917443Y-12377119D02*
X5926967Y-12358071D01*
X5926967Y-12358071D02*
X5936491Y-12348548D01*
X5936491Y-12348548D02*
X5955539Y-12339024D01*
X6107920Y-12539024D02*
X6107920Y-12405690D01*
X6107920Y-12424738D02*
X6117443Y-12415214D01*
X6117443Y-12415214D02*
X6136491Y-12405690D01*
X6136491Y-12405690D02*
X6165063Y-12405690D01*
X6165063Y-12405690D02*
X6184110Y-12415214D01*
X6184110Y-12415214D02*
X6193634Y-12434262D01*
X6193634Y-12434262D02*
X6193634Y-12539024D01*
X6193634Y-12434262D02*
X6203158Y-12415214D01*
X6203158Y-12415214D02*
X6222205Y-12405690D01*
X6222205Y-12405690D02*
X6250777Y-12405690D01*
X6250777Y-12405690D02*
X6269824Y-12415214D01*
X6269824Y-12415214D02*
X6279348Y-12434262D01*
X6279348Y-12434262D02*
X6279348Y-12539024D01*
X6374586Y-12539024D02*
X6374586Y-12405690D01*
X6374586Y-12424738D02*
X6384110Y-12415214D01*
X6384110Y-12415214D02*
X6403158Y-12405690D01*
X6403158Y-12405690D02*
X6431729Y-12405690D01*
X6431729Y-12405690D02*
X6450777Y-12415214D01*
X6450777Y-12415214D02*
X6460301Y-12434262D01*
X6460301Y-12434262D02*
X6460301Y-12539024D01*
X6460301Y-12434262D02*
X6469824Y-12415214D01*
X6469824Y-12415214D02*
X6488872Y-12405690D01*
X6488872Y-12405690D02*
X6517443Y-12405690D01*
X6517443Y-12405690D02*
X6536491Y-12415214D01*
X6536491Y-12415214D02*
X6546015Y-12434262D01*
X6546015Y-12434262D02*
X6546015Y-12539024D01*
X6936491Y-12329500D02*
X6765063Y-12586643D01*
X7193634Y-12339024D02*
X7212682Y-12339024D01*
X7212682Y-12339024D02*
X7231729Y-12348548D01*
X7231729Y-12348548D02*
X7241253Y-12358071D01*
X7241253Y-12358071D02*
X7250777Y-12377119D01*
X7250777Y-12377119D02*
X7260301Y-12415214D01*
X7260301Y-12415214D02*
X7260301Y-12462833D01*
X7260301Y-12462833D02*
X7250777Y-12500928D01*
X7250777Y-12500928D02*
X7241253Y-12519976D01*
X7241253Y-12519976D02*
X7231729Y-12529500D01*
X7231729Y-12529500D02*
X7212682Y-12539024D01*
X7212682Y-12539024D02*
X7193634Y-12539024D01*
X7193634Y-12539024D02*
X7174586Y-12529500D01*
X7174586Y-12529500D02*
X7165063Y-12519976D01*
X7165063Y-12519976D02*
X7155539Y-12500928D01*
X7155539Y-12500928D02*
X7146015Y-12462833D01*
X7146015Y-12462833D02*
X7146015Y-12415214D01*
X7146015Y-12415214D02*
X7155539Y-12377119D01*
X7155539Y-12377119D02*
X7165063Y-12358071D01*
X7165063Y-12358071D02*
X7174586Y-12348548D01*
X7174586Y-12348548D02*
X7193634Y-12339024D01*
X7346015Y-12519976D02*
X7355539Y-12529500D01*
X7355539Y-12529500D02*
X7346015Y-12539024D01*
X7346015Y-12539024D02*
X7336491Y-12529500D01*
X7336491Y-12529500D02*
X7346015Y-12519976D01*
X7346015Y-12519976D02*
X7346015Y-12539024D01*
X7546015Y-12539024D02*
X7431729Y-12539024D01*
X7488872Y-12539024D02*
X7488872Y-12339024D01*
X7488872Y-12339024D02*
X7469825Y-12367595D01*
X7469825Y-12367595D02*
X7450777Y-12386643D01*
X7450777Y-12386643D02*
X7431729Y-12396167D01*
X7717444Y-12339024D02*
X7679348Y-12339024D01*
X7679348Y-12339024D02*
X7660301Y-12348548D01*
X7660301Y-12348548D02*
X7650777Y-12358071D01*
X7650777Y-12358071D02*
X7631729Y-12386643D01*
X7631729Y-12386643D02*
X7622206Y-12424738D01*
X7622206Y-12424738D02*
X7622206Y-12500928D01*
X7622206Y-12500928D02*
X7631729Y-12519976D01*
X7631729Y-12519976D02*
X7641253Y-12529500D01*
X7641253Y-12529500D02*
X7660301Y-12539024D01*
X7660301Y-12539024D02*
X7698396Y-12539024D01*
X7698396Y-12539024D02*
X7717444Y-12529500D01*
X7717444Y-12529500D02*
X7726967Y-12519976D01*
X7726967Y-12519976D02*
X7736491Y-12500928D01*
X7736491Y-12500928D02*
X7736491Y-12453309D01*
X7736491Y-12453309D02*
X7726967Y-12434262D01*
X7726967Y-12434262D02*
X7717444Y-12424738D01*
X7717444Y-12424738D02*
X7698396Y-12415214D01*
X7698396Y-12415214D02*
X7660301Y-12415214D01*
X7660301Y-12415214D02*
X7641253Y-12424738D01*
X7641253Y-12424738D02*
X7631729Y-12434262D01*
X7631729Y-12434262D02*
X7622206Y-12453309D01*
X7831729Y-12539024D02*
X7869825Y-12539024D01*
X7869825Y-12539024D02*
X7888872Y-12529500D01*
X7888872Y-12529500D02*
X7898396Y-12519976D01*
X7898396Y-12519976D02*
X7917444Y-12491405D01*
X7917444Y-12491405D02*
X7926967Y-12453309D01*
X7926967Y-12453309D02*
X7926967Y-12377119D01*
X7926967Y-12377119D02*
X7917444Y-12358071D01*
X7917444Y-12358071D02*
X7907920Y-12348548D01*
X7907920Y-12348548D02*
X7888872Y-12339024D01*
X7888872Y-12339024D02*
X7850777Y-12339024D01*
X7850777Y-12339024D02*
X7831729Y-12348548D01*
X7831729Y-12348548D02*
X7822206Y-12358071D01*
X7822206Y-12358071D02*
X7812682Y-12377119D01*
X7812682Y-12377119D02*
X7812682Y-12424738D01*
X7812682Y-12424738D02*
X7822206Y-12443786D01*
X7822206Y-12443786D02*
X7831729Y-12453309D01*
X7831729Y-12453309D02*
X7850777Y-12462833D01*
X7850777Y-12462833D02*
X7888872Y-12462833D01*
X7888872Y-12462833D02*
X7907920Y-12453309D01*
X7907920Y-12453309D02*
X7917444Y-12443786D01*
X7917444Y-12443786D02*
X7926967Y-12424738D01*
X7993634Y-12339024D02*
X8117444Y-12339024D01*
X8117444Y-12339024D02*
X8050777Y-12415214D01*
X8050777Y-12415214D02*
X8079348Y-12415214D01*
X8079348Y-12415214D02*
X8098396Y-12424738D01*
X8098396Y-12424738D02*
X8107920Y-12434262D01*
X8107920Y-12434262D02*
X8117444Y-12453309D01*
X8117444Y-12453309D02*
X8117444Y-12500928D01*
X8117444Y-12500928D02*
X8107920Y-12519976D01*
X8107920Y-12519976D02*
X8098396Y-12529500D01*
X8098396Y-12529500D02*
X8079348Y-12539024D01*
X8079348Y-12539024D02*
X8022206Y-12539024D01*
X8022206Y-12539024D02*
X8003158Y-12529500D01*
X8003158Y-12529500D02*
X7993634Y-12519976D01*
X8193634Y-12339024D02*
X8193634Y-12377119D01*
X8269825Y-12339024D02*
X8269825Y-12377119D01*
X8565063Y-12615214D02*
X8555539Y-12605690D01*
X8555539Y-12605690D02*
X8536491Y-12577119D01*
X8536491Y-12577119D02*
X8526968Y-12558071D01*
X8526968Y-12558071D02*
X8517444Y-12529500D01*
X8517444Y-12529500D02*
X8507920Y-12481881D01*
X8507920Y-12481881D02*
X8507920Y-12443786D01*
X8507920Y-12443786D02*
X8517444Y-12396167D01*
X8517444Y-12396167D02*
X8526968Y-12367595D01*
X8526968Y-12367595D02*
X8536491Y-12348548D01*
X8536491Y-12348548D02*
X8555539Y-12319976D01*
X8555539Y-12319976D02*
X8565063Y-12310452D01*
X8746015Y-12539024D02*
X8631730Y-12539024D01*
X8688872Y-12539024D02*
X8688872Y-12339024D01*
X8688872Y-12339024D02*
X8669825Y-12367595D01*
X8669825Y-12367595D02*
X8650777Y-12386643D01*
X8650777Y-12386643D02*
X8631730Y-12396167D01*
X8984111Y-12539024D02*
X8984111Y-12339024D01*
X9069825Y-12539024D02*
X9069825Y-12434262D01*
X9069825Y-12434262D02*
X9060301Y-12415214D01*
X9060301Y-12415214D02*
X9041253Y-12405690D01*
X9041253Y-12405690D02*
X9012682Y-12405690D01*
X9012682Y-12405690D02*
X8993634Y-12415214D01*
X8993634Y-12415214D02*
X8984111Y-12424738D01*
X9193634Y-12539024D02*
X9174587Y-12529500D01*
X9174587Y-12529500D02*
X9165063Y-12519976D01*
X9165063Y-12519976D02*
X9155539Y-12500928D01*
X9155539Y-12500928D02*
X9155539Y-12443786D01*
X9155539Y-12443786D02*
X9165063Y-12424738D01*
X9165063Y-12424738D02*
X9174587Y-12415214D01*
X9174587Y-12415214D02*
X9193634Y-12405690D01*
X9193634Y-12405690D02*
X9222206Y-12405690D01*
X9222206Y-12405690D02*
X9241253Y-12415214D01*
X9241253Y-12415214D02*
X9250777Y-12424738D01*
X9250777Y-12424738D02*
X9260301Y-12443786D01*
X9260301Y-12443786D02*
X9260301Y-12500928D01*
X9260301Y-12500928D02*
X9250777Y-12519976D01*
X9250777Y-12519976D02*
X9241253Y-12529500D01*
X9241253Y-12529500D02*
X9222206Y-12539024D01*
X9222206Y-12539024D02*
X9193634Y-12539024D01*
X9374587Y-12539024D02*
X9355539Y-12529500D01*
X9355539Y-12529500D02*
X9346015Y-12510452D01*
X9346015Y-12510452D02*
X9346015Y-12339024D01*
X9526968Y-12529500D02*
X9507920Y-12539024D01*
X9507920Y-12539024D02*
X9469825Y-12539024D01*
X9469825Y-12539024D02*
X9450777Y-12529500D01*
X9450777Y-12529500D02*
X9441253Y-12510452D01*
X9441253Y-12510452D02*
X9441253Y-12434262D01*
X9441253Y-12434262D02*
X9450777Y-12415214D01*
X9450777Y-12415214D02*
X9469825Y-12405690D01*
X9469825Y-12405690D02*
X9507920Y-12405690D01*
X9507920Y-12405690D02*
X9526968Y-12415214D01*
X9526968Y-12415214D02*
X9536492Y-12434262D01*
X9536492Y-12434262D02*
X9536492Y-12453309D01*
X9536492Y-12453309D02*
X9441253Y-12472357D01*
X9603158Y-12615214D02*
X9612682Y-12605690D01*
X9612682Y-12605690D02*
X9631730Y-12577119D01*
X9631730Y-12577119D02*
X9641253Y-12558071D01*
X9641253Y-12558071D02*
X9650777Y-12529500D01*
X9650777Y-12529500D02*
X9660301Y-12481881D01*
X9660301Y-12481881D02*
X9660301Y-12443786D01*
X9660301Y-12443786D02*
X9650777Y-12396167D01*
X9650777Y-12396167D02*
X9641253Y-12367595D01*
X9641253Y-12367595D02*
X9631730Y-12348548D01*
X9631730Y-12348548D02*
X9612682Y-12319976D01*
X9612682Y-12319976D02*
X9603158Y-12310452D01*
X9965063Y-12615214D02*
X9955539Y-12605690D01*
X9955539Y-12605690D02*
X9936492Y-12577119D01*
X9936492Y-12577119D02*
X9926968Y-12558071D01*
X9926968Y-12558071D02*
X9917444Y-12529500D01*
X9917444Y-12529500D02*
X9907920Y-12481881D01*
X9907920Y-12481881D02*
X9907920Y-12443786D01*
X9907920Y-12443786D02*
X9917444Y-12396167D01*
X9917444Y-12396167D02*
X9926968Y-12367595D01*
X9926968Y-12367595D02*
X9936492Y-12348548D01*
X9936492Y-12348548D02*
X9955539Y-12319976D01*
X9955539Y-12319976D02*
X9965063Y-12310452D01*
X10041253Y-12405690D02*
X10041253Y-12539024D01*
X10041253Y-12424738D02*
X10050777Y-12415214D01*
X10050777Y-12415214D02*
X10069825Y-12405690D01*
X10069825Y-12405690D02*
X10098396Y-12405690D01*
X10098396Y-12405690D02*
X10117444Y-12415214D01*
X10117444Y-12415214D02*
X10126968Y-12434262D01*
X10126968Y-12434262D02*
X10126968Y-12539024D01*
X10250777Y-12539024D02*
X10231730Y-12529500D01*
X10231730Y-12529500D02*
X10222206Y-12519976D01*
X10222206Y-12519976D02*
X10212682Y-12500928D01*
X10212682Y-12500928D02*
X10212682Y-12443786D01*
X10212682Y-12443786D02*
X10222206Y-12424738D01*
X10222206Y-12424738D02*
X10231730Y-12415214D01*
X10231730Y-12415214D02*
X10250777Y-12405690D01*
X10250777Y-12405690D02*
X10279349Y-12405690D01*
X10279349Y-12405690D02*
X10298396Y-12415214D01*
X10298396Y-12415214D02*
X10307920Y-12424738D01*
X10307920Y-12424738D02*
X10317444Y-12443786D01*
X10317444Y-12443786D02*
X10317444Y-12500928D01*
X10317444Y-12500928D02*
X10307920Y-12519976D01*
X10307920Y-12519976D02*
X10298396Y-12529500D01*
X10298396Y-12529500D02*
X10279349Y-12539024D01*
X10279349Y-12539024D02*
X10250777Y-12539024D01*
X10374587Y-12405690D02*
X10450777Y-12405690D01*
X10403158Y-12339024D02*
X10403158Y-12510452D01*
X10403158Y-12510452D02*
X10412682Y-12529500D01*
X10412682Y-12529500D02*
X10431730Y-12539024D01*
X10431730Y-12539024D02*
X10450777Y-12539024D01*
X10669825Y-12405690D02*
X10669825Y-12605690D01*
X10669825Y-12415214D02*
X10688873Y-12405690D01*
X10688873Y-12405690D02*
X10726968Y-12405690D01*
X10726968Y-12405690D02*
X10746015Y-12415214D01*
X10746015Y-12415214D02*
X10755539Y-12424738D01*
X10755539Y-12424738D02*
X10765063Y-12443786D01*
X10765063Y-12443786D02*
X10765063Y-12500928D01*
X10765063Y-12500928D02*
X10755539Y-12519976D01*
X10755539Y-12519976D02*
X10746015Y-12529500D01*
X10746015Y-12529500D02*
X10726968Y-12539024D01*
X10726968Y-12539024D02*
X10688873Y-12539024D01*
X10688873Y-12539024D02*
X10669825Y-12529500D01*
X10879349Y-12539024D02*
X10860301Y-12529500D01*
X10860301Y-12529500D02*
X10850777Y-12510452D01*
X10850777Y-12510452D02*
X10850777Y-12339024D01*
X11041254Y-12539024D02*
X11041254Y-12434262D01*
X11041254Y-12434262D02*
X11031730Y-12415214D01*
X11031730Y-12415214D02*
X11012682Y-12405690D01*
X11012682Y-12405690D02*
X10974587Y-12405690D01*
X10974587Y-12405690D02*
X10955539Y-12415214D01*
X11041254Y-12529500D02*
X11022206Y-12539024D01*
X11022206Y-12539024D02*
X10974587Y-12539024D01*
X10974587Y-12539024D02*
X10955539Y-12529500D01*
X10955539Y-12529500D02*
X10946015Y-12510452D01*
X10946015Y-12510452D02*
X10946015Y-12491405D01*
X10946015Y-12491405D02*
X10955539Y-12472357D01*
X10955539Y-12472357D02*
X10974587Y-12462833D01*
X10974587Y-12462833D02*
X11022206Y-12462833D01*
X11022206Y-12462833D02*
X11041254Y-12453309D01*
X11107920Y-12405690D02*
X11184111Y-12405690D01*
X11136492Y-12339024D02*
X11136492Y-12510452D01*
X11136492Y-12510452D02*
X11146015Y-12529500D01*
X11146015Y-12529500D02*
X11165063Y-12539024D01*
X11165063Y-12539024D02*
X11184111Y-12539024D01*
X11326968Y-12529500D02*
X11307920Y-12539024D01*
X11307920Y-12539024D02*
X11269825Y-12539024D01*
X11269825Y-12539024D02*
X11250777Y-12529500D01*
X11250777Y-12529500D02*
X11241253Y-12510452D01*
X11241253Y-12510452D02*
X11241253Y-12434262D01*
X11241253Y-12434262D02*
X11250777Y-12415214D01*
X11250777Y-12415214D02*
X11269825Y-12405690D01*
X11269825Y-12405690D02*
X11307920Y-12405690D01*
X11307920Y-12405690D02*
X11326968Y-12415214D01*
X11326968Y-12415214D02*
X11336492Y-12434262D01*
X11336492Y-12434262D02*
X11336492Y-12453309D01*
X11336492Y-12453309D02*
X11241253Y-12472357D01*
X11507920Y-12539024D02*
X11507920Y-12339024D01*
X11507920Y-12529500D02*
X11488873Y-12539024D01*
X11488873Y-12539024D02*
X11450777Y-12539024D01*
X11450777Y-12539024D02*
X11431730Y-12529500D01*
X11431730Y-12529500D02*
X11422206Y-12519976D01*
X11422206Y-12519976D02*
X11412682Y-12500928D01*
X11412682Y-12500928D02*
X11412682Y-12443786D01*
X11412682Y-12443786D02*
X11422206Y-12424738D01*
X11422206Y-12424738D02*
X11431730Y-12415214D01*
X11431730Y-12415214D02*
X11450777Y-12405690D01*
X11450777Y-12405690D02*
X11488873Y-12405690D01*
X11488873Y-12405690D02*
X11507920Y-12415214D01*
X11584111Y-12615214D02*
X11593634Y-12605690D01*
X11593634Y-12605690D02*
X11612682Y-12577119D01*
X11612682Y-12577119D02*
X11622206Y-12558071D01*
X11622206Y-12558071D02*
X11631730Y-12529500D01*
X11631730Y-12529500D02*
X11641253Y-12481881D01*
X11641253Y-12481881D02*
X11641253Y-12443786D01*
X11641253Y-12443786D02*
X11631730Y-12396167D01*
X11631730Y-12396167D02*
X11622206Y-12367595D01*
X11622206Y-12367595D02*
X11612682Y-12348548D01*
X11612682Y-12348548D02*
X11593634Y-12319976D01*
X11593634Y-12319976D02*
X11584111Y-12310452D01*
M02*
